<svg width="203" height="254" viewBox="0 0 203 254" fill="none" xmlns="http://www.w3.org/2000/svg">
<path d="M201.87 44.8992L2.0705 45.9227L3.13341 253.423L202.933 252.399L201.87 44.8992Z" fill="#9F3121"/>
<path d="M122.1 46.1H81V251.8H122.1V46.1Z" fill="white"/>
<path d="M108.2 46.1H94.4V251.8H108.2V46.1Z" fill="#C1E8FB"/>
<path d="M202.4 128.4H0.700012V169.5H202.4V128.4Z" fill="white"/>
<path d="M202.4 141.7H0.700012V155.5H202.4V141.7Z" fill="#C1E8FB"/>
<path d="M54.3 46H147.3C147 44.5 146.3 43.1 145.2 41.9L140.2 36.9L142.1 30C143.2 25.8 140.7 21.6 136.6 20.5L129.7 18.6L127.9 11.7C126.8 7.50001 122.5 5.10001 118.4 6.20001L111.5 8L106.5 2.90002C103.4 -0.0999756 98.5 -0.0999756 95.5 2.90002L90.5 7.90002L83.6 6C79.4 4.9 75.2 7.3 74.1 11.5L72.3 18.4L65.4 20.2C61.2 21.3 58.8 25.6 59.9 29.7L61.7 36.6L56.7 41.6C55.2 43 54.5 44.5 54.3 46Z" fill="white"/>
</svg>
