<svg width="207" height="245" viewBox="0 0 207 245" fill="none" xmlns="http://www.w3.org/2000/svg">
<path d="M206.5 103.3L206.2 45.6L0.199951 46.7L0.5 103.3H206.5Z" fill="#F79842"/>
<path d="M7.09998 101.6L7.80005 245L198.1 243.9L197.5 101.6H7.09998Z" fill="#FAAC44"/>
<path d="M120.4 44.6H85.4V244.7H120.4V44.6Z" fill="white"/>
<path d="M44.2 29.9C44.5 29.8 44.8 29.8 45.2 29.8C45.2 29.8 47.2 29.5 55.6 30.5C61.3 31.1 69.6 32.2 81.2 34.3C89.3 35.7 96.5 37.2 102.2 38.5C102.2 38.5 90.4 13.4 64.5 3.29998C63.1 2.79998 61.9 2.39999 60.9 1.99999C59.9 1.69999 59 1.39996 58.1 1.09996C57.8 0.999964 57.6 0.900013 57.4 0.900013C49.1 -1.59999 48.9 7.29998 43.7 28.3C43.5 29.1 43.4 29.7 43.4 30.3C43.7 30 43.9 29.9 44.2 29.9Z" fill="white"/>
<path d="M50.1 68.6C52 68.8 54.2 69 56.7 69.1C57.4 69 93.8 65.8 101.6 42.6C101.8 41.2 102.2 39.8 102.6 38.4C96.9 37.1 89.7 35.6 81.6 34.2C69.9 32.1 61.7 31 56 30.4C47.5 29.4 45.6 29.7 45.6 29.7C45.3 29.7 45 29.8 44.7 29.8C42.1 30.4 41.3 32.5 41.1 33.4C41 33.8 41 34.2 40.9 34.7C40.5 39.1 40 44.1 39.5 48.5L38.2 61.6C38.2 61.8 38.2 62 38.1 62.2C38.1 63 38.2 64.2 39.2 65.2C41.3 67.8 50.1 68.6 50.1 68.6Z" fill="white"/>
<path d="M160.5 29.9C160.2 29.8 159.9 29.8 159.5 29.8C159.5 29.8 157.5 29.5 149.1 30.5C143.4 31.1 135.1 32.2 123.5 34.3C115.4 35.7 108.2 37.2 102.5 38.5C102.5 38.5 114.3 13.4 140.2 3.29998C141.6 2.79998 142.8 2.39999 143.8 1.99999C144.8 1.69999 145.7 1.39996 146.6 1.09996C146.9 0.999964 147.1 0.900013 147.3 0.900013C155.6 -1.59999 155.8 7.29998 161 28.3C161.2 29.1 161.3 29.7 161.3 30.3C161.1 30 160.8 29.9 160.5 29.9Z" fill="white"/>
<path d="M102.5 38.5C102.5 38.4 102.5 38.4 102.5 38.5C102.6 38.5 102.6 38.5 102.5 38.5Z" fill="#C13534"/>
<path d="M154.7 68.6C152.8 68.8 150.6 69 148.1 69.1C147.4 69 111 65.8 103.2 42.6C103 41.2 102.6 39.8 102.2 38.4C107.9 37.1 115.1 35.6 123.2 34.2C134.9 32.1 143.1 31 148.8 30.4C157.3 29.4 159.2 29.7 159.2 29.7C159.5 29.7 159.8 29.8 160.1 29.8H160.2C162.8 30.4 163.6 32.5 163.8 33.4C163.9 33.8 163.9 34.2 164 34.7C164.4 39.1 164.9 44.1 165.4 48.5L166.7 61.6C166.7 61.8 166.8 62 166.8 62.2C166.8 63 166.7 64.2 165.7 65.2C163.4 67.8 154.7 68.6 154.7 68.6Z" fill="white"/>
<path d="M50.1 63.1C52 63.3 54.2 63.5 56.7 63.5C57.4 63.5 93.8 60.7 101.6 40.8C101.8 39.6 102.2 38.4 102.6 37.2C96.9 36.1 89.7 34.8 81.6 33.6C69.9 31.8 61.7 30.9 56 30.4C47.5 29.5 45.6 29.8 45.6 29.8C45.3 29.8 45 29.9 44.7 29.9C42.1 30.4 41.3 32.2 41.1 33C41 33.3 41 33.7 40.9 34.1C40.5 37.9 40 42.2 39.5 46L38.2 57.2C38.2 57.3 38.2 57.5 38.1 57.7C38.1 58.4 38.2 59.4 39.2 60.3C41.3 62.4 50.1 63.1 50.1 63.1Z" fill="#E9E9EA"/>
<path d="M154.7 63.1C152.8 63.3 150.6 63.5 148.1 63.5C147.4 63.5 111 60.7 103.2 40.8C103 39.6 102.6 38.4 102.2 37.2C107.9 36.1 115.1 34.8 123.2 33.6C134.9 31.8 143.1 30.9 148.8 30.4C157.3 29.5 159.2 29.8 159.2 29.8C159.5 29.8 159.8 29.9 160.1 29.9H160.2C162.8 30.4 163.6 32.2 163.8 33C163.9 33.3 163.9 33.7 164 34.1C164.4 37.9 164.9 42.2 165.4 46L166.7 57.2C166.7 57.3 166.8 57.5 166.8 57.7C166.8 58.4 166.7 59.4 165.7 60.3C163.4 62.5 154.7 63.1 154.7 63.1Z" fill="#E9E9EA"/>
<path d="M132.6 65.7C121.6 62.3 108.2 55.6 103.9 42.5C103.7 41.3 103.4 40.1 103.1 38.9C103 39.3 102.9 39.7 102.8 40.1C102.7 39.7 102.6 39.3 102.5 38.9C102.1 40.1 101.8 41.3 101.7 42.5C97.4 55.5 84 62.2 73 65.7C64.4 84.8 54.9 99.9 50.1 107.2C56.2 106.5 67.9 103.7 67.9 103.7C67.9 103.7 70 107.8 75.6 121.8C81.1 113.5 93.6 86.8 102.9 66.1C112.2 86.7 124.6 113.5 130.2 121.8C135.8 107.8 137.9 103.7 137.9 103.7C137.9 103.7 149.6 106.5 155.7 107.2C150.7 100 141.2 84.8 132.6 65.7Z" fill="#E9E9EA"/>
</svg>
