<svg width="515" height="288" viewBox="0 0 515 288" fill="none" xmlns="http://www.w3.org/2000/svg">
<path d="M397.248 192.627C369.089 192.627 346.267 215.447 346.267 243.605V243.611H245.792L268.511 41.2987H344.236L414.555 136.5L489.201 170.033C489.201 170.033 503.266 179.775 503.266 190.591V243.611H448.232V243.605C448.232 215.447 425.405 192.627 397.248 192.627Z" fill="white"/>
<path d="M353.456 243.605C353.456 267.792 373.061 287.399 397.248 287.399C421.435 287.399 441.04 267.792 441.04 243.605C441.04 219.423 421.435 199.817 397.248 199.817C373.061 199.817 353.456 219.423 353.456 243.605Z" fill="black"/>
<path d="M377.156 243.605C377.156 254.704 386.148 263.701 397.248 263.701C408.347 263.701 417.343 254.704 417.343 243.605C417.343 232.508 408.347 223.512 397.248 223.512C386.148 223.512 377.156 232.508 377.156 243.605Z" fill="white"/>
<path d="M336.665 54.2827L391.837 130.556H290.148V54.2827H336.665Z" fill="#404042"/>
<path d="M471.893 242.517C471.893 246.103 474.8 249.008 478.385 249.008H507.593C511.178 249.008 514.084 246.103 514.084 242.517V234.944C514.084 231.359 511.178 228.453 507.593 228.453H478.385C474.8 228.453 471.893 231.359 471.893 234.944V242.517Z" fill="#404042"/>
<path d="M285.82 148.94C285.82 151.031 287.515 152.727 289.604 152.727H304.753C306.841 152.727 308.537 151.031 308.537 148.94C308.537 146.848 306.841 145.156 304.753 145.156H289.604C287.515 145.156 285.82 146.848 285.82 148.94Z" fill="#404042"/>
<path d="M297.177 34.828V11.724C297.177 5.34537 302.355 0.173317 308.729 0.173317H318.363C324.74 0.173317 329.912 5.34537 329.912 11.724V34.828H297.177Z" fill="#F04B49"/>
<path d="M470.809 189.508H503.266V212.224H470.809C467.224 212.224 464.319 209.32 464.319 205.733V196C464.319 192.412 467.224 189.508 470.809 189.508Z" fill="#404042"/>
<path d="M31.6934 17.5H251.691C265.193 17.5 276.133 28.4453 276.133 41.948V219.168C276.133 232.665 265.193 243.611 251.691 243.611H165.873V243.605C165.873 215.447 143.048 192.627 114.892 192.627C86.7347 192.627 63.908 215.447 63.908 243.605V243.611H31.6934C18.2 243.611 7.25065 232.665 7.25065 219.168V41.948C7.25065 28.4453 18.2 17.5 31.6934 17.5Z" fill="white"/>
<path d="M71.1 243.605C71.1 267.792 90.7053 287.399 114.892 287.399C139.076 287.399 158.684 267.792 158.684 243.605C158.684 219.423 139.076 199.817 114.892 199.817C90.7053 199.817 71.1 219.423 71.1 243.605Z" fill="black"/>
<path d="M94.7973 243.605C94.7973 254.704 103.793 263.701 114.892 263.701C125.989 263.701 134.984 254.704 134.984 243.605C134.984 232.508 125.989 223.512 114.892 223.512C103.793 223.512 94.7973 232.508 94.7973 243.605Z" fill="white"/>
<path d="M62.964 93.2267C62.964 121.907 86.2133 145.156 114.892 145.156C143.572 145.156 166.819 121.907 166.819 93.2267C166.819 64.548 143.572 41.2987 114.892 41.2987C86.2133 41.2987 62.964 64.548 62.964 93.2267Z" fill="#F04B49"/>
<path d="M86.764 85.1146H106.777V65.0987H123.004V85.1146H143.02V101.339H123.004V121.356H106.777V101.339H86.764V85.1146Z" fill="white"/>
<path d="M29.4294 172.199C29.4294 175.784 32.336 178.691 35.92 178.691H390.757C394.341 178.691 397.248 175.784 397.248 172.199V171.119C397.248 167.533 394.341 164.628 390.757 164.628H35.92C32.336 164.628 29.4294 167.533 29.4294 171.119V172.199Z" fill="#F04B49"/>
<path d="M0.224021 242.517C0.224021 246.103 3.12931 249.008 6.71465 249.008H35.9227C39.508 249.008 42.4133 246.103 42.4133 242.517V234.944C42.4133 231.359 39.508 228.453 35.9227 228.453H6.71465C3.12931 228.453 0.224021 231.359 0.224021 234.944V242.517Z" fill="#404042"/>
</svg>
