<svg width="1400" height="977" viewBox="0 0 1400 977" fill="none" xmlns="http://www.w3.org/2000/svg">
<path d="M1400 0H0V976.2H1400V0Z" fill="#CBE9FC"/>
<g opacity="0.3">
<path opacity="0.3" d="M55 0H0V812H55V0Z" fill="#CFDCEB"/>
<path opacity="0.3" d="M123 0H67V812H123V0Z" fill="#CFDCEB"/>
<path opacity="0.3" d="M190 0H134V812H190V0Z" fill="#CFDCEB"/>
<path opacity="0.3" d="M257 0H202V812H257V0Z" fill="#CFDCEB"/>
<path opacity="0.3" d="M324 0H269V812H324V0Z" fill="#CFDCEB"/>
<path opacity="0.3" d="M392 0H336V812H392V0Z" fill="#CFDCEB"/>
<path opacity="0.3" d="M459 0H403V812H459V0Z" fill="#CFDCEB"/>
<path opacity="0.3" d="M526 0H471V812H526V0Z" fill="#CFDCEB"/>
<path opacity="0.3" d="M593 0H538V812H593V0Z" fill="#CFDCEB"/>
<path opacity="0.3" d="M659 0H605V812H659V0Z" fill="#CFDCEB"/>
<path opacity="0.3" d="M728 0H672V812H728V0Z" fill="#CFDCEB"/>
<path opacity="0.3" d="M795 0H740V812H795V0Z" fill="#CFDCEB"/>
<path opacity="0.3" d="M862 0H807V812H862V0Z" fill="#CFDCEB"/>
<path opacity="0.3" d="M928 0H874V812H928V0Z" fill="#CFDCEB"/>
<path opacity="0.3" d="M997 0H941V812H997V0Z" fill="#CFDCEB"/>
<path opacity="0.3" d="M1064 0H1008V812H1064V0Z" fill="#CFDCEB"/>
<path opacity="0.3" d="M1131 0H1076V812H1131V0Z" fill="#CFDCEB"/>
<path opacity="0.3" d="M1197 0H1143V812H1197V0Z" fill="#CFDCEB"/>
<path opacity="0.3" d="M1266 0H1210V812H1266V0Z" fill="#CFDCEB"/>
<path opacity="0.3" d="M1333 0H1277V812H1333V0Z" fill="#CFDCEB"/>
<path opacity="0.3" d="M1400 0H1345V812H1400V0Z" fill="#CFDCEB"/>
</g>
</svg>
