<svg width="199" height="206" viewBox="0 0 199 206" fill="none" xmlns="http://www.w3.org/2000/svg">
<path fill-rule="evenodd" clip-rule="evenodd" d="M35.6 198.1C35.6 200.6 33.4 202.5 30.6 202.5H5.5C2.8 202.5 0.5 200.5 0.5 198.1V38C0.5 35.6 2.7 33.6 5.5 33.6H30.6C33.3 33.6 35.6 35.6 35.6 38V198.1Z" fill="#AFC5DD"/>
<path d="M35.7 74.7H0.599976V161.4H35.7V74.7Z" fill="#D1DEEC"/>
<path fill-rule="evenodd" clip-rule="evenodd" d="M72.7 198C72.7 200.9 70.3 203.3 67.4 203.3H40.7C37.8 203.3 35.4 200.9 35.4 198V5.8C35.4 2.9 37.8 0.5 40.7 0.5H67.4C70.3 0.5 72.7 2.9 72.7 5.8V198Z" fill="#C4D4E6"/>
<path d="M72.6 16.4H35.6V22.7H72.6V16.4Z" fill="#86A7CC"/>
<path d="M72.6 25.9H35.6V41.2H72.6V25.9Z" fill="#86A7CC"/>
<path d="M72.7 160.3H35.5V181.2H72.7V160.3Z" fill="#86A7CC"/>
<path d="M114.4 205.8L141.1 17.6C141.8 12.9 138.5 8.59999 133.8 7.89999L106.8 4.09998C102.1 3.39998 97.8 6.69999 97.1 11.4L70.3 199.6L114.4 205.8Z" fill="#AFC5DD"/>
<path d="M121.5 155.6L131.5 85.3L87.6 79.1L77.6 149.4L121.5 155.6Z" fill="#D7E2EE"/>
<path d="M105.9 39.9C106.6 34.7 111.5 31.1 116.7 31.8C121.9 32.5 125.5 37.4 124.8 42.6C124.1 47.8 119.2 51.4 114 50.7C108.8 49.9 105.2 45.1 105.9 39.9Z" fill="#D7E2EE"/>
<path d="M198.4 22.8H141.2V201.8H198.4V22.8Z" fill="#BCCFE3"/>
<path d="M194.1 35.4H145.5V192.6H194.1V35.4Z" stroke="#86A7CC" stroke-width="3.0767" stroke-miterlimit="10"/>
</svg>
