<svg width="293" height="166" viewBox="0 0 293 166" fill="none" xmlns="http://www.w3.org/2000/svg">
<path d="M38.0161 111.951H194.79V119.246H38.0161V111.951Z" fill="#808184"/>
<path d="M34.298 117.246H199.551V124.557H34.298V117.246Z" fill="#221F20"/>
<path fill-rule="evenodd" clip-rule="evenodd" d="M202.621 131.387H67.4941C63.8051 131.387 60.79 134.403 60.79 138.092C60.79 141.781 63.8051 144.795 67.4941 144.795H202.621C206.311 144.795 209.326 141.781 209.326 138.092C209.326 134.402 206.311 131.387 202.621 131.387Z" fill="#221F20"/>
<path d="M20.8741 120.895H227.269V140.795H20.8741V120.895Z" fill="#404042"/>
<path d="M212.804 116.514H289.565V146.26H212.804V116.514Z" fill="#221F20"/>
<path fill-rule="evenodd" clip-rule="evenodd" d="M292.649 128.992H274.199V153.781H285.607C289.48 153.781 292.649 150.613 292.649 146.74V128.992Z" fill="#58595B"/>
<path fill-rule="evenodd" clip-rule="evenodd" d="M292.649 126.289C283.212 126.289 273.761 126.289 264.325 126.289C264.325 122.416 261.156 119.246 257.283 119.246C240.509 119.246 223.72 119.246 206.945 119.246C206.945 99.049 206.945 78.838 206.945 58.627C206.945 54.754 210.114 51.584 213.988 51.584C231.565 51.584 249.157 51.584 266.748 51.584C273.847 51.584 292.649 105.979 292.649 105.979C292.649 112.754 292.649 119.527 292.649 126.289Z" fill="#EF4323"/>
<path fill-rule="evenodd" clip-rule="evenodd" d="M229.227 119.246C229.227 99.049 229.227 78.838 229.227 58.627C229.227 54.754 232.396 51.584 236.269 51.584H213.988C210.114 51.584 206.945 54.754 206.945 58.627C206.945 78.838 206.945 99.049 206.945 119.246H229.227Z" fill="#D83327"/>
<path fill-rule="evenodd" clip-rule="evenodd" d="M219.057 92.992V58.627C219.057 57.078 220.326 55.811 221.874 55.811C239.198 55.811 234.17 55.811 251.494 55.811C252.987 57.206 255.508 61.868 256.268 63.332C258.972 68.514 261.352 73.992 263.592 79.402C265.437 83.894 267.239 88.429 268.972 92.992H219.057Z" fill="#E6F6FD"/>
<path fill-rule="evenodd" clip-rule="evenodd" d="M271.269 55.811H261.495C262.988 57.206 265.509 61.868 266.269 63.332C268.973 68.514 271.339 73.992 273.579 79.402C275.438 83.894 277.241 88.429 278.974 92.992H287.932C283.396 80.938 276.48 63.684 271.269 55.811Z" fill="#E6F6FD"/>
<path fill-rule="evenodd" clip-rule="evenodd" d="M281.522 103.246C279.396 103.246 277.664 104.978 277.664 107.092V117.303C277.664 119.627 279.564 121.528 281.889 121.528H283.706C286.03 121.528 287.932 119.628 287.932 117.303V109.67C287.931 106.135 285.044 103.246 281.522 103.246Z" fill="white"/>
<path fill-rule="evenodd" clip-rule="evenodd" d="M281.072 121.457C283.002 121.062 284.467 119.346 284.467 117.303V109.67C284.467 106.824 282.594 104.387 280.016 103.557C278.635 104.149 277.664 105.514 277.664 107.092V117.303C277.664 119.346 279.128 121.063 281.072 121.457Z" fill="#E6F6FD"/>
<path fill-rule="evenodd" clip-rule="evenodd" d="M219.057 115.289H261.931C266.199 115.289 269.677 111.797 269.677 107.543V98.725C269.677 98.346 269.367 98.022 268.973 98.022C268.592 98.022 268.269 98.346 268.269 98.725V107.543C268.269 111.022 265.423 113.881 261.931 113.881H219.057C218.662 113.881 218.353 114.19 218.353 114.584C218.353 114.965 218.663 115.289 219.057 115.289Z" fill="#C12626"/>
<path fill-rule="evenodd" clip-rule="evenodd" d="M233.129 96.613H225.325C224.551 96.613 223.918 97.246 223.918 98.021V99.781C223.918 100.556 224.551 101.189 225.325 101.189H233.129C233.903 101.189 234.537 100.556 234.537 99.781V98.021C234.537 97.246 233.903 96.613 233.129 96.613Z" fill="#C12626"/>
<path fill-rule="evenodd" clip-rule="evenodd" d="M283.706 111.402H277.664V117.302C277.664 119.626 279.564 121.527 281.889 121.527H283.706C286.03 121.527 287.932 119.627 287.932 117.302V115.626C287.931 113.303 286.03 111.402 283.706 111.402Z" fill="#F58220"/>
<path fill-rule="evenodd" clip-rule="evenodd" d="M283.425 128.992H274.199V153.781H276.382C280.256 153.781 283.425 150.613 283.425 146.74V128.992Z" fill="#404042"/>
<path fill-rule="evenodd" clip-rule="evenodd" d="M229.227 92.992V58.627C229.227 57.627 229.438 56.67 229.818 55.811H221.875C220.326 55.811 219.058 57.079 219.058 58.627V92.992H229.227Z" fill="#CCEAF5"/>
<path fill-rule="evenodd" clip-rule="evenodd" d="M281.072 121.457C283.002 121.062 284.467 119.346 284.467 117.303V111.473C284.227 111.416 283.974 111.403 283.706 111.403H277.664V117.303C277.664 119.346 279.128 121.063 281.072 121.457Z" fill="#E27226"/>
<path fill-rule="evenodd" clip-rule="evenodd" d="M239.41 165.711C227.213 165.711 217.311 155.824 217.311 143.627C217.311 131.43 227.212 121.527 239.41 121.527C251.608 121.527 261.495 131.429 261.495 143.627C261.495 155.825 251.607 165.711 239.41 165.711Z" fill="#58595B"/>
<path fill-rule="evenodd" clip-rule="evenodd" d="M229.086 124.092C228.481 126.106 228.156 128.26 228.156 130.473C228.156 142.684 238.044 152.571 250.241 152.571C253.96 152.571 257.467 151.641 260.551 150.008C257.805 159.092 249.382 165.711 239.41 165.711C227.213 165.711 217.311 155.824 217.311 143.627C217.311 135.148 222.086 127.795 229.086 124.092Z" fill="#404042"/>
<path fill-rule="evenodd" clip-rule="evenodd" d="M239.41 156.895C232.072 156.895 226.129 150.952 226.129 143.627C226.129 136.289 232.072 130.346 239.41 130.346C246.734 130.346 252.678 136.289 252.678 143.627C252.678 150.951 246.734 156.895 239.41 156.895Z" fill="#D1D2D4"/>
<path fill-rule="evenodd" clip-rule="evenodd" d="M239.41 148.232C236.861 148.232 234.79 146.175 234.79 143.627C234.79 141.079 236.861 139.008 239.41 139.008C241.945 139.008 244.015 141.078 244.015 143.627C244.015 146.176 241.945 148.232 239.41 148.232Z" fill="#404042"/>
<path fill-rule="evenodd" clip-rule="evenodd" d="M228.762 135.67C231.03 145.049 239.269 152.092 249.241 152.543C246.804 155.219 243.297 156.895 239.41 156.895C232.072 156.895 226.129 150.952 226.129 143.627C226.129 140.641 227.114 137.895 228.762 135.67Z" fill="#BBBDBF"/>
<path fill-rule="evenodd" clip-rule="evenodd" d="M239.41 118.711C225.649 118.711 214.495 129.865 214.495 143.627C214.495 145.697 214.762 147.711 215.241 149.641H218.142C217.607 147.725 217.311 145.711 217.311 143.627C217.311 131.43 227.212 121.527 239.41 121.527C251.608 121.527 261.495 131.429 261.495 143.627C261.495 145.711 261.199 147.725 260.664 149.641H263.579C264.058 147.711 264.311 145.698 264.311 143.627C264.311 129.865 253.156 118.711 239.41 118.711Z" fill="#808184"/>
<path fill-rule="evenodd" clip-rule="evenodd" d="M187.748 122.584H157.818C153.945 122.584 150.776 125.754 150.776 129.627V145.289C150.776 149.162 153.945 152.332 157.818 152.332H187.748C191.621 152.332 194.79 149.162 194.79 145.289V129.627C194.79 125.754 191.621 122.584 187.748 122.584Z" fill="#D1D2D4"/>
<path fill-rule="evenodd" clip-rule="evenodd" d="M194.283 127.514H151.283C147.41 127.514 144.241 130.684 144.241 134.557V140.36C144.241 144.233 147.41 147.401 151.283 147.401H194.283C198.157 147.401 201.325 144.233 201.325 140.36V134.557C201.325 130.684 198.157 127.514 194.283 127.514Z" fill="#E5E6E7"/>
<path fill-rule="evenodd" clip-rule="evenodd" d="M107.846 165.711C95.649 165.711 85.762 155.824 85.762 143.627C85.762 131.43 95.649 121.527 107.846 121.527C120.058 121.527 129.945 131.429 129.945 143.627C129.945 155.825 120.058 165.711 107.846 165.711Z" fill="#58595B"/>
<path fill-rule="evenodd" clip-rule="evenodd" d="M97.537 124.092C96.932 126.106 96.5941 128.26 96.5941 130.473C96.5941 142.684 106.481 152.571 118.692 152.571C122.411 152.571 125.918 151.641 129.003 150.008C126.257 159.092 117.834 165.711 107.848 165.711C95.6511 165.711 85.764 155.824 85.764 143.627C85.762 135.148 90.537 127.795 97.537 124.092Z" fill="#404042"/>
<path fill-rule="evenodd" clip-rule="evenodd" d="M107.846 156.895C100.523 156.895 94.5781 150.952 94.5781 143.627C94.5781 136.289 100.522 130.346 107.846 130.346C115.184 130.346 121.128 136.289 121.128 143.627C121.129 150.951 115.184 156.895 107.846 156.895Z" fill="#D1D2D4"/>
<path fill-rule="evenodd" clip-rule="evenodd" d="M107.846 148.232C105.311 148.232 103.241 146.175 103.241 143.627C103.241 141.079 105.311 139.008 107.846 139.008C110.396 139.008 112.466 141.078 112.466 143.627C112.466 146.176 110.396 148.232 107.846 148.232Z" fill="#404042"/>
<path fill-rule="evenodd" clip-rule="evenodd" d="M97.2131 135.67C99.4811 145.049 107.721 152.092 117.692 152.543C115.254 155.219 111.748 156.895 107.846 156.895C100.523 156.895 94.5781 150.952 94.5781 143.627C94.5791 140.641 95.5641 137.895 97.2131 135.67Z" fill="#BBBDBF"/>
<path fill-rule="evenodd" clip-rule="evenodd" d="M107.846 118.711C94.1 118.711 82.945 129.865 82.945 143.627C82.945 145.697 83.1991 147.711 83.6771 149.641H86.592C86.058 147.725 85.762 145.711 85.762 143.627C85.762 131.43 95.649 121.527 107.846 121.527C120.058 121.527 129.945 131.429 129.945 143.627C129.945 145.711 129.649 147.725 129.114 149.641H132.015C132.494 147.711 132.761 145.698 132.761 143.627C132.761 129.865 121.607 118.711 107.846 118.711Z" fill="#808184"/>
<path fill-rule="evenodd" clip-rule="evenodd" d="M20.8751 115.908C18.3401 115.908 16.2701 117.978 16.2701 120.513V141.175C16.2701 143.71 18.3401 145.78 20.8751 145.78C23.4101 145.78 25.4941 143.71 25.4941 141.175V120.513C25.4941 117.979 23.4101 115.908 20.8751 115.908Z" fill="#221F20"/>
<path fill-rule="evenodd" clip-rule="evenodd" d="M194.79 137.457H150.776V145.289C150.776 149.162 153.945 152.332 157.818 152.332H187.748C191.621 152.332 194.79 149.162 194.79 145.289V137.457Z" fill="#A7AAAC"/>
<path fill-rule="evenodd" clip-rule="evenodd" d="M201.325 137.457H144.241V140.359C144.241 144.232 147.41 147.4 151.283 147.4H194.283C198.157 147.4 201.325 144.232 201.325 140.359V137.457Z" fill="#BBBDBF"/>
<path d="M184.523 120.543H187.973V154.373H184.523V120.543Z" fill="#EF4323"/>
<path d="M157.593 120.543H161.044V154.373H157.593V120.543Z" fill="#EF4323"/>
<path d="M184.523 137.457H187.973V154.373H184.523V137.457Z" fill="#D83327"/>
<path d="M157.593 137.457H161.044V154.373H157.593V137.457Z" fill="#D83327"/>
<path fill-rule="evenodd" clip-rule="evenodd" d="M56.804 165.711C44.607 165.711 34.7191 155.824 34.7191 143.627C34.7191 131.43 44.607 121.527 56.804 121.527C69.001 121.527 78.888 131.429 78.888 143.627C78.888 155.825 69.002 165.711 56.804 165.711Z" fill="#58595B"/>
<path fill-rule="evenodd" clip-rule="evenodd" d="M46.48 124.092C45.875 126.106 45.55 128.26 45.55 130.473C45.55 142.684 55.4381 152.571 67.6351 152.571C71.3541 152.571 74.874 151.641 77.945 150.008C75.213 159.092 66.776 165.711 56.804 165.711C44.607 165.711 34.7191 155.824 34.7191 143.627C34.7201 135.148 39.48 127.795 46.48 124.092Z" fill="#404042"/>
<path fill-rule="evenodd" clip-rule="evenodd" d="M56.804 156.895C49.466 156.895 43.523 150.952 43.523 143.627C43.523 136.289 49.466 130.346 56.804 130.346C64.128 130.346 70.0721 136.289 70.0721 143.627C70.0721 150.951 64.129 156.895 56.804 156.895Z" fill="#D1D2D4"/>
<path fill-rule="evenodd" clip-rule="evenodd" d="M56.804 148.232C54.254 148.232 52.184 146.175 52.184 143.627C52.184 141.079 54.254 139.008 56.804 139.008C59.353 139.008 61.409 141.078 61.409 143.627C61.409 146.176 59.353 148.232 56.804 148.232Z" fill="#404042"/>
<path fill-rule="evenodd" clip-rule="evenodd" d="M46.157 135.67C48.424 145.049 56.678 152.092 66.636 152.543C64.213 155.219 60.706 156.895 56.805 156.895C49.467 156.895 43.524 150.952 43.524 143.627C43.523 140.641 44.509 137.895 46.157 135.67Z" fill="#BBBDBF"/>
<path fill-rule="evenodd" clip-rule="evenodd" d="M56.804 118.711C43.043 118.711 31.903 129.865 31.903 143.627C31.903 145.697 32.1561 147.711 32.6351 149.641H35.5511C35.0011 147.725 34.7191 145.711 34.7191 143.627C34.7191 131.43 44.607 121.527 56.804 121.527C69.001 121.527 78.888 131.429 78.888 143.627C78.888 145.711 78.5921 147.725 78.0571 149.641H80.9731C81.4521 147.711 81.705 145.698 81.705 143.627C81.706 129.865 70.551 118.711 56.804 118.711Z" fill="#808184"/>
<path d="M0.549988 0.10498H206.945V114.289H0.549988V0.10498Z" fill="#B75E27"/>
<path fill-rule="evenodd" clip-rule="evenodd" d="M148.846 114.289L81.2131 0.10498H0.551086V114.289H148.846Z" fill="#AA4E25"/>
<path d="M4.77704 4.33002H202.72V110.062H4.77704V4.33002Z" fill="#F58220"/>
<path fill-rule="evenodd" clip-rule="evenodd" d="M261.945 51.584C254.269 40.316 235.931 32.092 213.988 30.895V51.584H261.945Z" fill="#C12626"/>
<path fill-rule="evenodd" clip-rule="evenodd" d="M146.353 110.063L83.72 4.33002H4.77606V110.063H146.353Z" fill="#E27226"/>
<path fill-rule="evenodd" clip-rule="evenodd" d="M33.621 4.33002L4.77606 54.275V45.049L28.283 4.33002H33.621Z" fill="#EF4323"/>
<path fill-rule="evenodd" clip-rule="evenodd" d="M43.861 4.33002L4.77606 72.021V62.797L38.537 4.33002H43.861Z" fill="#EF4323"/>
<path fill-rule="evenodd" clip-rule="evenodd" d="M99.368 4.33002L38.326 110.063H4.77606V80.543L48.7761 4.33002H99.368Z" fill="#EF4323"/>
<path fill-rule="evenodd" clip-rule="evenodd" d="M109.621 4.33002L48.579 110.063H43.2551L104.283 4.33002H109.621Z" fill="#EF4323"/>
<path fill-rule="evenodd" clip-rule="evenodd" d="M119.861 4.33002L58.8181 110.063H53.4951L114.537 4.33002H119.861Z" fill="#EF4323"/>
<path fill-rule="evenodd" clip-rule="evenodd" d="M154.002 4.33002L92.959 110.063H87.636L148.678 4.33002H154.002Z" fill="#EF4323"/>
<path fill-rule="evenodd" clip-rule="evenodd" d="M164.241 4.33002L103.213 110.063H97.8751L158.917 4.33002H164.241Z" fill="#EF4323"/>
<path fill-rule="evenodd" clip-rule="evenodd" d="M202.72 33.852L158.72 110.063H108.128L169.171 4.33002H202.72V33.852Z" fill="#EF4323"/>
<path fill-rule="evenodd" clip-rule="evenodd" d="M202.72 51.598L168.959 110.063H163.636L202.72 42.373V51.598Z" fill="#EF4323"/>
<path fill-rule="evenodd" clip-rule="evenodd" d="M202.72 69.346L179.213 110.063H173.875L202.72 60.119V69.346Z" fill="#EF4323"/>
<path fill-rule="evenodd" clip-rule="evenodd" d="M33.621 4.33002L4.77606 54.275V45.049L28.283 4.33002H33.621Z" fill="#D83327"/>
<path fill-rule="evenodd" clip-rule="evenodd" d="M43.861 4.33002L4.77606 72.021V62.797L38.537 4.33002H43.861Z" fill="#D83327"/>
<path fill-rule="evenodd" clip-rule="evenodd" d="M91.649 17.711L83.72 4.33002H48.7761L4.77606 80.543V110.063H38.326L91.649 17.711Z" fill="#D83327"/>
<path fill-rule="evenodd" clip-rule="evenodd" d="M96.8331 26.471L94.142 21.922L43.2551 110.063H48.579L96.8331 26.471Z" fill="#D83327"/>
<path fill-rule="evenodd" clip-rule="evenodd" d="M102.015 35.232L99.326 30.684L53.4951 110.063H58.8181L102.015 35.232Z" fill="#D83327"/>
<path fill-rule="evenodd" clip-rule="evenodd" d="M119.311 64.416L116.607 59.867L87.636 110.063H92.959L119.311 64.416Z" fill="#D83327"/>
<path fill-rule="evenodd" clip-rule="evenodd" d="M124.495 73.176L121.804 68.627L97.8751 110.063H103.213L124.495 73.176Z" fill="#D83327"/>
<path fill-rule="evenodd" clip-rule="evenodd" d="M146.353 110.063L126.987 77.373L108.128 110.063H146.353Z" fill="#D83327"/>
</svg>
