<svg width="551" height="201" viewBox="0 0 551 201" fill="none" xmlns="http://www.w3.org/2000/svg">
<path fill-rule="evenodd" clip-rule="evenodd" d="M413.648 129.135L398.508 130.867L393.423 86.543L408.578 84.811L413.648 129.135Z" fill="#221F20"/>
<path fill-rule="evenodd" clip-rule="evenodd" d="M412.888 122.473L397.734 124.205C393.888 124.641 391.1 128.148 391.55 131.992L393.255 146.922H422.776L420.692 128.654C420.24 124.811 416.733 122.021 412.888 122.473Z" fill="#58595B"/>
<path fill-rule="evenodd" clip-rule="evenodd" d="M395.959 108.697L411.113 106.965C414.959 106.529 417.747 103.022 417.31 99.176L415.606 84.246H386.071L388.17 102.514C388.606 106.359 392.113 109.148 395.959 108.697Z" fill="#58595B"/>
<path fill-rule="evenodd" clip-rule="evenodd" d="M439.959 155.795H372.69V139.824C372.69 135.951 375.86 132.781 379.733 132.781H432.916C436.789 132.781 439.959 135.951 439.959 139.824V155.795Z" fill="#6D6E71"/>
<path d="M326.663 147.205H449.817V154.5H326.663V147.205Z" fill="#808184"/>
<path d="M323.635 152.5H457.747V159.811H323.635V152.5Z" fill="#221F20"/>
<path fill-rule="evenodd" clip-rule="evenodd" d="M460.817 166.641H325.676C322 166.641 318.972 169.655 318.972 173.346C318.972 177.035 322 180.049 325.676 180.049H460.817C464.507 180.049 467.521 177.035 467.521 173.346C467.522 169.654 464.508 166.641 460.817 166.641Z" fill="#221F20"/>
<path d="M210.986 156.148H485.451V176.048H210.986V156.148Z" fill="#404042"/>
<path d="M471.001 151.768H547.762V181.514H471.001V151.768Z" fill="#221F20"/>
<path fill-rule="evenodd" clip-rule="evenodd" d="M550.846 164.246H532.396V189.021H543.804C547.677 189.021 550.846 185.851 550.846 181.978V164.246Z" fill="#58595B"/>
<path fill-rule="evenodd" clip-rule="evenodd" d="M550.846 161.543C541.396 161.543 531.959 161.543 522.522 161.543C522.522 157.67 519.353 154.5 515.48 154.5C498.692 154.5 481.917 154.5 465.128 154.5C465.128 134.289 465.128 114.078 465.128 93.865C465.128 89.992 468.297 86.824 472.17 86.824C489.762 86.824 507.353 86.824 524.944 86.824C532.043 86.824 550.845 141.232 550.845 141.232C550.846 148.008 550.846 154.781 550.846 161.543Z" fill="#EF4323"/>
<path fill-rule="evenodd" clip-rule="evenodd" d="M487.424 154.5C487.424 134.289 487.424 114.078 487.424 93.865C487.424 89.992 490.593 86.824 494.466 86.824H472.17C468.297 86.824 465.128 89.992 465.128 93.865C465.128 114.078 465.128 134.289 465.128 154.5H487.424Z" fill="#D83327"/>
<path fill-rule="evenodd" clip-rule="evenodd" d="M477.24 128.246V93.865C477.24 92.332 478.522 91.049 480.057 91.049C497.395 91.049 492.352 91.049 509.69 91.049C511.183 92.457 513.705 97.119 514.465 98.57C517.169 103.767 519.535 109.246 521.775 114.654C523.634 119.148 525.437 123.683 527.17 128.246H477.24Z" fill="#E6F6FD"/>
<path fill-rule="evenodd" clip-rule="evenodd" d="M529.451 91.049H519.677C521.184 92.457 523.705 97.119 524.451 98.57C527.17 103.767 529.536 109.246 531.775 114.654C533.634 119.148 535.437 123.683 537.17 128.246H546.128C541.593 116.189 534.677 98.938 529.451 91.049Z" fill="#E6F6FD"/>
<path fill-rule="evenodd" clip-rule="evenodd" d="M539.705 138.5C537.592 138.5 535.86 140.232 535.86 142.346V152.557C535.86 154.881 537.761 156.782 540.085 156.782H541.902C544.226 156.782 546.128 154.882 546.128 152.557V144.922C546.128 141.387 543.24 138.5 539.705 138.5Z" fill="white"/>
<path fill-rule="evenodd" clip-rule="evenodd" d="M539.255 156.711C541.184 156.316 542.663 154.6 542.663 152.557V144.922C542.663 142.063 540.775 139.641 538.198 138.811C536.832 139.403 535.86 140.768 535.86 142.346V152.557C535.86 154.6 537.324 156.316 539.255 156.711Z" fill="#E6F6FD"/>
<path fill-rule="evenodd" clip-rule="evenodd" d="M477.24 150.527H520.128C524.396 150.527 527.874 147.048 527.874 142.781V133.978C527.874 133.583 527.55 133.275 527.17 133.275C526.775 133.275 526.466 133.584 526.466 133.978V142.781C526.466 146.275 523.607 149.119 520.128 149.119H477.24C476.859 149.119 476.536 149.443 476.536 149.824C476.536 150.219 476.859 150.527 477.24 150.527Z" fill="#C12626"/>
<path fill-rule="evenodd" clip-rule="evenodd" d="M491.324 131.867H483.522C482.747 131.867 482.113 132.5 482.113 133.275V135.035C482.113 135.81 482.747 136.443 483.522 136.443H491.324C492.099 136.443 492.733 135.81 492.733 135.035V133.275C492.733 132.5 492.1 131.867 491.324 131.867Z" fill="#C12626"/>
<path fill-rule="evenodd" clip-rule="evenodd" d="M541.902 146.654H535.86V152.556C535.86 154.88 537.761 156.781 540.085 156.781H541.902C544.226 156.781 546.128 154.881 546.128 152.556V150.88C546.128 148.557 544.227 146.654 541.902 146.654Z" fill="#F58220"/>
<path fill-rule="evenodd" clip-rule="evenodd" d="M541.62 164.246H532.395V189.021H534.578C538.451 189.021 541.62 185.851 541.62 181.978V164.246Z" fill="#404042"/>
<path fill-rule="evenodd" clip-rule="evenodd" d="M487.424 128.246V93.865C487.424 92.867 487.635 91.922 488.015 91.049H480.058C478.523 91.049 477.241 92.332 477.241 93.865V128.246H487.424Z" fill="#CCEAF5"/>
<path fill-rule="evenodd" clip-rule="evenodd" d="M193.804 147.527H69.5361V129.402H186.762C190.635 129.402 193.804 132.57 193.804 136.443V147.527Z" fill="#6D6E71"/>
<path d="M61.5211 147.205H201.817V154.5H61.5211V147.205Z" fill="#808184"/>
<path fill-rule="evenodd" clip-rule="evenodd" d="M539.255 156.711C541.184 156.316 542.663 154.6 542.663 152.557V146.725C542.409 146.67 542.156 146.655 541.902 146.655H535.86V152.557C535.86 154.6 537.324 156.316 539.255 156.711Z" fill="#E27226"/>
<path d="M50.8601 152.5H212.48V159.811H50.8601V152.5Z" fill="#221F20"/>
<path fill-rule="evenodd" clip-rule="evenodd" d="M497.593 200.965C485.396 200.965 475.508 191.078 475.508 178.881C475.508 166.67 485.396 156.781 497.593 156.781C509.79 156.781 519.677 166.67 519.677 178.881C519.677 191.078 509.79 200.965 497.593 200.965Z" fill="#58595B"/>
<path fill-rule="evenodd" clip-rule="evenodd" d="M487.282 159.346C486.663 161.36 486.339 163.514 486.339 165.725C486.339 177.922 496.227 187.811 508.423 187.811C512.156 187.811 515.663 186.895 518.747 185.26C516.001 194.346 507.578 200.965 497.593 200.965C485.396 200.965 475.508 191.078 475.508 178.881C475.508 170.402 480.282 163.049 487.282 159.346Z" fill="#404042"/>
<path fill-rule="evenodd" clip-rule="evenodd" d="M497.593 192.148C490.269 192.148 484.325 186.205 484.325 178.88C484.325 171.542 490.268 165.599 497.593 165.599C504.931 165.599 510.874 171.542 510.874 178.88C510.874 186.205 504.931 192.148 497.593 192.148Z" fill="#D1D2D4"/>
<path fill-rule="evenodd" clip-rule="evenodd" d="M497.593 183.486C495.043 183.486 492.987 181.416 492.987 178.881C492.987 176.33 495.044 174.26 497.593 174.26C500.142 174.26 502.212 176.33 502.212 178.881C502.212 181.416 500.142 183.486 497.593 183.486Z" fill="#404042"/>
<path fill-rule="evenodd" clip-rule="evenodd" d="M486.959 170.922C489.227 180.303 497.466 187.346 507.424 187.795C505.001 190.473 501.494 192.149 497.593 192.149C490.269 192.149 484.325 186.206 484.325 178.881C484.325 175.895 485.297 173.148 486.959 170.922Z" fill="#BBBDBF"/>
<path fill-rule="evenodd" clip-rule="evenodd" d="M497.593 153.965C483.846 153.965 472.692 165.119 472.692 178.881C472.692 180.951 472.945 182.965 473.423 184.895H476.339C475.804 182.979 475.508 180.965 475.508 178.881C475.508 166.67 485.396 156.781 497.593 156.781C509.79 156.781 519.677 166.67 519.677 178.881C519.677 180.965 519.396 182.979 518.846 184.895H521.762C522.241 182.965 522.494 180.952 522.494 178.881C522.494 165.119 511.353 153.965 497.593 153.965Z" fill="#808184"/>
<path fill-rule="evenodd" clip-rule="evenodd" d="M456.227 157.838H426.297C422.424 157.838 419.255 161.008 419.255 164.881V180.543C419.255 184.416 422.424 187.584 426.297 187.584H456.227C460.1 187.584 463.269 184.416 463.269 180.543V164.881C463.269 161.008 460.1 157.838 456.227 157.838Z" fill="#D1D2D4"/>
<path fill-rule="evenodd" clip-rule="evenodd" d="M390.55 200.965C378.353 200.965 368.466 191.078 368.466 178.881C368.466 166.67 378.353 156.781 390.55 156.781C402.747 156.781 412.649 166.67 412.649 178.881C412.648 191.078 402.747 200.965 390.55 200.965Z" fill="#58595B"/>
<path fill-rule="evenodd" clip-rule="evenodd" d="M380.24 159.346C379.635 161.36 379.297 163.514 379.297 165.725C379.297 177.922 389.184 187.811 401.381 187.811C405.113 187.811 408.62 186.895 411.705 185.26C408.958 194.346 400.536 200.965 390.55 200.965C378.353 200.965 368.466 191.078 368.466 178.881C368.466 170.402 373.24 163.049 380.24 159.346Z" fill="#404042"/>
<path fill-rule="evenodd" clip-rule="evenodd" d="M390.55 192.148C383.227 192.148 377.282 186.205 377.282 178.88C377.282 171.542 383.226 165.599 390.55 165.599C397.888 165.599 403.832 171.542 403.832 178.88C403.832 186.205 397.888 192.148 390.55 192.148Z" fill="#D1D2D4"/>
<path fill-rule="evenodd" clip-rule="evenodd" d="M390.55 183.486C388.015 183.486 385.945 181.416 385.945 178.881C385.945 176.33 388.015 174.26 390.55 174.26C393.1 174.26 395.17 176.33 395.17 178.881C395.17 181.416 393.1 183.486 390.55 183.486Z" fill="#404042"/>
<path fill-rule="evenodd" clip-rule="evenodd" d="M379.916 170.922C382.184 180.303 390.424 187.346 400.395 187.795C397.958 190.473 394.451 192.149 390.549 192.149C383.226 192.149 377.281 186.206 377.281 178.881C377.282 175.895 378.255 173.148 379.916 170.922Z" fill="#BBBDBF"/>
<path fill-rule="evenodd" clip-rule="evenodd" d="M390.55 153.965C376.804 153.965 365.649 165.119 365.649 178.881C365.649 180.951 365.903 182.965 366.381 184.895H369.297C368.762 182.979 368.466 180.965 368.466 178.881C368.466 166.67 378.353 156.781 390.55 156.781C402.747 156.781 412.649 166.67 412.649 178.881C412.649 180.965 412.353 182.979 411.818 184.895H414.719C415.198 182.965 415.466 180.952 415.466 178.881C415.466 165.119 404.311 153.965 390.55 153.965Z" fill="#808184"/>
<path fill-rule="evenodd" clip-rule="evenodd" d="M463.269 172.711H419.255V180.543C419.255 184.416 422.424 187.584 426.297 187.584H456.227C460.1 187.584 463.269 184.416 463.269 180.543V172.711Z" fill="#A7AAAC"/>
<path fill-rule="evenodd" clip-rule="evenodd" d="M340.354 200.965C328.156 200.965 318.269 191.078 318.269 178.881C318.269 166.67 328.156 156.781 340.354 156.781C352.55 156.781 362.438 166.67 362.438 178.881C362.438 191.078 352.55 200.965 340.354 200.965Z" fill="#58595B"/>
<path fill-rule="evenodd" clip-rule="evenodd" d="M330.043 159.346C329.424 161.36 329.1 163.514 329.1 165.725C329.1 177.922 338.987 187.811 351.184 187.811C354.916 187.811 358.423 186.895 361.508 185.26C358.762 194.346 350.339 200.965 340.354 200.965C328.156 200.965 318.269 191.078 318.269 178.881C318.269 170.402 323.043 163.049 330.043 159.346Z" fill="#404042"/>
<path fill-rule="evenodd" clip-rule="evenodd" d="M340.354 192.148C333.03 192.148 327.085 186.205 327.085 178.88C327.085 171.542 333.029 165.599 340.354 165.599C347.691 165.599 353.635 171.542 353.635 178.88C353.635 186.205 347.69 192.148 340.354 192.148Z" fill="#D1D2D4"/>
<path fill-rule="evenodd" clip-rule="evenodd" d="M340.354 183.486C337.804 183.486 335.748 181.416 335.748 178.881C335.748 176.33 337.805 174.26 340.354 174.26C342.903 174.26 344.973 176.33 344.973 178.881C344.973 181.416 342.902 183.486 340.354 183.486Z" fill="#404042"/>
<path fill-rule="evenodd" clip-rule="evenodd" d="M329.719 170.922C331.987 180.303 340.227 187.346 350.184 187.795C347.762 190.473 344.254 192.149 340.354 192.149C333.03 192.149 327.085 186.206 327.085 178.881C327.085 175.895 328.058 173.148 329.719 170.922Z" fill="#BBBDBF"/>
<path fill-rule="evenodd" clip-rule="evenodd" d="M340.354 153.965C326.607 153.965 315.452 165.119 315.452 178.881C315.452 180.951 315.706 182.965 316.184 184.895H319.1C318.565 182.979 318.269 180.965 318.269 178.881C318.269 166.67 328.156 156.781 340.354 156.781C352.55 156.781 362.438 166.67 362.438 178.881C362.438 180.965 362.156 182.979 361.607 184.895H364.522C365.001 182.965 365.254 180.952 365.254 178.881C365.254 165.119 354.113 153.965 340.354 153.965Z" fill="#808184"/>
<path fill-rule="evenodd" clip-rule="evenodd" d="M228.227 156.148H36.311V176.049H212.578L228.227 156.148Z" fill="#404042"/>
<path fill-rule="evenodd" clip-rule="evenodd" d="M36.311 151.162C33.776 151.162 31.7061 153.232 31.7061 155.767V176.415C31.7061 178.964 33.776 181.034 36.311 181.034C38.846 181.034 40.931 178.964 40.931 176.415V155.767C40.931 153.232 38.846 151.162 36.311 151.162Z" fill="#221F20"/>
<path fill-rule="evenodd" clip-rule="evenodd" d="M125.958 200.965C113.761 200.965 103.874 191.078 103.874 178.881C103.874 166.67 113.761 156.781 125.958 156.781C138.155 156.781 148.043 166.67 148.043 178.881C148.043 191.078 138.155 200.965 125.958 200.965Z" fill="#58595B"/>
<path fill-rule="evenodd" clip-rule="evenodd" d="M115.648 159.346C115.028 161.36 114.705 163.514 114.705 165.725C114.705 177.922 124.593 187.811 136.789 187.811C140.521 187.811 144.029 186.895 147.099 185.26C144.367 194.346 135.93 200.965 125.958 200.965C113.761 200.965 103.874 191.078 103.874 178.881C103.874 170.402 108.648 163.049 115.648 159.346Z" fill="#404042"/>
<path fill-rule="evenodd" clip-rule="evenodd" d="M125.958 192.148C118.62 192.148 112.677 186.205 112.677 178.88C112.677 171.542 118.62 165.599 125.958 165.599C133.296 165.599 139.24 171.542 139.24 178.88C139.24 186.205 133.296 192.148 125.958 192.148Z" fill="#D1D2D4"/>
<path fill-rule="evenodd" clip-rule="evenodd" d="M125.958 183.486C123.409 183.486 121.339 181.416 121.339 178.881C121.339 176.33 123.409 174.26 125.958 174.26C128.508 174.26 130.564 176.33 130.564 178.881C130.564 181.416 128.508 183.486 125.958 183.486Z" fill="#404042"/>
<path fill-rule="evenodd" clip-rule="evenodd" d="M115.324 170.922C117.578 180.303 125.832 187.346 135.789 187.795C133.366 190.473 129.86 192.149 125.958 192.149C118.62 192.149 112.677 186.206 112.677 178.881C112.677 175.895 113.663 173.148 115.324 170.922Z" fill="#BBBDBF"/>
<path fill-rule="evenodd" clip-rule="evenodd" d="M125.958 153.965C112.198 153.965 101.057 165.119 101.057 178.881C101.057 180.951 101.311 182.965 101.789 184.895H104.705C104.155 182.979 103.874 180.965 103.874 178.881C103.874 166.67 113.761 156.781 125.958 156.781C138.155 156.781 148.043 166.67 148.043 178.881C148.043 180.965 147.762 182.979 147.212 184.895H150.127C150.606 182.965 150.86 180.952 150.86 178.881C150.86 165.119 139.705 153.965 125.958 153.965Z" fill="#808184"/>
<path fill-rule="evenodd" clip-rule="evenodd" d="M75.7621 200.965C63.5651 200.965 53.6771 191.078 53.6771 178.881C53.6771 166.67 63.5651 156.781 75.7621 156.781C87.9581 156.781 97.8461 166.67 97.8461 178.881C97.8461 191.078 87.9581 200.965 75.7621 200.965Z" fill="#58595B"/>
<path fill-rule="evenodd" clip-rule="evenodd" d="M65.4381 159.346C64.8331 161.36 64.5081 163.514 64.5081 165.725C64.5081 177.922 74.3951 187.811 86.5921 187.811C90.3111 187.811 93.8311 186.895 96.9031 185.26C94.1711 194.346 85.7341 200.965 75.7621 200.965C63.5651 200.965 53.6771 191.078 53.6771 178.881C53.6771 170.402 58.4381 163.049 65.4381 159.346Z" fill="#404042"/>
<path fill-rule="evenodd" clip-rule="evenodd" d="M75.762 192.148C68.423 192.148 62.48 186.205 62.48 178.88C62.48 171.542 68.423 165.599 75.762 165.599C83.085 165.599 89.0291 171.542 89.0291 178.88C89.0281 186.205 83.085 192.148 75.762 192.148Z" fill="#D1D2D4"/>
<path fill-rule="evenodd" clip-rule="evenodd" d="M75.762 183.486C73.212 183.486 71.142 181.416 71.142 178.881C71.142 176.33 73.212 174.26 75.762 174.26C78.311 174.26 80.3671 176.33 80.3671 178.881C80.3671 181.416 78.311 183.486 75.762 183.486Z" fill="#404042"/>
<path fill-rule="evenodd" clip-rule="evenodd" d="M65.113 170.922C67.381 180.303 75.634 187.346 85.592 187.795C83.169 190.473 79.661 192.149 75.761 192.149C68.422 192.149 62.4791 186.206 62.4791 178.881C62.4801 175.895 63.466 173.148 65.113 170.922Z" fill="#BBBDBF"/>
<path fill-rule="evenodd" clip-rule="evenodd" d="M75.7621 153.965C62.0011 153.965 50.8601 165.119 50.8601 178.881C50.8601 180.951 51.1141 182.965 51.5921 184.895H54.5081C53.9581 182.979 53.6771 180.965 53.6771 178.881C53.6771 166.67 63.5651 156.781 75.7621 156.781C87.9581 156.781 97.8461 166.67 97.8461 178.881C97.8461 180.965 97.5501 182.979 97.0151 184.895H99.9311C100.41 182.965 100.662 180.952 100.662 178.881C100.662 165.119 89.5081 153.965 75.7621 153.965Z" fill="#808184"/>
<path fill-rule="evenodd" clip-rule="evenodd" d="M176.155 200.965C163.959 200.965 154.071 191.078 154.071 178.881C154.071 166.67 163.959 156.781 176.155 156.781C188.352 156.781 198.24 166.67 198.24 178.881C198.24 191.078 188.353 200.965 176.155 200.965Z" fill="#58595B"/>
<path fill-rule="evenodd" clip-rule="evenodd" d="M165.846 159.346C165.226 161.36 164.903 163.514 164.903 165.725C164.903 177.922 174.79 187.811 186.987 187.811C190.719 187.811 194.226 186.895 197.311 185.26C194.565 194.346 186.128 200.965 176.156 200.965C163.96 200.965 154.072 191.078 154.072 178.881C154.071 170.402 158.846 163.049 165.846 159.346Z" fill="#404042"/>
<path fill-rule="evenodd" clip-rule="evenodd" d="M176.155 192.148C168.832 192.148 162.874 186.205 162.874 178.88C162.874 171.542 168.832 165.599 176.155 165.599C183.494 165.599 189.437 171.542 189.437 178.88C189.438 186.205 183.494 192.148 176.155 192.148Z" fill="#D1D2D4"/>
<path fill-rule="evenodd" clip-rule="evenodd" d="M176.155 183.486C173.606 183.486 171.55 181.416 171.55 178.881C171.55 176.33 173.607 174.26 176.155 174.26C178.703 174.26 180.775 176.33 180.775 178.881C180.775 181.416 178.704 183.486 176.155 183.486Z" fill="#404042"/>
<path fill-rule="evenodd" clip-rule="evenodd" d="M165.522 170.922C167.776 180.303 176.029 187.346 185.987 187.795C183.565 190.473 180.057 192.149 176.156 192.149C168.833 192.149 162.875 186.206 162.875 178.881C162.874 175.895 163.859 173.148 165.522 170.922Z" fill="#BBBDBF"/>
<path fill-rule="evenodd" clip-rule="evenodd" d="M176.155 153.965C162.409 153.965 151.254 165.119 151.254 178.881C151.254 180.951 151.508 182.965 151.986 184.895H154.902C154.366 182.979 154.071 180.965 154.071 178.881C154.071 166.67 163.959 156.781 176.155 156.781C188.352 156.781 198.24 166.67 198.24 178.881C198.24 180.965 197.958 182.979 197.409 184.895H200.325C200.804 182.965 201.056 180.952 201.056 178.881C201.057 165.119 189.916 153.965 176.155 153.965Z" fill="#808184"/>
<path fill-rule="evenodd" clip-rule="evenodd" d="M445.227 0.330994L0.15509 51.289L11.1841 147.527L456.24 96.57L445.227 0.330994Z" fill="#B75E27"/>
<path fill-rule="evenodd" clip-rule="evenodd" d="M272.128 117.641L204.1 27.938L0.155029 51.289L11.184 147.527L272.128 117.641Z" fill="#9A4522"/>
<path fill-rule="evenodd" clip-rule="evenodd" d="M441.508 5.00699L451.564 92.852L14.9021 142.838L4.84607 55.008L441.508 5.00699Z" fill="#F58220"/>
<path fill-rule="evenodd" clip-rule="evenodd" d="M269.156 113.74L207.071 31.852L4.84607 55.008L14.9021 142.838L269.156 113.74Z" fill="#E27226"/>
<path d="M436.627 85.9304L426.43 87.1005L418.301 16.257L428.499 15.087L436.627 85.9304Z" fill="#B75E27"/>
<path fill-rule="evenodd" clip-rule="evenodd" d="M422.071 15.838L418.311 16.275L426.424 87.119L430.184 86.684L422.071 15.838Z" fill="#AA4E25"/>
<path d="M403.417 89.7321L393.22 90.9022L385.091 20.0587L395.288 18.8886L403.417 89.7321Z" fill="#B75E27"/>
<path d="M370.206 93.535L360.009 94.7051L351.88 23.8616L362.077 22.6915L370.206 93.535Z" fill="#B75E27"/>
<path d="M336.995 97.3368L326.798 98.5069L318.669 27.6634L328.866 26.4933L336.995 97.3368Z" fill="#B75E27"/>
<path d="M303.784 101.141L293.587 102.311L285.458 31.4652L295.655 30.2951L303.784 101.141Z" fill="#B75E27"/>
<path d="M270.58 104.949L260.383 106.119L252.254 35.2733L262.45 34.1033L270.58 104.949Z" fill="#B75E27"/>
<path fill-rule="evenodd" clip-rule="evenodd" d="M229.254 37.922L219.043 39.092L227.155 109.938L237.353 108.768L229.254 37.922Z" fill="#B75E27"/>
<path fill-rule="evenodd" clip-rule="evenodd" d="M196.043 41.725L185.832 42.895L193.944 113.74L204.142 112.57L196.043 41.725Z" fill="#AA4E25"/>
<path fill-rule="evenodd" clip-rule="evenodd" d="M162.831 45.529L152.62 46.684L160.732 117.543L170.944 116.373L162.831 45.529Z" fill="#AA4E25"/>
<path fill-rule="evenodd" clip-rule="evenodd" d="M129.62 49.332L119.409 50.486L127.522 121.346L137.733 120.176L129.62 49.332Z" fill="#AA4E25"/>
<path fill-rule="evenodd" clip-rule="evenodd" d="M96.4091 53.119L86.2121 54.289L94.3111 125.148L104.522 123.979L96.4091 53.119Z" fill="#AA4E25"/>
<path d="M71.3236 127.755L61.1263 128.925L52.9956 58.067L63.1929 56.8969L71.3236 127.755Z" fill="#AA4E25"/>
<path fill-rule="evenodd" clip-rule="evenodd" d="M29.9861 60.725L19.7901 61.895L27.9021 132.754L38.0991 131.584L29.9861 60.725Z" fill="#AA4E25"/>
<path fill-rule="evenodd" clip-rule="evenodd" d="M388.86 19.641L385.1 20.078L393.212 90.922L396.973 90.486L388.86 19.641Z" fill="#AA4E25"/>
<path fill-rule="evenodd" clip-rule="evenodd" d="M355.648 23.443L351.888 23.881L360.001 94.725L363.762 94.289L355.648 23.443Z" fill="#AA4E25"/>
<path fill-rule="evenodd" clip-rule="evenodd" d="M322.451 27.246L318.677 27.684L326.79 98.527L330.55 98.092L322.451 27.246Z" fill="#AA4E25"/>
<path fill-rule="evenodd" clip-rule="evenodd" d="M289.24 31.049L285.466 31.486L293.578 102.332L297.353 101.895L289.24 31.049Z" fill="#AA4E25"/>
<path fill-rule="evenodd" clip-rule="evenodd" d="M256.029 34.852L252.255 35.289L260.367 106.135L264.142 105.697L256.029 34.852Z" fill="#AA4E25"/>
<path fill-rule="evenodd" clip-rule="evenodd" d="M222.817 38.654L219.043 39.092L227.155 109.938L230.931 109.5L222.817 38.654Z" fill="#AA4E25"/>
<path fill-rule="evenodd" clip-rule="evenodd" d="M189.606 42.457L185.832 42.895L193.944 113.74L197.719 113.303L189.606 42.457Z" fill="#9A4522"/>
<path fill-rule="evenodd" clip-rule="evenodd" d="M156.395 46.26L152.62 46.684L160.732 117.543L164.508 117.105L156.395 46.26Z" fill="#9A4522"/>
<path fill-rule="evenodd" clip-rule="evenodd" d="M123.184 50.063L119.409 50.486L127.522 121.346L131.296 120.908L123.184 50.063Z" fill="#9A4522"/>
<path fill-rule="evenodd" clip-rule="evenodd" d="M89.9731 53.865L86.2121 54.289L94.3111 125.148L98.0851 124.711L89.9731 53.865Z" fill="#9A4522"/>
<path fill-rule="evenodd" clip-rule="evenodd" d="M56.762 57.67L53.001 58.092L61.113 128.951L64.874 128.514L56.762 57.67Z" fill="#9A4522"/>
<path fill-rule="evenodd" clip-rule="evenodd" d="M23.5501 61.473L19.7901 61.895L27.9021 132.754L31.6631 132.316L23.5501 61.473Z" fill="#9A4522"/>
<path fill-rule="evenodd" clip-rule="evenodd" d="M232.367 65.219L220.197 49.176L227.155 109.938L237.353 108.768L232.367 65.219Z" fill="#AA4E25"/>
<path fill-rule="evenodd" clip-rule="evenodd" d="M224.691 55.105L220.197 49.176L227.155 109.938L230.931 109.5L224.691 55.105Z" fill="#9A4522"/>
<path d="M453.001 155.795H456.451V189.627H453.001V155.795Z" fill="#EF4323"/>
<path d="M426.071 155.795H429.522V189.627H426.071V155.795Z" fill="#EF4323"/>
<path d="M453.001 172.711H456.451V189.627H453.001V172.711Z" fill="#D83327"/>
<path d="M426.071 172.711H429.522V189.627H426.071V172.711Z" fill="#D83327"/>
<path fill-rule="evenodd" clip-rule="evenodd" d="M271.269 157.838H241.339C237.466 157.838 234.297 161.008 234.297 164.881V180.543C234.297 184.416 237.466 187.584 241.339 187.584H271.269C275.142 187.584 278.311 184.416 278.311 180.543V164.881C278.311 161.008 275.142 157.838 271.269 157.838Z" fill="#D1D2D4"/>
<path fill-rule="evenodd" clip-rule="evenodd" d="M277.79 162.768H234.804C230.931 162.768 227.762 165.936 227.762 169.811V175.614C227.762 179.487 230.931 182.655 234.804 182.655H277.79C281.663 182.655 284.832 179.487 284.832 175.614V169.811C284.832 165.936 281.663 162.768 277.79 162.768Z" fill="#E5E6E7"/>
<path fill-rule="evenodd" clip-rule="evenodd" d="M278.311 172.711H234.297V180.543C234.297 184.416 237.466 187.584 241.339 187.584H271.269C275.142 187.584 278.311 184.416 278.311 180.543V172.711Z" fill="#A7AAAC"/>
<path fill-rule="evenodd" clip-rule="evenodd" d="M284.832 172.711H227.762V175.613C227.762 179.486 230.931 182.654 234.804 182.654H277.79C281.663 182.654 284.832 179.486 284.832 175.613V172.711Z" fill="#BBBDBF"/>
<path d="M268.043 155.795H271.494V189.627H268.043V155.795Z" fill="#EF4323"/>
<path d="M241.113 155.795H244.564V189.627H241.113V155.795Z" fill="#EF4323"/>
<path d="M268.043 172.711H271.494V189.627H268.043V172.711Z" fill="#D83327"/>
<path d="M241.113 172.711H244.564V189.627H241.113V172.711Z" fill="#D83327"/>
<path fill-rule="evenodd" clip-rule="evenodd" d="M520.142 86.824C512.452 75.57 494.114 67.33 472.17 66.135V86.824H520.142Z" fill="#C12626"/>
</svg>
