<svg width="541" height="149" viewBox="0 0 541 149" fill="none" xmlns="http://www.w3.org/2000/svg">
<path d="M316.452 94.5H439.607V101.81H316.452V94.5Z" fill="#808184"/>
<path d="M313.438 99.796H447.537V107.106H313.438V99.796Z" fill="#221F20"/>
<path fill-rule="evenodd" clip-rule="evenodd" d="M450.607 113.937H315.48C311.79 113.937 308.776 116.951 308.776 120.642C308.776 124.332 311.79 127.346 315.48 127.346H450.607C454.296 127.346 457.311 124.332 457.311 120.642C457.311 116.951 454.297 113.937 450.607 113.937Z" fill="#221F20"/>
<path d="M298.987 103.444H475.255V123.345H298.987V103.444Z" fill="#404042"/>
<path d="M460.79 99.063H537.551V128.809H460.79V99.063Z" fill="#221F20"/>
<path fill-rule="evenodd" clip-rule="evenodd" d="M540.635 111.542H522.185V136.331H533.593C537.466 136.331 540.635 133.162 540.635 129.289V111.542Z" fill="#58595B"/>
<path fill-rule="evenodd" clip-rule="evenodd" d="M540.635 108.852C531.198 108.852 521.748 108.852 512.312 108.852C512.312 104.979 509.143 101.81 505.269 101.81C488.495 101.81 471.706 101.81 454.931 101.81C454.931 81.599 454.931 61.387 454.931 41.176C454.931 37.302 458.1 34.134 461.974 34.134C479.551 34.134 497.143 34.134 514.734 34.134C521.833 34.134 540.635 88.529 540.635 88.529C540.635 95.303 540.635 102.078 540.635 108.852Z" fill="#EF4323"/>
<path fill-rule="evenodd" clip-rule="evenodd" d="M477.213 101.81C477.213 81.599 477.213 61.387 477.213 41.176C477.213 37.302 480.382 34.134 484.255 34.134H461.974C458.1 34.134 454.931 37.303 454.931 41.176C454.931 61.387 454.931 81.598 454.931 101.81H477.213Z" fill="#D83327"/>
<path fill-rule="evenodd" clip-rule="evenodd" d="M467.044 75.556V41.176C467.044 39.627 468.312 38.359 469.86 38.359C487.184 38.359 482.156 38.359 499.48 38.359C500.973 39.753 503.494 44.429 504.254 45.88C506.958 51.063 509.339 56.542 511.578 61.964C513.423 66.443 515.225 70.978 516.958 75.555H467.044V75.556Z" fill="#E6F6FD"/>
<path fill-rule="evenodd" clip-rule="evenodd" d="M519.255 38.359H509.481C510.974 39.753 513.495 44.429 514.255 45.88C516.959 51.063 519.325 56.542 521.565 61.964C523.424 66.443 525.227 70.978 526.96 75.555H535.918C531.382 63.486 524.466 46.232 519.255 38.359Z" fill="#E6F6FD"/>
<path fill-rule="evenodd" clip-rule="evenodd" d="M529.509 85.796C527.382 85.796 525.65 87.528 525.65 89.641V99.866C525.65 102.19 527.551 104.092 529.876 104.092H531.692C534.016 104.092 535.918 102.191 535.918 99.866V92.218C535.917 88.683 533.029 85.796 529.509 85.796Z" fill="white"/>
<path fill-rule="evenodd" clip-rule="evenodd" d="M529.057 104.007C530.987 103.613 532.452 101.895 532.452 99.866V92.218C532.452 89.373 530.579 86.937 528.001 86.105C526.621 86.697 525.649 88.063 525.649 89.641V99.866C525.649 101.895 527.114 103.613 529.057 104.007Z" fill="#E6F6FD"/>
<path fill-rule="evenodd" clip-rule="evenodd" d="M467.044 97.838H509.917C514.185 97.838 517.663 94.345 517.663 90.091V81.274C517.663 80.894 517.353 80.569 516.959 80.569C516.579 80.569 516.255 80.893 516.255 81.274V90.091C516.255 93.57 513.41 96.429 509.917 96.429H467.044C466.649 96.429 466.34 96.739 466.34 97.133C466.34 97.514 466.649 97.838 467.044 97.838Z" fill="#C12626"/>
<path fill-rule="evenodd" clip-rule="evenodd" d="M481.114 79.162H473.311C472.537 79.162 471.902 79.796 471.902 80.57V82.331C471.902 83.106 472.537 83.739 473.311 83.739H481.114C481.888 83.739 482.522 83.106 482.522 82.331V80.57C482.522 79.796 481.888 79.162 481.114 79.162Z" fill="#C12626"/>
<path fill-rule="evenodd" clip-rule="evenodd" d="M531.691 93.951H525.649V99.867C525.649 102.191 527.55 104.093 529.875 104.093H531.691C534.015 104.093 535.917 102.192 535.917 99.867V98.177C535.917 95.852 534.015 93.951 531.691 93.951Z" fill="#F58220"/>
<path fill-rule="evenodd" clip-rule="evenodd" d="M531.41 111.542H522.184V136.331H524.368C528.241 136.331 531.41 133.162 531.41 129.289V111.542Z" fill="#404042"/>
<path fill-rule="evenodd" clip-rule="evenodd" d="M477.213 75.556V41.176C477.213 40.176 477.424 39.218 477.805 38.359H469.861C468.312 38.359 467.045 39.627 467.045 41.176V75.556H477.213Z" fill="#CCEAF5"/>
<path d="M59.889 94.5H183.044V101.81H59.889V94.5Z" fill="#808184"/>
<path fill-rule="evenodd" clip-rule="evenodd" d="M529.057 104.007C530.987 103.613 532.452 101.895 532.452 99.866V94.021C532.213 93.979 531.959 93.951 531.691 93.951H525.649V99.867C525.649 101.895 527.114 103.613 529.057 104.007Z" fill="#E27226"/>
<path d="M40.6489 99.796H202.283V107.106H40.6489V99.796Z" fill="#221F20"/>
<path fill-rule="evenodd" clip-rule="evenodd" d="M487.395 148.26C475.198 148.26 465.296 138.373 465.296 126.176C465.296 113.979 475.197 104.092 487.395 104.092C499.593 104.092 509.48 113.979 509.48 126.176C509.48 138.374 499.593 148.26 487.395 148.26Z" fill="#58595B"/>
<path fill-rule="evenodd" clip-rule="evenodd" d="M477.072 106.641C476.467 108.655 476.142 110.81 476.142 113.036C476.142 125.233 486.029 135.12 498.226 135.12C501.945 135.12 505.452 134.191 508.536 132.557C505.79 141.641 497.367 148.261 487.395 148.261C475.198 148.261 465.296 138.374 465.296 126.177C465.297 117.697 470.072 110.345 477.072 106.641Z" fill="#404042"/>
<path fill-rule="evenodd" clip-rule="evenodd" d="M487.395 139.444C480.057 139.444 474.114 133.5 474.114 126.176C474.114 118.839 480.057 112.895 487.395 112.895C494.719 112.895 500.663 118.839 500.663 126.176C500.663 133.5 494.719 139.444 487.395 139.444Z" fill="#D1D2D4"/>
<path fill-rule="evenodd" clip-rule="evenodd" d="M487.395 130.782C484.846 130.782 482.776 128.726 482.776 126.176C482.776 123.627 484.846 121.557 487.395 121.557C489.93 121.557 492.001 123.627 492.001 126.176C492.002 128.726 489.93 130.782 487.395 130.782Z" fill="#404042"/>
<path fill-rule="evenodd" clip-rule="evenodd" d="M476.748 118.232C479.016 127.598 487.255 134.655 497.227 135.091C494.79 137.767 491.284 139.444 487.396 139.444C480.058 139.444 474.115 133.5 474.115 126.176C474.114 123.19 475.099 120.444 476.748 118.232Z" fill="#BBBDBF"/>
<path fill-rule="evenodd" clip-rule="evenodd" d="M487.395 101.275C473.635 101.275 462.48 112.416 462.48 126.176C462.48 128.247 462.748 130.261 463.226 132.191H466.127C465.592 130.275 465.296 128.261 465.296 126.176C465.296 113.979 475.197 104.092 487.395 104.092C499.593 104.092 509.48 113.979 509.48 126.176C509.48 128.261 509.184 130.275 508.649 132.191H511.564C512.043 130.261 512.296 128.247 512.296 126.176C512.297 112.416 501.142 101.275 487.395 101.275Z" fill="#808184"/>
<path fill-rule="evenodd" clip-rule="evenodd" d="M446.015 105.134H416.099C412.226 105.134 409.057 108.303 409.057 112.176V127.838C409.057 131.712 412.226 134.88 416.099 134.88H446.015C449.888 134.88 453.057 131.711 453.057 127.838V112.176C453.057 108.303 449.888 105.134 446.015 105.134Z" fill="#D1D2D4"/>
<path fill-rule="evenodd" clip-rule="evenodd" d="M380.353 148.26C368.156 148.26 358.268 138.373 358.268 126.176C358.268 113.979 368.156 104.092 380.353 104.092C392.55 104.092 402.438 113.979 402.438 126.176C402.438 138.374 392.551 148.26 380.353 148.26Z" fill="#58595B"/>
<path fill-rule="evenodd" clip-rule="evenodd" d="M370.029 106.641C369.424 108.655 369.099 110.81 369.099 113.036C369.099 125.233 378.987 135.12 391.184 135.12C394.902 135.12 398.423 134.191 401.494 132.557C398.762 141.641 390.325 148.261 380.353 148.261C368.156 148.261 358.268 138.374 358.268 126.177C358.268 117.697 363.029 110.345 370.029 106.641Z" fill="#404042"/>
<path fill-rule="evenodd" clip-rule="evenodd" d="M380.353 139.444C373.015 139.444 367.072 133.5 367.072 126.176C367.072 118.839 373.015 112.895 380.353 112.895C387.677 112.895 393.621 118.839 393.621 126.176C393.621 133.5 387.677 139.444 380.353 139.444Z" fill="#D1D2D4"/>
<path fill-rule="evenodd" clip-rule="evenodd" d="M380.353 130.782C377.803 130.782 375.734 128.726 375.734 126.176C375.734 123.627 377.803 121.557 380.353 121.557C382.903 121.557 384.958 123.627 384.958 126.176C384.959 128.726 382.903 130.782 380.353 130.782Z" fill="#404042"/>
<path fill-rule="evenodd" clip-rule="evenodd" d="M369.719 118.232C371.973 127.598 380.226 134.655 390.184 135.091C387.761 137.767 384.254 139.444 380.353 139.444C373.015 139.444 367.072 133.5 367.072 126.176C367.072 123.19 368.057 120.444 369.719 118.232Z" fill="#BBBDBF"/>
<path fill-rule="evenodd" clip-rule="evenodd" d="M380.353 101.275C366.592 101.275 355.452 112.416 355.452 126.176C355.452 128.247 355.705 130.261 356.184 132.191H359.099C358.55 130.275 358.268 128.261 358.268 126.176C358.268 113.979 368.156 104.092 380.353 104.092C392.55 104.092 402.438 113.979 402.438 126.176C402.438 128.261 402.142 130.275 401.607 132.191H404.522C405.001 130.261 405.254 128.247 405.254 126.176C405.255 112.416 394.099 101.275 380.353 101.275Z" fill="#808184"/>
<path fill-rule="evenodd" clip-rule="evenodd" d="M298.987 98.458C296.452 98.458 294.367 100.528 294.367 103.063V123.725C294.367 126.26 296.452 128.33 298.987 128.33C301.522 128.33 303.592 126.26 303.592 123.725V103.063C303.593 100.528 301.522 98.458 298.987 98.458Z" fill="#221F20"/>
<path fill-rule="evenodd" clip-rule="evenodd" d="M453.057 120.007H409.057V127.838C409.057 131.712 412.226 134.88 416.099 134.88H446.015C449.888 134.88 453.057 131.711 453.057 127.838V120.007Z" fill="#A7AAAC"/>
<path fill-rule="evenodd" clip-rule="evenodd" d="M330.156 148.26C317.959 148.26 308.057 138.373 308.057 126.176C308.057 113.979 317.958 104.092 330.156 104.092C342.354 104.092 352.241 113.979 352.241 126.176C352.241 138.374 342.353 148.26 330.156 148.26Z" fill="#58595B"/>
<path fill-rule="evenodd" clip-rule="evenodd" d="M319.832 106.641C319.227 108.655 318.903 110.81 318.903 113.036C318.903 125.233 328.79 135.12 340.987 135.12C344.706 135.12 348.213 134.191 351.297 132.557C348.551 141.641 340.128 148.261 330.156 148.261C317.959 148.261 308.057 138.374 308.057 126.177C308.057 117.697 312.832 110.345 319.832 106.641Z" fill="#404042"/>
<path fill-rule="evenodd" clip-rule="evenodd" d="M330.156 139.444C322.818 139.444 316.875 133.5 316.875 126.176C316.875 118.839 322.818 112.895 330.156 112.895C337.48 112.895 343.424 118.839 343.424 126.176C343.424 133.5 337.48 139.444 330.156 139.444Z" fill="#D1D2D4"/>
<path fill-rule="evenodd" clip-rule="evenodd" d="M330.156 130.782C327.607 130.782 325.537 128.726 325.537 126.176C325.537 123.627 327.607 121.557 330.156 121.557C332.691 121.557 334.761 123.627 334.761 126.176C334.761 128.726 332.691 130.782 330.156 130.782Z" fill="#404042"/>
<path fill-rule="evenodd" clip-rule="evenodd" d="M319.509 118.232C321.777 127.598 330.016 134.655 339.988 135.091C337.551 137.767 334.045 139.444 330.157 139.444C322.819 139.444 316.876 133.5 316.876 126.176C316.875 123.19 317.86 120.444 319.509 118.232Z" fill="#BBBDBF"/>
<path fill-rule="evenodd" clip-rule="evenodd" d="M330.156 101.275C316.395 101.275 305.241 112.416 305.241 126.176C305.241 128.247 305.509 130.261 305.987 132.191H308.888C308.353 130.275 308.057 128.261 308.057 126.176C308.057 113.979 317.958 104.092 330.156 104.092C342.354 104.092 352.241 113.979 352.241 126.176C352.241 128.261 351.945 130.275 351.41 132.191H354.325C354.804 130.261 355.057 128.247 355.057 126.176C355.057 112.416 343.903 101.275 330.156 101.275Z" fill="#808184"/>
<path d="M0.479004 0.289001H448.452V97.163H0.479004V0.289001Z" fill="#0980B3"/>
<path fill-rule="evenodd" clip-rule="evenodd" d="M263.142 97.162L205.748 0.289001H0.479065V97.162H263.142Z" fill="#036D9B"/>
<path d="M4.70502 4.51398H444.226V92.936H4.70502V4.51398Z" fill="#2DABE2"/>
<path fill-rule="evenodd" clip-rule="evenodd" d="M260.635 92.937L208.255 4.51398H4.70502V92.937H260.635Z" fill="#0B99D4"/>
<path fill-rule="evenodd" clip-rule="evenodd" d="M218.015 103.444H26.099V123.345H202.367L218.015 103.444Z" fill="#404042"/>
<path fill-rule="evenodd" clip-rule="evenodd" d="M26.114 98.458C23.578 98.458 21.494 100.528 21.494 103.063V123.725C21.494 126.26 23.578 128.33 26.114 128.33C28.649 128.33 30.719 126.26 30.719 123.725V103.063C30.719 100.528 28.649 98.458 26.114 98.458Z" fill="#221F20"/>
<path fill-rule="evenodd" clip-rule="evenodd" d="M115.748 148.26C103.551 148.26 93.663 138.373 93.663 126.176C93.663 113.979 103.551 104.092 115.748 104.092C127.945 104.092 137.847 113.979 137.847 126.176C137.846 138.374 127.945 148.26 115.748 148.26Z" fill="#58595B"/>
<path fill-rule="evenodd" clip-rule="evenodd" d="M105.437 106.641C104.832 108.655 104.494 110.81 104.494 113.036C104.494 125.233 114.382 135.12 126.579 135.12C130.31 135.12 133.818 134.191 136.902 132.557C134.156 141.641 125.733 148.261 115.748 148.261C103.551 148.261 93.6631 138.374 93.6631 126.177C93.6631 117.697 98.4381 110.345 105.437 106.641Z" fill="#404042"/>
<path fill-rule="evenodd" clip-rule="evenodd" d="M115.748 139.444C108.424 139.444 102.479 133.5 102.479 126.176C102.479 118.839 108.423 112.895 115.748 112.895C123.086 112.895 129.029 118.839 129.029 126.176C129.029 133.5 123.086 139.444 115.748 139.444Z" fill="#D1D2D4"/>
<path fill-rule="evenodd" clip-rule="evenodd" d="M115.748 130.782C113.198 130.782 111.143 128.726 111.143 126.176C111.143 123.627 113.199 121.557 115.748 121.557C118.297 121.557 120.367 123.627 120.367 126.176C120.367 128.726 118.297 130.782 115.748 130.782Z" fill="#404042"/>
<path fill-rule="evenodd" clip-rule="evenodd" d="M105.113 118.232C107.382 127.598 115.621 134.655 125.592 135.091C123.155 137.767 119.649 139.444 115.747 139.444C108.423 139.444 102.478 133.5 102.478 126.176C102.479 123.19 103.452 120.444 105.113 118.232Z" fill="#BBBDBF"/>
<path fill-rule="evenodd" clip-rule="evenodd" d="M115.748 101.275C102.002 101.275 90.847 112.416 90.847 126.176C90.847 128.247 91.1001 130.261 91.5791 132.191H94.4941C93.9591 130.275 93.6631 128.261 93.6631 126.176C93.6631 113.979 103.551 104.092 115.748 104.092C127.945 104.092 137.847 113.979 137.847 126.176C137.847 128.261 137.551 130.275 137.016 132.191H139.917C140.396 130.261 140.663 128.247 140.663 126.176C140.663 112.416 129.509 101.275 115.748 101.275Z" fill="#808184"/>
<path fill-rule="evenodd" clip-rule="evenodd" d="M65.551 148.26C53.354 148.26 43.466 138.373 43.466 126.176C43.466 113.979 53.354 104.092 65.551 104.092C77.747 104.092 87.635 113.979 87.635 126.176C87.635 138.374 77.747 148.26 65.551 148.26Z" fill="#58595B"/>
<path fill-rule="evenodd" clip-rule="evenodd" d="M55.2411 106.641C54.6211 108.655 54.2971 110.81 54.2971 113.036C54.2971 125.233 64.1851 135.12 76.3821 135.12C80.1141 135.12 83.6211 134.191 86.7051 132.557C83.9591 141.641 75.5221 148.261 65.5511 148.261C53.3541 148.261 43.4661 138.374 43.4661 126.177C43.4661 117.697 48.2401 110.345 55.2411 106.641Z" fill="#404042"/>
<path fill-rule="evenodd" clip-rule="evenodd" d="M65.551 139.444C58.227 139.444 52.269 133.5 52.269 126.176C52.269 118.839 58.227 112.895 65.551 112.895C72.889 112.895 78.832 118.839 78.832 126.176C78.832 133.5 72.888 139.444 65.551 139.444Z" fill="#D1D2D4"/>
<path fill-rule="evenodd" clip-rule="evenodd" d="M65.551 130.782C63.001 130.782 60.945 128.726 60.945 126.176C60.945 123.627 63.002 121.557 65.551 121.557C68.1 121.557 70.17 123.627 70.17 126.176C70.17 128.726 68.099 130.782 65.551 130.782Z" fill="#404042"/>
<path fill-rule="evenodd" clip-rule="evenodd" d="M54.9171 118.232C57.1851 127.598 65.4241 134.655 75.3821 135.091C72.9591 137.767 69.4521 139.444 65.5511 139.444C58.2271 139.444 52.2691 133.5 52.2691 126.176C52.2681 123.19 53.2551 120.444 54.9171 118.232Z" fill="#BBBDBF"/>
<path fill-rule="evenodd" clip-rule="evenodd" d="M65.551 101.275C51.804 101.275 40.65 112.416 40.65 126.176C40.65 128.247 40.903 130.261 41.382 132.191H44.297C43.762 130.275 43.466 128.261 43.466 126.176C43.466 113.979 53.354 104.092 65.551 104.092C77.747 104.092 87.635 113.979 87.635 126.176C87.635 128.261 87.354 130.275 86.805 132.191H89.72C90.199 130.261 90.452 128.247 90.452 126.176C90.452 112.416 79.31 101.275 65.551 101.275Z" fill="#808184"/>
<path fill-rule="evenodd" clip-rule="evenodd" d="M165.959 148.26C153.748 148.26 143.86 138.373 143.86 126.176C143.86 113.979 153.748 104.092 165.959 104.092C178.156 104.092 188.044 113.979 188.044 126.176C188.044 138.374 178.156 148.26 165.959 148.26Z" fill="#58595B"/>
<path fill-rule="evenodd" clip-rule="evenodd" d="M155.635 106.641C155.03 108.655 154.692 110.81 154.692 113.036C154.692 125.233 164.593 135.12 176.791 135.12C180.51 135.12 184.016 134.191 187.101 132.557C184.355 141.641 175.932 148.261 165.96 148.261C153.749 148.261 143.861 138.374 143.861 126.177C143.86 117.697 148.635 110.345 155.635 106.641Z" fill="#404042"/>
<path fill-rule="evenodd" clip-rule="evenodd" d="M165.959 139.444C158.621 139.444 152.678 133.5 152.678 126.176C152.678 118.839 158.621 112.895 165.959 112.895C173.283 112.895 179.227 118.839 179.227 126.176C179.226 133.5 173.283 139.444 165.959 139.444Z" fill="#D1D2D4"/>
<path fill-rule="evenodd" clip-rule="evenodd" d="M165.959 130.782C163.409 130.782 161.339 128.726 161.339 126.176C161.339 123.627 163.409 121.557 165.959 121.557C168.494 121.557 170.564 123.627 170.564 126.176C170.564 128.726 168.494 130.782 165.959 130.782Z" fill="#404042"/>
<path fill-rule="evenodd" clip-rule="evenodd" d="M155.311 118.232C157.579 127.598 165.818 134.655 175.79 135.091C173.353 137.767 169.846 139.444 165.959 139.444C158.621 139.444 152.678 133.5 152.678 126.176C152.677 123.19 153.663 120.444 155.311 118.232Z" fill="#BBBDBF"/>
<path fill-rule="evenodd" clip-rule="evenodd" d="M165.959 101.275C152.198 101.275 141.044 112.416 141.044 126.176C141.044 128.247 141.312 130.261 141.79 132.191H144.691C144.156 130.275 143.86 128.261 143.86 126.176C143.86 113.979 153.748 104.092 165.959 104.092C178.156 104.092 188.044 113.979 188.044 126.176C188.044 128.261 187.747 130.275 187.212 132.191H190.128C190.607 130.261 190.86 128.247 190.86 126.176C190.86 112.416 179.705 101.275 165.959 101.275Z" fill="#808184"/>
<path d="M419.903 13.063H430.17V84.373H419.903V13.063Z" fill="#0B99D4"/>
<path d="M419.903 13.063H423.691V84.373H419.903V13.063Z" fill="#0980B3"/>
<path d="M386.465 13.063H396.733V84.373H386.465V13.063Z" fill="#0B99D4"/>
<path d="M353.043 13.063H363.311V84.373H353.043V13.063Z" fill="#0B99D4"/>
<path d="M319.62 13.063H329.888V84.373H319.62V13.063Z" fill="#0B99D4"/>
<path d="M286.184 13.063H296.452V84.373H286.184V13.063Z" fill="#0B99D4"/>
<path d="M252.761 13.063H263.029V84.373H252.761V13.063Z" fill="#0B99D4"/>
<path d="M219.339 13.063H229.606V84.373H219.339V13.063Z" fill="#0B99D4"/>
<path d="M185.902 13.063H196.17V84.373H185.902V13.063Z" fill="#0980B3"/>
<path d="M152.479 13.063H162.748V84.373H152.479V13.063Z" fill="#0980B3"/>
<path d="M119.057 13.063H129.325V84.373H119.057V13.063Z" fill="#0980B3"/>
<path d="M85.6199 13.063H95.8879V84.373H85.6199V13.063Z" fill="#0980B3"/>
<path d="M52.1981 13.063H62.4661V84.373H52.1981V13.063Z" fill="#0980B3"/>
<path d="M18.775 13.063H29.0439V84.373H18.775V13.063Z" fill="#0980B3"/>
<path d="M386.465 13.063H390.269V84.373H386.465V13.063Z" fill="#0980B3"/>
<path d="M353.044 13.063H356.832V84.373H353.044V13.063Z" fill="#0980B3"/>
<path d="M319.621 13.063H323.41V84.373H319.621V13.063Z" fill="#0980B3"/>
<path d="M286.184 13.063H289.987V84.373H286.184V13.063Z" fill="#0980B3"/>
<path d="M252.762 13.063H256.551V84.373H252.762V13.063Z" fill="#0980B3"/>
<path d="M219.34 13.063H223.128V84.373H219.34V13.063Z" fill="#0980B3"/>
<path d="M185.902 13.063H189.705V84.373H185.902V13.063Z" fill="#036D9B"/>
<path d="M152.479 13.063H156.268V84.373H152.479V13.063Z" fill="#036D9B"/>
<path d="M119.057 13.063H122.846V84.373H119.057V13.063Z" fill="#036D9B"/>
<path d="M85.6211 13.063H89.4241V84.373H85.6211V13.063Z" fill="#036D9B"/>
<path d="M52.1981 13.063H55.9871V84.373H52.1981V13.063Z" fill="#036D9B"/>
<path d="M18.775 13.063H22.564V84.373H18.775V13.063Z" fill="#036D9B"/>
<path fill-rule="evenodd" clip-rule="evenodd" d="M229.606 40.557L219.34 23.218V84.374H229.606V40.557Z" fill="#0980B3"/>
<path fill-rule="evenodd" clip-rule="evenodd" d="M223.128 29.627L219.34 23.218V84.374H223.128V29.627Z" fill="#036D9B"/>
<path d="M442.804 103.092H446.241V136.923H442.804V103.092Z" fill="#EF4323"/>
<path d="M415.874 103.092H419.311V136.923H415.874V103.092Z" fill="#EF4323"/>
<path d="M442.804 120.007H446.241V136.923H442.804V120.007Z" fill="#D83327"/>
<path d="M415.874 120.007H419.311V136.923H415.874V120.007Z" fill="#D83327"/>
<path fill-rule="evenodd" clip-rule="evenodd" d="M509.93 34.134C502.254 22.866 483.916 14.641 461.973 13.444V34.134H509.93Z" fill="#C12626"/>
</svg>
