<svg width="210" height="133" viewBox="0 0 210 133" fill="none" xmlns="http://www.w3.org/2000/svg">
<path d="M208.531 76.9466C209.509 78.8933 207.421 80.4266 205.749 79.1733C204.078 77.9199 201.154 75.6933 195.998 74.8573C191.298 74.0933 182.63 77.7826 177.897 77.7826C173.849 77.7826 168.706 75.8306 168.706 75.8306L169.374 73.1613C170.185 70.6679 170.958 68.3199 171.571 66.2146C172.253 66.9626 173.882 68.5786 176.042 69.6946C176.009 69.8439 175.177 73.7586 178.586 74.5199C180.053 74.8453 189.819 70.0906 194.758 72.0626C199.578 73.9933 206.543 78.0573 208.531 76.9466Z" fill="#C9A869"/>
<path d="M208.532 76.9466C206.544 78.0573 199.578 73.9933 194.758 72.0626C189.82 70.0906 180.053 74.8453 178.586 74.52C175.177 73.7586 176.009 69.844 176.042 69.6946C176.706 70.0373 177.425 70.3293 178.177 70.5386C181.238 71.3866 189.457 69.1466 196.417 70.12C203.381 71.0973 207.558 74.996 208.532 76.9466Z" fill="#EBCB8F"/>
<path d="M162.009 35.8511C170.957 44.4617 173.714 55.2524 172.745 61.3471C172.52 62.7551 172.106 64.3964 171.572 66.2137C171.338 65.9591 171.213 65.8044 171.213 65.8044L169.374 73.1617C167.829 77.8951 166.137 83.1631 165.084 88.3644C161.048 88.3644 147.956 95.3284 145.59 96.4391C143.222 97.5551 135.005 97.4177 133.058 95.3284C131.692 93.8657 133.053 91.1084 134.854 89.1537L135.222 89.2004C135.222 89.2004 139.613 93.0977 144.346 91.7057C149.08 90.3151 162.381 85.0217 163.145 84.8844C163.905 84.7417 173.452 47.6857 162.009 35.8511Z" fill="#C9A869"/>
<path d="M171.212 65.8048C171.212 65.8048 171.338 65.9594 171.571 66.2141C170.958 68.3194 170.184 70.6674 169.374 73.1621L171.212 65.8048Z" fill="white"/>
<path d="M58.9629 108.517C59.9282 108.249 60.8762 107.936 61.8082 107.589L61.8829 107.791C69.8789 106.725 85.9175 104.653 91.5322 84.8841C95.6762 70.2747 91.6029 68.3027 92.6722 61.9067C95.1082 47.3521 111.192 34.9614 107.223 27.3707C114.688 33.0814 138.723 28.2054 158.158 33.4907C158.162 33.4947 158.166 33.4947 158.166 33.4947C159.774 34.1801 161.044 34.9241 161.884 35.7254C161.926 35.7681 161.967 35.8054 162.01 35.8507C173.452 47.6867 163.906 84.7427 163.146 84.8841C162.382 85.0227 149.079 90.3147 144.346 91.7067C139.612 93.0974 135.222 89.2001 135.222 89.2001L134.855 89.1534C135.627 88.3147 136.484 87.6254 137.236 87.2494C139.371 86.1801 148.591 83.8987 151.264 83.2467C151.264 83.2467 151.272 83.2467 151.29 83.2427C151.736 83.1334 151.995 83.0707 151.995 83.0707C148.934 82.2361 145.031 77.9201 145.031 77.9201C145.031 77.9201 145.006 77.9374 144.96 77.9707C144.242 77.0801 143.574 76.2067 142.963 75.3467C134.123 78.6721 110.958 104.577 98.7349 97.9734C98.6509 97.9307 98.5669 97.8854 98.4842 97.8347C98.5082 102.568 97.0002 107.581 92.8229 111.759C88.6455 115.937 53.3442 119.279 50.3482 120.115C47.3535 120.951 44.6255 122.813 40.4602 125.265C36.2989 127.723 25.9922 121.292 25.9922 121.292L25.9842 121.288C27.5922 119.061 29.8869 117.299 31.6535 116.476C34.5775 115.105 53.6362 109.951 58.0602 108.76C58.1402 108.739 58.2149 108.717 58.2815 108.701C58.6615 108.597 58.9002 108.535 58.9629 108.517Z" fill="#EBCB8F"/>
<path d="M142.963 75.3466C143.572 76.2066 144.242 77.08 144.96 77.9706C144.258 78.4506 138.572 82.3813 135.702 84.604C132.64 86.9733 129.298 91.1506 125.956 95.048C122.614 98.9466 113.699 104.657 109.246 106.467C105.828 107.853 99.2192 107.581 99.2192 107.581C99.6952 103.463 99.3485 100.304 98.7338 97.9733C110.958 104.577 134.123 78.672 142.963 75.3466Z" fill="#C9A869"/>
<path d="M107.219 27.032C121.356 26.832 147.375 28.8947 158.158 33.4907C138.723 28.2053 114.688 33.0813 107.223 27.3707L107.219 27.032Z" fill="#FAE3B9"/>
<path d="M107.223 27.3704C111.193 34.9611 95.1086 47.3517 92.6726 61.9064C91.6033 68.3037 95.6766 70.2744 91.5326 84.8837C85.9166 104.653 69.8793 106.725 61.8833 107.79L61.8073 107.59C75.1179 102.606 84.5966 89.7677 84.5966 74.7157C84.5966 69.2304 83.3353 64.0464 81.0926 59.4211C81.9113 59.5171 85.9713 59.5544 88.3193 57.7291C90.8259 55.7784 95.1713 46.7624 97.5099 42.8984C100.819 37.4304 104.37 33.9171 105.206 29.8771C105.373 29.0744 105.285 28.1304 104.989 27.0904C105.694 27.0651 106.438 27.0451 107.219 27.0317L107.223 27.3704Z" fill="#C9A869"/>
<path d="M104.988 27.0905C105.284 28.1305 105.372 29.0745 105.206 29.8772C104.37 33.9172 100.819 37.4305 97.5109 42.8985C95.1709 46.7625 90.8696 55.7785 88.3629 57.7291C86.0162 59.5545 82.5136 59.5171 81.1802 59.4211V59.4171C81.1802 59.4131 80.5722 58.3358 80.3762 57.9425C80.3629 57.8958 80.3376 57.8678 80.3376 57.8678C80.3282 57.8678 80.3136 57.8718 80.3056 57.8718C80.3016 57.8625 80.2909 57.8585 80.2869 57.8505L80.4216 57.8331C80.4216 57.8331 83.9722 56.0918 85.7469 52.5411C86.8549 50.3265 87.7976 44.6745 83.6202 40.2878C83.6202 40.2878 98.5469 40.7971 99.4402 17.9292L99.5322 17.8531C102.152 21.1291 104.24 24.4332 104.988 27.0905Z" fill="#C9A869"/>
<path d="M99.5322 17.8536L99.4402 17.9283C98.5469 40.7976 83.6189 40.2883 83.6189 40.2883C83.0802 39.7189 82.3162 39.2229 81.4055 38.7883C80.0095 38.1189 78.2762 37.5883 76.4922 37.1629L76.5175 37.0496C81.7389 28.0683 78.1882 12.4016 78.1882 12.4016C77.9415 10.5883 77.2149 9.20559 74.5709 6.83626L74.5749 7.18693H74.5789C74.9255 7.18693 84.1789 4.61359 97.4309 15.7096C98.1575 16.5323 98.8642 17.0136 99.5322 17.8536Z" fill="#EBCB8F"/>
<path d="M98.7342 97.9728C99.3489 100.303 99.6955 103.462 99.2182 107.581C99.2182 107.581 99.2182 112.314 96.9875 114.683C94.0182 117.838 61.2022 121.23 52.5622 122.341C43.9276 123.453 41.1489 131.114 40.0249 131.807C38.9062 132.501 25.1316 132.927 24.1462 127.906C23.6822 125.554 24.5676 123.243 25.9849 121.289L25.9929 121.293C25.9929 121.293 36.2996 127.722 40.4596 125.265C44.6249 122.813 47.3529 120.95 50.3489 120.114C53.3436 119.279 88.6449 115.937 92.8222 111.759C97.0009 107.581 98.5089 102.569 98.4836 97.8355C98.5676 97.8848 98.6502 97.9315 98.7342 97.9728Z" fill="#C9A869"/>
<path d="M94.5858 12.2972C95.5511 13.2786 96.5111 14.3066 97.4311 15.3559C84.1791 4.2599 74.9258 6.39456 74.5791 6.47723L77.1445 4.11323C79.9218 4.05456 88.3565 5.9559 94.5858 12.2972Z" fill="#FAE3B9"/>
<path d="M83.6194 40.2878C87.7967 44.6744 86.8527 50.3264 85.7461 52.5411C83.9701 56.0918 80.4194 57.8344 80.4194 57.8344L80.2821 57.8504C79.4287 57.9718 78.4141 57.7838 77.9794 57.0318C77.9541 56.9864 77.9341 56.9398 77.9127 56.8944C77.8327 56.7064 77.7834 56.4518 77.7421 56.1664C77.7247 56.0251 77.7074 55.8784 77.6874 55.7278C77.6621 55.5024 77.6367 55.2691 77.5994 55.0518C77.5781 54.9011 77.5487 54.7598 77.5114 54.6291C77.4621 54.4291 77.3901 54.2531 77.2981 54.1158C77.2354 54.0238 77.1647 53.9531 77.0767 53.8984C76.3794 53.4811 74.3621 53.8984 73.6634 53.0624C72.9741 52.2398 73.3087 50.1224 72.1101 49.9384C72.9834 50.0891 85.5954 52.0691 81.4047 38.7878C82.3154 39.2224 83.0807 39.7198 83.6194 40.2878Z" fill="#C9A869"/>
<path d="M26.9704 101.62C25.7797 100.621 24.6517 99.5439 23.6037 98.3945C21.957 96.5985 20.4997 94.6265 19.2544 92.5132C18.2597 90.8292 17.4037 89.0532 16.701 87.2025C25.065 101.207 51.7517 104.215 63.6384 92.0159C77.2357 78.0572 67.6357 57.9092 64.2304 55.0145C60.8304 52.1145 55.3664 55.3319 51.4717 55.8999C47.6077 56.4639 38.2957 56.7959 34.8197 54.8199C35.7477 55.0879 36.7584 55.1865 37.8157 55.1865H37.845C39.2984 55.1865 40.765 54.9745 41.705 55.0545C43.3757 55.1919 46.4384 54.8612 48.945 54.1625C50.9037 53.6199 57.1544 51.3905 61.089 50.4212C62.1917 50.1492 63.1157 49.9599 63.709 49.9439C64.8277 49.9145 64.7157 48.2825 65.7264 48.3372C67.1184 48.4039 66.2157 50.2132 67.3264 50.4892C68.4424 50.7692 70.8104 49.7932 72.0637 49.9319C72.081 49.9319 72.097 49.9345 72.1104 49.9385C73.309 50.1225 72.9744 52.2399 73.6637 53.0639C74.3624 53.8985 76.3797 53.4812 77.077 53.8985C77.165 53.9532 77.2357 54.0239 77.2984 54.1159C77.3904 54.2532 77.457 54.4292 77.5117 54.6292C77.545 54.7585 77.5744 54.9012 77.5997 55.0519C77.637 55.2692 77.6624 55.5025 77.6877 55.7279C77.7037 55.8785 77.721 56.0252 77.741 56.1665C77.7837 56.4505 77.833 56.7052 77.913 56.8932C77.9344 56.9399 77.9544 56.9852 77.9797 57.0319C78.4304 57.8759 79.4037 58.0305 80.2944 57.8719C80.3024 57.8919 80.3144 57.9132 80.3317 57.9425C80.3944 58.2385 80.645 59.3079 80.9757 59.3999C80.9997 59.4092 81.0384 59.4132 81.0917 59.4212C83.3357 64.0465 84.597 69.2305 84.597 74.7159C84.597 89.7679 75.1184 102.605 61.8077 107.589C60.8757 107.936 59.9277 108.249 58.9624 108.517C58.8997 108.535 58.6624 108.597 58.2824 108.701C58.2104 108.717 58.1357 108.739 58.061 108.76C56.461 109.161 54.8144 109.453 53.1304 109.624C51.9357 109.745 50.729 109.808 49.505 109.808C40.9237 109.808 33.065 106.733 26.9704 101.62Z" fill="#298787"/>
<path d="M44.5917 22.3863C46.4757 23.1223 46.8557 24.8303 46.8557 24.8303C46.8557 24.8303 46.9317 24.7636 47.0477 24.6423C41.901 30.821 35.3677 33.081 35.3677 33.081C35.3677 33.081 35.2544 29.229 35.6144 26.197C35.7397 25.1143 35.9277 24.133 36.2024 23.473C37.2477 20.9663 42.541 17.0636 44.1077 14.837C44.913 13.693 46.2037 11.5916 47.9344 9.43962C47.9344 9.43962 61.0597 1.85296 76.309 4.25562C75.2637 4.89429 74.613 6.38629 74.5744 6.47829L74.5704 6.48229C77.2144 8.85029 77.9424 10.589 78.189 12.4023C78.189 12.4023 81.7397 28.0676 76.517 37.0503L76.4917 37.1623C78.2757 37.589 80.0104 38.1196 81.405 38.7876C85.5957 52.069 72.9837 50.089 72.1104 49.9383C72.097 49.9343 72.081 49.929 72.0637 49.929C70.8104 49.7916 68.4424 50.765 67.3264 50.485C66.2157 50.209 67.117 48.397 65.7264 48.3303C64.7157 48.2756 64.8277 49.901 63.709 49.929C63.1157 49.9463 62.1917 50.1223 61.089 50.393L61.0144 50.097C49.2837 53.0423 44.7797 49.9463 43.9317 49.2316C44.0824 48.321 44.0197 47.4063 43.6144 46.609C42.257 43.9343 38.4424 44.5703 36.8917 44.189C35.3424 43.809 33.0784 42.0876 30.8144 44.189C30.3704 44.6036 30.0664 45.0836 29.8744 45.6063C29.6397 46.1983 29.5517 46.8423 29.561 47.481C29.4357 47.3983 29.3677 47.3516 29.3677 47.3516C25.5957 48.885 22.2077 46.0316 22.2077 46.0316L21.9904 46.0356C21.969 44.8156 22.0904 43.4503 22.3837 42.1636L22.5757 42.205C22.5757 42.205 25.9264 39.565 28.7544 38.7876C31.5824 38.0103 40.4517 34.0263 43.2717 31.565C49.141 26.4436 48.865 21.853 48.865 21.853H48.857C48.869 20.5196 48.861 21.1836 48.8237 20.9876C48.7237 20.461 48.4304 19.809 47.8424 19.3583C45.7704 17.7703 42.8784 19.9996 42.4024 22.125C43.297 22.0916 44.0157 22.157 44.5917 22.3863Z" fill="#EBCB8F"/>
<path d="M81.2357 59.4171V59.4211C81.2357 59.4131 81.0717 59.4091 81.0463 59.4011C80.717 59.3091 80.5023 58.2385 80.4397 57.9425C80.6357 58.3358 81.2357 59.4131 81.2357 59.4171Z" fill="white"/>
<path d="M80.2815 57.8504C80.2855 57.8584 80.2895 57.8624 80.2935 57.8718C79.4042 58.0304 78.4309 57.8758 77.9802 57.0318C78.4135 57.7838 79.4295 57.9718 80.2815 57.8504Z" fill="white"/>
<path d="M60.9557 2.06053C66.1104 1.30853 72.3944 1.6392 77.2157 4.1672L77.1437 4.17387C76.7344 4.17787 76.4464 4.20187 76.309 4.28587C61.0597 1.8832 47.9344 9.4552 47.9344 9.4552C49.5677 7.42053 51.589 5.57787 53.9584 4.2232C54.8024 3.7432 55.825 3.1872 56.9824 3.1872H56.9864C58.1864 3.1872 59.5264 2.26987 60.9557 2.06053" fill="#FAE3B9"/>
<path d="M77.1441 4.22892L74.5787 6.70892H74.5747C74.6121 6.70892 75.2641 5.06759 76.3081 4.42892C76.4467 4.34492 76.7347 4.23292 77.1441 4.22892" fill="#BFAA8A"/>
<path d="M33.0781 59.7597C33.3074 59.6424 33.2874 59.3211 33.0488 59.2251C30.1114 58.0384 27.3008 54.9051 26.5608 54.0411C26.4568 53.9197 26.2688 53.9024 26.1434 54.0077C16.2341 62.2744 16.8568 74.6024 17.6954 79.9544C17.7501 80.3011 18.2554 80.2757 18.2808 79.9251C19.2288 67.5677 30.3048 61.1757 33.0781 59.7597ZM64.2314 55.0144C67.6354 57.9091 77.2354 78.0584 63.6381 92.0157C51.7528 104.214 25.0648 101.206 16.7021 87.2024C16.7021 87.2024 16.6981 87.1984 16.6981 87.1944C15.2181 83.3171 14.4128 79.1104 14.4128 74.7157C14.4128 65.2784 18.1434 56.7184 24.2048 50.4104C24.3594 50.4557 24.5181 50.4984 24.6848 50.5357C24.8141 50.5651 24.9448 50.5944 25.0781 50.6197C26.8448 50.9957 28.4248 51.0411 29.5181 51.3211C29.6061 51.3424 29.6941 51.3664 29.7781 51.3917C29.7861 51.3957 29.7901 51.3957 29.7981 51.3997C29.8821 51.4251 29.9621 51.4544 30.0368 51.4837C30.1288 51.5211 30.2128 51.5584 30.2874 51.6011C30.5341 51.7344 30.7674 51.8931 30.9941 52.0691C31.8874 53.2971 33.2288 54.2491 34.8208 54.7091C38.2954 56.6851 47.6074 56.4637 51.4728 55.8997C55.3661 55.3317 60.8301 52.1144 64.2314 55.0144" fill="#33A6A6"/>
<path d="M61.0141 50.0968L61.0887 50.3941C57.1541 51.3621 50.9047 53.5648 48.9447 54.1075C46.4381 54.8048 43.3754 55.0808 41.7047 54.9435C40.7647 54.8635 39.2981 54.9635 37.8447 54.9635C38.8354 54.8555 39.8621 54.5675 40.8981 54.0568C42.0261 53.5021 43.5767 51.3755 43.9314 49.2315C44.7794 49.9461 49.2834 53.0421 61.0141 50.0968Z" fill="#C9A869"/>
<path d="M60.9557 2.06047C59.5264 2.2698 58.1864 3.18713 56.9864 3.18713H56.9824C56.853 3.18713 53.9704 2.3898 52.049 2.9458C50.085 3.5138 45.1184 8.12313 43.777 9.56047C42.4357 10.9978 37.4517 14.3405 34.7077 14.5618C31.9624 14.7831 29.561 19.1871 29.561 19.1871H29.369C29.393 16.5205 29.6104 15.2031 30.145 14.2885C32.3384 10.5285 36.621 11.0471 40.7984 8.54047C44.9757 6.0338 49.1544 1.50447 52.2877 0.879135C55.169 0.301802 60.1784 1.8258 60.9557 2.06047Z" fill="#FAE3B9"/>
<path d="M52.0489 2.7053C53.9702 2.1493 56.8529 2.67996 56.9822 2.7053C55.8249 3.0653 54.8022 3.49463 53.9582 3.97596C51.5889 5.3293 49.5676 7.4053 47.9342 9.43996C46.2049 11.5906 44.9129 13.692 44.1076 14.8373C42.5409 17.064 37.2476 20.9653 36.2036 23.472C35.9276 24.132 35.7396 25.1146 35.6142 26.196L35.3676 26.332C31.7116 29.0306 29.8996 27.1866 29.8996 27.1866H29.8942C29.5862 24.52 29.3396 21.8533 29.3689 19.1866H29.5609C29.5609 19.1866 31.9622 14.7226 34.7076 14.5013C37.4516 14.28 42.4356 10.984 43.7769 9.54796C45.1182 8.11063 50.0849 3.2733 52.0489 2.7053Z" fill="#EBCB8F"/>
<path d="M31.052 34.7607C33.4 33.7794 35.368 33.0807 35.368 33.0807C35.368 33.0807 41.9013 30.8207 47.048 24.642C47.0653 24.622 47.0813 24.8807 47.1026 24.8607C47.616 24.3167 48.7733 23.1874 48.8573 21.854H48.8653C48.8653 21.854 49.1413 26.4434 43.272 31.566C40.452 34.026 31.5826 38.1487 28.7546 38.926C25.9266 39.7034 22.576 42.274 22.576 42.274L22.384 42.198C22.7933 40.418 23.536 38.7887 24.7146 37.97C26.268 36.8874 28.8333 35.6887 31.052 34.7607Z" fill="#FAE3B9"/>
<path d="M47.1025 24.5838C47.0812 24.6052 47.0652 24.6212 47.0478 24.6425C46.9318 24.7638 46.8558 24.8305 46.8558 24.8305C46.8558 24.8305 46.4758 23.1212 44.5918 22.3865C46.1372 22.4412 48.1132 22.1905 48.8238 20.7118C48.8612 20.9078 48.8692 21.1038 48.8572 21.2998C48.7732 22.6785 47.6158 24.0412 47.1025 24.5838Z" fill="#D1D3D4"/>
<path d="M47.8419 19.2197C48.4313 19.6704 48.7233 20.1851 48.8233 20.7117C48.1139 22.1904 46.1379 22.4411 44.5913 22.3864C44.0153 22.1571 43.2966 22.0224 42.4033 22.0571C42.8793 19.9304 45.7699 17.6317 47.8419 19.2197Z" fill="white"/>
<path d="M43.6142 46.6085C44.0196 47.4058 44.0822 48.3218 43.9316 49.2325C43.8276 49.1405 43.7769 49.0898 43.7769 49.0898C36.8676 51.8551 30.7089 48.2258 29.5609 47.4818C29.5516 46.8418 29.6396 46.1991 29.8742 45.6058L29.8996 45.6138C29.8996 45.6138 32.5182 44.8538 33.7049 45.0751C34.8956 45.2965 35.9236 45.9151 37.3022 46.0485C38.6809 46.1818 42.1769 45.8351 43.6142 46.6085Z" fill="#9C774D"/>
<path d="M43.6142 46.6085C44.0196 47.4058 44.0822 48.3218 43.9316 49.2325C43.8276 49.1405 43.7769 49.0898 43.7769 49.0898C36.8676 51.8551 30.7089 48.2258 29.5609 47.4818C29.5516 46.8418 29.6396 46.1991 29.8742 45.6058L29.8996 45.6138C29.8996 45.6138 32.5182 44.8538 33.7049 45.0751C34.8956 45.2965 35.9236 45.9151 37.3022 46.0485C38.6809 46.1818 42.1769 45.8351 43.6142 46.6085Z" stroke="#9C774D" stroke-width="0.254" stroke-miterlimit="10"/>
<path d="M43.7772 49.0899C43.7772 49.0899 43.8278 49.1406 43.9318 49.2326C43.5772 51.3753 42.0265 53.6126 40.8985 54.1686C39.8625 54.6779 38.8345 55.1873 37.8452 55.1873H37.8158C36.6958 55.1873 35.5892 55.0166 34.7412 54.7739C33.1118 54.3113 32.1585 53.0059 30.9932 52.1246C30.8345 51.9033 30.6892 51.6499 30.5585 51.4113C30.1825 50.7299 29.5732 49.1206 29.5612 47.4953C30.7092 48.2393 36.8678 51.8553 43.7772 49.0899Z" fill="#826340"/>
<path d="M36.8924 44.1895C38.4417 44.5695 42.2564 43.9348 43.6137 46.6082C42.1777 45.8348 38.6804 46.1828 37.3017 46.0482C35.9231 45.9148 34.8951 45.2962 33.7044 45.0748C32.5191 44.8535 29.8991 45.6135 29.8991 45.6135L29.8737 45.6055C30.0657 45.0842 30.3711 44.6028 30.8137 44.1895C33.0777 42.0882 35.3431 43.8095 36.8924 44.1895Z" fill="#C49661"/>
<path d="M37.8156 54.9639C36.7582 55.0772 35.7476 54.9759 34.8196 54.7092C34.7916 54.6919 34.7662 54.6799 34.7409 54.6625C35.5889 54.9052 36.6956 54.9639 37.8156 54.9639Z" fill="white"/>
<path d="M35.3674 26.3324L35.6141 26.279C35.2541 29.3124 35.3674 33.123 35.3674 33.123C35.3674 33.123 33.3994 33.9644 31.0514 34.947C30.9021 34.115 30.3328 29.8537 29.8941 27.187H29.8994C29.8994 27.187 31.7114 29.031 35.3674 26.3324" fill="#C9A869"/>
<path d="M34.7407 54.6631C34.7661 54.6791 34.7914 54.6924 34.8207 54.7084C33.2287 54.2498 31.8874 53.2964 30.9927 52.0684C32.1594 52.9498 33.1114 54.1991 34.7407 54.6631Z" fill="white"/>
<path d="M33.0489 59.225C33.2876 59.321 33.3076 59.6424 33.0782 59.7597C30.3036 61.1757 19.2289 67.5677 18.2809 79.925C18.2556 80.2757 17.7502 80.301 17.6956 79.9544C16.8569 74.6024 16.2342 62.2744 26.1436 54.0077C26.2689 53.9024 26.4569 53.9197 26.5609 54.041C27.3009 54.905 30.1116 58.0384 33.0489 59.225Z" fill="#43BABA"/>
<path d="M30.559 51.3836C30.6884 51.6223 30.835 51.8476 30.9937 52.069C30.7684 51.893 30.5337 51.7343 30.287 51.601C30.2124 51.5596 30.1284 51.521 30.0364 51.4836C29.9617 51.4543 29.8817 51.425 29.799 51.3996C29.7897 51.3956 29.7857 51.3956 29.7777 51.3916C29.6937 51.3663 29.611 51.3423 29.519 51.321C28.3497 51.0156 26.5604 50.9116 25.0777 50.6196C24.9444 50.5943 24.815 50.565 24.6857 50.5356C24.527 50.4943 24.3684 50.4556 24.2044 50.4103C23.5817 50.2303 23.0724 49.9876 22.767 49.6503C22.3084 49.1396 22.0164 47.7316 21.991 46.0356L22.2084 46.0316C22.2084 46.0316 25.5964 48.885 29.3684 47.3516C29.3684 47.3516 29.435 47.3983 29.5604 47.481C29.5737 49.1063 30.183 50.7023 30.559 51.3836Z" fill="#C9A869"/>
<path d="M23.6031 98.3948C24.6511 99.5441 25.7791 100.621 26.9698 101.62C21.9284 102.881 13.3138 107.456 10.7898 107.025C7.93644 106.537 0.835111 105.911 0.625778 102.568C0.500444 100.551 1.46578 98.3495 3.27911 96.5735L3.28711 96.5815C3.28711 96.5815 8.01644 101.661 11.6338 101.177C15.2484 100.688 22.6631 98.6828 23.6031 98.3948Z" fill="#C9A869"/>
<path d="M24.2048 50.4101C24.3674 50.4567 24.5261 50.4941 24.6848 50.5354C24.5181 50.4981 24.3594 50.4567 24.2048 50.4101Z" fill="white"/>
<path d="M19.2543 92.5127C20.4996 94.626 21.9569 96.598 23.6036 98.3953C22.6636 98.6833 15.2476 100.689 11.6343 101.177C8.01693 101.662 3.28759 96.582 3.28759 96.582L3.27826 96.5727C4.46493 95.4113 6.01959 94.43 7.86626 93.7953C11.5049 92.546 17.0103 92.4833 19.2543 92.5127Z" fill="#EBCB8F"/>
<path d="M169.374 73.1616L168.706 75.8309C168.706 75.8309 173.849 77.7816 177.897 77.7816C182.63 77.7816 191.298 74.0936 195.998 74.8576C201.154 75.6936 204.078 77.9202 205.749 79.1736C207.42 80.4269 209.509 78.8936 208.532 76.9469C207.558 74.9962 203.381 71.0976 196.416 70.1202C189.456 69.1469 181.238 71.3856 178.177 70.5376C177.425 70.3296 176.706 70.0362 176.042 69.6936C173.882 68.5789 172.253 66.9616 171.572 66.2136" stroke="black" stroke-width="0.627" stroke-miterlimit="10" stroke-linecap="round"/>
<path d="M26.9704 101.62C21.9277 102.881 13.3131 107.456 10.7904 107.025C7.93705 106.537 0.834388 105.911 0.626388 102.568C0.501055 100.551 1.46639 98.3492 3.27839 96.5732C4.46506 95.4119 6.01972 94.4306 7.86639 93.7946C11.5051 92.5466 17.0104 92.4839 19.2544 92.5132" stroke="black" stroke-width="0.627" stroke-miterlimit="10" stroke-linecap="round"/>
<path d="M58.9629 108.517C58.9749 108.513 58.9802 108.513 58.9802 108.513" stroke="black" stroke-width="0.627" stroke-miterlimit="10" stroke-linecap="round"/>
<path d="M151.289 83.2424C151.736 83.1344 151.996 83.0717 151.996 83.0717C148.933 82.2357 145.031 77.9197 145.031 77.9197C145.031 77.9197 145.007 77.937 144.96 77.9704C144.259 78.4504 138.572 82.3824 135.703 84.6037C132.64 86.973 129.299 91.1504 125.956 95.049C122.613 98.9464 113.699 104.657 109.245 106.466C105.828 107.853 99.2186 107.581 99.2186 107.581C99.2186 107.581 99.2186 112.314 96.9879 114.684C94.0173 117.837 61.2026 121.23 52.5626 122.341C43.9279 123.453 41.1493 131.114 40.0253 131.808C38.9053 132.501 25.1319 132.928 24.1466 127.906C23.6826 125.554 24.5679 123.244 25.9839 121.288C27.5933 119.061 29.8866 117.298 31.6533 116.476C34.5773 115.105 53.6359 109.95 58.0599 108.76C58.1399 108.738 58.2146 108.718 58.2826 108.701" stroke="black" stroke-width="0.627" stroke-miterlimit="10" stroke-linecap="round"/>
<path d="M158.166 33.4948C159.774 34.1801 161.044 34.9241 161.884 35.7255C161.926 35.7668 161.967 35.8055 162.01 35.8508C170.958 44.4615 173.715 55.2521 172.746 61.3468C172.52 62.7548 172.107 64.3975 171.572 66.2148C170.958 68.3201 170.184 70.6681 169.375 73.1615C167.828 77.8948 166.136 83.1628 165.084 88.3641C161.048 88.3641 147.955 95.3281 145.591 96.4401C143.222 97.5548 135.004 97.4175 133.058 95.3281C131.692 93.8668 133.054 91.1095 134.855 89.1535C135.627 88.3148 136.483 87.6255 137.235 87.2481C139.371 86.1788 148.591 83.8988 151.264 83.2468" stroke="black" stroke-width="0.627" stroke-miterlimit="10" stroke-linecap="round"/>
<path d="M104.988 27.0905C105.695 27.0651 106.438 27.0451 107.219 27.0318C121.356 26.8318 147.375 28.8958 158.158 33.4905" stroke="black" stroke-width="0.627" stroke-miterlimit="10" stroke-linecap="round"/>
<path d="M56.9869 2.7053C58.1855 2.3253 59.5269 2.02796 60.9562 1.81996C66.1109 1.06796 72.3935 1.51863 77.2149 4.04663" stroke="black" stroke-width="0.627" stroke-miterlimit="10" stroke-linecap="round"/>
<path d="M24.2048 50.4101C23.5821 50.2301 23.0728 49.9888 22.7674 49.6501C22.3074 49.1394 22.0154 47.7328 21.9901 46.0354C21.9701 44.8168 22.0914 43.4501 22.3834 42.1634C22.7928 40.3834 23.5368 38.7714 24.7141 37.9528C26.2688 36.8701 28.8341 35.6874 31.0514 34.7608C33.3994 33.7794 35.3674 33.0808 35.3674 33.0808C35.3674 33.0808 35.2541 29.2301 35.6141 26.1968C35.7394 25.1141 35.9274 24.1328 36.2034 23.4728C37.2474 20.9661 42.5408 17.0634 44.1074 14.8368C44.9128 13.6928 46.2048 11.5914 47.9341 9.43943C49.5674 7.40476 51.5888 5.32876 53.9581 3.97543C54.8021 3.49543 55.8261 3.06477 56.9821 2.70477" stroke="black" stroke-width="0.627" stroke-miterlimit="10" stroke-linecap="round"/>
<path d="M29.7777 51.3918C29.6937 51.3665 29.611 51.3412 29.519 51.3212C28.3484 51.0158 26.5604 50.9118 25.0777 50.6185" stroke="black" stroke-width="0.627" stroke-miterlimit="10" stroke-linecap="round"/>
<path d="M30.0368 51.4838C29.9621 51.4545 29.8821 51.4252 29.7981 51.3998" stroke="black" stroke-width="0.627" stroke-miterlimit="10" stroke-linecap="round"/>
<path d="M77.5994 55.0515C77.578 54.9008 77.5487 54.7595 77.5114 54.6288C77.462 54.4288 77.39 54.2528 77.298 54.1155" stroke="black" stroke-width="0.627" stroke-miterlimit="10" stroke-linecap="round"/>
<path d="M77.7416 56.1669C77.7243 56.0243 77.7083 55.8789 77.6869 55.7283" stroke="black" stroke-width="0.627" stroke-miterlimit="10" stroke-linecap="round"/>
<path d="M80.3315 57.9425C80.3195 57.8958 80.3142 57.8678 80.3142 57.8678C80.3062 57.8678 80.3022 57.8718 80.2942 57.8718" stroke="black" stroke-width="0.627" stroke-miterlimit="10" stroke-linecap="round"/>
<path d="M74.5749 6.47782C74.6122 6.38582 75.2642 4.89516 76.3082 4.25516C76.4469 4.17249 76.7349 4.11782 77.1442 4.11382C79.9229 4.05516 88.3576 5.95515 94.5856 12.2978C95.5509 13.2792 96.5122 14.3072 97.4309 15.3552C98.1576 16.1778 98.8642 17.0138 99.5322 17.8538C102.152 21.1285 104.24 24.4338 104.988 27.0898C105.286 28.1312 105.372 29.0752 105.206 29.8765C104.37 33.9165 100.819 37.4298 97.5109 42.8992C95.1709 46.7632 90.8256 55.7778 88.3189 57.7298C85.9709 59.5552 81.9109 59.5178 81.0922 59.4218" stroke="black" stroke-width="0.627" stroke-miterlimit="10" stroke-linecap="round"/>
<path d="M63.9845 33.0811C63.9845 33.0811 65.0285 34.7518 66.9085 35.3785C68.0031 35.7425 72.3778 36.1811 76.4925 37.1625C78.2765 37.5891 80.0098 38.1198 81.4058 38.7878C82.3165 39.2225 83.0805 39.7198 83.6191 40.2878C87.7965 44.6745 86.8525 50.3265 85.7458 52.5411C83.9698 56.0918 80.4191 57.8331 80.4191 57.8331" stroke="black" stroke-width="0.627" stroke-miterlimit="10" stroke-linecap="round"/>
<path d="M47.1025 24.5837C47.4331 24.1824 47.7585 23.7651 48.0758 23.3304" stroke="black" stroke-width="0.627" stroke-miterlimit="10" stroke-linecap="round"/>
<path d="M35.3674 33.0812C35.3674 33.0812 41.9008 30.8212 47.0488 24.6425" stroke="black" stroke-width="0.627" stroke-miterlimit="10" stroke-linecap="round" stroke-linejoin="round"/>
<path d="M31.0854 34.9612C31.0854 34.9612 31.0734 34.8905 31.0521 34.7612C30.9014 33.9292 30.3334 30.6292 29.8948 26.8572C29.5854 24.1492 29.3388 21.2038 29.3681 18.7558C29.3934 16.6958 29.6108 14.9878 30.1454 14.0732C32.3388 10.3132 36.6214 10.9398 40.7988 8.43318C44.9761 5.92652 49.1534 1.33052 52.2868 0.703849C55.1694 0.127849 60.1788 1.58518 60.9561 1.81985C61.0228 1.84118 61.0601 1.85318 61.0601 1.85318" stroke="black" stroke-width="0.627" stroke-miterlimit="10"/>
<path d="M78.1885 12.4017C78.1885 12.4017 81.7391 28.0684 76.5178 37.0497" stroke="black" stroke-width="0.627" stroke-miterlimit="10" stroke-linecap="round"/>
<path d="M37.8156 54.9639C36.7582 55.0772 35.7476 54.9759 34.8196 54.7092C33.2289 54.2492 31.8876 53.2972 30.9929 52.0692C30.8342 51.8479 30.6889 51.6212 30.5596 51.3839C30.1836 50.7025 29.5729 49.1065 29.5609 47.4812C29.5516 46.8425 29.6396 46.1985 29.8742 45.6065C30.0662 45.0839 30.3716 44.6025 30.8142 44.1892C33.0782 42.0879 35.3422 43.8092 36.8929 44.1892C38.4422 44.5692 42.2569 43.9345 43.6142 46.6092C44.0196 47.4065 44.0822 48.3212 43.9316 49.2319C43.5769 51.3745 42.0262 53.5012 40.8982 54.0572C39.8622 54.5665 38.8356 54.8545 37.8449 54.9639" stroke="black" stroke-width="0.627" stroke-miterlimit="10"/>
<path d="M96.0146 92.5419C96.0146 92.5419 97.7319 94.1539 98.7346 97.9726C99.3479 100.305 99.6946 103.462 99.2186 107.582" stroke="black" stroke-width="0.627" stroke-miterlimit="10" stroke-linecap="round"/>
<path d="M143.36 41.5743C143.36 41.5743 128.12 54.513 142.963 75.3463C143.573 76.2076 144.241 77.081 144.96 77.9703C144.985 77.9996 145.007 78.029 145.031 78.0583" stroke="black" stroke-width="0.627" stroke-miterlimit="10" stroke-linecap="round"/>
<path d="M151.264 83.2465C151.264 83.2465 151.272 83.2465 151.29 83.2425C151.595 83.1879 154.858 82.6079 157.147 83.0039" stroke="black" stroke-width="0.627" stroke-miterlimit="10" stroke-linecap="round"/>
<path d="M47.0482 24.6423C46.9309 24.7637 46.8562 24.8303 46.8562 24.8303C46.8562 24.8303 46.4762 23.121 44.5922 22.3863C44.0149 22.157 43.2962 22.0223 42.4029 22.057C42.8789 19.9303 45.7696 17.6317 47.8416 19.2197C48.4309 19.6703 48.7229 20.185 48.8242 20.7117C48.8616 20.9077 48.8696 21.1037 48.8576 21.2997C48.7736 22.6783 47.6162 24.041 47.1029 24.5837C47.0816 24.605 47.0656 24.621 47.0482 24.6423Z" stroke="black" stroke-width="0.627" stroke-miterlimit="10" stroke-linecap="round" stroke-linejoin="round"/>
<path d="M16.7017 87.2028C17.4031 89.0534 18.2604 90.8294 19.2537 92.5121C20.4991 94.6268 21.9577 96.5988 23.6031 98.3948C24.6524 99.5441 25.7804 100.621 26.9711 101.62C33.0657 106.733 40.9244 109.808 49.5044 109.808C50.7284 109.808 51.9364 109.745 53.1311 109.624" stroke="black" stroke-width="0.627" stroke-miterlimit="10" stroke-linecap="round"/>
<path d="M37.8156 54.9638C36.6956 54.9638 35.5889 54.9051 34.7409 54.6625C33.1116 54.1998 32.1596 52.9505 30.9929 52.0691C30.7676 51.8931 30.5342 51.7345 30.2876 51.6011C30.2129 51.5585 30.1289 51.5211 30.0369 51.4838C29.9609 51.4545 29.8822 51.4251 29.7982 51.3998C29.7902 51.3958 29.7862 51.3958 29.7782 51.3918C29.6942 51.3665 29.6062 51.3411 29.5182 51.3211C28.4236 51.0411 26.8449 50.9945 25.0782 50.6185C24.9436 50.5945 24.8142 50.5651 24.6849 50.5358C24.5262 50.4931 24.3676 50.4558 24.2049 50.4105C18.1436 56.7185 14.4129 65.2785 14.4129 74.7158C14.4129 79.1105 15.2182 83.3171 16.6969 87.1945" stroke="black" stroke-width="0.627" stroke-miterlimit="10" stroke-linecap="round"/>
<path d="M72.0641 49.9297C70.8107 49.7923 68.4414 50.7657 67.3267 50.4857C66.2147 50.2097 67.1174 48.3963 65.7267 48.3297C64.7161 48.275 64.8281 49.9003 63.7094 49.9297C63.1161 49.947 62.1921 50.1217 61.0894 50.3937C57.1534 51.363 50.9041 53.5643 48.9454 54.107C46.4387 54.8043 43.3761 55.0803 41.7054 54.943C40.7654 54.863 39.2987 54.9643 37.8454 54.9643" stroke="black" stroke-width="0.627" stroke-miterlimit="10" stroke-linecap="round"/>
<path d="M53.1309 109.624C54.8149 109.454 56.4602 109.16 58.0602 108.759C58.1362 108.739 58.2109 108.718 58.2816 108.702C58.6616 108.596 58.9002 108.534 58.9629 108.518C59.9282 108.25 60.8762 107.936 61.8082 107.59C75.1176 102.606 84.9749 89.7683 84.9749 74.7163C84.9749 69.2309 83.1802 64.0456 81.8469 59.4216V59.4176C81.8469 59.4136 80.9056 58.3349 80.7096 57.9429C80.6922 57.9136 80.4909 57.8923 80.4829 57.8709C80.4789 57.8629 80.3802 57.8589 80.3762 57.8509C79.5242 57.9709 78.4616 57.7843 78.0269 57.0323C78.0016 56.9856 77.9576 56.9403 77.9362 56.8936C77.8576 56.7056 77.7949 56.4509 77.7536 56.1669C77.7322 56.0243 77.7096 55.8789 77.6936 55.7283C77.6682 55.5029 77.6402 55.2683 77.6029 55.0509C77.5776 54.9016 77.5469 54.7589 77.5136 54.6296C77.4589 54.4296 77.3909 54.2536 77.2989 54.1163C77.2362 54.0243 77.1656 53.9523 77.0776 53.8989C76.3802 53.4803 74.3616 53.8989 73.6642 53.0629C72.9749 52.2403 73.3096 50.1216 72.1096 49.9376" stroke="black" stroke-miterlimit="10" stroke-linecap="round"/>
<path d="M42.9812 14.7013C42.8638 14.7013 42.7465 14.652 42.6652 14.5573C42.5145 14.3826 42.5332 14.12 42.7065 13.9693C43.4118 13.356 45.1825 12.5 46.8372 13.64C47.0265 13.7706 47.0745 14.032 46.9438 14.2213C46.8118 14.4106 46.5518 14.4586 46.3625 14.328C44.8318 13.2733 43.3172 14.5453 43.2532 14.6C43.1745 14.668 43.0772 14.7013 42.9812 14.7013Z" fill="black"/>
<path d="M68.2652 19.173C68.1065 19.173 67.9545 19.0823 67.8838 18.9276C67.5732 18.2436 67.1505 17.8036 66.6278 17.621C65.8078 17.3356 64.9758 17.7556 64.9665 17.761C64.7625 17.8663 64.5105 17.7863 64.4052 17.581C64.2985 17.377 64.3772 17.1263 64.5812 17.0196C64.6278 16.9956 65.7318 16.4303 66.8918 16.829C67.6438 17.0876 68.2345 17.677 68.6452 18.5823C68.7412 18.793 68.6478 19.041 68.4372 19.1356C68.3812 19.161 68.3225 19.173 68.2652 19.173Z" fill="black"/>
<path d="M65.7489 22.7556C67.2222 23.8529 67.6609 25.8302 67.3916 27.0222C65.9156 26.5262 64.4916 26.5196 63.1822 26.7502C66.6502 25.3116 65.7902 22.8689 65.7489 22.7556Z" fill="#D1D3D4"/>
<path d="M65.1802 22.7556C65.1802 22.8689 66.3655 25.3116 62.8975 26.7502C62.8935 26.7502 63.0322 26.7502 63.0282 26.7542C61.4602 27.0302 60.1268 27.6476 58.9842 28.1809C58.1242 27.4009 57.9362 22.5249 62.0708 22.0022C63.5282 21.8169 65.1802 22.1569 65.1802 22.7516V22.7556Z" fill="white"/>
<path d="M65.7489 22.7556C67.2222 23.8529 67.6609 25.8302 67.3916 27.0222C65.9156 26.5262 64.4916 26.5196 63.1822 26.7502" stroke="black" stroke-width="0.627" stroke-miterlimit="10" stroke-linejoin="round"/>
<path d="M63.1705 26.7539C61.6025 27.0299 60.1985 27.6472 59.0545 28.1819C58.1958 27.4019 58.2558 22.5246 62.3905 22.0019C63.8478 21.8166 64.9505 22.1579 65.7491 22.7526" stroke="black" stroke-width="0.627" stroke-miterlimit="10" stroke-linejoin="round"/>
<path d="M62.9681 24.5201H62.9441C62.1307 24.5201 61.4614 25.4361 61.4481 26.2534C61.4441 26.4801 61.4947 26.9241 61.5987 27.1401C61.6334 27.2147 61.7081 27.2787 61.7867 27.2787C61.8067 27.2787 61.8281 27.2627 61.8481 27.2561C62.6667 27.0054 63.4707 26.8347 64.2387 26.7841C64.3347 26.7774 64.4187 26.6307 64.4347 26.5334C64.4387 26.5121 64.4414 26.3214 64.4414 26.2987C64.4547 25.4734 63.7934 24.5201 62.9681 24.5201Z" fill="black"/>
<path d="M47.0997 22.6448C47.0504 22.2435 46.8584 21.9221 46.5437 21.7115C46.2544 21.5195 45.8757 21.4408 45.4744 21.4875C44.909 21.5568 44.633 21.9448 44.457 22.2741C44.4277 22.3275 44.4237 22.3901 44.445 22.4461C44.4664 22.5021 44.5117 22.5475 44.5677 22.5688C45.649 22.9755 46.037 23.5021 46.2544 23.9168C46.2837 23.9701 46.3344 24.0101 46.3944 24.0235C46.409 24.0261 46.425 24.0275 46.4397 24.0275C46.485 24.0275 46.529 24.0128 46.5664 23.9848C46.977 23.6741 47.1664 23.1981 47.0997 22.6448" fill="black"/>
<path d="M37.3342 54.8781C37.3316 54.8888 37.3182 54.8888 37.3169 54.8768C37.3009 54.4315 37.2062 51.2915 37.7902 50.8941C38.4196 50.4688 38.9422 51.3941 39.0062 52.1995C39.0702 52.9968 37.8089 53.2795 37.3342 54.8781Z" fill="black"/>
<path d="M37.3342 54.8781C37.3316 54.8888 37.3182 54.8888 37.3169 54.8768C37.3009 54.4315 37.2062 51.2915 37.7902 50.8941C38.4196 50.4688 38.9422 51.3941 39.0062 52.1995C39.0702 52.9968 37.8089 53.2795 37.3342 54.8781Z" stroke="black" stroke-width="0.254" stroke-miterlimit="10"/>
<path d="M38.1072 50.8911C38.0232 50.8911 37.9378 50.9205 37.8485 50.9818C37.5005 51.2178 37.3805 52.7858 37.4085 54.3804C37.6792 53.7858 38.0552 53.4071 38.3698 53.0911C38.6938 52.7671 38.9285 52.5324 38.9018 52.2084C38.8565 51.6298 38.5872 51.0818 38.2765 50.9324C38.2205 50.9044 38.1645 50.8911 38.1072 50.8911ZM37.8632 54.7991L37.8472 54.9778V54.8804C37.8472 54.0284 37.4445 51.2178 38.0485 50.8084C38.2578 50.6671 38.3178 50.6444 38.5258 50.7431C38.9552 50.9498 39.1458 51.6284 39.1898 52.1911C39.2232 52.6111 39.0272 52.7084 38.6912 53.0444C38.3178 53.4204 37.7072 54.5204 37.7072 54.5204H37.7405L37.8632 54.7991Z" fill="black"/>
<path d="M38.1072 50.8911C38.0232 50.8911 37.9378 50.9205 37.8485 50.9818C37.5005 51.2178 37.3805 52.7858 37.4085 54.3804C37.6792 53.7858 38.0552 53.4071 38.3698 53.0911C38.6938 52.7671 38.9285 52.5324 38.9018 52.2084C38.8565 51.6298 38.5872 51.0818 38.2765 50.9324C38.2205 50.9044 38.1645 50.8911 38.1072 50.8911ZM37.8632 54.7991L37.8472 54.9778V54.8804C37.8472 54.0284 37.4445 51.2178 38.0485 50.8084C38.2578 50.6671 38.3178 50.6444 38.5258 50.7431C38.9552 50.9498 39.1458 51.6284 39.1898 52.1911C39.2232 52.6111 39.0272 52.7084 38.6912 53.0444C38.3178 53.4204 37.7072 54.5204 37.7072 54.5204H37.7405L37.8632 54.7991Z" stroke="black" stroke-miterlimit="10"/>
<path d="M32.9268 53.5348C32.9268 53.5454 32.9402 53.5494 32.9428 53.5388C33.0815 53.1188 34.0362 50.1508 33.5868 49.5854C33.1042 48.9748 32.3495 49.6908 32.0668 50.4388C31.7868 51.1801 32.9135 51.8548 32.9268 53.5348Z" fill="black"/>
<path d="M32.9268 53.5348C32.9268 53.5454 32.9402 53.5494 32.9428 53.5388C33.0815 53.1188 34.0362 50.1508 33.5868 49.5854C33.1042 48.9748 32.3495 49.6908 32.0668 50.4388C31.7868 51.1801 32.9135 51.8548 32.9268 53.5348Z" stroke="black" stroke-width="0.254" stroke-miterlimit="10"/>
<path d="M33.1624 49.4595C33.1411 49.4595 33.1184 49.4609 33.0958 49.4649C32.7624 49.5169 32.3624 49.9515 32.1651 50.4755C32.0504 50.7782 32.2104 51.0782 32.4304 51.4942C32.6438 51.8969 32.8998 52.3782 32.9944 53.0342C33.4584 51.5222 33.7731 49.9875 33.5051 49.6502C33.4051 49.5222 33.2918 49.4595 33.1624 49.4595ZM33.0144 53.6555L32.8304 53.6355L32.8224 53.5355C32.8158 52.6649 32.4998 52.0702 32.2464 51.5915C32.0091 51.1449 31.8224 50.7929 31.9691 50.4022C32.1638 49.8889 32.6011 49.3302 33.0638 49.2582C33.2251 49.2329 33.4611 49.2582 33.6691 49.5195C34.1318 50.1035 33.3064 52.7689 33.0424 53.5715L33.0144 53.6555Z" fill="black"/>
<path d="M33.1624 49.4595C33.1411 49.4595 33.1184 49.4609 33.0958 49.4649C32.7624 49.5169 32.3624 49.9515 32.1651 50.4755C32.0504 50.7782 32.2104 51.0782 32.4304 51.4942C32.6438 51.8969 32.8998 52.3782 32.9944 53.0342C33.4584 51.5222 33.7731 49.9875 33.5051 49.6502C33.4051 49.5222 33.2918 49.4595 33.1624 49.4595ZM33.0144 53.6555L32.8304 53.6355L32.8224 53.5355C32.8158 52.6649 32.4998 52.0702 32.2464 51.5915C32.0091 51.1449 31.8224 50.7929 31.9691 50.4022C32.1638 49.8889 32.6011 49.3302 33.0638 49.2582C33.2251 49.2329 33.4611 49.2582 33.6691 49.5195C34.1318 50.1035 33.3064 52.7689 33.0424 53.5715L33.0144 53.6555Z" stroke="black" stroke-width="0.254" stroke-miterlimit="10"/>
<path d="M51.473 47.7085C51.473 47.9485 51.2783 48.1432 51.0383 48.1432C50.7997 48.1432 50.605 47.9485 50.605 47.7085C50.605 47.4685 50.7997 47.2739 51.0383 47.2739C51.2783 47.2739 51.473 47.4685 51.473 47.7085Z" fill="black"/>
<path d="M51.039 47.3266C50.8283 47.3266 50.6577 47.4986 50.6577 47.7079C50.6577 47.9186 50.8283 48.0906 51.039 48.0906C51.2497 48.0906 51.4203 47.9186 51.4203 47.7079C51.4203 47.4986 51.2497 47.3266 51.039 47.3266ZM51.039 48.1946C50.771 48.1946 50.5523 47.9772 50.5523 47.7079C50.5523 47.4399 50.771 47.2226 51.039 47.2226C51.307 47.2226 51.5257 47.4399 51.5257 47.7079C51.5257 47.9772 51.307 48.1946 51.039 48.1946Z" fill="black"/>
<path d="M55.5533 42.6408C55.5533 42.8808 55.3586 43.0754 55.1186 43.0754C54.8799 43.0754 54.6853 42.8808 54.6853 42.6408C54.6853 42.4008 54.8799 42.2061 55.1186 42.2061C55.3586 42.2061 55.5533 42.4008 55.5533 42.6408Z" fill="black"/>
<path d="M55.1191 42.2589C54.9085 42.2589 54.7378 42.4309 54.7378 42.6402C54.7378 42.8509 54.9085 43.0229 55.1191 43.0229C55.3298 43.0229 55.5005 42.8509 55.5005 42.6402C55.5005 42.4309 55.3298 42.2589 55.1191 42.2589ZM55.1191 43.1269C54.8511 43.1269 54.6325 42.9082 54.6325 42.6402C54.6325 42.3722 54.8511 42.1549 55.1191 42.1549C55.3871 42.1549 55.6058 42.3722 55.6058 42.6402C55.6058 42.9082 55.3871 43.1269 55.1191 43.1269Z" fill="black"/>
<path d="M60.9573 46.4282C60.9573 46.6682 60.7626 46.8629 60.5226 46.8629C60.2839 46.8629 60.0893 46.6682 60.0893 46.4282C60.0893 46.1882 60.2839 45.9936 60.5226 45.9936C60.7626 45.9936 60.9573 46.1882 60.9573 46.4282Z" fill="black"/>
<path d="M60.5233 46.0463C60.3126 46.0463 60.1419 46.2183 60.1419 46.4276C60.1419 46.6383 60.3126 46.8103 60.5233 46.8103C60.7339 46.8103 60.9046 46.6383 60.9046 46.4276C60.9046 46.2183 60.7339 46.0463 60.5233 46.0463ZM60.5233 46.9143C60.2553 46.9143 60.0366 46.697 60.0366 46.4276C60.0366 46.1596 60.2553 45.9423 60.5233 45.9423C60.7913 45.9423 61.0099 46.1596 61.0099 46.4276C61.0099 46.697 60.7913 46.9143 60.5233 46.9143Z" fill="black"/>
<path d="M5.28955 101.208C5.28955 101.208 5.06822 101.411 4.80155 101.767C4.53088 102.118 4.22155 102.622 4.01622 103.16C3.90955 103.427 3.83222 103.702 3.77888 103.962C3.74555 104.088 3.73488 104.216 3.71755 104.335C3.69755 104.454 3.69088 104.567 3.68955 104.671C3.67355 104.879 3.68422 105.051 3.69355 105.171C3.69888 105.29 3.70288 105.359 3.70288 105.359L2.86688 105.364C2.86688 105.364 2.87755 105.284 2.89355 105.144C2.90822 105.003 2.93355 104.804 2.99222 104.57C3.01488 104.452 3.04555 104.327 3.09088 104.198C3.13355 104.067 3.17088 103.93 3.23222 103.794C3.34155 103.519 3.47888 103.236 3.64288 102.974C3.96155 102.442 4.37088 101.983 4.70422 101.679C5.03622 101.37 5.28955 101.208 5.28955 101.208Z" fill="black"/>
<path d="M9.46728 102.462C9.46728 102.462 9.24595 102.664 8.97928 103.02C8.70862 103.37 8.39928 103.875 8.19395 104.414C8.08728 104.68 8.00995 104.955 7.95662 105.214C7.92328 105.342 7.91262 105.47 7.89528 105.588C7.87528 105.707 7.86862 105.82 7.86728 105.924C7.85128 106.132 7.86195 106.304 7.87128 106.424C7.87662 106.543 7.88062 106.612 7.88062 106.612L7.04462 106.618L7.07128 106.398C7.08595 106.256 7.11128 106.058 7.16995 105.823C7.19262 105.706 7.22328 105.58 7.26862 105.451C7.31128 105.32 7.34862 105.183 7.40995 105.047C7.51928 104.772 7.65662 104.49 7.82062 104.227C8.13928 103.695 8.54862 103.236 8.88195 102.932C9.21395 102.623 9.46728 102.462 9.46728 102.462Z" fill="black"/>
<path d="M28.6845 126.274C28.6845 126.274 28.4632 126.477 28.1965 126.833C27.9258 127.182 27.6165 127.688 27.4112 128.226C27.3045 128.493 27.2272 128.768 27.1738 129.028C27.1405 129.154 27.1298 129.282 27.1125 129.401C27.0938 129.52 27.0858 129.633 27.0845 129.737C27.0685 129.945 27.0792 130.117 27.0885 130.237C27.0938 130.356 27.0978 130.425 27.0978 130.425L26.2618 130.43C26.2618 130.43 26.2725 130.35 26.2885 130.21C26.3032 130.069 26.3285 129.87 26.3872 129.636C26.4098 129.518 26.4405 129.393 26.4858 129.264C26.5285 129.133 26.5658 128.996 26.6272 128.86C26.7365 128.585 26.8738 128.302 27.0378 128.04C27.3565 127.508 27.7658 127.049 28.0992 126.745C28.4312 126.436 28.6845 126.274 28.6845 126.274Z" fill="black"/>
<path d="M33.6977 127.528C33.6977 127.528 33.4764 127.73 33.2097 128.086C32.939 128.436 32.6297 128.941 32.4244 129.48C32.3177 129.746 32.2404 130.021 32.187 130.28C32.1537 130.408 32.143 130.536 32.1257 130.654C32.107 130.773 32.099 130.886 32.0977 130.99C32.083 131.198 32.0924 131.37 32.1017 131.49C32.107 131.609 32.111 131.678 32.111 131.678L31.275 131.684C31.275 131.684 31.2857 131.604 31.3017 131.464C31.3164 131.322 31.3417 131.124 31.4004 130.889C31.423 130.772 31.4537 130.646 31.499 130.517C31.5417 130.386 31.579 130.249 31.6404 130.113C31.7497 129.838 31.887 129.556 32.051 129.293C32.3697 128.76 32.779 128.302 33.1124 127.998C33.4444 127.689 33.6977 127.528 33.6977 127.528Z" fill="black"/>
<path d="M136.886 92.0175C136.886 92.0175 136.665 92.2201 136.398 92.5761C136.127 92.9268 135.818 93.4308 135.613 93.9695C135.506 94.2361 135.429 94.5108 135.375 94.7708C135.342 94.8975 135.331 95.0255 135.314 95.1441C135.295 95.2628 135.287 95.3761 135.286 95.4801C135.271 95.6881 135.281 95.8601 135.29 95.9801C135.295 96.0988 135.299 96.1681 135.299 96.1681L134.463 96.1735C134.463 96.1735 134.474 96.0935 134.49 95.9535C134.505 95.8121 134.53 95.6135 134.589 95.3788C134.611 95.2615 134.642 95.1361 134.687 95.0068C134.73 94.8761 134.767 94.7388 134.829 94.6028C134.938 94.3281 135.075 94.0455 135.239 93.7828C135.558 93.2508 135.967 92.7921 136.301 92.4881C136.633 92.1788 136.886 92.0175 136.886 92.0175Z" fill="black"/>
<path d="M140.646 92.8529C140.646 92.8529 140.424 93.0556 140.158 93.4116C139.887 93.7622 139.578 94.2662 139.372 94.8049C139.266 95.0716 139.188 95.3462 139.135 95.6062C139.102 95.7329 139.091 95.8609 139.074 95.9796C139.054 96.0982 139.047 96.2116 139.046 96.3156C139.03 96.5236 139.04 96.6956 139.05 96.8156C139.055 96.9342 139.059 97.0036 139.059 97.0036L138.223 97.0089C138.223 97.0089 138.234 96.9289 138.25 96.7889C138.264 96.6476 138.29 96.4489 138.348 96.2142C138.371 96.0969 138.402 95.9716 138.447 95.8422C138.49 95.7116 138.527 95.5742 138.588 95.4382C138.698 95.1636 138.835 94.8809 138.999 94.6182C139.318 94.0862 139.727 93.6276 140.06 93.3236C140.392 93.0142 140.646 92.8529 140.646 92.8529Z" fill="black"/>
<path d="M27.2425 46.8731C27.2425 47.1131 27.0478 47.3077 26.8078 47.3077C26.5691 47.3077 26.3745 47.1131 26.3745 46.8731C26.3745 46.6331 26.5691 46.4384 26.8078 46.4384C27.0478 46.4384 27.2425 46.6331 27.2425 46.8731Z" fill="black"/>
<path d="M26.8085 46.491C26.5978 46.491 26.4272 46.663 26.4272 46.8723C26.4272 47.083 26.5978 47.255 26.8085 47.255C27.0192 47.255 27.1898 47.083 27.1898 46.8723C27.1898 46.663 27.0192 46.491 26.8085 46.491ZM26.8085 47.359C26.5405 47.359 26.3218 47.1403 26.3218 46.8723C26.3218 46.6043 26.5405 46.387 26.8085 46.387C27.0765 46.387 27.2952 46.6043 27.2952 46.8723C27.2952 47.1403 27.0765 47.359 26.8085 47.359Z" fill="black"/>
<path d="M24.3183 43.1131C24.3183 43.3531 24.1236 43.5478 23.8836 43.5478C23.6449 43.5478 23.4503 43.3531 23.4503 43.1131C23.4503 42.8731 23.6449 42.6785 23.8836 42.6785C24.1236 42.6785 24.3183 42.8731 24.3183 43.1131Z" fill="black"/>
<path d="M23.8841 42.7312C23.6734 42.7312 23.5027 42.9032 23.5027 43.1126C23.5027 43.3232 23.6734 43.4952 23.8841 43.4952C24.0947 43.4952 24.2654 43.3232 24.2654 43.1126C24.2654 42.9032 24.0947 42.7312 23.8841 42.7312ZM23.8841 43.5992C23.6161 43.5992 23.3974 43.3806 23.3974 43.1126C23.3974 42.8446 23.6161 42.6272 23.8841 42.6272C24.1521 42.6272 24.3707 42.8446 24.3707 43.1126C24.3707 43.3806 24.1521 43.5992 23.8841 43.5992Z" fill="black"/>
<path d="M24.0097 67.7806C24.0097 67.7806 23.9964 67.8153 23.967 67.8766C23.935 67.938 23.8884 68.03 23.7964 68.1353C23.715 68.2406 23.539 68.362 23.3257 68.3766C23.2244 68.3886 23.1177 68.3846 23.035 68.4006C22.9497 68.4193 22.9124 68.4486 22.8724 68.5246C22.747 68.838 22.715 69.5713 23.0044 69.934C23.0244 69.9486 23.043 69.9646 23.0604 69.982C23.0817 69.9913 23.103 70.0006 23.1217 70.014C23.1457 70.018 23.1684 69.9353 23.191 69.9433C23.2124 69.9473 23.167 69.854 23.175 69.854H23.183L23.199 69.9433L23.2324 69.99L23.299 70.0166C23.3924 70.0113 23.5524 69.99 23.699 69.9273C23.851 69.8673 24.007 69.7886 24.1684 69.6913C24.3337 69.594 24.4857 69.486 24.7044 69.37L24.803 69.3286L24.879 69.306C24.9084 69.3006 24.9177 69.2926 24.9857 69.2913C25.0337 69.29 25.115 69.306 25.1324 69.3113L25.1697 69.3233L25.2444 69.3473C25.343 69.378 25.4444 69.41 25.5457 69.442C25.7497 69.506 25.9577 69.5713 26.1697 69.6393C26.5937 69.774 27.0284 69.926 27.4737 70.086C28.3644 70.4086 29.283 70.8073 30.227 71.2353C30.6964 71.4566 31.171 71.682 31.643 71.9513C31.7604 72.0206 31.875 72.0993 31.991 72.182L32.1604 72.3433L32.275 72.514C32.427 72.7486 32.5457 72.9926 32.6737 73.2286C32.8017 73.4633 32.931 73.6993 33.115 73.85C33.2097 73.9246 33.307 73.9673 33.4324 73.9873C33.543 74.0046 33.659 73.998 33.771 73.9646C33.9937 73.8953 34.1844 73.7246 34.267 73.522C34.3097 73.4246 34.323 73.3086 34.3097 73.2206C34.3044 73.222 34.2737 73.1393 34.2444 73.0886C34.215 73.0286 34.1804 72.966 34.1497 72.8913C34.1217 72.814 34.0777 72.738 34.091 72.5806C34.1017 72.5366 34.111 72.494 34.1417 72.4486L34.1644 72.4166L34.1884 72.3913L34.2057 72.3726C34.2657 72.3206 34.3084 72.2966 34.3444 72.2766C34.4937 72.1966 34.6217 72.1526 34.7364 72.098C34.7924 72.0726 34.8444 72.0446 34.8804 72.0193C34.895 72.01 34.9177 71.9886 34.9097 71.9953L34.9777 71.918C35.015 71.8606 35.0564 71.77 35.0657 71.6806C35.1297 71.3166 34.7977 70.8753 34.435 70.7833C34.0737 70.6793 33.5924 70.842 33.1644 71.0713C33.0564 71.13 32.9484 71.19 32.8404 71.2566L32.8004 71.282C32.6444 71.3513 32.751 71.3033 32.7124 71.3193L32.7004 71.3233L32.6777 71.33C32.615 71.346 32.479 71.354 32.427 71.346C32.339 71.3366 32.259 71.3233 32.1897 71.3086C31.903 71.2473 31.6524 71.17 31.4004 71.09C30.4004 70.7633 29.475 70.382 28.6097 69.9846C27.7417 69.5873 26.9404 69.1873 26.2137 68.7286C26.027 68.5993 25.8657 68.51 25.6617 68.278C25.5164 68.074 25.435 67.8953 25.351 67.71C25.271 67.53 25.2084 67.3593 25.143 67.2246C25.075 67.0926 25.0044 66.9966 24.899 66.9246C24.4404 66.6153 23.803 66.6526 23.519 66.906C23.5004 66.922 23.4857 66.9393 23.4684 66.9553C23.4697 66.95 23.4404 66.9966 23.4297 67.0113C23.423 67.03 23.4084 67.0633 23.4057 67.106C23.3977 67.1873 23.415 67.2806 23.4364 67.3673C23.4804 67.542 23.531 67.7006 23.5484 67.8353C23.5684 67.97 23.5577 68.078 23.547 68.1473C23.5284 68.2153 23.519 68.2513 23.519 68.2513L23.4457 68.2313C23.4457 68.2313 23.4484 68.1993 23.4537 68.138C23.4524 68.0753 23.4457 67.9833 23.4084 67.866C23.3724 67.7486 23.3084 67.61 23.2337 67.4313C23.199 67.342 23.1604 67.238 23.151 67.1046C23.147 67.0406 23.1537 66.9646 23.187 66.8766C23.2044 66.8433 23.203 66.838 23.235 66.7846C23.2564 66.7553 23.2764 66.7246 23.3004 66.698C23.4924 66.474 23.7924 66.3473 24.1164 66.31C24.4444 66.278 24.7964 66.318 25.1577 66.5086C25.3417 66.606 25.5044 66.7793 25.6124 66.954C25.723 67.1286 25.799 67.298 25.883 67.454C25.963 67.606 26.0617 67.7713 26.1537 67.8806C26.2137 67.942 26.4044 68.0633 26.5657 68.1526C27.2537 68.5366 28.0724 68.8913 28.9284 69.262C29.7897 69.6206 30.703 70.0046 31.651 70.3473C31.8857 70.43 32.1297 70.514 32.3524 70.5686C32.4097 70.5833 32.459 70.5926 32.5017 70.5993C32.515 70.5966 32.4444 70.6046 32.4484 70.6193L32.4724 70.6126L32.4844 70.61C32.4537 70.6246 32.5684 70.574 32.419 70.6406L32.4644 70.6153C32.583 70.5473 32.7084 70.4833 32.8337 70.4206C33.091 70.298 33.3604 70.1846 33.663 70.1193C33.9617 70.0526 34.307 70.0313 34.6457 70.15C34.9764 70.2713 35.2484 70.5046 35.4257 70.79C35.6057 71.0726 35.7004 71.4326 35.6217 71.7926C35.579 71.9726 35.4977 72.1353 35.3564 72.2873L35.2817 72.3566C35.223 72.4113 35.1897 72.4286 35.1457 72.4553C35.0644 72.5006 34.991 72.5286 34.9204 72.554C34.7817 72.6033 34.6457 72.6393 34.5497 72.6806C34.523 72.6913 34.5084 72.7033 34.5124 72.6926L34.4924 72.71C34.4964 72.706 34.4697 72.7313 34.499 72.702L34.507 72.6913C34.515 72.674 34.519 72.666 34.519 72.654C34.5164 72.6353 34.5177 72.6926 34.5364 72.7433C34.5537 72.798 34.5804 72.858 34.607 72.9233C34.6337 72.9966 34.6617 73.0406 34.687 73.1753C34.7004 73.3606 34.6577 73.522 34.5817 73.6713C34.4284 73.966 34.1497 74.1646 33.8444 74.2366C33.539 74.3126 33.1924 74.2486 32.959 74.0393C32.7257 73.8326 32.5964 73.5753 32.471 73.338C32.3484 73.0953 32.219 72.8606 32.0777 72.6486L31.9644 72.4886L31.839 72.378C31.7364 72.3126 31.6257 72.2473 31.5124 72.1886C31.0524 71.9513 30.5537 71.7846 30.0737 71.6126C29.107 71.2753 28.151 71.006 27.2577 70.7126C26.811 70.5646 26.3777 70.4193 25.9577 70.2793C25.7484 70.2073 25.543 70.1366 25.3404 70.0673C25.2377 70.0326 25.1364 69.998 25.0364 69.9646L24.9617 69.9393L24.9257 69.926C24.9177 69.926 24.971 69.9433 24.9937 69.9393C25.035 69.934 25.0204 69.9366 25.0244 69.9366L25.0257 69.9353L24.983 69.9526C24.6684 70.11 24.2937 70.354 23.899 70.486C23.6964 70.5526 23.4924 70.6046 23.2297 70.5806L23.075 70.554C23.015 70.534 22.955 70.5126 22.8977 70.4886C22.843 70.4553 22.7897 70.422 22.7404 70.3846C22.6977 70.3433 22.655 70.3006 22.6164 70.2566C22.3484 69.8793 22.359 69.5126 22.3684 69.2033C22.3964 68.894 22.4377 68.6073 22.6084 68.3486C22.6924 68.2153 22.8777 68.13 23.007 68.1353C23.1377 68.1313 23.231 68.1513 23.3164 68.1526C23.483 68.1646 23.595 68.1033 23.691 68.0273C23.7857 67.9526 23.8457 67.8766 23.8857 67.826C23.9257 67.7753 23.9417 67.7473 23.9417 67.7473L24.0097 67.7806Z" fill="white"/>
<path d="M33.9743 94.072C33.9743 94.072 33.9929 94.104 34.0209 94.1667C34.0476 94.2307 34.0876 94.3254 34.1103 94.4627C34.1383 94.592 34.1196 94.8067 33.9943 94.9787C33.9383 95.064 33.8676 95.144 33.8263 95.2187C33.7863 95.2947 33.7849 95.3427 33.8183 95.4214C33.9783 95.72 34.5223 96.2134 34.9849 96.2227C35.0089 96.2174 35.0329 96.212 35.0583 96.2107C35.0796 96.2 35.0996 96.1907 35.1209 96.184C35.1396 96.168 35.1583 96.1534 35.1796 96.1414C35.1956 96.128 35.1609 96.1587 35.1663 96.152L35.1729 96.1467L35.1836 96.1347L35.2076 96.112L35.2543 96.064C35.3103 95.988 35.3863 95.844 35.4343 95.692C35.4836 95.5374 35.5196 95.3627 35.5476 95.176C35.5783 94.9867 35.5903 94.8 35.6423 94.5574L35.6716 94.4547L35.7036 94.3814C35.7183 94.3547 35.7169 94.3414 35.7596 94.2894C35.7889 94.2507 35.8529 94.2 35.8689 94.1907L35.9023 94.1694L35.9676 94.1267C36.0556 94.0707 36.1436 94.0134 36.2329 93.956C36.4143 93.84 36.5983 93.7214 36.7849 93.6014C37.1596 93.3627 37.5543 93.1254 37.9623 92.8854C38.7809 92.4094 39.6756 91.9587 40.6076 91.5067C41.0783 91.288 41.5556 91.0667 42.0649 90.8774C42.1943 90.832 42.3263 90.7934 42.4649 90.7587L42.6969 90.732L42.9009 90.752C43.1796 90.7854 43.4423 90.852 43.7063 90.904C43.9676 90.956 44.2316 91.0067 44.4663 90.9627C44.5836 90.9374 44.6796 90.8894 44.7756 90.8067C44.8596 90.7334 44.9276 90.6387 44.9743 90.5307C45.0623 90.316 45.0543 90.06 44.9516 89.8667C44.9036 89.772 44.8236 89.688 44.7476 89.6427C44.7449 89.6454 44.6623 89.6174 44.6036 89.6067C44.5396 89.592 44.4689 89.5774 44.3916 89.5547C44.3143 89.5267 44.2276 89.5107 44.1156 89.3987C44.0876 89.364 44.0623 89.328 44.0463 89.276L44.0369 89.2387L44.0316 89.204L44.0289 89.1774C44.0276 89.1 44.0369 89.0507 44.0436 89.0107C44.0783 88.844 44.1263 88.7187 44.1583 88.596C44.1743 88.536 44.1863 88.4774 44.1903 88.4334C44.1916 88.416 44.1903 88.3854 44.1889 88.396L44.1743 88.2947C44.1529 88.2294 44.1103 88.1387 44.0489 88.076C43.8089 87.7934 43.2583 87.7654 42.9543 87.9854C42.6436 88.196 42.4609 88.6694 42.3623 89.1454C42.3383 89.2667 42.3156 89.388 42.2983 89.5134L42.2916 89.56C42.2463 89.724 42.2756 89.612 42.2649 89.652L42.2596 89.6627L42.2489 89.6854C42.2223 89.744 42.1409 89.8534 42.1023 89.888C42.0383 89.9494 41.9769 90.0027 41.9209 90.0454C41.6916 90.228 41.4703 90.3694 41.2476 90.5134C40.3569 91.072 39.4716 91.5387 38.6116 91.9494C37.7516 92.3614 36.9316 92.7214 36.1129 92.9854C35.8956 93.0467 35.7236 93.1134 35.4143 93.1214C35.1636 93.1014 34.9756 93.0507 34.7783 92.9974C34.5889 92.9427 34.4183 92.8814 34.2729 92.8467C34.1276 92.8134 34.0089 92.8067 33.8849 92.8414C33.3556 92.996 32.9756 93.508 32.9876 93.8894C32.9876 93.9134 32.9929 93.936 32.9943 93.9587C32.9903 93.956 33.0076 94.008 33.0129 94.0254C33.0223 94.0414 33.0383 94.0747 33.0689 94.104C33.1276 94.1614 33.2089 94.208 33.2889 94.248C33.4516 94.3254 33.6063 94.388 33.7209 94.4614C33.8369 94.532 33.9129 94.6094 33.9596 94.6627C34.0009 94.72 34.0223 94.7507 34.0223 94.7507L33.9596 94.7934C33.9596 94.7934 33.9369 94.7707 33.8929 94.7267C33.8436 94.688 33.7689 94.6347 33.6543 94.5894C33.5409 94.5414 33.3943 94.5027 33.2103 94.444C33.1183 94.4134 33.0143 94.3774 32.9063 94.2987C32.8529 94.2614 32.7996 94.2067 32.7529 94.1254C32.7383 94.0894 32.7329 94.088 32.7129 94.0294C32.7049 93.9947 32.6943 93.9587 32.6876 93.924C32.6383 93.6334 32.7329 93.3214 32.9129 93.0494C33.0983 92.776 33.3543 92.5307 33.7316 92.376C33.9236 92.2974 34.1609 92.2827 34.3649 92.3107C34.5703 92.3374 34.7476 92.388 34.9223 92.424C35.0903 92.46 35.2809 92.4894 35.4236 92.4894C35.5089 92.4814 35.7236 92.4134 35.8956 92.3467C36.6316 92.0627 37.4289 91.6614 38.2609 91.2414C39.0876 90.8094 39.9676 90.3534 40.8369 89.844C41.0516 89.7174 41.2716 89.584 41.4569 89.448C41.5049 89.4134 41.5436 89.3814 41.5756 89.352C41.5823 89.3414 41.5436 89.4 41.5569 89.4067L41.5676 89.384L41.5729 89.3734C41.5649 89.4054 41.5996 89.2854 41.5556 89.4427L41.5649 89.392C41.5889 89.256 41.6196 89.12 41.6516 88.9827C41.7223 88.708 41.8076 88.428 41.9503 88.1534C42.0916 87.8814 42.2943 87.6027 42.6036 87.4187C42.9089 87.2414 43.2609 87.1814 43.5943 87.228C43.9263 87.2707 44.2636 87.428 44.4903 87.72C44.6009 87.868 44.6743 88.0347 44.7009 88.2387L44.7063 88.3414C44.7103 88.4214 44.7023 88.4587 44.6943 88.5094C44.6769 88.6 44.6516 88.6747 44.6263 88.7454C44.5743 88.884 44.8703 89.012 44.8396 89.112C44.8316 89.1387 45.1809 89.1574 45.1809 89.148V89.1747C45.1809 89.168 44.8289 89.2054 44.8236 89.164L44.6449 89.152C44.6356 89.1334 44.5436 89.1254 44.5343 89.1187C44.5169 89.108 44.5196 89.144 44.5703 89.1614C44.6236 89.1827 44.6636 89.2027 44.7316 89.2227C44.8049 89.2494 44.8449 89.256 44.9649 89.3214C45.1156 89.4307 45.2076 89.568 45.2729 89.7214C45.4009 90.028 45.3729 90.3694 45.2329 90.6494C45.0956 90.932 44.8236 91.1587 44.5129 91.2027C44.2049 91.2507 43.9249 91.1854 43.6596 91.1294C43.3956 91.068 43.1329 91.0174 42.8783 90.9907L42.6836 90.9747L42.5183 91C42.4023 91.0374 42.2809 91.08 42.1636 91.1294C41.6863 91.3307 41.2396 91.608 40.8009 91.8667C39.9223 92.3934 39.1036 92.956 38.3063 93.4534C37.9063 93.7014 37.5169 93.9427 37.1409 94.1747C36.9516 94.2907 36.7663 94.4027 36.5836 94.5134C36.4916 94.5707 36.3996 94.6254 36.3089 94.6814L36.2423 94.7214L36.2089 94.7414C36.2036 94.748 36.7023 94.7174 36.7129 94.6974C36.7356 94.6627 37.1809 94.676 37.1809 94.6734V94.6707L36.7169 94.7147C36.6356 95.0574 36.3596 95.5014 36.2076 95.888C36.1276 96.088 35.9249 96.2774 35.7396 96.464L35.5636 96.5654C35.5089 96.5987 35.4263 96.6307 35.3703 96.66C35.3116 96.68 35.2369 96.7 35.1769 96.7147C35.1169 96.72 35.0503 96.7254 34.9916 96.7267C34.5303 96.6907 34.2516 96.4494 34.0209 96.2427C33.7996 96.024 33.6036 95.8094 33.5156 95.5134C33.4663 95.3627 33.5183 95.164 33.6049 95.0694C33.6863 94.9667 33.7609 94.908 33.8169 94.8427C33.9329 94.7227 33.9569 94.5974 33.9596 94.4734C33.9636 94.3547 33.9436 94.2587 33.9303 94.196C33.9156 94.1334 33.9049 94.1027 33.9049 94.1027L33.9743 94.072Z" fill="white"/>
<path d="M53.4065 76.7589C53.4065 76.7589 53.3958 76.7935 53.3692 76.8575C53.3398 76.9202 53.2985 77.0135 53.2132 77.1255C53.1372 77.2335 52.9678 77.3655 52.7558 77.3909C52.6545 77.4082 52.5478 77.4109 52.4665 77.4309C52.3825 77.4535 52.3465 77.4855 52.3118 77.5629C52.2025 77.8842 52.2118 78.6175 52.5198 78.9629C52.5398 78.9775 52.5598 78.9922 52.5785 79.0082C52.5998 79.0175 52.6212 79.0255 52.6412 79.0375C52.6652 79.0402 52.6892 79.1135 52.7118 79.1202C52.7332 79.1229 52.6865 79.1869 52.6945 79.1869H52.7025L52.7198 79.1189L52.7518 79.0855L52.8185 79.0695C52.9118 79.0589 53.0705 79.0082 53.2132 78.9389C53.3612 78.8709 53.5132 78.7735 53.6692 78.6669C53.8292 78.5615 53.9745 78.4402 54.1865 78.3135L54.2825 78.2629L54.3572 78.2362C54.3865 78.2282 54.3958 78.2189 54.4625 78.2149C54.5105 78.2109 54.5918 78.2215 54.6105 78.2269L54.6478 78.2362L54.7238 78.2562C54.8252 78.2815 54.9265 78.3082 55.0292 78.3335C55.2372 78.3869 55.4492 78.4415 55.6652 78.4975C56.0958 78.6082 56.5372 78.7362 56.9905 78.8722C57.8972 79.1469 58.8358 79.4949 59.8025 79.8695C60.2838 80.0655 60.7692 80.2655 61.2545 80.5082C61.3758 80.5722 61.4945 80.6429 61.6145 80.7202L61.7918 80.8722L61.9158 81.0362C62.0812 81.2629 62.2118 81.5002 62.3545 81.7282C62.4945 81.9562 62.6358 82.1842 62.8278 82.3242C62.9265 82.3949 63.0265 82.4322 63.1532 82.4455C63.2638 82.4562 63.3785 82.4429 63.4892 82.4029C63.7078 82.3215 63.8892 82.1415 63.9612 81.9349C63.9972 81.8349 64.0052 81.7189 63.9865 81.6322C63.9825 81.6322 63.9465 81.5522 63.9145 81.5029C63.8812 81.4455 63.8438 81.3842 63.8092 81.3109C63.7772 81.2362 63.7278 81.1615 63.7345 81.0042C63.7412 80.9589 63.7492 80.9162 63.7772 80.8695L63.7972 80.8375L63.8198 80.8095L63.8372 80.7895C63.8932 80.7362 63.9358 80.7095 63.9705 80.6869C64.1145 80.5989 64.2398 80.5482 64.3518 80.4882C64.4065 80.4589 64.4572 80.4282 64.4918 80.4015C64.5052 80.3909 64.5278 80.3682 64.5185 80.3749L64.5825 80.2949C64.6172 80.2349 64.6532 80.1415 64.6585 80.0535C64.7012 79.6855 64.3465 79.2629 63.9798 79.1909C63.6132 79.1069 63.1412 79.2949 62.7265 79.5469C62.6212 79.6122 62.5158 79.6789 62.4132 79.7509L62.3745 79.7775C62.2225 79.8562 62.3252 79.8015 62.2892 79.8202L62.2772 79.8242L62.2532 79.8322C62.1932 79.8522 62.0572 79.8669 62.0052 79.8615C61.9172 79.8575 61.8358 79.8482 61.7665 79.8362C61.4772 79.7922 61.2225 79.7282 60.9652 79.6615C59.9492 79.3895 59.0052 79.0602 58.1185 78.7095C57.2305 78.3602 56.4092 78.0042 55.6585 77.5855C55.4652 77.4669 55.2985 77.3869 55.0825 77.1655C54.9265 76.9695 54.8358 76.7962 54.7412 76.6162C54.6518 76.4402 54.5798 76.2735 54.5078 76.1429C54.4332 76.0135 54.3572 75.9229 54.2478 75.8549C53.7732 75.5722 53.1398 75.6442 52.8678 75.9122C52.8505 75.9282 52.8372 75.9469 52.8212 75.9642C52.8212 75.9589 52.7945 76.0069 52.7852 76.0229C52.7798 76.0415 52.7665 76.0749 52.7665 76.1175C52.7638 76.2002 52.7852 76.2909 52.8118 76.3775C52.8652 76.5495 52.9238 76.7055 52.9492 76.8389C52.9758 76.9722 52.9718 77.0802 52.9638 77.1495C52.9492 77.2189 52.9425 77.2549 52.9425 77.2549L52.8678 77.2402C52.8678 77.2402 52.8692 77.2082 52.8705 77.1455C52.8665 77.0829 52.8545 76.9909 52.8105 76.8775C52.7678 76.7615 52.6958 76.6269 52.6132 76.4522C52.5732 76.3642 52.5292 76.2629 52.5132 76.1309C52.5052 76.0669 52.5078 75.9909 52.5372 75.9002C52.5518 75.8655 52.5492 75.8615 52.5785 75.8055C52.5985 75.7762 52.6172 75.7442 52.6398 75.7162C52.8185 75.4815 53.1118 75.3389 53.4318 75.2842C53.7585 75.2349 54.1132 75.2549 54.4838 75.4255C54.6718 75.5135 54.8438 75.6775 54.9625 75.8455C55.0825 76.0149 55.1665 76.1789 55.2585 76.3322C55.3478 76.4775 55.4558 76.6375 55.5532 76.7429C55.6172 76.8002 55.8132 76.9109 55.9785 76.9909C56.6865 77.3375 57.5238 77.6469 58.3985 77.9709C59.2785 78.2829 60.2105 78.6162 61.1758 78.9055C61.4145 78.9775 61.6625 79.0469 61.8878 79.0895C61.9465 79.1015 61.9958 79.1082 62.0385 79.1122C62.0518 79.1082 61.9825 79.1215 61.9865 79.1349L62.0105 79.1269L62.0212 79.1242C61.9932 79.1402 62.1038 79.0829 61.9598 79.1589L62.0025 79.1309C62.1185 79.0562 62.2385 78.9855 62.3612 78.9149C62.6105 78.7802 62.8732 78.6522 63.1732 78.5695C63.4678 78.4869 63.8105 78.4469 64.1558 78.5469C64.4918 78.6509 64.7772 78.8682 64.9692 79.1429C65.1638 79.4162 65.2785 79.7695 65.2185 80.1349C65.1852 80.3162 65.1132 80.4829 64.9812 80.6415L64.9105 80.7162C64.8558 80.7735 64.8225 80.7935 64.7798 80.8215C64.7012 80.8709 64.6292 80.9029 64.5598 80.9322C64.4238 80.9895 64.2905 81.0335 64.1958 81.0789C64.1705 81.0909 64.1558 81.1042 64.1598 81.0935L64.1412 81.1122C64.1452 81.1069 64.1198 81.1349 64.1478 81.1029L64.1545 81.0922C64.1625 81.0749 64.1665 81.0669 64.1652 81.0549C64.1612 81.0349 64.1652 81.0935 64.1878 81.1429C64.2078 81.1962 64.2372 81.2549 64.2665 81.3189C64.2985 81.3909 64.3278 81.4322 64.3612 81.5655C64.3838 81.7495 64.3505 81.9135 64.2825 82.0669C64.1452 82.3695 63.8785 82.5829 63.5772 82.6722C63.2772 82.7642 62.9265 82.7189 62.6825 82.5215C62.4385 82.3295 62.2958 82.0789 62.1558 81.8482C62.0212 81.6122 61.8798 81.3855 61.7265 81.1815L61.6052 81.0269L61.4745 80.9242C61.3678 80.8642 61.2532 80.8055 61.1372 80.7522C60.6652 80.5402 60.1585 80.4015 59.6705 80.2562C58.6865 79.9722 57.7172 79.7549 56.8092 79.5109C56.3558 79.3869 55.9145 79.2655 55.4878 79.1482C55.2745 79.0882 55.0652 79.0282 54.8598 78.9709C54.7558 78.9415 54.6518 78.9122 54.5505 78.8842L54.4745 78.8615L54.4372 78.8509C54.4292 78.8522 54.4838 78.8669 54.5065 78.8602C54.5478 78.8535 54.5332 78.8562 54.5372 78.8562L54.5385 78.8549L54.4958 78.8749C54.1905 79.0482 53.8305 79.3135 53.4438 79.4655C53.2438 79.5442 53.0438 79.6069 52.7798 79.5975L52.6238 79.5789C52.5625 79.5629 52.5012 79.5442 52.4425 79.5229C52.3878 79.4935 52.3318 79.4615 52.2812 79.4282C52.2358 79.3882 52.1905 79.3482 52.1505 79.3069C51.8625 78.9442 51.8518 78.5775 51.8452 78.2682C51.8558 77.9575 51.8812 77.6695 52.0372 77.4029C52.1145 77.2642 52.2958 77.1682 52.4238 77.1669C52.5545 77.1562 52.6492 77.1709 52.7345 77.1682C52.9012 77.1709 53.0092 77.1029 53.1025 77.0215C53.1918 76.9429 53.2492 76.8642 53.2852 76.8109C53.3212 76.7575 53.3372 76.7295 53.3372 76.7295L53.4065 76.7589Z" fill="white"/>
<path d="M45.0222 67.0822C45.0222 67.0822 45.0489 67.1075 45.0942 67.1595C45.1382 67.2129 45.2035 67.2915 45.2662 67.4169C45.3302 67.5329 45.3742 67.7435 45.3049 67.9449C45.2755 68.0422 45.2302 68.1395 45.2129 68.2222C45.1969 68.3075 45.2089 68.3529 45.2635 68.4195C45.5035 68.6582 46.1675 68.9715 46.6129 68.8475C46.6355 68.8355 46.6569 68.8235 46.6795 68.8142C46.6969 68.7982 46.7142 68.7835 46.7329 68.7702C46.7462 68.7502 46.7595 68.7302 46.7755 68.7129C46.7875 68.6955 46.7635 68.7342 46.7675 68.7275L46.7702 68.7195L46.7782 68.7049L46.7942 68.6755L46.8249 68.6169C46.8569 68.5289 46.8889 68.3689 46.8889 68.2089C46.8915 68.0462 46.8755 67.8689 46.8475 67.6835C46.8235 67.4929 46.7809 67.3102 46.7595 67.0635L46.7569 66.9555L46.7662 66.8755C46.7729 66.8475 46.7689 66.8342 46.7942 66.7729C46.8115 66.7275 46.8569 66.6595 46.8689 66.6449L46.8955 66.6155L46.9462 66.5555C47.0129 66.4769 47.0809 66.3969 47.1502 66.3155C47.2889 66.1515 47.4315 65.9862 47.5755 65.8169C47.8649 65.4782 48.1742 65.1382 48.4942 64.7902C49.1395 64.0969 49.8649 63.4062 50.6262 62.7022C51.0129 62.3555 51.4062 62.0062 51.8369 61.6782C51.9475 61.5969 52.0635 61.5222 52.1862 61.4475L52.4009 61.3542L52.6022 61.3155C52.8769 61.2662 53.1489 61.2529 53.4169 61.2262C53.6822 61.1995 53.9489 61.1729 54.1595 61.0622C54.2662 61.0049 54.3435 60.9302 54.4115 60.8235C54.4702 60.7275 54.5075 60.6182 54.5209 60.5022C54.5435 60.2702 54.4609 60.0275 54.3075 59.8729C54.2342 59.7969 54.1329 59.7382 54.0462 59.7169C54.0449 59.7209 53.9569 59.7182 53.8995 59.7249C53.8329 59.7302 53.7609 59.7355 53.6809 59.7355C53.5982 59.7315 53.5102 59.7422 53.3715 59.6675C53.3342 59.6422 53.2995 59.6155 53.2702 59.5702L53.2489 59.5382L53.2342 59.5049L53.2249 59.4809C53.2009 59.4075 53.1955 59.3582 53.1902 59.3169C53.1755 59.1475 53.1849 59.0129 53.1795 58.8862C53.1769 58.8249 53.1715 58.7662 53.1622 58.7222C53.1595 58.7049 53.1489 58.6755 53.1502 58.6862L53.1062 58.5942C53.0675 58.5369 53.0009 58.4635 52.9235 58.4209C52.6129 58.2195 52.0769 58.3529 51.8502 58.6515C51.6142 58.9435 51.5755 59.4502 51.6195 59.9342C51.6329 60.0569 51.6462 60.1795 51.6649 60.3049L51.6715 60.3515C51.6769 60.5222 51.6729 60.4049 51.6729 60.4462L51.6715 60.4582L51.6675 60.4835C51.6595 60.5475 51.6129 60.6755 51.5862 60.7195C51.5435 60.7969 51.4995 60.8649 51.4582 60.9235C51.2915 61.1635 51.1222 61.3635 50.9502 61.5662C50.2595 62.3595 49.5475 63.0635 48.8435 63.7049C48.1409 64.3489 47.4595 64.9315 46.7542 65.4222C46.5622 65.5435 46.4169 65.6582 46.1235 65.7542C45.8795 65.8089 45.6835 65.8142 45.4795 65.8195C45.2835 65.8235 45.1022 65.8142 44.9515 65.8222C44.8035 65.8329 44.6875 65.8609 44.5795 65.9302C44.1169 66.2315 43.9035 66.8329 44.0262 67.1942C44.0329 67.2169 44.0435 67.2369 44.0515 67.2582C44.0475 67.2555 44.0782 67.3009 44.0875 67.3169C44.1022 67.3302 44.1275 67.3569 44.1649 67.3755C44.2382 67.4142 44.3289 67.4355 44.4182 67.4489C44.5955 67.4769 44.7622 67.4915 44.8929 67.5289C45.0249 67.5622 45.1195 67.6142 45.1795 67.6515C45.2355 67.6955 45.2649 67.7169 45.2649 67.7169L45.2182 67.7769C45.2182 67.7769 45.1889 67.7622 45.1342 67.7329C45.0755 67.7102 44.9889 67.6795 44.8662 67.6702C44.7435 67.6569 44.5915 67.6622 44.3982 67.6609C44.3022 67.6582 44.1915 67.6529 44.0649 67.6102C44.0035 67.5875 43.9369 67.5529 43.8689 67.4875C43.8449 67.4582 43.8395 67.4582 43.8022 67.4075C43.7849 67.3769 43.7635 67.3462 43.7489 67.3129C43.6169 67.0502 43.6169 66.7235 43.7089 66.4115C43.8075 66.0955 43.9822 65.7875 44.2969 65.5289C44.4595 65.3982 44.6822 65.3155 44.8849 65.2835C45.0889 65.2502 45.2742 65.2462 45.4515 65.2302C45.6222 65.2155 45.8129 65.1889 45.9502 65.1462C46.0302 65.1142 46.2155 64.9862 46.3609 64.8729C46.9822 64.3889 47.6289 63.7729 48.3035 63.1302C48.9689 62.4769 49.6795 61.7849 50.3635 61.0449C50.5315 60.8622 50.7035 60.6702 50.8409 60.4849C50.8769 60.4382 50.9049 60.3969 50.9275 60.3595C50.9302 60.3475 50.9102 60.4142 50.9249 60.4169L50.9289 60.3929L50.9302 60.3809C50.9315 60.4142 50.9302 60.2889 50.9342 60.4515L50.9289 60.4009C50.9115 60.2649 50.9009 60.1249 50.8929 59.9835C50.8795 59.7009 50.8809 59.4075 50.9382 59.1035C50.9929 58.8022 51.1075 58.4769 51.3489 58.2102C51.5902 57.9529 51.9102 57.7929 52.2422 57.7409C52.5729 57.6862 52.9409 57.7395 53.2422 57.9515C53.3915 58.0622 53.5089 58.1995 53.5942 58.3875L53.6302 58.4849C53.6569 58.5595 53.6595 58.5969 53.6675 58.6475C53.6769 58.7409 53.6742 58.8195 53.6702 58.8942C53.6609 59.0409 53.6422 59.1809 53.6422 59.2862C53.6409 59.3142 53.6462 59.3329 53.6395 59.3249L53.6475 59.3489C53.6449 59.3435 53.6582 59.3795 53.6422 59.3395L53.6355 59.3289C53.6222 59.3142 53.6169 59.3075 53.6062 59.3035C53.5862 59.2982 53.6409 59.3195 53.6955 59.3222C53.7515 59.3262 53.8169 59.3262 53.8875 59.3275C53.9662 59.3315 54.0169 59.3222 54.1515 59.3502C54.3262 59.4115 54.4595 59.5142 54.5675 59.6422C54.7782 59.8982 54.8529 60.2315 54.8009 60.5409C54.7515 60.8515 54.5582 61.1462 54.2729 61.2795C53.9929 61.4142 53.7062 61.4329 53.4369 61.4555C53.1662 61.4742 52.9009 61.5022 52.6489 61.5489L52.4569 61.5915L52.3075 61.6635C52.2062 61.7329 52.1035 61.8089 52.0049 61.8902C51.6075 62.2209 51.2595 62.6155 50.9142 62.9902C50.2275 63.7489 49.6062 64.5249 48.9889 65.2342C48.6782 65.5862 48.3755 65.9302 48.0835 66.2622C47.9355 66.4275 47.7902 66.5889 47.6475 66.7475C47.5755 66.8289 47.5035 66.9089 47.4329 66.9875L47.3809 67.0462L47.3542 67.0755C47.3515 67.0822 47.3889 67.0395 47.3942 67.0169C47.4049 66.9769 47.6235 66.9915 47.6249 66.9875L47.8462 66.9862V67.0329C47.8462 67.3835 47.7262 67.8235 47.6929 68.2382C47.6755 68.4515 47.5329 68.6595 47.4089 68.8915L47.2675 69.0235C47.2262 69.0715 47.1542 69.1182 47.1102 69.1622C47.0595 69.1982 46.9929 69.2342 46.9395 69.2662C46.8849 69.2889 46.8222 69.3115 46.7662 69.3302C46.3142 69.4289 45.9769 69.2782 45.6969 69.1475C45.4222 69.0022 45.1715 68.8515 45.0009 68.5942C44.9115 68.4649 44.9035 68.2595 44.9582 68.1435C45.0062 68.0222 45.0609 67.9435 45.0955 67.8662C45.1715 67.7169 45.1569 67.5902 45.1249 67.4715C45.0929 67.3555 45.0475 67.2702 45.0169 67.2142C44.9835 67.1582 44.9649 67.1315 44.9649 67.1315L45.0222 67.0822Z" fill="white"/>
<path d="M65.4774 98.9163C65.4774 98.9163 65.4681 98.8803 65.4574 98.8123C65.4481 98.7443 65.4347 98.643 65.4481 98.503C65.4561 98.371 65.5307 98.1697 65.6974 98.0363C65.7734 97.9683 65.8627 97.9097 65.9214 97.8497C65.9801 97.7857 65.9947 97.7403 65.9841 97.655C65.9067 97.3257 65.5121 96.707 65.0694 96.5763C65.0441 96.5737 65.0188 96.5723 64.9948 96.5683C64.9721 96.5723 64.9494 96.5763 64.9267 96.5777C64.9041 96.587 64.8827 96.5963 64.8601 96.603C64.8401 96.611 64.8814 96.591 64.8748 96.595L64.8681 96.599L64.8534 96.607L64.8241 96.6243L64.7667 96.6577C64.6934 96.7163 64.5814 96.835 64.4961 96.9697C64.4067 97.1057 64.3267 97.2643 64.2507 97.4363C64.1707 97.611 64.1094 97.7883 63.9961 98.0083L63.9401 98.1003L63.8907 98.163C63.8694 98.1843 63.8667 98.1977 63.8121 98.2363C63.7734 98.2657 63.6987 98.299 63.6801 98.3043L63.6427 98.315L63.5681 98.339C63.4694 98.3697 63.3694 98.4017 63.2681 98.4337C63.0627 98.4977 62.8547 98.5643 62.6414 98.631C62.2174 98.763 61.7734 98.887 61.3174 99.011C60.4028 99.255 59.4214 99.455 58.4027 99.6457C57.8907 99.7323 57.3721 99.8203 56.8321 99.8683C56.6947 99.879 56.5574 99.8803 56.4134 99.8777L56.1827 99.843L55.9908 99.7697C55.7321 99.6643 55.4947 99.531 55.2534 99.4123C55.0161 99.2923 54.7748 99.1737 54.5374 99.155C54.4174 99.1483 54.3121 99.1697 54.1974 99.2243C54.0974 99.2737 54.0068 99.3457 53.9334 99.4377C53.7908 99.6217 53.7321 99.871 53.7801 100.083C53.8014 100.187 53.8561 100.291 53.9188 100.355C53.9214 100.352 53.9948 100.4 54.0468 100.426C54.1054 100.458 54.1694 100.491 54.2388 100.534C54.3054 100.58 54.3934 100.618 54.4721 100.755C54.4894 100.796 54.5134 100.838 54.5134 100.892V100.931L54.5014 100.966L54.4934 100.991C54.4734 101.067 54.4507 101.111 54.4321 101.148C54.3561 101.3 54.2747 101.41 54.2121 101.519C54.1814 101.572 54.1534 101.626 54.1388 101.667C54.1321 101.683 54.1254 101.714 54.1294 101.703L54.1174 101.806C54.1201 101.874 54.1374 101.972 54.1801 102.05C54.3361 102.386 54.8614 102.558 55.2121 102.426C55.5668 102.304 55.8681 101.895 56.0881 101.462C56.1428 101.351 56.1974 101.239 56.2468 101.123L56.2654 101.08C56.3534 100.934 56.2948 101.034 56.3161 100.999L56.3241 100.99L56.3401 100.971C56.3814 100.922 56.4881 100.838 56.5348 100.814C56.6134 100.771 56.6854 100.736 56.7521 100.71C57.0214 100.595 57.2707 100.515 57.5241 100.435C58.5307 100.131 59.5067 99.9137 60.4454 99.7443C61.3841 99.5723 62.2694 99.4417 63.1281 99.4017C63.3547 99.4003 63.5387 99.3803 63.8387 99.455C64.0747 99.539 64.2428 99.6377 64.4188 99.7417C64.5868 99.8443 64.7361 99.9483 64.8667 100.02C64.9987 100.091 65.1107 100.128 65.2387 100.127C65.7907 100.118 66.2921 99.723 66.3814 99.3523C66.3867 99.3283 66.3881 99.3057 66.3934 99.283C66.3961 99.287 66.3934 99.2337 66.3934 99.215C66.3881 99.1963 66.3814 99.159 66.3587 99.123C66.3187 99.0523 66.2521 98.9857 66.1841 98.927C66.0481 98.8083 65.9161 98.7083 65.8241 98.607C65.7307 98.5083 65.6774 98.4137 65.6467 98.351C65.6227 98.2843 65.6094 98.2497 65.6094 98.2497L65.6814 98.223C65.6814 98.223 65.6974 98.251 65.7281 98.3057C65.7654 98.3563 65.8241 98.4283 65.9214 98.5017C66.0187 98.5777 66.1507 98.6537 66.3134 98.759C66.3934 98.8123 66.4841 98.875 66.5681 98.979C66.6081 99.0297 66.6467 99.095 66.6694 99.187C66.6747 99.2243 66.6787 99.227 66.6827 99.2897C66.6814 99.3257 66.6827 99.3617 66.6787 99.3977C66.6507 99.691 66.4774 99.967 66.2321 100.183C65.9814 100.398 65.6707 100.566 65.2654 100.616C65.0587 100.642 64.8254 100.594 64.6361 100.512C64.4468 100.432 64.2881 100.338 64.1294 100.256C63.9761 100.178 63.8001 100.1 63.6627 100.062C63.5774 100.047 63.3521 100.056 63.1694 100.075C62.3854 100.155 61.5108 100.332 60.5974 100.519C59.6854 100.718 58.7161 100.926 57.7441 101.188C57.5041 101.254 57.2561 101.326 57.0414 101.408C56.9854 101.43 56.9401 101.45 56.9014 101.468C56.8921 101.479 56.9454 101.431 56.9348 101.422L56.9187 101.44L56.9107 101.45C56.9267 101.42 56.8614 101.527 56.9454 101.387L56.9228 101.434C56.8641 101.558 56.7988 101.682 56.7308 101.806C56.5908 102.052 56.4348 102.3 56.2241 102.527C56.0174 102.754 55.7481 102.968 55.4014 103.064C55.0601 103.155 54.7041 103.12 54.3961 102.987C54.0868 102.858 53.8028 102.618 53.6601 102.276C53.5934 102.104 53.5668 101.924 53.5948 101.72L53.6161 101.62C53.6321 101.542 53.6508 101.508 53.6708 101.462C53.7121 101.378 53.7561 101.314 53.7988 101.251C53.8854 101.131 53.9761 101.024 54.0308 100.935C54.0468 100.912 54.0521 100.894 54.0547 100.903L53.6214 100.879C53.6201 100.884 53.1801 100.847 53.1801 100.888V100.902C53.1801 100.92 53.6241 100.93 53.6307 100.939C53.6454 100.954 53.8308 100.907 53.7854 100.876C53.7401 100.842 53.7948 100.807 53.7348 100.768C53.6708 100.724 53.6787 100.704 53.5801 100.61C53.4641 100.464 53.4321 100.307 53.4094 100.142C53.3668 99.8123 53.4948 99.4897 53.7041 99.2563C53.9108 99.019 54.2388 98.8723 54.5508 98.911C54.8588 98.9457 55.1161 99.083 55.3561 99.2057C55.5948 99.335 55.8361 99.4523 56.0748 99.5457L56.2601 99.6123L56.4254 99.631C56.5481 99.6257 56.6761 99.6163 56.8028 99.599C57.3161 99.531 57.8188 99.3817 58.3108 99.2483C59.2974 98.971 60.2347 98.643 61.1347 98.3723C61.5867 98.239 62.0254 98.1083 62.4494 97.983C62.6614 97.9217 62.8707 97.8617 63.0761 97.803C63.1801 97.7737 63.2827 97.743 63.3854 97.7137L63.4601 97.6923L63.4987 97.6817C63.5041 97.6777 64.3347 97.6937 64.3187 97.711C64.2881 97.739 65.1801 97.7283 65.1801 97.7297V97.7323L64.3201 97.6923C64.4881 97.3843 64.2121 96.9697 64.4614 96.635C64.5894 96.4643 64.5054 96.3043 64.7334 96.1737L64.7654 96.107C64.8267 96.0897 64.8334 96.0723 64.8934 96.059C64.9561 96.055 64.9921 96.0537 65.0534 96.055C65.1134 96.0643 65.1588 96.075 65.2148 96.0897C65.6508 96.2443 65.8454 96.551 66.0147 96.8097C66.1694 97.079 66.2974 97.339 66.3054 97.647C66.3121 97.8057 66.2067 97.983 66.0987 98.0523C65.9934 98.1297 65.9041 98.167 65.8334 98.2137C65.6894 98.3003 65.6334 98.415 65.5974 98.5323C65.5627 98.647 65.5561 98.7443 65.5534 98.8083C65.5507 98.8723 65.5521 98.9043 65.5521 98.9043L65.4774 98.9163Z" fill="#E6E7E8"/>
<path d="M76.6574 62.4381C76.6574 62.4381 76.6427 62.4048 76.6214 62.3395C76.6014 62.2728 76.5707 62.1741 76.5614 62.0355C76.5481 61.9035 76.5881 61.6928 76.7307 61.5341C76.7961 61.4541 76.8747 61.3821 76.9227 61.3128C76.9707 61.2408 76.9774 61.1941 76.9521 61.1115C76.8227 60.7995 76.3334 60.2528 75.8747 60.1955C75.8494 60.1968 75.8254 60.1995 75.8001 60.1995C75.7774 60.2075 75.7561 60.2155 75.7334 60.2195C75.7134 60.2328 75.6934 60.2448 75.6721 60.2555C75.6547 60.2675 75.6921 60.2408 75.6854 60.2461L75.6787 60.2515L75.6667 60.2608L75.6414 60.2821L75.5894 60.3248C75.5267 60.3941 75.4347 60.5288 75.3721 60.6768C75.3067 60.8261 75.2534 60.9955 75.2067 61.1768C75.1561 61.3621 75.1241 61.5475 75.0481 61.7835L75.0081 61.8835L74.9694 61.9528C74.9521 61.9768 74.9521 61.9901 74.9041 62.0368C74.8707 62.0728 74.8014 62.1181 74.7854 62.1261L74.7507 62.1435L74.6801 62.1781C74.5867 62.2248 74.4934 62.2728 74.3987 62.3208C74.2067 62.4181 74.0121 62.5155 73.8134 62.6168C73.4161 62.8155 72.9987 63.0101 72.5681 63.2075C71.7054 63.5968 70.7694 63.9528 69.7947 64.3061C69.3041 64.4755 68.8067 64.6461 68.2814 64.7821C68.1481 64.8128 68.0121 64.8381 67.8707 64.8581L67.6361 64.8621L67.4361 64.8208C67.1627 64.7581 66.9067 64.6648 66.6507 64.5861C66.3961 64.5075 66.1387 64.4301 65.9014 64.4501C65.7814 64.4621 65.6814 64.5008 65.5774 64.5728C65.4867 64.6381 65.4094 64.7235 65.3507 64.8261C65.2414 65.0315 65.2227 65.2861 65.3054 65.4888C65.3427 65.5875 65.4134 65.6808 65.4854 65.7341C65.4881 65.7301 65.5681 65.7675 65.6241 65.7835C65.6867 65.8048 65.7561 65.8275 65.8294 65.8581C65.9041 65.8941 65.9894 65.9181 66.0881 66.0408C66.1121 66.0795 66.1347 66.1168 66.1441 66.1701L65.6654 66.2075L65.1801 66.2435V66.2701C65.1801 66.3475 65.6454 66.3955 65.6334 66.4341C65.5827 66.5968 65.7641 66.7168 65.7201 66.8355C65.6987 66.8941 65.4294 66.9501 65.4214 66.9928C65.4187 67.0101 65.1801 67.0421 65.1801 67.0301V67.1328C65.1801 67.2008 65.5961 67.2941 65.6507 67.3648C65.8587 67.6701 66.5894 67.7541 66.9134 67.5675C67.2441 67.3901 67.5254 66.9368 67.6721 66.4741C67.7081 66.3555 67.8467 66.2368 67.8467 66.1141V66.0688C67.8467 65.9101 67.9041 66.0181 67.9201 65.9808L67.9441 65.9701L67.9654 65.9488C67.9974 65.8928 68.0947 65.7928 68.1374 65.7621C68.2067 65.7075 68.2761 65.6608 68.3361 65.6235C68.5827 65.4675 68.8187 65.3475 69.0547 65.2288C69.9987 64.7648 70.9281 64.3915 71.8254 64.0715C72.7241 63.7501 73.5774 63.4768 74.4174 63.2981C74.6414 63.2608 74.8187 63.2115 75.1267 63.2355C75.3734 63.2808 75.5561 63.3515 75.7467 63.4248C75.9294 63.4981 76.0934 63.5768 76.2347 63.6261C76.3747 63.6755 76.4921 63.6928 76.6187 63.6715C77.1627 63.5728 77.5921 63.1021 77.6201 62.7208C77.6214 62.6968 77.6201 62.6741 77.6214 62.6515C77.6241 62.6555 77.6121 62.6021 77.6094 62.5835C77.6014 62.5661 77.5881 62.5315 77.5614 62.4995C77.5094 62.4355 77.4334 62.3808 77.3561 62.3341C77.2027 62.2395 77.0561 62.1608 76.9494 62.0768C76.8414 61.9941 76.7734 61.9101 76.7334 61.8528C76.6987 61.7901 76.6801 61.7581 76.6801 61.7581L76.7454 61.7221C76.7454 61.7221 76.7667 61.7461 76.8054 61.7941C76.8507 61.8381 76.9201 61.8995 77.0281 61.9568C77.1361 62.0155 77.2787 62.0701 77.4561 62.1461C77.5441 62.1861 77.6441 62.2328 77.7441 62.3221C77.7921 62.3661 77.8401 62.4248 77.8774 62.5115C77.8881 62.5475 77.8934 62.5501 77.9081 62.6115C77.9121 62.6461 77.9201 62.6821 77.9214 62.7181C77.9401 63.0128 77.8134 63.3128 77.6081 63.5648C77.3961 63.8181 77.1161 64.0341 76.7241 64.1501C76.5241 64.2088 76.2867 64.1981 76.0867 64.1488C75.8854 64.1021 75.7134 64.0328 75.5441 63.9795C75.3814 63.9275 75.1947 63.8781 75.0521 63.8635C74.9667 63.8621 74.7454 63.9075 74.5681 63.9568C73.8067 64.1621 72.9721 64.4795 72.1014 64.8115C71.2347 65.1568 70.3121 65.5181 69.3947 65.9355C69.1694 66.0395 68.9361 66.1501 68.7374 66.2661C68.6867 66.2968 68.6454 66.3248 68.6107 66.3488C68.6027 66.3595 68.6467 66.3048 68.6347 66.2968L68.6214 66.3181L68.6147 66.3288C68.6267 66.2981 68.5801 66.4128 68.6387 66.2621L68.6241 66.3115C68.5867 66.4435 68.5427 66.5755 68.4961 66.7088C68.3987 66.9755 68.2841 67.2448 68.1134 67.5035C67.9454 67.7595 67.7147 68.0155 67.3881 68.1675C67.0667 68.3115 66.7094 68.3355 66.3841 68.2541C66.0574 68.1768 65.7387 67.9861 65.5427 67.6728C65.4481 67.5141 65.3921 67.3408 65.3867 67.1341L65.3921 67.0315C65.3961 66.9528 65.4081 66.9155 65.4201 66.8661C65.4481 66.7768 65.4801 66.7061 65.5134 66.6381C65.5787 66.5061 65.6507 66.3848 65.6907 66.2875C65.7027 66.2621 65.4387 66.2435 65.4427 66.2528L65.1801 66.2275V66.2381L65.4467 66.2515C65.4534 66.2688 65.5894 66.2781 65.5974 66.2861C65.6134 66.2981 65.6387 66.2568 65.5894 66.2341C65.5387 66.2088 65.5121 66.1821 65.4467 66.1541C65.3761 66.1208 65.3427 66.1088 65.2294 66.0315C65.0921 65.9075 65.0174 65.7608 64.9667 65.6008C64.8721 65.2835 64.9361 64.9461 65.1041 64.6821C65.2707 64.4155 65.5654 64.2181 65.8787 64.2061C66.1894 64.1901 66.4627 64.2848 66.7201 64.3675C66.9761 64.4555 67.2321 64.5315 67.4827 64.5861L67.6761 64.6208L67.8414 64.6128C67.9614 64.5888 68.0867 64.5568 68.2094 64.5208C68.7041 64.3701 69.1761 64.1408 69.6401 63.9288C70.5681 63.4955 71.4401 63.0195 72.2841 62.6061C72.7081 62.4008 73.1201 62.2021 73.5174 62.0088C73.7174 61.9141 73.9147 61.8208 74.1081 61.7301C74.2054 61.6835 74.3014 61.6368 74.3974 61.5915L74.4681 61.5581L74.5041 61.5408C74.5094 61.5355 74.5027 61.5608 74.4894 61.5795C74.4641 61.6128 74.5134 61.6008 74.5134 61.6035V61.6048L74.4881 61.5621C74.6041 61.2301 74.6787 60.7941 74.8694 60.4248C74.9681 60.2341 75.0667 60.0555 75.2707 59.8888L75.3947 59.7995C75.4521 59.7715 75.5081 59.7461 75.5654 59.7235C75.6267 59.7088 75.6881 59.6955 75.7494 59.6875C75.8094 59.6875 75.8681 59.6888 75.9267 59.6928C76.3827 59.7768 76.6307 60.0448 76.8387 60.2741C77.0361 60.5141 77.2067 60.7488 77.2641 61.0528C77.2974 61.2075 77.2241 61.3981 77.1281 61.4848C77.0374 61.5781 76.9561 61.6288 76.8947 61.6875C76.7667 61.7955 76.7294 61.9181 76.7134 62.0395C76.6974 62.1581 76.7067 62.2555 76.7147 62.3181C76.7227 62.3835 76.7294 62.4141 76.7294 62.4141L76.6574 62.4381Z" fill="white"/>
<path d="M16.1493 84.0615C16.1493 84.0615 16.376 83.9788 16.7813 83.8988C16.9853 83.8601 17.232 83.8175 17.5226 83.7935C17.668 83.7775 17.824 83.7761 17.9933 83.7775C18.164 83.7801 18.3453 83.7921 18.5626 83.8548C18.672 83.8841 18.812 83.9641 18.8693 83.9988C18.9466 84.0415 19.044 84.1095 19.12 84.1655C19.284 84.2801 19.4346 84.4135 19.58 84.5468C19.8773 84.8081 20.1133 85.1028 20.4693 85.0668C20.632 85.0588 20.816 84.9601 20.9426 84.8135C21.0613 84.6615 21.14 84.4588 21.112 84.2641C21.104 84.1761 21.064 84.0535 21.0186 84.0148C20.9546 83.9521 20.8573 83.8815 20.7626 83.8028C20.7133 83.7601 20.6626 83.7175 20.6133 83.6455C20.5906 83.6095 20.564 83.5615 20.5573 83.4935C20.5546 83.4561 20.5546 83.4321 20.572 83.3748C20.5773 83.3588 20.576 83.3535 20.588 83.3281C20.6773 83.1535 20.7533 83.0895 20.8306 82.9908C20.904 82.9028 20.976 82.8161 21.0146 82.7428C21.0226 82.7255 21.0306 82.7081 21.032 82.6975C21.0293 82.7015 21.0413 82.6748 21.028 82.7055L21.0333 82.6841L21.044 82.6428C21.0666 82.5748 21.052 82.5588 21.056 82.5281C21.0546 82.3788 20.992 82.2415 20.8893 82.1215C20.7826 82.0041 20.64 81.9108 20.4853 81.8628C20.4133 81.8401 20.3213 81.8228 20.2626 81.8228L20.18 81.8188C20.1573 81.8201 20.152 81.8255 20.1373 81.8255C20.116 81.8268 20.0786 81.8361 20.0426 81.8441C19.764 81.9148 19.4786 82.1495 19.2346 82.4081C19.108 82.5361 18.9906 82.6748 18.8813 82.8135L18.84 82.8668L18.82 82.8921C18.756 82.9708 18.8133 82.9055 18.7466 82.9708C18.728 82.9881 18.7 83.0095 18.684 83.0188L18.6493 83.0401C18.6226 83.0548 18.6066 83.0601 18.5853 83.0708C18.548 83.0855 18.5146 83.0975 18.4853 83.1055C18.3626 83.1401 18.2666 83.1521 18.1706 83.1641C17.7933 83.2055 17.472 83.1961 17.1826 83.1828C16.8946 83.1708 16.6453 83.1455 16.4413 83.1201C16.0306 83.0655 15.7986 83.0161 15.7986 83.0161L15.7973 82.9401C15.7973 82.9401 15.8546 82.9268 15.9626 82.9001C16.0706 82.8775 16.228 82.8428 16.4293 82.8001C16.628 82.7628 16.8693 82.7161 17.148 82.6628C17.4213 82.6095 17.736 82.5548 18.044 82.4761C18.1186 82.4561 18.196 82.4335 18.2466 82.4095C18.2586 82.4041 18.268 82.3988 18.272 82.3948C18.272 82.3948 18.276 82.3908 18.2693 82.3935L18.2626 82.3961C18.2573 82.3988 18.2386 82.4135 18.228 82.4228C18.1813 82.4761 18.252 82.3921 18.2026 82.4521L18.2226 82.4215L18.264 82.3615C18.376 82.1988 18.4986 82.0335 18.6413 81.8668C18.7826 81.6988 18.9546 81.5441 19.156 81.3975C19.356 81.2535 19.6026 81.1281 19.892 81.0801C19.964 81.0695 20.0333 81.0575 20.1213 81.0588C20.1626 81.0588 20.2106 81.0575 20.2426 81.0601L20.3253 81.0695C20.4866 81.0895 20.612 81.1295 20.748 81.1855C21.0106 81.2975 21.2493 81.4761 21.42 81.7228C21.592 81.9641 21.6813 82.2961 21.6173 82.6068C21.5946 82.6895 21.5653 82.7895 21.54 82.8268L21.4866 82.9321C21.4626 82.9735 21.4373 83.0041 21.412 83.0335C21.312 83.1468 21.2146 83.2201 21.124 83.2935C21.0373 83.3575 20.9346 83.4495 20.9066 83.4748C20.9026 83.4748 20.8933 83.4961 20.8866 83.5068C20.9 83.4775 20.8906 83.4815 20.892 83.4735C20.8893 83.4641 20.8853 83.4708 20.892 83.4841C20.9013 83.5108 20.932 83.5521 20.9653 83.5908C21.036 83.6735 21.124 83.7415 21.2133 83.8508C21.3106 83.9921 21.328 84.1041 21.3453 84.2401C21.3786 84.7641 21.048 85.2508 20.536 85.4215C20.296 85.5068 19.988 85.4681 19.7653 85.3721C19.5386 85.2775 19.3546 85.1548 19.1866 85.0428C19.0293 84.9308 18.876 84.8215 18.728 84.7175C18.656 84.6695 18.5866 84.6228 18.5186 84.5775C18.424 84.5161 18.4093 84.5028 18.3533 84.4815C18.1106 84.3988 17.7813 84.3615 17.5146 84.3308C17.236 84.2975 16.9933 84.2681 16.7933 84.2441C16.3893 84.1935 16.1533 84.1375 16.1533 84.1375L16.1493 84.0615Z" fill="white"/>
<path d="M21.8393 53.8041C22.0126 54.0041 22.1593 54.2054 22.2739 54.4614C22.3339 54.5854 22.3633 54.7761 22.3553 54.9227C22.3513 55.0374 22.3326 55.1921 22.3099 55.3201C22.2713 55.5841 22.1806 55.8321 22.1593 56.0214C22.1499 56.1174 22.1486 56.1921 22.1619 56.2707C22.1779 56.3507 22.1953 56.4267 22.2459 56.5294C22.2926 56.6214 22.3286 56.7027 22.3913 56.7907C22.4513 56.8734 22.5153 56.9574 22.5926 57.0281C22.7419 57.1721 22.9419 57.2827 23.1406 57.2801C23.1593 57.2787 23.1993 57.2774 23.2033 57.2747C23.2339 57.2681 23.2673 57.2587 23.2713 57.2521C23.2966 57.2454 23.3393 57.2081 23.3686 57.1721C23.4326 57.0921 23.4793 56.9801 23.5233 56.8667C23.6126 56.6427 23.6939 56.3667 23.9393 56.1707L23.9579 56.4227L23.8539 56.3841L23.8406 56.3787L23.8339 56.4494L23.8313 56.5201H23.8299C23.7059 56.5201 23.9953 56.0987 23.9646 56.1614L23.9913 56.1347L24.0433 56.1361L24.0953 56.1467L24.1539 56.1654C24.2006 56.1881 24.2446 56.2121 24.2793 56.2347C24.4219 56.3347 24.5406 56.4227 24.5779 56.4041C24.6113 56.3974 24.6753 56.3601 24.7686 56.2774C24.8606 56.1987 24.9499 56.1001 25.0339 56.0027C25.1966 55.8081 25.3366 55.5761 25.3579 55.4001C25.3686 55.3121 25.3566 55.2641 25.3299 55.2294C25.3286 55.2227 25.3086 55.2014 25.3126 55.2081L25.2766 55.1667L25.2606 55.1561C25.2353 55.1361 25.1966 55.1027 25.1539 55.0787C24.9793 54.9761 24.7259 54.8974 24.4579 54.8321L24.0299 54.7307C23.9526 54.7107 23.8753 54.6921 23.7766 54.6561C23.7246 54.6347 23.6726 54.6214 23.5753 54.5521C23.5499 54.5307 23.5273 54.5147 23.4913 54.4694C23.4726 54.4427 23.4673 54.4414 23.4419 54.3934L23.4366 54.3801C23.4339 54.3721 23.4099 54.3067 23.4046 54.2827L23.3193 53.8507C23.2899 53.7134 23.2593 53.5734 23.2206 53.4347C23.1499 53.1534 23.0646 52.8694 22.9886 52.5734L23.0539 52.5347C23.2766 52.7494 23.4659 52.9907 23.6379 53.2494C23.7193 53.3801 23.8006 53.5134 23.8699 53.6547C23.9366 53.7921 24.0046 53.9547 24.0526 54.0694C24.0606 54.0801 24.0459 54.0507 24.0593 54.0761L24.0659 54.0881C24.0446 54.0467 24.0473 54.0521 24.0339 54.0334C24.0086 54.0041 24.0019 53.9974 23.9899 53.9881C23.9539 53.9614 23.9713 53.9721 23.9899 53.9734C24.0326 53.9827 24.1019 53.9921 24.1686 53.9987C24.3073 54.0147 24.4593 54.0361 24.6139 54.0587C24.9233 54.1147 25.2539 54.1854 25.5846 54.3947C25.6686 54.4481 25.7459 54.5067 25.8273 54.5907L25.8886 54.6587L25.9219 54.7027C25.9699 54.7681 25.9953 54.8067 26.0246 54.8681C26.1406 55.0947 26.1433 55.3614 26.0873 55.5614C26.0339 55.7654 25.9419 55.9281 25.8419 56.0734C25.7406 56.2187 25.6273 56.3441 25.5033 56.4574C25.3806 56.5721 25.2486 56.6707 25.0953 56.7587C24.9513 56.8401 24.7219 56.9521 24.4593 56.8707C24.2046 56.7721 24.1326 56.6094 24.0433 56.5294L23.9859 56.4734C23.9739 56.4654 23.9486 56.4494 23.9473 56.4454L23.8993 56.4174L23.8513 56.3881L23.8273 55.9227C23.7979 55.9854 24.0886 55.1867 23.9673 55.1867H23.9686L23.9713 55.6401L23.9766 55.8694L23.9886 55.9894L24.0846 56.1027L24.3179 56.2707L24.1046 56.3974C23.9313 56.4894 23.8259 56.7147 23.7366 56.9441C23.6873 57.0587 23.6446 57.1854 23.5659 57.3081C23.5193 57.3694 23.4806 57.4294 23.3953 57.4841C23.3499 57.5147 23.3233 57.5241 23.2953 57.5361C23.2419 57.5587 23.2179 57.5587 23.1779 57.5707C22.8806 57.6281 22.5833 57.5521 22.3273 57.4214C22.1993 57.3547 22.0766 57.2734 21.9686 57.1747C21.8646 57.0814 21.7593 56.9574 21.6833 56.8347C21.6073 56.7227 21.5313 56.5667 21.4966 56.4041C21.4606 56.2401 21.4646 56.0641 21.4939 55.9147C21.5566 55.6161 21.6459 55.3987 21.7153 55.1801C21.7513 55.0667 21.7739 54.9761 21.8006 54.8454C21.8326 54.7467 21.8433 54.6867 21.8379 54.5721C21.8259 54.3481 21.7793 54.0921 21.7686 53.8321L21.8393 53.8041Z" fill="white"/>
<path d="M45.095 109.096C45.095 109.096 45.0883 109.048 45.087 108.972C45.087 108.935 45.0856 108.888 45.0923 108.84C45.087 108.799 45.0816 108.752 45.0763 108.701C45.0763 108.659 45.0536 108.605 45.0496 108.563C45.043 108.519 45.019 108.48 45.011 108.443C44.9883 108.405 44.9803 108.372 44.9563 108.335C44.9416 108.299 44.9136 108.257 44.8923 108.216C44.795 108.043 44.6336 107.8 44.559 107.553C44.5163 107.436 44.5043 107.315 44.511 107.235C44.523 107.148 44.543 107.108 44.543 107.108C44.543 107.108 44.5883 107.136 44.6456 107.168C44.711 107.199 44.7963 107.229 44.8936 107.276C44.995 107.319 45.107 107.381 45.2216 107.469C45.2803 107.517 45.339 107.563 45.3936 107.629C45.4523 107.687 45.5016 107.764 45.551 107.841C45.5923 107.928 45.6376 108.012 45.6563 108.115C45.6856 108.211 45.6843 108.317 45.6803 108.413C45.6643 108.509 45.6443 108.604 45.6056 108.679C45.5643 108.753 45.5283 108.82 45.4736 108.872C45.3763 108.987 45.283 109.029 45.2123 109.055C45.1416 109.084 45.095 109.096 45.095 109.096Z" fill="white"/>
<path d="M44.5429 107.109C44.5429 107.109 44.5629 107.077 44.6136 107.025C44.6629 106.973 44.7536 106.906 44.8509 106.828C44.9549 106.746 44.9896 106.652 44.9576 106.504C44.9243 106.366 44.8283 106.182 44.7229 106.009C44.6149 105.834 44.4669 105.66 44.3069 105.537C44.2269 105.477 44.1429 105.438 44.0736 105.432C43.9963 105.426 43.9683 105.436 43.8669 105.485C43.7296 105.557 43.5549 105.752 43.4216 105.976C43.2736 106.204 43.1589 106.442 42.9736 106.742C42.9443 106.784 42.9203 106.824 42.8683 106.88C42.8589 106.892 42.8403 106.908 42.8216 106.924C42.8069 106.938 42.7843 106.957 42.7509 106.977C42.7283 106.994 42.6789 107.018 42.6243 107.033L42.5749 107.045L42.3629 107.092C42.2176 107.12 42.0709 107.149 41.9269 107.178C41.6376 107.237 41.3523 107.29 41.0736 107.329C40.5176 107.417 39.9923 107.47 39.5416 107.498C38.6389 107.561 38.0283 107.502 38.0283 107.502C38.0283 107.502 38.1709 107.446 38.4229 107.365C38.6736 107.28 39.0323 107.169 39.4629 107.046C39.8936 106.921 40.3963 106.785 40.9376 106.653C41.2069 106.581 41.4869 106.518 41.7723 106.454C41.9149 106.421 42.0589 106.388 42.2029 106.353C42.2723 106.337 42.3576 106.32 42.4283 106.306C42.4283 106.306 42.4696 106.3 42.4336 106.306C42.3963 106.316 42.3656 106.334 42.3576 106.338L42.3296 106.358C42.3256 106.362 42.3216 106.366 42.3243 106.364C42.3243 106.364 42.3416 106.344 42.3563 106.324C42.4923 106.122 42.6429 105.824 42.8309 105.569C43.0283 105.313 43.2456 105.05 43.6216 104.888C43.7749 104.818 44.0336 104.793 44.2189 104.856C44.4123 104.917 44.5536 105.025 44.6656 105.134C44.8856 105.358 44.9989 105.604 45.0909 105.828C45.1789 106.057 45.2256 106.265 45.2283 106.49C45.2243 106.596 45.1963 106.71 45.1309 106.796C45.0669 106.88 44.9869 106.92 44.9229 106.948C44.7949 107.001 44.6989 107.022 44.6363 107.056C44.5736 107.085 44.5429 107.109 44.5429 107.109Z" fill="white"/>
<path d="M83.3703 82.2375C83.0263 82.5202 82.6597 82.7722 82.2823 83.0029C81.9063 83.2362 81.5197 83.4535 81.1237 83.6522C80.7317 83.8562 80.325 84.0322 79.9143 84.2055C79.4983 84.3669 79.0797 84.5149 78.6117 84.5909C78.4943 84.6095 78.3743 84.6269 78.229 84.6229C78.1917 84.6215 78.1503 84.6162 78.0997 84.6095L78.0197 84.5895L77.849 84.5442C77.6197 84.4789 77.4103 84.3882 77.213 84.3135C77.0157 84.2362 76.8357 84.1882 76.6503 84.2255C76.4637 84.2642 76.273 84.3642 76.121 84.4922C75.961 84.6189 75.8343 84.7855 75.757 84.9682C75.6797 85.1455 75.6583 85.3602 75.737 85.5015C75.7983 85.6015 76.017 85.6722 76.2223 85.7402C76.4303 85.8135 76.6837 85.9095 76.8703 86.1495L76.489 86.1735L76.5183 86.1002L76.533 86.0629L76.8583 86.0535L77.1797 86.0495V86.0469C77.1797 86.1389 76.4463 85.8389 77.2757 86.2509L77.1077 86.2695C77.085 86.3229 76.9943 86.3589 76.961 86.4255C76.8917 86.5629 76.7623 86.6562 76.7077 86.7309C76.6437 86.8109 76.6277 86.8415 76.633 86.8455C76.6383 86.8562 76.6477 86.9175 76.6877 86.9669C76.8797 87.2349 77.2023 87.5189 77.4797 87.6135C77.625 87.6602 77.7023 87.6455 77.7583 87.6015C77.8423 87.5389 77.9157 87.4269 77.981 87.2655C78.0423 87.1082 78.0863 86.9255 78.129 86.7335C78.1743 86.5349 78.197 86.3455 78.2637 86.0895C78.2917 86.0175 78.2837 85.9575 78.409 85.7935C78.4223 85.7762 78.4463 85.7509 78.4823 85.7229C78.4983 85.7109 78.5157 85.6989 78.533 85.6882L78.545 85.6815L78.5797 85.6629L78.6463 85.6255L78.9197 85.4722L79.4757 85.1642C79.8517 84.9682 80.2277 84.7709 80.6117 84.5909C81.3783 84.2229 82.165 83.8909 82.9783 83.6282L83.0117 83.6962C82.6637 83.9429 82.3143 84.1829 81.9637 84.4189C81.6143 84.6562 81.265 84.8909 80.9117 85.1202L79.8543 85.8095L79.321 86.1469L79.0503 86.3175L78.981 86.3602L78.9477 86.3815C78.9477 86.3815 78.9383 86.3869 78.9423 86.3855C78.9543 86.3789 78.9663 86.3709 78.977 86.3629C79.0023 86.3429 79.017 86.3255 79.0237 86.3202C79.0823 86.2389 79.045 86.2829 79.0423 86.3122C79.001 86.4629 78.965 86.6922 78.917 86.9055C78.869 87.1255 78.8037 87.3522 78.6957 87.5815C78.6423 87.6975 78.577 87.8135 78.4903 87.9255C78.445 87.9829 78.4023 88.0335 78.3397 88.0922C78.3063 88.1229 78.2717 88.1535 78.2557 88.1642L78.2103 88.1989L78.1557 88.2322C77.853 88.4295 77.4623 88.3882 77.221 88.2789C76.965 88.1722 76.7677 88.0215 76.593 87.8562C76.4223 87.6842 76.2703 87.5109 76.145 87.2815C76.077 87.1522 76.0197 87.0069 76.033 86.8042C76.0543 86.5935 76.189 86.4429 76.269 86.3709C76.3543 86.2895 76.4183 86.2335 76.453 86.1869C76.473 86.1629 76.505 86.1015 76.5317 86.0615L76.6543 86.0442C77.4823 86.4589 77.1797 86.1602 77.1797 86.2535V86.2562L77.0637 86.2602L77.0023 86.2682L76.953 86.3029L76.8983 86.3709L76.6757 86.7309L76.505 86.3935C76.441 86.2655 76.2797 86.1589 76.0877 86.0669C75.9037 85.9615 75.6543 85.9029 75.4877 85.6122C75.3797 85.3482 75.4503 85.0895 75.541 84.8735C75.6423 84.6549 75.793 84.4682 75.9677 84.3122C76.149 84.1589 76.3463 84.0349 76.5823 83.9562C76.8263 83.8842 77.0943 83.9082 77.3143 83.9575C77.5383 84.0042 77.7437 84.0562 77.9437 84.0775L78.097 84.0895L78.1783 84.0949C78.1823 84.0909 78.1957 84.0922 78.2143 84.0869C78.2863 84.0735 78.3837 84.0495 78.4783 84.0175C78.8637 83.8869 79.2663 83.7269 79.6663 83.5722C80.0717 83.4242 80.4717 83.2575 80.8783 83.1029C81.689 82.7869 82.497 82.4669 83.333 82.1709L83.3703 82.2375Z" fill="white"/>
</svg>
