<svg width="167" height="192" viewBox="0 0 167 192" fill="none" xmlns="http://www.w3.org/2000/svg">
<path d="M165.867 48.35C165.297 48.9087 164.141 49.3647 162.359 49.4754C151.461 50.1567 143.342 53.6207 133.678 58.834C123.177 64.502 119.107 71.566 119.107 71.566C119.107 71.566 124.089 49.3207 165.867 48.35Z" fill="#C9A869"/>
<path d="M151.318 161.301C151.318 161.301 149.17 167.59 149.016 173.264C144.76 174.99 139.006 175.376 137.629 172.457C136.996 171.116 137.5 169.721 138.236 168.604L138.394 168.706C138.394 168.706 143.909 171.448 145.902 168.706C147.894 165.96 148.781 163.033 148.337 161.261C147.894 159.489 141.065 145.596 140.273 137.429C141.078 138.173 141.862 138.789 142.576 139.214C145.18 151.482 151.318 161.301 151.318 161.301Z" fill="#C9A869"/>
<path d="M80.4553 117.583C76.9126 119.811 73.4886 121.809 70.7873 122.185C70.7873 122.185 70.942 119.665 71.7926 116.065C71.7926 116.065 93.41 104.133 105.758 112.291C105.758 112.291 105.718 112.353 105.642 112.467C102.742 111.277 98.7286 110.683 94.7166 110.683C90.9126 110.683 85.558 114.373 80.4553 117.583Z" fill="#C9A869"/>
<path d="M107.14 139.214C105.072 145.769 104.381 167.285 103.92 168.662C103.46 170.043 102.308 172.573 100.926 173.263C99.5489 173.954 91.8382 174.185 90.8062 172.918C89.8929 171.806 90.2302 170.154 91.1062 168.595L91.4476 168.706C91.4476 168.706 99.9516 171.611 101.39 168.706C102.83 165.801 104.27 143.058 104.27 143.058C104.27 143.058 97.4276 134.687 96.4209 129.815C95.4116 124.943 86.9876 126.675 83.6702 130.237C80.7782 125.689 80.4822 118.911 80.4556 117.583C85.5569 114.373 90.9116 110.683 94.7169 110.683C98.7289 110.683 102.742 111.277 105.642 112.467C104.801 113.721 99.7782 121.437 99.7782 125.865C99.7782 130.697 102.653 136.911 107.14 139.214Z" fill="#C9A869"/>
<path d="M104.27 143.058C104.27 143.058 102.83 165.801 101.391 168.706C99.951 171.612 91.4484 168.706 91.4484 168.706L91.107 168.596C91.227 168.388 91.355 168.174 91.4924 167.972C92.6444 166.248 95.8684 165.673 97.015 164.521C98.167 163.369 98.5124 147.266 95.407 142.204C92.2977 137.141 86.891 135.298 83.671 130.237C86.9884 126.676 95.4124 124.944 96.4217 129.816C97.427 134.688 104.27 143.058 104.27 143.058Z" fill="#EBCB8F"/>
<path d="M87.2825 34.9038C88.0838 39.0145 82.3318 42.8798 76.6545 48.7878C73.2705 52.3092 70.7905 56.1852 68.1158 59.0198C66.3038 60.9372 64.2012 62.3718 61.5345 62.8985C54.9398 64.2012 51.5878 58.7585 51.4372 54.4625C51.3798 52.8545 51.8932 49.2892 52.6145 44.9878C52.6145 44.9878 65.7225 49.6878 73.5398 38.3585C81.3612 27.0252 63.8465 11.3865 63.8465 11.3865V11.3812C71.8465 18.6985 86.3972 30.3865 87.2825 34.9038Z" fill="#C9A869"/>
<path d="M87.2825 34.9038C88.0838 39.0145 82.3318 42.8798 76.6545 48.7878C73.2705 52.3092 70.7905 56.1852 68.1158 59.0198C66.3038 60.9372 64.2012 62.3718 61.5345 62.8985C54.9398 64.2012 51.5878 58.7585 51.4372 54.4625C51.3798 52.8545 51.8932 49.2892 52.6145 44.9878C52.6145 44.9878 65.7225 49.6878 73.5398 38.3585C81.3612 27.0252 63.8465 11.3865 63.8465 11.3865V11.3812C71.8465 18.6985 86.3972 30.3865 87.2825 34.9038Z" stroke="#C9A869" stroke-miterlimit="10"/>
<path d="M74.928 186.152C72.6253 189.983 70.3267 189.983 67.1067 190.293C63.8827 190.599 61.7347 189.983 60.2013 188.451C59.48 187.729 59.5733 186.493 59.9627 185.227L60.2547 185.315C60.2547 185.315 67.7093 187.583 70.76 184.429C70.76 184.429 67.6907 134.236 70.6053 126.605C70.1667 143.812 71.8413 176.196 74.928 186.152Z" fill="#C9A869"/>
<path d="M52.8941 121.618L55.2847 126.557C45.3154 128.705 35.1807 122.65 35.1807 122.65V122.646C32.5141 120.777 29.4861 116.769 29.2687 116.521C29.5261 116.763 36.6314 123.673 52.8941 121.618Z" fill="#C9A869"/>
<path d="M54.1873 11.9798C54.1473 11.9038 54.1073 11.8291 54.0673 11.7545C54.1127 11.8291 54.1513 11.9038 54.1873 11.9798Z" fill="#BFAA8A"/>
<path d="M163.741 45.7129C159.888 45.2343 136.437 44.0663 109.903 60.9409C94.7159 54.0396 70.7866 62.6489 68.0226 59.1183L67.9039 59.0089C66.0919 60.9263 64.0946 62.3663 61.4279 62.8943C54.8333 64.1956 51.5346 58.7556 51.3839 54.4596C51.3266 52.8516 51.8666 49.2876 52.5879 44.9876C52.5879 44.9876 65.3759 49.6863 73.1933 38.3583C81.0146 27.0236 63.1799 11.3863 63.1799 11.3863V11.3823C57.8466 7.88761 54.5333 5.39429 53.8159 5.14629C52.7839 4.79163 51.3626 5.09694 50.4093 5.52628C49.7679 5.13294 49.0013 4.77829 48.3679 4.45029C48.3639 4.45029 48.2946 4.44628 48.2906 4.44628C47.8999 4.38361 39.8039 3.03296 33.8773 3.85296C27.0879 4.79562 21.8719 7.93561 21.5533 8.13028C21.5533 8.13028 21.5359 8.13562 21.5319 8.13962C20.7879 9.00362 19.9733 9.84895 18.9413 10.5929C15.3413 13.2023 13.0093 14.0529 11.8839 15.8863C11.0999 17.1663 10.8959 18.6503 10.8026 20.1289C10.6519 22.5516 10.8026 24.9516 9.19861 26.3916C13.1893 23.4023 22.3919 19.0663 24.6906 16.4569L24.6866 16.453C23.8799 17.321 22.9279 17.8796 22.9279 17.8796C22.9279 17.8796 22.6573 14.8849 18.4813 14.5436C18.5613 14.3223 18.6626 14.1009 18.7866 13.8889C19.9386 11.9129 22.9053 10.3983 24.8053 12.1663C25.1773 12.5116 25.4306 12.8609 25.5893 13.2023C25.9479 13.9863 25.8066 14.7476 25.4479 15.4169L25.5719 15.4703C25.1159 21.737 9.19861 26.3916 3.46261 34.8156C3.60394 35.7716 3.74127 36.7729 3.59993 37.5129C3.39593 38.5836 2.40927 40.6929 1.77594 42.6716L1.78394 42.6769C1.78394 42.6769 3.52927 46.9809 8.61327 43.6116L8.6186 43.6156C8.83993 43.8329 16.1599 50.9236 26.8386 50.4943C37.7653 50.0556 45.8119 39.3103 45.8119 39.3103L45.8693 39.3236C45.8959 39.2316 45.9186 39.1383 45.9359 39.0449C44.1999 47.2036 40.4226 51.8929 36.1613 54.5156C33.9733 65.9689 45.5333 84.8929 46.1039 94.5836C46.8039 106.413 39.6826 114.2 31.8386 113.614C22.5426 112.924 12.9893 104.713 15.2306 92.2409C16.7053 84.0423 19.8146 70.2956 19.0879 57.1636C17.8573 56.9463 17.1266 56.7383 17.1266 56.7383C18.6359 69.8609 11.9133 92.3649 12.8039 99.6369C13.7239 107.153 13.1093 100.098 17.4053 120.342C21.7013 140.592 16.7933 175.106 15.5666 176.488C14.3359 177.865 8.70261 179.362 7.62527 180.284C7.62527 180.284 18.1266 185.04 20.5626 180.404C22.9986 175.766 24.5493 169.477 25.6559 167.028C26.7639 164.582 30.7386 130.976 34.1933 126.614C34.6893 124.217 35.1799 122.742 35.1799 122.65V122.645C32.5133 120.777 29.4853 116.768 29.2693 116.52C29.5253 116.764 36.7039 123.673 52.9666 121.618L55.1759 126.556C64.2639 151.522 62.3679 180.013 61.6013 181.55C61.1986 182.361 60.3973 183.813 59.9719 185.226L60.2599 185.314C60.2599 185.314 67.7106 187.582 70.7626 184.429C70.7626 184.429 67.6919 134.236 70.6066 126.605C70.6506 124.984 70.7079 123.505 70.7879 122.185C70.7879 122.185 70.9426 119.665 71.7919 116.064C71.7919 116.064 93.4106 104.133 105.757 112.29C105.757 112.29 105.719 112.353 105.643 112.468C107.396 113.189 108.748 114.129 109.443 115.285C111.281 118.349 110.669 120.497 113.123 124.488C115.577 128.474 132.145 137.372 136.132 147.036C140.121 156.7 140.272 166.364 140.272 166.364C140.272 166.364 139.099 167.289 138.235 168.605L138.395 168.706C138.395 168.706 143.908 171.448 145.901 168.706C147.895 165.96 148.78 163.033 148.337 161.261C147.895 159.49 141.065 145.596 140.272 137.429C137.597 134.972 134.669 131.118 133.372 128.168C131.685 124.333 136.897 101.242 119.107 71.4849C119.107 71.4849 124.089 49.5196 165.867 48.1863H165.872C166.872 46.8529 166.084 46.0049 163.741 45.7129Z" fill="#EBCB8F"/>
<path d="M46.1045 94.5837C46.8045 106.413 39.6832 114.2 31.8392 113.614C22.5432 112.924 12.9898 104.713 15.2298 92.2411C16.7058 84.0424 19.8138 70.2957 19.0885 57.1637C20.3418 57.3811 22.1178 57.6024 24.1725 57.6064C27.7472 57.6157 32.1712 56.9691 36.1618 54.5157C33.9738 65.9677 45.5338 84.8931 46.1045 94.5837Z" fill="#F7EBD4"/>
<path d="M45.8698 39.3239C45.8965 39.2306 45.9191 39.1373 45.9365 39.0453C44.2005 47.2026 40.4218 51.8933 36.1618 54.5146C36.3205 53.6599 36.5605 52.8493 36.8885 52.0839C38.1898 51.1626 37.3485 49.0946 38.5751 48.0186C39.7805 46.9639 44.6605 44.3506 45.8698 39.3239Z" fill="#C9A869"/>
<path d="M18.9286 54.9802C18.2246 54.9629 17.4886 54.6309 16.5633 53.1602L16.4886 53.1816C15.966 51.4016 15.138 50.5029 13.7246 49.9362C9.65931 48.5576 10.81 46.4456 8.96865 45.9096C8.95531 45.9056 8.94198 45.9016 8.92865 45.9016L8.93265 45.8749C8.71531 45.2722 8.63531 44.4176 8.61798 43.6162C8.83931 43.8322 16.1606 50.9229 26.8393 50.4936C37.7646 50.0549 45.8126 39.3109 45.8126 39.3109L45.87 39.3242C44.6606 44.3509 39.7806 46.9642 38.5753 48.0176C37.3486 49.0936 38.19 51.1629 36.8873 52.0842C35.8646 52.8056 35.2753 51.7029 33.974 52.2389C32.6673 52.7749 33.6633 54.2322 32.1313 54.7682C30.5993 55.3082 29.7526 54.4616 28.1446 54.7682C26.5326 55.0776 25.842 56.6096 24.3273 56.7336C24.2793 56.7389 24.23 56.7389 24.182 56.7389C22.7593 56.7389 21.962 54.9936 20.6646 54.8656C20.058 54.8029 19.5046 54.9976 18.9286 54.9802Z" fill="#C9A869"/>
<path d="M29.8149 2.14316C34.3815 0.983165 41.0375 0.752498 48.2255 4.44583C47.8362 4.3845 39.7709 3.03383 33.8455 3.8525C27.0562 4.7965 21.8562 7.9365 21.5375 8.13116C22.9362 6.50983 24.1242 4.81783 26.1349 3.59116C26.8029 3.1845 27.5602 2.8245 28.4509 2.53783C28.8802 2.4005 29.3362 2.26716 29.8149 2.14316Z" fill="#FAE3B9"/>
<path d="M33.9736 52.2388C35.2763 51.7028 35.8643 52.8054 36.8883 52.0841C36.5603 52.8494 36.3203 53.6601 36.1616 54.5148C32.171 56.9694 27.747 57.6161 24.1723 57.6068L24.1816 56.7388C24.2296 56.7388 24.279 56.7388 24.327 56.7348C25.8416 56.6108 26.5336 55.0774 28.1456 54.7681C29.7523 54.4614 30.599 55.3081 32.131 54.7681C33.663 54.2321 32.667 52.7748 33.9736 52.2388Z" fill="#EBDCC1"/>
<path d="M34.049 126.614C32.2237 135.454 28.0917 156.842 28.4504 167.74C22.813 175.106 23.885 181.435 23.273 183.272C22.6584 185.115 19.553 185.996 16.4837 186.608C13.4197 187.223 8.0117 186.303 6.9357 184.77C5.8637 183.238 6.55436 181.204 7.62636 180.283C7.62636 180.283 18.1264 185.04 20.5624 180.403C22.9984 175.766 24.549 169.476 25.6557 167.027C26.7637 164.583 30.5944 130.976 34.049 126.614Z" fill="#C9A869"/>
<path d="M29.8149 2.14315C29.3362 2.26715 28.8802 2.40048 28.4509 2.53781C27.5602 2.82448 26.8029 3.18448 26.1349 3.59115C23.9282 2.98848 23.1535 4.85381 21.5242 5.86315C19.0175 7.41381 16.7762 7.60848 11.6335 9.37115C6.40821 11.1605 2.10287 14.9471 1.91754 15.1111C4.37087 9.74715 14.5655 6.60315 17.5602 5.30048C20.5495 3.99381 21.2095 2.14315 23.0829 1.46581C25.8282 0.473812 28.8002 1.38181 29.8149 2.14315Z" fill="#FAE3B9"/>
<path d="M25.5897 13.2022C25.9484 13.9862 25.807 14.7475 25.4484 15.4169C25.2444 15.7929 24.9737 16.1435 24.6857 16.4529C23.8804 17.3209 22.9284 17.8795 22.9284 17.8795C22.9284 17.8795 22.6577 14.8849 18.4817 14.5435C18.5604 14.3222 18.663 14.1009 18.787 13.8889L18.835 13.9195C20.075 12.4355 23.8497 17.8795 25.5897 13.2022Z" fill="#D1D3D4"/>
<path d="M25.4479 15.4165L25.5719 15.4699C25.1159 21.7365 9.19861 26.3912 3.46261 34.8152C3.29861 33.6992 3.12128 32.6405 3.36928 32.1445C3.83061 31.2232 5.44261 29.7659 9.19861 26.3912C13.1893 23.4019 22.3919 19.0659 24.6906 16.4579L24.6866 16.4525C24.9746 16.1432 25.2439 15.7925 25.4479 15.4165Z" fill="#FAE3B9"/>
<path d="M21.524 5.8634C23.1533 4.85407 23.9293 2.98873 26.1346 3.5914C24.124 4.81807 22.9373 6.51007 21.5373 8.1314C21.5373 8.1314 21.528 8.1354 21.524 8.1394C20.78 9.0034 19.9693 9.85007 18.9373 10.5941C15.3373 13.2021 13.0066 14.0527 11.8826 15.8861C11.0986 17.1661 10.8946 18.6501 10.8013 20.1287C5.8813 27.5207 1.78397 22.4047 1.78397 22.4047C1.16397 19.9074 0.854636 17.4314 1.9133 15.1154L1.9173 15.1114C2.10264 14.9474 6.40797 11.1607 11.6346 9.3714C16.776 7.60873 19.0173 7.41407 21.524 5.8634Z" fill="#EBCB8F"/>
<path d="M24.8058 12.1658C25.1778 12.5112 25.4298 12.8605 25.5898 13.2018C23.8498 17.8792 20.0752 12.4365 18.8352 13.9192L18.7872 13.8885C19.9378 11.9138 22.9058 10.3992 24.8058 12.1658Z" fill="white"/>
<path d="M24.1813 56.7386L24.172 57.6066C22.1173 57.6026 20.3413 57.3812 19.088 57.1639C19.048 56.4332 18.9946 55.7066 18.928 54.9799C19.504 54.9986 20.0586 54.8026 20.6653 54.8652C21.9626 54.9932 22.76 56.7386 24.1813 56.7386Z" fill="#EBDCC1"/>
<path d="M18.9286 54.9802C18.9953 55.7069 19.0486 56.4322 19.0886 57.1642C17.8566 56.9469 17.126 56.7389 17.126 56.7389C17.0726 56.3002 17.0153 55.8749 16.9446 55.4589C16.8246 54.5682 16.674 53.8202 16.4886 53.1815L16.5633 53.1602C17.4886 54.6309 18.2246 54.9629 18.9286 54.9802Z" fill="#C9A869"/>
<path d="M10.8016 20.129C10.6509 22.5516 10.8016 24.9516 9.19891 26.3916C5.44291 29.7663 3.83091 31.2236 3.36957 32.145C3.93624 29.049 2.59491 25.701 1.78424 22.405C1.78424 22.405 5.88157 27.521 10.8016 20.129" fill="#C9A869"/>
<path d="M8.93247 45.8742L8.92847 45.9009C7.11247 45.4316 5.96447 49.2489 4.06047 49.4756C2.14314 49.7049 1.2218 47.4062 1.2218 45.4142C1.2218 44.6302 1.45247 43.6649 1.77514 42.6729L1.78447 42.6769C1.78447 42.6769 3.5298 46.9809 8.6138 43.6116L8.6178 43.6156C8.63513 44.4169 8.71513 45.2716 8.93247 45.8742Z" fill="#C9A869"/>
<path d="M80.4553 117.583C80.4819 118.912 80.7779 125.688 83.6713 130.236C86.8899 135.299 92.2979 137.142 95.4073 142.203C98.5126 147.266 98.1659 163.37 97.0153 164.52C95.8686 165.672 92.6433 166.248 91.4926 167.971C91.3553 168.175 91.2259 168.387 91.1073 168.595C90.2299 170.155 89.8939 171.807 90.8059 172.918C91.8379 174.184 99.5486 173.955 100.926 173.263C102.307 172.572 103.459 170.044 103.919 168.662C104.381 167.284 105.071 145.768 107.139 139.214C102.653 136.911 99.7793 130.698 99.7793 125.866C99.7793 121.436 104.801 113.722 105.642 112.467" stroke="black" stroke-width="0.664" stroke-miterlimit="10" stroke-linejoin="round"/>
<path d="M165.872 48.3501C166.873 47.3754 166.084 46.0874 163.741 45.7941C159.888 45.3167 136.437 44.1074 109.904 60.9821C94.7171 54.0807 70.7864 62.6687 68.0237 59.1394" stroke="black" stroke-width="0.664" stroke-miterlimit="10"/>
<path d="M34.5135 122.853V122.649C34.5135 122.649 44.9815 128.704 54.9509 126.556C64.0389 151.521 62.2562 180.013 61.4895 181.551C61.0869 182.36 60.3402 183.813 59.9149 185.227C59.5255 186.493 59.4562 187.728 60.1789 188.451C61.7109 189.983 63.8709 190.599 67.0949 190.293C70.3149 189.983 72.6189 189.983 74.9215 186.152C71.8349 176.196 70.1642 143.811 70.6029 126.605C70.6469 124.984 70.7055 123.504 70.7855 122.185C73.4869 121.808 76.9109 119.811 80.4549 117.583C85.5562 114.372 90.9122 110.683 94.7162 110.683C98.7282 110.683 102.742 111.276 105.643 112.468C107.396 113.189 108.747 114.128 109.443 115.284C111.28 118.349 110.67 120.497 113.123 124.488C115.576 128.473 132.146 137.372 136.131 147.036C140.122 156.699 140.272 166.363 140.272 166.363C140.272 166.363 139.099 167.289 138.235 168.604C137.5 169.72 136.995 171.116 137.628 172.457C139.006 175.376 144.759 174.991 149.015 173.264C149.17 167.591 151.318 161.301 151.318 161.301C151.318 161.301 145.18 151.481 142.575 139.213C141.863 138.789 141.079 138.173 140.272 137.429C137.598 134.971 134.67 131.117 133.372 128.168C131.684 124.332 136.898 101.324 119.107 71.5668C119.107 71.5668 123.176 64.5028 133.678 58.8335C143.342 53.6201 151.46 50.1575 162.359 49.4748C164.14 49.3641 165.107 49.0121 165.679 48.4548" stroke="black" stroke-miterlimit="10"/>
<path d="M21.524 8.13988C20.78 9.00388 19.9693 9.84921 18.9373 10.5932C15.3373 13.2025 13.0066 14.0519 11.8826 15.8865C11.0986 17.1665 10.8946 18.6492 10.8013 20.1292C10.6506 22.5519 10.8013 24.9519 9.19865 26.3919C5.44265 29.7665 3.83065 31.2239 3.36931 32.1452C3.12131 32.6412 3.29865 33.6985 3.46265 34.8159C3.60398 35.7719 3.74131 36.7732 3.59998 37.5119C3.39598 38.5839 2.40931 40.6919 1.77598 42.6719C1.45198 43.6639 1.22131 44.6292 1.22131 45.4132C1.22131 47.4065 2.14265 49.7052 4.06131 49.4745C5.96531 49.2492 7.11198 45.4319 8.92798 45.9012C8.94131 45.9012 8.95465 45.9052 8.96798 45.9092C10.8106 46.4452 9.65865 48.5585 13.724 49.9359C15.1373 50.5025 15.9653 51.4012 16.488 53.1825C16.6746 53.8199 16.8253 54.5679 16.944 55.4585C17.016 55.8745 17.0733 56.2999 17.1266 56.7385C18.636 69.8612 11.9133 92.3652 12.804 99.6372C13.724 107.153 13.1093 100.097 17.4053 120.343C21.7013 140.592 16.7933 175.107 15.5666 176.488C14.336 177.865 8.70265 179.363 7.62665 180.284C6.55465 181.205 5.86265 183.237 6.93465 184.771C8.01198 186.303 13.4186 187.224 16.484 186.608C19.5533 185.997 22.6573 185.116 23.2733 183.273C23.884 181.435 22.8133 175.107 28.4506 167.741C28.092 156.841 32.224 135.453 34.0493 126.613C34.5453 124.217 34.868 122.743 34.8906 122.649" stroke="black" stroke-width="0.664" stroke-miterlimit="10"/>
<path d="M48.226 4.44614C41.038 0.752804 34.3806 0.982137 29.8153 2.14347C29.3366 2.26747 28.8806 2.39947 28.4513 2.5368C27.5606 2.8248 26.8033 3.18347 26.134 3.59147C24.1233 4.81814 22.9366 6.51014 21.5366 8.13147" stroke="black" stroke-width="0.664" stroke-miterlimit="10"/>
<path d="M50.1527 5.52679C49.51 5.13213 48.8727 4.77879 48.2393 4.45079" stroke="black" stroke-width="0.664" stroke-miterlimit="10"/>
<path d="M54.1873 11.9797C55.122 13.8491 55.9407 16.8024 55.906 21.4051C55.866 26.7584 53.9167 37.1144 52.5887 44.9891C51.866 49.2891 51.326 52.8544 51.3833 54.4624C51.534 58.7584 54.834 64.2011 61.4287 62.8997C64.0953 62.3717 66.0926 60.9371 67.9033 59.0197C70.5793 56.1851 72.846 52.3091 76.23 48.7891C81.9073 42.8797 87.2353 39.0144 86.434 34.9037C85.5486 30.3864 71.6953 18.6984 62.15 11.3824C57.598 7.88774 54.0193 5.3944 53.302 5.1464C52.27 4.79173 51.1047 5.09707 50.1527 5.5264C49.054 6.0224 48.2393 6.6824 48.2393 6.6824" stroke="black" stroke-width="0.664" stroke-miterlimit="10" stroke-linecap="round"/>
<path d="M51.6141 8.98136C51.6141 8.98136 52.9074 9.54802 54.0674 11.7534" stroke="black" stroke-width="0.664" stroke-miterlimit="10" stroke-linecap="round"/>
<path d="M1.91263 15.1154C0.853961 17.4314 1.16463 19.9074 1.78463 22.4048C2.59529 25.7008 3.93663 29.0488 3.36996 32.1448" stroke="black" stroke-width="0.664" stroke-miterlimit="10"/>
<path d="M29.8326 2.1563C29.8286 2.1523 29.8233 2.14696 29.8153 2.14296C28.8006 1.38163 25.8286 0.47363 23.0833 1.46563C21.21 2.14296 20.55 3.99496 17.5606 5.3003C14.566 6.60296 4.37129 9.74696 1.91663 15.111" stroke="black" stroke-width="0.664" stroke-miterlimit="10"/>
<path d="M9.19824 26.3915C13.1889 23.4022 22.3916 19.0662 24.6902 16.4569" stroke="black" stroke-width="0.664" stroke-miterlimit="10"/>
<path d="M16.5635 53.1599C17.4889 54.6305 18.2249 54.9625 18.9289 54.9799C19.5049 54.9985 20.0582 54.8025 20.6649 54.8652C21.9622 54.9932 22.7595 56.7385 24.1809 56.7385C24.2302 56.7385 24.2782 56.7385 24.3275 56.7345C25.8422 56.6105 26.5329 55.0772 28.1449 54.7679C29.7529 54.4625 30.5982 55.3079 32.1315 54.7679C33.6635 54.2319 32.6675 52.7745 33.9742 52.2385C35.2755 51.7025 35.8649 52.8052 36.8875 52.0839C38.1902 51.1625 37.3489 49.0945 38.5755 48.0185C39.7795 46.9639 44.6609 44.3505 45.8702 39.3239C45.8969 39.2305 45.9182 39.1385 45.9355 39.0452C46.8569 34.6732 45.6302 29.6119 44.3235 28.6145" stroke="black" stroke-width="0.664" stroke-miterlimit="10" stroke-linecap="round"/>
<path d="M8.70222 41.348C8.70222 41.348 8.59155 42.4293 8.61822 43.616C8.63555 44.4173 8.71555 45.272 8.93289 45.8746" stroke="black" stroke-width="0.664" stroke-miterlimit="10"/>
<path d="M24.6862 16.4528C23.8796 17.3208 22.9276 17.8795 22.9276 17.8795C22.9276 17.8795 22.6582 14.8849 18.4809 14.5435C18.5609 14.3222 18.6622 14.1009 18.7876 13.8889C19.9382 11.9129 22.9062 10.3982 24.8062 12.1662C25.1782 12.5115 25.4302 12.8609 25.5902 13.2022C25.9489 13.9862 25.8062 14.7475 25.4476 15.4168C25.2449 15.7928 24.9742 16.1435 24.6862 16.4528Z" stroke="black" stroke-width="0.664" stroke-miterlimit="10" stroke-linejoin="round"/>
<path d="M41.5455 30.6998C41.4549 30.6998 41.3629 30.6718 41.2842 30.6145C41.0869 30.4692 41.0442 30.1932 41.1882 29.9958C41.2135 29.9625 43.6829 26.6718 47.6895 28.5145C47.9122 28.6172 48.0095 28.8798 47.9069 29.1025C47.8055 29.3238 47.5442 29.4225 47.3189 29.3198C43.9802 27.7825 41.9855 30.4078 41.9029 30.5198C41.8149 30.6372 41.6815 30.6998 41.5455 30.6998Z" fill="black"/>
<path d="M14.0302 32.1446C12.9849 32.326 10.7796 32.854 7.78489 32.2606C4.31289 31.5753 2.48889 33.5206 2.48889 33.5206H2.47955C2.57289 32.1873 3.27689 30.83 4.44622 30.3433C5.90355 29.7273 7.91822 30.578 9.50355 30.7806C11.0009 30.9766 15.1329 29.982 17.4449 31.5233C17.7502 31.726 18.0382 31.978 18.2862 32.2926C16.5196 31.4726 15.0716 31.9633 14.0302 32.1446Z" fill="#C49661"/>
<path d="M2.48834 34.1868C2.48834 34.1868 4.31368 31.9081 7.78568 32.5948C10.779 33.1881 12.9843 32.5508 14.0297 32.3695C15.071 32.1881 16.519 31.5708 18.2857 32.3895C18.4497 32.5855 18.5963 32.7455 18.7243 32.9761C18.007 34.3495 15.407 34.7855 12.4977 34.8388C10.5883 34.8748 8.54701 35.2481 6.80701 35.0708C6.67768 34.9161 6.44834 34.1868 6.12834 35.5201H6.12434C4.00701 34.1868 2.48834 34.9308 2.48834 34.9308C2.46568 34.7188 2.46168 34.1868 2.47901 34.1868H2.48834Z" fill="#9C774D"/>
<path d="M2.48834 34.1868C2.48834 34.1868 4.31368 31.9081 7.78568 32.5948C10.779 33.1881 12.9843 32.5508 14.0297 32.3695C15.071 32.1881 16.519 31.5708 18.2857 32.3895C18.4497 32.5855 18.5963 32.7455 18.7243 32.9761C18.007 34.3495 15.407 34.7855 12.4977 34.8388C10.5883 34.8748 8.54701 35.2481 6.80701 35.0708C6.67768 34.9161 6.44834 34.1868 6.12834 35.5201H6.12434C4.00701 34.1868 2.48834 34.9308 2.48834 34.9308C2.46568 34.7188 2.46168 34.1868 2.47901 34.1868H2.48834Z" stroke="#9C774D" stroke-miterlimit="10"/>
<path d="M14.1853 40.5818C13.9946 40.5592 13.8226 40.5058 13.6626 40.4352C13.6759 40.4312 13.6853 40.4272 13.6853 40.4272L12.3999 39.0365L12.3959 39.0272C12.3599 38.9432 12.3426 38.8938 12.3426 38.8938C12.3426 38.8938 12.2413 37.4592 13.0159 36.1618C13.3266 35.6392 12.9586 35.2045 12.5026 35.2045L12.4973 34.8112C15.4079 34.7578 18.0079 34.2925 18.7253 32.9192C19.3226 33.9738 19.5573 35.3338 19.0919 36.5912C18.3266 38.6645 15.5093 40.7325 14.1853 40.5818Z" fill="#826340"/>
<path d="M6.62946 35.4813C5.99613 36.1506 5.6988 37.52 5.56146 37.52H5.55746C5.7708 37.52 5.17613 35.1733 5.8548 34.6986C5.95213 34.632 6.04013 34.8533 6.12413 34.8533H6.12946C6.34546 34.8533 6.57213 34.6453 6.8068 34.6666C7.00146 34.9146 6.95213 35.14 6.62946 35.4813Z" fill="black"/>
<path d="M12.4003 39.0362L13.6843 40.4268C13.6843 40.4268 13.6763 40.4308 13.663 40.4362C12.927 40.1082 12.5377 39.3508 12.4003 39.0362Z" fill="#9C774D"/>
<path d="M12.5022 35.205C12.9582 35.205 13.3262 35.6396 13.0156 36.1623C12.2409 37.4596 12.3422 38.8943 12.3422 38.8943C11.7049 37.8583 11.4436 35.8076 12.0369 35.365C12.1876 35.2543 12.3476 35.205 12.5022 35.205Z" fill="black"/>
<path d="M12.3959 39.0273L12.3999 39.0367C12.5373 39.35 12.9279 40.1073 13.6626 40.4353C13.3879 40.546 10.5973 41.6447 9.1226 41.5033C7.56794 41.3473 5.4426 38.894 5.4426 38.894C5.4426 38.894 5.41994 38.4033 5.5626 37.7473C5.69994 37.0873 5.99594 36.2633 6.62927 35.5953C6.95327 35.254 7.00127 34.7713 6.8066 34.5233C8.5466 34.7007 10.5893 34.846 12.4973 34.8113L12.5026 35.2047C12.3466 35.2047 12.1879 35.254 12.0373 35.3647C11.4439 35.8073 11.7053 37.858 12.3426 38.894C12.3426 38.894 12.3599 38.9433 12.3959 39.0273Z" fill="#826340"/>
<path d="M6.12465 34.4521C6.04065 34.4921 5.95131 34.5455 5.85398 34.6121C5.17665 35.0855 5.76998 37.0615 5.55798 37.7468C5.53131 37.8321 5.49531 37.8935 5.44198 37.9335C4.44598 38.7001 2.64331 35.3068 2.48865 33.9468C2.48865 33.9468 4.00731 34.2135 6.12465 34.4521Z" fill="#826340"/>
<path d="M6.12904 34.452C6.4477 34.3107 6.67837 34.368 6.80637 34.5227C7.00104 34.7707 6.95304 35.2534 6.62904 35.5947C5.9957 36.264 5.6997 37.0867 5.56237 37.7467C5.42104 38.4027 5.44237 38.8947 5.44237 38.8947C5.44237 38.8947 7.56904 41.348 9.12237 41.5027C10.5984 41.644 13.3877 40.5467 13.6624 40.436C13.6757 40.4307 13.685 40.4267 13.685 40.4267" stroke="black" stroke-width="0.664" stroke-miterlimit="10" stroke-linecap="round"/>
<path d="M12.4003 39.036C12.5377 39.3507 12.927 40.108 13.663 40.436C13.8217 40.5067 13.995 40.56 14.1857 40.5813C15.5097 40.732 18.3257 38.664 19.0923 36.5907C19.5577 35.3333 19.323 33.9733 18.7243 32.92C18.5963 32.6893 18.4497 32.472 18.287 32.2773C18.039 31.9627 17.751 31.6973 17.4443 31.4933C15.1323 29.952 11.0003 30.9173 9.50434 30.7227C7.91768 30.5187 5.90301 29.6107 4.44568 30.2267C3.27634 30.7147 2.57234 32.06 2.47901 33.2867C2.46168 33.5133 2.46568 33.7347 2.48834 33.9467C2.64301 35.3067 4.44568 38.7 5.44301 37.9333C5.49501 37.8933 5.53101 37.832 5.55768 37.7467C5.76968 37.0613 5.17634 35.0853 5.85501 34.612C5.95234 34.5453 6.04034 34.492 6.12434 34.452" stroke="black" stroke-width="0.664" stroke-miterlimit="10" stroke-linecap="round"/>
<path d="M12.3428 38.8943C11.7054 37.8583 11.4441 35.8076 12.0374 35.3649C12.1881 35.2543 12.3468 35.2049 12.5028 35.2049C12.9588 35.2049 13.3254 35.6396 13.0161 36.1623C12.2414 37.4596 12.3428 38.8943 12.3428 38.8943ZM12.3428 38.8943C12.3428 38.8943 12.3601 38.9436 12.3961 39.0276" stroke="black" stroke-width="0.664" stroke-miterlimit="10" stroke-linecap="round"/>
<path d="M12.4004 39.0361L12.3964 39.0267L12.343 38.9694" stroke="black" stroke-width="0.664" stroke-miterlimit="10" stroke-linecap="round"/>
<path d="M27.99 9.39825C27.8793 9.39825 27.77 9.35692 27.6833 9.27559C26.2353 7.89025 24.3686 9.02225 24.35 9.03425C24.1433 9.16359 23.87 9.09959 23.7406 8.89159C23.6113 8.68359 23.6753 8.41025 23.8833 8.28092C24.7313 7.75425 26.7446 7.15159 28.2966 8.63559C28.4726 8.80492 28.4793 9.08492 28.31 9.26092C28.2233 9.35292 28.106 9.39825 27.99 9.39825Z" fill="black"/>
<path d="M50.845 13.6429C50.6357 13.6429 50.4504 13.4949 50.4104 13.2815C50.257 12.4629 49.917 11.8776 49.401 11.5416C48.5944 11.0189 47.585 11.2509 47.5744 11.2522C47.3397 11.3096 47.0984 11.1642 47.041 10.9269C46.9837 10.6896 47.1277 10.4509 47.365 10.3922C47.421 10.3789 48.7424 10.0642 49.8744 10.7936C50.6064 11.2642 51.0797 12.0469 51.281 13.1189C51.3264 13.3589 51.1677 13.5909 50.9277 13.6349C50.8997 13.6402 50.8717 13.6429 50.845 13.6429Z" fill="black"/>
<path d="M44.9796 16.1827C46.7649 17.3347 47.3316 19.6201 47.0476 20.9841C44.6036 20.2041 42.3182 20.6201 40.3822 21.3201L40.0409 20.3947C42.8676 19.4161 45.9676 18.8934 44.9796 16.1827Z" fill="#D1D3D4"/>
<path d="M44.9796 16.1827C45.9676 18.8934 42.8676 19.4161 40.0409 20.3947C39.2222 20.6787 38.4289 21.0014 37.7609 21.4267L37.4542 21.4401C37.0956 19.6147 37.8049 16.0587 41.4502 15.5401C42.9462 15.3241 44.1076 15.6201 44.9796 16.1827Z" fill="white"/>
<path d="M40.0413 20.3947L40.3827 21.3201C39.4653 21.6521 38.624 22.0467 37.884 22.4054C37.6947 22.2374 37.5387 21.8921 37.4547 21.4401L37.76 21.4267C38.4293 21.0014 39.2213 20.6787 40.0413 20.3947Z" fill="#D1D3D4"/>
<path d="M40.3824 21.3204C39.465 21.6524 38.6237 22.047 37.885 22.4057C37.6944 22.2364 37.5384 21.891 37.4544 21.4404C37.0957 19.615 37.805 16.059 41.4504 15.5404C42.9464 15.323 44.1077 15.6204 44.9797 16.183C46.765 17.3337 47.3317 19.619 47.0477 20.9844C44.6037 20.2044 42.3184 20.6204 40.3824 21.3204Z" stroke="black" stroke-width="0.664" stroke-miterlimit="10" stroke-linejoin="round"/>
<path d="M42.1401 18.9948C41.2961 18.9948 40.6108 19.6814 40.6108 20.5241C40.6108 20.7548 40.6654 20.9828 40.7748 21.2028C40.7948 21.2414 40.8334 21.2641 40.8748 21.2641C40.8854 21.2641 40.8974 21.2628 40.9081 21.2588C41.8161 20.9654 42.7081 20.7814 43.5601 20.7108C43.6148 20.7068 43.6614 20.6388 43.6654 20.5841C43.6681 20.5641 43.6694 20.5441 43.6694 20.5241C43.6694 19.6814 42.9841 18.9948 42.1401 18.9948Z" fill="black"/>
<path d="M22.0459 14.4697C21.5499 14.4697 21.0833 14.7137 20.7966 15.1217C20.7779 15.147 20.7713 15.1803 20.7793 15.211C20.7859 15.2417 20.8073 15.2683 20.8353 15.283C21.9339 15.8563 22.4299 16.675 22.6513 17.2603C22.6633 17.291 22.6873 17.315 22.7179 17.3257C22.7299 17.331 22.7419 17.3323 22.7553 17.3323C22.7739 17.3323 22.7939 17.327 22.8113 17.3177C23.2899 17.039 23.5753 16.5457 23.5753 15.999C23.5753 15.1563 22.8899 14.4697 22.0459 14.4697Z" fill="black"/>
<path d="M55.3271 127.314C55.1538 127.314 54.9911 127.213 54.9191 127.043C51.8738 119.861 48.3404 116.01 46.5071 114.354C46.3258 114.19 46.3111 113.91 46.4751 113.729C46.6391 113.547 46.9191 113.533 47.1004 113.697C48.9884 115.402 52.6218 119.358 55.7351 126.698C55.8298 126.923 55.7244 127.183 55.4991 127.279C55.4431 127.303 55.3844 127.314 55.3271 127.314Z" fill="black"/>
<path d="M70.7589 122.724C70.7443 122.724 70.7309 122.723 70.7163 122.722C70.4723 122.699 70.2936 122.483 70.3176 122.239C70.9869 115.255 73.1776 110.616 74.2429 109.139C74.3856 108.94 74.6629 108.895 74.8603 109.039C75.0589 109.182 75.1043 109.459 74.9616 109.658C73.9456 111.067 71.8509 115.528 71.1989 122.324C71.1776 122.552 70.9843 122.724 70.7589 122.724Z" fill="black"/>
<path d="M35.1478 123.21C35.0558 123.21 34.9625 123.18 34.8825 123.122C30.6918 119.992 27.9905 116.48 27.8772 116.332C27.7292 116.138 27.7665 115.859 27.9598 115.711C28.1545 115.562 28.4332 115.6 28.5812 115.794C28.6078 115.83 31.3252 119.36 35.4132 122.411C35.6092 122.558 35.6492 122.835 35.5025 123.031C35.4158 123.148 35.2825 123.21 35.1478 123.21Z" fill="black"/>
<path d="M61.5832 181.991C61.4099 181.991 61.2459 181.888 61.1752 181.719C61.0805 181.494 61.1859 181.235 61.4112 181.14C61.6565 181.038 67.4299 178.652 70.5872 180.96C70.7845 181.104 70.8285 181.382 70.6832 181.579C70.5405 181.778 70.2632 181.82 70.0645 181.675C67.3125 179.663 61.8099 181.932 61.7539 181.956C61.6979 181.98 61.6405 181.991 61.5832 181.991Z" fill="black"/>
<path d="M19.4766 45.4508C19.4766 45.7054 19.27 45.9108 19.0166 45.9108C18.762 45.9108 18.5566 45.7054 18.5566 45.4508C18.5566 45.1961 18.762 44.9908 19.0166 44.9908C19.27 44.9908 19.4766 45.1961 19.4766 45.4508Z" fill="black"/>
<path d="M19.0162 45.0458C18.7936 45.0458 18.6122 45.2271 18.6122 45.4511C18.6122 45.6738 18.7936 45.8551 19.0162 45.8551C19.2389 45.8551 19.4216 45.6738 19.4216 45.4511C19.4216 45.2271 19.2389 45.0458 19.0162 45.0458ZM19.0162 45.9658C18.7322 45.9658 18.5002 45.7351 18.5002 45.4511C18.5002 45.1658 18.7322 44.9351 19.0162 44.9351C19.3002 44.9351 19.5322 45.1658 19.5322 45.4511C19.5322 45.7351 19.3002 45.9658 19.0162 45.9658Z" fill="black"/>
<path d="M25.574 40.964C25.574 41.2186 25.3673 41.424 25.114 41.424C24.8593 41.424 24.654 41.2186 24.654 40.964C24.654 40.7093 24.8593 40.504 25.114 40.504C25.3673 40.504 25.574 40.7093 25.574 40.964Z" fill="black"/>
<path d="M25.1137 40.5591C24.8911 40.5591 24.7097 40.7405 24.7097 40.9645C24.7097 41.1871 24.8911 41.3685 25.1137 41.3685C25.3377 41.3685 25.5191 41.1871 25.5191 40.9645C25.5191 40.7405 25.3377 40.5591 25.1137 40.5591ZM25.1137 41.4791C24.8297 41.4791 24.5977 41.2485 24.5977 40.9645C24.5977 40.6791 24.8297 40.4485 25.1137 40.4485C25.3977 40.4485 25.6297 40.6791 25.6297 40.9645C25.6297 41.2485 25.3977 41.4791 25.1137 41.4791Z" fill="black"/>
<path d="M27.7598 47.6364C27.7598 47.8911 27.5531 48.0964 27.2998 48.0964C27.0451 48.0964 26.8398 47.8911 26.8398 47.6364C26.8398 47.3818 27.0451 47.1764 27.2998 47.1764C27.5531 47.1764 27.7598 47.3818 27.7598 47.6364Z" fill="black"/>
<path d="M27.2997 47.2316C27.0757 47.2316 26.8944 47.4129 26.8944 47.6369C26.8944 47.8596 27.0757 48.0409 27.2997 48.0409C27.5224 48.0409 27.7037 47.8596 27.7037 47.6369C27.7037 47.4129 27.5224 47.2316 27.2997 47.2316ZM27.2997 48.1516C27.0157 48.1516 26.7837 47.9209 26.7837 47.6369C26.7837 47.3516 27.0157 47.1209 27.2997 47.1209C27.5837 47.1209 27.8157 47.3516 27.8157 47.6369C27.8157 47.9209 27.5837 48.1516 27.2997 48.1516Z" fill="black"/>
<path d="M7.62729 180.726C7.47263 180.726 7.32196 180.644 7.24063 180.5C7.12063 180.287 7.19663 180.016 7.40996 179.896C7.71129 179.727 14.858 175.782 19.298 179.432C19.486 179.587 19.514 179.867 19.358 180.055C19.2033 180.244 18.9246 180.272 18.7353 180.116C14.758 176.847 7.91263 180.63 7.84463 180.668C7.7753 180.707 7.70063 180.726 7.62729 180.726Z" fill="black"/>
<path d="M101.39 167.472C101.315 167.472 101.239 167.454 101.17 167.414C97.0568 165.056 93.0061 167.19 92.9661 167.211C92.7501 167.328 92.4821 167.247 92.3661 167.031C92.2501 166.816 92.3301 166.547 92.5448 166.431C92.7288 166.332 97.0741 164.046 101.611 166.646C101.823 166.767 101.897 167.038 101.774 167.25C101.693 167.392 101.543 167.472 101.39 167.472Z" fill="black"/>
<path d="M145.901 167.091C145.819 167.091 145.737 167.068 145.662 167.022C143.678 165.75 140.442 166.774 140.41 166.784C140.177 166.858 139.927 166.731 139.853 166.499C139.777 166.266 139.903 166.016 140.137 165.942C140.285 165.892 143.801 164.776 146.139 166.275C146.346 166.407 146.406 166.682 146.274 166.887C146.19 167.019 146.047 167.091 145.901 167.091Z" fill="black"/>
<path d="M11.1878 182.666C11.1878 182.666 10.9785 182.817 10.7438 183.109C10.6278 183.254 10.5025 183.433 10.3985 183.637C10.3412 183.735 10.2945 183.843 10.2492 183.954C10.1998 184.062 10.1718 184.181 10.1318 184.293C10.0998 184.409 10.0758 184.526 10.0492 184.638C10.0332 184.754 10.0185 184.867 10.0038 184.977C9.99182 185.199 9.98382 185.403 9.99982 185.579C10.0012 185.754 10.0332 185.901 10.0438 186.002L10.0652 186.161L9.18115 186.217C9.18115 186.217 9.18649 186.147 9.19715 186.027C9.20915 185.907 9.21182 185.738 9.25315 185.534C9.28115 185.331 9.34115 185.098 9.41049 184.853C9.45449 184.733 9.50115 184.61 9.54649 184.485C9.60382 184.363 9.65982 184.241 9.72249 184.122C9.98249 183.647 10.3398 183.249 10.6465 183.01C10.9518 182.766 11.1878 182.666 11.1878 182.666Z" fill="black"/>
<path d="M15.6166 183.552C15.6166 183.552 15.4073 183.703 15.1726 183.995C15.0566 184.14 14.9313 184.319 14.8273 184.523C14.7713 184.621 14.7233 184.729 14.6779 184.84C14.6273 184.948 14.6006 185.067 14.5606 185.179C14.5286 185.295 14.5046 185.412 14.4779 185.524C14.4619 185.64 14.4473 185.753 14.4326 185.863C14.4206 186.085 14.4126 186.289 14.4286 186.465C14.4299 186.64 14.4619 186.787 14.4726 186.888C14.4859 186.989 14.4939 187.047 14.4939 187.047L13.6099 187.103C13.6099 187.103 13.6153 187.033 13.6259 186.913C13.6379 186.793 13.6406 186.624 13.6819 186.42C13.7099 186.217 13.7699 185.984 13.8393 185.739C13.8833 185.619 13.9299 185.496 13.9753 185.371C14.0326 185.249 14.0886 185.127 14.1513 185.008C14.4113 184.533 14.7686 184.135 15.0753 183.896C15.3806 183.652 15.6166 183.552 15.6166 183.552Z" fill="black"/>
<path d="M64.2308 186.499C64.2308 186.499 64.0748 186.705 63.9348 187.053C63.8654 187.225 63.7988 187.431 63.7574 187.658C63.7334 187.769 63.7188 187.886 63.7081 188.005C63.6908 188.122 63.7001 188.245 63.6934 188.363C63.6974 188.483 63.7081 188.602 63.7161 188.718C63.7348 188.833 63.7534 188.946 63.7708 189.055C63.8241 189.271 63.8761 189.469 63.9428 189.633C63.9948 189.799 64.0681 189.93 64.1081 190.023C64.1508 190.117 64.1748 190.169 64.1748 190.169L63.3454 190.479C63.3454 190.479 63.3308 190.413 63.3041 190.295C63.2814 190.177 63.2348 190.013 63.2161 189.806C63.1828 189.605 63.1721 189.363 63.1681 189.109C63.1748 188.982 63.1828 188.85 63.1908 188.717C63.2094 188.583 63.2281 188.45 63.2534 188.318C63.3641 187.79 63.5881 187.303 63.8134 186.986C64.0334 186.665 64.2308 186.499 64.2308 186.499Z" fill="black"/>
<path d="M68.724 186.508C68.724 186.508 68.5613 186.708 68.4107 187.051C68.3347 187.222 68.2613 187.426 68.212 187.65C68.184 187.76 68.1667 187.878 68.1507 187.995C68.1307 188.112 68.1347 188.235 68.124 188.354C68.124 188.472 68.1307 188.592 68.1347 188.708C68.1493 188.824 68.164 188.938 68.1787 189.047C68.224 189.266 68.2693 189.464 68.3307 189.631C68.3773 189.799 68.4453 189.932 68.4827 190.027C68.5227 190.12 68.5453 190.174 68.5453 190.174L67.7053 190.456C67.7053 190.456 67.6933 190.39 67.6707 190.271C67.652 190.151 67.6107 189.987 67.5987 189.779C67.572 189.576 67.5693 189.335 67.5733 189.08C67.5853 188.954 67.5973 188.823 67.6093 188.69C67.6333 188.558 67.656 188.424 67.6853 188.294C67.8133 187.768 68.0547 187.291 68.2907 186.982C68.5213 186.667 68.724 186.508 68.724 186.508Z" fill="black"/>
<path d="M94.4516 170.265C94.4516 170.265 94.2422 170.416 94.0076 170.708C93.8916 170.853 93.7662 171.032 93.6622 171.236C93.6062 171.334 93.5582 171.442 93.5129 171.553C93.4636 171.661 93.4356 171.78 93.3956 171.892C93.3636 172.008 93.3396 172.125 93.3129 172.237C93.2969 172.353 93.2822 172.466 93.2676 172.576C93.2556 172.798 93.2476 173.002 93.2636 173.178C93.2649 173.353 93.2969 173.5 93.3076 173.601C93.3209 173.702 93.3289 173.76 93.3289 173.76L92.4449 173.816C92.4449 173.816 92.4502 173.746 92.4609 173.626C92.4729 173.506 92.4756 173.337 92.5169 173.133C92.5449 172.93 92.6049 172.697 92.6742 172.452C92.7182 172.332 92.7649 172.209 92.8102 172.084C92.8676 171.962 92.9236 171.84 92.9862 171.721C93.2462 171.246 93.6036 170.848 93.9102 170.609C94.2156 170.365 94.4516 170.265 94.4516 170.265Z" fill="black"/>
<path d="M97.9948 170.265C97.9948 170.265 97.7854 170.416 97.5508 170.708C97.4348 170.853 97.3094 171.032 97.2054 171.236C97.1481 171.334 97.1014 171.442 97.0561 171.553C97.0068 171.661 96.9788 171.78 96.9388 171.892C96.9068 172.008 96.8828 172.125 96.8561 172.237C96.8401 172.353 96.8254 172.466 96.8108 172.576C96.7988 172.798 96.7908 173.002 96.8068 173.178C96.8081 173.353 96.8401 173.5 96.8508 173.601C96.8641 173.702 96.8721 173.76 96.8721 173.76L95.9881 173.816C95.9881 173.816 95.9934 173.746 96.0041 173.626C96.0161 173.506 96.0188 173.337 96.0601 173.133C96.0881 172.93 96.1481 172.697 96.2174 172.452C96.2614 172.332 96.3081 172.209 96.3534 172.084C96.4108 171.962 96.4668 171.84 96.5294 171.721C96.7894 171.246 97.1468 170.848 97.4534 170.609C97.7588 170.365 97.9948 170.265 97.9948 170.265Z" fill="black"/>
<path d="M140.955 170.708C140.955 170.708 140.746 170.859 140.511 171.151C140.395 171.296 140.27 171.475 140.166 171.679C140.11 171.777 140.062 171.885 140.017 171.996C139.967 172.104 139.939 172.223 139.899 172.335C139.867 172.451 139.843 172.568 139.817 172.68C139.801 172.796 139.786 172.909 139.771 173.019C139.759 173.241 139.751 173.445 139.767 173.621C139.769 173.796 139.801 173.943 139.811 174.044C139.825 174.145 139.833 174.203 139.833 174.203L138.949 174.259C138.949 174.259 138.954 174.189 138.965 174.069C138.977 173.949 138.979 173.78 139.021 173.576C139.049 173.373 139.109 173.14 139.178 172.895C139.222 172.775 139.269 172.652 139.314 172.527C139.371 172.405 139.427 172.283 139.49 172.164C139.75 171.689 140.107 171.291 140.414 171.052C140.719 170.808 140.955 170.708 140.955 170.708Z" fill="black"/>
<path d="M144.498 171.151C144.498 171.151 144.289 171.302 144.054 171.594C143.938 171.739 143.813 171.918 143.709 172.122C143.653 172.22 143.605 172.328 143.56 172.439C143.51 172.547 143.482 172.666 143.442 172.778C143.41 172.894 143.386 173.011 143.36 173.123C143.344 173.239 143.329 173.352 143.314 173.462C143.302 173.684 143.294 173.888 143.31 174.064C143.312 174.239 143.344 174.386 143.354 174.487C143.368 174.588 143.376 174.646 143.376 174.646L142.492 174.702C142.492 174.702 142.497 174.632 142.508 174.512C142.52 174.392 142.522 174.223 142.564 174.019C142.592 173.816 142.652 173.583 142.721 173.338C142.765 173.218 142.812 173.095 142.857 172.97C142.914 172.848 142.97 172.726 143.033 172.607C143.293 172.132 143.65 171.734 143.957 171.495C144.262 171.251 144.498 171.151 144.498 171.151Z" fill="black"/>
</svg>
