<svg width="194" height="186" viewBox="0 0 194 186" fill="none" xmlns="http://www.w3.org/2000/svg">
<path d="M185.944 27.0567C185.084 33.4433 182.44 45.95 182.156 54.8807C181.919 62.3193 182.869 74.6793 182.943 75.6767C181.324 73.7367 179.548 71.9167 177.691 70.27L177.828 70.1233C177.828 70.1233 178.816 37.0567 185.944 27.0567" fill="#394463"/>
<path d="M185.944 27.0567C185.084 33.4433 182.44 45.95 182.156 54.8807C181.919 62.3193 182.869 74.6793 182.943 75.6767C181.324 73.7367 179.548 71.9167 177.691 70.27L177.828 70.1233C177.828 70.1233 178.816 37.0567 185.944 27.0567V27.0567Z" stroke="#394463" stroke-width="0.135" stroke-miterlimit="10"/>
<path d="M177.344 43.7178C177.654 40.0312 180.153 31.8138 182.724 26.5165C183.986 23.9098 186.282 24.5125 185.944 27.0565C178.817 37.0565 177.829 70.1232 177.829 70.1232L177.692 70.2698C177.27 69.8858 176.849 69.5192 176.42 69.1712C176.318 69.0805 176.228 68.9978 176.126 68.9245C175.825 68.6685 175.522 68.4218 175.23 68.1925C175.038 68.0458 174.854 67.9005 174.681 67.7712C174.498 67.6258 174.306 67.4792 174.114 67.3418C172.942 63.4805 173.044 52.0165 173.044 52.0165C173.044 52.0165 174.508 53.7818 175.505 53.8552C174.124 49.0152 175.121 41.8792 175.121 41.8792C175.121 41.8792 176.081 43.8365 177.344 43.7178" fill="#546594"/>
<path d="M192.092 160.236C192.092 160.236 187.28 161.672 184.819 161.462L184.507 149.587L183.794 161.462C182.568 162.596 175.504 162.286 175.504 162.286L174.68 148.05L174.479 162.596C170.892 164.024 167.206 163.411 167.206 163.411L166.282 156.147C166.282 156.147 166.391 163.923 163.93 163.612C163.986 163.667 163.455 153.566 162.932 143.859L163.034 143.85C163.034 143.85 191.396 139.962 191.168 92.3845L191.232 92.3752C194.535 111.506 192.092 160.236 192.092 160.236Z" fill="#394463"/>
<path d="M192.092 160.236C192.092 160.236 187.28 161.672 184.819 161.462L184.507 149.587L183.794 161.462C182.568 162.596 175.504 162.286 175.504 162.286L174.68 148.05L174.479 162.596C170.892 164.024 167.206 163.411 167.206 163.411L166.282 156.147C166.282 156.147 166.391 163.923 163.93 163.612C163.986 163.667 163.455 153.566 162.932 143.859L163.034 143.85C163.034 143.85 191.396 139.962 191.168 92.3845L191.232 92.3752C194.535 111.506 192.092 160.236 192.092 160.236Z" stroke="#394463" stroke-width="0.135" stroke-miterlimit="10"/>
<path d="M139.016 64.4781C125.356 65.1914 113.123 61.6967 110.498 60.8821C117.058 62.5114 149.328 58.3301 160.755 60.7181C164.187 61.4314 168.139 63.2527 172.046 65.8781C164.479 62.0074 154.46 63.6821 139.016 64.4781Z" fill="#687DB8"/>
<path d="M161.661 134.52C151.213 141.187 142.008 142.936 134.543 144.383C121.752 146.844 114.084 145.187 114.084 145.187H113.837L113.764 163.224C116.427 164.963 123.179 162.961 123.179 162.961L123.792 156.119L125.329 162.427C129.729 162.528 134.652 160.156 134.652 160.156L134.953 145.909L137.004 159.427C144.579 158.704 150.005 155.527 150.005 155.527L150.517 142.836L152.768 154.5C156.556 154.5 161.78 152.913 161.78 152.913L161.927 134.52H161.661Z" fill="#394463"/>
<path d="M161.661 134.52C151.213 141.187 142.008 142.936 134.543 144.383C121.752 146.844 114.084 145.187 114.084 145.187H113.837L113.764 163.224C116.427 164.963 123.179 162.961 123.179 162.961L123.792 156.119L125.329 162.427C129.729 162.528 134.652 160.156 134.652 160.156L134.953 145.909L137.004 159.427C144.579 158.704 150.005 155.527 150.005 155.527L150.517 142.836L152.768 154.5C156.556 154.5 161.78 152.913 161.78 152.913L161.927 134.52H161.661Z" stroke="#394463" stroke-miterlimit="10"/>
<path d="M100.964 3.37781C101.732 3.47914 102.318 4.65914 102.757 6.59781C100.058 6.80848 95.9317 10.3685 91.9143 14.6045L90.1583 13.2231C90.213 13.2231 90.2677 13.2138 90.3143 13.2045C91.2383 11.0538 96.965 2.86581 100.964 3.37781Z" fill="#687DB8"/>
<path d="M95.9405 14.3846C101.659 22.3806 95.3365 44.0926 91.0458 52.6846L90.9178 52.6206C90.8165 52.9672 89.1245 45.9046 84.3485 40.3872C85.9858 22.5739 94.1112 16.0686 95.9405 14.3846Z" fill="#394463"/>
<path d="M91.9149 14.6042C89.6642 16.9922 87.4496 19.5909 85.5282 21.9416L83.6709 20.2949C83.8536 20.2949 84.0189 20.2589 84.1749 20.1669C84.1749 16.3789 87.4496 11.5669 87.4496 11.5669C87.4496 11.5669 89.1882 13.2229 90.1576 13.2229L91.9149 14.6042Z" fill="#687DB8"/>
<path d="M113.791 153.187C113.727 165.187 113.635 180.673 113.553 182.073C113.453 183.923 106.289 185.287 104.55 184.573L104.239 173.836L103.526 184.599C101.677 185.111 94.9246 184.399 94.2019 184.088L93.5886 170.373L92.9766 183.585C92.9766 183.585 84.5766 183.173 81.7126 180.612C81.5393 179.908 81.4113 178.391 81.3193 176.02C81.1913 172.883 81.1366 169.187 81.1179 163.853H81.1459C81.1459 163.853 108.137 171.853 113.169 153.187H113.791Z" fill="#394463"/>
<path d="M113.791 153.187C113.727 165.187 113.635 180.673 113.553 182.073C113.453 183.923 106.289 185.287 104.55 184.573L104.239 173.836L103.526 184.599C101.677 185.111 94.9246 184.399 94.2019 184.088L93.5886 170.373L92.9766 183.585C92.9766 183.585 84.5766 183.173 81.7126 180.612C81.5393 179.908 81.4113 178.391 81.3193 176.02C81.1913 172.883 81.1366 169.187 81.1179 163.853H81.1459C81.1459 163.853 108.137 171.853 113.169 153.187H113.791Z" stroke="#394463" stroke-miterlimit="10"/>
<path d="M85.5285 21.9421C84.4311 23.2874 83.4338 24.5501 82.5818 25.6474L80.8898 24.2661C80.0751 22.2168 80.5871 18.3274 80.5871 18.3274C80.5871 18.3274 82.3898 20.2954 83.6711 20.2954L85.5285 21.9421Z" fill="#687DB8"/>
<path d="M77.2026 21.8049C77.2026 21.8049 79.3532 23.9556 80.8892 24.2662L82.5826 25.6476C80.7706 27.9809 79.6279 29.5636 79.6279 29.5636C78.2279 28.3369 77.0932 27.4862 76.2599 26.9102L76.3879 26.7276C76.3879 25.0902 77.2026 21.8049 77.2026 21.8049Z" fill="#687DB8"/>
<path d="M61.8469 174.263V158.397L61.3402 171.711C61.3402 171.711 54.4815 170.576 53.6575 168.425C53.1909 166.916 53.0789 158.907 53.2242 150.399C55.0002 150.809 77.6322 157.187 81.1455 143.853H81.2002C81.1362 151.853 81.0909 157.205 81.1189 163.18C81.1362 168.039 81.1922 172.545 81.3202 175.684C78.8855 176.077 71.9055 175.513 71.9055 175.513L71.8322 163.369L71.7802 175.879C66.8669 176.089 61.8469 174.263 61.8469 174.263Z" fill="#394463"/>
<path d="M61.8469 174.263V158.397L61.3402 171.711C61.3402 171.711 54.4815 170.576 53.6575 168.425C53.1909 166.916 53.0789 158.907 53.2242 150.399C55.0002 150.809 77.6322 157.187 81.1455 143.853H81.2002C81.1362 151.853 81.0909 157.205 81.1189 163.18C81.1362 168.039 81.1922 172.545 81.3202 175.684C78.8855 176.077 71.9055 175.513 71.9055 175.513L71.8322 163.369L71.7802 175.879C66.8669 176.089 61.8469 174.263 61.8469 174.263Z" stroke="#394463" stroke-miterlimit="10"/>
<path d="M63.9815 50.7173C65.9028 51.1653 67.6415 51.724 69.2148 52.328C69.2242 52.3733 69.2242 52.428 69.2242 52.4746C69.2242 54.084 67.9162 55.3933 66.3055 55.3933C64.6948 55.3933 63.3868 54.084 63.3868 52.4746C63.3868 51.8146 63.6068 51.2026 63.9815 50.7173" fill="black"/>
<path d="M68.4555 42.4919C68.4555 42.4919 78.2821 41.5679 83.3515 47.5612C80.4328 48.5585 78.6661 50.0132 79.0501 50.4799C79.2981 50.7812 80.9261 52.8852 81.8048 55.9599C77.9621 51.4585 72.0515 49.5639 67.2208 47.3505C62.0421 44.9799 58.1168 42.2452 59.3421 35.5105L59.1968 35.3825C59.9368 34.4225 60.7248 33.6719 61.4648 33.1959C61.4648 37.4225 62.6915 39.4172 63.0755 39.1159C63.4595 38.8052 65.4541 35.5012 69.9928 35.4279C67.9155 39.3439 68.4555 42.4919 68.4555 42.4919Z" fill="#687DB8"/>
<path d="M68.4555 42.4919C68.4555 42.4919 78.2821 41.5679 83.3515 47.5612C80.4328 48.5585 78.6661 50.0132 79.0501 50.4799C79.2981 50.7812 80.9261 52.8852 81.8048 55.9599C77.9621 51.4585 72.0515 49.5639 67.2208 47.3505C62.0421 44.9799 58.1168 42.2452 59.3421 35.5105L59.1968 35.3825C59.9368 34.4225 60.7248 33.6719 61.4648 33.1959C61.4648 37.4225 62.6915 39.4172 63.0755 39.1159C63.4595 38.8052 65.4541 35.5012 69.9928 35.4279C67.9155 39.3439 68.4555 42.4919 68.4555 42.4919Z" stroke="#687DB8" stroke-width="0.135" stroke-miterlimit="10"/>
<path d="M81.8046 55.96C77.9619 51.4586 72.0513 49.564 67.2206 47.3506C62.0419 44.98 58.1166 42.2453 59.3433 35.5106L59.1966 35.3826C56.7166 38.5853 54.6859 44.1026 56.1673 49.4826C59.0593 49.72 61.6486 50.1506 63.9819 50.7173C65.9033 51.1653 67.6419 51.724 69.2153 52.328C76.8179 55.264 80.5966 59.528 82.2806 61.532C82.5459 59.4826 82.2806 57.588 81.8046 55.96Z" fill="#394463"/>
<path d="M60.6509 93.7289C58.6295 101.094 63.1669 116.822 57.6495 127.061C56.4242 125.633 53.8615 124.609 53.8615 124.609C53.8615 124.609 53.8615 124.654 53.8522 124.746C53.7895 125.853 53.2402 133.392 50.5869 135.661C49.9735 133.721 47.7229 131.572 47.7229 131.572C47.7229 131.572 46.6975 137.509 44.0362 140.584C43.2122 138.836 39.1229 134.846 39.1229 134.846C39.1229 134.846 37.2735 140.273 32.3602 142.834C32.5709 138.534 29.4975 126.448 22.3242 125.834C15.1602 125.221 13.3202 136.073 13.3202 138.534C11.5735 138.433 10.0455 134.024 10.0455 134.024C10.0455 134.024 8.50821 134.948 7.99621 137.298C5.03088 134.188 2.17621 122.093 1.44421 113.162L1.85621 113.126C1.85621 113.126 38.8749 132.01 60.6509 93.7289" fill="#394463"/>
<path d="M60.6509 93.7289C58.6295 101.094 63.1669 116.822 57.6495 127.061C56.4242 125.633 53.8615 124.609 53.8615 124.609C53.8615 124.609 53.8615 124.654 53.8522 124.746C53.7895 125.853 53.2402 133.392 50.5869 135.661C49.9735 133.721 47.7229 131.572 47.7229 131.572C47.7229 131.572 46.6975 137.509 44.0362 140.584C43.2122 138.836 39.1229 134.846 39.1229 134.846C39.1229 134.846 37.2735 140.273 32.3602 142.834C32.5709 138.534 29.4975 126.448 22.3242 125.834C15.1602 125.221 13.3202 136.073 13.3202 138.534C11.5735 138.433 10.0455 134.024 10.0455 134.024C10.0455 134.024 8.50821 134.948 7.99621 137.298C5.03088 134.188 2.17621 122.093 1.44421 113.162L1.85621 113.126C1.85621 113.126 38.8749 132.01 60.6509 93.7289V93.7289Z" stroke="#394463" stroke-width="0.135" stroke-miterlimit="10"/>
<path d="M101.33 46.2524C101.027 49.207 105.026 58.7417 109.976 60.7177C110.012 60.7364 110.058 60.7457 110.104 60.763C110.195 60.8004 110.296 60.827 110.396 60.855C110.434 60.8644 110.46 60.8737 110.498 60.883C113.123 61.6964 125.356 65.1924 139.016 64.4777C154.46 63.6817 164.479 62.0084 172.046 65.8777C172.742 66.335 173.427 66.8204 174.114 67.3417C174.114 67.351 174.123 67.3604 174.123 67.3697C174.306 67.4977 174.488 67.6257 174.682 67.7724C174.864 67.9097 175.047 68.055 175.23 68.1924C175.532 68.431 175.834 68.6777 176.127 68.9244C176.227 68.9977 176.319 69.0804 176.419 69.1724C179.759 72.035 182.952 75.7417 182.952 75.7417C182.952 75.7417 182.952 75.723 182.943 75.6764C185.971 79.2817 188.487 83.3164 190.043 87.5444C190.5 88.7977 190.894 90.4257 191.232 92.375L191.168 92.3844C191.398 139.962 163.034 143.85 163.034 143.85L162.934 143.859C162.458 134.883 161.982 126.499 161.982 126.499L161.927 134.52H161.662C151.212 139.854 142.008 142.27 134.542 143.716C121.751 146.176 114.084 143.854 114.084 143.854H113.838L113.864 137.659C113.864 137.659 113.838 145.187 113.791 153.187H113.17C108.136 171.854 81.1457 163.854 81.1457 163.854H81.119C81.091 158.52 81.1363 151.854 81.2003 143.854H81.1457C77.6323 157.187 54.8963 150.81 53.1217 150.398C53.3137 138.915 53.7977 126.058 53.8537 124.575C53.8617 124.483 53.8617 124.523 53.8617 124.523C53.8617 124.523 56.4243 125.591 57.6497 127.018C63.167 116.779 58.6297 101.072 60.651 93.707C38.875 131.988 1.85634 113.115 1.85634 113.115L1.44434 113.158C1.31634 111.574 1.25234 110.104 1.27101 108.795C4.17101 100.918 9.43234 98.7777 18.783 91.9257C34.7403 80.223 49.9603 63.5257 49.275 48.0724C49.979 44.687 51.1803 41.6044 49.847 39.1884V38.787C49.847 37.835 50.071 36.8644 49.9697 35.8857C48.167 34.943 46.115 34.687 43.8643 34.843C43.9737 34.7057 44.1657 34.5684 44.2937 34.431C44.3017 34.4217 44.347 34.4044 44.3657 34.395C47.5137 31.2017 52.947 26.5724 59.5803 24.4671C59.5723 24.4404 59.571 24.4217 59.563 24.3937C68.5017 21.6031 75.1763 25.8031 76.3843 26.7271L76.2577 26.9111C77.091 27.4871 78.2257 28.3377 79.6257 29.5644C79.6257 29.5644 80.7697 27.9804 82.5817 25.6484C83.4323 24.5497 84.431 23.287 85.5283 21.9417C87.4497 19.591 89.6643 16.9924 91.915 14.6044C95.931 10.3684 100.058 6.80838 102.756 6.59905C104.596 14.7777 103.69 36.3257 101.375 45.9684C101.375 45.9684 101.358 46.0697 101.33 46.2524ZM91.0457 52.6844C95.3363 44.0924 101.659 22.3817 95.9403 14.3844C94.111 16.0684 85.9857 22.5737 84.3483 40.387C89.1243 45.9044 90.8163 52.9684 90.9177 52.6204L91.0457 52.6844ZM81.8043 55.9604C80.927 52.8857 79.2977 50.7817 79.051 50.479C78.667 50.0124 80.4323 48.5577 83.351 47.5604C78.2817 41.5684 68.455 42.4924 68.455 42.4924C68.455 42.4924 67.9163 39.3444 69.9923 35.4284C65.455 35.5017 63.4603 38.8044 63.0763 39.1164C62.691 39.4177 61.4657 37.423 61.4657 33.1964C60.7243 33.6724 59.9377 34.4217 59.1963 35.383C56.7163 38.5857 54.6857 44.1017 56.1683 49.4817C59.059 49.7204 61.6483 50.1497 63.9817 50.7177C63.607 51.2017 63.387 51.815 63.387 52.4737C63.387 54.0844 64.695 55.3924 66.3057 55.3924C67.9163 55.3924 69.2243 54.0844 69.2243 52.4737C69.2243 52.4284 69.2243 52.3737 69.215 52.327C76.8177 55.2644 80.5963 59.5284 82.2803 61.5324C82.5457 59.483 82.2803 57.5884 81.8043 55.9604" fill="#546594"/>
<path d="M101.33 46.2524C101.027 49.207 105.026 58.7417 109.976 60.7177C110.012 60.7364 110.058 60.7457 110.104 60.763C110.195 60.8004 110.296 60.827 110.396 60.855C110.434 60.8644 110.46 60.8737 110.498 60.883C113.123 61.6964 125.356 65.1924 139.016 64.4777C154.46 63.6817 164.479 62.0084 172.046 65.8777C172.742 66.335 173.427 66.8204 174.114 67.3417C174.114 67.351 174.123 67.3604 174.123 67.3697C174.306 67.4977 174.488 67.6257 174.682 67.7724C174.864 67.9097 175.047 68.055 175.23 68.1924C175.532 68.431 175.834 68.6777 176.127 68.9244C176.227 68.9977 176.319 69.0804 176.419 69.1724C179.759 72.035 182.952 75.7417 182.952 75.7417C182.952 75.7417 182.952 75.723 182.943 75.6764C185.971 79.2817 188.487 83.3164 190.043 87.5444C190.5 88.7977 190.894 90.4257 191.232 92.375L191.168 92.3844C191.398 139.962 163.034 143.85 163.034 143.85L162.934 143.859C162.458 134.883 161.982 126.499 161.982 126.499L161.927 134.52H161.662C151.212 139.854 142.008 142.27 134.542 143.716C121.751 146.176 114.084 143.854 114.084 143.854H113.838L113.864 137.659C113.864 137.659 113.838 145.187 113.791 153.187H113.17C108.136 171.854 81.1457 163.854 81.1457 163.854H81.119C81.091 158.52 81.1363 151.854 81.2003 143.854H81.1457C77.6323 157.187 54.8963 150.81 53.1217 150.398C53.3137 138.915 53.7977 126.058 53.8537 124.575C53.8617 124.483 53.8617 124.523 53.8617 124.523C53.8617 124.523 56.4243 125.591 57.6497 127.018C63.167 116.779 58.6297 101.072 60.651 93.707C38.875 131.988 1.85634 113.115 1.85634 113.115L1.44434 113.158C1.31634 111.574 1.25234 110.104 1.27101 108.795C4.17101 100.918 9.43234 98.7777 18.783 91.9257C34.7403 80.223 49.9603 63.5257 49.275 48.0724C49.979 44.687 51.1803 41.6044 49.847 39.1884V38.787C49.847 37.835 50.071 36.8644 49.9697 35.8857C48.167 34.943 46.115 34.687 43.8643 34.843C43.9737 34.7057 44.1657 34.5684 44.2937 34.431C44.3017 34.4217 44.347 34.4044 44.3657 34.395C47.5137 31.2017 52.947 26.5724 59.5803 24.4671C59.5723 24.4404 59.571 24.4217 59.563 24.3937C68.5017 21.6031 75.1763 25.8031 76.3843 26.7271L76.2577 26.9111C77.091 27.4871 78.2257 28.3377 79.6257 29.5644C79.6257 29.5644 80.7697 27.9804 82.5817 25.6484C83.4323 24.5497 84.431 23.287 85.5283 21.9417C87.4497 19.591 89.6643 16.9924 91.915 14.6044C95.931 10.3684 100.058 6.80838 102.756 6.59905C104.596 14.7777 103.69 36.3257 101.375 45.9684C101.375 45.9684 101.358 46.0697 101.33 46.2524ZM91.0457 52.6844C95.3363 44.0924 101.659 22.3817 95.9403 14.3844C94.111 16.0684 85.9857 22.5737 84.3483 40.387C89.1243 45.9044 90.8163 52.9684 90.9177 52.6204L91.0457 52.6844ZM81.8043 55.9604C80.927 52.8857 79.2977 50.7817 79.051 50.479C78.667 50.0124 80.4323 48.5577 83.351 47.5604C78.2817 41.5684 68.455 42.4924 68.455 42.4924C68.455 42.4924 67.9163 39.3444 69.9923 35.4284C65.455 35.5017 63.4603 38.8044 63.0763 39.1164C62.691 39.4177 61.4657 37.423 61.4657 33.1964C60.7243 33.6724 59.9377 34.4217 59.1963 35.383C56.7163 38.5857 54.6857 44.1017 56.1683 49.4817C59.059 49.7204 61.6483 50.1497 63.9817 50.7177C63.607 51.2017 63.387 51.815 63.387 52.4737C63.387 54.0844 64.695 55.3924 66.3057 55.3924C67.9163 55.3924 69.2243 54.0844 69.2243 52.4737C69.2243 52.4284 69.2243 52.3737 69.215 52.327C76.8177 55.2644 80.5963 59.5284 82.2803 61.5324C82.5457 59.483 82.2803 57.5884 81.8043 55.9604V55.9604Z" stroke="#546594" stroke-miterlimit="10"/>
<path d="M50.1933 43.4525C50.3213 42.1632 50.4226 40.7072 50.4226 39.1885C50.4586 41.6045 50.2666 44.6872 49.5626 48.0725C49.5706 48.0178 49.5626 47.9725 49.5626 47.9178C49.708 47.0392 49.992 45.4472 50.1933 43.4525Z" fill="#292740"/>
<path d="M49.6808 46.7921C48.8754 46.7921 45.7288 46.3708 45.3528 46.7281C45.0968 46.9654 44.8861 47.2588 44.7488 47.5881C42.2608 47.6254 39.9461 47.9814 37.8408 48.5121C32.3514 49.8761 28.3074 52.4014 26.6061 53.3988C26.5234 52.2001 26.9261 51.0654 27.5021 50.0854L27.6208 50.1494C32.9648 45.7214 42.8741 42.9774 50.0381 43.4348L50.1928 43.4521C49.9914 45.4468 49.7088 47.0388 49.5621 47.9174C49.5341 47.9081 49.4981 47.9081 49.4701 47.9081C49.6074 47.2681 49.7088 46.7921 49.6808 46.7921Z" fill="#394463"/>
<path d="M45.3531 46.7281C45.7278 46.3708 48.8758 46.7921 49.6811 46.7921C49.7078 46.7921 49.6078 47.2681 49.4705 47.9081C47.8425 47.6521 46.2678 47.5601 44.7491 47.5881C44.8865 47.2588 45.0971 46.9654 45.3531 46.7281Z" fill="#1C1A2B"/>
<path d="M44.493 48.7868C44.493 48.3561 44.5757 47.9535 44.749 47.5881C46.2677 47.5601 47.8424 47.6521 49.4704 47.9081C49.177 49.2801 48.6837 51.4401 48.6837 51.4401C48.2437 51.5868 47.9064 51.7055 47.4117 51.7055C45.801 51.7055 44.493 50.3975 44.493 48.7868Z" fill="black"/>
<path d="M44.7492 47.5881C44.5759 47.9535 44.4932 48.3561 44.4932 48.7868C44.4932 50.3975 45.8012 51.7055 47.4119 51.7055C47.9052 51.7055 48.2439 51.5868 48.6839 51.4401C48.6839 51.4401 49.1772 49.2801 49.4705 47.9081C49.4972 47.9081 49.5345 47.9081 49.5612 47.9175C49.5612 47.9721 49.5705 48.0175 49.5612 48.0735C49.0865 50.4148 48.3625 52.8948 47.3105 55.3921C43.9892 63.2335 31.6559 75.7681 23.2572 83.0975C26.1119 79.5655 26.0665 76.4361 26.0665 76.4361C26.0665 76.4361 24.0439 76.7108 22.2225 75.5668C24.1439 74.7708 27.8599 70.5441 28.7919 68.5401C26.9345 69.0068 25.1505 66.8748 25.1505 66.8748C28.9292 64.9361 35.6999 59.9588 36.2305 57.4508C36.6159 55.6401 37.2372 51.9428 37.8412 48.5121C39.9452 47.9815 42.2599 47.6241 44.7492 47.5881Z" fill="#546594"/>
<path d="M38.9851 35.7945C40.3211 37.0759 41.4184 37.7345 41.4184 37.7345C41.4184 37.7345 42.3251 36.5452 43.9531 34.8519C43.9718 34.8425 43.9904 34.8425 44.0078 34.8425C46.2584 34.6879 48.1678 34.9439 49.9691 35.8865C50.0704 36.8652 49.8464 37.8345 49.8464 38.7865V39.1892C49.8464 40.7079 50.0331 42.1625 49.9051 43.4519L49.8944 43.4345C42.7291 42.9772 32.8931 45.7212 27.5491 50.1505L27.4664 50.0865C28.5278 48.2292 30.1931 46.9479 30.1931 46.9479C30.1931 46.9479 27.9784 46.2519 25.5171 46.5639C26.9811 43.1785 30.5904 42.2639 32.6678 42.0345C32.8144 40.3412 30.6664 39.9572 30.6664 39.9572C31.2704 39.0332 34.8038 37.0119 38.9851 35.7945Z" fill="#687DB8"/>
<path d="M38.9851 35.7945C40.3211 37.0759 41.4184 37.7345 41.4184 37.7345C41.4184 37.7345 42.3251 36.5452 43.9531 34.8519C43.9718 34.8425 43.9904 34.8425 44.0078 34.8425C46.2584 34.6879 48.1678 34.9439 49.9691 35.8865C50.0704 36.8652 49.8464 37.8345 49.8464 38.7865V39.1892C49.8464 40.7079 50.0331 42.1625 49.9051 43.4519L49.8944 43.4345C42.7291 42.9772 32.8931 45.7212 27.5491 50.1505L27.4664 50.0865C28.5278 48.2292 30.1931 46.9479 30.1931 46.9479C30.1931 46.9479 27.9784 46.2519 25.5171 46.5639C26.9811 43.1785 30.5904 42.2639 32.6678 42.0345C32.8144 40.3412 30.6664 39.9572 30.6664 39.9572C31.2704 39.0332 34.8038 37.0119 38.9851 35.7945Z" stroke="#687DB8" stroke-miterlimit="10"/>
<path d="M38.9851 35.7945C40.5864 35.3279 42.2878 34.9705 43.9531 34.8519C42.3251 36.5452 41.4184 37.7345 41.4184 37.7345C41.4184 37.7345 40.3211 37.0759 38.9851 35.7945Z" fill="#687DB8"/>
<path d="M54.155 26.6633C50.9523 13.094 37.887 1.74064 37.887 1.74064C39.735 0.615302 53.615 10.2033 59.571 24.394C58.647 24.6873 57.6963 25.0526 56.7256 25.5006C55.839 25.9126 55.0056 26.334 54.2096 26.7646L54.155 26.6633Z" fill="#687DB8"/>
<path d="M34.4103 19.3528C34.9223 19.5542 37.073 20.1675 37.073 20.1675C36.149 17.8155 36.0477 2.86484 37.8877 1.73951C37.8877 1.73951 50.953 13.0942 54.1543 26.6635L54.2103 26.7635C49.709 29.1982 46.5877 31.9328 44.401 34.3942C44.3837 34.4035 44.3743 34.4222 44.365 34.4315C44.2183 34.5782 44.081 34.7142 43.953 34.8515C42.2877 34.9715 40.5863 35.3275 38.985 35.7942C37.4023 34.2848 35.4717 31.9155 34.6117 28.7675C34.6117 28.7675 36.9997 28.9782 38.125 28.0542C36.0757 26.4168 33.8983 19.1422 34.4103 19.3528Z" fill="#546594"/>
<path d="M49.5619 48.073C50.2486 63.5263 34.7392 80.225 18.7832 91.9263C9.43257 98.7797 4.17124 100.921 1.27124 108.798C1.28057 107.242 1.39924 105.925 1.6459 104.946C3.28324 98.3957 12.4979 92.045 20.6859 85.293C21.4819 84.6343 22.3512 83.9023 23.2566 83.097C31.6566 75.769 43.9899 63.2343 47.3112 55.393C48.3632 52.8943 49.0859 50.4157 49.5619 48.073Z" fill="#687DB8"/>
<path d="M49.5619 48.073C50.2486 63.5263 34.7392 80.225 18.7832 91.9263C9.43257 98.7797 4.17124 100.921 1.27124 108.798C1.28057 107.242 1.39924 105.925 1.6459 104.946C3.28324 98.3957 12.4979 92.045 20.6859 85.293C21.4819 84.6343 22.3512 83.9023 23.2566 83.097C31.6566 75.769 43.9899 63.2343 47.3112 55.393C48.3632 52.8943 49.0859 50.4157 49.5619 48.073Z" stroke="#687DB8" stroke-width="0.135" stroke-miterlimit="10"/>
<path d="M176.127 68.9248C175.824 68.6688 175.523 68.4208 175.231 68.1928C175.037 68.0461 174.855 67.8995 174.681 67.7715C174.489 67.6248 174.305 67.4968 174.123 67.3688C174.123 67.3595 174.113 67.3515 174.113 67.3421C172.943 63.4808 173.043 52.0168 173.043 52.0168C173.043 52.0168 174.507 53.7821 175.504 53.8555C174.123 49.0155 175.12 41.8795 175.12 41.8795C175.12 41.8795 176.081 43.8368 177.344 43.7181C177.655 40.0301 180.152 31.8141 182.724 26.5168C183.987 23.9088 186.283 24.5128 185.944 27.0568C185.084 33.4435 182.44 45.9501 182.156 54.8808C181.919 62.3181 182.869 74.6795 182.943 75.6768C182.952 75.7221 182.952 75.7408 182.952 75.7408C182.952 75.7408 179.759 72.0355 176.42 69.1715" stroke="black" stroke-width="1.372" stroke-miterlimit="10" stroke-linecap="round" stroke-linejoin="round"/>
<path d="M44.365 34.4311C44.2183 34.5778 44.081 34.7151 43.953 34.8524" stroke="black" stroke-width="1.372" stroke-miterlimit="10" stroke-linecap="round" stroke-linejoin="round"/>
<path d="M38.9851 35.7945C37.4025 34.2852 35.4718 31.9145 34.6118 28.7678C34.6118 28.7678 36.9998 28.9785 38.1251 28.0545C36.0758 26.4158 33.8985 19.1425 34.4105 19.3532C34.9225 19.5545 37.0731 20.1665 37.0731 20.1665C36.1491 17.8158 36.0478 2.86518 37.8878 1.73984C39.7358 0.614512 53.6145 10.2038 59.5718 24.3945C59.5811 24.4212 59.5891 24.4398 59.5985 24.4678C52.9651 26.5718 47.5491 31.2012 44.4011 34.3945" stroke="black" stroke-width="1.372" stroke-miterlimit="10" stroke-linecap="round" stroke-linejoin="round"/>
<path d="M50.422 38.7864C50.4127 38.613 50.4127 38.4384 50.4033 38.265" stroke="black" stroke-width="0.343" stroke-linecap="round" stroke-linejoin="round"/>
<path d="M53.853 124.746C53.789 125.852 53.2396 133.392 50.5863 135.662C49.9743 133.722 47.7223 131.571 47.7223 131.571C47.7223 131.571 46.6983 137.51 44.0356 140.583C43.2116 138.836 39.1223 134.847 39.1223 134.847C39.1223 134.847 37.2743 140.272 32.361 142.834C32.5716 138.534 29.497 126.447 22.3236 125.835C15.1596 125.222 13.321 136.072 13.321 138.534C11.573 138.434 10.045 134.023 10.045 134.023C10.045 134.023 8.50762 134.947 7.99562 137.299C5.03162 134.188 2.17696 122.092 1.44496 113.163C1.31696 111.579 1.25295 110.107 1.27162 108.798C1.27962 107.243 1.39829 105.926 1.64629 104.946C3.28362 98.395 12.497 92.0456 20.6863 85.2936C21.4823 84.635 22.3516 83.9016 23.257 83.0976C31.657 75.7683 43.9903 63.2336 47.3116 55.3923C48.3636 52.895 49.0863 50.415 49.5623 48.0723C50.2663 44.687 50.4583 41.6043 50.4223 39.1883" stroke="black" stroke-width="1.372" stroke-miterlimit="10" stroke-linecap="round" stroke-linejoin="round"/>
<path d="M62.8927 91.6062C62.6181 91.3862 62.3434 91.1942 62.0514 91.0209C61.3927 91.6982 60.9434 92.6222 60.6514 93.7289C58.6287 101.094 63.1674 116.822 57.6501 127.061C56.4234 125.633 53.8621 124.609 53.8621 124.609" stroke="black" stroke-width="1.372" stroke-miterlimit="10" stroke-linecap="round" stroke-linejoin="round"/>
<path d="M72.4997 75.5673C76.2877 78.0193 75.5744 85.6953 75.5744 85.6953C75.5744 85.6953 73.625 81.706 69.5264 79.9686C74.037 86.7206 72.601 95.1193 72.601 95.1193C72.601 95.1193 70.349 90.8193 67.3757 89.794C69.837 94.918 68.6117 100.345 68.6117 100.345C68.6117 100.345 66.433 94.4606 62.957 91.67" stroke="black" stroke-width="1.372" stroke-miterlimit="10" stroke-linecap="round" stroke-linejoin="round"/>
<path d="M110.497 60.8824C117.057 62.5104 149.328 58.3291 160.756 60.7171C164.187 61.4317 168.139 63.2517 172.045 65.8784C172.741 66.3357 173.428 66.8197 174.113 67.3424C174.305 67.4784 174.497 67.6251 174.681 67.7717C174.864 67.9091 175.047 68.0557 175.229 68.1931C175.532 68.4304 175.833 68.6771 176.127 68.9251C176.227 68.9984 176.319 69.0797 176.419 69.1717C176.849 69.5197 177.271 69.8851 177.691 70.2691C179.548 71.9171 181.324 73.7371 182.943 75.6771C185.971 79.2824 188.488 83.3171 190.043 87.5437C190.5 88.7971 190.893 90.4264 191.232 92.3744C194.535 111.506 192.092 160.237 192.092 160.237C192.092 160.237 187.28 161.673 184.819 161.462L184.508 149.586L183.793 161.462C182.568 162.597 175.504 162.286 175.504 162.286L174.681 148.049L174.48 162.597C170.893 164.024 167.205 163.412 167.205 163.412L166.281 156.146C166.281 156.146 166.392 163.924 163.931 163.613C163.985 163.668 163.455 153.566 162.933 143.858C162.457 134.884 161.981 126.246 161.981 126.246L161.927 134.014L161.78 152.661C161.78 152.661 156.556 154.5 152.768 154.5L150.517 142.834L150.005 155.525C150.005 155.525 144.579 158.7 137.003 159.422L134.953 145.9L134.652 160.136C134.652 160.136 129.729 162.488 125.328 162.386L123.792 156.037L123.179 162.798C123.179 162.798 116.427 164.637 113.764 162.898L113.837 144.536L113.864 138.021C113.864 138.021 113.837 144.902 113.791 153.228C113.727 165.416 113.636 180.694 113.553 182.094C113.452 183.942 106.288 185.297 104.551 184.584L104.239 173.842L103.525 184.601C101.677 185.114 94.9253 184.4 94.2027 184.089L93.5893 170.374L92.976 183.586C92.976 183.586 84.5773 183.174 81.7133 180.612C81.5387 179.908 81.4107 178.224 81.32 175.854C81.192 172.716 81.136 168.38 81.1187 163.521C81.0907 157.546 81.136 150.794 81.2 144.536C81.32 132.898 81.512 122.97 81.512 122.97" stroke="black" stroke-width="1.372" stroke-miterlimit="10" stroke-linecap="round" stroke-linejoin="round"/>
<path d="M110.104 60.7634C110.196 60.7994 110.296 60.8274 110.397 60.8554" stroke="black" stroke-width="1.372" stroke-miterlimit="10" stroke-linecap="round" stroke-linejoin="round"/>
<path d="M101.33 46.2523C101.027 49.207 105.026 58.7417 109.976 60.7177" stroke="black" stroke-width="1.372" stroke-miterlimit="10" stroke-linecap="round" stroke-linejoin="round"/>
<path d="M44.0082 34.8429C44.1175 34.7056 44.2362 34.5682 44.3655 34.4309C44.3735 34.4216 44.3828 34.4042 44.4015 34.3949C46.5882 31.9336 49.7082 29.1976 54.2095 26.7642C55.0055 26.3336 55.8388 25.9136 56.7255 25.5016C57.6962 25.0522 58.6468 24.6869 59.5708 24.3936C68.5108 21.6029 75.1802 25.8029 76.3882 26.7269C76.3882 25.0896 77.2028 21.8042 77.2028 21.8042C77.2028 21.8042 79.3522 23.9549 80.8895 24.2656C80.0748 22.2162 80.5882 18.3282 80.5882 18.3282C80.5882 18.3282 82.3895 20.2949 83.6708 20.2949C83.8535 20.2949 84.0188 20.2589 84.1748 20.1669C84.1748 16.3789 87.4495 11.5669 87.4495 11.5669C87.4495 11.5669 89.1882 13.2229 90.1575 13.2229C90.2135 13.2229 90.2682 13.2136 90.3135 13.2042C91.2375 11.0536 96.9655 2.86558 100.964 3.37758C101.732 3.47891 102.318 4.65891 102.758 6.59891C104.596 14.7776 103.69 36.3256 101.375 45.9682" stroke="black" stroke-width="1.372" stroke-miterlimit="10" stroke-linecap="round" stroke-linejoin="round"/>
<path d="M23.1474 83.2437C23.1834 83.1984 23.2301 83.1424 23.2567 83.097C26.1114 79.565 26.0661 76.437 26.0661 76.437C26.0661 76.437 24.0434 76.7104 22.2234 75.5677C24.1447 74.7717 27.8594 70.5437 28.7927 68.541C26.9354 69.0064 25.1514 66.8757 25.1514 66.8757C28.9301 64.9357 35.7007 59.9584 36.2314 57.4517C36.6154 55.6397 37.2381 51.9437 37.8421 48.5117" stroke="black" stroke-width="1.372" stroke-miterlimit="10" stroke-linecap="round" stroke-linejoin="round"/>
<path d="M53.8622 124.608C53.8622 124.608 53.8622 124.654 53.8529 124.746C53.7982 126.228 53.3129 139.256 53.1209 150.739C52.9742 159.248 52.9835 166.915 53.4502 168.426C54.2742 170.575 61.0075 171.71 61.0075 171.71L61.1809 158.398V174.263C61.1809 174.263 66.5329 176.111 71.4462 175.9L71.8729 163.411L71.9249 175.598C71.9249 175.598 78.8969 176.248 81.3302 175.855C81.4395 175.846 81.5355 175.818 81.6262 175.799" stroke="black" stroke-width="2" stroke-miterlimit="10" stroke-linecap="round" stroke-linejoin="round"/>
<path d="M58.4186 89.6939C60.7972 89.7312 62.4999 91.2312 62.8932 91.6059C62.9199 91.6339 62.9386 91.6525 62.9572 91.6699C62.9666 91.6792 62.9746 91.6885 62.9746 91.6885" stroke="black" stroke-width="1.372" stroke-miterlimit="10" stroke-linecap="round" stroke-linejoin="round"/>
<path d="M99.097 53.6999C100.452 50.4799 101.137 47.2226 101.329 46.2519C101.357 46.0693 101.376 45.9693 101.376 45.9693" stroke="black" stroke-width="1.372" stroke-miterlimit="10" stroke-linecap="round" stroke-linejoin="round"/>
<path d="M50.422 39.1888C50.422 40.7075 50.3207 42.1622 50.1927 43.4528C49.9913 45.4475 49.7087 47.0395 49.562 47.9182C49.534 47.9088 49.498 47.9088 49.47 47.9088C47.842 47.6528 46.2687 47.5608 44.75 47.5875C42.2607 47.6248 39.946 47.9822 37.842 48.5115C32.3513 49.8755 28.3073 52.4008 26.606 53.3982C26.5233 52.1995 26.926 51.0648 27.502 50.0862C28.5633 48.2288 30.2113 46.9475 30.2113 46.9475C30.2113 46.9475 27.9873 46.2528 25.526 46.5635C26.99 43.1782 30.5953 42.2635 32.6713 42.0342C32.818 40.3422 30.6687 39.9568 30.6687 39.9568C31.2727 39.0328 34.8033 37.0115 38.9847 35.7942C40.586 35.3275 42.2887 34.9715 43.9527 34.8515C43.9713 34.8435 43.99 34.8435 44.0087 34.8435C46.2593 34.6875 48.4553 34.9435 50.258 35.8862C50.358 36.8648 50.4127 37.8342 50.422 38.7862" stroke="black" stroke-width="1.372" stroke-miterlimit="10" stroke-linecap="round" stroke-linejoin="round"/>
<path d="M63.9815 50.7173C61.6481 50.1506 59.0588 49.72 56.1681 49.4826C54.6855 44.1026 56.7161 38.5853 59.1961 35.3826C59.9375 34.4226 60.7241 33.672 61.4655 33.196C61.4655 37.4226 62.6908 39.4173 63.0761 39.116C63.4601 38.804 65.4548 35.5013 69.9921 35.428C67.9161 39.344 68.4548 42.492 68.4548 42.492C68.4548 42.492 78.2815 41.568 83.3508 47.5613C80.4321 48.5573 78.6668 50.0133 79.0508 50.48C79.2975 50.7813 80.9268 52.8853 81.8041 55.96C82.2801 57.588 82.5455 59.4826 82.2801 61.532C80.5961 59.528 76.8188 55.264 69.2148 52.328C67.6415 51.724 65.9028 51.1653 63.9815 50.7173Z" stroke="black" stroke-width="1.372" stroke-miterlimit="10" stroke-linecap="round" stroke-linejoin="round"/>
<path d="M90.9267 52.5837C90.9267 52.6024 90.9267 52.6117 90.9174 52.6197C90.8174 52.9677 89.124 45.905 84.348 40.3877C85.9854 22.573 94.1107 16.0677 95.94 14.385C101.659 22.381 95.336 44.093 91.0454 52.685C91.0454 52.693 91.036 52.693 91.036 52.7024" stroke="black" stroke-width="0.686" stroke-miterlimit="10" stroke-linejoin="round"/>
<path d="M90.8109 53.2742C90.3589 53.2742 89.9669 52.9396 89.9042 52.4809C89.7456 51.6222 86.9989 45.1102 83.6176 40.1396C83.4989 39.9636 83.4442 39.7516 83.4642 39.5409C85.1216 21.5129 94.8989 14.3942 95.3136 14.0996C95.7269 13.8076 96.2976 13.9049 96.5896 14.3169C96.8816 14.7302 96.7842 15.3009 96.3722 15.5929C96.2789 15.6596 86.9802 22.4849 85.3162 39.3849C88.7802 44.5662 91.5949 51.2436 91.7202 52.2462C91.7816 52.7476 91.4269 53.2049 90.9242 53.2676C90.8869 53.2716 90.8482 53.2742 90.8109 53.2742Z" fill="black"/>
<path d="M30.4172 102.278C30.0052 103.605 26.4825 108.4 21.3039 107.933C18.0012 107.64 15.5945 103.55 15.1652 102.525C14.8359 101.748 14.7345 100.988 14.7985 100.293L14.9905 100.32C14.9905 100.32 19.7305 97.2277 30.1425 100.485L30.4719 100.402C30.6372 101.052 30.5905 101.712 30.4172 102.278Z" fill="#21283B"/>
<path d="M30.1428 100.485C19.7308 97.2278 14.9908 100.32 14.9908 100.32L14.7988 100.293C14.9362 98.8292 15.8055 97.6585 16.9028 97.2825C20.4815 96.0385 26.8308 97.0625 28.5695 98.0332C29.6948 98.6558 30.2708 99.5238 30.4722 100.403L30.1428 100.485Z" fill="#687DB8"/>
<path d="M30.4721 100.403C30.6361 101.052 30.5908 101.711 30.4175 102.279C30.0055 103.605 26.4828 108.399 21.3041 107.933C18.0015 107.64 15.5948 103.551 15.1655 102.525C14.8361 101.748 14.7348 100.988 14.7988 100.293C14.9361 98.8294 15.8055 97.6574 16.9028 97.2827C20.4815 96.0387 26.8308 97.0627 28.5695 98.0334C29.6948 98.6547 30.2708 99.5241 30.4721 100.403Z" stroke="black" stroke-width="1.372" stroke-miterlimit="10"/>
<path d="M20.3803 104.13C18.7763 104.13 17.2323 103.966 15.7816 103.667C16.7776 105.263 18.7776 107.71 21.3043 107.937C26.4803 108.399 30.0069 103.609 30.4163 102.277C30.4843 102.057 30.5243 101.821 30.5483 101.579C27.8563 103.159 24.2976 104.13 20.3803 104.13Z" fill="black"/>
</svg>
