<svg width="280" height="207" viewBox="0 0 280 207" fill="none" xmlns="http://www.w3.org/2000/svg">
<path d="M270.468 97.764C270.468 97.764 269.56 100.321 267.106 100.963C265.136 100.321 263.272 97.9226 263.272 97.9226L263.032 97.14C265.27 96.4533 267.557 95.6533 269.892 94.728C269.817 94.7826 269.742 94.8333 269.668 94.888C269.668 94.888 269.698 96.66 270.468 97.764Z" fill="#E1AD74"/>
<path d="M254.636 102.08L254.629 102.019L258.525 101.511L261.236 102.188L263.272 97.9228C263.272 97.9228 263.272 101.176 264.549 102.401C264.549 102.401 261.832 105.651 258.793 105.919C256.234 105.864 254.636 102.08 254.636 102.08Z" fill="#BF8F5C"/>
<path d="M201.787 92.3669C219.194 98.7189 238.421 104.706 263.031 97.1402L263.271 97.9229L261.235 102.188L258.525 101.511L254.629 102.019L250.733 102.527L249.717 105.238L247.345 103.544L242.602 104.899L241.246 108.287L239.891 105.915L233.115 106.254L230.745 108.964V106.254L227.017 105.238L223.969 107.61V104.899C223.461 104.391 221.475 102.768 213.805 101.511C209.458 100.799 205.149 96.6215 201.787 92.3669Z" fill="#E1AD74"/>
<path d="M192.369 88.9553C192.738 89.0607 193.107 89.182 193.477 89.314C196.21 90.3033 198.975 91.3407 201.787 92.3673C205.147 96.622 209.458 100.799 213.805 101.511C221.474 102.767 223.459 104.391 223.967 104.899V107.609L227.017 105.238L230.743 106.254V108.965L233.115 106.254L239.891 105.915L241.246 108.287L242.602 104.899L247.345 103.543L249.717 105.238L250.733 102.527L254.629 102.019L254.635 102.081C254.635 102.081 254.154 105.841 255.917 107.518C255.917 107.518 252.718 109.917 248.561 110.398C248.561 110.398 245.999 109.011 245.522 105.759C245.522 105.759 243.71 108.158 243.923 111.034C243.923 111.034 242.006 112.397 239.607 112.474C237.845 111.729 237.845 108.318 237.845 108.318C237.845 108.318 236.741 110.185 236.567 112.555C234.382 112.681 233.129 110.475 233.21 108.635C233.21 108.635 232.038 109.598 232.089 111.997C230.971 112.797 228.254 112.155 228.254 112.155C227.19 111.038 227.373 108.327 227.769 107.681C227.667 107.718 226.038 108.389 225.055 110.557C223.09 111.234 221.058 110.075 221.058 110.075C220.258 108.635 220.177 106.001 220.898 105.119C220.898 105.119 218.391 106.399 217.965 108.318C212.594 109.154 209.414 108.05 205.765 105.509C201.909 99.2847 196.979 93.7287 192.369 88.9553Z" fill="#BF8F5C"/>
<path d="M229.69 197.542C229.69 197.542 220.845 198.501 218.5 194.343C218.284 193.961 218.317 193.125 218.609 192.169C219.425 192.545 228.257 196.451 232.777 191.122V159.445C232.777 159.445 223.158 151.825 218.818 144.457C223.774 149.573 235.128 156.287 235.128 156.287C235.128 156.287 234.382 179.419 236.728 191.786C237.106 193.782 229.69 197.542 229.69 197.542Z" fill="#BF8F5C"/>
<path d="M263.031 97.1405C238.42 104.706 219.195 98.7191 201.787 92.3671C197.942 87.5045 195.34 82.5378 195.34 82.5378L195.384 82.3458C206.212 84.8085 220.723 87.0111 234.487 85.6111C261.191 82.8938 277.342 73.6178 278.94 74.4178C280.526 75.2098 278.652 88.4231 269.891 94.7285C267.558 95.6538 265.271 96.4525 263.031 97.1405Z" fill="#3D2E27"/>
<path d="M192.369 88.9553C191.021 87.5593 189.7 86.2313 188.438 84.9713C185.878 82.41 182.436 79.91 178.292 77.4873C178.58 77.5927 185.428 80.0793 195.384 82.346L195.34 82.538C195.34 82.538 197.942 87.5047 201.788 92.3673C198.976 91.3407 196.21 90.3033 193.477 89.314C193.108 89.182 192.738 89.0607 192.369 88.9553Z" fill="#2E231D"/>
<path d="M169.358 190.505C163.761 192.745 157.097 190.505 157.097 190.505C157.097 190.505 156.386 188.808 156.457 186.884L156.549 186.887C165.187 191.631 169.761 185.871 169.761 185.871C173.657 180.959 183.821 164.865 183.821 164.865C180.602 161.647 176.367 149.281 168.745 143.86C161.122 138.44 149.095 141.488 149.095 141.488L149.087 141.492C147.089 136.587 146.723 132.287 146.723 132.287C156.423 129.488 159.337 126.225 159.337 126.225C167.074 136.288 175.257 143.071 182.55 147.628C180.395 154.956 189.185 165.509 189.185 165.509C179.65 175.155 169.358 190.505 169.358 190.505Z" fill="#BF8F5C"/>
<path d="M146.723 132.287C140.358 134.123 131.067 135.759 117.763 136.139C117.763 136.139 119.003 131.412 119.346 126.958C120.355 127.538 133.483 134.578 157.226 123.194L157.378 123.112C158.459 125.01 159.337 126.226 159.337 126.226C159.337 126.226 156.423 129.488 146.723 132.287Z" fill="#BF8F5C"/>
<path d="M155.532 118.789C154.536 108.175 175.02 83.9881 192.369 88.9548C196.98 93.7295 201.909 99.2855 205.765 105.508C208.224 109.487 210.247 113.735 211.464 118.231C215.14 131.823 213.863 139.337 218.819 144.456C223.159 151.825 232.777 159.444 232.777 159.444V191.121C228.257 196.451 219.425 192.545 218.608 192.168C219.28 189.973 221.329 187.168 224.896 187.947C224.896 187.947 227.613 170.997 220.736 164.601C213.863 158.204 209.065 157.245 204.748 156.605C202.171 156.227 193.335 154.367 182.551 147.628C175.256 143.071 167.075 136.288 159.337 126.225C159.337 126.225 158.459 125.009 157.379 123.112C156.704 121.929 155.956 120.491 155.288 118.915C155.369 118.873 155.451 118.829 155.532 118.789Z" fill="#E1AD74"/>
<path d="M155.532 118.789C154.536 108.175 175.02 83.9881 192.369 88.9548C196.98 93.7295 201.909 99.2855 205.765 105.508C208.224 109.487 210.247 113.735 211.464 118.231C215.14 131.823 213.863 139.337 218.819 144.456C223.159 151.825 232.777 159.444 232.777 159.444V191.121C228.257 196.451 219.425 192.545 218.608 192.168C219.28 189.973 221.329 187.168 224.896 187.947C224.896 187.947 227.613 170.997 220.736 164.601C213.863 158.204 209.065 157.245 204.748 156.605C202.171 156.227 193.335 154.367 182.551 147.628C175.256 143.071 167.075 136.288 159.337 126.225C159.337 126.225 158.459 125.009 157.379 123.112C156.704 121.929 155.956 120.491 155.288 118.915C155.369 118.873 155.451 118.829 155.532 118.789Z" stroke="#E1AD74" stroke-width="0.254" stroke-miterlimit="10"/>
<path d="M157.419 183.896C159.391 181.233 164.665 182.724 164.665 182.724C164.665 182.724 172.288 172.969 172.98 170.357C173.675 167.745 170.476 161.725 169.781 160.658C169.091 159.59 166.532 158.686 157.205 152.236C153.14 149.426 150.625 145.28 149.088 141.492L149.095 141.489C149.095 141.489 161.121 138.44 168.744 143.861C176.368 149.281 180.603 161.648 183.821 164.865C183.821 164.865 173.657 180.958 169.761 185.87C169.761 185.87 165.187 191.63 156.548 186.888L156.456 186.884C156.491 185.877 156.741 184.81 157.419 183.896Z" fill="#E1AD74"/>
<path d="M97.9333 49.1538C97.9333 49.1538 99.7453 52.7791 100.813 53.6324C98.9467 54.8044 98.892 56.5084 98.892 56.5084C98.892 56.5084 120.961 56.1911 141.747 62.5871C156.128 67.0111 168.975 72.0498 178.281 77.4831C178.281 77.4831 178.285 77.4831 178.292 77.4871C182.436 79.9098 185.877 82.4098 188.439 84.9711C189.699 86.2311 191.02 87.5591 192.369 88.9551C175.019 83.9884 154.536 108.175 155.532 118.79C155.451 118.83 155.369 118.874 155.288 118.915C149.356 121.936 136.787 124.183 128.767 122.178C99.5293 114.87 104.712 89.9924 96.2427 84.2324C94.396 82.9791 91.9973 82.4578 89.4867 82.3618C84.656 82.1791 81.5387 77.0738 83.572 72.6858C92.7973 52.7818 85.4627 31.2458 85.4627 31.2458C88.3427 34.1244 92.4987 34.4431 92.4987 34.4431C92.4987 34.4431 90.9507 40.9991 95.6973 45.6364C95.376 47.0764 92.4987 47.5551 92.4987 47.5551C92.4987 47.5551 95.1627 49.7404 97.9333 49.1538" fill="#3D2E27"/>
<path d="M82.3522 200.778C82.3522 200.778 90.4829 205.012 94.8882 201.116C94.8882 201.116 101.834 187.395 103.358 184.515C103.358 184.515 99.4616 152.668 117.587 136.238L117.644 136.284C116.283 137.972 103.828 154.306 106.251 183.791C106.251 183.791 99.5322 198.342 96.6562 205.216C96.6562 205.216 85.6216 206.496 83.5442 205.216C82.5189 204.586 81.7629 202.668 82.0509 200.754L82.3522 200.778Z" fill="#BF8F5C"/>
<path d="M85.7401 150.975C84.9068 146.815 78.1948 137.755 73.7801 135.51C72.9708 131.674 72.3508 129.106 72.3508 129.106C74.3161 129.76 85.3401 140.1 90.2801 149.759C89.6028 154.227 88.7655 180.06 88.7655 180.06C84.0228 184.11 77.1481 200.206 77.1481 200.206C75.2268 201.114 66.1135 200.527 65.6361 200.206C65.2868 199.975 63.7055 198.619 63.6375 196.431C65.2335 196.776 73.7668 198.487 75.9148 196.035C78.2868 193.324 82.8601 182.483 85.4015 179.434C85.4015 179.434 86.5868 155.21 85.7401 150.975" fill="#BF8F5C"/>
<path d="M70.1286 0.479344C71.6633 0.912678 70.9579 6.25534 72.6699 8.53934C74.5899 11.1007 77.7886 14.1367 79.3873 17.494C80.9366 20.75 82.4846 27.9047 85.1953 30.9607L84.9233 31.2887C84.4153 37.8953 77.8086 41.7073 72.9806 38.658C70.2806 36.954 70.3486 35.3007 71.0673 32.7793C71.8459 30.0553 73.3806 26.3087 72.9913 20.3727C72.9299 16.1687 69.8473 9.33934 70.1113 0.547345L70.1286 0.479344Z" fill="#3D2E27"/>
<path d="M73.7807 135.509C78.1954 137.755 84.9061 146.814 85.7407 150.974C86.5874 155.21 85.4007 179.433 85.4007 179.433C82.8607 182.482 78.2861 193.323 75.9154 196.034C73.7674 198.487 65.2327 196.777 63.6367 196.43C63.6101 195.601 63.7994 194.651 64.3554 193.598C66.3821 189.759 72.3514 191.146 72.3514 191.146C72.3514 191.146 76.1901 182.191 77.4674 178.993C78.7474 175.794 77.9474 171.957 77.4674 160.126C77.1647 152.621 75.1874 142.155 73.7807 135.509Z" fill="#E1AD74"/>
<path d="M48.0053 3.43688C48.1747 3.23688 48.496 3.32488 48.5373 3.58221C48.7707 5.09421 49.4827 8.94621 50.9253 11.4195C54.2827 17.1755 58.2 18.7849 58.6 23.8555L58.6067 23.9169C56.0413 24.1742 52.592 25.2142 49.6787 26.8275C49.6787 26.8275 50.1267 20.4542 49.0053 15.8942C47.8867 11.3382 46.7627 5.92755 48.0053 3.43688Z" fill="#2E231D"/>
<path d="M46.8094 29.0022L46.7014 28.8809C46.7548 28.8262 46.8134 28.7755 46.8708 28.7275C47.7001 28.0302 48.6561 27.3929 49.6788 26.8275C52.5921 25.2142 56.0414 24.1742 58.6068 23.9169C59.3241 23.8462 59.9721 23.8355 60.5174 23.8902L60.5481 23.9035C61.0454 22.8262 61.5201 21.5995 61.7974 20.3729C62.5974 16.8569 62.2788 11.1009 63.7148 8.53953C63.7148 8.53953 62.8174 14.5182 64.5961 24.4289C65.1081 27.2782 65.3041 29.8929 65.3241 32.1769C65.3481 34.7955 62.2548 36.1235 60.3041 34.3782C55.0521 29.6769 46.8094 29.0022 46.8094 29.0022Z" fill="#3D2E27"/>
<path d="M85.4625 31.2452C85.4625 31.2452 92.7972 52.7826 83.5718 72.6866C81.5398 77.0732 84.6558 82.1799 89.4878 82.3626C91.9972 82.4572 94.3958 82.9786 96.2425 84.2319C104.713 89.9919 99.5292 114.869 128.766 122.177C136.786 124.183 149.356 121.937 155.288 118.915C155.956 120.491 156.704 121.931 157.378 123.113L157.225 123.193C133.483 134.577 120.355 127.537 119.345 126.957C119.003 131.413 117.763 136.139 117.763 136.139C117.763 136.139 117.723 136.187 117.644 136.285L117.587 136.237C99.4612 152.669 103.357 184.516 103.357 184.516C101.833 187.396 94.8878 201.116 94.8878 201.116C90.4838 205.013 82.3518 200.777 82.3518 200.777L82.0505 200.755C82.3492 198.789 83.7412 196.831 87.0612 196.261C93.6172 195.144 94.0985 185.068 94.0985 185.068C94.0985 185.068 94.7358 169.225 92.4998 155.969C92.1678 154.007 91.3745 151.9 90.2798 149.759C85.3412 140.1 74.3158 129.76 72.3518 129.105C69.9518 128.307 69.9518 128.307 67.8718 127.185C63.1838 119.829 63.3972 110.876 63.3972 110.876C63.3972 110.876 61.4798 112.901 60.9985 114.819C58.5998 115.995 54.4425 112.475 54.4425 112.475C54.4425 112.475 54.0158 109.063 54.4425 105.441C52.4172 105.547 51.8038 107.677 51.8038 107.677C51.8038 107.677 47.9412 98.4039 49.2865 89.1279C49.2865 89.1279 48.0252 87.0519 46.1078 88.1692C46.1078 88.1692 47.0665 81.2412 45.1598 77.2972C44.5798 76.0986 43.7132 75.0306 42.4452 74.1506L42.5852 73.9599C43.1505 73.7266 50.8278 70.3932 46.2612 63.0652C46.2132 62.9906 46.1652 62.9092 46.1212 62.8172C44.5865 59.9586 42.2252 49.3332 46.4092 38.2079C46.4532 38.0892 46.2945 37.9972 46.2172 38.0986C42.9545 42.4386 39.9585 37.7772 39.9585 37.7772L39.9452 37.7532C40.3518 37.5292 40.7012 37.2826 40.9985 37.0012C42.6892 35.4026 43.9772 32.3399 45.5532 30.1919C45.9145 29.6932 46.2945 29.2466 46.7012 28.8799L46.8092 29.0026C46.8092 29.0026 55.0518 29.6772 60.3038 34.3786C62.2545 36.1239 65.3478 34.7959 65.3252 32.1772C65.3038 29.8932 65.1078 27.2786 64.5958 24.4293C62.8172 14.5186 63.7158 8.53991 63.7158 8.53991C65.1545 5.98124 67.0732 1.50525 69.4718 0.546582C69.7292 0.445249 69.9452 0.425244 70.1292 0.479911L70.1118 0.546582C69.8478 9.33858 72.9305 16.1692 72.9918 20.3732C73.0625 25.2999 71.6972 30.6052 71.0638 32.7799H71.0665C70.3492 35.3012 70.2812 36.9532 72.9812 38.6586C77.8092 41.7066 84.4158 37.8959 84.9238 31.2892L85.1945 30.9613C85.2825 31.0626 85.3705 31.1532 85.4625 31.2452Z" fill="#E1AD74"/>
<path d="M85.4625 31.2452C85.4625 31.2452 92.7972 52.7826 83.5718 72.6866C81.5398 77.0732 84.6558 82.1799 89.4878 82.3626C91.9972 82.4572 94.3958 82.9786 96.2425 84.2319C104.713 89.9919 99.5292 114.869 128.766 122.177C136.786 124.183 149.356 121.937 155.288 118.915C155.956 120.491 156.704 121.931 157.378 123.113L157.225 123.193C133.483 134.577 120.355 127.537 119.345 126.957C119.003 131.413 117.763 136.139 117.763 136.139C117.763 136.139 117.723 136.187 117.644 136.285L117.587 136.237C99.4612 152.669 103.357 184.516 103.357 184.516C101.833 187.396 94.8878 201.116 94.8878 201.116C90.4838 205.013 82.3518 200.777 82.3518 200.777L82.0505 200.755C82.3492 198.789 83.7412 196.831 87.0612 196.261C93.6172 195.144 94.0985 185.068 94.0985 185.068C94.0985 185.068 94.7358 169.225 92.4998 155.969C92.1678 154.007 91.3745 151.9 90.2798 149.759C85.3412 140.1 74.3158 129.76 72.3518 129.105C69.9518 128.307 69.9518 128.307 67.8718 127.185C63.1838 119.829 63.3972 110.876 63.3972 110.876C63.3972 110.876 61.4798 112.901 60.9985 114.819C58.5998 115.995 54.4425 112.475 54.4425 112.475C54.4425 112.475 54.0158 109.063 54.4425 105.441C52.4172 105.547 51.8038 107.677 51.8038 107.677C51.8038 107.677 47.9412 98.4039 49.2865 89.1279C49.2865 89.1279 48.0252 87.0519 46.1078 88.1692C46.1078 88.1692 47.0665 81.2412 45.1598 77.2972C44.5798 76.0986 43.7132 75.0306 42.4452 74.1506L42.5852 73.9599C43.1505 73.7266 50.8278 70.3932 46.2612 63.0652C46.2132 62.9906 46.1652 62.9092 46.1212 62.8172C44.5865 59.9586 42.2252 49.3332 46.4092 38.2079C46.4532 38.0892 46.2945 37.9972 46.2172 38.0986C42.9545 42.4386 39.9585 37.7772 39.9585 37.7772L39.9452 37.7532C40.3518 37.5292 40.7012 37.2826 40.9985 37.0012C42.6892 35.4026 43.9772 32.3399 45.5532 30.1919C45.9145 29.6932 46.2945 29.2466 46.7012 28.8799L46.8092 29.0026C46.8092 29.0026 55.0518 29.6772 60.3038 34.3786C62.2545 36.1239 65.3478 34.7959 65.3252 32.1772C65.3038 29.8932 65.1078 27.2786 64.5958 24.4293C62.8172 14.5186 63.7158 8.53991 63.7158 8.53991C65.1545 5.98124 67.0732 1.50525 69.4718 0.546582C69.7292 0.445249 69.9452 0.425244 70.1292 0.479911L70.1118 0.546582C69.8478 9.33858 72.9305 16.1692 72.9918 20.3732C73.0625 25.2999 71.6972 30.6052 71.0638 32.7799H71.0665C70.3492 35.3012 70.2812 36.9532 72.9812 38.6586C77.8092 41.7066 84.4158 37.8959 84.9238 31.2892L85.1945 30.9613C85.2825 31.0626 85.3705 31.1532 85.4625 31.2452Z" stroke="#E1AD74" stroke-width="0.254" stroke-miterlimit="10"/>
<path d="M46.701 28.8802C46.2943 29.2455 45.9157 29.6935 45.553 30.1908L45.5463 30.1882C45.5463 30.1882 47.565 26.2882 45.8063 21.3322C45.8063 21.3322 41.8357 10.6362 48.005 3.43616C46.7623 5.92683 47.8863 11.3375 49.005 15.8948C50.1263 20.4548 49.6797 26.8268 49.6797 26.8268C48.6557 27.3935 47.701 28.0295 46.8703 28.7282C46.813 28.7748 46.7557 28.8255 46.701 28.8802Z" fill="#BF8F5C"/>
<path d="M39.9588 37.777C39.9588 37.777 42.9535 42.4383 46.2162 38.0983C46.2948 37.997 46.4535 38.089 46.4095 38.2077C42.2255 49.333 44.5868 59.9583 46.1215 62.817C46.0162 62.9023 45.9108 62.9837 45.8068 63.065C36.4722 70.2263 25.2215 66.3037 23.1855 66.5197C21.2242 66.7303 18.6148 68.4237 18.6148 68.4237L18.6188 68.4277C17.9202 68.8277 17.2122 69.2063 16.3855 68.9837C13.6655 68.241 10.8935 64.8197 9.78282 63.309C12.1308 63.993 14.8028 64.3517 17.3442 63.7597C17.3442 63.7597 17.4255 62.1837 15.5455 61.4277C13.2682 60.5063 13.0108 59.1983 13.7228 58.1077C14.3455 57.149 16.3308 57.3397 17.3442 59.029C18.3575 60.7197 18.6148 62.4783 18.6148 62.4783C19.8508 63.0143 23.9775 64.1423 26.9388 60.3477C30.1375 56.2517 27.4948 50.9863 26.6202 50.4343C26.1028 50.1063 25.3055 49.7877 24.3068 49.5063C21.6028 48.7437 17.4228 48.2463 13.2388 48.517V48.3197C13.2388 48.3197 23.2188 43.7463 38.1628 38.665L38.1188 38.533C38.8308 38.2917 39.4335 38.041 39.9455 37.753L39.9588 37.777Z" fill="#4F3B32"/>
<path d="M38.1193 38.5324L38.1633 38.6644C23.2193 43.7471 13.2379 48.3204 13.2379 48.3204V48.5164C11.3579 48.6391 9.4806 48.9124 7.7366 49.3911C11.1886 47.5751 18.4926 43.8791 23.4019 42.4391C30.7539 40.2844 35.2966 39.4844 38.1193 38.5324Z" fill="#8C7C72"/>
<path d="M24.3066 49.5061C25.3066 49.7874 26.1026 50.1061 26.6199 50.4341C15.2679 60.4288 1.09594 56.2274 1.09594 56.2274L1.05194 56.2341C0.946609 55.6008 0.922609 54.9368 1.03461 54.2728C1.19061 53.3314 1.89194 52.2768 3.29861 51.3181C3.71194 53.1181 16.4599 50.1301 24.3026 49.6208L24.3066 49.5061Z" fill="#211916"/>
<path d="M24.3066 49.5061C25.3066 49.7874 26.1026 50.1061 26.6199 50.4341C15.2679 60.4288 1.09594 56.2274 1.09594 56.2274L1.05194 56.2341C0.946609 55.6008 0.922609 54.9368 1.03461 54.2728C1.19061 53.3314 1.89194 52.2768 3.29861 51.3181C3.71194 53.1181 16.4599 50.1301 24.3026 49.6208L24.3066 49.5061Z" stroke="#211916" stroke-width="0.254" stroke-miterlimit="10"/>
<path d="M42.5846 73.9602L42.4459 74.1496C39.5353 72.1336 34.5139 71.1176 25.9739 71.8602C22.9953 70.9016 23.6353 67.8109 20.5393 67.7029C19.8579 67.6789 19.2446 68.0616 18.6179 68.4282L18.6153 68.4242C18.6153 68.4242 21.2233 66.7309 23.1846 66.5202C25.2219 66.3029 36.4726 70.2269 45.8059 63.0642C45.9113 62.9829 46.0166 62.9016 46.1219 62.8176C46.1659 62.9082 46.2126 62.9896 46.2606 63.0642C50.8273 70.3922 43.1499 73.7269 42.5846 73.9602Z" fill="#2E231D"/>
<path d="M13.2383 48.517C17.4223 48.2463 21.6036 48.7436 24.3063 49.5063L24.3036 49.621C16.4596 50.129 3.71161 53.1183 3.29828 51.3183C4.10095 50.7663 5.13428 50.2476 6.43161 49.7943C6.85561 49.645 7.29295 49.513 7.73561 49.3916C9.48095 48.913 11.3583 48.6383 13.2383 48.517Z" fill="#61534A"/>
<path d="M26.6206 50.4344C27.4953 50.9864 30.138 56.2517 26.9393 60.3477C23.978 64.1424 19.8513 63.0144 18.6153 62.4784C18.6153 62.4784 18.358 60.7197 17.3446 59.029C16.3313 57.3384 14.346 57.149 13.7233 58.1077C13.0113 59.1984 13.2686 60.5064 15.546 61.4277C17.426 62.1837 17.3446 63.7597 17.3446 63.7597C14.8033 64.3517 12.13 63.993 9.78197 63.309C6.21797 62.2757 3.40597 60.4864 2.9553 60.1344C2.39663 59.697 1.36063 58.101 1.0513 56.2344L1.0953 56.2277C1.0953 56.2277 15.2673 60.429 26.6206 50.4344" fill="black"/>
<path d="M7.73619 49.3909C11.1882 47.5749 18.4935 43.8789 23.4015 42.4389C30.7535 40.2842 35.2975 39.4842 38.1189 38.5322C38.8309 38.2922 39.4335 38.0415 39.9455 37.7535C40.3522 37.5295 40.7015 37.2829 40.9989 37.0015C42.6895 35.4015 43.9775 32.3389 45.5522 30.1909C45.9149 29.6935 46.2949 29.2455 46.7015 28.8802C46.7549 28.8255 46.8122 28.7749 46.8709 28.7282C47.7002 28.0295 48.6562 27.3935 49.6789 26.8269C52.5922 25.2149 56.0415 24.1749 58.6055 23.9175C59.3242 23.8455 59.9709 23.8362 60.5175 23.8895" stroke="black" stroke-width="0.508" stroke-miterlimit="10" stroke-linecap="round" stroke-linejoin="round"/>
<path d="M178.292 77.487C182.436 79.9097 185.877 82.4097 188.439 84.971C189.699 86.231 191.02 87.559 192.369 88.955C196.98 93.7284 201.909 99.2857 205.765 105.508C208.224 109.486 210.247 113.735 211.463 118.231C215.139 131.823 213.861 139.338 218.819 144.456C223.775 149.572 235.128 156.287 235.128 156.287C235.128 156.287 234.383 179.42 236.727 191.786C237.107 193.782 229.691 197.542 229.691 197.542C229.691 197.542 220.844 198.5 218.5 194.344C218.283 193.96 218.317 193.124 218.608 192.168C219.279 189.974 221.329 187.168 224.896 187.947C224.896 187.947 227.613 170.998 220.736 164.602C213.861 158.204 209.064 157.246 204.748 156.606C202.171 156.226 193.335 154.366 182.551 147.627C175.256 143.071 167.075 136.288 159.336 126.226C159.336 126.226 156.423 129.488 146.723 132.287C140.357 134.123 131.068 135.759 117.763 136.139C117.763 136.139 117.723 136.187 117.644 136.284C116.283 137.972 103.828 154.306 106.251 183.791C106.251 183.791 99.5319 198.342 96.6559 205.216C96.6559 205.216 85.6212 206.496 83.5452 205.216C82.5186 204.586 81.7626 202.668 82.0506 200.754C82.3492 198.788 83.7412 196.831 87.0612 196.262C93.6172 195.143 94.0986 185.067 94.0986 185.067C94.0986 185.067 94.7346 169.226 92.4986 155.968C92.1666 154.007 91.3746 151.9 90.2799 149.759C85.3399 140.099 74.3159 129.759 72.3506 129.106C69.9519 128.306 69.9519 128.306 67.8719 127.184C63.1839 119.83 63.3972 110.875 63.3972 110.875C63.3972 110.875 61.4786 112.902 60.9986 114.819C58.5999 115.994 54.4426 112.474 54.4426 112.474C54.4426 112.474 54.0159 109.063 54.4426 105.44C52.4159 105.546 51.8026 107.676 51.8026 107.676C51.8026 107.676 47.9412 98.4044 49.2866 89.1284C49.2866 89.1284 48.0252 87.051 46.1079 88.1697C46.1079 88.1697 47.0666 81.2404 45.1599 77.2977C44.5799 76.0977 43.7132 75.031 42.4452 74.1497C39.5359 72.1337 34.5146 71.1177 25.9733 71.859C22.9959 70.9004 23.6359 67.811 20.5399 67.703C19.8586 67.679 19.2453 68.0617 18.6186 68.4284C17.9199 68.827 17.2119 69.207 16.3852 68.983C13.6652 68.2417 10.8932 64.819 9.78258 63.3084" stroke="black" stroke-width="0.508" stroke-miterlimit="10" stroke-linecap="round" stroke-linejoin="round"/>
<path d="M98.8922 56.5089C98.8922 56.5089 120.962 56.1902 141.747 62.5862C156.128 67.0116 168.975 72.0489 178.282 77.4836" stroke="black" stroke-width="0.508" stroke-miterlimit="10" stroke-linecap="round" stroke-linejoin="round"/>
<path d="M58.5994 27.41C58.5994 27.41 59.6154 25.9153 60.5474 23.9033C61.046 22.826 61.5194 21.5993 61.798 20.3726C62.5967 16.8566 62.2794 11.1006 63.7154 8.53931C65.1554 5.98064 67.0727 1.50597 69.4714 0.547307C69.7287 0.445973 69.946 0.424637 70.1287 0.479303C71.6634 0.912637 70.958 6.25531 72.67 8.53931C74.59 11.1006 77.7887 14.1366 79.3874 17.494C80.9367 20.75 82.4847 27.9046 85.1954 30.9606C85.2834 31.062 85.3714 31.154 85.462 31.2446C88.342 34.1246 92.4994 34.4433 92.4994 34.4433C92.4994 34.4433 90.9514 40.9993 95.6967 45.6366C95.3754 47.0766 92.4994 47.5553 92.4994 47.5553C92.4994 47.5553 95.162 49.7393 97.9327 49.154C97.9327 49.154 99.746 52.7793 100.813 53.6326C98.946 54.8046 98.8927 56.5086 98.8927 56.5086C98.8927 56.5086 105.77 62.9593 106.569 74.418" stroke="black" stroke-width="0.508" stroke-miterlimit="10" stroke-linecap="round" stroke-linejoin="round"/>
<path d="M70.752 33.8031C70.752 33.8031 70.8733 33.4311 71.064 32.7804C71.6973 30.6044 73.0627 25.2991 72.992 20.3737C72.9307 16.1684 69.848 9.33907 70.112 0.547073" stroke="black" stroke-width="0.508" stroke-miterlimit="10" stroke-linecap="round" stroke-linejoin="round"/>
<path d="M45.5456 30.1881C45.5456 30.1881 47.5643 26.2881 45.807 21.3321C45.807 21.3321 41.8363 10.6361 48.0056 3.43742C48.175 3.23742 48.4963 3.32541 48.5376 3.58275C48.771 5.09341 49.483 8.94541 50.9256 11.4187C54.283 17.1747 58.199 18.7841 58.599 23.8561" stroke="black" stroke-width="0.508" stroke-miterlimit="10" stroke-linecap="round" stroke-linejoin="round"/>
<path d="M49.679 26.8271C49.679 26.8271 50.1256 20.4538 49.0043 15.8938C47.887 11.3378 46.7616 5.92715 48.0056 3.43648" stroke="black" stroke-width="0.508" stroke-miterlimit="10" stroke-linecap="round" stroke-linejoin="round"/>
<path d="M18.6149 68.4244C18.6149 68.4244 21.2242 66.7311 23.1855 66.5204C25.2215 66.3031 35.5629 72.4884 52.9548 58.2591" stroke="black" stroke-width="0.508" stroke-miterlimit="10" stroke-linecap="round" stroke-linejoin="round"/>
<path d="M7.73619 49.3909C7.29219 49.5122 6.85485 49.6455 6.43219 49.7935C5.13485 50.2482 4.10152 50.7669 3.29752 51.3189C1.89219 52.2775 1.19085 53.3309 1.03485 54.2735C0.922853 54.9375 0.946853 55.6015 1.05219 56.2349C1.36019 58.1015 2.39619 59.6975 2.95619 60.1335C3.40685 60.4869 6.21885 62.2749 9.78285 63.3082C12.1309 63.9935 14.8029 64.3522 17.3442 63.7589C17.3442 63.7589 17.4255 62.1842 15.5455 61.4282C13.2682 60.5069 13.0109 59.1989 13.7229 58.1082C14.3455 57.1495 16.3309 57.3389 17.3442 59.0295C18.3575 60.7202 18.6149 62.4789 18.6149 62.4789C19.8509 63.0135 23.9775 64.1415 26.9389 60.3469C30.1375 56.2509 27.4949 50.9869 26.6202 50.4349C26.1029 50.1055 25.3055 49.7869 24.3069 49.5055C21.6029 48.7442 17.4229 48.2455 13.2389 48.5162C11.3575 48.6389 9.48152 48.9135 7.73619 49.3909Z" stroke="black" stroke-width="0.508" stroke-miterlimit="10" stroke-linecap="round" stroke-linejoin="round"/>
<path d="M1.09598 56.2278C1.09598 56.2278 15.268 60.4292 26.6213 50.4345" stroke="black" stroke-width="0.508" stroke-miterlimit="10" stroke-linecap="round" stroke-linejoin="round"/>
<path d="M227.773 107.677C227.773 107.677 227.773 107.681 227.769 107.681C227.668 107.718 226.038 108.389 225.056 110.557C223.09 111.234 221.058 110.076 221.058 110.076C220.258 108.636 220.177 106 220.898 105.12C220.898 105.12 218.392 106.4 217.965 108.317C212.596 109.154 209.414 108.049 205.765 105.509C205.761 105.509 205.761 105.505 205.758 105.505" stroke="black" stroke-width="0.508" stroke-miterlimit="10" stroke-linecap="round" stroke-linejoin="round"/>
<path d="M178.282 77.4838C178.282 77.4838 178.286 77.4838 178.293 77.4878C178.581 77.5918 185.427 80.0784 195.385 82.3451C206.213 84.8091 220.723 87.0104 234.487 85.6118C261.191 82.8944 277.342 73.6184 278.941 74.4171C280.526 75.2104 278.652 88.4238 269.891 94.7278C269.818 94.7824 269.743 94.8331 269.668 94.8878C269.668 94.8878 269.699 96.6598 270.467 97.7638C270.467 97.7638 269.559 100.322 267.107 100.962C265.135 100.322 263.271 97.9238 263.271 97.9238C263.271 97.9238 263.271 101.176 264.548 102.402C264.548 102.402 261.831 105.65 258.792 105.918C256.235 105.865 254.636 102.08 254.636 102.08C254.636 102.08 254.155 105.841 255.917 107.518C255.917 107.518 252.718 109.917 248.562 110.397C248.562 110.397 246.001 109.012 245.522 105.76C245.522 105.76 243.71 108.158 243.923 111.034C243.923 111.034 242.006 112.397 239.607 112.474C237.846 111.729 237.846 108.317 237.846 108.317C237.846 108.317 236.741 110.184 236.569 112.556C234.383 112.681 233.128 110.476 233.211 108.636C233.211 108.636 232.038 109.598 232.089 111.997C230.971 112.796 228.254 112.156 228.254 112.156C227.19 111.038 227.373 108.328 227.77 107.681" stroke="black" stroke-width="0.508" stroke-miterlimit="10" stroke-linecap="round" stroke-linejoin="round"/>
<path d="M72.3512 129.106C72.3512 129.106 72.9712 131.674 73.7805 135.508C75.1872 142.156 77.1658 152.622 77.4672 160.126C77.9485 171.956 78.7472 175.795 77.4672 178.994C76.1898 182.191 72.3512 191.146 72.3512 191.146C72.3512 191.146 66.3818 189.76 64.3552 193.599C63.8005 194.652 63.6098 195.6 63.6378 196.431C63.7045 198.619 65.2872 199.975 65.6365 200.204C66.1138 200.527 75.2272 201.112 77.1485 200.204C77.1485 200.204 84.0232 184.108 88.7658 180.06C88.7658 180.06 89.6032 154.227 90.2805 149.759C90.2938 149.678 90.3032 149.603 90.3178 149.535" stroke="black" stroke-width="0.508" stroke-miterlimit="10" stroke-linecap="round" stroke-linejoin="round"/>
<path d="M146.723 132.287C146.723 132.287 147.088 136.586 149.088 141.492C150.626 145.28 153.14 149.427 157.206 152.235C166.532 158.686 169.09 159.591 169.782 160.658C170.476 161.724 173.674 167.746 172.979 170.358C172.288 172.97 164.666 182.723 164.666 182.723C164.666 182.723 159.391 181.232 157.419 183.895C156.742 184.81 156.491 185.878 156.456 186.883C156.386 188.808 157.096 190.506 157.096 190.506C157.096 190.506 163.762 192.744 169.358 190.506C169.358 190.506 179.651 175.155 189.184 165.51C189.184 165.51 180.396 154.956 182.551 147.627" stroke="black" stroke-width="0.508" stroke-miterlimit="10" stroke-linecap="round" stroke-linejoin="round"/>
<path d="M117.763 136.139C117.763 136.139 119.003 131.412 119.346 126.958C119.447 125.65 119.471 124.366 119.362 123.231" stroke="black" stroke-width="0.508" stroke-linecap="round" stroke-linejoin="round"/>
<path d="M159.336 126.226C159.336 126.226 158.459 125.01 157.378 123.113C156.704 121.93 155.955 120.49 155.288 118.915C154.735 117.617 154.244 116.229 153.899 114.822" stroke="black" stroke-width="0.508" stroke-miterlimit="10" stroke-linecap="round" stroke-linejoin="round"/>
<path d="M49.7662 38.5863C49.7662 39.2223 49.2502 39.7397 48.6129 39.7397C47.9769 39.7397 47.4609 39.2223 47.4609 38.5863C47.4609 37.949 47.9769 37.433 48.6129 37.433C49.2502 37.433 49.7662 37.949 49.7662 38.5863Z" fill="black"/>
<path d="M49.7662 38.5863C49.7662 39.2223 49.2502 39.7397 48.6129 39.7397C47.9769 39.7397 47.4609 39.2223 47.4609 38.5863C47.4609 37.949 47.9769 37.433 48.6129 37.433C49.2502 37.433 49.7662 37.949 49.7662 38.5863Z" stroke="black" stroke-width="0.254" stroke-miterlimit="10" stroke-linecap="round" stroke-linejoin="round"/>
<path d="M44.8688 37.9764C44.8688 38.4524 44.4821 38.8391 44.0061 38.8391C43.5288 38.8391 43.1434 38.4524 43.1434 37.9764C43.1434 37.5004 43.5288 37.1138 44.0061 37.1138C44.4821 37.1138 44.8688 37.5004 44.8688 37.9764Z" fill="black"/>
<path d="M44.8688 37.9764C44.8688 38.4524 44.4821 38.8391 44.0061 38.8391C43.5288 38.8391 43.1434 38.4524 43.1434 37.9764C43.1434 37.5004 43.5288 37.1138 44.0061 37.1138C44.4821 37.1138 44.8688 37.5004 44.8688 37.9764Z" stroke="black" stroke-width="0.254" stroke-miterlimit="10" stroke-linecap="round" stroke-linejoin="round"/>
<path d="M72.3508 191.145C72.3508 191.145 75.0695 192.105 75.8682 193.384" stroke="black" stroke-width="0.508" stroke-miterlimit="10" stroke-linecap="round" stroke-linejoin="round"/>
<path d="M87.0617 196.262C87.0617 196.262 92.5777 195.382 94.7364 197.381" stroke="black" stroke-width="0.508" stroke-miterlimit="10" stroke-linecap="round" stroke-linejoin="round"/>
<path d="M164.666 182.724C164.666 182.724 166.657 183.631 167.953 184.749" stroke="black" stroke-width="0.508" stroke-miterlimit="10" stroke-linecap="round" stroke-linejoin="round"/>
<path d="M224.895 187.947C224.895 187.947 227.533 188.107 230.172 189.066" stroke="black" stroke-width="0.508" stroke-miterlimit="10" stroke-linecap="round" stroke-linejoin="round"/>
<path d="M67.6977 195.866C67.6977 195.866 66.3737 197.362 66.6137 200.206" stroke="black" stroke-width="0.508" stroke-miterlimit="10" stroke-linecap="round" stroke-linejoin="round"/>
<path d="M72.0174 196.332C72.0174 196.332 70.8507 197.925 71.1707 200.397" stroke="black" stroke-width="0.508" stroke-miterlimit="10" stroke-linecap="round" stroke-linejoin="round"/>
<path d="M86.2465 200.688C86.2465 200.688 84.3598 202.58 84.5691 205.423" stroke="black" stroke-width="0.508" stroke-miterlimit="10" stroke-linecap="round" stroke-linejoin="round"/>
<path d="M90.6174 201.468C90.6174 201.468 89.22 203.173 89.4987 205.642" stroke="black" stroke-width="0.508" stroke-miterlimit="10" stroke-linecap="round" stroke-linejoin="round"/>
<path d="M159.546 186.085C159.546 186.085 157.879 187.628 157.732 190.657" stroke="black" stroke-width="0.508" stroke-miterlimit="10" stroke-linecap="round" stroke-linejoin="round"/>
<path d="M163.322 187.311C163.322 187.311 162.006 188.623 162.304 191.251" stroke="black" stroke-width="0.508" stroke-miterlimit="10" stroke-linecap="round" stroke-linejoin="round"/>
<path d="M221.891 191.377C221.891 191.377 220.361 192.482 219.817 195.697" stroke="black" stroke-width="0.508" stroke-miterlimit="10" stroke-linecap="round" stroke-linejoin="round"/>
<path d="M226.423 193.198C226.423 193.198 224.94 194.638 224.687 197.349" stroke="black" stroke-width="0.508" stroke-miterlimit="10" stroke-linecap="round" stroke-linejoin="round"/>
</svg>
