<svg width="249" height="209" viewBox="0 0 249 209" fill="none" xmlns="http://www.w3.org/2000/svg">
<path d="M246.203 169.627C246.529 169.444 246.845 169.263 247.161 169.08C226.864 202.195 191.533 206.828 168.289 204.516C170.256 203.125 171.541 200.832 171.541 198.243C171.541 197.12 171.301 196.055 170.869 195.096C189.201 198.875 204.839 194.683 214.479 188.313C215.429 188.736 216.484 188.976 217.587 188.976C221.817 188.976 225.261 185.532 225.261 181.301C225.261 180.016 224.945 178.797 224.379 177.732C224.292 177.56 224.196 177.397 224.091 177.233C232.504 175.977 239.939 173.147 246.184 169.636C246.193 169.636 246.203 169.627 246.203 169.627Z" fill="#2A8A8A"/>
<path d="M224.926 169.972C233.78 174.173 245.684 169.818 246.183 169.636C239.939 173.146 232.504 175.977 224.091 177.233C223.89 176.917 223.668 176.61 223.43 176.332C224.36 176.648 224.926 176.792 224.926 176.792C224.926 176.792 224.043 172.936 224.926 169.972Z" fill="#3D6691"/>
<path d="M224.379 177.732C224.944 178.798 225.262 180.015 225.262 181.3C225.262 185.531 221.818 188.975 217.587 188.975C216.484 188.975 215.428 188.735 214.479 188.314C219.247 185.158 222.547 181.464 223.976 177.943L224.379 177.732Z" fill="#33A6A6"/>
<path d="M224.379 177.732L223.976 177.943C222.547 181.464 219.247 185.158 214.479 188.314C211.783 187.124 209.912 184.428 209.912 181.3C209.912 180.054 210.211 178.883 210.738 177.847C215.419 178.107 219.88 177.867 224.091 177.234C224.196 177.396 224.292 177.56 224.379 177.732Z" fill="#43BABA"/>
<path d="M223.429 176.332C223.669 176.611 223.889 176.917 224.091 177.233C219.88 177.867 215.419 178.107 210.739 177.848C211.956 175.431 214.412 173.741 217.28 173.636C219.717 174.969 222.009 175.852 223.429 176.332Z" fill="#2DC2C2"/>
<path d="M217.28 173.636C214.412 173.742 211.956 175.43 210.738 177.848C208.254 177.714 205.711 177.426 203.112 176.984L203.14 176.792C203.14 176.792 203.438 168.495 207.956 164.935C210.038 168.907 213.818 171.738 217.28 173.636Z" fill="#2DC2C2"/>
<path d="M46.8347 134.296C46.8347 130.056 43.3907 126.621 39.16 126.621C34.92 126.621 31.4867 130.056 31.4867 134.296C31.4867 138.527 34.92 141.971 39.16 141.971C43.3907 141.971 46.8347 138.527 46.8347 134.296ZM112.699 126.621C112.699 122.381 109.265 118.948 105.025 118.948C100.795 118.948 97.3507 122.381 97.3507 126.621C97.3507 130.852 100.795 134.296 105.025 134.296C109.265 134.296 112.699 130.852 112.699 126.621ZM156.193 154.757C156.193 150.517 152.749 147.084 148.519 147.084C144.279 147.084 140.844 150.517 140.844 154.757C140.844 158.997 144.279 162.432 148.519 162.432C152.749 162.432 156.193 158.997 156.193 154.757ZM41.8267 148.205C40.5507 149.616 39.2467 152.177 38.0667 155.333L27.0547 146.105C27.064 146.124 27.0733 146.153 27.0733 146.191C25.2893 143.121 23.6387 139.764 22.6027 136.473C20.9827 131.313 20.2333 125.835 19.8973 121.576C27.0453 122.045 68.6293 123.399 74.328 92.72L74.0213 92.6253C75.316 88.5387 75.8627 84.3747 75.6893 80.6533C75.46 75.9333 74.232 71.588 72.3133 67.6733C72.956 67.8467 73.628 67.9427 74.328 67.9427C78.568 67.9427 82.0013 64.508 82.0013 60.268C82.0013 56.028 78.568 52.5933 74.328 52.5933C70.4427 52.5933 67.22 55.4907 66.72 59.2413C62.0493 53.7547 56.1973 49.5907 50.8347 46.9053C43.7653 43.3747 34.872 41.092 27.3133 40.2187C27.8027 38.876 28.992 36.036 31.284 33.0053C35.5347 27.412 43.5733 21.1774 57.9427 22.588L58.1347 22.156C61.2907 23.5467 64.3707 25.2347 67.316 27.096C75.4787 32.2667 82.568 38.7227 87.3067 43.4613C88.7453 44.9 90.2907 46.5693 91.9307 48.4493C98.3093 55.7693 106.061 66.12 113.803 77.1227C115.26 79.1853 116.719 81.276 118.167 83.3773C116.037 84.74 114.617 87.128 114.617 89.8427C114.617 94.0827 118.061 97.5173 122.292 97.5173C123.961 97.5173 125.515 96.9893 126.772 96.0787C127.635 97.3733 128.489 98.6587 129.324 99.9347C130.504 101.728 132.048 104.289 133.899 107.407C138.207 114.612 144.144 124.751 150.927 134.929C158.044 145.596 166.083 156.321 174.141 163.756C178.285 167.593 182.439 170.557 186.468 172.197C192.233 174.548 197.797 176.092 203.112 176.984C205.711 177.425 208.253 177.713 210.737 177.848C210.211 178.884 209.913 180.053 209.913 181.301C209.913 184.428 211.784 187.124 214.479 188.313C204.839 194.683 189.203 198.875 170.871 195.096C169.661 192.428 166.976 190.568 163.867 190.568C162.304 190.568 160.845 191.037 159.637 191.844C148.557 187.719 136.805 180.572 125.016 169.309C120.527 165.021 113.371 154.384 103.144 150.547C99.48 149.175 95.4227 148.676 90.9613 149.644C80.4387 151.928 74.5773 155.899 61.752 170.864C63.8813 167.717 66.2413 163.4 68.5533 157.52C72.2467 148.157 76.668 139.62 85.676 135.783C83.0387 136.368 75.9773 138.401 71.3733 143.965C66.5667 149.769 60.3413 168.907 55.3053 170.585C52.9547 171.372 48.12 170.24 46.0187 169.665C44.628 168.188 42.5947 166.633 41.0307 164.783C41.7507 163.756 42.172 163.151 42.172 163.151L39.2173 161.012C39.16 159.793 39.3427 158.231 39.64 156.628C40.3493 152.733 41.712 148.551 41.8267 148.205" fill="#33A6A6"/>
<path d="M203.141 176.792L203.111 176.984C197.797 176.092 192.234 174.548 186.469 172.198C182.439 170.556 178.286 167.592 174.142 163.755L174.257 163.631C174.257 163.631 179.427 154.556 189.202 153.367C189.653 168.342 203.141 176.792 203.141 176.792Z" fill="#3D6691"/>
<path d="M174.256 163.631L174.142 163.755C166.083 156.322 158.044 145.596 150.927 134.93L151.263 134.699C151.263 134.699 167.858 130.843 177.94 134.104C172.011 148.187 174.256 163.631 174.256 163.631Z" fill="#43BABA"/>
<path d="M170.87 195.095C171.302 196.054 171.542 197.119 171.542 198.242C171.542 200.831 170.257 203.125 168.29 204.515C165.306 204.218 162.534 203.806 160.011 203.326C159.234 203.173 158.457 202.999 157.69 202.798C156.75 201.522 156.193 199.95 156.193 198.242C156.193 195.575 157.555 193.215 159.637 191.843C163.474 193.282 167.225 194.347 170.87 195.095Z" fill="#33A6A6"/>
<path d="M163.867 190.568C166.975 190.568 169.662 192.429 170.87 195.096C167.225 194.348 163.474 193.282 159.637 191.844C160.846 191.038 162.303 190.568 163.867 190.568Z" fill="#43BABA"/>
<path d="M159.637 191.843C157.556 193.215 156.193 195.575 156.193 198.242C156.193 199.95 156.749 201.522 157.69 202.798C150.61 200.937 144.164 196.918 138.437 191.958C135.108 189.09 132.029 185.906 129.209 182.654C120.997 173.205 114.982 163.19 111.538 158.633C109.025 155.314 105.917 153.175 102.608 152.005L103.145 150.546C113.37 154.383 120.528 165.022 125.017 169.31C136.806 180.571 148.557 187.718 159.637 191.843Z" fill="#2A8A8A"/>
<path d="M166.975 108.309C154.226 121.5 151.262 134.698 151.262 134.698L150.926 134.929C144.145 124.752 138.206 114.612 133.899 107.408L134.359 107.129C134.359 107.129 152.298 101.201 166.975 108.309" fill="#3D6691"/>
<path d="M148.519 147.083C152.749 147.083 156.193 150.518 156.193 154.758C156.193 158.998 152.749 162.431 148.519 162.431C144.279 162.431 140.844 158.998 140.844 154.758C140.844 150.518 144.279 147.083 148.519 147.083Z" fill="#43BABA"/>
<path d="M138.437 191.959L138.215 192.208C138.215 192.208 126.389 205.129 115.097 204.66C101.207 204.075 90.7701 202.385 74.0115 203.009L73.9435 200.601C85.9541 200.228 100.563 199.671 116.219 195.844C124.671 193.781 128.69 183.22 128.69 183.22L129.209 182.653C132.029 185.905 135.107 189.091 138.437 191.959Z" fill="#BDAF99"/>
<path d="M148.893 79.2618C137.918 92.5965 134.36 107.128 134.36 107.128L133.9 107.407C132.048 104.29 130.504 101.728 129.324 99.9338C128.489 98.6591 127.636 97.3725 126.772 96.0778C128.709 94.6778 129.966 92.4138 129.966 89.8431C129.966 85.6125 126.532 82.1685 122.292 82.1685C120.777 82.1685 119.357 82.6098 118.168 83.3778C116.718 81.2765 115.261 79.1845 113.802 77.1231L114.349 76.7391C114.349 76.7391 133.774 70.0725 148.893 79.2618" fill="#43BABA"/>
<path d="M69.023 185.915C71.987 183.623 72.2083 182.942 72.2083 182.942C62.8643 177.3 78.6923 158.71 88.515 152.244L88.4963 152.196C92.8803 150.604 97.9456 150.335 102.607 152.004C105.918 153.175 109.026 155.314 111.539 158.634C114.982 163.19 120.996 173.204 129.208 182.654L128.691 183.219C128.691 183.219 124.671 193.782 116.22 195.843C100.564 199.671 85.9536 200.227 73.9443 200.602C65.339 200.87 58.087 201.043 52.7443 202.242C40.2056 205.062 40.9163 195.767 40.9163 195.767L40.9643 195.422C43.871 195.863 47.151 196.284 50.0296 195.767C56.543 194.578 68.8496 185.684 68.8496 185.684L69.023 185.915Z" fill="#E6D5BA"/>
<path d="M122.292 82.1685C126.532 82.1685 129.967 85.6125 129.967 89.8432C129.967 92.4139 128.709 94.6779 126.772 96.0779C123.989 91.9045 121.093 87.6272 118.167 83.3765C119.356 82.6099 120.776 82.1685 122.292 82.1685Z" fill="#43BABA"/>
<path d="M126.772 96.0781C125.515 96.9888 123.961 97.5168 122.292 97.5168C118.061 97.5168 114.617 94.0821 114.617 89.8421C114.617 87.1274 116.037 84.7394 118.167 83.3768C121.093 87.6261 123.991 91.9048 126.772 96.0781Z" fill="#43BABA"/>
<path d="M126.503 46.5022C119.098 60.7382 114.349 76.7396 114.349 76.7396L113.802 77.1222C106.061 66.1196 98.3099 55.7689 91.9312 48.4502L92.1232 48.2769C92.1232 48.2769 110.465 41.2449 126.503 46.5022" fill="#3D6691"/>
<path d="M105.025 118.947C109.265 118.947 112.7 122.382 112.7 126.622C112.7 130.853 109.265 134.295 105.025 134.295C100.794 134.295 97.3502 130.853 97.3502 126.622C97.3502 122.382 100.794 118.947 105.025 118.947Z" fill="#43BABA"/>
<path d="M56.9226 176.754C56.932 176.745 56.8813 176.735 56.8906 176.725C58.244 175.497 59.9106 173.626 61.7813 170.863C74.608 155.899 80.4533 151.927 90.9773 149.645C95.4373 148.675 99.4879 149.174 103.152 150.546L102.611 152.005C97.9493 150.335 92.8826 150.603 88.4986 152.197C87.4626 152.561 86.4639 153.011 85.5239 153.521C79.6426 156.714 72.064 166.442 68.4 170.863C64.3613 175.747 61.604 180.274 58.3426 181.262C56.7986 180.217 56.18 179.201 54.8466 178.481V178.471C54.8466 178.135 56.0106 177.589 56.9226 176.754Z" fill="#2A8A8A"/>
<path d="M67.5168 26.7889C67.5168 26.7889 84.5634 16.7062 101.61 19.0769C93.5901 33.0342 92.1221 48.2769 92.1221 48.2769L91.9301 48.4489C90.2901 46.5689 88.7461 44.8995 87.3074 43.4609C82.5674 38.7222 75.4794 32.2662 67.3154 27.0955L67.5168 26.7889Z" fill="#43BABA"/>
<path d="M88.4964 152.196L88.5151 152.244C78.6924 158.71 62.8644 177.3 72.2084 182.942C72.2084 182.942 71.9871 183.623 69.0231 185.915L68.8497 185.686C64.7537 185.11 60.9937 183.134 58.2217 181.263C61.4831 180.275 64.3604 175.747 68.3991 170.864C72.0644 166.442 79.6417 156.715 85.5231 153.52C86.4631 153.012 87.4604 152.56 88.4964 152.196" fill="#BDAF99"/>
<path d="M71.3732 143.966C75.9772 138.402 83.0385 136.368 85.6758 135.783C76.6678 139.62 72.2465 148.158 68.5532 157.52C66.2412 163.4 63.8812 167.718 61.7518 170.864C60.2172 172.658 58.5852 174.606 56.8305 176.726L56.8012 176.754C55.8905 177.588 55.1318 178.135 54.6052 178.471C53.8465 177.81 53.4345 177.387 53.4345 177.387C53.2612 177.272 53.0598 177.224 52.8305 177.234C52.4372 176.438 51.9092 175.584 51.2758 174.72C49.9905 172.946 48.2638 171.19 46.3932 170.087C46.2692 169.943 46.1438 169.799 46.0198 169.664C48.1198 170.24 52.9545 171.372 55.3052 170.586C60.3412 168.907 66.5665 149.77 71.3732 143.966Z" fill="#2A8A8A"/>
<path d="M74.3277 52.5937C78.5677 52.5937 82.0024 56.0283 82.0024 60.2683C82.0024 64.5083 78.5677 67.9417 74.3277 67.9417C73.6277 67.9417 72.9557 67.847 72.3131 67.6737C70.8171 64.595 68.8984 61.7737 66.7211 59.2417C67.2197 55.491 70.4424 52.5937 74.3277 52.5937Z" fill="#43BABA"/>
<path d="M75.6899 80.6527C75.8633 84.3754 75.3153 88.538 74.0206 92.6247C71.6699 100.107 66.8739 107.311 59.6219 111.053C45.7406 118.199 31.0539 115.503 19.6393 113.939C19.6393 113.939 17.2793 112.271 16.7126 110.161C16.0219 107.609 16.9913 105.566 17.2126 105.134L17.1899 105.162C29.7846 110.419 37.5139 104.03 37.5139 104.03V103.993C40.1806 104.059 39.8473 104.03 40.8553 103.934C44.5873 103.589 52.1286 100.597 52.2046 98.198L53.1273 98.2754C53.1273 98.2754 63.5833 104.798 68.7246 95.118C73.2619 86.59 74.3233 74.7527 67.7033 64.7194L67.9646 64.5554C68.9819 66.062 70.5179 67.1847 72.3126 67.674C74.2299 71.5874 75.4593 75.9327 75.6899 80.6527Z" fill="#BDAF99"/>
<path d="M74.0207 92.6247L74.3274 92.7207C68.6301 123.398 27.0447 122.046 19.8981 121.575C19.5434 117.086 19.6394 113.939 19.6394 113.939C31.0541 115.503 45.7407 118.199 59.6221 111.053C66.8741 107.311 71.6701 100.107 74.0207 92.6247Z" fill="#278080"/>
<path d="M73.944 200.602L74.0107 203.01C71.46 203.106 68.764 203.259 65.8867 203.47C44.0907 205.1 43.784 208.707 38.0187 206.29C33.5773 204.43 31.208 198.818 33.0693 195.767C33.0787 195.758 33.0787 195.747 33.088 195.738C33.2893 195.527 33.5 195.316 33.7027 195.095C34.9493 194.395 37.7307 194.923 40.964 195.422L40.916 195.767C40.916 195.767 40.2067 205.062 52.744 202.242C58.0867 201.043 65.3387 200.87 73.944 200.602Z" fill="#BDAF99"/>
<path d="M72.3133 67.6737C70.52 67.1843 68.984 66.0617 67.968 64.5563C67.1427 63.3377 66.6533 61.8603 66.6533 60.2683C66.6533 59.923 66.6733 59.5777 66.7213 59.2417C68.8987 61.7737 70.8173 64.595 72.3133 67.6737Z" fill="#BDAF99"/>
<path d="M67.7086 64.719C74.3273 74.7537 73.2726 86.591 68.7353 95.119C63.5939 104.798 53.1473 98.275 53.1473 98.275L52.2446 98.1977C52.2553 97.8817 52.1393 97.575 51.8619 97.287C50.8633 96.2417 49.7219 95.147 48.2539 93.2777C46.5273 91.0803 44.3499 87.7897 41.4819 82.2163C36.6953 72.9017 28.4446 69.391 25.9219 68.4417C23.3993 67.491 17.8353 66.7043 14.6513 67.9137C12.186 68.8443 8.15661 72.8257 5.72995 75.3963L5.70995 75.2617C5.70995 75.2617 5.33528 72.3643 7.04328 69.0363C5.99795 65.4003 6.59261 61.4763 6.59261 61.4763C6.59261 61.4763 6.40995 58.3883 8.22329 55.1737C9.57662 52.7764 11.8113 50.023 14.334 47.519C30.882 40.0177 53.0513 49.9363 62.8166 58.9923C64.7726 60.8057 66.3846 62.7243 67.7086 64.719Z" fill="#E6D5BA"/>
<path d="M27.3131 40.2189C34.8718 41.0922 43.7651 43.3749 50.8345 46.9056C56.1971 49.5909 62.0491 53.7549 66.7211 59.2416C66.6731 59.5776 66.6531 59.9229 66.6531 60.2682C66.6531 61.8602 67.1425 63.3376 67.9678 64.5562L67.7091 64.7189C66.3851 62.7242 64.7731 60.8056 62.8158 58.9922C53.0505 49.9362 30.8811 40.0176 14.3345 47.5189C17.8745 43.9989 21.9705 40.9482 24.9531 39.9882C25.7211 40.0456 26.5078 40.1229 27.3131 40.2189Z" fill="#BDAF99"/>
<path d="M67.5168 26.7889L67.3155 27.0956C64.3701 25.2342 61.2915 23.5462 58.1355 22.1556C49.8848 18.5489 41.0981 17.0329 32.8288 20.1222C31.4195 20.6502 30.0955 21.2636 28.8488 21.9449L28.8288 21.8969C28.8288 21.8969 45.9515 6.03955 71.8528 1.22355C65.4355 12.7062 67.5168 26.7889 67.5168 26.7889Z" fill="#3D6691"/>
<path d="M61.7515 170.864C59.8809 173.627 58.1835 175.497 56.8302 176.725C58.5862 174.605 60.2169 172.657 61.7515 170.864Z" fill="#2A8A8A"/>
<path d="M54.6049 178.481C55.4396 179.201 56.6769 180.217 58.2209 181.262C58.1729 181.282 58.1156 181.301 58.0676 181.31C56.9356 180.975 55.3622 179.574 54.7302 178.826C54.7302 178.826 54.0862 178.922 53.7316 178.961C53.8276 178.922 54.1342 178.778 54.6049 178.481Z" fill="white"/>
<path d="M58.135 22.1556L57.943 22.5876C43.5737 21.177 35.5337 27.413 31.2844 33.005L28.675 32.7263C29.635 31.441 30.2004 29.8583 30.2004 28.1316C30.2004 25.9356 29.2804 23.949 27.7924 22.549C28.1377 22.3383 28.4937 22.137 28.8484 21.945C30.095 21.2636 31.419 20.649 32.8297 20.1223C41.0977 17.033 49.8857 18.549 58.135 22.1556Z" fill="#3BBFBF"/>
<path d="M55.1871 178.471V178.48C54.4684 178.778 54.1191 178.922 54.0231 178.96C54.0137 178.97 53.8684 178.97 53.8577 178.97C53.7431 178.979 53.5844 178.988 53.5844 178.979C53.4497 178.471 53.1831 177.876 52.8671 177.234C53.0964 177.224 53.5711 177.272 53.7444 177.387C53.7444 177.387 54.4684 177.81 55.1871 178.471Z" fill="#33A6A6"/>
<path d="M53.5113 179.04H53.4727C52.686 179.04 51.8327 178.424 50.9407 178.041C51.698 177.552 52.3313 177.299 52.83 177.279C53.1473 177.921 53.3767 179.04 53.5113 179.04Z" fill="#278080"/>
<path d="M51.8613 97.2868C52.14 97.5748 52.2547 97.8814 52.2453 98.1974C52.168 100.596 44.6667 103.589 40.9347 103.935C39.928 104.031 38.8347 104.059 37.6733 103.992C33.9613 103.8 29.5573 102.601 25.1933 99.1281C22.076 96.6441 20.7427 91.4161 19.1213 87.6934L19.332 87.6081C28.08 102.236 43.0747 100.797 47.996 93.4788L48.2547 93.2774C49.7227 95.1481 50.864 96.2414 51.8613 97.2868Z" fill="#4D4233"/>
<path d="M51.8613 97.2868C52.14 97.5748 52.2547 97.8814 52.2453 98.1974C52.168 100.596 44.6667 103.589 40.9347 103.935C39.928 104.031 38.8347 104.059 37.6733 103.992C33.9613 103.8 29.5573 102.601 25.1933 99.1281C22.076 96.6441 20.7427 91.4161 19.1213 87.6934L19.332 87.6081C28.08 102.236 43.0747 100.797 47.996 93.4788L48.2547 93.2774C49.7227 95.1481 50.864 96.2414 51.8613 97.2868Z" stroke="#4D4233" stroke-width="0.135" stroke-miterlimit="10"/>
<path d="M51.2761 174.72C51.9094 175.584 52.4374 176.438 52.8308 177.234C52.3308 177.252 51.6988 177.522 50.9401 178.011C50.0188 177.608 49.0601 177.147 48.0814 176.639C49.0694 175.978 50.0574 175.392 51.0268 174.903L51.2761 174.72Z" fill="#BDAF99"/>
<path d="M45.2039 169.454C45.2132 169.454 45.2225 169.454 45.2332 169.463C45.6265 169.655 46.0092 169.866 46.3932 170.087C48.2639 171.19 49.9905 172.946 51.2759 174.72L51.0265 174.902C50.0585 175.391 49.0705 175.976 48.0812 176.639C44.1492 174.624 39.9759 171.938 37.4532 169.875C38.0665 169.003 38.6425 168.187 39.1599 167.448C40.9732 167.823 43.1612 168.436 45.2039 169.454Z" fill="#E6D5BA"/>
<path d="M48.0817 176.639C49.0604 177.147 50.0191 177.608 50.9404 178.011C47.0364 180.495 40.0431 188.563 33.7017 195.096C33.5297 195.201 33.3857 195.316 33.2697 195.469C33.2031 195.556 33.1457 195.643 33.0884 195.739C33.0791 195.748 33.0791 195.757 33.0684 195.767C29.9124 198.98 26.9577 201.743 24.6751 203.172C19.3417 205.1 13.7111 202.136 12.8177 198.28C13.2311 196.448 13.9017 195.325 14.6991 194.596L15.3697 194.625C16.0031 197.301 20.5791 198.721 24.0417 198.721C27.2071 198.721 37.8551 183.497 48.0817 176.639" fill="#BDAF99"/>
<path d="M46.0193 169.665C46.1447 169.799 46.2687 169.943 46.394 170.087C46.01 169.866 45.626 169.655 45.2327 169.463C45.4047 169.511 45.674 169.589 46.0193 169.665Z" fill="#2A8A8A"/>
<path d="M46.0193 169.665C45.674 169.589 45.4046 169.511 45.2326 169.463C45.2233 169.454 45.214 169.454 45.2033 169.454C43.1606 168.437 40.974 167.823 39.1606 167.449C39.8993 166.394 40.542 165.482 41.0313 164.782C42.594 166.634 44.6286 168.187 46.0193 169.665Z" fill="#43BABA"/>
<path d="M39.1604 126.622C43.3911 126.622 46.8351 130.056 46.8351 134.296C46.8351 138.527 43.3911 141.97 39.1604 141.97C34.9204 141.97 31.4857 138.527 31.4857 134.296C31.4857 130.056 34.9204 126.622 39.1604 126.622Z" fill="#43BABA"/>
<path d="M39.218 161.012L42.1727 163.151C42.1727 163.151 41.75 163.756 41.0314 164.781C40.4847 164.149 39.9954 163.468 39.6114 162.748C39.3807 162.327 39.2567 161.721 39.218 161.012Z" fill="#33A6A6"/>
<path d="M39.6113 162.748C39.9953 163.468 40.4846 164.148 41.0313 164.782C40.542 165.482 39.8993 166.394 39.1606 167.448C37.194 167.036 35.6593 166.902 35.198 166.874C35.102 166.863 35.054 166.863 35.054 166.863C35.054 166.863 35.1606 165.914 35.4673 164.35C36.378 163.458 37.3286 161.76 38.086 160.178L39.218 161.012C39.2566 161.722 39.3806 162.326 39.6113 162.748Z" fill="#43BABA"/>
<path d="M41.8271 148.152C41.7125 148.497 40.3498 153.853 39.6405 156.52H39.6111L38.0671 155.252C39.2471 152.096 40.5511 149.562 41.8271 148.152Z" fill="#43BABA"/>
<path d="M39.6113 156.52H39.6393C39.3419 157.853 39.1606 159.74 39.2179 160.957L38.0859 160.096C38.9779 158.235 39.6113 156.52 39.6113 156.52Z" fill="#43BABA"/>
<path d="M38.0668 155.333L39.6108 156.628C39.6108 156.628 38.9775 158.317 38.0855 160.177L36.7615 159.218C37.1748 157.856 37.6068 156.552 38.0668 155.333Z" fill="#43BABA"/>
<path d="M36.1803 166.873C36.1803 166.903 37.6843 167.036 39.6509 167.449C39.1336 168.188 38.8029 169.003 38.1896 169.876C36.4429 168.456 34.8469 167.333 36.1803 166.931V166.873Z" fill="#2A8A8A"/>
<path d="M36.7621 159.218L38.0861 160.177C37.3274 161.761 36.3781 163.458 35.4674 164.35C35.6781 163.305 35.9754 161.99 36.3887 160.504C36.4554 160.245 36.5314 159.996 36.6087 159.746C36.6567 159.564 36.7047 159.39 36.7621 159.218Z" fill="#43BABA"/>
<path d="M27.0543 146.105L38.0663 155.333C37.6063 156.551 37.1743 157.855 36.7623 159.218L35.6489 158.413C35.6489 158.413 31.0356 153.021 27.0729 146.191C27.0729 146.153 27.0636 146.123 27.0543 146.105Z" fill="#33A6A6"/>
<path d="M9.89263 87.6652C10.7553 85.6505 12.118 83.9145 14.6606 83.5492C16.7513 83.2519 18.0086 85.1039 19.1206 87.6945C20.742 91.4159 21.9953 96.6439 25.1126 99.1292C29.478 102.601 33.514 103.8 37.514 103.992V104.031C37.514 104.031 29.7846 110.42 17.19 105.163L17.1726 105.133C17.21 105.076 17.25 105.048 17.25 105.048C11.0233 100.827 8.3673 93.0465 8.3673 93.0465L8.31396 92.6345C8.76596 91.2052 9.1633 89.3345 9.89263 87.6652Z" fill="#4D4233"/>
<path d="M37.4529 169.876C39.9756 171.938 44.1489 174.624 48.0822 176.638C37.8556 183.497 27.2076 198.721 24.0422 198.721C20.5796 198.721 16.0036 197.302 15.3702 194.625L14.6982 194.597C16.7516 192.736 19.6876 193.406 21.7116 191.172C24.4262 188.169 32.3009 177.166 37.4529 169.876Z" fill="#E6D5BA"/>
<path d="M36.7621 159.218C36.7047 159.39 36.6567 159.564 36.6087 159.746C36.6087 159.746 32.4287 155.852 27.0941 147.294C26.9981 147.141 26.8474 146.988 26.8474 146.834V146.824C26.8474 146.546 27.1141 146.325 27.1141 146.192C31.0754 153.021 35.6701 158.413 35.6701 158.413L36.7621 159.218Z" fill="white"/>
<path d="M36.3881 160.504C35.9761 161.99 35.6788 163.305 35.4668 164.35C35.0161 164.801 34.5654 165.041 34.1628 164.974C33.6254 164.888 32.9828 164.657 32.2628 164.321C32.6561 163.976 33.0014 163.726 33.2708 163.602C36.0908 162.269 23.1974 156.044 23.1974 156.044C23.1974 156.044 23.0254 156.341 22.7281 156.84C21.5868 155.42 21.0014 154.144 21.4134 153.366C22.2868 151.756 25.7201 148.369 26.7668 146.834C26.8628 146.988 26.9588 147.141 27.0548 147.294C32.3881 155.852 36.6081 159.746 36.6081 159.746C36.5321 159.996 36.4548 160.245 36.3881 160.504Z" fill="#2A8A8A"/>
<path d="M29.7211 162.892C27.1504 161.232 24.3677 158.883 22.7277 156.839C23.0251 156.34 23.1984 156.043 23.1984 156.043C23.1984 156.043 36.0904 162.268 33.2704 163.602C33.0024 163.727 32.6571 163.976 32.2637 164.322C31.4771 163.958 30.6131 163.468 29.7211 162.892Z" fill="#2A8A8A"/>
<path d="M33.2704 195.47C33.385 195.316 33.529 195.202 33.7024 195.095C33.501 195.316 33.289 195.527 33.0877 195.738C33.145 195.643 33.2037 195.556 33.2704 195.47Z" fill="white"/>
<path d="M24.9534 39.9888C17.9121 39.4128 12.4348 40.1901 11.4268 42.4541C11.6094 41.9648 13.1921 37.7914 16.6268 33.0341C18.0374 34.7314 20.1574 35.8061 22.5268 35.8061C25.0401 35.8061 27.2748 34.5981 28.6761 32.7274L31.2841 33.0048C28.9921 36.0368 27.8028 38.8754 27.3134 40.2194C26.5068 40.1234 25.7214 40.0461 24.9534 39.9888Z" fill="#3BBFBF"/>
<path d="M29.721 162.892C30.613 163.468 31.477 163.958 32.2637 164.322C31.217 165.204 29.769 166.73 28.1957 168.532L25.6637 167.468C27.381 165.444 28.9917 163.592 29.721 162.892Z" fill="#BDAF99"/>
<path d="M30.2007 28.132C30.2007 29.8586 29.6353 31.4413 28.6753 32.7266C27.2753 34.5973 25.0393 35.8066 22.526 35.8066C20.1567 35.8066 18.0367 34.732 16.6273 33.0333C19.226 29.4173 22.882 25.4653 27.7927 22.5493C29.2793 23.9493 30.2007 25.9346 30.2007 28.132Z" fill="#57CFCF"/>
<path d="M25.6633 167.468L28.1953 168.533C24.0233 173.281 18.9393 179.872 17.8646 181.233C16.234 183.315 13.1153 184.351 11.0433 184.495C8.96198 184.649 2.15131 182.269 2.73664 178.269C2.93798 176.888 4.08864 175.919 5.60464 175.113L5.90198 175.689C5.90198 175.689 7.56198 179.756 11.994 180.245C15.7833 180.659 17.6726 177.167 20.694 173.444C21.826 172.053 23.802 169.655 25.6633 167.468Z" fill="#BDAF99"/>
<path d="M27.0735 146.191C27.0735 146.326 26.9681 146.546 26.7668 146.824C22.9108 140.387 19.5721 129.806 19.0535 121.518C19.2268 121.528 19.5148 121.556 19.8975 121.576C20.2335 125.835 20.9815 131.312 22.6028 136.474C23.6388 139.764 25.2895 143.122 27.0735 146.191Z" fill="#33A6A6"/>
<path d="M29.721 162.892C28.9917 163.592 27.381 165.444 25.6637 167.468C23.8024 169.655 21.8264 172.054 20.6944 173.444C17.673 177.167 15.7824 180.658 11.993 180.246C7.56104 179.756 5.90237 175.69 5.90237 175.69L5.60504 175.114C8.48237 173.598 12.645 172.706 14.0077 170.864C15.7544 168.484 21.097 159.574 22.7277 156.839C24.3677 158.883 27.1504 161.232 29.721 162.892Z" fill="#E6D5BA"/>
<path d="M11.4274 43.1868C12.4354 40.5201 17.9127 39.7801 24.9541 40.3548C21.9701 41.3148 17.8741 44.1814 14.3341 47.7028C14.1421 47.7881 13.9501 47.7934 13.7581 47.8894L13.6341 47.9508C12.3101 47.9508 10.1421 45.8534 11.4181 43.1868H11.4274Z" fill="#278080"/>
<path d="M19.6389 113.94C19.6389 113.94 19.5429 117.087 19.8976 121.576C19.5136 121.557 19.2269 121.528 19.0536 121.519C18.8709 118.621 19.0349 116.003 19.6389 113.94Z" fill="#33A6A6"/>
<path d="M7.73424 88.7876C3.83958 90.2076 1.34491 87.6942 1.34491 87.6942C2.09424 91.6076 4.20358 95.6849 6.79424 94.9262C7.50358 94.7156 7.93558 93.8329 8.31958 92.6342C8.77024 91.2049 9.16358 89.3342 9.89291 87.6649C9.13424 88.1836 8.41558 88.5569 7.73424 88.7876Z" fill="#4D4233"/>
<path d="M7.73424 88.7876C3.83958 90.2076 1.34491 87.6942 1.34491 87.6942C2.09424 91.6076 4.20358 95.6849 6.79424 94.9262C7.50358 94.7156 7.93558 93.8329 8.31958 92.6342C8.77024 91.2049 9.16358 89.3342 9.89291 87.6649C9.13424 88.1836 8.41558 88.5569 7.73424 88.7876Z" stroke="#4D4233" stroke-width="0.135" stroke-miterlimit="10"/>
<path d="M41.4818 82.2164C36.6952 72.9017 28.4459 69.3911 25.9219 68.4404C23.3992 67.4911 17.8352 66.7044 14.6512 67.9137C12.1859 68.8444 8.15652 72.8244 5.72985 75.3964C5.01919 76.1351 4.45385 76.7484 4.08852 77.1511C2.25652 79.1751 0.577853 83.6937 1.34585 87.6937C1.34585 87.6937 3.83918 90.2071 7.73385 88.7871C8.41518 88.5577 9.13519 88.1831 9.89252 87.6657C10.7565 85.6511 12.1179 83.9137 14.6605 83.5497C16.7512 83.2524 18.0085 85.1044 19.1205 87.6937L19.3325 87.6071C28.0805 102.236 43.0738 100.798 47.9952 93.4777L48.2538 93.2764C46.5272 91.0804 44.3498 87.7897 41.4818 82.2164Z" fill="#615441"/>
<path d="M22.7278 156.839C21.0971 159.573 15.7545 168.485 14.0078 170.865C12.6451 172.706 8.48248 173.598 5.60515 175.114C4.08915 175.919 2.93848 176.889 2.73582 178.27C2.15182 182.27 8.96248 184.649 11.0438 184.495C13.1158 184.351 16.2331 183.315 17.8638 181.234C18.9385 179.871 24.0225 173.282 28.1958 168.533C29.7691 166.73 31.2171 165.205 32.2625 164.322" stroke="black" stroke-width="1.439" stroke-miterlimit="10"/>
<path d="M26.7664 146.834C25.7211 148.368 22.2864 151.755 21.4131 153.367C21.0011 154.143 21.5864 155.419 22.7277 156.839C24.3677 158.882 27.1504 161.232 29.7211 162.892C30.6131 163.468 31.4771 163.956 32.2637 164.322C32.9824 164.658 33.6251 164.887 34.1624 164.974C34.5651 165.04 35.0157 164.802 35.4677 164.35" stroke="black" stroke-width="1.439" stroke-miterlimit="10"/>
<path d="M50.9404 178.011C51.8324 178.395 52.6857 178.72 53.4724 178.98" stroke="black" stroke-width="1.439" stroke-miterlimit="10"/>
<path d="M35.1985 166.931C34.7572 167.334 35.7065 168.456 37.4532 169.876" stroke="black" stroke-width="1.439" stroke-miterlimit="10"/>
<path d="M33.0689 195.767C31.2076 198.818 33.5769 204.43 38.0182 206.291C43.7836 208.708 44.0916 205.1 65.8862 203.47C68.7636 203.259 71.4596 203.106 74.0116 203.01C90.7702 202.386 101.208 204.075 115.097 204.659C126.388 205.13 138.216 192.208 138.216 192.208" stroke="black" stroke-width="1.439" stroke-miterlimit="10" stroke-linejoin="round"/>
<path d="M58.2213 181.263C60.9933 183.133 64.7546 185.109 68.8506 185.685C68.8506 185.685 56.5426 194.577 50.0293 195.767C47.1506 196.285 43.8706 195.863 40.964 195.421C37.7306 194.923 34.9493 194.395 33.7026 195.096C33.5293 195.201 33.3853 195.316 33.2706 195.469C33.2026 195.556 33.1453 195.643 33.088 195.739" stroke="black" stroke-width="1.439" stroke-miterlimit="10" stroke-linejoin="round"/>
<path d="M33.0881 195.738C33.2895 195.528 33.5001 195.316 33.7015 195.096C40.0428 188.562 47.0361 180.496 50.9401 178.01C51.6988 177.521 52.3308 177.253 52.8308 177.234" stroke="black" stroke-width="1.439" stroke-miterlimit="10" stroke-linejoin="round"/>
<path d="M33.0881 195.738C33.0788 195.747 33.0788 195.757 33.0695 195.767" stroke="black" stroke-width="1.439" stroke-miterlimit="10" stroke-linejoin="round"/>
<path d="M39.1604 167.449C38.6417 168.188 38.0671 169.004 37.4524 169.876C32.3017 177.166 24.4257 188.169 21.7111 191.172C19.6871 193.408 16.7511 192.736 14.6991 194.597C13.9017 195.326 13.2311 196.448 12.8177 198.281C13.7111 202.137 19.3417 205.101 24.6751 203.173C26.9577 201.744 29.9124 198.981 33.0684 195.768" stroke="black" stroke-width="1.439" stroke-miterlimit="10" stroke-linejoin="round"/>
<path d="M8.31946 92.6342L8.37679 93.0462C8.37679 93.0462 11.0435 100.826 17.2701 105.048C17.2701 105.048 17.2501 105.077 17.2115 105.134C16.9915 105.565 16.0221 107.609 16.7128 110.161C17.2795 112.27 19.6395 113.94 19.6395 113.94" stroke="black" stroke-width="1.439" stroke-miterlimit="10" stroke-linejoin="round"/>
<path d="M24.9534 39.9888C21.9694 40.9474 17.8734 43.9981 14.3347 47.5194C11.8107 50.0234 9.57608 52.7754 8.22408 55.1741C6.41074 58.3874 6.59208 61.4767 6.59208 61.4767C6.59208 61.4767 5.99741 65.3994 7.04408 69.0354C5.33608 72.3647 5.71074 75.2621 5.71074 75.2621L5.72941 75.3954" stroke="black" stroke-width="1.439" stroke-miterlimit="10" stroke-linejoin="round"/>
<path d="M246.184 169.636C239.938 173.147 232.504 175.977 224.092 177.233C219.88 177.867 215.42 178.107 210.738 177.848C208.253 177.713 205.712 177.425 203.112 176.984C197.797 176.092 192.233 174.548 186.468 172.197C182.44 170.557 178.285 167.593 174.141 163.756C166.084 156.321 158.045 145.596 150.926 134.929C144.145 124.751 138.206 114.612 133.9 107.407C132.048 104.289 130.504 101.728 129.324 99.9347C128.489 98.6587 127.636 97.3734 126.772 96.0787C123.99 91.9054 121.093 87.6267 118.168 83.3774C116.718 81.2761 115.261 79.1854 113.802 77.1227C106.061 66.1201 98.3103 55.7694 91.9303 48.4494C90.2903 46.5694 88.7463 44.9001 87.3063 43.4614C82.5676 38.7227 75.4783 32.2667 67.3156 27.0961C64.3703 25.2347 61.2916 23.5467 58.1356 22.1561C49.8849 18.5481 41.0983 17.0334 32.8289 20.1214C31.4196 20.6494 30.0956 21.2641 28.8476 21.9441C28.4929 22.1361 28.1383 22.3374 27.7929 22.5494C22.8809 25.4654 19.2263 29.4174 16.6263 33.0334C13.1929 37.7921 11.6103 41.9654 11.4276 42.4547C11.4276 42.4547 11.4276 42.4641 11.4183 42.4734C11.4089 42.4921 11.4089 42.5014 11.4089 42.5014" stroke="black" stroke-width="1.439" stroke-miterlimit="10" stroke-linejoin="round"/>
<path d="M53.732 178.96C54.0867 178.922 54.7293 178.826 54.7293 178.826C55.3627 179.575 56.936 180.975 58.068 181.311C58.116 181.3 58.1733 181.282 58.2213 181.263C61.4827 180.275 64.3613 175.747 68.4 170.864C72.064 166.442 79.6427 156.715 85.5227 153.52C86.4627 153.012 87.46 152.56 88.496 152.196C92.88 150.604 97.9453 150.335 102.608 152.004C105.917 153.175 109.025 155.314 111.539 158.634C114.983 163.19 120.997 173.204 129.208 182.654C132.029 185.906 135.108 189.091 138.437 191.959C144.164 196.918 150.611 200.938 157.689 202.799C158.457 203 159.235 203.172 160.011 203.326C162.535 203.806 165.307 204.219 168.289 204.516C191.533 206.828 226.864 202.194 247.163 169.08C246.845 169.262 246.529 169.444 246.203 169.627" stroke="black" stroke-width="1.439" stroke-miterlimit="10" stroke-linejoin="round"/>
<path d="M45.2327 169.463C45.626 169.655 46.01 169.866 46.394 170.087C48.2633 171.19 49.99 172.946 51.2767 174.721C51.91 175.583 52.4367 176.438 52.83 177.234C53.1473 177.877 53.3767 178.471 53.5113 178.979C53.5113 178.989 53.598 178.979 53.7127 178.97" stroke="black" stroke-width="1.439" stroke-miterlimit="10" stroke-linejoin="round"/>
<path d="M36.3881 160.504C35.9761 161.99 35.6788 163.305 35.4668 164.35C35.1601 165.914 35.0548 166.864 35.0548 166.864C35.0548 166.864 35.1028 166.864 35.1988 166.873C35.6588 166.902 37.1935 167.037 39.1601 167.449C40.9735 167.824 43.1601 168.437 45.2041 169.454" stroke="black" stroke-width="1.439" stroke-miterlimit="10" stroke-linejoin="round"/>
<path d="M11.4274 42.4541C12.4354 40.1901 17.9128 39.4128 24.9541 39.9888C25.7208 40.0461 26.5074 40.1234 27.3128 40.2194C34.8728 41.0914 43.7648 43.3754 50.8354 46.9048C56.1968 49.5914 62.0488 53.7541 66.7208 59.2421C68.8981 61.7741 70.8168 64.5941 72.3128 67.6741C74.2314 71.5874 75.4594 75.9328 75.6901 80.6528C75.8621 84.3741 75.3154 88.5381 74.0208 92.6248C71.6701 100.107 66.8741 107.311 59.6221 111.053C45.7408 118.199 31.0541 115.503 19.6394 113.939C19.0341 116.002 18.9114 118.621 19.0941 121.518C19.6114 129.806 22.8474 140.387 26.8474 146.825V146.834C26.8474 146.987 26.9981 147.141 27.0941 147.294C32.4288 155.851 36.6288 159.746 36.6288 159.746" stroke="black" stroke-width="2" stroke-miterlimit="10" stroke-linejoin="round"/>
<path d="M8.31943 92.6342C7.93543 93.8328 7.50343 94.7155 6.7941 94.9275C4.20476 95.6848 2.0941 91.6075 1.3461 87.6942C0.578097 83.6942 2.25676 79.1755 4.08876 77.1515C4.45276 76.7488 5.01943 76.1342 5.72876 75.3955C8.15676 72.8248 12.1848 68.8435 14.6501 67.9128C17.8354 66.7048 23.3994 67.4915 25.9221 68.4408C28.4448 69.3902 36.6954 72.9022 41.4821 82.2168C44.3501 87.7902 46.5274 91.0808 48.2541 93.2768C49.7221 95.1475 50.8634 96.2408 51.8608 97.2862C52.1394 97.5742 52.2541 97.8822 52.2448 98.1982C52.1688 100.597 44.6661 103.589 40.9354 103.934C39.9274 104.03 38.8341 104.06 37.6741 103.993C33.9608 103.801 29.5581 102.601 25.1928 99.1288C22.0754 96.6435 20.7421 91.4155 19.1208 87.6942C18.0088 85.1035 16.7514 83.2528 14.6608 83.5502C12.1181 83.9142 10.7554 85.6502 9.89276 87.6648C9.16343 89.3342 8.7701 91.2048 8.31943 92.6342Z" stroke="black" stroke-width="1.439" stroke-miterlimit="10" stroke-linejoin="round"/>
<path d="M17.2696 105.163C29.8643 110.42 37.6736 104.031 37.6736 104.031" stroke="black" stroke-width="1.439" stroke-miterlimit="10" stroke-linecap="round" stroke-linejoin="round"/>
<path d="M11.7057 41.6866C11.591 41.9559 11.495 42.2146 11.4177 42.4546C10.1417 46.1666 12.3097 47.5386 13.6337 47.5386" stroke="black" stroke-width="1.439" stroke-miterlimit="10"/>
<path d="M54.6049 178.481C54.1343 178.778 53.8276 178.922 53.7316 178.961C53.7223 178.97 53.7223 178.97 53.7129 178.97C53.7036 178.979 53.6929 178.979 53.6929 178.979" stroke="black" stroke-width="1.439" stroke-miterlimit="10" stroke-linecap="round"/>
<path d="M56.8016 176.754C55.8896 177.589 55.1323 178.135 54.6056 178.471" stroke="black" stroke-width="1.439" stroke-miterlimit="10" stroke-linecap="round"/>
<path d="M86.9327 135.284C86.5007 135.437 86.0887 135.6 85.6754 135.783C76.6687 139.62 72.2461 148.157 68.5527 157.52C66.2407 163.4 63.8807 167.717 61.7514 170.864C59.8807 173.627 58.1834 175.497 56.8301 176.725" stroke="black" stroke-width="1.439" stroke-miterlimit="10" stroke-linecap="round"/>
<path d="M36.1675 161.3C36.2435 161.032 36.3115 160.762 36.3875 160.504C36.4555 160.245 36.5315 159.996 36.6088 159.746C36.6568 159.564 36.7048 159.39 36.7621 159.218C37.1741 157.856 37.6061 156.552 38.0661 155.333C39.2461 152.177 40.5515 149.616 41.8275 148.205" stroke="black" stroke-width="1.439" stroke-miterlimit="10" stroke-linecap="round"/>
<path d="M246.203 169.627C246.203 169.627 246.193 169.636 246.184 169.636C245.684 169.819 233.78 174.173 224.925 169.972C224.043 172.936 224.925 176.792 224.925 176.792C224.925 176.792 224.36 176.648 223.429 176.332C222.009 175.852 219.717 174.969 217.28 173.636C213.817 171.737 210.037 168.907 207.956 164.936C203.437 168.495 203.14 176.792 203.14 176.792C203.14 176.792 189.653 168.341 189.201 153.367C179.427 154.556 174.256 163.631 174.256 163.631C174.256 163.631 172.012 148.187 177.94 134.104C167.857 130.843 151.263 134.699 151.263 134.699C151.263 134.699 154.227 121.5 166.975 108.309C152.299 101.201 134.36 107.129 134.36 107.129C134.36 107.129 137.919 92.5958 148.893 79.2625C133.775 70.0718 114.349 76.7385 114.349 76.7385C114.349 76.7385 119.097 60.7385 126.503 46.5025C110.464 41.2452 92.1228 48.2772 92.1228 48.2772C92.1228 48.2772 93.5908 33.0345 101.609 19.0758C84.5628 16.7065 67.5175 26.7892 67.5175 26.7892C67.5175 26.7892 65.4348 12.7065 71.8521 1.22386C45.9521 6.03986 28.8295 21.8972 28.8295 21.8972" stroke="black" stroke-width="1.439" stroke-miterlimit="10" stroke-linejoin="round"/>
<path d="M45.2039 169.454C45.2132 169.454 45.2225 169.454 45.2332 169.463" stroke="black" stroke-width="1.439" stroke-miterlimit="10" stroke-linejoin="round"/>
<path d="M59.9836 100.588C57.0049 100.588 53.4689 99.6253 51.1103 96.98C50.9343 96.7826 50.9503 96.4786 51.1489 96.3026C51.3476 96.1253 51.6489 96.144 51.8263 96.3413C55.2823 100.217 61.8916 100.199 64.1556 98.7173C64.3729 98.5733 64.6729 98.6333 64.8196 98.856C64.9649 99.0773 64.9023 99.3746 64.6809 99.52C63.7023 100.161 61.9663 100.588 59.9836 100.588Z" fill="black"/>
<path d="M7.55823 81.6696C7.45689 81.6696 7.37556 81.7523 7.37556 81.8523C7.37556 82.055 7.74223 82.055 7.74223 81.8523C7.74223 81.7523 7.65956 81.6696 7.55823 81.6696ZM7.55823 82.6296C7.13023 82.6296 6.78223 82.2803 6.78223 81.8523C6.78223 81.4243 7.13023 81.0763 7.55823 81.0763C7.98623 81.0763 8.33423 81.4243 8.33423 81.8523C8.33423 82.2803 7.98623 82.6296 7.55823 82.6296Z" fill="black"/>
<path d="M11.9313 79.8171C11.8299 79.8171 11.7473 79.8998 11.7473 79.9998C11.7473 80.2024 12.1139 80.2024 12.1139 79.9998C12.1139 79.8998 12.0326 79.8171 11.9313 79.8171ZM11.9313 80.7771C11.5033 80.7771 11.1553 80.4278 11.1553 79.9998C11.1553 79.5718 11.5033 79.2238 11.9313 79.2238C12.3593 79.2238 12.7073 79.5718 12.7073 79.9998C12.7073 80.4278 12.3593 80.7771 11.9313 80.7771Z" fill="black"/>
<path d="M34.1644 78.0383C34.063 78.0383 33.9817 78.1196 33.9817 78.2209C33.9817 78.4236 34.3484 78.4236 34.3484 78.2209C34.3484 78.1196 34.2657 78.0383 34.1644 78.0383ZM34.1644 78.9969C33.7364 78.9969 33.3884 78.6489 33.3884 78.2209C33.3884 77.7929 33.7364 77.4449 34.1644 77.4449C34.5924 77.4449 34.9404 77.7929 34.9404 78.2209C34.9404 78.6489 34.5924 78.9969 34.1644 78.9969Z" fill="black"/>
<path d="M28.6804 81.8923C28.5791 81.8923 28.4964 81.9736 28.4964 82.0749C28.4964 82.2776 28.8631 82.2776 28.8631 82.0749C28.8631 81.9736 28.7818 81.8923 28.6804 81.8923ZM28.6804 82.8509C28.2524 82.8509 27.9044 82.5029 27.9044 82.0749C27.9044 81.6469 28.2524 81.2989 28.6804 81.2989C29.1084 81.2989 29.4564 81.6469 29.4564 82.0749C29.4564 82.5029 29.1084 82.8509 28.6804 82.8509Z" fill="black"/>
<path d="M25.2713 86.4871C25.17 86.4871 25.0873 86.5698 25.0873 86.6698C25.0873 86.8724 25.454 86.8724 25.454 86.6698C25.454 86.5698 25.3726 86.4871 25.2713 86.4871ZM25.2713 87.4471C24.8433 87.4471 24.4953 87.0978 24.4953 86.6698C24.4953 86.2418 24.8433 85.8938 25.2713 85.8938C25.6993 85.8938 26.0473 86.2418 26.0473 86.6698C26.0473 87.0978 25.6993 87.4471 25.2713 87.4471Z" fill="black"/>
<path d="M31.0513 87.8212C30.95 87.8212 30.8687 87.9025 30.8687 88.0039C30.8687 88.2065 31.2353 88.2065 31.2353 88.0039C31.2353 87.9025 31.1527 87.8212 31.0513 87.8212ZM31.0513 88.7799C30.6233 88.7799 30.2753 88.4319 30.2753 88.0039C30.2753 87.5759 30.6233 87.2279 31.0513 87.2279C31.4793 87.2279 31.8287 87.5759 31.8287 88.0039C31.8287 88.4319 31.4793 88.7799 31.0513 88.7799Z" fill="black"/>
<path d="M36.0913 85.3012C35.99 85.3012 35.9073 85.3825 35.9073 85.4839C35.9073 85.6865 36.2753 85.6865 36.2753 85.4839C36.2753 85.3825 36.1926 85.3012 36.0913 85.3012ZM36.0913 86.2599C35.6633 86.2599 35.3153 85.9119 35.3153 85.4839C35.3153 85.0559 35.6633 84.7079 36.0913 84.7079C36.5193 84.7079 36.8673 85.0559 36.8673 85.4839C36.8673 85.9119 36.5193 86.2599 36.0913 86.2599Z" fill="black"/>
<path d="M40.8343 90.9336C40.733 90.9336 40.6517 91.0163 40.6517 91.1163C40.6517 91.319 41.0183 91.319 41.0183 91.1163C41.0183 91.0163 40.9357 90.9336 40.8343 90.9336ZM40.8343 91.8936C40.4063 91.8936 40.0583 91.5443 40.0583 91.1163C40.0583 90.6883 40.4063 90.3403 40.8343 90.3403C41.2623 90.3403 41.6103 90.6883 41.6103 91.1163C41.6103 91.5443 41.2623 91.8936 40.8343 91.8936Z" fill="black"/>
<path d="M32.5344 93.0088C32.433 93.0088 32.3504 93.0901 32.3504 93.1914C32.3504 93.3941 32.717 93.3941 32.717 93.1914C32.717 93.0901 32.6357 93.0088 32.5344 93.0088ZM32.5344 93.9674C32.1064 93.9674 31.7584 93.6194 31.7584 93.1914C31.7584 92.7648 32.1064 92.4168 32.5344 92.4168C32.9624 92.4168 33.3104 92.7648 33.3104 93.1914C33.3104 93.6194 32.9624 93.9674 32.5344 93.9674Z" fill="black"/>
<path d="M10.1522 75.6667C10.0509 75.6667 9.96822 75.748 9.96822 75.8493C9.96822 76.052 10.3362 76.052 10.3362 75.8493C10.3362 75.748 10.2536 75.6667 10.1522 75.6667ZM10.1522 76.6253C9.72422 76.6253 9.37622 76.2773 9.37622 75.8493C9.37622 75.4213 9.72422 75.0733 10.1522 75.0733C10.5802 75.0733 10.9282 75.4213 10.9282 75.8493C10.9282 76.2773 10.5802 76.6253 10.1522 76.6253Z" fill="black"/>
<path d="M28.8284 76.2597C28.727 76.2597 28.6457 76.341 28.6457 76.4424C28.6457 76.645 29.0124 76.645 29.0124 76.4424C29.0124 76.341 28.9297 76.2597 28.8284 76.2597ZM28.8284 77.2184C28.4004 77.2184 28.0524 76.8704 28.0524 76.4424C28.0524 76.0144 28.4004 75.6664 28.8284 75.6664C29.2564 75.6664 29.6044 76.0144 29.6044 76.4424C29.6044 76.8704 29.2564 77.2184 28.8284 77.2184Z" fill="black"/>
<path d="M38.3144 73.2169C38.1997 73.2169 38.0824 73.1756 37.9917 73.0916C28.585 64.5049 18.3117 63.2969 7.45838 69.4982C7.23038 69.6276 6.93572 69.5502 6.80372 69.3196C6.67305 69.0889 6.75305 68.7969 6.98238 68.6649C18.2384 62.2342 28.8877 63.4836 38.637 72.3836C38.833 72.5622 38.8477 72.8649 38.669 73.0609C38.5744 73.1649 38.445 73.2169 38.3144 73.2169Z" fill="black"/>
<path d="M22.3476 65.0724C21.4769 55.3337 26.5516 44.131 31.6703 40.6217L32.2129 41.4124C27.4116 44.7044 22.4743 55.719 23.3036 64.987L22.3476 65.0724Z" fill="black"/>
<path d="M68.8494 186.404C68.6121 186.404 68.3801 186.286 68.2428 186.073C68.0294 185.738 68.1254 185.293 68.4601 185.08C71.2068 183.317 73.7614 180.424 76.4654 177.36C81.3588 171.82 86.9028 165.54 95.3961 163.929C95.7788 163.858 96.1614 164.11 96.2361 164.502C96.3108 164.893 96.0548 165.269 95.6641 165.344C87.6561 166.862 82.2841 172.945 77.5454 178.313C74.7708 181.453 72.1521 184.42 69.2374 186.289C69.1161 186.368 68.9828 186.404 68.8494 186.404Z" fill="black"/>
<path d="M19.535 67.2337C22.9097 67.715 25.3737 70.0364 25.2204 71.515C18.5057 65.919 13.4897 70.6377 12.9964 71.1484C12.9137 70.707 12.9137 70.3124 13.0084 70.0324C13.4337 68.7337 16.159 66.7617 19.535 67.2337Z" fill="#3B3227"/>
<path d="M25.2205 71.5149C24.9672 74.1216 22.2432 76.1803 21.2792 75.7789C20.6045 75.4909 22.2552 72.0763 20.5859 72.4923C18.9259 72.9189 20.5819 75.9229 19.5165 76.1669C18.0285 76.5043 16.5085 76.1829 16.1712 75.7843C15.8445 75.3763 17.3725 72.1416 15.8259 72.0883C14.1352 72.0296 15.3579 75.0216 14.7659 74.9629C14.2992 74.9176 13.2299 72.7229 12.9965 71.1483C13.4899 70.6376 18.5059 65.9203 25.2205 71.5149Z" fill="#29231B"/>
<path d="M12.9967 71.1488C12.9141 70.7074 12.9141 70.3114 13.0087 70.0314C13.4327 68.7328 16.1594 66.7621 19.5354 67.2341C22.9101 67.7154 25.3741 70.0354 25.2207 71.5154C24.9674 74.1221 22.2434 76.1794 21.2794 75.7781C20.6034 75.4914 22.2554 72.0754 20.5861 72.4914C18.9261 72.9194 20.5821 75.9221 19.5167 76.1661C18.0287 76.5034 16.5087 76.1834 16.1714 75.7834C15.8447 75.3768 17.3727 72.1421 15.8261 72.0888C14.1354 72.0301 15.3581 75.0208 14.7661 74.9634C14.2981 74.9181 13.2301 72.7234 12.9967 71.1488Z" stroke="black" stroke-width="0.719" stroke-miterlimit="10"/>
<path d="M18.8906 59.5773C18.9293 59.9999 18.9293 60.4306 18.8813 60.8719C18.8519 61.1506 18.8039 61.9573 18.7279 62.2359C14.2293 60.4999 6.80394 63.1866 6.80394 63.1866H6.79461C6.71727 63.1866 6.65994 62.1679 6.61194 61.9093C7.13994 61.6319 12.4826 58.4933 18.8906 59.5773Z" fill="#D1D3D4"/>
<path d="M18.7275 62.2358C18.3822 63.6945 17.5569 64.7918 16.5115 65.6652C14.7369 66.1158 13.6915 66.7518 12.0315 67.2318C9.49952 66.9532 7.50352 64.5198 6.79419 63.1865H6.80352C6.80352 63.1865 14.2289 60.4998 18.7275 62.2358" fill="white"/>
<path d="M18.7276 61.7069C18.8049 61.4282 18.8529 61.1509 18.8809 60.8722C18.9289 60.4309 18.9289 59.9989 18.8902 59.5776C12.4822 58.4936 7.13957 61.1029 6.61157 61.3802C6.65957 61.6402 6.71691 61.8896 6.79424 62.1296C7.50357 64.4789 9.49957 66.2922 12.0316 66.5709C13.6916 66.0909 14.7369 65.8509 16.5116 65.4002C17.5569 64.5269 18.3822 63.1656 18.7276 61.7069Z" stroke="black" stroke-width="0.719" stroke-miterlimit="10" stroke-linejoin="round"/>
<path d="M46.3742 62.9636C46.1342 63.9516 45.6835 64.8529 45.0795 65.6302L45.0502 65.6022C39.7169 60.2102 32.4649 60.5649 32.4649 60.5649L32.3489 60.5556C32.3875 60.1822 32.4555 59.8169 32.5409 59.4622C34.0755 59.5396 41.3089 60.0182 46.3742 62.9636Z" fill="#D1D3D4"/>
<path d="M45.0504 65.6016L45.0798 65.6309C43.7744 67.2989 41.7504 68.3829 39.4584 68.3829C35.5051 68.3829 32.3118 65.1896 32.3118 61.2376C32.3118 61.0069 32.3211 60.7762 32.3491 60.5562L32.4651 60.5656C32.4651 60.5656 39.7171 60.2109 45.0504 65.6016Z" fill="white"/>
<path d="M45.0792 65.6304C45.6832 64.853 46.1338 63.9517 46.3738 62.9637C41.3098 60.0184 34.0765 59.5384 32.5418 59.4624C32.4552 59.817 32.3885 60.1824 32.3498 60.5557C32.3205 60.7757 32.3112 61.0064 32.3112 61.237C32.3112 65.189 35.5058 68.3837 39.4578 68.3837C41.7512 68.3837 43.7752 67.2997 45.0792 65.6304V65.6304Z" stroke="black" stroke-width="0.719" stroke-miterlimit="10" stroke-linejoin="round"/>
<path d="M13.7388 59.4178C13.7201 59.5071 13.7095 59.5991 13.7095 59.6938C13.7095 60.4298 14.3068 61.0271 15.0441 61.0271C15.7801 61.0271 16.3775 60.4298 16.3775 59.6938C16.3775 59.5658 16.3535 59.4444 16.3201 59.3284C15.4201 59.3004 14.5575 59.3378 13.7388 59.4178Z" fill="black"/>
<path d="M14.2049 59.8586C14.2822 60.2506 14.6289 60.548 15.0436 60.548C15.4796 60.548 15.8382 60.2213 15.8916 59.8C15.3342 59.796 14.7729 59.8146 14.2049 59.8586ZM15.0436 61.508C14.0422 61.508 13.2302 60.6933 13.2302 59.6933C13.2302 59.5666 13.2436 59.4426 13.2676 59.324L13.3369 58.9746L13.6916 58.94C14.5822 58.8533 15.4729 58.8226 16.3356 58.8493L16.6836 58.86L16.7809 59.196C16.8316 59.372 16.8569 59.5346 16.8569 59.6933C16.8569 60.6933 16.0436 61.508 15.0436 61.508Z" fill="black"/>
<path d="M39.678 61.4024C39.678 62.1397 40.2753 62.7357 41.0126 62.7357C41.7486 62.7357 42.346 62.1397 42.346 61.4024C42.346 61.333 42.3353 61.2664 42.326 61.1997C41.5473 60.945 40.766 60.729 39.9993 60.5424C39.802 60.7757 39.678 61.073 39.678 61.4024Z" fill="black"/>
<path d="M40.2189 61.0915C40.1829 61.1795 40.1576 61.2835 40.1576 61.4022C40.1576 61.8742 40.5416 62.2568 41.0122 62.2568C41.4336 62.2568 41.7829 61.9515 41.8536 61.5515C41.3322 61.3888 40.7922 61.2368 40.2189 61.0915ZM41.0122 63.2155C40.0122 63.2155 39.1989 62.4022 39.1989 61.4022C39.1989 60.9782 39.3536 60.5635 39.6349 60.2328L39.8256 60.0075L40.1136 60.0768C40.9576 60.2822 41.7296 60.4995 42.4749 60.7435L42.7549 60.8342L42.8002 61.1275C42.8136 61.2182 42.8256 61.3088 42.8256 61.4022C42.8256 62.4022 42.0122 63.2155 41.0122 63.2155" fill="black"/>
<path d="M3.09853 179.96C3.09186 179.971 3.15719 179.889 3.25853 179.792C3.35853 179.692 3.50386 179.56 3.68653 179.416C4.05186 179.129 4.57453 178.791 5.15586 178.6C5.73319 178.399 6.34253 178.363 6.77186 178.425C7.20519 178.475 7.46653 178.6 7.46786 178.585C7.46786 178.6 7.18119 178.551 6.77319 178.616C6.36519 178.669 5.85186 178.851 5.42386 179.149C4.98919 179.437 4.64386 179.833 4.41986 180.139C4.30786 180.293 4.22386 180.427 4.17186 180.519C4.11853 180.612 4.10786 180.648 4.09986 180.657C3.90786 180.935 3.52653 181.003 3.25053 180.809C2.97453 180.617 2.90519 180.237 3.09853 179.96Z" fill="black"/>
<path d="M14.158 199.719C14.158 199.719 14.318 199.503 14.566 199.257C14.818 199.005 15.1726 198.692 15.57 198.443C15.9633 198.191 16.3953 198.013 16.7246 197.935C16.8886 197.893 17.026 197.871 17.1233 197.865C17.2193 197.856 17.274 197.849 17.274 197.849C17.274 197.849 17.2246 197.873 17.138 197.916C17.0513 197.953 16.9326 198.02 16.8006 198.109C16.534 198.285 16.226 198.571 15.9766 198.899C15.7246 199.223 15.53 199.584 15.4033 199.857C15.2726 200.139 15.2286 200.304 15.2286 200.304C15.1393 200.639 14.7953 200.837 14.462 200.748C14.1273 200.659 13.9286 200.315 14.018 199.98C14.0393 199.903 14.074 199.832 14.1193 199.771L14.158 199.719Z" fill="black"/>
<path d="M17.9952 201.637C17.9952 201.637 18.1552 201.421 18.4032 201.176C18.6552 200.924 19.0099 200.611 19.4072 200.361C19.8005 200.109 20.2325 199.932 20.5619 199.853C20.7259 199.812 20.8632 199.789 20.9605 199.784C21.0565 199.775 21.1112 199.768 21.1112 199.768C21.1112 199.768 21.0619 199.792 20.9752 199.835C20.8885 199.872 20.7699 199.939 20.6379 200.028C20.3712 200.204 20.0619 200.489 19.8139 200.817C19.5619 201.141 19.3672 201.503 19.2405 201.776C19.1099 202.057 19.0659 202.224 19.0659 202.224C18.9765 202.557 18.6325 202.756 18.2992 202.667C17.9645 202.577 17.7659 202.233 17.8552 201.899C17.8765 201.821 17.9112 201.751 17.9565 201.689L17.9952 201.637Z" fill="black"/>
<path d="M6.48371 182.451C6.48371 182.451 6.64371 182.235 6.89171 181.99C7.14505 181.738 7.49838 181.425 7.89571 181.177C8.28905 180.923 8.72105 180.746 9.05038 180.667C9.21438 180.626 9.35171 180.603 9.44905 180.598C9.54505 180.589 9.59971 180.583 9.59971 180.583C9.59971 180.583 9.55038 180.607 9.46371 180.649C9.37705 180.686 9.25838 180.753 9.12638 180.842C8.85971 181.018 8.55171 181.305 8.30238 181.631C8.05038 181.955 7.85571 182.317 7.72905 182.59C7.59971 182.871 7.55438 183.038 7.55438 183.038C7.46505 183.371 7.12105 183.57 6.78771 183.481C6.45305 183.391 6.25438 183.047 6.34371 182.713C6.36505 182.635 6.39971 182.565 6.44505 182.503L6.48371 182.451Z" fill="black"/>
<path d="M33.2561 197.409C33.2561 197.409 33.5175 197.347 33.8655 197.317C34.2201 197.285 34.6935 197.273 35.1575 197.337C35.6215 197.396 36.0668 197.537 36.3695 197.688C36.5215 197.763 36.6415 197.833 36.7201 197.892C36.8001 197.945 36.8455 197.976 36.8455 197.976C36.8455 197.976 36.7921 197.963 36.6988 197.939C36.6081 197.912 36.4748 197.888 36.3161 197.871C35.9975 197.836 35.5775 197.856 35.1775 197.947C34.7761 198.035 34.3948 198.187 34.1228 198.315C33.8415 198.447 33.7015 198.547 33.7015 198.547C33.4175 198.745 33.0268 198.676 32.8281 198.393C32.6295 198.111 32.6975 197.719 32.9815 197.52C33.0468 197.475 33.1188 197.443 33.1935 197.424L33.2561 197.409Z" fill="black"/>
<path d="M34.1415 201.658C34.1415 201.658 34.3841 201.542 34.7175 201.44C35.0588 201.335 35.5188 201.223 35.9855 201.188C36.4508 201.148 36.9161 201.192 37.2441 201.276C37.4081 201.318 37.5401 201.362 37.6295 201.403C37.7188 201.438 37.7695 201.459 37.7695 201.459C37.7695 201.459 37.7148 201.456 37.6188 201.454C37.5241 201.446 37.3881 201.451 37.2295 201.467C36.9108 201.499 36.5055 201.607 36.1321 201.78C35.7588 201.95 35.4175 202.179 35.1788 202.362C34.9321 202.55 34.8148 202.676 34.8148 202.676C34.5801 202.93 34.1828 202.944 33.9295 202.71C33.6761 202.474 33.6601 202.078 33.8961 201.824C33.9508 201.764 34.0148 201.719 34.0828 201.686L34.1415 201.658Z" fill="black"/>
</svg>
