<svg width="207" height="204" viewBox="0 0 207 204" fill="none" xmlns="http://www.w3.org/2000/svg">
<path d="M188.133 139.095C200.563 115.634 191.713 93.4604 191.713 93.4604L191.897 93.3551C194.022 97.4284 202.23 106.43 200.431 117.027C198.747 126.875 190.461 134.467 188.15 139.104L188.133 139.095Z" fill="#A16646"/>
<path d="M188.133 139.095C200.563 115.634 191.713 93.4604 191.713 93.4604L191.897 93.3551C194.022 97.4284 202.23 106.43 200.431 117.027C198.747 126.875 190.461 134.467 188.15 139.104L188.133 139.095Z" stroke="#A16646" stroke-width="0.135" stroke-miterlimit="10"/>
<path d="M205.034 81.6732C205.034 81.6732 149.614 92.9145 132.535 93.4612C115.705 94.0078 91.618 88.6025 90.9047 88.4438C101.802 89.8905 122.555 90.3492 133.347 89.9958C155.794 89.2732 194.878 82.6425 200.431 81.0732C202.918 80.3678 204.382 80.8532 205.034 81.6732Z" fill="#E89365"/>
<path d="M192.065 160.219C192.065 160.219 191.315 158.43 190.417 155.829L190.39 155.838C185.329 166.462 183.31 177.729 181.538 185.021C180.569 189.005 179.659 191.791 178.382 192.646C174.741 195.071 169.345 190.998 169.345 190.998L169.309 190.945C169.169 191.042 169.027 191.147 168.903 191.262C167.29 192.709 166.17 196.085 166.973 197.698C167.775 199.303 174.529 200.193 176.618 200.105C178.717 200.026 181.045 198.015 184.183 193.995C183.751 190.142 184.279 185.567 185.241 181.053C187.489 170.482 192.065 160.219 192.065 160.219Z" fill="#A16646"/>
<path d="M192.065 160.219C192.065 160.219 191.315 158.43 190.417 155.829L190.39 155.838C185.329 166.462 183.31 177.729 181.538 185.021C180.569 189.005 179.659 191.791 178.382 192.646C174.741 195.071 169.345 190.998 169.345 190.998L169.309 190.945C169.169 191.042 169.027 191.147 168.903 191.262C167.29 192.709 166.17 196.085 166.973 197.698C167.775 199.303 174.529 200.193 176.618 200.105C178.717 200.026 181.045 198.015 184.183 193.995C183.751 190.142 184.279 185.567 185.241 181.053C187.489 170.482 192.065 160.219 192.065 160.219Z" stroke="#A16646" stroke-width="0.135" stroke-miterlimit="10"/>
<path d="M169.124 155.617C168.79 151.764 162.952 145.813 158.103 144.596C153.624 143.477 146.59 146.033 145.558 146.421C149.463 151.561 154.788 157.213 161.666 161.665C162.538 166.046 162.247 174.132 161.692 178.337C161.534 179.528 161.356 180.409 161.18 180.805C160.378 182.578 154.1 182.41 152.814 184.024C152.814 184.024 154.798 188.132 160.748 188.238C163.252 188.282 165.192 183.204 166.576 177.006C168.472 168.48 169.31 157.857 169.124 155.617Z" fill="#C27C54"/>
<path d="M154.877 125.95C153.422 126.426 151.985 126.884 150.574 127.316C152.117 126.735 153.564 126.276 154.877 125.95Z" fill="#403934"/>
<path d="M157.319 125.482C156.56 125.57 155.75 125.729 154.876 125.949C153.422 126.426 151.986 126.884 150.575 127.316C146.792 128.726 142.384 130.834 137.57 133.356C138.47 135.304 141.079 140.524 145.558 146.421C146.59 146.033 153.624 143.477 158.104 144.597C162.952 145.813 168.79 151.765 169.124 155.617C169.31 157.857 168.472 168.481 166.576 177.006C165.192 183.204 163.252 188.282 160.748 188.238C154.798 188.133 152.814 184.024 152.814 184.024C151.527 185.629 150.239 190.134 151.21 191.421C152.17 192.708 159.735 193.996 161.022 193.678C162.31 193.352 166.974 189.173 166.974 189.173C166.974 189.173 168.18 180.797 169.388 173.294C170.208 168.233 171.02 163.569 171.478 162.141C172.007 160.457 173.418 157.513 174.74 154.885C169.063 148.414 160.29 138.002 157.319 125.482Z" fill="#A16646"/>
<path d="M157.319 125.482C156.56 125.57 155.75 125.729 154.876 125.949C153.422 126.426 151.986 126.884 150.575 127.316C146.792 128.726 142.384 130.834 137.57 133.356C138.47 135.304 141.079 140.524 145.558 146.421C146.59 146.033 153.624 143.477 158.104 144.597C162.952 145.813 168.79 151.765 169.124 155.617C169.31 157.857 168.472 168.481 166.576 177.006C165.192 183.204 163.252 188.282 160.748 188.238C154.798 188.133 152.814 184.024 152.814 184.024C151.527 185.629 150.239 190.134 151.21 191.421C152.17 192.708 159.735 193.996 161.022 193.678C162.31 193.352 166.974 189.173 166.974 189.173C166.974 189.173 168.18 180.797 169.388 173.294C170.208 168.233 171.02 163.569 171.478 162.141C172.007 160.457 173.418 157.513 174.74 154.885C169.063 148.414 160.29 138.002 157.319 125.482Z" stroke="#A16646" stroke-width="0.135" stroke-miterlimit="10"/>
<path d="M126.215 139.307C103.556 151.817 87.9946 155.247 77.944 154.603C76.0666 154.488 74.3826 154.224 72.8746 153.853C73.316 161.789 70.4586 167.643 70.4586 167.643C70.9173 167.545 71.3853 167.431 71.8613 167.299C85.756 163.701 107.497 150.239 126.347 139.536L126.215 139.307Z" fill="#A16646"/>
<path d="M126.215 139.307C103.556 151.817 87.9946 155.247 77.944 154.603C76.0666 154.488 74.3826 154.224 72.8746 153.853C73.316 161.789 70.4586 167.643 70.4586 167.643C70.9173 167.545 71.3853 167.431 71.8613 167.299C85.756 163.701 107.497 150.239 126.347 139.536L126.215 139.307Z" stroke="#A16646" stroke-width="0.539" stroke-miterlimit="10"/>
<path d="M78.0941 65.7946C71.5528 64.8959 67.3821 55.9119 66.5088 48.6906C68.1488 50.8332 77.7421 62.3826 87.5715 53.3546C98.3715 43.4359 97.7115 24.9132 95.5061 16.3159L95.7541 16.1572C98.7955 19.5692 100.621 22.5679 101.343 23.8106C103.67 28.8706 101.343 37.6439 97.7195 47.6946C94.0168 57.9839 91.0368 67.5132 78.2261 65.8119C78.1821 65.8039 78.1381 65.8039 78.0941 65.7946Z" fill="#A16646"/>
<path d="M78.0941 65.7946C71.5528 64.8959 67.3821 55.9119 66.5088 48.6906C68.1488 50.8332 77.7421 62.3826 87.5715 53.3546C98.3715 43.4359 97.7115 24.9132 95.5061 16.3159L95.7541 16.1572C98.7955 19.5692 100.621 22.5679 101.343 23.8106C103.67 28.8706 101.343 37.6439 97.7195 47.6946C94.0168 57.9839 91.0368 67.5132 78.2261 65.8119C78.1821 65.8039 78.1381 65.8039 78.0941 65.7946Z" stroke="#A16646" stroke-width="0.539" stroke-miterlimit="10"/>
<path d="M69.8155 1.92794C60.8315 0.719945 46.6728 0.781278 39.4515 4.59061C38.9755 4.83728 38.5342 5.10128 38.1195 5.38394C35.9595 6.87328 34.5235 8.60261 33.4115 10.4533C33.4115 10.4533 47.8008 3.85861 67.9115 4.40528C72.7075 4.52928 77.8302 5.06661 83.1635 6.20394C79.3635 4.20261 74.9195 2.63328 69.8155 1.92794Z" fill="#E89365"/>
<path d="M51.9179 49.343C56.0179 44.2737 60.6019 49.1057 56.9873 51.8737C54.6153 53.6897 51.1326 53.3284 45.4033 55.3737L45.3939 55.3644C45.4286 55.3377 45.4646 55.3204 45.4913 55.2857C47.9153 53.487 50.1993 51.4684 51.9179 49.343Z" fill="#402206"/>
<path d="M48.6206 194.877C48.0299 194.489 47.6766 194.189 47.6766 194.189L47.6152 194.137C47.8619 193.81 48.1352 193.493 48.4179 193.193C48.7699 192.814 49.3872 192.612 50.1286 192.47C49.4672 193.388 48.9912 194.181 48.6206 194.877Z" fill="#947853"/>
<path d="M68.4224 171.011L68.2811 170.94C64.2517 176.751 61.7037 187.979 61.5011 188.176C60.1264 192.743 58.5651 196.085 54.5104 196.613C52.1824 196.923 49.8717 195.697 48.6211 194.877C48.0304 194.489 47.6771 194.189 47.6771 194.189L47.6157 194.136C46.5131 195.564 45.7904 197.16 45.7197 198.519C45.6664 199.479 45.9397 200.325 46.6451 200.916C48.5771 202.521 55.0131 203.525 57.2611 202.204C57.9304 201.807 62.7357 195.017 63.2211 193.836C63.4411 193.289 63.5557 189.667 64.2784 185.011C64.9571 180.691 66.1477 175.489 68.4224 171.011Z" fill="#A16646"/>
<path d="M68.4224 171.011L68.2811 170.94C64.2517 176.751 61.7037 187.979 61.5011 188.176C60.1264 192.743 58.5651 196.085 54.5104 196.613C52.1824 196.923 49.8717 195.697 48.6211 194.877C48.0304 194.489 47.6771 194.189 47.6771 194.189L47.6157 194.136C46.5131 195.564 45.7904 197.16 45.7197 198.519C45.6664 199.479 45.9397 200.325 46.6451 200.916C48.5771 202.521 55.0131 203.525 57.2611 202.204C57.9304 201.807 62.7357 195.017 63.2211 193.836C63.4411 193.289 63.5557 189.667 64.2784 185.011C64.9571 180.691 66.1477 175.489 68.4224 171.011Z" stroke="#A16646" stroke-width="0.539" stroke-miterlimit="10"/>
<path d="M41.5145 161.224C41.8412 163.384 42.2732 166.408 42.6865 169.635L42.8278 169.618C42.8278 169.618 48.2238 171.602 48.6652 175.895C48.8238 177.482 48.8852 179.422 48.7438 181.458C48.4878 184.94 47.6425 188.679 45.6932 191.324C42.6078 195.512 37.7585 189.34 37.7585 189.34L37.6705 189.243C36.2958 190.512 34.7958 194.278 35.5452 196.084C36.3572 198.016 41.3212 198.703 44.3972 198.659C44.9265 198.651 45.3585 198.606 45.7198 198.518C45.7905 197.16 46.5132 195.564 47.6158 194.136C47.8625 193.81 48.1358 193.492 48.4172 193.194C48.7705 192.814 49.3878 192.611 50.1278 192.47C50.1545 192.443 50.1718 192.418 50.1905 192.391C50.4278 190.539 50.7638 186.307 51.0892 181.608C51.3718 177.659 51.6452 173.383 51.8652 169.926C49.2998 167.916 45.5092 164.848 41.5145 161.224Z" fill="#A16646"/>
<path d="M40.4741 31.8953C43.7101 39.0979 55.8328 35.9326 52.5968 23.0793L53.1341 22.7966C54.1661 24.8153 54.5808 27.5046 54.1128 30.3353C53.2141 35.7926 49.3968 39.7073 45.5781 39.0713C42.7048 38.5953 40.6501 35.6779 40.2008 31.9219L40.4741 31.8953Z" fill="#BCBEC0"/>
<path d="M53.1346 22.7967L52.5973 23.0793C55.8319 35.9327 43.7093 39.098 40.4746 31.8953L40.2013 31.922C40.0599 30.7047 40.0866 29.4007 40.3066 28.0607C41.2053 22.602 45.0239 18.6887 48.8413 19.314C50.6746 19.614 52.1733 20.918 53.1346 22.7967Z" fill="white"/>
<path d="M45.6934 191.324C42.6081 195.512 37.7588 189.34 37.7588 189.34L37.6708 189.244C37.7668 189.147 37.8641 189.067 37.9614 189.005C39.4068 188.044 42.1401 189.332 43.7534 187.4C44.6441 186.325 43.7014 177.385 42.6868 169.636L42.8281 169.617C42.8281 169.617 48.2241 171.601 48.6641 175.895C48.8228 177.483 48.8854 179.421 48.7441 181.459C48.4881 184.941 47.6414 188.679 45.6934 191.324Z" fill="#C27C54"/>
<path d="M33.5796 78.9401C33.1823 71.3668 31.949 65.0094 31.5343 63.5374L31.5876 63.5201C31.5876 63.5201 36.7183 61.1921 42.1756 57.6134C33.765 65.0801 33.8436 76.9294 33.9143 78.9228L33.5796 78.9401Z" fill="#A16646"/>
<path d="M30.9436 24.4453C30.9436 24.4547 30.9436 24.4627 30.9529 24.4627C31.3316 26.1293 31.2262 28.1653 30.9876 29.5587C30.8636 30.2907 30.6969 30.9787 30.4942 31.6133L29.9649 31.4547C26.2969 37.696 24.0929 33.8787 24.0929 33.8787L23.5462 33.9667C23.2996 32.4067 23.2289 30.652 23.4849 28.9507C23.5902 28.2547 23.7316 27.628 23.8902 27.064C24.6129 24.5947 25.8742 23.1493 27.5049 21.712C27.5582 21.6507 27.6022 21.5893 27.6462 21.5187L27.6636 21.536C29.5942 21.2893 30.5462 22.656 30.9436 24.4453Z" fill="white"/>
<path d="M60.8051 13.6716C60.8051 13.6716 61.7665 10.0662 62.8945 10.3742C63.0185 10.4089 63.1331 10.4449 63.2478 10.4796L60.8051 13.6716ZM54.1131 30.3342C53.2145 35.7916 49.3958 39.7062 45.5785 39.0716C42.7051 38.5956 40.6505 35.6769 40.2011 31.9222C40.0598 30.7049 40.0865 29.3996 40.3065 28.0596C41.2065 22.6022 45.0238 18.6876 48.8411 19.3143C50.6745 19.6143 52.1731 20.9182 53.1345 22.7969C54.1665 24.8156 54.5798 27.5049 54.1131 30.3342V30.3342ZM205.034 81.6729C205.034 81.6729 149.613 92.9142 132.536 93.4609C115.705 94.0076 91.6185 88.6022 90.9051 88.4449C90.8958 88.4356 90.8865 88.4356 90.8865 88.4356C87.4131 87.9769 84.9531 87.4129 84.1251 86.7422C80.7131 83.9649 78.1731 66.2702 78.1731 66.2702L78.2265 65.8129C78.1825 65.8036 78.1385 65.8036 78.0945 65.7942C71.5518 64.8956 67.3825 55.9116 66.5091 48.6902C68.1491 50.8329 77.7411 62.3822 87.5718 53.3542C98.3718 43.4356 97.7105 24.9129 95.5065 16.3169L95.7531 16.1582C92.7731 12.8076 88.6118 9.06091 83.1638 6.20357C77.8291 5.06624 72.7078 4.52891 67.9118 4.40491C47.8011 3.85824 33.4118 10.4529 33.4118 10.4529C31.2611 14.0062 30.3091 18.0009 27.6465 21.5182L27.6638 21.5356C29.5945 21.2889 30.5465 22.6556 30.9438 24.4449C30.9438 24.4542 30.9438 24.4636 30.9518 24.4636C31.6318 26.5342 32.7945 32.0716 29.2065 39.3276C28.8451 40.0676 28.1491 40.8702 27.2665 41.6902C34.5225 43.6382 36.8505 56.6342 45.4905 55.2849C47.9158 53.4862 50.1985 51.4676 51.9185 49.3436C56.0171 44.2742 60.6025 49.1049 56.9878 51.8729C54.6158 53.6889 51.1331 53.3276 45.4025 55.3729L45.3931 55.3649C44.3358 56.1582 43.2518 56.9076 42.1758 57.6129C33.7651 65.0809 33.8438 76.9302 33.9145 78.9222L33.5798 79.4156C33.6945 81.5569 33.7385 83.8529 33.6771 86.5196H33.7825C33.7825 87.8529 37.4318 97.8236 33.1825 113.244C31.0225 121.038 27.1785 127.862 29.9651 139.658C31.6491 146.826 38.0678 158.081 38.0678 158.081C39.2131 159.21 40.3771 160.234 41.5145 161.284C45.5091 164.908 49.2998 167.946 51.8651 169.956C53.9011 171.552 55.1878 172.454 55.1878 172.454C55.1878 172.454 55.8465 187.156 55.8465 190.632V190.629C55.8465 190.929 55.7345 191.149 55.6718 191.264C55.0811 192.321 52.1638 192.109 50.1358 192.47C49.4745 193.388 48.9945 194.181 48.6251 194.877C49.8771 195.697 52.1838 197.428 54.5118 197.12C58.5678 196.59 60.1345 193.186 61.5091 189.186H61.5051C62.9958 182.52 64.2545 177.256 68.2838 171.445L68.4238 171.264C69.0225 170.082 69.7011 168.818 70.4598 167.769C70.4598 167.769 73.3158 161.852 72.8745 153.917C74.3825 154.288 76.0665 154.521 77.9438 154.634C87.9958 155.278 103.556 151.833 126.214 139.322L126.346 139.544C130.244 137.322 134.017 135.229 137.57 133.36C142.384 130.838 146.792 128.729 150.574 127.318C152.117 126.737 153.564 126.277 154.877 125.95C155.749 125.73 156.561 125.572 157.318 125.482C160.29 138.002 169.062 148.414 174.741 154.886C177.677 158.228 179.784 160.52 179.836 161.506C179.969 163.825 178.505 179.342 176.812 185.929C176.38 187.594 175.94 188.688 175.498 188.856C173.497 189.596 170.949 189.79 169.309 190.945L169.345 190.998C169.345 190.998 174.741 195.07 178.381 192.646C179.66 191.792 180.568 189.005 181.538 185.021V185.02C183.31 177.729 185.329 166.461 190.389 155.838L190.416 155.829C188.97 151.624 187.162 145.285 187.56 140.912C187.613 140.373 187.816 139.765 188.15 139.104L188.133 139.096C200.564 115.634 191.712 93.4609 191.712 93.4609L191.897 93.3556C191.624 92.8169 191.457 92.3769 191.421 92.0156C191.14 88.9116 202.433 85.0582 204.046 84.5742C205.378 84.1769 205.828 82.6689 205.034 81.6729" fill="#C27C54"/>
<path d="M33.1741 92.5693C33.4648 90.436 33.6235 87.8533 33.6768 86.52H33.7821C33.7821 87.8533 37.4328 97.824 33.1835 113.244C31.0235 121.037 27.1795 127.863 29.9648 139.659C31.6488 146.827 38.0675 158.081 38.0675 158.081C30.4061 150.649 23.0795 141.887 23.0795 134.94C23.0795 117.8 31.5248 104.709 33.1741 92.5693Z" fill="#E89365"/>
<path d="M30.9523 24.4629C31.631 26.5349 32.795 32.0709 29.207 39.3269C28.8456 40.0682 28.1483 40.8709 27.267 41.6909C25.7336 41.2842 23.9696 41.3642 21.8896 42.1842C23.8016 40.7469 25.0723 39.5309 25.3363 39.0096C27.8136 36.5762 29.559 34.5309 30.4936 31.6136C30.6963 30.9789 30.8643 30.2909 30.987 29.5589C31.2256 28.1656 31.331 26.1296 30.9523 24.4629Z" fill="#E89365"/>
<path d="M25.3362 39.0101C24.8335 38.7021 23.9522 36.6208 23.5469 33.9674L24.0935 33.8794C24.0935 33.8794 26.2975 37.6968 29.9642 31.4541L30.4935 31.6128C29.5589 34.5314 27.8135 36.5768 25.3362 39.0101Z" fill="#BCBEC0"/>
<path d="M20.0199 43.4977C20.6986 43.0484 21.3253 42.6071 21.8893 42.1844C23.9693 41.3644 25.7333 42.1951 27.2666 42.6004C23.7146 45.9071 17.1106 49.1871 16.8013 50.5204H16.7933C15.0293 49.1871 13.1346 48.9844 11.3186 48.9217C14.5013 47.7671 17.5693 45.1471 20.0199 43.4977Z" fill="#F2BB8A"/>
<path d="M13.4517 64.4017C13.6197 63.6257 14.6943 58.6977 16.3263 57.587C18.0983 56.379 22.5143 58.071 22.5143 58.071L22.5503 58.0977C22.233 58.627 21.9063 59.0684 21.633 59.359C20.725 60.319 17.0663 63.211 13.4517 64.4017Z" fill="black"/>
<path d="M39.4075 4.50239C34.5848 4.58239 25.4955 8.20505 24.1288 10.6117C22.7621 13.0277 23.0795 18.2557 22.3568 22.6824C22.1715 23.7837 21.8368 25.0624 21.4221 26.3851C20.1781 30.3704 18.2915 34.8397 18.1768 36.833C18.0181 39.4864 19.8608 43.2691 19.8608 43.2691L20.0195 43.4984C20.6995 43.0477 21.3248 42.6077 21.8888 42.1837C23.8021 40.7477 25.0715 39.5304 25.3368 39.0104C24.8341 38.7011 23.9528 36.6211 23.5461 33.9677C23.2995 32.4064 23.2288 30.6517 23.4848 28.9504C23.5901 28.2544 23.7315 27.6277 23.8901 27.0637C24.6128 24.5957 25.8741 23.1491 27.5048 21.7117C27.5581 21.6504 27.6021 21.589 27.6461 21.5184C30.3088 18.001 31.2608 14.0064 33.4115 10.4531C34.5235 8.60238 35.9595 6.87438 38.1195 5.38372C38.5341 5.10238 38.9755 4.83705 39.4515 4.59039L39.4075 4.50239Z" fill="#C27C54"/>
<path d="M9.96911 64.9042C11.0531 65.0095 12.2531 64.8069 13.4518 64.4015C17.0664 63.2109 20.7251 60.3202 21.6331 59.3589C21.9064 59.0682 22.2331 58.6269 22.5504 58.0975C23.2558 56.9429 23.9611 55.3389 24.0584 53.9362C24.1198 53.1522 23.9878 52.4282 23.5638 51.8735C22.4891 50.4722 19.8518 49.3695 16.8024 48.6989C17.1104 48.5322 23.7144 44.9962 27.2664 41.6909C34.5224 43.6389 36.8504 56.6349 45.4904 55.2855C45.4638 55.3202 45.4291 55.3389 45.3944 55.3642C44.3358 56.1575 43.2518 56.9082 42.1758 57.6122C36.7184 61.1922 31.5878 63.5202 31.5878 63.5202L31.5344 63.5375C31.5251 63.5282 31.5251 63.5282 31.5251 63.5202C31.5251 63.5202 21.5544 67.7162 17.0491 67.5575C13.6984 67.4429 10.4451 65.9882 8.39978 64.5162C8.89311 64.7189 9.42245 64.8509 9.96911 64.9042Z" fill="#E8AE7B"/>
<path d="M23.5642 52.7837C22.4882 51.3823 19.8522 50.5197 16.8015 50.5197H16.7935C15.0295 49.1863 13.1335 48.9837 11.3175 48.9223C7.75618 48.7983 4.50284 48.881 3.17084 50.2837C2.63351 50.8557 2.25485 51.3863 2.02551 52.2063C2.51885 52.065 4.90818 51.3077 8.17885 51.0263C12.6495 50.629 18.7762 50.8463 23.9348 53.985L24.0575 54.4197C24.1202 53.6357 23.9868 53.3397 23.5642 52.7837Z" fill="#733D0B"/>
<path d="M6.75117 63.0527C6.09917 62.2594 5.87784 59.7901 6.23917 57.0394C6.24851 57.0581 6.26584 57.0754 6.27517 57.1021C6.83917 58.2301 6.75117 63.0527 6.75117 63.0527Z" fill="white"/>
<path d="M23.9345 53.9277C18.7772 50.7891 12.6492 50.5157 8.17985 50.9117C4.90918 51.1944 2.51985 51.8384 2.02518 51.9797C1.53185 53.6544 1.60252 55.5677 1.92785 56.5371C1.92785 56.5371 5.56118 55.9997 6.23985 57.0397C6.24918 57.0571 6.26651 57.0757 6.27451 57.1011C6.83985 58.2304 6.75051 63.0531 6.75051 63.0531C7.12118 63.5117 7.68518 64.0131 8.39985 64.5157C8.89318 64.7184 9.42251 64.8517 9.96918 64.9037C11.0532 65.0104 12.2532 64.8077 13.4518 64.4011C13.6185 63.6264 14.6945 58.6971 16.3265 57.5864C18.0985 56.3784 22.5145 58.0717 22.5145 58.0717L22.5505 58.0984C23.2558 56.9424 23.9612 55.3384 24.0585 53.9371L23.9345 53.9277Z" fill="#402206"/>
<path d="M6.23974 57.0398C5.87841 59.7904 6.09841 62.2598 6.75174 63.0531C7.12108 63.5118 7.68508 64.0131 8.39974 64.5158C4.55574 63.0171 2.36108 57.8251 1.92908 56.5371C1.92908 56.5371 5.56108 55.9998 6.23974 57.0398" fill="black"/>
<path d="M137.57 133.356C138.469 135.304 141.08 140.524 145.558 146.422C149.464 151.562 154.789 157.213 161.666 161.665C162.538 166.048 162.248 174.132 161.692 178.337C161.533 179.528 161.357 180.409 161.181 180.806C160.378 182.578 154.101 182.41 152.814 184.024C151.526 185.629 150.24 190.134 151.209 191.421C152.17 192.708 159.736 193.996 161.022 193.678C162.309 193.352 166.973 189.173 166.973 189.173C166.973 189.173 168.181 180.797 169.389 173.294C170.209 168.234 171.02 163.57 171.478 162.141C172.008 160.457 173.418 157.513 174.741 154.885" stroke="black" stroke-width="1.322" stroke-miterlimit="10"/>
<path d="M50.1282 192.47C50.1548 192.443 50.1722 192.417 50.1895 192.39C50.4282 190.539 50.7628 186.307 51.0895 181.609C51.3708 177.658 51.6442 173.382 51.8655 169.926" stroke="black" stroke-width="1.322" stroke-miterlimit="10"/>
<path d="M41.5145 161.224C41.8412 163.384 42.2732 166.408 42.6878 169.635C43.7012 177.384 44.6438 186.326 43.7545 187.4C42.1412 189.331 39.4078 188.044 37.9612 189.006C37.8652 189.067 37.7678 189.146 37.6705 189.243C36.2958 190.512 34.7958 194.278 35.5452 196.084C36.3572 198.016 41.3212 198.703 44.3972 198.659C44.9265 198.651 45.3585 198.606 45.7198 198.518" stroke="black" stroke-width="1.322" stroke-miterlimit="10"/>
<path d="M90.8869 88.4355C87.4136 87.9768 84.9536 87.4128 84.1243 86.7421C80.7123 83.9648 78.1736 66.2701 78.1736 66.2701" stroke="black" stroke-width="1.322" stroke-miterlimit="10"/>
<path d="M8.39978 64.5162C10.4451 65.9882 13.6984 67.4429 17.0491 67.5575C21.5544 67.7162 31.5251 63.5202 31.5251 63.5202C31.5251 63.5282 31.5251 63.5282 31.5344 63.5375C31.9491 65.0095 33.1824 71.3669 33.5798 78.9402C33.6944 81.0829 33.7384 83.3215 33.6771 85.5695C33.6238 87.7562 33.4651 89.9602 33.1744 92.0949C31.5251 104.235 23.0798 117.503 23.0798 134.643C23.0798 141.59 30.4051 150.53 38.0678 157.963C39.2131 159.091 40.3771 160.175 41.5144 161.224C45.5078 164.848 49.2998 167.916 51.8651 169.927C53.9011 171.522 55.1718 172.439 55.1718 172.439C55.1718 172.439 56.2638 187.154 55.8144 190.627C55.7704 190.927 55.7184 191.148 55.6558 191.263C55.0651 192.32 52.1558 192.108 50.1278 192.47C49.3878 192.611 48.7704 192.814 48.4171 193.194C48.1358 193.492 47.8624 193.811 47.6158 194.136C46.5131 195.564 45.7904 197.16 45.7198 198.519C45.6678 199.479 45.9398 200.326 46.6451 200.916C48.5771 202.522 55.0131 203.526 57.2611 202.204C57.9304 201.807 62.7358 195.018 63.2211 193.836C63.4411 193.29 63.5558 189.667 64.2784 185.011C64.9571 180.691 66.1478 175.49 68.4224 171.011C69.0224 169.83 69.7011 168.692 70.4584 167.643C70.9171 167.546 71.3851 167.431 71.8611 167.299C85.7558 163.702 107.497 150.239 126.346 139.536C130.244 137.314 134.017 135.224 137.57 133.355C142.384 130.834 146.792 128.727 150.574 127.316C152.117 126.735 153.564 126.276 154.877 125.95C155.75 125.73 156.561 125.571 157.32 125.483C160.29 138.002 169.062 148.414 174.741 154.886C177.677 158.227 179.784 160.519 179.837 161.507C179.969 163.826 178.505 179.343 176.813 185.928C176.381 187.595 175.94 188.688 175.498 188.855C173.497 189.596 170.949 189.79 169.309 190.946C169.169 191.042 169.028 191.148 168.904 191.263C167.29 192.708 166.17 196.086 166.973 197.699C167.776 199.303 174.529 200.194 176.618 200.106C178.717 200.026 181.044 198.016 184.182 193.995C183.75 190.143 184.28 185.567 185.241 181.052C187.489 170.482 192.065 160.219 192.065 160.219C192.065 160.219 191.316 158.43 190.416 155.828C188.97 151.623 187.162 145.284 187.56 140.911C187.613 140.374 187.816 139.766 188.15 139.104C190.46 134.467 198.748 126.875 200.432 117.027C202.23 106.43 194.022 97.4282 191.897 93.3549C191.624 92.8175 191.457 92.3762 191.421 92.0149C191.14 88.9122 202.433 85.0589 204.046 84.5735C205.378 84.1775 205.828 82.6695 205.034 81.6735C204.381 80.8535 202.918 80.3682 200.432 81.0735C194.877 82.6429 155.794 89.2735 133.348 89.9962C122.556 90.3482 101.801 89.8895 90.9051 88.4442" stroke="black" stroke-width="1.322" stroke-miterlimit="10"/>
<path d="M69.8153 1.92797C60.8313 0.719966 46.6727 0.781301 39.4513 4.59063C38.9753 4.8373 38.534 5.1013 38.1207 5.38396C35.9607 6.8733 34.5233 8.60263 33.4127 10.4533C31.2607 14.0066 30.3087 18 27.646 21.5186C27.602 21.5893 27.558 21.6506 27.5047 21.712C25.874 23.1493 24.6127 24.5946 23.89 27.064C23.7313 27.628 23.59 28.2546 23.4847 28.9506C23.2287 30.652 23.2993 32.4066 23.546 33.9666C23.9527 36.6213 24.834 38.7013 25.3367 39.0106C25.0713 39.5306 23.802 40.7466 21.8887 42.184C21.3247 42.608 20.6993 43.048 20.0193 43.4973C17.5687 45.1466 14.5007 46.8573 11.318 48.012" stroke="black" stroke-width="1.322" stroke-miterlimit="10"/>
<path d="M60.8051 13.6716C60.8051 13.6716 61.7664 10.0662 62.8944 10.3742C63.0184 10.4089 63.1331 10.4449 63.2477 10.4796C66.9237 11.6089 69.5597 14.5529 71.1824 20.2662C73.5891 28.7916 70.2117 35.5449 67.2411 41.1796C66.3504 42.8622 66.1304 45.6142 66.5091 48.6902C67.3824 55.9116 71.5531 64.8956 78.0944 65.7942C78.1384 65.8036 78.1824 65.8036 78.2264 65.8129C91.0371 67.5142 94.0171 57.9836 97.7197 47.6942C101.344 37.6436 103.67 28.8716 101.344 23.8102C100.621 22.5676 98.7957 19.5702 95.7531 16.1582C92.7744 12.8076 88.6117 9.0609 83.1637 6.20357C79.3637 4.20224 74.9197 2.6329 69.8157 1.92757" stroke="black" stroke-width="1.322" stroke-miterlimit="10" stroke-linecap="round"/>
<path d="M25.3362 39.0101C27.8135 36.5768 29.5588 34.5314 30.4935 31.6128C30.6962 30.9781 30.8642 30.2901 30.9882 29.5594C31.2255 28.1661 31.3308 26.1288 30.9522 24.4634" stroke="black" stroke-width="0.992" stroke-miterlimit="10"/>
<path d="M31.5872 63.5199C31.5872 63.5199 36.7178 61.1919 42.1765 57.6133C43.2512 56.9079 44.3365 56.1586 45.3938 55.3653C45.4285 55.3386 45.4645 55.3213 45.4912 55.2853C47.9152 53.4866 50.1992 51.4679 51.9178 49.3426C56.0178 44.2733 60.6018 49.1053 56.9872 51.8733C54.6165 53.6893 51.1338 53.3279 45.4032 55.3733" stroke="black" stroke-width="1.322" stroke-miterlimit="10"/>
<path d="M53.1346 22.7966C54.1666 24.8153 54.5799 27.5046 54.1133 30.3353C53.2133 35.7926 49.3959 39.7059 45.5786 39.0713C42.7053 38.5953 40.6506 35.6779 40.2013 31.9219C40.0599 30.7046 40.0866 29.4006 40.3066 28.0606C41.2053 22.6019 45.0239 18.6886 48.8413 19.3139C50.6746 19.6139 52.1733 20.9179 53.1346 22.7966Z" stroke="black" stroke-width="0.992" stroke-miterlimit="10"/>
<path d="M16.793 48.6995C15.0303 48.3115 13.1343 48.0741 11.3183 48.0115C7.75567 47.8888 4.50234 48.4261 3.17167 49.8275C2.63434 50.4008 2.25434 51.1595 2.02501 51.9795C1.53167 53.6541 1.60234 55.5675 1.92901 56.5368C2.36101 57.8248 4.55567 63.0168 8.39967 64.5168C8.89301 64.7195 9.42234 64.8515 9.96901 64.9048C11.053 65.0101 12.253 64.8075 13.4517 64.4021C17.0663 63.2115 20.725 60.3195 21.633 59.3581C21.9063 59.0675 22.233 58.6275 22.5503 58.0981C23.2557 56.9435 23.961 55.3381 24.0583 53.9368C24.1197 53.1515 23.9877 52.4288 23.5637 51.8728C22.489 50.4715 19.8517 49.3701 16.8023 48.6995" stroke="black" stroke-width="1.322" stroke-miterlimit="10"/>
<path d="M13.434 64.5074C13.434 64.5074 13.4433 64.4727 13.4513 64.4021C13.6193 63.6261 14.6953 58.6981 16.326 57.5861C18.098 56.3781 22.5153 58.0714 22.5153 58.0714" stroke="black" stroke-width="1.322" stroke-miterlimit="10"/>
<path d="M6.75113 63.0527C6.75113 63.0527 6.83913 58.2301 6.27513 57.1021C6.2658 57.0754 6.24847 57.0581 6.23913 57.0394C5.56047 55.9994 1.92847 56.5367 1.92847 56.5367" stroke="black" stroke-width="1.322" stroke-miterlimit="10"/>
<path d="M39.4075 4.50238C34.5848 4.58238 25.4955 8.20505 24.1288 10.6117C22.7621 13.0277 23.0795 18.2557 22.3568 22.6824C22.1715 23.7837 21.8355 25.0624 21.4221 26.385C20.1781 30.3704 18.2915 34.8397 18.1768 36.833C18.0181 39.4864 19.8608 43.269 19.8608 43.269" stroke="black" stroke-width="1.322" stroke-miterlimit="10"/>
<path d="M90.8868 88.4355C90.8868 88.4355 90.8962 88.4355 90.9042 88.4448" stroke="black" stroke-width="1.322" stroke-miterlimit="10"/>
<path d="M62.6547 50.4871C62.6427 50.4871 62.6307 50.4857 62.62 50.4857C62.2547 50.4657 61.9747 50.1551 61.9933 49.7911C62.0027 49.5844 62.1707 44.6751 56.792 44.0884C56.428 44.0484 56.1667 43.7217 56.2053 43.3591C56.2453 42.9964 56.5693 42.7311 56.9347 42.7737C63.572 43.4964 63.3173 49.7964 63.3147 49.8604C63.2947 50.2124 63.004 50.4871 62.6547 50.4871Z" fill="black"/>
<path d="M55.5342 19.4597C55.1275 19.4597 54.7635 19.1784 54.6728 18.7651C54.4608 17.7811 53.9502 17.0691 53.1542 16.6464C51.9822 16.0224 50.4888 16.1664 49.9502 16.3811C49.4995 16.5597 48.9862 16.3411 48.8048 15.8891C48.6235 15.4371 48.8448 14.9237 49.2968 14.7437C50.1875 14.3877 52.2475 14.1677 53.9822 15.0891C55.2395 15.7571 56.0742 16.8984 56.3968 18.3917C56.4995 18.8677 56.1968 19.3371 55.7222 19.4397C55.6595 19.4531 55.5968 19.4597 55.5342 19.4597Z" fill="black"/>
<path d="M26.5139 19.9092C26.1299 19.9092 25.7766 19.6558 25.6672 19.2665C25.5472 18.8465 25.7539 18.4118 26.1352 18.2305C26.1739 18.2038 26.2259 18.1652 26.2859 18.1198C27.1259 17.4958 29.6806 15.6012 32.4086 17.5278C32.8059 17.8078 32.9006 18.3585 32.6192 18.7558C32.3392 19.1532 31.7886 19.2478 31.3899 18.9678C29.9072 17.9185 28.5099 18.6652 27.3379 19.5358C27.1006 19.7118 26.9566 19.8185 26.7552 19.8758C26.6752 19.8985 26.5939 19.9092 26.5139 19.9092Z" fill="black"/>
<path d="M47.8138 30.1183C46.9058 30.1183 46.1671 30.8569 46.1671 31.7663C46.1671 32.6743 46.9058 33.4129 47.8138 33.4129C48.7218 33.4129 49.4618 32.6743 49.4618 31.7663C49.4618 30.8569 48.7218 30.1183 47.8138 30.1183Z" fill="black"/>
<path d="M28.8729 29.5884C28.0262 29.5884 27.3369 30.2777 27.3369 31.1257C27.3369 31.9724 28.0262 32.6617 28.8729 32.6617C29.7209 32.6617 30.4102 31.9724 30.4102 31.1257C30.4102 30.2777 29.7209 29.5884 28.8729 29.5884Z" fill="black"/>
<path d="M90.8846 97.0552C90.7366 97.0552 90.5886 97.0058 90.4659 96.9058C86.4433 93.6152 82.9526 86.5018 82.5673 85.7018C82.4086 85.3738 82.5473 84.9778 82.8766 84.8192C83.2073 84.6592 83.6019 84.7992 83.7593 85.1285C84.1313 85.9018 87.5019 92.7712 91.3033 95.8818C91.5859 96.1138 91.6273 96.5298 91.3966 96.8125C91.2659 96.9725 91.0753 97.0552 90.8846 97.0552Z" fill="black"/>
<path d="M70.455 168.527C70.3324 168.527 70.2057 168.5 70.087 168.445C69.6444 168.241 69.4524 167.719 69.655 167.276C69.6897 167.2 73.1457 159.439 70.3577 146.895C70.2524 146.419 70.5524 145.948 71.027 145.843C71.5017 145.743 71.9737 146.037 72.0804 146.512C75.0057 159.681 71.4097 167.681 71.255 168.015C71.107 168.337 70.7884 168.527 70.455 168.527Z" fill="black"/>
<path d="M157.318 126.367C156.918 126.367 156.556 126.092 156.461 125.685C154.954 119.225 155.612 113.992 155.641 113.773C155.704 113.291 156.145 112.948 156.629 113.013C157.112 113.076 157.452 113.519 157.389 114.001C157.382 114.052 156.748 119.152 158.177 125.284C158.289 125.759 157.993 126.233 157.52 126.343C157.452 126.359 157.385 126.367 157.318 126.367Z" fill="black"/>
<path d="M39.4331 194.154C39.4331 194.154 39.2385 194.306 38.9971 194.574C38.7531 194.842 38.4771 195.221 38.2705 195.633C38.0705 196.031 37.9505 196.457 37.9078 196.765C37.8611 197.075 37.8665 197.277 37.8665 197.277C37.8811 197.733 37.5225 198.114 37.0665 198.127C36.6105 198.141 36.2305 197.783 36.2158 197.327C36.2131 197.206 36.2345 197.091 36.2785 196.987L36.3238 196.879C36.3238 196.879 36.4358 196.609 36.6638 196.251C36.8918 195.891 37.2438 195.467 37.6585 195.123C38.0598 194.789 38.5091 194.526 38.8518 194.373C39.1945 194.215 39.4331 194.154 39.4331 194.154Z" fill="black"/>
<path d="M43.8415 195.036C43.8415 195.036 43.6468 195.188 43.4055 195.456C43.1615 195.724 42.8855 196.102 42.6788 196.514C42.4788 196.913 42.3588 197.338 42.3161 197.646C42.2695 197.957 42.2748 198.158 42.2748 198.158C42.2895 198.614 41.9308 198.996 41.4748 199.009C41.0188 199.022 40.6388 198.665 40.6241 198.209C40.6215 198.088 40.6428 197.973 40.6868 197.869L40.7321 197.761C40.7321 197.761 40.8441 197.49 41.0721 197.133C41.3001 196.773 41.6521 196.349 42.0668 196.005C42.4681 195.67 42.9175 195.408 43.2601 195.254C43.6028 195.097 43.8415 195.036 43.8415 195.036Z" fill="black"/>
<path d="M50.0131 197.681C50.0131 197.681 49.8184 197.834 49.5771 198.101C49.3344 198.369 49.0571 198.747 48.8504 199.159C48.6504 199.558 48.5304 199.983 48.4878 200.291C48.4411 200.602 48.4464 200.803 48.4464 200.803C48.4611 201.259 48.1024 201.641 47.6464 201.654C47.1904 201.667 46.8104 201.31 46.7958 200.854C46.7931 200.733 46.8144 200.618 46.8584 200.514L46.9038 200.406C46.9038 200.406 47.0158 200.135 47.2438 199.778C47.4718 199.418 47.8238 198.994 48.2384 198.65C48.6398 198.315 49.0891 198.053 49.4318 197.899C49.7744 197.742 50.0131 197.681 50.0131 197.681Z" fill="black"/>
<path d="M54.4213 198.562C54.4213 198.562 54.2266 198.714 53.9853 198.982C53.7413 199.25 53.4653 199.629 53.2586 200.041C53.0586 200.44 52.9386 200.865 52.896 201.173C52.8493 201.484 52.8546 201.685 52.8546 201.685C52.8693 202.141 52.5106 202.522 52.0546 202.536C51.5986 202.549 51.2186 202.192 51.204 201.736C51.2013 201.614 51.2226 201.5 51.2666 201.396L51.312 201.288C51.312 201.288 51.424 201.017 51.652 200.66C51.88 200.3 52.232 199.876 52.6466 199.532C53.048 199.196 53.4973 198.934 53.84 198.781C54.1826 198.624 54.4213 198.562 54.4213 198.562Z" fill="black"/>
<path d="M171.681 195.036C171.681 195.036 171.486 195.188 171.245 195.456C171.001 195.724 170.725 196.102 170.518 196.514C170.318 196.913 170.198 197.338 170.155 197.646C170.109 197.957 170.114 198.158 170.114 198.158C170.129 198.614 169.77 198.996 169.314 199.009C168.858 199.022 168.478 198.665 168.463 198.209C168.459 198.088 168.482 197.973 168.526 197.869L168.571 197.761C168.571 197.761 168.683 197.49 168.911 197.133C169.139 196.773 169.491 196.349 169.906 196.005C170.307 195.67 170.757 195.408 171.099 195.254C171.442 195.097 171.681 195.036 171.681 195.036Z" fill="black"/>
<path d="M176.089 195.917C176.089 195.917 175.894 196.069 175.653 196.337C175.409 196.605 175.133 196.984 174.926 197.396C174.726 197.795 174.606 198.22 174.564 198.528C174.517 198.839 174.522 199.04 174.522 199.04C174.537 199.496 174.178 199.877 173.722 199.891C173.266 199.904 172.886 199.547 172.872 199.091C172.868 198.969 172.89 198.855 172.934 198.751L172.98 198.643C172.98 198.643 173.092 198.372 173.32 198.015C173.548 197.655 173.9 197.231 174.314 196.887C174.716 196.551 175.165 196.289 175.508 196.136C175.85 195.979 176.089 195.917 176.089 195.917Z" fill="black"/>
<path d="M154.929 188.864C154.929 188.864 154.735 189.016 154.493 189.284C154.251 189.552 153.973 189.931 153.767 190.343C153.567 190.741 153.447 191.167 153.404 191.475C153.357 191.785 153.363 191.987 153.363 191.987C153.377 192.443 153.019 192.824 152.563 192.837C152.107 192.851 151.727 192.493 151.712 192.037C151.709 191.916 151.731 191.801 151.775 191.697L151.82 191.589C151.82 191.589 151.932 191.319 152.16 190.961C152.388 190.601 152.74 190.177 153.155 189.833C153.556 189.497 154.005 189.236 154.348 189.083C154.691 188.925 154.929 188.864 154.929 188.864Z" fill="black"/>
<path d="M159.338 189.746C159.338 189.746 159.143 189.898 158.902 190.166C158.658 190.434 158.382 190.812 158.175 191.224C157.975 191.623 157.855 192.048 157.812 192.356C157.766 192.667 157.771 192.868 157.771 192.868C157.786 193.324 157.427 193.706 156.971 193.719C156.515 193.732 156.135 193.375 156.12 192.919C156.118 192.798 156.139 192.683 156.183 192.579L156.228 192.471C156.228 192.471 156.34 192.2 156.568 191.843C156.796 191.483 157.148 191.059 157.563 190.715C157.964 190.38 158.414 190.118 158.756 189.964C159.099 189.807 159.338 189.746 159.338 189.746Z" fill="black"/>
<path d="M30.3435 24.7121C29.6315 22.2147 27.7969 22.3467 27.5875 22.3707L27.4182 21.0601C28.5075 20.9081 30.7795 21.4161 31.6155 24.3494L30.3435 24.7121Z" fill="black"/>
</svg>
