<svg width="275" height="234" viewBox="0 0 275 234" fill="none" xmlns="http://www.w3.org/2000/svg">
<path d="M176.217 209.789C180.328 211.45 180.237 217.728 178.255 219.737C177.189 220.82 171.252 223.013 165.747 220.48C158.9 215.717 135.535 203.365 135.535 203.365C135.535 203.365 118.86 211.101 103.379 211.404C87.8973 211.698 75.9947 208.128 71.232 206.934C69.46 206.494 66.3213 208.082 62.7147 210.358L60.8973 208.56C65.468 205.485 70.0293 201.888 73.4427 198.409C98.2213 204.062 111.831 204.677 136.004 194.582C144.868 205.594 160.625 214.01 166.132 214.616C171.637 215.23 176.071 210.34 176.071 210.34L176.217 209.789Z" fill="#BCBEC0"/>
<path d="M176.217 209.789L176.071 210.34C176.071 210.34 171.637 215.23 166.132 214.616C160.625 214.01 144.868 205.594 136.004 194.582C111.831 204.677 98.2213 204.062 73.4426 198.409C70.0293 201.888 65.468 205.485 60.8973 208.56C55.0067 212.505 49.0693 215.598 45.4533 216.452C39.0293 217.984 35.8173 211.404 35.8173 211.404L35.1013 211.358C37.12 209.468 39.8 210.918 43.8373 209.761C48.0133 208.577 55.456 201.878 55.7493 199.492C56.044 197.116 50.0973 189.966 49.7933 181.037C49.5 172.108 56.64 160.793 64.9813 156.029C71.5986 152.249 117.383 152.405 136.012 152.634L136.004 153.589C136.004 153.589 161.387 169.345 158.633 189.38L159.276 189.553C157.725 195.336 155.761 199.896 156.073 200.685C156.671 202.172 168.279 210.514 175.721 209.614C175.896 209.661 176.061 209.725 176.217 209.789Z" fill="#F1F2F2"/>
<path d="M160.543 173.145C161.699 178.376 160.653 184.442 159.276 189.553L158.633 189.38C161.387 169.345 136.003 153.589 136.003 153.589L136.012 152.634C140.857 152.689 143.868 152.753 143.868 152.753C143.868 152.753 157.56 159.756 160.543 173.145" fill="#BCBEC0"/>
<path d="M60.898 208.559L62.7153 210.358C56.63 214.203 49.2433 220.003 45.0313 221.223C42.4526 221.967 38.038 222.206 36.3953 221.223C33.422 219.443 32.8246 213.781 34.9086 211.551C34.9726 211.487 35.0366 211.422 35.1006 211.358L35.8166 211.405C35.8166 211.405 39.0286 217.985 45.4526 216.451C49.0686 215.598 55.006 212.506 60.898 208.559Z" fill="#BCBEC0"/>
<path d="M136.013 152.634C117.383 152.405 71.5979 152.249 64.9819 156.03C56.6392 160.793 49.5005 172.107 49.7939 181.037C50.0965 189.966 56.0432 197.115 55.7499 199.493C55.4566 201.878 48.0139 208.578 43.8379 209.762C39.7992 210.918 37.1206 209.467 35.1006 211.358C35.0366 211.422 34.9725 211.486 34.9085 211.551C32.8259 213.781 33.4219 219.443 36.3952 221.223C38.0379 222.206 42.4525 221.967 45.0312 221.223C49.2432 220.003 56.6312 214.203 62.7152 210.358C66.3219 208.082 69.4606 206.494 71.2312 206.935C75.9939 208.127 87.8965 211.698 103.379 211.405C118.861 211.101 135.535 203.365 135.535 203.365C135.535 203.365 158.901 215.718 165.746 220.481C171.253 223.013 177.19 220.819 178.255 219.737C180.237 217.727 180.329 211.45 176.218 209.789C176.062 209.725 175.897 209.661 175.722 209.614C168.279 210.514 156.67 202.171 156.074 200.685C155.762 199.895 157.726 195.335 159.277 189.554C160.653 184.442 161.699 178.375 160.543 173.145C157.561 159.755 143.869 152.753 143.869 152.753C143.869 152.753 140.858 152.689 136.013 152.634Z" stroke="black" stroke-width="1.377" stroke-miterlimit="10" stroke-linejoin="round"/>
<path d="M137.514 152.673L145.858 156.669L144.106 205.853H137.514V152.673Z" fill="#BCBEC0"/>
<path d="M128.963 159.021C114.281 168.427 93.3365 164.666 87.6658 168.81C81.7018 173.169 82.3898 206.971 82.3898 206.971L73.9005 207.047L76.6538 152.521H135.387C135.387 152.521 130.569 151.45 128.963 159.021Z" fill="#BCBEC0"/>
<path d="M59.9894 66.6448C60.0628 69.1781 54.2628 71.7835 52.1801 66.1315C49.1148 57.8075 34.4681 40.7195 36.1748 35.0941C37.2214 31.6715 44.5081 23.5488 55.0068 20.7315C65.4961 17.9048 68.5521 21.1901 68.5521 21.1901C68.6614 21.0901 68.7721 20.9888 68.8908 20.8875L68.9641 20.9795C72.1028 29.6795 68.1934 35.5248 67.2308 36.7821L67.4601 36.9568C67.1201 37.4248 66.8628 37.8008 66.7161 38.0301C66.7441 37.5261 66.7628 37.2501 66.7628 37.2501C59.9894 45.5101 59.9348 64.7088 59.9894 66.6448Z" fill="#473023"/>
<path d="M111.188 47.0058C111.354 42.3805 113.987 38.1872 111.519 35.6538C108.289 32.3498 101.883 33.0378 98.4605 36.0485C93.9445 40.0032 94.3112 47.9512 95.3952 52.5485C96.2018 55.9898 98.8085 61.0378 104.746 60.4778C113.124 59.6792 111.014 52.0525 111.188 47.0058ZM67.2298 36.7818C68.1938 35.5258 72.1032 29.6792 68.9645 20.9792L68.8912 20.8872C74.6725 15.8218 86.7045 10.0952 98.9738 9.33383L98.9832 9.5085C98.9832 9.5085 104.169 36.9205 125.771 36.1218C126.908 39.1965 127.752 42.1138 127.936 44.3898C128.69 53.3285 124.816 68.2138 127.936 77.4365C129.543 82.1818 134.654 91.1018 139.408 100.178L139.059 100.362C147.319 123.534 140.206 152.368 139.747 158.636C139.316 164.536 138.912 205.678 138.518 217.094C138.49 217.819 138.472 218.434 138.444 218.902C138.142 224.711 132.02 225.17 132.02 225.17L131.195 225.198L128.534 154.396L128.863 154.332C120.274 111.952 63.8072 146.862 63.8072 146.862L63.5778 146.916C61.7885 139.74 59.5125 130.847 59.6218 125.663C59.9165 112.274 72.1312 105.996 73.0112 86.9632C73.6085 74.1605 68.0205 69.3978 66.8272 61.6618C65.7912 54.9258 66.8472 41.4258 66.8472 38.0392V38.0312C66.8472 37.8005 67.1858 37.4245 67.5245 36.9565L67.2298 36.7818Z" fill="#F1F2F2"/>
<path d="M140.739 217.654C140.739 217.654 148.172 221.123 150.264 222.416C152.201 223.61 151.091 228.299 149.824 229.859C148.557 231.419 144.015 233.208 141.637 232.686C139.252 232.163 134.939 227.996 131.213 225.692L131.195 225.198L132.02 225.17C132.02 225.17 138.141 224.711 138.444 218.902C138.472 218.434 138.491 217.819 138.517 217.094L140.757 217.167C140.748 217.488 140.739 217.654 140.739 217.654Z" fill="#BCBEC0"/>
<path d="M116.842 17.061C116.759 17.0237 116.658 17.1157 116.714 17.2077C117.667 18.8877 122.77 28.0557 125.771 36.1223C104.168 36.9197 98.9829 9.50766 98.9829 9.50766L98.9736 9.33433C101.644 9.169 104.324 9.233 106.958 9.59033C106.958 9.59033 108.444 4.80099 112.308 3.369C116.18 1.937 135.232 0.339662 139.995 4.31433C141.602 5.66233 142.703 7.305 143.464 9.113C144.483 15.9317 141.739 31.6703 136.536 30.3863C131.314 29.1103 125.192 17.7863 118.182 17.7677C117.74 17.5103 117.3 17.2717 116.842 17.061Z" fill="#C49661"/>
<path d="M135.086 43.8031C134.315 40.6924 128.23 23.6231 118.182 17.7671C125.192 17.7857 131.314 29.1111 136.535 30.3857C141.739 31.6711 144.483 15.9324 143.464 9.11374C144.96 12.6284 145.162 16.7671 145.355 20.5017C145.658 26.1644 144.015 37.9204 142.675 41.4911C141.134 45.6017 135.903 47.0697 135.086 43.8031Z" fill="#826340"/>
<path d="M148.704 122.983C149.971 134.299 143.868 150.671 143.574 156.03C143.29 161.095 141.004 211.652 140.756 217.167L138.518 217.094C138.912 205.678 139.316 164.536 139.747 158.636C140.206 152.368 147.319 123.534 139.059 100.362L139.408 100.178C143.904 108.759 148.09 117.486 148.704 122.983Z" fill="#BCBEC0"/>
<path d="M78.775 180.018C76.1417 179.44 68.7444 177.43 66.5417 172.649C66.1657 164.436 65.8084 157.865 65.579 156.029C65.3217 153.984 64.5137 150.689 63.5777 146.917L63.807 146.861C63.807 146.861 120.274 111.952 128.863 154.332L128.534 154.396C128.534 154.396 116.631 162.132 103.975 161.838C91.7697 161.545 80.9044 155.286 80.9044 155.286L79.8484 180.212L79.711 180.202C79.711 180.202 79.3617 180.146 78.775 180.018Z" fill="#473023"/>
<path d="M111.519 35.6538C113.988 38.1871 111.353 42.3804 111.188 47.0058C111.013 52.0524 113.124 59.6791 104.747 60.4778C98.8081 61.0378 96.2028 55.9898 95.3948 52.5484C94.3121 47.9511 93.9441 40.0031 98.4601 36.0484C101.883 33.0378 108.288 32.3498 111.519 35.6538Z" fill="#C49661"/>
<path d="M79.8487 180.211L77.93 225.693C74.2047 227.997 69.8913 232.163 67.514 232.686C65.1287 233.209 60.586 231.419 59.3193 229.859C58.4113 228.73 57.5673 225.95 57.9153 224.059L58.1447 224.106C58.1447 224.106 62.734 227.923 69.314 227.006C73.058 226.482 74.6633 223.49 75.122 221.811C75.398 220.811 77.2887 198.198 78.7753 180.018C79.362 180.147 79.7113 180.202 79.7113 180.202L79.8487 180.211Z" fill="#BCBEC0"/>
<path d="M78.775 180.018C77.2884 198.198 75.3977 220.81 75.123 221.81C74.6644 223.49 73.0577 226.482 69.3137 227.005C62.7337 227.922 58.1444 224.105 58.1444 224.105L57.915 224.06C58.0444 223.344 58.347 222.746 58.879 222.417C60.971 221.122 68.4044 217.654 68.4044 217.654C68.4044 217.654 67.4044 191.04 66.5417 172.649C68.7444 177.43 76.1417 179.44 78.775 180.018Z" fill="#F1F2F2"/>
<path d="M66.7163 38.0398C66.4963 41.4265 65.7256 54.9251 66.7616 61.6611C67.955 69.3984 73.6083 74.1611 73.0123 86.9624C72.131 105.996 59.9163 112.273 59.623 125.662C59.5123 130.848 61.7883 139.74 63.5776 146.917C64.5136 150.689 65.3216 153.984 65.579 156.029C65.8083 157.865 66.1656 164.436 66.5416 172.649C67.4043 191.04 68.4056 217.654 68.4056 217.654C68.4056 217.654 60.971 221.122 58.879 222.417C58.347 222.746 58.0443 223.344 57.915 224.06C57.567 225.95 58.411 228.73 59.319 229.86C60.5856 231.42 65.1283 233.209 67.515 232.686C69.8923 232.162 74.2043 227.996 77.931 225.693L79.8483 180.212L80.9043 155.286C80.9043 155.286 91.7696 161.545 103.975 161.838C116.631 162.132 128.534 154.396 128.534 154.396L131.195 225.197L131.212 225.693C134.939 227.996 139.252 232.162 141.638 232.686C144.015 233.209 148.558 231.42 149.824 229.86C151.091 228.3 152.2 223.609 150.264 222.417C148.172 221.122 140.739 217.654 140.739 217.654C140.739 217.654 140.748 217.489 140.758 217.168C141.004 211.652 143.29 161.096 143.575 156.029C143.868 150.67 149.971 134.298 148.704 122.982C148.09 117.486 143.904 108.758 139.408 100.178C134.654 91.1011 129.543 82.1811 127.936 77.4371C124.816 68.2144 128.69 53.3291 127.936 44.3905C127.754 42.1145 126.908 39.1958 125.771 36.1224C122.77 28.0558 117.667 18.8878 116.714 17.2078C116.658 17.1158 116.759 17.0238 116.842 17.0611C117.3 17.2718 117.74 17.5104 118.182 17.7678C128.23 23.6224 134.315 40.6918 135.086 43.8024C135.903 47.0704 141.134 45.6011 142.675 41.4904C144.015 37.9211 145.658 26.1651 145.355 20.5025C145.162 16.7678 144.96 12.6291 143.464 9.11311C142.703 7.30511 141.602 5.66245 139.995 4.31445C135.232 0.33978 116.18 1.93711 112.308 3.36911C108.444 4.79978 106.958 9.59045 106.958 9.59045C104.324 9.23311 101.644 9.16911 98.9736 9.33445C86.7043 10.0958 74.6723 15.8224 68.891 20.8878C68.7723 20.9891 68.6616 21.0891 68.5523 21.1904C68.5523 21.1904 65.4963 17.9051 55.007 20.7318C44.5083 23.5491 37.2216 31.6705 36.175 35.0945C34.4683 40.7198 49.115 57.8078 52.1803 66.1304C54.263 71.7838 60.063 69.1771 59.9896 66.6451C59.935 64.7078 59.9896 45.5104 66.7616 37.2504C66.7616 37.2504 66.7443 37.5264 66.7163 38.0304" stroke="black" stroke-width="1.377" stroke-miterlimit="10" stroke-linejoin="round"/>
<path d="M204.523 50.6465C204.189 50.0878 196.931 40.3758 196.931 40.3758C196.931 40.3758 202.961 33.3425 209.211 33.4545C208.319 40.5998 209.955 44.9905 209.955 44.9905L204.523 50.6465Z" fill="#397EB3"/>
<path d="M198.123 40.4374C199.598 42.4134 203.127 47.1454 204.629 49.2121L208.915 44.7494C208.523 43.4054 207.677 39.7401 208.182 34.4214C203.766 34.9188 199.535 38.9614 198.123 40.4374ZM204.354 52.1481L203.738 51.1214C203.445 50.6534 199.069 44.7694 196.198 40.9254L195.758 40.3361L196.235 39.7788C196.493 39.4788 202.59 32.4188 209.229 32.5374L210.25 32.5548L210.123 33.5694C209.267 40.4094 210.801 44.6281 210.817 44.6694L211.018 45.2094L204.354 52.1481Z" fill="black"/>
<path d="M85.8872 95.3416L87.5579 97.8469C43.2965 113.264 6.65254 126.039 5.13788 126.562C2.54988 127.462 1.16454 124.819 1.24721 122.662L2.01788 122.699C14.1139 121.78 76.0499 98.9842 85.8872 95.3416Z" fill="#3D2B22"/>
<path d="M84.2904 92.9464L85.8877 95.3411C76.0491 98.9851 14.1131 121.781 2.0184 122.698L1.2464 122.661C1.28373 121.597 1.6784 120.652 2.4584 120.304C3.7344 119.753 45.5357 105.83 84.2904 92.9464Z" fill="#5E4234"/>
<path d="M84.2904 92.9464C45.5357 105.83 3.73441 119.753 2.45841 120.304C1.67841 120.652 1.28375 121.597 1.24641 122.661C1.16375 124.818 2.55042 127.461 5.13842 126.562C6.65175 126.038 43.2957 113.265 87.5571 97.8464" stroke="black" stroke-width="1.377" stroke-miterlimit="10"/>
<path d="M247.468 35.9108C250.744 34.7174 250.295 41.4174 245.981 42.7574C244.1 43.3441 179.484 65.8281 117.649 87.3668L117.676 84.7508C119.401 84.1908 200.013 57.7614 203.987 53.3294C204.813 52.4014 206.079 51.4388 207.557 50.5294C211.255 49.1801 214.899 47.8414 218.385 46.5561C218.569 46.5468 218.735 46.5561 218.9 46.5654C228.995 47.2534 244.44 41.1321 245.211 40.7108C248.376 38.9948 248.037 36.0121 248.037 36.0121L247.293 35.9748C247.376 35.9468 247.431 35.9201 247.468 35.9108Z" fill="#3D2B22"/>
<path d="M248.037 36.0117C248.037 36.0117 248.377 38.9943 245.21 40.7103C244.44 41.133 228.994 47.253 218.9 46.565C218.734 46.5557 218.569 46.5463 218.386 46.5557C233.317 41.0863 245.513 36.6263 247.294 35.9743L248.037 36.0117Z" fill="#5E4234"/>
<path d="M207.557 50.5299C206.08 51.4379 204.813 52.4019 203.988 53.3285C200.013 57.7619 119.402 84.1912 117.677 84.7512L117.704 81.8512C136.416 75.6285 149.824 71.1872 149.824 71.1872C149.824 71.1872 150.861 64.6352 151.605 62.2579C152.348 59.8725 158.01 59.1285 157.864 60.4685C157.708 61.8085 156.073 69.3979 156.073 69.3979C156.073 69.3979 182.944 59.5512 207.557 50.5299Z" fill="#5E4234"/>
<path d="M117.649 87.3666C179.484 65.8279 244.1 43.3439 245.981 42.7573C250.294 41.4173 250.744 34.7173 247.468 35.9106C247.432 35.9199 247.376 35.9479 247.293 35.9746C245.513 36.6266 233.317 41.0866 218.386 46.5559C214.898 47.8413 211.256 49.1813 207.557 50.5293C182.944 59.5506 156.073 69.3973 156.073 69.3973C156.073 69.3973 157.707 61.8079 157.863 60.4693C158.011 59.1293 152.348 59.8719 151.604 62.2586C150.861 64.6346 149.824 71.1879 149.824 71.1879C149.824 71.1879 136.416 75.6293 117.704 81.8506" stroke="black" stroke-width="1.377" stroke-miterlimit="10"/>
<path d="M75.8442 54.0888C75.5509 54.0888 75.2789 53.8994 75.1869 53.6061C74.9282 52.7768 74.1482 52.1301 73.1016 51.8714C71.9576 51.5861 70.7709 51.8554 70.0789 52.5474C69.8096 52.8168 69.3749 52.8168 69.1056 52.5474C68.8362 52.2781 68.8362 51.8434 69.1056 51.5741C70.1469 50.5328 71.8029 50.1354 73.4296 50.5354C74.9496 50.9088 76.0976 51.9034 76.5016 53.1954C76.6149 53.5581 76.4122 53.9434 76.0496 54.0568C75.9802 54.0781 75.9122 54.0888 75.8442 54.0888Z" fill="black"/>
<path d="M116.033 51.6325C115.727 51.6325 115.449 51.4271 115.367 51.1178C115.097 50.0831 115.389 48.8205 116.145 47.7405C116.959 46.5765 118.171 45.8405 119.467 45.7191C119.841 45.6725 120.181 45.9618 120.217 46.3405C120.251 46.7178 119.973 47.0538 119.595 47.0898C118.702 47.1738 117.855 47.6978 117.273 48.5298C116.751 49.2725 116.533 50.1311 116.699 50.7698C116.795 51.1378 116.575 51.5138 116.207 51.6098C116.149 51.6245 116.09 51.6325 116.033 51.6325Z" fill="black"/>
<path d="M66.0234 39.566C65.9221 39.566 65.8194 39.55 65.7194 39.514C65.2408 39.346 64.9901 38.822 65.1581 38.3447C65.2021 38.2167 66.3154 35.1967 72.3234 30.7793C72.7328 30.4807 73.3074 30.5687 73.6061 30.9767C73.9061 31.3847 73.8181 31.9593 73.4101 32.2593C67.9421 36.2767 66.8981 38.926 66.8888 38.9527C66.7568 39.33 66.4021 39.566 66.0234 39.566Z" fill="black"/>
<path d="M118.103 18.6877C117.949 18.6877 117.795 18.649 117.651 18.569C113.883 16.4357 111.473 16.2863 111.449 16.2863C110.945 16.2597 110.555 15.8303 110.579 15.3263C110.601 14.821 111.025 14.4517 111.531 14.4517C111.644 14.457 114.357 14.5957 118.556 16.9717C118.996 17.221 119.152 17.781 118.903 18.2223C118.733 18.521 118.423 18.6877 118.103 18.6877Z" fill="black"/>
<path d="M109.365 76.3749C109.395 77.9455 108.982 79.7442 108.269 81.4615C108.051 81.5442 105.385 82.5775 105.054 83.6522C104.775 84.5629 105.333 85.5962 105.561 85.9682C104.443 87.2602 103.173 88.2215 101.89 88.5829C100.391 89.0069 98.5725 88.4695 96.8152 87.4055C96.9072 86.9709 97.0725 85.8135 96.5245 85.0682C95.9152 84.2309 93.4659 84.0869 92.8765 84.0562C92.3699 83.4869 91.9152 82.8869 91.5219 82.2882L91.5738 82.2575C91.5738 82.2575 103.534 86.3095 109.365 76.3749" fill="#36281A"/>
<path d="M109.261 75.1757C109.324 75.5584 109.365 75.961 109.365 76.3744C103.535 86.309 91.5732 82.257 91.5732 82.257L91.5212 82.2877C91.1599 81.7304 90.8492 81.1717 90.6012 80.613L91.0359 80.5517C91.0359 80.5517 98.9239 73.9664 108.641 74.5664L108.889 74.3797C109.085 74.6277 109.209 74.897 109.261 75.1757Z" fill="#473023"/>
<path d="M109.261 75.1757C109.324 75.5584 109.365 75.961 109.365 76.3744C103.535 86.309 91.5732 82.257 91.5732 82.257L91.5212 82.2877C91.1599 81.7304 90.8492 81.1717 90.6012 80.613L91.0359 80.5517C91.0359 80.5517 98.9239 73.9664 108.641 74.5664L108.889 74.3797C109.085 74.6277 109.209 74.897 109.261 75.1757Z" stroke="#473023" stroke-width="0.135" stroke-miterlimit="10"/>
<path d="M108.889 74.3797L108.641 74.5664C98.9236 73.9664 91.0356 80.5517 91.0356 80.5517L90.6022 80.613C90.3542 80.0757 90.1676 79.5384 90.0636 79.0317C89.5062 76.3237 92.9996 73.997 98.3649 72.829C103.058 71.7957 107.576 72.653 108.889 74.3797Z" fill="#705537"/>
<path d="M105.054 83.6525C105.384 82.5778 108.051 81.5432 108.268 81.4605C107.596 83.1152 106.646 84.6965 105.56 85.9685C105.332 85.5965 104.775 84.5618 105.054 83.6525Z" fill="black"/>
<path d="M96.5252 85.0688C97.0732 85.8128 96.9079 86.9714 96.8145 87.4048C95.3985 86.5581 94.0239 85.3688 92.8759 84.0554C93.4652 84.0861 95.9159 84.2314 96.5252 85.0688Z" fill="black"/>
<path d="M90.6017 80.6133C90.3537 80.076 90.167 79.5386 90.0643 79.032C89.5057 76.3226 93.0003 73.9973 98.3657 72.8293C103.059 71.796 107.576 72.6533 108.888 74.38C109.086 74.628 109.21 74.8973 109.262 75.176C109.323 75.5586 109.364 75.9613 109.364 76.3746C109.395 77.9466 108.982 79.7453 108.268 81.4613C107.596 83.1146 106.646 84.6973 105.56 85.968C104.444 87.26 103.172 88.2213 101.89 88.584C100.391 89.008 98.5723 88.4693 96.815 87.4053C95.399 86.5573 94.023 85.3693 92.8763 84.056C92.3697 83.4866 91.915 82.888 91.5217 82.288C91.1603 81.7293 90.8497 81.172 90.6017 80.6133Z" stroke="black" stroke-width="1.551" stroke-miterlimit="10"/>
<path d="M92.1802 83.8534H92.8762C93.4656 83.8534 95.9149 84.1307 96.5256 84.9681C97.0736 85.7121 96.9082 86.9201 96.8149 87.3547C96.7936 87.4681 96.4869 87.4547 96.4869 87.4547" stroke="black" stroke-miterlimit="10"/>
<path d="M105.56 85.9682C105.612 86.0615 105.654 86.1122 105.654 86.1122" stroke="black" stroke-width="1.551" stroke-miterlimit="10"/>
<path d="M108.18 81.1868H108.268C108.052 81.1868 105.384 82.4401 105.054 83.5161C104.775 84.4254 105.283 85.3908 105.511 85.7628" stroke="black" stroke-miterlimit="10"/>
<path d="M90.2957 56.0712C90.2237 56.0712 90.1517 56.0539 90.0877 56.0205C89.641 55.7939 89.1637 55.6525 88.6664 55.6019C88.2837 55.5619 87.877 55.5899 87.4224 55.6845C87.3024 55.7099 87.173 55.6845 87.069 55.6139C86.9664 55.5432 86.897 55.4325 86.8757 55.3085C86.8597 55.2059 86.8464 55.1139 86.8464 55.0179C86.8464 53.9525 87.753 53.0845 88.869 53.0845C89.9837 53.0845 90.8904 53.9525 90.8904 55.0179C90.8904 55.2899 90.8304 55.5552 90.7104 55.8085C90.657 55.9205 90.561 56.0059 90.4437 56.0459C90.3957 56.0632 90.345 56.0712 90.2957 56.0712Z" fill="black"/>
<path d="M209.212 32.3381C211.221 27.3141 222.593 21.3768 224.283 20.1701C226.627 18.4955 227.632 16.0395 228.972 15.1461C230.311 14.2528 232.432 15.9275 232.879 17.3795C234.073 21.2621 235 27.0915 230.423 34.3474C226.765 40.1448 222.273 45.9581 217.027 46.2928C213.899 46.4928 209.956 44.9901 209.956 44.9901C209.956 44.9901 207.203 37.3621 209.212 32.3381" fill="#4C9BD6"/>
<path d="M204.523 50.6464C203.295 48.6371 201.509 45.1758 199.723 40.9344C197.569 35.8171 186.885 30.2171 176.391 29.4358C176.949 33.0078 180.633 44.7304 187.778 50.4238C194.922 56.1171 205.174 51.7118 204.523 50.6464Z" fill="#4C9BD6"/>
<path d="M177.529 30.4618C178.549 34.8845 182.128 44.7472 188.349 49.7058C191.723 52.3938 195.665 52.5658 198.376 52.2392C200.961 51.9272 202.787 51.1218 203.463 50.6618C202.06 48.2845 200.369 44.8338 198.877 41.2912C197.049 36.9498 187.68 31.5672 177.529 30.4618ZM196.368 54.1872C193.376 54.1872 190.069 53.4232 187.207 51.1405C179.364 44.8912 175.917 32.3472 175.484 29.5765C175.441 29.3005 175.527 29.0192 175.717 28.8138C175.905 28.6072 176.183 28.4992 176.459 28.5205C186.927 29.3005 198.192 34.9352 200.569 40.5778C202.127 44.2792 203.899 47.8645 205.307 50.1685C205.431 50.3712 205.764 51.0938 204.868 51.8845C203.811 52.8192 200.371 54.1872 196.368 54.1872" fill="black"/>
<path d="M203.056 51.4834C199.113 51.4834 191.756 49.4634 187.833 46.7461C183.396 43.6754 176.096 30.3314 175.786 29.7647L176.996 29.106C177.069 29.242 184.446 42.7287 188.617 45.6154C192.764 48.4861 201.662 50.7007 204.345 49.982L204.702 51.3114C204.269 51.4274 203.709 51.4834 203.056 51.4834Z" fill="black"/>
<path d="M110.839 89.6956C115.12 85.2489 115.197 78.0329 115.197 78.0329L117.447 81.4582C117.893 82.2769 118.513 83.4662 118.564 84.5836C118.639 86.2209 117.968 86.8169 117.524 87.6676C115.313 91.9036 110.303 98.8729 104.275 99.7662C98.1919 100.668 91.8065 99.7996 87.8639 97.9809C87.3799 97.7569 86.2639 97.8316 85.0732 96.0449C84.4265 95.0756 101.891 98.9876 110.839 89.6956Z" fill="#BCBEC0"/>
<path d="M99.303 101.041C94.9217 101.041 90.6084 100.257 87.479 98.8132C87.4217 98.7892 87.347 98.7732 87.2617 98.7505C86.6297 98.5812 85.4524 98.2678 84.3084 96.5545C83.467 95.2918 83.3764 93.1465 83.4124 92.4278C83.6484 87.7012 83.2124 81.3865 82.1844 79.5198C81.7004 78.6372 80.3337 77.0572 78.751 75.2265C75.1377 71.0518 70.643 65.8532 70.315 62.0372C69.855 56.6612 72.0777 51.3998 72.1724 51.1785L73.8604 51.9012C73.839 51.9505 71.723 56.9718 72.1444 61.8798C72.4204 65.1025 76.8817 70.2612 80.139 74.0265C81.8577 76.0145 83.215 77.5825 83.7937 78.6345C85.151 81.1025 85.459 88.2385 85.2444 92.5185C85.2044 93.3292 85.391 94.8692 85.8364 95.5358C86.595 96.6732 87.227 96.8425 87.7337 96.9772C87.9377 97.0318 88.1097 97.0825 88.247 97.1465C92.299 99.0172 98.5364 99.6878 104.14 98.8585C109.347 98.0865 114.166 92.1185 116.71 87.2425C116.818 87.0385 116.935 86.8465 117.054 86.6545C117.41 86.0785 117.692 85.6238 117.647 84.6252C117.603 83.6598 116.978 82.5132 116.642 81.8985C115.411 79.6398 114.359 77.1865 114.992 74.5452C115.363 72.9985 116.311 70.9172 117.407 68.5105C119.034 64.9372 120.878 60.8878 121.224 57.6918C121.754 52.7892 116.292 48.7492 116.238 48.7092L117.316 47.2238C117.576 47.4132 123.692 51.9212 123.048 57.8892C122.671 61.3798 120.762 65.5718 119.078 69.2705C118.064 71.4958 117.107 73.5972 116.776 74.9745C116.263 77.1132 117.27 79.2158 118.254 81.0198C118.858 82.1265 119.424 83.3212 119.48 84.5425C119.551 86.1078 119.032 86.9465 118.615 87.6198C118.519 87.7745 118.423 87.9278 118.338 88.0918C117.344 89.9958 112.003 99.5492 104.408 100.675C102.742 100.921 101.016 101.041 99.303 101.041Z" fill="black"/>
<path d="M213.392 32.4378C214.567 32.4378 215.518 31.4858 215.518 30.3125C215.518 29.2965 214.804 28.4498 213.852 28.2392C212.87 29.0632 211.998 29.9032 211.308 30.7298C211.503 31.7032 212.362 32.4378 213.392 32.4378Z" fill="white"/>
<path d="M195.634 42.5482C195.634 43.7216 194.682 44.6736 193.509 44.6736C192.334 44.6736 191.382 43.7216 191.382 42.5482C191.382 41.3749 192.334 40.4229 193.509 40.4229C194.682 40.4229 195.634 41.3749 195.634 42.5482Z" fill="white"/>
<path d="M184.363 32.9123C184.363 34.0857 185.315 35.0377 186.488 35.0377C187.508 35.0377 188.358 34.3203 188.564 33.363C187.312 32.8323 185.991 32.3497 184.614 31.931C184.459 32.2257 184.363 32.5563 184.363 32.9123Z" fill="white"/>
<path d="M206.57 40.0246C206.57 41.198 205.618 42.15 204.445 42.15C203.27 42.15 202.318 41.198 202.318 40.0246C202.318 38.8513 203.27 37.8993 204.445 37.8993C205.618 37.8993 206.57 38.8513 206.57 40.0246Z" fill="white"/>
<path d="M272.32 99.1959C272.852 101.059 272.998 102.481 273.026 103.216C272.75 103.344 272.448 103.427 272.126 103.427C270.952 103.427 269.998 102.472 269.998 101.297C269.998 100.123 270.952 99.1679 272.126 99.1679C272.192 99.1679 272.256 99.1866 272.32 99.1959Z" fill="#D1D3D4"/>
<path d="M255.93 92.2764C257.104 92.2764 258.059 93.2217 258.059 94.3964C258.059 95.571 257.104 96.5257 255.93 96.5257C254.755 96.5257 253.8 95.571 253.8 94.3964C253.8 93.2217 254.755 92.2764 255.93 92.2764Z" fill="white"/>
<path d="M252.855 122.405C253.59 122.405 254.232 122.771 254.618 123.341C253.819 124.203 252.782 125.177 251.479 126.139C251.02 125.745 250.726 125.177 250.726 124.534C250.726 123.359 251.68 122.405 252.855 122.405Z" fill="#D1D3D4"/>
<path d="M182.742 90.9457C182.742 89.8257 181.834 88.9084 180.714 88.8897C179.989 89.899 179.346 90.8537 178.787 91.763C179.109 92.4964 179.833 93.011 180.677 93.011C181.815 93.011 182.742 92.0844 182.742 90.9457ZM188.597 129.426C188.597 128.251 187.643 127.296 186.477 127.296C185.302 127.296 184.349 128.251 184.349 129.426C184.349 130.6 185.302 131.554 186.477 131.554C187.643 131.554 188.597 130.6 188.597 129.426ZM208.722 70.775C208.722 70.775 209.402 67.939 206.547 65.3777C200.133 69.3617 193.581 76.739 185.441 89.587C180.669 97.1124 176.897 104.592 177.786 109.804C177.19 110.18 176.795 110.842 176.795 111.603C176.795 112.778 177.741 113.732 178.915 113.732C179.19 113.732 179.466 113.678 179.705 113.576C181.485 115.356 184.522 116.504 189.221 116.77C199.417 117.358 199.481 111.282 200.409 100.856C201.427 100.71 202.207 99.8204 202.207 98.755C202.207 97.8377 201.629 97.067 200.821 96.7644C201.647 89.523 203.363 80.667 208.722 70.775V70.775ZM212.659 61.6524C212.659 60.4777 211.705 59.523 210.53 59.523C209.355 59.523 208.401 60.4777 208.401 61.6524C208.401 62.827 209.355 63.7817 210.53 63.7817C211.705 63.7817 212.659 62.827 212.659 61.6524ZM213.375 113.531C213.375 112.356 212.421 111.411 211.255 111.411C210.081 111.411 209.126 112.356 209.126 113.531C209.126 114.706 210.081 115.659 211.255 115.659C212.421 115.659 213.375 114.706 213.375 113.531ZM218.037 78.795C218.037 77.6204 217.091 76.675 215.917 76.675C214.742 76.675 213.789 77.6204 213.789 78.795C213.789 79.9697 214.742 80.9244 215.917 80.9244C217.091 80.9244 218.037 79.9697 218.037 78.795ZM221.626 52.4484C221.891 52.2097 222.075 51.915 222.194 51.6124C221.139 50.8324 219.983 50.0257 218.817 49.2537C217.937 50.0337 217.845 51.3737 218.625 52.255C219.395 53.1364 220.745 53.219 221.626 52.4484V52.4484ZM230.087 105.032C230.087 103.858 229.133 102.903 227.958 102.903C226.783 102.903 225.838 103.858 225.838 105.032C225.838 106.198 226.783 107.152 227.958 107.152C229.133 107.152 230.087 106.198 230.087 105.032ZM234.786 62.515C234.786 61.3404 233.831 60.3857 232.657 60.3857C231.482 60.3857 230.537 61.3404 230.537 62.515C230.537 63.6897 231.482 64.6444 232.657 64.6444C233.831 64.6444 234.786 63.6897 234.786 62.515ZM235.015 89.3484C235.015 88.1737 234.07 87.2284 232.895 87.2284C231.721 87.2284 230.766 88.1737 230.766 89.3484C230.766 90.523 231.721 91.4777 232.895 91.4777C234.07 91.4777 235.015 90.523 235.015 89.3484V89.3484ZM248.551 107.703C248.551 106.528 247.606 105.583 246.431 105.583C245.257 105.583 244.302 106.528 244.302 107.703C244.302 108.878 245.257 109.832 246.431 109.832C247.606 109.832 248.551 108.878 248.551 107.703ZM216.725 47.5657L217.037 47.0337C221.497 49.6484 226.443 53.751 228.417 55.1097C231.647 57.3484 238.686 57.9644 244.789 62.1684C250.891 66.371 251.634 77.8537 251.634 77.8537H251.617C251.643 77.8537 251.681 77.999 251.707 78.411C251.551 78.3284 251.395 78.0017 251.231 77.9284C250.937 77.7817 250.735 77.3617 250.717 77.031C250.717 77.0044 250.662 76.2524 250.497 75.1604C250.277 75.087 250.038 75.0097 249.799 75.0097C248.625 75.0097 247.67 75.939 247.67 77.1137C247.67 78.2884 248.625 79.235 249.799 79.235C250.634 79.235 251.378 78.735 251.717 78.019C251.91 80.8737 251.863 86.4417 249.799 93.4804C255.149 99.143 257.141 107.558 252.241 116.578C248.698 123.112 238.245 126.774 230.546 126.691C226.113 126.654 222.598 125.378 221.809 122.699C220.166 127.71 213.338 132.912 206.061 132.886C205.713 132.638 205.29 132.499 204.831 132.499C204.491 132.499 204.17 132.572 203.886 132.711C199.646 132.068 195.425 129.48 192.13 123.919C189.533 141.887 173.17 125.451 173.17 125.451L172.491 125.654C170.913 122.598 170.087 119.339 169.949 116.734C169.655 110.778 172.179 102.234 176.841 93.4057C181.778 84.035 199.307 66.6084 202.482 61.267L202.638 61.303C205.491 56.2844 212.09 45.8497 216.725 47.5657" fill="#4C9BD6"/>
<path d="M251.754 77.9326C251.744 77.9606 251.726 77.9873 251.718 78.0153C251.718 77.978 251.708 77.942 251.708 77.9046C251.726 77.914 251.735 77.9233 251.754 77.9326Z" fill="white"/>
<path d="M251.708 77.9051C251.708 77.9424 251.717 77.9784 251.717 78.0157C251.377 78.7317 250.635 79.2264 249.799 79.2264C248.624 79.2264 247.669 78.2717 247.669 77.0971C247.669 75.9224 248.624 74.9771 249.799 74.9771C250.037 74.9771 250.276 75.0237 250.496 75.0971C250.661 76.1891 250.717 76.8771 250.717 76.9051C250.735 77.2357 250.937 77.5291 251.231 77.6757C251.396 77.7491 251.552 77.8224 251.708 77.9051Z" fill="white"/>
<path d="M246.431 105.583C247.606 105.583 248.551 106.529 248.551 107.703C248.551 108.878 247.606 109.833 246.431 109.833C245.257 109.833 244.302 108.878 244.302 107.703C244.302 106.529 245.257 105.583 246.431 105.583Z" fill="white"/>
<path d="M232.895 87.229C234.07 87.229 235.015 88.1743 235.015 89.349C235.015 90.5237 234.07 91.4783 232.895 91.4783C231.72 91.4783 230.766 90.5237 230.766 89.349C230.766 88.1743 231.72 87.229 232.895 87.229Z" fill="white"/>
<path d="M232.656 60.3859C233.831 60.3859 234.786 61.3406 234.786 62.5153C234.786 63.6899 233.831 64.6446 232.656 64.6446C231.482 64.6446 230.536 63.6899 230.536 62.5153C230.536 61.3406 231.482 60.3859 232.656 60.3859Z" fill="white"/>
<path d="M230.536 126.993C231.711 126.993 232.666 127.948 232.666 129.123C232.666 129.811 232.326 130.425 231.812 130.811C230.867 130.728 229.894 130.609 228.894 130.444C228.6 130.077 228.416 129.627 228.416 129.123C228.416 127.948 229.362 126.993 230.536 126.993Z" fill="#D1D3D4"/>
<path d="M227.958 102.903C229.132 102.903 230.087 103.858 230.087 105.033C230.087 106.198 229.132 107.153 227.958 107.153C226.783 107.153 225.838 106.198 225.838 105.033C225.838 103.858 226.783 102.903 227.958 102.903Z" fill="white"/>
<path d="M222.194 51.6128C222.074 51.9155 221.892 52.2088 221.625 52.4475C220.744 53.2181 219.396 53.1355 218.624 52.2555C217.844 51.3741 217.936 50.0341 218.817 49.2541C219.982 50.0248 221.138 50.8328 222.194 51.6128Z" fill="white"/>
<path d="M215.917 76.6753C217.092 76.6753 218.037 77.6206 218.037 78.7953C218.037 79.97 217.092 80.9246 215.917 80.9246C214.743 80.9246 213.788 79.97 213.788 78.7953C213.788 77.6206 214.743 76.6753 215.917 76.6753Z" fill="white"/>
<path d="M217.037 47.0333L216.725 47.5653C212.09 45.8493 205.492 56.2839 202.638 61.3039L202.482 61.2666C202.749 60.8079 202.913 60.4413 202.96 60.1746C203.556 56.7519 203.409 55.8893 203.776 53.9253C204.153 51.9519 205.978 46.7399 209.953 44.9866C211.513 44.3079 214.174 45.3626 217.037 47.0333Z" fill="#397EB3"/>
<path d="M211.255 111.411C212.421 111.411 213.375 112.356 213.375 113.531C213.375 114.705 212.421 115.66 211.255 115.66C210.081 115.66 209.126 114.705 209.126 113.531C209.126 112.356 210.081 111.411 211.255 111.411Z" fill="white"/>
<path d="M210.53 59.5234C211.705 59.5234 212.66 60.4781 212.66 61.6527C212.66 62.8274 211.705 63.7821 210.53 63.7821C209.356 63.7821 208.401 62.8274 208.401 61.6527C208.401 60.4781 209.356 59.5234 210.53 59.5234Z" fill="white"/>
<path d="M199.628 78.7953C199.628 77.6206 198.673 76.6753 197.499 76.6753C196.324 76.6753 195.379 77.6206 195.379 78.7953C195.379 79.97 196.324 80.9246 197.499 80.9246C198.673 80.9246 199.628 79.97 199.628 78.7953ZM206.548 65.378C209.401 67.9393 208.723 70.774 208.723 70.774C203.363 80.6673 201.647 89.5233 200.821 96.7646C200.592 96.682 200.344 96.6353 200.087 96.6353C198.912 96.6353 197.957 97.5806 197.957 98.7553C197.957 99.93 198.912 100.885 200.087 100.885C200.197 100.885 200.297 100.875 200.408 100.857C199.481 111.282 199.417 117.358 189.221 116.77C184.523 116.503 181.485 115.357 179.704 113.577C180.493 113.265 181.044 112.503 181.044 111.603C181.044 110.429 180.089 109.483 178.915 109.483C178.503 109.483 178.117 109.603 177.787 109.805C176.896 104.593 180.668 97.1126 185.44 89.5873C193.58 76.7393 200.133 69.3606 206.548 65.378" fill="#67AFE6"/>
<path d="M199.628 78.7953C199.628 77.6206 198.673 76.6753 197.499 76.6753C196.324 76.6753 195.379 77.6206 195.379 78.7953C195.379 79.97 196.324 80.9246 197.499 80.9246C198.673 80.9246 199.628 79.97 199.628 78.7953ZM206.548 65.378C209.401 67.9393 208.723 70.774 208.723 70.774C203.363 80.6673 201.647 89.5233 200.821 96.7646C200.592 96.682 200.344 96.6353 200.087 96.6353C198.912 96.6353 197.957 97.5806 197.957 98.7553C197.957 99.93 198.912 100.885 200.087 100.885C200.197 100.885 200.297 100.875 200.408 100.857C199.481 111.282 199.417 117.358 189.221 116.77C184.523 116.503 181.485 115.357 179.704 113.577C180.493 113.265 181.044 112.503 181.044 111.603C181.044 110.429 180.089 109.483 178.915 109.483C178.503 109.483 178.117 109.603 177.787 109.805C176.896 104.593 180.668 97.1126 185.44 89.5873C193.58 76.7393 200.133 69.3606 206.548 65.378V65.378Z" stroke="#67AFE6" stroke-width="0.135" stroke-miterlimit="10"/>
<path d="M206.951 134.555C206.951 134.895 206.859 135.215 206.703 135.501C205.465 135.418 204.318 135.262 203.307 135.069C203.115 135.042 202.931 135.005 202.749 134.969C202.721 134.83 202.702 134.693 202.702 134.555C202.702 133.747 203.189 133.05 203.886 132.71C204.611 132.83 205.337 132.885 206.061 132.885C206.602 133.253 206.951 133.867 206.951 134.555Z" fill="#D1D3D4"/>
<path d="M204.831 132.5C205.29 132.5 205.713 132.637 206.061 132.885C205.337 132.885 204.611 132.83 203.886 132.71C204.17 132.573 204.491 132.5 204.831 132.5Z" fill="#D1D3D4"/>
<path d="M269.998 101.297C269.998 100.123 270.953 99.1681 272.127 99.1681C272.191 99.1681 272.255 99.1867 272.319 99.1961C272.851 101.059 272.999 102.481 273.026 103.215C272.751 103.344 272.449 103.427 272.127 103.427C270.953 103.427 269.998 102.472 269.998 101.297ZM255.93 96.5254C254.754 96.5254 253.801 95.5707 253.801 94.3961C253.801 93.2214 254.754 92.2761 255.93 92.2761C257.105 92.2761 258.058 93.2214 258.058 94.3961C258.058 95.5707 257.105 96.5254 255.93 96.5254ZM251.478 126.14C251.019 125.745 250.726 125.176 250.726 124.533C250.726 123.359 251.681 122.405 252.855 122.405C253.589 122.405 254.231 122.772 254.617 123.34C253.818 124.204 252.782 125.176 251.478 126.14V126.14ZM231.811 130.811C230.867 130.728 229.894 130.609 228.894 130.444C228.601 130.076 228.417 129.627 228.417 129.123C228.417 127.948 229.362 126.993 230.537 126.993C231.711 126.993 232.666 127.948 232.666 129.123C232.666 129.811 232.326 130.425 231.811 130.811V130.811ZM251.634 78.5201H251.617C251.643 78.5201 251.681 78.3321 251.709 78.7454C251.726 78.7534 251.735 78.3427 251.754 78.3521C251.745 78.3801 251.726 78.1974 251.717 78.2254C251.91 81.0787 251.863 86.5441 249.799 93.5841C255.149 99.2454 257.141 107.609 252.241 116.629C248.698 123.164 238.245 126.799 230.546 126.717C226.113 126.68 222.598 125.391 221.809 122.712C220.166 127.723 213.338 132.919 206.061 132.892C206.602 133.259 206.951 133.871 206.951 134.559C206.951 134.899 206.859 135.217 206.703 135.503C205.465 135.42 204.318 135.263 203.307 135.069C203.115 135.043 202.931 135.005 202.749 134.968C202.721 134.831 202.702 134.693 202.702 134.555C202.702 133.748 203.189 133.051 203.886 132.711C199.646 132.068 195.425 129.48 192.13 123.919C189.533 141.888 173.17 125.452 173.17 125.452L172.491 125.653C174.529 129.581 177.823 133.179 182.513 134.601C190.846 137.125 197.426 134.299 197.426 134.299C197.426 134.299 199.554 135.4 203.125 136.079C208.549 137.133 217.294 137.216 226.911 131.023C227.535 131.151 228.15 131.26 228.747 131.352C250.386 134.849 257.581 120.9 257.581 120.9C272.917 119.56 273.953 106.671 273.953 104.477C273.962 102.284 272.953 87.8534 251.634 78.5201" fill="#397EB3"/>
<path d="M269.998 101.297C269.998 100.123 270.953 99.1681 272.127 99.1681C272.191 99.1681 272.255 99.1867 272.319 99.1961C272.851 101.059 272.999 102.481 273.026 103.215C272.751 103.344 272.449 103.427 272.127 103.427C270.953 103.427 269.998 102.472 269.998 101.297ZM255.93 96.5254C254.754 96.5254 253.801 95.5707 253.801 94.3961C253.801 93.2214 254.754 92.2761 255.93 92.2761C257.105 92.2761 258.058 93.2214 258.058 94.3961C258.058 95.5707 257.105 96.5254 255.93 96.5254ZM251.478 126.14C251.019 125.745 250.726 125.176 250.726 124.533C250.726 123.359 251.681 122.405 252.855 122.405C253.589 122.405 254.231 122.772 254.617 123.34C253.818 124.204 252.782 125.176 251.478 126.14V126.14ZM231.811 130.811C230.867 130.728 229.894 130.609 228.894 130.444C228.601 130.076 228.417 129.627 228.417 129.123C228.417 127.948 229.362 126.993 230.537 126.993C231.711 126.993 232.666 127.948 232.666 129.123C232.666 129.811 232.326 130.425 231.811 130.811ZM251.634 78.5201H251.617C251.643 78.5201 251.681 78.3321 251.709 78.7454C251.726 78.7534 251.735 78.3427 251.754 78.3521C251.745 78.3801 251.726 78.1974 251.717 78.2254C251.91 81.0787 251.863 86.5441 249.799 93.5841C255.149 99.2454 257.141 107.609 252.241 116.629C248.698 123.164 238.245 126.799 230.546 126.717C226.113 126.68 222.598 125.391 221.809 122.712C220.166 127.723 213.338 132.919 206.061 132.892C206.602 133.259 206.951 133.871 206.951 134.559C206.951 134.899 206.859 135.217 206.703 135.503C205.465 135.42 204.318 135.263 203.307 135.069C203.115 135.043 202.931 135.005 202.749 134.968C202.721 134.831 202.702 134.693 202.702 134.555C202.702 133.748 203.189 133.051 203.886 132.711C199.646 132.068 195.425 129.48 192.13 123.919C189.533 141.888 173.17 125.452 173.17 125.452L172.491 125.653C174.529 129.581 177.823 133.179 182.513 134.601C190.846 137.125 197.426 134.299 197.426 134.299C197.426 134.299 199.554 135.4 203.125 136.079C208.549 137.133 217.294 137.216 226.911 131.023C227.535 131.151 228.15 131.26 228.747 131.352C250.386 134.849 257.581 120.9 257.581 120.9C272.917 119.56 273.953 106.671 273.953 104.477C273.962 102.284 272.953 87.8534 251.634 78.5201V78.5201Z" stroke="#397EB3" stroke-miterlimit="10"/>
<path d="M200.821 96.764C201.629 97.0667 202.206 97.8373 202.206 98.756C202.206 99.82 201.426 100.711 200.408 100.857C200.528 99.5627 200.656 98.196 200.821 96.764Z" fill="white"/>
<path d="M200.821 96.764C200.656 98.196 200.528 99.5627 200.408 100.857C200.298 100.875 200.197 100.884 200.086 100.884C198.912 100.884 197.958 99.9307 197.958 98.756C197.958 97.5814 198.912 96.636 200.086 96.636C200.344 96.636 200.592 96.6814 200.821 96.764Z" fill="white"/>
<path d="M197.499 76.6753C198.674 76.6753 199.628 77.6206 199.628 78.7953C199.628 79.97 198.674 80.9246 197.499 80.9246C196.324 80.9246 195.379 79.97 195.379 78.7953C195.379 77.6206 196.324 76.6753 197.499 76.6753Z" fill="white"/>
<path d="M186.477 127.296C187.643 127.296 188.597 128.251 188.597 129.426C188.597 130.6 187.643 131.555 186.477 131.555C185.303 131.555 184.348 130.6 184.348 129.426C184.348 128.251 185.303 127.296 186.477 127.296Z" fill="#E6E7E8"/>
<path d="M180.714 88.8902C181.834 88.9088 182.742 89.8262 182.742 90.9462C182.742 92.0835 181.815 93.0102 180.678 93.0102C179.833 93.0102 179.109 92.4968 178.787 91.7622C179.346 90.8542 179.989 89.8995 180.714 88.8902Z" fill="white"/>
<path d="M178.915 109.483C180.09 109.483 181.045 110.429 181.045 111.603C181.045 112.503 180.494 113.265 179.705 113.577C178.649 112.53 178.043 111.254 177.786 109.805C178.117 109.603 178.502 109.483 178.915 109.483Z" fill="white"/>
<path d="M179.704 113.576C179.466 113.678 179.191 113.732 178.915 113.732C177.74 113.732 176.795 112.778 176.795 111.603C176.795 110.842 177.19 110.18 177.787 109.804C178.043 111.255 178.65 112.53 179.704 113.576Z" fill="white"/>
<path d="M202.482 61.267C199.306 66.6084 181.778 84.035 176.841 93.4057C172.179 102.234 169.655 110.778 169.949 116.734C170.087 119.34 170.913 122.598 172.491 125.654C174.529 129.582 177.823 133.179 182.513 134.602C190.846 137.124 197.425 134.298 197.425 134.298C197.425 134.298 199.554 135.399 203.125 136.079C208.547 137.134 217.294 137.216 226.911 131.022C227.535 131.151 228.15 131.26 228.747 131.352C250.386 134.848 257.581 120.9 257.581 120.9C272.917 119.56 273.953 105.831 273.953 103.638C273.962 101.444 272.953 87.0723 251.634 76.8404C251.634 76.8404 250.891 65.8644 244.789 61.6617C238.686 57.459 231.647 57.3484 228.417 55.1097C226.443 53.751 221.497 49.6484 217.037 47.0337C214.174 45.363 211.513 44.3084 209.953 44.987C205.978 46.739 204.153 51.9524 203.775 53.9257C203.409 55.8897 203.555 56.7524 202.959 60.175C202.913 60.4404 202.749 60.8084 202.482 61.267Z" stroke="black" stroke-width="1.377" stroke-miterlimit="10" stroke-linejoin="round"/>
<path d="M197.425 134.988C197.329 134.988 197.232 134.968 197.14 134.925C191.404 132.313 189.269 121.985 190.685 116.561C190.781 116.193 191.154 115.976 191.524 116.069C191.892 116.165 192.113 116.541 192.017 116.909C190.741 121.796 192.83 131.45 197.71 133.673C198.057 133.83 198.209 134.238 198.052 134.584C197.936 134.838 197.686 134.988 197.425 134.988Z" fill="black"/>
<path d="M226.911 131.713C226.834 131.713 226.755 131.7 226.678 131.672C220.37 129.392 221.135 122.308 221.143 122.236C221.187 121.86 221.521 121.588 221.906 121.634C222.283 121.678 222.554 122.02 222.51 122.397C222.482 122.644 221.875 128.472 227.145 130.377C227.503 130.506 227.687 130.901 227.558 131.258C227.457 131.54 227.193 131.713 226.911 131.713Z" fill="black"/>
<path d="M257.58 121.591C257.474 121.591 257.366 121.566 257.266 121.515C256.928 121.341 256.794 120.926 256.969 120.589C257.536 119.486 257.918 118.205 258.325 116.849C259.185 113.975 260.161 110.717 263.232 107.962C263.513 107.707 263.949 107.73 264.202 108.014C264.457 108.298 264.433 108.733 264.15 108.986C261.368 111.483 260.492 114.411 259.644 117.243C259.218 118.662 258.817 120.002 258.193 121.218C258.07 121.454 257.83 121.591 257.58 121.591Z" fill="black"/>
<path d="M249.625 94.0915C249.555 94.0915 249.483 94.0809 249.414 94.0582C249.051 93.9422 248.853 93.5542 248.97 93.1915C251.142 86.4595 250.946 76.9542 250.943 76.8595C250.935 76.4795 251.235 76.1635 251.617 76.1555C251.969 76.1489 252.311 76.4475 252.321 76.8275C252.33 77.2249 252.522 86.6622 250.281 93.6142C250.186 93.9062 249.915 94.0915 249.625 94.0915Z" fill="black"/>
<path d="M202.626 61.8285C202.455 61.8285 202.283 61.7645 202.15 61.6379C201.877 61.3752 201.866 60.9392 202.129 60.6645C202.154 60.6379 204.705 57.9379 208.733 51.1872C208.927 50.8605 209.349 50.7539 209.677 50.9485C210.003 51.1432 210.11 51.5659 209.914 51.8925C205.791 58.8019 203.23 61.5045 203.123 61.6165C202.989 61.7579 202.807 61.8285 202.626 61.8285Z" fill="black"/>
<path d="M179.048 35.3735C180.828 40.1469 183.914 46.1695 188.35 49.7055C191.723 52.3935 195.667 52.5682 198.376 52.2389C199.784 52.0682 200.956 51.7522 201.851 51.4255C197.752 51.0922 191.386 49.2069 187.832 46.7455C185.227 44.9415 181.634 39.5949 179.048 35.3735Z" fill="#397EB3"/>
<path d="M216.16 36.6452C218.705 34.9719 221.583 33.8225 224.013 31.9852C229.044 28.1852 231.603 22.2412 230.408 16.0492C232.16 16.9119 233.073 19.0492 233.544 20.9439C234.312 24.0359 234.065 26.2772 233.003 29.2799C231.939 32.2839 230.228 35.0172 228.333 37.5785C226.319 40.3012 223.983 42.9372 220.903 44.3479C218.484 45.4559 212.86 46.7372 210.868 44.3452C209.015 42.1185 214.56 37.6972 216.16 36.6452Z" fill="#397EB3"/>
<path d="M210.685 44.2753C211.734 44.6327 214.637 45.53 216.968 45.3767C221.968 45.058 226.37 39.0527 229.646 33.858C234.07 26.8447 233.11 21.2487 232.002 17.6487C231.79 16.962 230.992 16.1593 230.256 15.898C229.93 15.782 229.668 15.7873 229.481 15.91C229.021 16.2167 228.542 16.85 227.989 17.5847C227.212 18.614 226.245 19.8967 224.817 20.9167C224.474 21.162 223.834 21.5447 222.949 22.074C219.549 24.1073 211.589 28.87 210.065 32.678C208.458 36.694 210.173 42.6767 210.685 44.2753ZM216.434 47.2287C213.292 47.2287 209.788 45.9087 209.629 45.8487C209.38 45.7527 209.184 45.5527 209.093 45.302C208.976 44.9767 206.245 37.2833 208.361 31.998C210.114 27.6127 218.146 22.8073 222.008 20.498C222.824 20.01 223.469 19.6247 223.75 19.4233C224.949 18.5673 225.786 17.458 226.524 16.4793C227.178 15.6113 227.744 14.862 228.462 14.382C229.137 13.9313 229.992 13.8567 230.872 14.1687C232.16 14.6287 233.373 15.8633 233.757 17.1073C234.97 21.0553 236.026 27.186 231.198 34.8367C227.689 40.4007 222.914 46.8353 217.085 47.2087C216.872 47.222 216.654 47.2287 216.434 47.2287Z" fill="black"/>
<path d="M230.539 27.8806C229.365 27.8806 228.413 28.8326 228.413 30.006C228.413 31.1806 229.365 32.1326 230.539 32.1326C230.573 32.1326 230.605 32.1233 230.64 32.122C231.283 30.898 231.768 29.7206 232.119 28.5953C231.729 28.1606 231.169 27.8806 230.539 27.8806Z" fill="#D1D3D4"/>
<path d="M220.138 41.3403C218.965 41.3403 218.013 42.2923 218.013 43.4657C218.013 44.0883 218.285 44.643 218.71 45.031C219.925 44.639 221.097 43.9403 222.219 43.0337C222.019 42.067 221.163 41.3403 220.138 41.3403Z" fill="#D1D3D4"/>
<path d="M209.957 45.678C209.918 45.678 209.88 45.674 209.84 45.6673C209.466 45.6033 209.214 45.25 209.278 44.8753C209.326 44.5926 210.549 37.8926 219.082 33.946C226.522 30.5046 230.032 25.2113 229.513 18.21C229.485 17.8313 229.769 17.502 230.149 17.4726C230.509 17.4513 230.857 17.7286 230.886 18.11C231.45 25.7406 227.674 31.4886 219.66 35.1953C211.817 38.8233 210.645 45.0446 210.634 45.1073C210.576 45.4406 210.285 45.678 209.957 45.678Z" fill="black"/>
<path d="M63.4911 226.38C63.4911 226.38 63.2351 226.483 62.8951 226.701C62.5524 226.915 62.1337 227.249 61.7897 227.633C61.4417 228.015 61.1791 228.444 61.0257 228.776C60.9431 228.939 60.8924 229.083 60.8564 229.181C60.8191 229.28 60.7991 229.336 60.7991 229.336L60.7884 229.364C60.6537 229.725 60.2524 229.909 59.8911 229.775C59.5297 229.64 59.3457 229.239 59.4804 228.877C59.5057 228.808 59.5431 228.743 59.5871 228.687C59.5871 228.687 59.6351 228.627 59.7191 228.52C59.8017 228.415 59.9191 228.264 60.0817 228.101C60.3924 227.769 60.8564 227.38 61.3631 227.095C61.8684 226.803 62.4031 226.604 62.8097 226.504C63.2164 226.399 63.4911 226.38 63.4911 226.38Z" fill="black"/>
<path d="M67.6616 228.736C67.6616 228.736 67.4429 228.905 67.1749 229.206C66.9029 229.504 66.5896 229.94 66.3643 230.402C66.1323 230.864 65.9949 231.349 65.9363 231.71C65.9016 231.889 65.8923 232.041 65.8843 232.146C65.8749 232.25 65.8709 232.31 65.8709 232.31L65.8683 232.34C65.8363 232.725 65.4989 233.01 65.1149 232.978C64.7309 232.948 64.4456 232.61 64.4763 232.226C64.4829 232.152 64.5016 232.08 64.5283 232.014C64.5283 232.014 64.5576 231.942 64.6096 231.818C64.6616 231.693 64.7336 231.517 64.8456 231.317C65.0549 230.912 65.3963 230.413 65.8069 230C66.2136 229.582 66.6749 229.246 67.0403 229.04C67.4016 228.828 67.6616 228.736 67.6616 228.736Z" fill="black"/>
<path d="M37.7954 215.368C37.7954 215.368 37.5394 215.47 37.1994 215.689C36.8567 215.902 36.438 216.237 36.094 216.621C35.746 217.002 35.4834 217.432 35.33 217.764C35.246 217.926 35.1967 218.07 35.1607 218.169C35.1234 218.268 35.1034 218.324 35.1034 218.324L35.0927 218.352C34.958 218.713 34.5554 218.897 34.194 218.762C33.834 218.628 33.65 218.226 33.7834 217.865C33.81 217.796 33.8474 217.73 33.8914 217.674C33.8914 217.674 33.9394 217.614 34.0234 217.508C34.106 217.402 34.2234 217.252 34.386 217.089C34.6967 216.757 35.1607 216.368 35.6674 216.082C36.1727 215.79 36.7074 215.592 37.114 215.492C37.5207 215.386 37.7954 215.368 37.7954 215.368Z" fill="black"/>
<path d="M41.0138 217.699C41.0138 217.699 40.7991 217.872 40.5364 218.179C40.2698 218.483 39.9658 218.924 39.7498 219.391C39.5271 219.858 39.3991 220.344 39.3484 220.707C39.3164 220.887 39.3098 221.039 39.3044 221.144C39.2978 221.248 39.2938 221.308 39.2938 221.308L39.2924 221.339C39.2684 221.723 38.9378 222.016 38.5524 221.992C38.1671 221.968 37.8751 221.636 37.8991 221.252C37.9031 221.178 37.9204 221.104 37.9458 221.039C37.9458 221.039 37.9751 220.967 38.0244 220.842C38.0724 220.716 38.1418 220.538 38.2498 220.335C38.4511 219.927 38.7831 219.42 39.1844 218.999C39.5831 218.574 40.0378 218.23 40.3978 218.015C40.7564 217.796 41.0138 217.699 41.0138 217.699Z" fill="black"/>
<path d="M142.786 228.216C142.786 228.216 143.061 228.234 143.468 228.34C143.874 228.44 144.409 228.638 144.914 228.93C145.421 229.216 145.885 229.605 146.196 229.937C146.358 230.1 146.476 230.25 146.558 230.356C146.642 230.462 146.69 230.522 146.69 230.522C146.93 230.825 146.878 231.264 146.577 231.504C146.274 231.742 145.836 231.692 145.596 231.389C145.55 231.332 145.514 231.268 145.49 231.202L145.478 231.17C145.478 231.17 145.457 231.116 145.421 231.017C145.385 230.918 145.336 230.774 145.252 230.612C145.098 230.28 144.836 229.85 144.488 229.469C144.144 229.085 143.725 228.75 143.382 228.537C143.042 228.32 142.786 228.216 142.786 228.216Z" fill="black"/>
<path d="M146.25 225.928C146.25 225.928 146.54 225.887 146.986 225.911C147.431 225.927 148.028 226.022 148.616 226.216C149.204 226.404 149.768 226.703 150.164 226.974C150.368 227.103 150.524 227.23 150.635 227.318C150.746 227.407 150.81 227.458 150.81 227.458C151.126 227.71 151.178 228.17 150.926 228.486C150.675 228.802 150.215 228.854 149.899 228.602C149.839 228.554 149.788 228.499 149.747 228.439L149.728 228.411C149.728 228.411 149.692 228.356 149.63 228.263C149.567 228.168 149.48 228.03 149.354 227.879C149.114 227.568 148.74 227.18 148.294 226.86C147.851 226.536 147.343 226.276 146.94 226.131C146.539 225.979 146.25 225.928 146.25 225.928Z" fill="black"/>
<path d="M173.071 217.203C173.071 217.203 173.346 217.222 173.752 217.327C174.159 217.427 174.694 217.626 175.199 217.918C175.706 218.203 176.17 218.592 176.48 218.924C176.643 219.087 176.76 219.238 176.843 219.343C176.927 219.45 176.975 219.51 176.975 219.51C177.215 219.812 177.163 220.251 176.862 220.491C176.559 220.73 176.12 220.679 175.88 220.376C175.835 220.319 175.799 220.255 175.775 220.19L175.763 220.159C175.763 220.159 175.743 220.103 175.706 220.004C175.67 219.906 175.619 219.762 175.536 219.599C175.383 219.267 175.12 218.838 174.772 218.456C174.428 218.072 174.01 217.738 173.667 217.524C173.327 217.307 173.071 217.203 173.071 217.203Z" fill="black"/>
<path d="M175.55 213.981C175.55 213.981 175.82 213.931 176.24 213.933C176.659 213.929 177.227 213.988 177.788 214.147C178.35 214.299 178.895 214.56 179.279 214.805C179.476 214.923 179.628 215.04 179.734 215.121C179.842 215.204 179.903 215.251 179.903 215.251C180.21 215.484 180.27 215.921 180.036 216.228C179.803 216.535 179.364 216.595 179.058 216.361C178.999 216.316 178.948 216.264 178.908 216.207L178.89 216.179C178.89 216.179 178.855 216.129 178.796 216.044C178.736 215.956 178.652 215.829 178.532 215.692C178.3 215.408 177.939 215.057 177.508 214.775C177.08 214.487 176.592 214.267 176.207 214.145C175.823 214.019 175.55 213.981 175.55 213.981Z" fill="black"/>
<path d="M50.4683 23.1678C56.1629 20.6531 64.2683 19.5024 67.5496 21.5438C61.7363 23.1078 56.6656 24.6771 51.7843 28.5118C46.9043 32.3451 39.1243 42.0958 39.1243 42.0958C39.1243 42.0958 36.6629 38.4598 36.8976 35.8064C37.0669 33.8944 39.1936 32.0558 40.3043 30.7571C43.0749 27.5171 46.5669 24.8918 50.4683 23.1678Z" fill="#6E4A36"/>
<path d="M112.13 4.41922C114.441 3.36055 117.314 3.15788 119.849 2.96322C123.111 2.71122 126.387 2.47388 129.655 2.64188C132.925 2.81122 137.167 3.57522 138.725 4.58588C137.65 4.14055 126.803 4.61655 123.377 5.18588C113.482 6.83122 108.701 9.45388 107.809 10.0392C107.955 9.34988 109.051 7.07388 109.403 6.66322C110.222 5.71255 110.991 4.94055 112.13 4.41922Z" fill="#DEA96E"/>
<path d="M104.522 52.9643C104.46 53.0016 104.39 53.0243 104.316 53.0283C103.818 53.0643 103.336 53.1896 102.884 53.403C102.535 53.5656 102.2 53.799 101.86 54.1136C101.771 54.199 101.647 54.243 101.522 54.2363C101.396 54.2283 101.28 54.1696 101.199 54.075C101.131 53.995 101.072 53.923 101.023 53.8403C100.474 52.927 100.803 51.7163 101.759 51.1416C102.714 50.567 103.939 50.8416 104.488 51.755C104.628 51.9883 104.714 52.247 104.742 52.5256C104.754 52.6483 104.716 52.7723 104.636 52.867C104.603 52.9056 104.564 52.939 104.522 52.9643Z" fill="black"/>
</svg>
