<svg width="159" height="200" viewBox="0 0 159 200" fill="none" xmlns="http://www.w3.org/2000/svg">
<path d="M148.247 141.003C148.247 141.003 155.392 141.767 157.047 133.991C157.523 135.189 157.684 136.579 157.348 138.135C156.374 142.713 151.255 144.235 151.255 144.235C151.255 144.235 150.876 145.329 150.315 146.059C149.312 145.147 146.795 144.761 146.795 144.761C146.795 144.761 147.952 146.192 147.75 147.404C145.394 146.332 140.114 149.284 138.5 151.479C137.736 149.241 137.442 146.816 137.498 145.616C137.532 144.936 137.743 144.228 137.988 143.619C141.902 144.368 146.283 143.253 148.247 141.003Z" fill="#272C3D"/>
<path d="M157.047 133.991C155.392 141.767 148.247 141.003 148.247 141.003C150.252 138.703 150.589 136.143 150.069 135.133C149.559 134.124 148.808 132.96 145.127 131.893C148.001 129.825 150.827 132.433 150.827 132.433C150.827 132.433 150.953 130.835 149.011 129.055C151.459 128.584 155.644 130.443 157.047 133.991Z" fill="#414C6B"/>
<path d="M157.047 133.991C155.392 141.767 148.247 141.003 148.247 141.003C150.252 138.703 150.589 136.143 150.069 135.133C149.559 134.124 148.808 132.96 145.127 131.893C148.001 129.825 150.827 132.433 150.827 132.433C150.827 132.433 150.953 130.835 149.011 129.055C151.459 128.584 155.644 130.443 157.047 133.991Z" stroke="#414C6B" stroke-width="0.539" stroke-miterlimit="10" stroke-linecap="round" stroke-linejoin="round"/>
<path d="M138.213 151.948C138.29 151.801 138.389 151.64 138.501 151.479C140.113 149.284 145.393 146.332 147.749 147.404C147.953 146.191 146.796 144.761 146.796 144.761C146.796 144.761 149.313 145.147 150.316 146.059C150.877 145.329 151.256 144.235 151.256 144.235C151.256 144.235 156.374 142.713 157.349 138.135C157.685 136.579 157.524 135.189 157.046 133.991C155.645 130.443 151.458 128.584 149.012 129.055C150.953 130.836 150.828 132.435 150.828 132.435C150.828 132.435 148.001 129.825 145.126 131.895C148.808 132.96 149.558 134.124 150.07 135.133C150.589 136.143 150.253 138.703 148.248 141.003C146.284 143.253 141.901 144.368 137.989 143.617C137.897 143.604 137.806 143.589 137.716 143.569" stroke="black" stroke-width="0.75" stroke-miterlimit="10" stroke-linecap="round" stroke-linejoin="round"/>
<path d="M39.5984 188.536C41.1557 188.725 43.6584 190.386 45.0397 191.389C45.3064 191.578 45.145 192.049 44.8224 191.978C40.6637 191.074 35.749 192.062 34.5784 192.329C35.7704 190.5 37.957 189.553 39.5984 188.536Z" fill="#EDBB8E"/>
<path d="M59.6523 173.068C54.8069 181.524 51.2243 191.012 49.5416 192.841C46.7363 195.877 34.3536 192.841 34.3536 192.841L34.2976 192.813C34.3816 192.638 34.4723 192.484 34.5776 192.329C35.7496 192.062 40.6643 191.074 44.8229 191.978C45.1443 192.049 45.3056 191.578 45.0389 191.39C43.6589 190.388 41.1549 188.725 39.5989 188.536C40.4749 187.989 41.1896 187.428 41.5269 186.698C42.5709 184.392 44.8296 172.822 45.2923 170.396C47.1643 170.382 48.5389 169.408 50.0176 168.25C50.1509 168.152 50.3483 168.25 50.3403 168.412C50.2989 169.134 50.1589 169.856 49.9123 170.537C49.8563 170.705 50.0176 170.86 50.1723 170.789C51.8056 170.038 53.2989 169.008 54.5683 167.745C54.6736 167.641 54.8416 167.676 54.8843 167.816C55.7883 170.382 56.7709 172.921 57.8296 175.424C57.8923 175.578 58.1096 175.578 58.1803 175.43C58.5869 174.596 59.0776 173.797 59.6523 173.068Z" fill="#D6A980"/>
<path d="M60.7672 172.03C61.4752 172.486 62.0432 173.145 62.4005 173.909L62.4285 173.923C59.6525 179.785 57.2752 185.949 57.2752 185.949C57.2752 185.949 58.0259 189.034 57.6885 191.285C56.2659 189.946 55.2632 190.282 55.2632 190.282C55.2632 190.282 56.4339 192.365 56.5179 194.615C54.5965 193.697 52.9205 194.279 52.9205 194.279L54.5965 196.614C51.4139 199.951 41.5272 198.865 41.5272 198.865L41.1965 197.279C41.1965 197.279 39.4365 198.45 37.9299 198.535C37.9299 198.535 38.0139 197.363 38.0979 195.947C37.6005 196.369 35.7552 197.617 35.7552 197.617C35.7552 197.617 34.0805 196.283 33.7499 194.615C33.8352 193.935 34.0245 193.339 34.2979 192.813L34.3539 192.841C34.3539 192.841 46.7365 195.877 49.5419 192.841C51.2245 191.011 54.8072 181.525 59.6525 173.067C59.9192 172.717 60.2059 172.381 60.5152 172.065C60.5779 171.995 60.6899 171.981 60.7672 172.03Z" fill="#BF9772"/>
<path d="M137.989 143.618C137.743 144.227 137.533 144.937 137.498 145.617C137.442 146.815 137.737 149.242 138.501 151.478C138.845 152.495 139.293 153.477 139.839 154.283C138.753 157.199 134.483 158.946 134.483 158.946C134.483 158.946 133.481 161.947 134.819 163.279C134.819 163.279 131.054 167.613 129.799 171.195C127.906 171.118 126.006 172.009 124.954 172.801L124.806 172.619C124.806 172.619 125.591 170.67 125.361 169.121C129.505 163.699 134.987 154.143 135.486 141.283C135.486 141.283 138.165 140.617 138.837 141.949C138.837 141.949 138.367 142.665 137.989 143.618Z" fill="#272C3D"/>
<path d="M94.992 174.281C94.228 173.271 93.8213 171.959 93.6387 170.537L93.8347 170.515C95.672 166.694 98.6027 165.102 101.499 164.093C101.533 164.078 101.576 164.086 101.604 164.106C103.351 165.375 104.212 167.641 104.76 169.162C104.78 169.225 104.844 169.246 104.9 169.225C107.136 168.243 109.051 166.049 110.419 164.218C110.481 164.218 111.456 167.325 112.717 167.753C112.717 167.753 115.908 164.913 116.013 161.814C116.02 161.61 116.265 161.513 116.407 161.659C118.44 163.686 118.98 168.601 119.309 167.949C119.337 167.893 121.259 166.47 121.42 165.53C122.121 166.315 121.763 168.882 121.763 168.882C122.899 169.043 124.919 168.005 124.919 168.005C125.157 168.321 125.297 168.706 125.36 169.121C123.152 172.015 121.321 173.734 120.831 174.141C119.428 175.311 108.792 178.117 97.9227 182.085C87.0547 186.061 78.76 181.153 78.76 181.153L78.3533 181.026C78.7947 180.521 79.292 180.058 79.8253 179.631C80.2813 179.603 90.5187 178.971 95.868 179.253C96.2467 179.273 96.352 178.747 95.9947 178.621C93.3653 177.674 88.92 176.363 85.2173 176.671C89.396 175.079 93.7013 174.554 94.992 174.281Z" fill="#D6A980"/>
<path d="M124.778 172.949C123.776 173.783 122.941 175.445 122.773 176.946C121.77 177.865 117.921 179.617 117.921 179.617C117.416 178.614 115.41 178.285 115.41 178.285C115.41 178.285 114.905 180.697 113.145 181.699C111.645 181.363 109.248 181.594 107.206 182.45C104.612 183.53 104.03 185.949 104.03 185.949C104.03 185.949 101.352 186.033 100.013 184.946C98.841 185.198 97.3343 188.95 97.3343 188.95C97.3343 188.95 95.329 188.613 94.9916 187.281C94.2423 187.197 92.9863 189.946 92.9863 189.946C92.9863 189.946 91.3103 189.202 91.3103 187.779C90.0556 187.534 86.7956 190.366 86.7956 190.366C86.7956 190.366 84.7823 189.202 84.9503 186.615C83.7796 186.285 80.2676 190.282 80.2676 190.282C80.2676 190.282 79.265 188.367 79.9303 186.615C78.8436 186.033 76.081 187.534 76.081 187.534C75.9623 184.855 76.873 182.723 78.353 181.026L78.7596 181.153C78.7596 181.153 87.0543 186.061 97.9223 182.085C108.792 178.117 119.428 175.311 120.83 174.141C121.321 173.734 123.152 172.017 125.36 169.121C125.592 170.67 124.806 172.619 124.806 172.619L124.954 172.802C124.89 172.858 124.834 172.899 124.778 172.949Z" fill="#BF9772"/>
<path d="M94.6553 160.278C94.522 160.306 94.3886 160.327 94.2553 160.341C94.5153 160.187 94.6553 160.151 94.6553 160.278Z" fill="#BF9772"/>
<path d="M94.0875 31.4424C94.0875 31.4424 94.3675 33.0478 94.2702 35.3064H94.2422C91.0089 38.0264 87.7142 37.3184 85.5329 36.2598C83.9969 35.5238 83.0235 34.6051 83.0235 34.6051L82.8542 34.2758C85.4142 32.9984 89.6422 31.3371 94.0875 31.4424Z" fill="#D6A980"/>
<path d="M95.8684 179.252C90.5177 178.972 80.2804 179.603 79.8257 179.631C81.3884 178.362 83.2897 177.402 85.2177 176.672C88.9191 176.363 93.3657 177.675 95.9951 178.622C96.3524 178.747 96.2471 179.274 95.8684 179.252Z" fill="#EDBB8E"/>
<path d="M86.2692 37.7672C85.9465 37.6619 85.6172 37.5845 85.2879 37.5432L85.5332 36.2592C87.7132 37.3179 91.0092 38.0259 94.2412 35.3059H94.2692C94.1932 37.3325 93.8145 39.8779 92.6705 42.2752L92.6639 42.3525C84.5932 41.7152 80.8145 43.2299 80.6039 43.1032C80.6039 43.1032 82.4332 39.5205 86.2692 37.7672Z" fill="#BF9772"/>
<path d="M85.0421 70.8911L85.2661 70.7724C85.2661 70.7724 89.5154 73.6884 89.6834 75.4351C88.0154 74.8524 85.6034 75.7711 85.6034 75.7711L88.9341 78.4364C88.9341 78.4364 89.5994 82.4391 88.5968 83.7724C86.9634 80.5671 82.0901 78.1831 81.9434 78.1137L81.9354 78.1057L81.5928 77.9097C82.8128 75.8071 83.9688 73.4711 85.0421 70.8911Z" fill="#272C3D"/>
<path d="M85.2876 37.5428C82.2516 37.0735 79.265 38.7695 79.265 38.7695C79.265 38.7695 79.4263 37.4868 80.337 35.6921C80.337 35.6921 81.2836 35.0535 82.8543 34.2748L83.0223 34.6055C83.0223 34.6055 83.997 35.5228 85.533 36.2601L85.2876 37.5428Z" fill="#BF9772"/>
<path d="M81.2138 6.44535C81.2138 6.44535 76.0244 8.38002 72.7151 13.5694C72.7151 13.5694 74.5804 13.156 76.8804 13.0507L76.8871 13.2187C72.9884 29.8227 56.0338 22.8387 54.2538 22.0534C53.3698 20.9387 52.4444 20.0067 51.5751 19.2414C50.6844 18.464 49.8498 17.8534 49.1698 17.412L49.3098 17.1947C48.7284 12.048 44.0511 8.66135 44.0511 8.66135C44.0511 8.66135 49.0644 8.10002 51.0631 11.3467C51.0631 11.3467 52.0871 6.69069 48.9591 0.569353C48.9591 0.569353 53.2084 3.19202 54.4631 6.44535C54.4631 6.44535 54.3378 2.75735 53.3351 0.696021C53.3351 0.696021 57.0231 5.07069 58.2151 9.44669C58.2151 9.44669 59.0218 4.19469 60.9631 2.56802C60.9631 2.56802 60.0244 6.56402 61.4618 10.82C61.4618 10.82 67.0778 3.07202 75.0711 0.821354C74.7484 1.03869 69.5391 4.53069 68.0871 9.19335C68.0871 9.19335 74.6511 4.44002 81.2138 6.44535" fill="#414C6B"/>
<path d="M81.2138 6.44535C81.2138 6.44535 76.0244 8.38002 72.7151 13.5694C72.7151 13.5694 74.5804 13.156 76.8804 13.0507L76.8871 13.2187C72.9884 29.8227 56.0338 22.8387 54.2538 22.0534C53.3698 20.9387 52.4444 20.0067 51.5751 19.2414C50.6844 18.464 49.8498 17.8534 49.1698 17.412L49.3098 17.1947C48.7284 12.048 44.0511 8.66135 44.0511 8.66135C44.0511 8.66135 49.0644 8.10002 51.0631 11.3467C51.0631 11.3467 52.0871 6.69069 48.9591 0.569353C48.9591 0.569353 53.2084 3.19202 54.4631 6.44535C54.4631 6.44535 54.3378 2.75735 53.3351 0.696021C53.3351 0.696021 57.0231 5.07069 58.2151 9.44669C58.2151 9.44669 59.0218 4.19469 60.9631 2.56802C60.9631 2.56802 60.0244 6.56402 61.4618 10.82C61.4618 10.82 67.0778 3.07202 75.0711 0.821354C74.7484 1.03869 69.5391 4.53069 68.0871 9.19335C68.0871 9.19335 74.6511 4.44002 81.2138 6.44535V6.44535Z" stroke="#414C6B" stroke-width="0.539" stroke-miterlimit="10" stroke-linecap="round" stroke-linejoin="round"/>
<path d="M76.081 96.0006L75.5064 96.442C75.149 99.1073 74.3984 101.547 73.3877 103.839C73.0517 98.1046 71.9304 94.1006 71.9304 94.1006C71.9304 94.1006 74.089 94.57 76.081 96.0006Z" fill="#DB3957"/>
<path d="M71.1027 31.8001C71.1027 31.8001 70.8853 36.7921 65.844 35.8321C60.8093 34.8708 62.9547 28.8201 62.9547 28.8201L62.948 28.7921C65.8373 28.0201 68.5573 28.3708 70.0013 28.6654C70.6533 28.7988 71.1307 29.3668 71.1653 30.0334C71.1933 30.6574 71.18 31.2468 71.124 31.8001H71.1027Z" fill="#F24D6C"/>
<path d="M69.8896 169.45C71.5656 169.282 73.2416 167.283 73.2416 167.283C73.2416 167.283 75.0776 168.447 75.5829 169.03C77.0069 168.447 77.9256 167.283 77.9256 167.283C77.9256 167.283 79.8469 166.778 82.5256 168.118C87.5589 165.923 92.7763 161.218 94.2483 160.342H94.2563C94.3883 160.327 94.5216 160.307 94.6549 160.278C94.6549 160.867 93.2883 165.551 93.5616 169.695C91.1283 169.316 84.3696 172.038 84.3696 172.038L82.9669 173.91L81.7963 172.268L81.2136 174.962L79.6923 175.312C78.2336 175.648 79.1589 172.731 79.2216 172.52L77.5883 175.775C72.7989 178.116 66.4123 176.939 66.2856 176.595C64.8829 172.823 69.7003 168.356 69.7003 168.356L69.7349 168.348C69.8336 168.679 69.8896 169.043 69.8896 169.45Z" fill="#BF9772"/>
<path d="M68.9429 104.955C69.5883 104.955 70.1136 105.48 70.1136 106.125C70.1136 106.209 70.1069 106.287 70.0923 106.364C69.9803 106.897 69.5043 107.296 68.9429 107.296C68.2976 107.296 67.7723 106.771 67.7723 106.125C67.7723 106.007 67.7856 105.895 67.8216 105.789C67.9683 105.305 68.4176 104.955 68.9429 104.955Z" fill="#F27786"/>
<path d="M64.7428 117.176C67.3788 113.678 70.0508 110.242 72.0988 106.47C72.3855 105.943 72.6588 105.411 72.9188 104.863C73.1148 105.256 73.3041 105.676 73.4721 106.104C73.4588 105.327 73.4308 104.57 73.3881 103.84C74.3975 101.547 75.1481 99.1068 75.5055 96.4428L76.0815 96.0002C76.7468 96.4775 77.3921 97.0588 77.9321 97.7668C77.7708 94.3802 76.0455 91.6108 75.9401 91.4428C76.1441 91.5055 80.0428 92.8242 81.1855 94.8508C82.0761 89.9002 79.2641 84.3535 79.2641 84.1082C79.4401 84.3122 82.6508 88.1615 84.3481 93.1882C86.0935 92.4028 87.4748 91.0215 88.2815 89.8722L88.3801 89.9428C90.0561 89.3602 92.7335 89.9428 92.7335 89.9428C92.7335 89.9428 91.4228 92.3402 93.1548 94.7802C93.3868 95.1028 93.6241 95.4188 93.8775 95.7202L93.6041 95.9588C85.5401 91.7508 74.5521 112.204 64.9668 117.344L64.7428 117.176Z" fill="#272C3D"/>
<path d="M65.8016 110.115C66.5309 108.923 67.2603 107.065 67.6456 105.733L67.8216 105.789C67.7856 105.894 67.7723 106.006 67.7723 106.126C67.7723 106.771 68.2976 107.297 68.9429 107.297C69.5043 107.297 69.9803 106.897 70.0936 106.365L72.0989 106.469C70.0509 110.242 67.3789 113.678 64.7429 117.177C62.9269 119.581 61.1243 122.022 59.5469 124.63L59.3923 124.539C59.5189 124.357 59.5963 124.133 59.5963 123.886C59.5963 123.242 59.0709 122.722 58.4256 122.722C58.1029 122.722 57.8083 122.855 57.5976 123.066L55.7469 122.751C57.8149 120.927 60.0803 118.438 62.5056 115.079C62.8083 114.918 63.0256 114.617 63.0816 114.266C63.9723 113.005 64.8763 111.623 65.8016 110.115Z" fill="#DB3957"/>
<path d="M67.0217 165.635C66.8457 165.874 66.6711 166.133 66.4884 166.406L66.4604 166.386C67.4564 164.787 69.3284 162.199 71.0111 160.285C71.4324 159.809 71.8457 159.367 72.2244 159.002L71.6711 154.97C71.6711 154.97 73.8724 155.951 74.3071 157.354C74.5871 158.273 75.4004 155.187 75.5404 151.809C76.1657 152.923 81.8724 162.375 94.2484 160.341C92.7764 161.218 87.5591 165.923 82.5244 168.118C79.8457 166.778 77.9244 167.283 77.9244 167.283C77.9244 167.283 77.0071 168.447 75.5831 169.029C75.0777 168.447 73.2417 167.283 73.2417 167.283C73.2417 167.283 71.5657 169.282 69.8897 169.45C69.8897 169.043 69.8337 168.678 69.7351 168.349C69.1457 166.302 67.0217 165.635 67.0217 165.635Z" fill="#272C3D"/>
<path d="M63.1021 114.07C63.1021 114.133 63.0955 114.204 63.0808 114.266C62.8915 114.548 62.7021 114.813 62.5061 115.08C62.3381 115.185 62.1421 115.241 61.9315 115.241C61.2861 115.241 60.7595 114.716 60.7595 114.07C60.7595 113.425 61.2861 112.906 61.9315 112.906C62.5768 112.906 63.1021 113.425 63.1021 114.07Z" fill="#FF8795"/>
<path d="M62.5062 115.08C62.7022 114.813 62.8915 114.546 63.0808 114.266C63.0248 114.617 62.8075 114.918 62.5062 115.08Z" fill="#F57E7D"/>
<path d="M62.9548 28.8199C62.9548 28.8199 60.8095 34.8705 65.8441 35.8319C70.8855 36.7919 71.1028 31.7999 71.1028 31.7999H71.1241C70.8855 34.4359 69.8681 36.3159 68.9575 37.4999C68.6761 37.8799 68.4028 38.1812 68.1641 38.4185C67.7575 38.8399 67.1415 38.9865 66.5935 38.7772C62.6255 37.2625 60.1361 32.8452 60.1361 32.8452L60.1148 32.8305C60.2068 32.6839 60.2761 32.5292 60.3401 32.3679L61.1041 30.3199C61.1735 30.1305 61.2228 29.9345 61.2508 29.7385C61.2721 29.6052 61.2855 29.4652 61.2855 29.3319V29.2412L61.5948 29.2332C62.0428 29.0585 62.4988 28.9105 62.9481 28.7919L62.9548 28.8199Z" fill="#D43351"/>
<path d="M70.5276 42.3038C63.5929 41.4132 58.6423 34.2332 58.6423 34.2332L58.5796 34.0585C59.2103 33.8545 59.7649 33.4265 60.1156 32.8305L60.1356 32.8452C60.1356 32.8452 62.6249 37.2625 66.5943 38.7772C67.1409 38.9878 67.7583 38.8398 68.1649 38.4198C68.4036 38.1812 68.6769 37.8798 68.9569 37.5012C69.3983 37.5425 73.4023 37.7958 75.1343 31.7998H75.1556C75.0569 32.9985 74.8543 34.0998 74.5876 35.0958C73.3183 39.8145 70.5276 42.3038 70.5276 42.3038Z" fill="#D94152"/>
<path d="M55.9429 84.1785C57.4989 83.6811 59.6869 82.7758 61.4896 80.3145L62.1349 78.7651C61.8323 78.6745 61.6016 78.7158 61.6016 78.7158L60.2763 78.5758C61.4403 77.3425 62.4003 75.5825 63.0389 73.1705L63.2136 72.8758C65.5776 74.2705 68.0523 73.8571 68.0523 73.8571C68.0523 73.8571 66.6776 75.9465 64.2096 76.6345C64.2096 76.6345 66.3909 77.9385 68.3256 77.7131C68.3256 77.7131 67.3856 79.4105 65.3523 79.8798C65.3523 79.8798 66.2643 82.4531 68.8803 82.7345C65.1216 84.8931 61.5309 82.4891 61.5309 82.4891C61.5309 82.4891 61.7909 84.7811 63.0949 85.2718C63.0949 85.2718 60.4869 84.5998 59.6096 83.8771L58.5789 86.4438L55.9429 84.1785Z" fill="#BF9772"/>
<path d="M61.5946 29.2337L61.2866 29.2404L61.0612 28.2244C68.0172 24.515 74.7626 26.127 74.7626 26.127C74.8746 26.6817 74.9666 27.2217 75.0292 27.747C75.2186 29.199 75.2465 30.5524 75.1559 31.8004H75.1345C73.4025 37.795 69.3986 37.543 68.9572 37.5004C69.8692 36.3164 70.8852 34.4364 71.1239 31.8004C71.1799 31.2457 71.1932 30.6577 71.1652 30.0324C71.1306 29.367 70.6532 28.799 70.0012 28.6657C68.5572 28.371 65.8372 28.0204 62.9479 28.7924C62.4986 28.911 62.0439 29.059 61.5946 29.2337Z" fill="#F06777"/>
<path d="M61.0616 28.2241L61.2856 29.2414V29.3321C61.2856 29.4654 61.2723 29.6054 61.2509 29.7388L60.9349 29.6961C58.8736 33.6934 55.3403 31.1334 54.9336 30.8254C54.9616 30.6854 54.9963 30.5374 55.0523 30.3974L55.8096 28.3428C55.8656 28.2028 55.9283 28.0628 55.9989 27.9361C56.2509 27.4948 56.6163 27.1374 57.0443 26.8854C57.7456 26.4788 58.6216 26.3801 59.4483 26.6881C60.2056 26.9694 60.7669 27.5374 61.0616 28.2241Z" fill="#F24D6C"/>
<path d="M59.6523 173.068C62.8709 167.437 66.6576 162.262 70.8149 160.117L71.0109 160.285C69.3283 162.2 67.4563 164.786 66.4603 166.385L66.4883 166.406C65.1843 168.37 63.7616 171.112 62.4283 173.924L62.4003 173.909C62.0429 173.145 61.4749 172.485 60.7669 172.03C60.6896 171.981 60.5776 171.994 60.5149 172.065C60.2056 172.381 59.9189 172.717 59.6523 173.068Z" fill="#272C3D"/>
<path d="M34.8162 112.205C34.8162 111.56 34.2976 111.034 33.6522 111.034C33.0069 111.034 32.4816 111.56 32.4816 112.205C32.4816 112.85 33.0069 113.369 33.6522 113.369C34.2976 113.369 34.8162 112.85 34.8162 112.205ZM36.6882 102.62C36.6882 101.974 36.1629 101.449 35.5176 101.449C34.8722 101.449 34.3536 101.974 34.3536 102.62C34.3536 103.265 34.8722 103.79 35.5176 103.79C36.1629 103.79 36.6882 103.265 36.6882 102.62ZM50.7122 122.253C50.7122 121.608 50.1856 121.082 49.5416 121.082C48.8962 121.082 48.3776 121.608 48.3776 122.253C48.3776 122.898 48.8962 123.424 49.5416 123.424C50.1856 123.424 50.7122 122.898 50.7122 122.253ZM37.6216 122.485C37.6216 123.129 38.1469 123.656 38.7922 123.656C39.4376 123.656 39.9629 123.129 39.9629 122.485C39.9629 121.84 39.4376 121.321 38.7922 121.321C38.1469 121.321 37.6216 121.84 37.6216 122.485V122.485ZM53.2229 110.768C56.6856 109.498 59.3162 106.344 59.3162 106.344H59.4069C61.6296 106.288 64.4416 107.31 64.4416 107.31C65.2762 106.729 66.1456 105.684 66.8256 104.752C67.1762 104.268 67.9256 104.625 67.7856 105.2C67.7442 105.369 67.7016 105.544 67.6456 105.733C67.2602 107.065 66.5309 108.924 65.8016 110.116C64.8762 111.624 63.9709 113.005 63.0816 114.266C63.0949 114.204 63.1016 114.133 63.1016 114.07C63.1016 113.425 62.5762 112.906 61.9309 112.906C61.2856 112.906 60.7602 113.425 60.7602 114.07C60.7602 114.716 61.2856 115.241 61.9309 115.241C62.1416 115.241 62.3376 115.185 62.5056 115.08C60.0802 118.438 57.8149 120.928 55.7469 122.75C49.3869 128.389 44.9349 127.813 43.6296 127.47C37.6496 123.628 30.6856 118.032 25.9602 110.718C25.0482 109.316 24.2216 107.844 23.5056 106.308C23.6109 106.344 23.7229 106.357 23.8362 106.357C24.4802 106.357 25.0002 105.838 25.0002 105.193C25.0002 104.548 24.4802 104.022 23.8362 104.022C23.3722 104.022 22.9736 104.289 22.7909 104.681C22.3282 103.552 21.9216 102.389 21.5842 101.197C21.2349 99.9409 20.9536 98.6435 20.7509 97.3329L20.8416 97.3182C20.8416 97.3182 23.2122 95.9022 26.6549 95.0955C26.7456 95.6502 27.2229 96.0782 27.8042 96.0782C28.4496 96.0782 28.9749 95.5515 28.9749 94.9062C28.9749 94.8369 28.9682 94.7662 28.9549 94.6969C31.1216 94.4369 33.5469 94.5142 35.9936 95.3062C38.1816 96.0009 40.3762 97.2622 42.4242 99.3449C44.0789 103.202 44.0922 107.564 43.8189 110.536C43.6376 110.137 43.2376 109.864 42.7682 109.864C42.1229 109.864 41.5962 110.389 41.5962 111.034C41.5962 111.68 42.1229 112.205 42.7682 112.205C43.1469 112.205 43.4762 112.03 43.6789 111.749C43.4896 113.201 43.2656 114.105 43.2656 114.105C45.2282 112.878 47.4376 110.508 47.4376 110.508C47.4376 110.508 48.7136 111.252 48.6642 112.17C50.4669 110.901 51.6442 108.756 51.6442 108.756C51.6442 108.756 52.8722 109.765 53.2229 110.768V110.768ZM52.5842 112.437C51.9389 112.437 51.4136 112.962 51.4136 113.608C51.4136 114.253 51.9389 114.772 52.5842 114.772C53.2296 114.772 53.7482 114.253 53.7482 113.608C53.7482 112.962 53.2296 112.437 52.5842 112.437" fill="#F06777"/>
<path d="M59.5962 105.193C59.5962 105.439 59.5188 105.656 59.3922 105.845C59.1828 106.153 58.8322 106.357 58.4255 106.357C57.7802 106.357 57.2548 105.839 57.2548 105.193C57.2548 105.116 57.2615 105.032 57.2748 104.955C57.3868 104.421 57.8642 104.023 58.4255 104.023C59.0708 104.023 59.5962 104.548 59.5962 105.193Z" fill="#F27786"/>
<path d="M59.5962 123.887C59.5962 124.132 59.5188 124.356 59.3922 124.539C59.1828 124.855 58.8322 125.057 58.4255 125.057C57.7802 125.057 57.2548 124.532 57.2548 123.887C57.2548 123.564 57.3868 123.276 57.5975 123.067C57.8082 122.856 58.1028 122.723 58.4255 122.723C59.0708 122.723 59.5962 123.241 59.5962 123.887Z" fill="#F27786"/>
<path d="M57.0017 26.6112C56.2311 24.8379 55.2697 23.3299 54.2537 22.0539C56.0337 22.8392 72.9884 29.8232 76.8871 13.2192L76.8804 13.0499C78.9484 12.9592 81.3684 13.1205 83.0857 14.0672C83.0857 14.0672 78.2551 15.9605 77.9391 16.9565C77.9391 16.9565 84.5231 16.1285 86.3391 18.0712C86.3391 18.0712 79.1524 19.1299 77.2097 23.0699C77.2097 23.0699 81.7111 23.8205 83.7097 26.8219C83.7097 26.8219 77.9391 26.2112 75.2537 27.7125L75.0297 27.7472C74.9657 27.2219 74.8751 26.6819 74.7631 26.1272C74.7631 26.1272 68.0177 24.5152 61.0617 28.2245C60.7671 27.5365 60.2057 26.9685 59.4484 26.6885C58.6217 26.3792 57.7444 26.4779 57.0444 26.8845L57.0017 26.6112Z" fill="#272C3D"/>
<path d="M67.786 105.2C67.926 104.625 67.1754 104.268 66.8247 104.751C66.1447 105.684 65.2754 106.728 64.4407 107.311C64.4407 107.311 61.63 106.287 59.4074 106.343L59.3927 105.845C59.5194 105.656 59.5967 105.439 59.5967 105.193C59.5967 104.548 59.07 104.021 58.4247 104.021C57.8647 104.021 57.3874 104.421 57.2754 104.955L55.8514 104.625C56.3914 103.208 56.602 102.101 56.602 102.101C56.602 102.101 61.686 102.437 64.35 104.772C65.3527 101.105 64.35 97.1015 64.35 97.1015C64.35 97.1015 70.142 99.4228 72.918 104.863C72.6594 105.411 72.386 105.943 72.098 106.469L70.0927 106.364C70.1074 106.287 70.114 106.209 70.114 106.125C70.114 105.48 69.5887 104.955 68.9434 104.955C68.4167 104.955 67.9687 105.305 67.8207 105.789L67.646 105.733C67.702 105.544 67.7434 105.368 67.786 105.2Z" fill="#DB3957"/>
<path d="M55.8519 27.6911C55.8305 27.7257 55.8092 27.7537 55.7892 27.7817C52.3879 32.7191 45.3345 29.0791 45.3345 29.0791H45.2505C45.3065 28.1684 45.4959 26.9404 46.0559 25.5871C47.1079 24.4164 50.2079 21.3951 52.6399 23.1684C53.7839 24.2617 55.0172 25.7697 55.8519 27.6911Z" fill="#F24D6C"/>
<path d="M54.8772 31.3163C54.8772 31.1549 54.8985 30.9869 54.9332 30.8256C55.3398 31.1336 58.8745 33.6936 60.9358 29.6963L61.2505 29.7389C61.2225 29.9349 61.1745 30.1309 61.1038 30.3203L60.3398 32.3683C60.2758 32.5296 60.2065 32.6843 60.1145 32.8309C59.7638 33.4269 59.2105 33.8549 58.5798 34.0576C57.9905 34.2549 57.3318 34.2616 56.7078 34.0296C56.0478 33.7843 55.5358 33.3149 55.2212 32.7469C54.9825 32.3123 54.8638 31.8216 54.8772 31.3163Z" fill="#D43351"/>
<path d="M54.2182 131.368C54.2182 132.014 53.6915 132.539 53.0475 132.539C52.4022 132.539 51.8835 132.014 51.8835 131.368C51.8835 130.723 52.4022 130.198 53.0475 130.198C53.6915 130.198 54.2182 130.723 54.2182 131.368Z" fill="#F27786"/>
<path d="M55.5012 133.78C55.5012 133.78 50.1519 131.663 43.6306 127.47C44.9346 127.814 49.3866 128.388 55.7466 122.751L57.5972 123.066C57.3879 123.276 57.2546 123.564 57.2546 123.887C57.2546 124.532 57.7799 125.058 58.4252 125.058C58.8319 125.058 59.1826 124.854 59.3932 124.539L59.5466 124.63C57.8506 127.435 56.4132 130.428 55.5012 133.78ZM53.0466 132.539C53.6919 132.539 54.2186 132.014 54.2186 131.368C54.2186 130.723 53.6919 130.198 53.0466 130.198C52.4026 130.198 51.8839 130.723 51.8839 131.368C51.8839 132.014 52.4026 132.539 53.0466 132.539" fill="#DB3957"/>
<path d="M52.5843 112.436C53.2296 112.436 53.7483 112.962 53.7483 113.607C53.7483 114.252 53.2296 114.771 52.5843 114.771C51.939 114.771 51.4136 114.252 51.4136 113.607C51.4136 112.962 51.939 112.436 52.5843 112.436Z" fill="#FF8795"/>
<path d="M50.5789 21.4998C51.1323 21.8785 51.8696 22.4318 52.6403 23.1692C50.2069 21.3945 47.1083 24.4172 46.0563 25.5878C46.5683 24.3332 47.3883 22.9718 48.7069 21.6612C49.2043 21.1625 49.9896 21.1065 50.5789 21.4998Z" fill="#F57F8C"/>
<path d="M51.5605 19.263C47.9632 17.8603 42.4445 23.119 42.4445 23.119L42.3405 23.0696C43.3432 20.9176 44.9485 18.6043 47.5005 16.4443C47.5005 16.4443 48.1672 16.7523 49.1698 17.4123C49.8498 17.8536 50.6845 18.4643 51.5752 19.2416L51.5605 19.263Z" fill="#FF8A97"/>
<path d="M49.8566 65.9969C44.5633 66.2982 41.8913 63.3742 41.8913 63.3742C42.7673 62.2596 48.37 64.4329 49.8566 65.9969Z" fill="#495063"/>
<path d="M49.5413 121.082C50.1866 121.082 50.7119 121.608 50.7119 122.252C50.7119 122.898 50.1866 123.424 49.5413 123.424C48.8959 123.424 48.3773 122.898 48.3773 122.252C48.3773 121.608 48.8959 121.082 49.5413 121.082Z" fill="#FF8795"/>
<path d="M88.9337 87.9369C87.8684 84.7529 82.195 78.4009 81.943 78.1129L81.9364 78.1063L81.5924 77.9103C80.267 80.2103 78.8644 82.2356 77.4137 84.0169C62.6884 102.122 42.571 95.7836 40.2924 94.9836L39.8724 95.3903C40.9937 96.5756 41.8217 97.9289 42.4244 99.3449C44.079 103.202 44.0924 107.564 43.819 110.536C43.8897 110.684 43.9324 110.858 43.9324 111.034C43.9324 111.301 43.8404 111.553 43.679 111.749C43.4897 113.201 43.2657 114.105 43.2657 114.105C43.2657 114.105 47.347 107.108 47.2617 103.44C47.2617 103.44 49.3524 106.77 49.2684 109.772C50.5164 106.273 50.6004 103.77 50.6004 103.77C50.6004 103.77 53.4324 105.438 53.931 108.104C54.807 107.009 55.431 105.726 55.8524 104.625C56.3924 103.209 56.6017 102.101 56.6017 102.101C56.6017 102.101 61.6857 102.437 64.3497 104.773C65.3524 101.105 64.3497 97.1009 64.3497 97.1009C64.3497 97.1009 70.1417 99.4223 72.919 104.864C73.0804 104.528 73.2417 104.184 73.3884 103.84C73.0524 98.1036 71.9297 94.0996 71.9297 94.0996C71.9297 94.0996 74.0897 94.5703 76.0804 96.0009C76.747 96.4769 77.3924 97.0596 77.9324 97.7676C77.771 94.3809 76.0457 91.6116 75.9404 91.4423C76.1444 91.5063 80.043 92.8236 81.1857 94.8503C82.0764 89.9009 79.2644 84.3543 79.2644 84.1089C79.4404 84.3116 82.651 88.1609 84.3484 93.1889C86.0937 92.4036 87.475 91.0223 88.2817 89.8716C89.0457 88.7996 89.319 87.9236 88.9337 87.9369Z" fill="#272C3D"/>
<path d="M88.9337 87.9369C87.8684 84.7529 82.195 78.4009 81.943 78.1129L81.9364 78.1063L81.5924 77.9103C80.267 80.2103 78.8644 82.2356 77.4137 84.0169C62.6884 102.122 42.571 95.7836 40.2924 94.9836L39.8724 95.3903C40.9937 96.5756 41.8217 97.9289 42.4244 99.3449C44.079 103.202 44.0924 107.564 43.819 110.536C43.8897 110.684 43.9324 110.858 43.9324 111.034C43.9324 111.301 43.8404 111.553 43.679 111.749C43.4897 113.201 43.2657 114.105 43.2657 114.105C43.2657 114.105 47.347 107.108 47.2617 103.44C47.2617 103.44 49.3524 106.77 49.2684 109.772C50.5164 106.273 50.6004 103.77 50.6004 103.77C50.6004 103.77 53.4324 105.438 53.931 108.104C54.807 107.009 55.431 105.726 55.8524 104.625C56.3924 103.209 56.6017 102.101 56.6017 102.101C56.6017 102.101 61.6857 102.437 64.3497 104.773C65.3524 101.105 64.3497 97.1009 64.3497 97.1009C64.3497 97.1009 70.1417 99.4223 72.919 104.864C73.0804 104.528 73.2417 104.184 73.3884 103.84C73.0524 98.1036 71.9297 94.0996 71.9297 94.0996C71.9297 94.0996 74.0897 94.5703 76.0804 96.0009C76.747 96.4769 77.3924 97.0596 77.9324 97.7676C77.771 94.3809 76.0457 91.6116 75.9404 91.4423C76.1444 91.5063 80.043 92.8236 81.1857 94.8503C82.0764 89.9009 79.2644 84.3543 79.2644 84.1089C79.4404 84.3116 82.651 88.1609 84.3484 93.1889C86.0937 92.4036 87.475 91.0223 88.2817 89.8716C89.0457 88.7996 89.319 87.9236 88.9337 87.9369Z" stroke="#272C3D" stroke-width="0.539" stroke-miterlimit="10" stroke-linejoin="round"/>
<path d="M59.3157 106.343C59.3157 106.343 56.6864 109.498 53.2224 110.767C52.8717 109.764 51.6451 108.755 51.6451 108.755C51.6451 108.755 50.4664 110.9 48.6651 112.17C48.7144 111.251 47.4371 110.508 47.4371 110.508C47.4371 110.508 45.2291 112.878 43.2651 114.106C43.2651 114.106 47.3464 107.107 47.2624 103.44C47.2624 103.44 49.3517 106.771 49.2677 109.772C50.5157 106.272 50.5997 103.77 50.5997 103.77C50.5997 103.77 53.4331 105.439 53.9304 108.103C54.8064 107.01 55.4317 105.726 55.8517 104.626L57.2757 104.955C57.2611 105.032 57.2544 105.116 57.2544 105.194C57.2544 105.838 57.7797 106.356 58.4251 106.356C58.8317 106.356 59.1824 106.154 59.3931 105.846L59.4064 106.343H59.3157Z" fill="#DB3957"/>
<path d="M48.2369 82.1101C46.5609 80.3368 44.5556 77.8261 42.7742 76.2061L42.7889 76.1848C46.3782 79.5221 55.2489 83.9328 60.2769 78.5754L61.6009 78.7168C61.6009 78.7168 61.8329 78.6741 62.1342 78.7648L61.4889 80.3154C59.6876 82.7768 57.4996 83.6808 55.9436 84.1781L55.9222 84.1581C55.9222 84.1581 52.7662 85.2234 50.4169 83.9968C49.8142 83.6808 49.0649 82.9861 48.2369 82.1101Z" fill="#BF9772"/>
<path d="M48.8751 67.876L48.9524 68.4093C47.5711 69.3973 45.4457 69.804 44.2817 69.4053C43.2657 69.0546 42.1431 67.512 41.7017 65.9893L41.8777 65.9413C41.8777 65.9413 44.6684 68.3946 48.8751 67.876" fill="#1F2129"/>
<path d="M54.9334 30.8254C54.8987 30.9867 54.8774 31.1547 54.8774 31.3161L54.4494 31.2947C54.4494 31.2947 49.828 32.7321 46.0987 31.0707C45.7414 30.9094 45.4747 30.6147 45.3414 30.2641C45.2774 30.1107 45.2427 29.9414 45.236 29.7734C45.236 29.5707 45.236 29.3387 45.2494 29.0801H45.3347C45.3347 29.0801 52.388 32.7187 55.7894 27.7827L55.9987 27.9361C55.9294 28.0627 55.8654 28.2027 55.8094 28.3427L55.052 30.3974C54.996 30.5374 54.9614 30.6854 54.9334 30.8254Z" fill="#D43351"/>
<path d="M43.8194 110.536C43.8901 110.683 43.9314 110.859 43.9314 111.033C43.9314 111.3 43.8408 111.553 43.6794 111.749C43.7288 111.377 43.7781 110.971 43.8194 110.536Z" fill="#F57E7D"/>
<path d="M43.8195 110.536C43.7781 110.971 43.7288 111.377 43.6795 111.749C43.4755 112.029 43.1461 112.205 42.7675 112.205C42.1221 112.205 41.5968 111.679 41.5968 111.033C41.5968 110.389 42.1221 109.863 42.7675 109.863C43.2381 109.863 43.6368 110.136 43.8195 110.536Z" fill="#FF8795"/>
<path d="M30.525 75.3576C30.525 75.3576 40.777 74.8309 45.3344 84.9149L45.369 85.2656C43.0904 86.3656 40.3984 85.9456 40.3984 85.9456C40.8957 84.1923 40.061 83.0283 40.061 83.0283C39.2757 85.4483 36.773 85.9456 36.773 85.9456C37.1517 84.0736 36.6957 81.6829 36.6957 81.6829C35.2717 83.1963 32.649 83.3856 32.649 83.3856C33.8984 81.5696 33.813 79.5923 33.813 79.5923C32.489 79.4309 30.0197 79.6349 30.0197 79.6349C29.4597 78.0643 29.725 76.4723 30.1397 75.2869L30.525 75.3576Z" fill="#D6A980"/>
<path d="M41.8912 63.3745C41.8912 63.3745 44.5632 66.2985 49.8566 65.9971C50.1299 66.2771 50.2632 66.5438 50.2072 66.7678C50.0392 67.4131 49.5699 67.9745 48.9526 68.4091L48.8752 67.8758C44.6686 68.3945 41.8779 65.9411 41.8779 65.9411L41.7019 65.9905C41.4006 64.9945 41.3939 64.0131 41.8912 63.3745Z" fill="#2C303C"/>
<path d="M41.8912 63.3745C41.8912 63.3745 44.5632 66.2985 49.8566 65.9971C50.1299 66.2771 50.2632 66.5438 50.2072 66.7678C50.0392 67.4131 49.5699 67.9745 48.9526 68.4091L48.8752 67.8758C44.6686 68.3945 41.8779 65.9411 41.8779 65.9411L41.7019 65.9905C41.4006 64.9945 41.3939 64.0131 41.8912 63.3745Z" stroke="#2C303C" stroke-width="0.539" stroke-miterlimit="10"/>
<path d="M41.2181 28.294C41.2181 28.294 43.7141 29.8087 45.3408 30.2647C45.4741 30.6154 45.7408 30.91 46.0981 31.0714C49.8288 32.7327 54.4488 31.2954 54.4488 31.2954L54.8768 31.3167C54.8634 31.8207 54.9821 32.3114 55.2208 32.746L55.1714 32.774C55.1714 32.774 46.8341 35.362 40.8394 31.7794C40.8394 31.7794 40.5941 30.3914 40.8461 28.2807L41.2181 28.294Z" fill="#D94152"/>
<path d="M55.8518 27.6911C55.0172 25.7697 53.7838 24.2617 52.6398 23.1684C51.8692 22.4324 51.1332 21.8777 50.5785 21.5004C49.9905 21.1071 49.2052 21.1631 48.7065 21.6604C47.3892 22.9724 46.5678 24.3324 46.0558 25.5871C45.4958 26.9404 45.3065 28.1684 45.2505 29.0791C45.2358 29.3391 45.2358 29.5697 45.2358 29.7737C45.2425 29.9417 45.2785 30.1097 45.3412 30.2644C43.7145 29.8084 41.2185 28.2937 41.2185 28.2937L40.8465 28.2804C40.8958 27.8524 40.9732 27.3964 41.0705 26.9124C41.3025 25.7484 41.7025 24.4377 42.3398 23.0697L42.4452 23.1191C42.4452 23.1191 47.9638 17.8604 51.5612 19.2631L51.5745 19.2417C52.4438 20.0057 53.3692 20.9391 54.2532 22.0537C55.2705 23.3297 56.2305 24.8377 57.0012 26.6111L57.0438 26.8844C56.6158 27.1377 56.2518 27.4951 55.9985 27.9364L55.7892 27.7817C55.8092 27.7537 55.8305 27.7257 55.8518 27.6911Z" fill="#F06777"/>
<path d="M60.4095 70.3652C50.7189 58.0598 32.4815 59.0972 31.1069 59.1958C33.5895 58.8798 35.8749 58.4238 38.1615 58.1852C39.3455 58.0518 40.5375 57.9892 41.7655 58.0318C44.0015 58.1012 46.3442 58.5358 48.9669 59.6372C50.9509 60.4718 52.5775 61.3825 53.9162 62.3292C55.0109 63.0865 55.9215 63.8718 56.6869 64.6505C58.7269 66.7118 59.7709 68.7318 60.6695 70.2038L60.4095 70.3652Z" fill="#EDBB8E"/>
<path d="M40.1032 158.946C40.1378 159.023 40.1805 159.101 40.2218 159.17L40.1738 159.206C40.1738 159.206 38.2738 160.797 38.2378 162.305C38.2378 162.361 38.2032 162.41 38.1538 162.417C38.1125 162.417 38.0698 162.417 38.0272 162.403C37.4525 162.263 36.4845 161.099 36.2192 160.777C36.2045 160.755 36.1832 160.741 36.1552 160.741C38.4205 154.445 40.1938 148.429 40.1938 148.429C40.1938 148.429 34.9352 139.783 33.8832 133.002L33.9325 132.981C37.4672 141.781 45.1232 149.614 45.1232 149.614C43.1178 150.279 42.7818 158.449 42.7818 158.449C42.7818 158.449 42.1152 159.198 40.1032 158.946Z" fill="#272C3D"/>
<path d="M39.9631 122.484C39.9631 123.13 39.4364 123.655 38.7924 123.655C38.1471 123.655 37.6204 123.13 37.6204 122.484C37.6204 121.839 38.1471 121.32 38.7924 121.32C39.4364 121.32 39.9631 121.839 39.9631 122.484Z" fill="#FF8795"/>
<path d="M36.4571 95.3765C37.1024 95.3765 37.6211 94.8511 37.6211 94.2058C37.6211 93.7991 37.4171 93.4485 37.1091 93.2378L37.1371 93.1965C38.2038 93.8271 39.1078 94.5698 39.8718 95.3898C40.9931 96.5751 41.8211 97.9285 42.4238 99.3445C40.3771 97.2631 38.1824 96.0005 35.9944 95.3058L36.0011 95.2858C36.1411 95.3418 36.2958 95.3765 36.4571 95.3765Z" fill="#DB3957"/>
<path d="M37.7614 163.945L38.028 162.403C38.0694 162.417 38.112 162.417 38.1534 162.417C38.2027 162.409 38.2387 162.36 38.2387 162.304C38.2734 160.797 40.1734 159.205 40.1734 159.205L40.2227 159.171C40.748 160.025 41.8707 160.516 42.6 160.761C42.8734 160.853 42.992 161.189 42.8094 161.415C41.94 162.508 41.2747 164.612 41.2747 164.612C40.0267 165.032 37.7614 163.945 37.7614 163.945Z" fill="#BF9772"/>
<path d="M14.8396 174.701C15.8423 174.701 17.0129 173.615 17.0129 173.615C17.0129 173.615 25.9396 178.467 29.9076 174.14C31.7729 172.107 34.1569 166.315 36.1556 160.741C36.1836 160.741 36.2049 160.755 36.2183 160.776C36.4849 161.099 37.4529 162.263 38.0276 162.403L37.7609 163.945C37.7609 163.945 39.0169 165.783 40.0263 165.951C40.0263 165.951 37.6769 169.863 37.5996 172.612C36.7583 172.696 35.7556 171.945 35.7556 171.945C35.5036 173.201 37.0956 175.284 37.0956 175.284C37.0956 175.284 35.3356 176.532 34.0796 175.949C33.4983 176.7 34.7529 179.617 34.7529 179.617L31.2409 180.612L29.7329 178.615L28.3089 181.033C18.6049 182.695 14.8396 174.701 14.8396 174.701Z" fill="#BF9772"/>
<path d="M37.621 94.2056C37.621 94.8509 37.1024 95.3762 36.457 95.3762C36.2957 95.3762 36.141 95.3416 36.001 95.2856C35.581 95.1029 35.2864 94.6896 35.2864 94.2056C35.2864 93.5602 35.8117 93.0349 36.457 93.0349C36.7024 93.0349 36.9197 93.1122 37.109 93.2376C37.4184 93.4482 37.621 93.7989 37.621 94.2056Z" fill="#F27786"/>
<path d="M36.0013 23.3579L36.12 23.3859C35.8467 24.5353 35.3493 26.0579 34.4307 27.5166C33.596 24.9353 30.3493 22.7686 30.3493 22.7686C30.3493 22.7686 30.3493 26.0993 29.3467 28.1046C28.8427 26.5686 27.348 24.5779 25.6653 22.6993L25.876 22.5099C25.876 22.5099 29.9507 20.8473 31.0507 15.9113C32.888 17.7273 34.7667 20.2379 36.0013 23.3579Z" fill="#BF9772"/>
<path d="M35.5175 101.449C36.1628 101.449 36.6881 101.974 36.6881 102.619C36.6881 103.265 36.1628 103.79 35.5175 103.79C34.8721 103.79 34.3535 103.265 34.3535 102.619C34.3535 101.974 34.8721 101.449 35.5175 101.449Z" fill="#FF8795"/>
<path d="M34.8513 92.102C35.686 92.418 36.4433 92.782 37.1367 93.1953L37.1087 93.238C36.9193 93.1113 36.702 93.034 36.4567 93.034C35.8127 93.034 35.286 93.5606 35.286 94.206C35.286 94.69 35.5807 95.1033 36.002 95.2846L35.994 95.306C33.5473 94.514 31.1207 94.4366 28.954 94.6966C28.8567 94.15 28.3793 93.7353 27.8047 93.7353C27.1593 93.7353 26.6407 94.262 26.6407 94.9073C26.6407 94.97 26.6473 95.0326 26.654 95.0953C23.2113 95.902 20.842 97.3193 20.842 97.3193L20.75 97.3326C20.5473 96.0353 20.414 94.7246 20.358 93.4486L20.3087 93.3646C22.0407 92.3966 24.046 91.5966 26.262 91.2326C28.8567 90.7913 31.7447 90.938 34.8513 92.102Z" fill="#DB3957"/>
<path d="M33.6524 111.034C34.2978 111.034 34.8164 111.559 34.8164 112.205C34.8164 112.85 34.2978 113.369 33.6524 113.369C33.0071 113.369 32.4818 112.85 32.4818 112.205C32.4818 111.559 33.0071 111.034 33.6524 111.034Z" fill="#FF8795"/>
<path d="M28.148 158.813C28.3306 157.67 29.9986 157.313 30.5813 157.221C30.672 157.207 30.736 157.291 30.708 157.369C30.448 157.999 29.7053 160.131 31.0373 161.274C31.0786 161.315 31.156 161.309 31.1986 161.259C31.5213 160.874 32.8533 159.303 33.744 158.679C33.8346 158.617 33.94 158.707 33.9053 158.813C33.4906 160.033 33.6453 161.429 34.3186 162.578C34.36 162.662 34.4866 162.655 34.5213 162.571C34.816 161.827 35.7693 161.001 36.064 160.755C36.092 160.734 36.128 160.727 36.156 160.741C34.1573 166.315 31.7733 172.107 29.908 174.141C25.94 178.467 17.0133 173.615 17.0133 173.615C15.6746 172.45 15.0213 170.165 15.0213 170.165C15.6453 170.193 16.2493 170.199 16.8173 170.179L16.824 170.403C16.824 170.403 24.0666 171.918 25.94 169.934C27.804 167.949 27.804 159.998 27.804 159.998L27.7066 159.983C27.7626 159.583 27.8186 159.185 27.86 158.778L28.148 158.813Z" fill="#D6A980"/>
<path d="M28.148 158.813C28.3306 157.67 29.9986 157.313 30.5813 157.221C30.672 157.207 30.736 157.291 30.708 157.369C30.448 157.999 29.7053 160.131 31.0373 161.274C31.0786 161.315 31.156 161.309 31.1986 161.259C31.5213 160.874 32.8533 159.303 33.744 158.679C33.8346 158.617 33.94 158.707 33.9053 158.813C33.4906 160.033 33.6453 161.429 34.3186 162.578C34.36 162.662 34.4866 162.655 34.5213 162.571C34.816 161.827 35.7693 161.001 36.064 160.755C36.092 160.734 36.128 160.727 36.156 160.741C34.1573 166.315 31.7733 172.107 29.908 174.141C25.94 178.467 17.0133 173.615 17.0133 173.615C15.6746 172.45 15.0213 170.165 15.0213 170.165C15.6453 170.193 16.2493 170.199 16.8173 170.179L16.824 170.403C16.824 170.403 24.0666 171.918 25.94 169.934C27.804 167.949 27.804 159.998 27.804 159.998L27.7066 159.983C27.7626 159.583 27.8186 159.185 27.86 158.778L28.148 158.813Z" stroke="#D6A980" stroke-width="0.539" stroke-miterlimit="10"/>
<path d="M45.3341 84.9147C40.7768 74.832 30.5248 75.3574 30.5248 75.3574L30.1395 75.288C30.5461 74.1094 31.0861 73.3174 31.0861 73.3174L31.1488 73.1414C34.5848 74.3134 37.8728 73.7734 40.6155 74.7334C41.2595 74.9654 41.9968 75.4974 42.7741 76.2067C44.5555 77.8254 46.5608 80.336 48.2368 82.1094L48.0821 82.2574C47.5421 83.8 46.5115 84.7254 45.3688 85.2654L45.3341 84.9147Z" fill="#BF9772"/>
<path d="M43.6301 127.47C50.1515 131.663 55.5008 133.78 55.5008 133.78C56.4128 130.428 57.8501 127.435 59.5475 124.63C61.1248 122.022 62.9275 119.582 64.7435 117.176L64.9675 117.344C74.5528 112.204 85.5395 91.7511 93.6035 95.9591L93.8768 95.7205C100.062 103.18 112.767 105.108 115.739 109.112C113.314 109.779 112.731 111.279 112.731 111.279C112.731 111.279 117.331 110.444 119.091 112.282C119.091 112.282 116.329 114.448 117.415 115.612C119.337 120.283 129.294 124.363 129.294 124.363C127.205 124.447 126.783 125.948 126.783 125.948C126.783 125.948 130.802 126.699 131.39 128.199L128.459 129.615C128.459 129.615 132.814 130.114 133.565 131.53C131.643 132.28 131.138 134.615 131.138 134.615C131.138 134.615 133.059 133.114 134.482 133.283C134.482 133.283 137.498 136.444 138.247 139.446C136.657 139.699 135.485 141.283 135.485 141.283C134.987 154.143 129.505 163.7 125.361 169.12C125.297 168.706 125.157 168.32 124.918 168.006C124.918 168.006 122.899 169.043 121.763 168.882C121.763 168.882 122.121 166.315 121.419 165.53C121.258 166.47 119.337 167.894 119.309 167.948C118.979 168.602 118.439 163.686 116.406 161.659C116.266 161.512 116.021 161.61 116.014 161.814C115.909 164.912 112.718 167.752 112.718 167.752C111.455 167.324 110.481 164.219 110.418 164.219C109.05 166.048 107.137 168.243 104.899 169.226C104.843 169.246 104.781 169.226 104.759 169.162C104.213 167.64 103.35 165.376 101.603 164.107C101.577 164.086 101.534 164.079 101.499 164.092C98.6035 165.102 95.6715 166.694 93.8355 170.515L93.6381 170.536C93.6035 170.263 93.5821 169.975 93.5621 169.695C93.2875 165.551 94.6555 160.867 94.6555 160.278C94.6555 160.152 94.5155 160.187 94.2555 160.342H94.2488C81.8728 162.375 76.1648 152.923 75.5408 151.808C75.4008 155.187 74.5875 158.272 74.3075 157.354C73.8728 155.952 71.6701 154.97 71.6701 154.97L72.2248 159.002C71.8461 159.367 71.4328 159.808 71.0115 160.286L70.8155 160.116C66.6568 162.263 62.8701 167.438 59.6528 173.067C59.0768 173.796 58.5861 174.596 58.1795 175.431C58.1101 175.578 57.8928 175.578 57.8288 175.423C56.7701 172.92 55.7888 170.382 54.8848 167.816C54.8421 167.675 54.6741 167.64 54.5688 167.746C53.2995 169.008 51.8061 170.039 50.1728 170.788C50.0181 170.859 49.8568 170.704 49.9128 170.536C50.1581 169.856 50.2981 169.134 50.3408 168.412C50.3475 168.251 50.1515 168.152 50.0181 168.251C48.5381 169.407 47.1648 170.382 45.2915 170.396C45.3488 170.108 45.3768 169.947 45.3768 169.947H43.7915L45.2075 167.451C46.2181 165.614 46.7995 160.944 46.7995 157.284C46.7995 153.616 45.1235 149.614 45.1235 149.614C45.1235 149.614 37.4675 141.78 33.9328 132.98L33.8835 133.002C34.9355 139.783 40.1941 148.428 40.1941 148.428C40.1941 148.428 38.4208 154.444 36.1555 160.74C36.1275 160.727 36.0928 160.734 36.0648 160.755C35.7701 161 34.8168 161.827 34.5221 162.571C34.4875 162.655 34.3608 162.662 34.3181 162.578C33.6448 161.428 33.4915 160.032 33.9048 158.812C33.9395 158.707 33.8341 158.616 33.7435 158.679C32.8528 159.303 31.5208 160.874 31.1981 161.26C31.1568 161.308 31.0795 161.316 31.0368 161.274C29.7048 160.131 30.4475 157.999 30.7075 157.368C30.7355 157.291 30.6728 157.207 30.5808 157.22C29.9995 157.312 28.3301 157.67 28.1475 158.812L27.8608 158.778C28.9261 149.614 27.0541 139.614 27.0541 139.614C24.8808 140.448 21.6128 138.864 21.6128 138.864C23.6261 137.027 24.4595 133.199 24.4595 133.199C23.7941 132.364 21.1995 134.194 21.1995 134.194L22.3701 129.699C21.3675 129.699 20.1128 131.446 20.1128 131.446C19.7755 130.114 20.5261 126.944 20.5261 126.944C19.3555 127.112 18.0155 128.36 18.0155 128.36C15.0075 121.032 16.1781 117.366 17.2661 112.366C17.0968 112.443 15.8421 112.527 13.9208 113.362C13.7528 111.694 17.3501 108.615 17.3501 108.615C15.8421 107.948 15.2608 105.53 15.2608 105.53C15.8768 105.151 16.3968 104.695 16.8168 104.247L16.8235 104.254C16.8235 104.254 21.0168 105.628 25.9608 110.718C30.6861 118.031 37.6488 123.627 43.6301 127.47Z" fill="#414C6B"/>
<path d="M43.6301 127.47C50.1515 131.663 55.5008 133.78 55.5008 133.78C56.4128 130.428 57.8501 127.435 59.5475 124.63C61.1248 122.022 62.9275 119.582 64.7435 117.176L64.9675 117.344C74.5528 112.204 85.5395 91.7511 93.6035 95.9591L93.8768 95.7205C100.062 103.18 112.767 105.108 115.739 109.112C113.314 109.779 112.731 111.279 112.731 111.279C112.731 111.279 117.331 110.444 119.091 112.282C119.091 112.282 116.329 114.448 117.415 115.612C119.337 120.283 129.294 124.363 129.294 124.363C127.205 124.447 126.783 125.948 126.783 125.948C126.783 125.948 130.802 126.699 131.39 128.199L128.459 129.615C128.459 129.615 132.814 130.114 133.565 131.53C131.643 132.28 131.138 134.615 131.138 134.615C131.138 134.615 133.059 133.114 134.482 133.283C134.482 133.283 137.498 136.444 138.247 139.446C136.657 139.699 135.485 141.283 135.485 141.283C134.987 154.143 129.505 163.7 125.361 169.12C125.297 168.706 125.157 168.32 124.918 168.006C124.918 168.006 122.899 169.043 121.763 168.882C121.763 168.882 122.121 166.315 121.419 165.53C121.258 166.47 119.337 167.894 119.309 167.948C118.979 168.602 118.439 163.686 116.406 161.659C116.266 161.512 116.021 161.61 116.014 161.814C115.909 164.912 112.718 167.752 112.718 167.752C111.455 167.324 110.481 164.219 110.418 164.219C109.05 166.048 107.137 168.243 104.899 169.226C104.843 169.246 104.781 169.226 104.759 169.162C104.213 167.64 103.35 165.376 101.603 164.107C101.577 164.086 101.534 164.079 101.499 164.092C98.6035 165.102 95.6715 166.694 93.8355 170.515L93.6381 170.536C93.6035 170.263 93.5821 169.975 93.5621 169.695C93.2875 165.551 94.6555 160.867 94.6555 160.278C94.6555 160.152 94.5155 160.187 94.2555 160.342H94.2488C81.8728 162.375 76.1648 152.923 75.5408 151.808C75.4008 155.187 74.5875 158.272 74.3075 157.354C73.8728 155.952 71.6701 154.97 71.6701 154.97L72.2248 159.002C71.8461 159.367 71.4328 159.808 71.0115 160.286L70.8155 160.116C66.6568 162.263 62.8701 167.438 59.6528 173.067C59.0768 173.796 58.5861 174.596 58.1795 175.431C58.1101 175.578 57.8928 175.578 57.8288 175.423C56.7701 172.92 55.7888 170.382 54.8848 167.816C54.8421 167.675 54.6741 167.64 54.5688 167.746C53.2995 169.008 51.8061 170.039 50.1728 170.788C50.0181 170.859 49.8568 170.704 49.9128 170.536C50.1581 169.856 50.2981 169.134 50.3408 168.412C50.3475 168.251 50.1515 168.152 50.0181 168.251C48.5381 169.407 47.1648 170.382 45.2915 170.396C45.3488 170.108 45.3768 169.947 45.3768 169.947H43.7915L45.2075 167.451C46.2181 165.614 46.7995 160.944 46.7995 157.284C46.7995 153.616 45.1235 149.614 45.1235 149.614C45.1235 149.614 37.4675 141.78 33.9328 132.98L33.8835 133.002C34.9355 139.783 40.1941 148.428 40.1941 148.428C40.1941 148.428 38.4208 154.444 36.1555 160.74C36.1275 160.727 36.0928 160.734 36.0648 160.755C35.7701 161 34.8168 161.827 34.5221 162.571C34.4875 162.655 34.3608 162.662 34.3181 162.578C33.6448 161.428 33.4915 160.032 33.9048 158.812C33.9395 158.707 33.8341 158.616 33.7435 158.679C32.8528 159.303 31.5208 160.874 31.1981 161.26C31.1568 161.308 31.0795 161.316 31.0368 161.274C29.7048 160.131 30.4475 157.999 30.7075 157.368C30.7355 157.291 30.6728 157.207 30.5808 157.22C29.9995 157.312 28.3301 157.67 28.1475 158.812L27.8608 158.778C28.9261 149.614 27.0541 139.614 27.0541 139.614C24.8808 140.448 21.6128 138.864 21.6128 138.864C23.6261 137.027 24.4595 133.199 24.4595 133.199C23.7941 132.364 21.1995 134.194 21.1995 134.194L22.3701 129.699C21.3675 129.699 20.1128 131.446 20.1128 131.446C19.7755 130.114 20.5261 126.944 20.5261 126.944C19.3555 127.112 18.0155 128.36 18.0155 128.36C15.0075 121.032 16.1781 117.366 17.2661 112.366C17.0968 112.443 15.8421 112.527 13.9208 113.362C13.7528 111.694 17.3501 108.615 17.3501 108.615C15.8421 107.948 15.2608 105.53 15.2608 105.53C15.8768 105.151 16.3968 104.695 16.8168 104.247L16.8235 104.254C16.8235 104.254 21.0168 105.628 25.9608 110.718C30.6861 118.031 37.6488 123.627 43.6301 127.47Z" stroke="#414C6B" stroke-width="0.539" stroke-miterlimit="10" stroke-linecap="round" stroke-linejoin="round"/>
<path d="M28.9544 94.6964C28.9677 94.7658 28.9757 94.8364 28.9757 94.9071C28.9757 95.5511 28.449 96.0778 27.8037 96.0778C27.2224 96.0778 26.745 95.6498 26.6544 95.0964C27.377 94.9271 28.1477 94.7871 28.9544 94.6964" fill="#FF8795"/>
<path d="M27.8044 93.7358C28.379 93.7358 28.8564 94.1492 28.955 94.6958C28.1484 94.7878 27.3764 94.9278 26.655 95.0958C26.647 95.0332 26.6404 94.9705 26.6404 94.9065C26.6404 94.2612 27.159 93.7358 27.8044 93.7358Z" fill="#F27786"/>
<path d="M30.7004 72.9806C28.4844 72.1606 26.9697 70.1753 26.1497 68.83H26.143C24.299 69.398 20.891 68.002 22.7697 68.7873L22.7417 68.886C21.7604 68.57 19.635 67.7073 18.8364 66.0033C18.8364 66.0033 22.047 66.7193 22.6084 65.7513C22.6084 65.7513 21.3537 63.8646 20.779 62.33C20.9324 62.414 22.987 63.522 26.9284 62.07C27.4884 61.8593 24.095 60.05 23.8364 57.442C26.1004 58.662 29.2484 59.4193 31.023 59.202C31.051 59.1953 31.079 59.1953 31.107 59.1953C32.4817 59.0966 50.719 58.0593 60.4097 70.3646L60.6684 70.2033C61.0404 70.8206 61.391 71.3393 61.7697 71.7326C62.2324 72.202 62.723 72.5806 63.2137 72.8753L63.039 73.17C62.4004 75.582 61.4404 77.342 60.2764 78.5766C55.2484 83.9326 46.379 79.522 42.7884 76.1846L42.775 76.206C41.9964 75.498 41.2604 74.9646 40.615 74.734C37.8737 73.7726 34.5844 74.3126 31.1497 73.142C31.0017 73.0926 30.847 73.0366 30.7004 72.9806ZM49.8564 65.9966C48.3697 64.4326 42.7684 62.2593 41.891 63.374C41.3937 64.0126 41.4004 64.994 41.7017 65.99C42.143 67.5113 43.2657 69.054 44.2817 69.4046C45.4457 69.8046 47.571 69.398 48.9524 68.4086C49.5697 67.974 50.039 67.4126 50.207 66.7686C50.263 66.5433 50.1297 66.2766 49.8564 65.9966" fill="#D6A980"/>
<path d="M26.2618 91.2324C24.0458 91.5964 22.0405 92.3964 20.3085 93.3644C19.5512 93.7844 18.8432 94.2338 18.1912 94.6898C15.1405 96.8418 13.2752 99.1911 13.0165 99.5204C13.0165 99.5204 12.5952 93.2724 17.2658 89.7671L18.1912 88.6591C20.5258 90.3764 23.2818 91.5404 26.2272 91.0498L26.2618 91.2324Z" fill="#272C3D"/>
<path d="M28.3513 14.2635C25.834 14.2635 22.7207 18.3022 22.7207 18.3022L22.3633 18.2115C22.538 17.5875 22.7353 16.9635 22.9727 16.3595C23.5487 14.9022 24.3127 13.5689 25.3367 12.6089C25.6873 12.2862 26.9767 12.7275 28.6033 13.8569L28.3513 14.2635Z" fill="#EDBB8E"/>
<path d="M23.8357 104.022C24.4811 104.022 24.9997 104.547 24.9997 105.193C24.9997 105.838 24.4811 106.357 23.8357 106.357C23.7237 106.357 23.6117 106.343 23.5064 106.307C23.2464 105.775 23.0157 105.235 22.7904 104.681C22.9731 104.289 23.3731 104.022 23.8357 104.022Z" fill="#FF8795"/>
<path d="M25.9604 110.718C21.0164 105.628 16.8244 104.253 16.8244 104.253L16.8164 104.246C17.8897 103.11 18.3671 101.968 18.3671 101.968C18.5204 100.86 18.0164 99.1144 16.8444 98.0264C17.4271 97.3184 17.7497 96.3717 18.2537 94.7811L18.1911 94.6891C18.8431 94.2331 19.5511 93.7851 20.3084 93.3637L20.3577 93.4477C20.4137 94.7251 20.5471 96.0357 20.7511 97.3331C20.9537 98.6437 21.2337 99.9411 21.5844 101.196C21.9217 102.389 22.3284 103.552 22.7911 104.681C22.7071 104.836 22.6644 105.01 22.6644 105.193C22.6644 105.726 23.0217 106.168 23.5057 106.308C24.2217 107.844 25.0484 109.316 25.9604 110.718Z" fill="#272C3D"/>
<path d="M26.1497 68.8296C26.9697 70.1762 28.4844 72.1602 30.7004 72.9802C30.7004 72.9802 29.2004 75.3429 24.5231 75.7576C24.5231 75.7576 25.8831 74.0256 26.3737 72.7216C26.3737 72.7216 23.8351 75.1962 20.9604 74.8802C20.9604 74.8802 23.8431 72.5242 24.5857 71.3189C24.5857 71.3189 21.0244 73.0722 18.9631 70.5056C18.9631 70.5056 22.4124 70.6456 23.2537 69.0336C23.2537 69.0336 23.0577 68.9842 22.7417 68.8856L22.7697 68.7882C20.8911 68.0029 24.2991 69.3976 26.1431 68.8296H26.1497Z" fill="#BF9772"/>
<path d="M21.8444 20.4478C23.2964 23.0918 24.9857 26.6745 25.2591 29.4371C24.1577 28.0411 22.6644 26.9131 21.2617 26.0571C21.2697 25.3558 21.3537 23.0491 21.8444 20.4478Z" fill="#BF9772"/>
<path d="M28.3513 14.2635L28.6033 13.8568C29.3687 14.3902 30.202 15.0768 31.0513 15.9115C29.95 20.8475 25.8767 22.5088 25.8767 22.5088L25.666 22.6982C24.4807 21.3662 23.2113 20.0902 22.1393 19.0662C22.202 18.7862 22.2793 18.4982 22.3633 18.2115L22.7207 18.3022C22.7207 18.3022 25.834 14.2635 28.3513 14.2635Z" fill="#D6A980"/>
<path d="M16.817 170.179C22.6503 169.968 25.5676 167.416 25.5676 167.416C26.641 165.243 27.313 162.67 27.7063 159.984L27.805 159.998C27.805 159.998 27.805 167.95 25.9396 169.934C24.0676 171.918 16.8236 170.403 16.8236 170.403L16.817 170.179Z" fill="#EDBB8E"/>
<path d="M70.163 61.8318C70.0577 59.7065 67.9337 58.6065 67.9337 58.6065C67.9337 58.6065 68.9497 58.6972 70.135 59.1398C69.1257 52.6038 62.9617 50.8305 62.9617 50.8305C62.9617 50.8305 62.9404 49.2532 63.2217 47.8145C62.015 47.8225 60.2897 49.8065 60.2897 49.8065C60.2897 49.8065 60.1084 47.9758 60.2417 46.6518C58.2004 48.3132 57.3097 52.3305 57.3097 52.3305C57.3097 52.3305 63.011 53.9852 65.6964 61.1025C67.0004 60.6745 68.3604 61.0185 70.163 61.8318ZM21.2617 26.0572C22.6644 26.9132 24.1577 28.0412 25.259 29.4372C24.9857 26.6745 23.2964 23.0918 21.8444 20.4478C21.9284 19.9918 22.027 19.5358 22.139 19.0665C23.211 20.0905 24.4804 21.3665 25.6657 22.6985C27.3484 24.5785 28.8417 26.5692 29.347 28.1052C30.3497 26.0998 30.3497 22.7692 30.3497 22.7692C30.3497 22.7692 33.5964 24.9358 34.431 27.5158C35.3497 26.0572 35.847 24.5358 36.1204 23.3865C36.3724 22.3065 36.4217 21.5412 36.4284 21.4438C36.4284 21.4438 39.703 23.4772 40.951 26.8918L41.071 26.9132C40.9724 27.3972 40.895 27.8518 40.847 28.2798C40.5937 30.3905 40.839 31.7785 40.839 31.7785C46.835 35.3625 55.1724 32.7745 55.1724 32.7745L55.2204 32.7465C55.5364 33.3145 56.0484 33.7838 56.707 34.0305C57.331 34.2612 57.9897 34.2545 58.579 34.0585L58.643 34.2332C58.643 34.2332 63.5924 41.4132 70.527 42.3038C70.527 42.3038 73.3177 39.8145 74.587 35.0958L74.735 35.1372C74.8884 34.9198 77.399 31.4985 84.187 30.8532C82.2377 32.5438 81.059 34.2758 80.3377 35.6918C79.4257 37.4865 79.2644 38.7692 79.2644 38.7692C79.2644 38.7692 82.251 37.0732 85.287 37.5425C85.6164 37.5852 85.947 37.6625 86.2697 37.7678C82.4337 39.5198 80.603 43.1025 80.603 43.1025C80.8137 43.2292 84.5937 41.7145 92.6644 42.3532C94.8724 42.5278 97.4044 42.8572 100.264 43.4332C94.431 43.9372 89.9364 46.4332 89.9364 46.4332C89.9364 46.4332 93.351 46.3492 97.6004 47.4358C92.5164 48.1865 89.9364 49.7718 89.9364 49.7718C89.9364 49.7718 92.931 51.5172 94.599 54.4345C90.9324 52.9332 86.2697 53.7678 86.2697 53.7678C86.2697 53.7678 92.4324 58.5225 95.7697 65.4358C90.5177 61.5158 85.267 61.4398 85.267 61.4398C85.267 61.4398 90.3497 64.8532 90.5177 67.0198C88.6817 65.8492 83.9337 65.4358 83.9337 65.4358C83.9337 65.4358 89.2697 68.6892 90.603 72.4332C88.099 70.4358 85.267 70.7718 85.267 70.7718L85.0417 70.8905C83.9697 73.4718 82.8124 75.8065 81.5924 77.9105C80.267 80.2105 78.8644 82.2358 77.4137 84.0172C62.6884 102.123 42.571 95.7838 40.2924 94.9838L39.8724 95.3905C39.107 94.5705 38.203 93.8265 37.1377 93.1958C36.443 92.7825 35.6857 92.4172 34.851 92.1025C31.7444 90.9385 28.8564 90.7905 26.2617 91.2332L26.227 91.0505C23.2817 91.5412 20.5257 90.3772 18.191 88.6585C13.8644 85.4612 10.9764 80.3572 10.9764 80.3572L10.807 79.9638C10.955 79.8878 11.1097 79.8238 11.263 79.7678C9.01237 78.6878 5.59771 82.1025 5.59771 82.1025C4.67904 81.1852 5.26171 78.1065 5.26171 78.1065C5.26171 78.1065 7.59637 75.6865 10.5977 75.4345C9.09637 73.5198 3.26304 74.7692 3.26304 74.7692C3.26304 74.7692 6.26437 70.5198 10.2684 68.7665C7.26704 67.2665 2.26704 70.1052 2.26704 70.1052C1.09637 69.1865 1.6017 65.4358 1.6017 65.4358C1.6017 65.4358 4.51104 63.1852 9.93104 61.7692C8.01637 60.7665 3.26304 61.4398 3.26304 61.4398C3.26304 61.4398 5.68171 57.0212 12.595 56.4332C10.015 55.3532 5.59771 54.7705 5.59771 54.7705C5.59771 54.7705 11.7617 50.8518 17.931 49.7718C13.3457 47.7665 6.92971 48.4318 6.92971 48.4318C6.92971 48.4318 13.2617 44.9332 18.7657 44.6878C14.0337 41.5812 10.0217 42.3598 8.90704 42.6678C10.1764 42.2545 15.099 40.7198 17.2657 40.9358C16.263 39.4358 12.9324 39.0998 12.9324 39.0998C12.9324 39.0998 17.0417 36.3012 20.771 38.7212C20.799 38.7345 20.8204 38.7558 20.8484 38.7692C20.835 38.7412 20.8137 38.7212 20.799 38.6932C15.5337 30.3905 7.04838 27.3692 7.04838 27.3692C7.04838 27.3692 16.5577 25.1878 21.5777 29.4372C20.9537 27.5785 17.4764 24.3118 17.2657 24.1078C17.4484 24.1718 19.2564 24.8305 21.2617 26.0572V26.0572ZM24.523 75.7572C29.2004 75.3438 30.7004 72.9812 30.7004 72.9812C30.847 73.0372 31.0017 73.0932 31.1484 73.1425L31.0857 73.3172C31.0857 73.3172 30.5457 74.1092 30.139 75.2878C29.7257 76.4732 29.459 78.0638 30.0204 79.6345C30.0204 79.6345 32.4884 79.4318 33.8137 79.5932C33.8137 79.5932 33.8977 81.5705 32.6497 83.3865C32.6497 83.3865 35.2724 83.1972 36.695 81.6825C36.695 81.6825 37.151 84.0732 36.7724 85.9452C36.7724 85.9452 39.2764 85.4478 40.0617 83.0292C40.0617 83.0292 40.895 84.1932 40.3977 85.9452C40.3977 85.9452 43.0897 86.3665 45.3697 85.2652C46.5124 84.7252 47.543 83.7998 48.083 82.2572L48.2364 82.1105C49.0644 82.9865 49.815 83.6812 50.4177 83.9958C52.767 85.2238 55.9217 84.1572 55.9217 84.1572L55.943 84.1785L58.579 86.4438L59.6097 83.8772C60.487 84.5998 63.095 85.2718 63.095 85.2718C61.791 84.7812 61.531 82.4892 61.531 82.4892C61.531 82.4892 65.1217 84.8932 68.8804 82.7345C66.2644 82.4532 65.3524 79.8798 65.3524 79.8798C67.3857 79.4105 68.3257 77.7132 68.3257 77.7132C66.391 77.9385 64.2097 76.6345 64.2097 76.6345C66.6777 75.9465 68.0524 73.8572 68.0524 73.8572C68.0524 73.8572 65.5777 74.2705 63.2137 72.8758C62.723 72.5812 62.2324 72.2025 61.7697 71.7332C61.391 71.3398 61.0404 70.8212 60.6684 70.2038C59.771 68.7318 58.727 66.7118 56.6857 64.6505C57.051 64.3345 57.2897 63.8865 57.3177 63.3745C57.3804 62.3572 56.6084 61.4958 55.599 61.4318C54.891 61.3905 54.2604 61.7612 53.9164 62.3292C52.5777 61.3825 50.951 60.4718 48.9657 59.6372C46.343 58.5358 44.0017 58.1012 41.7644 58.0318C41.7724 58.0038 41.779 57.9758 41.779 57.9398C41.8417 56.9305 41.071 56.0612 40.0617 56.0052C39.051 55.9425 38.1817 56.7132 38.119 57.7225C38.1124 57.8838 38.1257 58.0385 38.1604 58.1852C35.875 58.4238 33.5897 58.8798 31.107 59.1958C31.079 59.1958 31.051 59.1958 31.023 59.2025C29.2484 59.4198 26.1004 58.6625 23.835 57.4425C24.095 60.0505 27.4884 61.8598 26.9284 62.0705C22.987 63.5212 20.9324 62.4132 20.779 62.3292C21.3537 63.8652 22.6084 65.7518 22.6084 65.7518C22.047 66.7185 18.8364 66.0038 18.8364 66.0038C19.635 67.7078 21.7604 68.5705 22.7417 68.8852C23.0577 68.9838 23.2537 69.0332 23.2537 69.0332C22.4124 70.6452 18.963 70.5052 18.963 70.5052C21.0244 73.0718 24.5857 71.3185 24.5857 71.3185C23.843 72.5252 20.9604 74.8812 20.9604 74.8812C23.835 75.1958 26.3737 72.7212 26.3737 72.7212C25.883 74.0252 24.523 75.7572 24.523 75.7572V75.7572ZM29.2564 45.1718C30.4964 45.6278 31.3737 46.2452 31.3737 46.2452C31.3737 46.2452 28.9257 45.6692 27.4044 47.2958C29.3897 47.8718 30.7137 48.5305 31.4577 49.7505C38.4417 45.9078 44.1204 48.4745 44.1204 48.4745C44.1204 48.4745 46.1404 44.6532 45.643 41.9465C44.8497 43.0892 43.455 44.4278 43.455 44.4278C43.455 44.4278 43.427 41.6732 42.4804 40.8452C41.723 42.1852 40.6284 43.4252 40.6284 43.4252C40.6284 43.4252 34.515 40.6425 29.2564 45.1718" fill="#414C6B"/>
<path d="M10.976 80.357C10.976 80.357 13.8653 85.461 18.1906 88.6597L17.2653 89.7664C13.8506 89.8517 10.268 92.7677 10.268 92.7677C10.268 92.7677 8.34664 88.5184 12.2666 86.1064C10.184 85.357 7.26664 88.4344 7.26664 88.4344C6.43198 87.769 6.26398 84.4384 6.26398 84.4384C6.26398 84.4384 7.77864 81.3317 10.808 79.965L10.976 80.357Z" fill="#272C3D"/>
<path d="M94.2558 160.341C94.5158 160.186 94.6558 160.152 94.6558 160.278C94.6558 160.868 93.2878 165.55 93.5611 169.694C93.5824 169.976 93.6038 170.262 93.6384 170.537C93.8211 171.96 94.2278 173.27 94.9918 174.281C93.7024 174.554 89.3971 175.08 85.2171 176.672C83.2891 177.401 81.3891 178.361 79.8251 179.63C79.2918 180.058 78.7944 180.521 78.3531 181.026C76.8731 182.722 75.9624 184.854 76.0811 187.533C76.0811 187.533 78.8438 186.033 79.9304 186.614C79.2651 188.368 80.2664 190.282 80.2664 190.282C80.2664 190.282 83.7798 186.285 84.9504 186.614C84.7824 189.202 86.7944 190.366 86.7944 190.366C86.7944 190.366 90.0558 187.533 91.3104 187.778C91.3104 189.202 92.9864 189.945 92.9864 189.945C92.9864 189.945 94.2424 187.197 94.9918 187.281C95.3291 188.613 97.3344 188.949 97.3344 188.949C97.3344 188.949 98.8411 185.198 100.013 184.945C101.352 186.033 104.03 185.949 104.03 185.949C104.03 185.949 104.612 183.529 107.206 182.449C109.246 181.594 111.645 181.362 113.145 181.7C114.905 180.697 115.41 178.285 115.41 178.285C115.41 178.285 117.416 178.614 117.921 179.617C117.921 179.617 121.77 177.864 122.773 176.945C122.941 175.445 123.776 173.782 124.778 172.949C124.834 172.9 124.89 172.857 124.953 172.801C126.005 172.009 127.905 171.118 129.798 171.196C131.054 167.612 134.82 163.278 134.82 163.278C133.48 161.946 134.482 158.945 134.482 158.945C134.482 158.945 138.753 157.2 139.84 154.282C139.293 153.477 138.844 152.494 138.501 151.478C137.736 149.241 137.441 146.816 137.497 145.616C137.533 144.936 137.744 144.228 137.989 143.618C138.368 142.664 138.837 141.949 138.837 141.949C138.164 140.617 135.485 141.282 135.485 141.282C135.485 141.282 136.657 139.698 138.248 139.446C137.497 136.445 134.482 133.282 134.482 133.282C133.06 133.114 131.138 134.614 131.138 134.614C131.138 134.614 131.642 132.28 133.564 131.529C132.814 130.113 128.46 129.616 128.46 129.616L131.39 128.198C130.801 126.698 126.784 125.948 126.784 125.948C126.784 125.948 127.204 124.448 129.294 124.364C129.294 124.364 119.337 120.282 117.416 115.613C116.329 114.449 119.092 112.282 119.092 112.282C117.332 110.445 112.732 111.28 112.732 111.28C112.732 111.28 113.314 109.778 115.74 109.113C112.766 105.109 100.061 103.181 93.8771 95.7198C93.6251 95.4185 93.3864 95.1025 93.1544 94.7811C91.4224 92.3398 92.7344 89.9425 92.7344 89.9425C92.7344 89.9425 90.0558 89.3598 88.3798 89.9425" stroke="black" stroke-width="0.75" stroke-miterlimit="10" stroke-linecap="round" stroke-linejoin="round"/>
<path d="M18.2543 94.7806C17.7489 96.3726 17.4276 97.3192 16.8449 98.0272C18.0156 99.1139 18.5209 100.859 18.3663 101.967C18.3663 101.967 17.8903 103.11 16.8169 104.246C16.3956 104.695 15.8769 105.151 15.2609 105.53C15.2609 105.53 15.8423 107.949 17.3503 108.615C17.3503 108.615 13.7529 111.693 13.9209 113.362C15.8423 112.527 17.0969 112.443 17.2649 112.366C16.1783 117.366 15.0076 121.033 18.0156 128.361C18.0156 128.361 19.3556 127.113 20.5263 126.943C20.5263 126.943 19.7756 130.114 20.1129 131.446C20.1129 131.446 21.3676 129.699 22.3703 129.699L21.1996 134.194C21.1996 134.194 23.7943 132.365 24.4596 133.198C24.4596 133.198 23.6249 137.027 21.6129 138.865C21.6129 138.865 24.8809 140.449 27.0543 139.614C27.0543 139.614 28.9263 149.614 27.8609 158.778C27.8183 159.185 27.7623 159.585 27.7063 159.983C27.3129 162.67 26.6409 165.242 25.5676 167.417C25.5676 167.417 22.6503 169.969 16.8169 170.179C16.2489 170.201 15.6463 170.193 15.0223 170.165C15.0223 170.165 15.6743 172.451 17.0129 173.615C17.0129 173.615 15.8423 174.702 14.8396 174.702C14.8396 174.702 18.6049 182.695 28.3089 181.034L29.7329 178.614L31.2409 180.613L34.7529 179.617C34.7529 179.617 33.4983 176.701 34.0796 175.95C35.3356 176.531 37.0956 175.283 37.0956 175.283C37.0956 175.283 35.5036 173.201 35.7556 171.946C35.7556 171.946 36.7583 172.697 37.5996 172.613C37.6769 169.863 40.0263 165.951 40.0263 165.951C39.0169 165.782 37.7609 163.946 37.7609 163.946C37.7609 163.946 40.0263 165.033 41.2743 164.611C41.2743 164.611 41.9409 162.507 42.8103 161.414C42.9916 161.19 42.8729 160.853 42.5996 160.762C41.8703 160.517 40.7476 160.026 40.2223 159.17C40.1809 159.101 40.1383 159.023 40.1036 158.946C42.1156 159.198 42.7823 158.449 42.7823 158.449C42.7823 158.449 43.1183 150.279 45.1236 149.614C45.1236 149.614 46.7996 153.617 46.7996 157.285C46.7996 160.945 46.2183 165.614 45.2076 167.451L43.7916 169.947H45.3756C45.3756 169.947 45.3476 170.109 45.2916 170.397C44.8289 172.822 42.5716 184.391 41.5263 186.699C41.1903 187.429 40.4743 187.989 39.5983 188.535C37.9569 189.553 35.7703 190.499 34.5783 192.33C34.4729 192.483 34.3809 192.638 34.2969 192.813C34.0236 193.339 33.8343 193.935 33.7503 194.615C34.0796 196.285 35.7556 197.617 35.7556 197.617C35.7556 197.617 37.5996 196.369 38.0983 195.947C38.0143 197.365 37.9303 198.535 37.9303 198.535C39.4369 198.451 41.1969 197.279 41.1969 197.279L41.5263 198.865C41.5263 198.865 51.4129 199.951 54.5969 196.614L52.9209 194.279C52.9209 194.279 54.5969 193.697 56.5183 194.615C56.4343 192.365 55.2623 190.282 55.2623 190.282C55.2623 190.282 56.2649 189.946 57.6889 191.285C58.0249 189.034 57.2756 185.949 57.2756 185.949C57.2756 185.949 59.6516 179.785 62.4289 173.923C63.7609 171.111 65.1849 168.37 66.4889 166.406C66.6716 166.133 66.8463 165.874 67.0223 165.635C67.0223 165.635 69.1463 166.302 69.7356 168.349C69.8329 168.678 69.8903 169.043 69.8903 169.45C71.5649 169.282 73.2409 167.283 73.2409 167.283C73.2409 167.283 75.0783 168.447 75.5836 169.029C77.0063 168.447 77.9249 167.283 77.9249 167.283C77.9249 167.283 79.8463 166.778 82.5249 168.118C87.5596 165.923 92.7769 161.218 94.2489 160.341" stroke="black" stroke-width="0.75" stroke-miterlimit="10" stroke-linecap="round" stroke-linejoin="round"/>
<path d="M20.3578 93.4482C20.4138 94.7242 20.5472 96.0362 20.7498 97.3322C20.9538 98.6442 21.2338 99.9415 21.5845 101.196C21.9218 102.388 22.3285 103.552 22.7912 104.682C23.0152 105.235 23.2472 105.775 23.5058 106.308C24.2218 107.844 25.0485 109.316 25.9605 110.719C30.6858 118.032 37.6485 123.627 43.6298 127.47C50.1512 131.663 55.5005 133.78 55.5005 133.78C56.4125 130.428 57.8498 127.435 59.5472 124.63C61.1245 122.022 62.9272 119.582 64.7432 117.176C67.3792 113.678 70.0512 110.242 72.0978 106.47C72.3858 105.943 72.6592 105.411 72.9192 104.863C73.0805 104.527 73.2418 104.183 73.3885 103.84C74.3978 101.547 75.1485 99.1069 75.5058 96.4429" stroke="black" stroke-width="0.75" stroke-miterlimit="10" stroke-linecap="round" stroke-linejoin="round"/>
<path d="M48.9521 68.4089C47.5708 69.3969 45.4468 69.8049 44.2828 69.4049C43.2655 69.0542 42.1441 67.5116 41.7015 65.9902C41.4001 64.9942 41.3935 64.0129 41.8908 63.3742C42.7681 62.2596 48.3708 64.4329 49.8561 65.9969C50.1295 66.2769 50.2628 66.5436 50.2068 66.7676C50.0388 67.4129 49.5695 67.9742 48.9521 68.4089Z" stroke="black" stroke-width="0.75" stroke-miterlimit="10" stroke-linecap="round" stroke-linejoin="round"/>
<path d="M36.4291 21.4437C36.4291 21.4437 39.7037 23.4771 40.9517 26.8917" stroke="black" stroke-width="0.75" stroke-miterlimit="10" stroke-linecap="round" stroke-linejoin="round"/>
<path d="M19.6356 16.7667C19.6356 16.7667 19.6422 16.7667 19.6502 16.7881C19.7622 16.8787 20.7862 17.7694 22.1396 19.0667C23.2116 20.0907 24.4809 21.3667 25.6662 22.6987C27.3489 24.5774 28.8422 26.5694 29.3476 28.1054C30.3502 26.1001 30.3502 22.7694 30.3502 22.7694C30.3502 22.7694 33.5969 24.9361 34.4302 27.5161C35.3489 26.0574 35.8476 24.5361 36.1209 23.3854C36.3729 22.3054 36.4222 21.5414 36.4289 21.4441V21.4361" stroke="black" stroke-width="0.75" stroke-miterlimit="10" stroke-linecap="round" stroke-linejoin="round"/>
<path d="M17.2516 24.101C17.2516 24.101 17.2583 24.101 17.2649 24.1076C17.4476 24.1716 19.2569 24.8303 21.2623 26.057C22.6649 26.913 24.1583 28.0423 25.2596 29.437C24.9863 26.6743 23.2956 23.0916 21.8449 20.4476C20.7436 18.449 19.7823 16.9836 19.6503 16.7876" stroke="black" stroke-width="0.75" stroke-miterlimit="10" stroke-linecap="round" stroke-linejoin="round"/>
<path d="M8.90755 42.6684C10.1769 42.2551 15.0995 40.7191 17.2662 40.9364C16.2635 39.4364 12.9329 39.0991 12.9329 39.0991C12.9329 39.0991 17.0409 36.3017 20.7715 38.7204C20.7995 38.7351 20.8209 38.7564 20.8489 38.7697C20.8342 38.7417 20.8142 38.7204 20.7995 38.6924C15.5342 30.3911 7.04755 27.3684 7.04755 27.3684C7.04755 27.3684 16.5569 25.1884 21.5782 29.4377C20.9542 27.5791 17.4755 24.3111 17.2662 24.1084" stroke="black" stroke-width="0.75" stroke-miterlimit="10" stroke-linecap="round" stroke-linejoin="round"/>
<path d="M8.59906 42.7667C8.59906 42.7667 8.62706 42.7601 8.68306 42.7387C8.68973 42.7387 8.69773 42.7321 8.71106 42.7321C8.73239 42.7241 8.76039 42.7107 8.79506 42.7041" stroke="black" stroke-width="0.75" stroke-miterlimit="10" stroke-linecap="round" stroke-linejoin="round"/>
<path d="M8.7953 42.7034C8.7673 42.7101 8.7393 42.7167 8.7113 42.7314" stroke="black" stroke-width="0.75" stroke-miterlimit="10" stroke-linecap="round" stroke-linejoin="round"/>
<path d="M8.79535 42.7034C8.83002 42.69 8.86602 42.682 8.90735 42.6687" stroke="black" stroke-width="0.75" stroke-miterlimit="10" stroke-linecap="round" stroke-linejoin="round"/>
<path d="M75.9408 91.4427C76.0461 91.6107 77.7715 94.3801 77.9315 97.7681C77.3928 97.0587 76.7475 96.4774 76.0808 96.0001C74.0901 94.5694 71.9301 94.1001 71.9301 94.1001C71.9301 94.1001 73.0515 98.1041 73.3888 103.84C73.4301 104.569 73.4581 105.327 73.4728 106.104C73.3048 105.677 73.1155 105.256 72.9181 104.863C70.1421 99.4227 64.3501 97.1014 64.3501 97.1014C64.3501 97.1014 65.3528 101.105 64.3501 104.772C61.6861 102.437 56.6021 102.101 56.6021 102.101C56.6021 102.101 56.3915 103.208 55.8515 104.625C55.4315 105.725 54.8075 107.009 53.9301 108.103C53.4328 105.439 50.5995 103.769 50.5995 103.769C50.5995 103.769 50.5155 106.273 49.2675 109.772C49.3515 106.771 47.2621 103.44 47.2621 103.44C47.3461 107.107 43.2661 114.105 43.2661 114.105C43.2661 114.105 43.4901 113.2 43.6795 111.749C43.7288 111.377 43.7781 110.971 43.8195 110.536C44.0928 107.563 44.0795 103.201 42.4248 99.3454C41.8208 97.9294 40.9941 96.5747 39.8715 95.3907C39.1075 94.5694 38.2035 93.8267 37.1368 93.1961C36.4435 92.7827 35.6861 92.4174 34.8515 92.1014C31.7448 90.9374 28.8568 90.7907 26.2621 91.2321C24.0461 91.5974 22.0408 92.3961 20.3088 93.3641C19.5515 93.7841 18.8435 94.2334 18.1915 94.6894C15.1408 96.8414 13.2755 99.1907 13.0168 99.5201C13.0168 99.5201 12.5955 93.2734 17.2661 89.7667C13.8515 89.8507 10.2675 92.7681 10.2675 92.7681C10.2675 92.7681 8.34614 88.5187 12.2661 86.1067C10.1835 85.3561 7.26747 88.4347 7.26747 88.4347C6.43281 87.7681 6.26481 84.4374 6.26481 84.4374C6.26481 84.4374 7.77814 81.3321 10.8075 79.9641C10.9555 79.8867 11.1088 79.8241 11.2635 79.7681C9.01281 78.6881 5.59814 82.1027 5.59814 82.1027C4.67948 81.1841 5.26081 78.1067 5.26081 78.1067C5.26081 78.1067 7.59681 75.6867 10.5968 75.4347C9.09681 73.5201 3.26348 74.7681 3.26348 74.7681C3.26348 74.7681 6.26481 70.5187 10.2675 68.7667C7.26747 67.2654 2.26747 70.1054 2.26747 70.1054C1.09681 69.1867 1.60081 65.4361 1.60081 65.4361C1.60081 65.4361 4.51148 63.1854 9.93147 61.7681C8.01681 60.7654 3.26348 61.4387 3.26348 61.4387C3.26348 61.4387 5.68214 57.0214 12.5955 56.4321C10.0155 55.3534 5.59814 54.7707 5.59814 54.7707C5.59814 54.7707 11.7608 50.8507 17.9315 49.7707C13.3461 47.7654 6.93014 48.4321 6.93014 48.4321C6.93014 48.4321 13.2621 44.9334 18.7661 44.6881C14.0328 41.5814 10.0221 42.3601 8.90747 42.6681" stroke="black" stroke-width="0.75" stroke-miterlimit="10" stroke-linecap="round" stroke-linejoin="round"/>
<path d="M79.2644 84.1015V84.1082C79.2644 84.3535 82.0764 89.9002 81.1858 94.8508C80.0431 92.8242 76.1444 91.5055 75.9404 91.4428L75.9338 91.4362" stroke="black" stroke-width="0.75" stroke-miterlimit="10" stroke-linecap="round" stroke-linejoin="round"/>
<path d="M81.9359 78.1062L81.9425 78.1129C82.1959 78.4009 87.8679 84.7529 88.9332 87.9369C89.3199 87.9236 89.0452 88.7996 88.2812 89.8716C87.4745 91.0222 86.0932 92.4036 84.3479 93.1889C82.6505 88.1609 79.4399 84.3116 79.2639 84.1089" stroke="black" stroke-width="0.75" stroke-miterlimit="10" stroke-linecap="round" stroke-linejoin="round"/>
<path d="M74.7277 35.1446C74.7277 35.1446 74.7277 35.1379 74.7344 35.1379C74.8891 34.9206 77.3997 31.4979 84.1864 30.8539C82.2371 32.5432 81.0597 34.2752 80.3371 35.6912C79.4251 37.4859 79.2637 38.7699 79.2637 38.7699C79.2637 38.7699 82.2517 37.0726 85.2877 37.5432C85.6171 37.5846 85.9464 37.6619 86.2691 37.7672C82.4331 39.5206 80.6037 43.1032 80.6037 43.1032C80.8144 43.2286 84.5931 41.7152 92.6637 42.3526C94.8731 42.5286 97.4037 42.8579 100.265 43.4326C94.4304 43.9379 89.9357 46.4339 89.9357 46.4339C89.9357 46.4339 93.3517 46.3499 97.5997 47.4366C92.5171 48.1872 89.9357 49.7712 89.9357 49.7712C89.9357 49.7712 92.9304 51.5179 94.5997 54.4339C90.9317 52.9339 86.2691 53.7686 86.2691 53.7686C86.2691 53.7686 92.4331 58.5219 95.7704 65.4352C90.5184 61.5166 85.2664 61.4392 85.2664 61.4392C85.2664 61.4392 90.3504 64.8539 90.5184 67.0206C88.6811 65.8499 83.9344 65.4352 83.9344 65.4352C83.9344 65.4352 89.2704 68.6899 90.6024 72.4339C88.0997 70.4352 85.2664 70.7712 85.2664 70.7712C85.2664 70.7712 89.5157 73.6886 89.6837 75.4352C88.0157 74.8526 85.6024 75.7712 85.6024 75.7712L88.9331 78.4352C88.9331 78.4352 89.5997 82.4392 88.5971 83.7712C86.9637 80.5672 82.0904 78.1832 81.9424 78.1139" stroke="black" stroke-width="0.75" stroke-miterlimit="10" stroke-linecap="round" stroke-linejoin="round"/>
<path d="M36.0014 23.3579C34.7667 20.2379 32.888 17.7272 31.0507 15.9112C30.2027 15.0765 29.368 14.3899 28.604 13.8565C26.9774 12.7272 25.6867 12.2859 25.336 12.6085C24.312 13.5699 23.548 14.9019 22.9734 16.3605C22.7347 16.9632 22.5387 17.5872 22.3627 18.2112C22.2787 18.4979 22.2014 18.7859 22.1387 19.0659C22.0267 19.5365 21.928 19.9925 21.844 20.4485C21.3534 23.0499 21.2694 25.3565 21.2627 26.0579C21.2547 26.1979 21.2547 26.2752 21.2547 26.2752" stroke="black" stroke-width="0.789" stroke-miterlimit="10"/>
<path d="M80.3372 35.6915C80.3372 35.6915 81.2839 35.0542 82.8546 34.2755C85.4132 32.9995 89.6412 31.3368 94.0879 31.4422C94.0879 31.4422 94.3679 33.0475 94.2692 35.3062C94.1932 37.3328 93.8146 39.8782 92.6706 42.2755" stroke="black" stroke-width="0.75" stroke-miterlimit="10" stroke-linecap="round" stroke-linejoin="round"/>
<path d="M55.1718 32.7746C55.1718 32.7746 46.8344 35.3626 40.8398 31.7786C40.8398 31.7786 40.5944 30.3906 40.8464 28.28C40.8958 27.852 40.9731 27.396 41.0704 26.9133C41.3024 25.7493 41.7024 24.4373 42.3398 23.0706C43.3424 20.9173 44.9478 18.604 47.5011 16.444C47.5011 16.444 48.1664 16.7533 49.1691 17.412C49.8491 17.8533 50.6838 18.464 51.5744 19.2413C52.4438 20.0066 53.3691 20.9386 54.2531 22.0533C55.2704 23.3293 56.2304 24.8373 57.0011 26.6106" stroke="black" stroke-width="0.75" stroke-miterlimit="10" stroke-linecap="round" stroke-linejoin="round"/>
<path d="M58.6413 34.166C58.6413 34.166 63.5333 41.386 70.46 42.3326C70.46 42.3326 73.272 39.866 74.5786 35.158C74.8533 34.1646 75.0653 33.0646 75.1733 31.8673C75.2746 30.6193 75.2573 29.266 75.08 27.8126C75.0213 27.2873 74.9346 26.746 74.8266 26.1913C74.8266 26.1913 68.0946 24.5246 61.1093 28.1766" stroke="black" stroke-width="0.75" stroke-miterlimit="10" stroke-linecap="round" stroke-linejoin="round"/>
<path d="M75.0853 0.814704C75.0853 0.814704 75.0787 0.814703 75.072 0.82137C74.7493 1.0387 69.5387 4.5307 68.088 9.19337C68.088 9.19337 74.6507 4.44004 81.2133 6.44537C81.2133 6.44537 76.0253 8.38004 72.716 13.5694C72.716 13.5694 74.58 13.156 76.88 13.0507C78.9493 12.9587 81.368 13.12 83.0853 14.0667C83.0853 14.0667 78.2547 15.96 77.9387 16.956C77.9387 16.956 84.5227 16.128 86.3387 18.0707C86.3387 18.0707 79.152 19.1294 77.2093 23.0707C77.2093 23.0707 81.712 23.82 83.7093 26.8214C83.7093 26.8214 77.9387 26.212 75.2533 27.712" stroke="black" stroke-width="0.75" stroke-miterlimit="10" stroke-linecap="round" stroke-linejoin="round"/>
<path d="M49.3098 17.1945C48.7284 12.0478 44.0511 8.66113 44.0511 8.66113C44.0511 8.66113 49.0644 8.09979 51.0631 11.3465C51.0631 11.3465 52.0871 6.69046 48.9591 0.569126C48.9591 0.569126 53.2084 3.19179 54.4631 6.44512C54.4631 6.44512 54.3378 2.75713 53.3351 0.695793C53.3351 0.695793 57.0231 5.07046 58.2151 9.44646C58.2151 9.44646 59.0218 4.19446 60.9631 2.56779C60.9631 2.56779 60.0244 6.56379 61.4618 10.8211C61.4618 10.8211 67.0778 3.07313 75.0711 0.821126" stroke="black" stroke-width="0.75" stroke-miterlimit="10" stroke-linecap="round" stroke-linejoin="round"/>
<path d="M31.107 59.1953C33.5897 58.8793 35.875 58.4246 38.1604 58.186C39.3457 58.0526 40.5377 57.99 41.7644 58.0313C44.0017 58.102 46.3444 58.5366 48.9657 59.6366C50.951 60.4713 52.5777 61.3833 53.9164 62.33C55.011 63.0873 55.9217 63.8726 56.6857 64.65C58.727 66.7126 59.771 68.7313 60.6684 70.2046C61.0404 70.8206 61.391 71.3393 61.7697 71.7326C62.2324 72.202 62.723 72.5806 63.2137 72.8753C65.5777 74.2713 68.0524 73.8566 68.0524 73.8566C68.0524 73.8566 66.6777 75.9473 64.2097 76.634C64.2097 76.634 66.391 77.938 68.3257 77.714C68.3257 77.714 67.3857 79.41 65.3524 79.8806C65.3524 79.8806 66.2644 82.454 68.8804 82.734C65.1217 84.894 61.531 82.4886 61.531 82.4886C61.531 82.4886 61.791 84.782 63.095 85.2726C63.095 85.2726 60.487 84.5993 59.6097 83.8766L58.579 86.4433L55.943 84.178L55.9217 84.158C55.9217 84.158 52.767 85.2233 50.4177 83.9966C49.815 83.6806 49.0644 82.9873 48.2364 82.11C46.5617 80.3366 44.5564 77.826 42.775 76.206C41.9964 75.498 41.2604 74.9646 40.615 74.734C37.8737 73.7726 34.5844 74.3126 31.1484 73.142C31.0017 73.0926 30.847 73.0366 30.7004 72.9806C30.7004 72.9806 29.2004 75.3433 24.523 75.758C24.523 75.758 25.883 74.026 26.3737 72.7206C26.3737 72.7206 23.835 75.1966 20.9604 74.8806C20.9604 74.8806 23.843 72.5246 24.5857 71.3193C24.5857 71.3193 21.0244 73.0713 18.963 70.506C18.963 70.506 22.4124 70.646 23.2537 69.0326C23.2537 69.0326 23.0577 68.9833 22.7417 68.886C21.7604 68.57 19.635 67.7073 18.8364 66.0033C18.8364 66.0033 22.047 66.7193 22.6084 65.7513C22.6084 65.7513 21.3537 63.8646 20.779 62.33L20.771 62.3233" stroke="black" stroke-width="0.75" stroke-miterlimit="10" stroke-linecap="round" stroke-linejoin="round"/>
<path d="M20.7785 62.3295C20.9332 62.4135 22.9878 63.5215 26.9278 62.0708C27.4892 61.8602 24.0958 60.0508 23.8358 57.4428C26.1012 58.6628 29.2492 59.4202 31.0225 59.2028" stroke="black" stroke-width="0.75" stroke-miterlimit="10" stroke-linecap="round" stroke-linejoin="round"/>
<path d="M30.7004 72.9807C28.4844 72.1607 26.9697 70.1754 26.1497 68.83V68.822C25.6804 68.0367 25.4417 67.4687 25.4417 67.4687" stroke="black" stroke-width="0.75" stroke-miterlimit="10" stroke-linecap="round" stroke-linejoin="round"/>
<path d="M55.9009 84.1925C55.9143 84.1858 55.9289 84.1858 55.9436 84.1792C57.4996 83.6805 59.6876 82.7765 61.4889 80.3152" stroke="black" stroke-width="0.75" stroke-miterlimit="10" stroke-linecap="round" stroke-linejoin="round"/>
<path d="M31.086 73.3172C31.086 73.3172 30.546 74.1092 30.1393 75.2879C29.726 76.4732 29.4593 78.0639 30.0207 79.6345C30.0207 79.6345 32.4887 79.4319 33.814 79.5932C33.814 79.5932 33.898 81.5705 32.65 83.3865C32.65 83.3865 35.2727 83.1972 36.6953 81.6825C36.6953 81.6825 37.1513 84.0732 36.7727 85.9452C36.7727 85.9452 39.2753 85.4479 40.0607 83.0292C40.0607 83.0292 40.8953 84.1919 40.398 85.9452C40.398 85.9452 43.09 86.3665 45.3687 85.2652C46.5127 84.7252 47.5433 83.7999 48.0833 82.2572" stroke="black" stroke-width="0.75" stroke-miterlimit="10" stroke-linecap="round" stroke-linejoin="round"/>
<path d="M94.992 174.281C94.992 174.281 99.964 173.698 107.964 173.075" stroke="black" stroke-width="0.75" stroke-miterlimit="10" stroke-linecap="round" stroke-linejoin="round"/>
<path d="M66.4608 166.385C67.4568 164.787 69.3288 162.2 71.0115 160.285C71.4315 159.808 71.8461 159.367 72.2248 159.001L71.6701 154.971C71.6701 154.971 73.8728 155.952 74.3075 157.355C74.5875 158.273 75.4008 155.188 75.5408 151.808" stroke="black" stroke-width="0.75" stroke-miterlimit="10" stroke-linecap="round" stroke-linejoin="round"/>
<path d="M45.1238 149.613C45.1238 149.613 37.4664 141.781 33.9331 132.981C33.5758 132.091 33.2598 131.187 32.9998 130.281" stroke="black" stroke-width="0.75" stroke-miterlimit="10" stroke-linecap="round" stroke-linejoin="round"/>
<path d="M41.7651 58.0313C41.7717 58.0033 41.7784 57.9753 41.7784 57.9406C41.8424 56.93 41.0704 56.0606 40.0611 56.0046C39.0517 55.942 38.1824 56.7126 38.1184 57.7233C38.1117 57.8846 38.1264 58.038 38.1611 58.186" fill="black"/>
<path d="M41.7651 58.0313C41.7717 58.0033 41.7784 57.9753 41.7784 57.9406C41.8424 56.93 41.0704 56.0606 40.0611 56.0046C39.0517 55.942 38.1824 56.7126 38.1184 57.7233C38.1117 57.8846 38.1264 58.038 38.1611 58.186" stroke="black" stroke-width="0.394" stroke-miterlimit="10" stroke-linecap="round" stroke-linejoin="round"/>
<path d="M56.6863 64.6505C57.0503 64.3345 57.2889 63.8865 57.3169 63.3745C57.3809 62.3572 56.6089 61.4958 55.5996 61.4318C54.8916 61.3905 54.2596 61.7612 53.9169 62.3292" fill="black"/>
<path d="M56.6863 64.6505C57.0503 64.3345 57.2889 63.8865 57.3169 63.3745C57.3809 62.3572 56.6089 61.4958 55.5996 61.4318C54.8916 61.3905 54.2596 61.7612 53.9169 62.3292" stroke="black" stroke-width="0.394" stroke-miterlimit="10" stroke-linecap="round" stroke-linejoin="round"/>
<path d="M20.5823 38.9453C20.5823 38.9453 20.6449 38.8679 20.7716 38.7213C20.7783 38.7133 20.7929 38.7066 20.7996 38.6933C21.7956 37.5853 26.1569 33.1533 33.0009 32.2773" stroke="black" stroke-width="0.75" stroke-miterlimit="10" stroke-linecap="round" stroke-linejoin="round"/>
<path d="M86.0028 53.9435C85.3362 51.7768 85.1682 49.6101 82.0055 46.9461" stroke="black" stroke-width="0.75" stroke-miterlimit="10" stroke-linecap="round" stroke-linejoin="round"/>
<path d="M79.2293 172.507C79.2293 172.507 79.2293 172.513 79.2227 172.52C79.1587 172.731 78.2333 175.648 79.692 175.312L81.2133 174.961L81.796 172.268L82.9667 173.909L84.3693 172.037C84.3693 172.037 91.128 169.316 93.5613 169.695C93.576 169.695 93.5893 169.701 93.604 169.701" stroke="black" stroke-width="0.75" stroke-miterlimit="10" stroke-linecap="round" stroke-linejoin="round"/>
<path d="M69.7003 168.356C69.7003 168.356 64.8829 172.822 66.2856 176.594C66.4123 176.938 72.7989 178.116 77.5883 175.774L79.2216 172.521" stroke="black" stroke-width="0.75" stroke-miterlimit="10" stroke-linecap="round" stroke-linejoin="round"/>
<path d="M24.2985 66.5087C24.2985 66.5087 24.8239 65.5767 26.1705 65.9274" stroke="black" stroke-width="0.526" stroke-linecap="round" stroke-linejoin="round"/>
<path d="M61.6016 78.7165C61.6016 78.7165 61.8323 78.6738 62.135 78.7658C62.4856 78.8632 62.927 79.1232 63.235 79.7965" stroke="black" stroke-width="0.526" stroke-linecap="round" stroke-linejoin="round"/>
<path d="M54.4495 31.2952C54.4495 31.2952 49.8281 32.7326 46.0988 31.0712C45.7415 30.9099 45.4748 30.6152 45.3415 30.2646C45.2775 30.1099 45.2428 29.9419 45.2361 29.7739C45.2361 29.5699 45.2361 29.3392 45.2495 29.0792C45.3055 28.1686 45.4948 26.9406 46.0561 25.5872C46.5681 24.3326 47.3881 22.9726 48.7068 21.6606C49.2041 21.1632 49.9895 21.1072 50.5788 21.4992C51.1335 21.8779 51.8695 22.4326 52.6401 23.1686C53.7828 24.2619 55.0175 25.7699 55.8521 27.6912" stroke="black" stroke-width="0.526" stroke-miterlimit="10"/>
<path d="M58.5795 34.0579C57.9901 34.2539 57.3315 34.2606 56.7075 34.0299C56.0488 33.7846 55.5368 33.3153 55.2208 32.7473C54.9821 32.3126 54.8635 31.8206 54.8768 31.3166C54.8768 31.1553 54.8981 30.9873 54.9328 30.8259C54.9608 30.6846 54.9968 30.5379 55.0528 30.3979L55.8101 28.3433C55.8661 28.2033 55.9288 28.0633 55.9995 27.9366C56.2515 27.4953 56.6155 27.1366 57.0435 26.8846C57.7448 26.4779 58.6208 26.3793 59.4488 26.6886C60.2061 26.9686 60.7675 27.5366 61.0621 28.2246L61.2861 29.2406V29.3313C61.2861 29.4646 61.2715 29.6059 61.2515 29.7379C61.2235 29.9353 61.1741 30.1313 61.1035 30.3206L60.3395 32.3686C60.2768 32.5299 60.2061 32.6833 60.1155 32.8313C59.7648 33.4273 59.2101 33.8553 58.5795 34.0579Z" stroke="black" stroke-width="0.75" stroke-miterlimit="10" stroke-linecap="round" stroke-linejoin="round"/>
<path d="M61.5945 29.2337C62.0439 29.059 62.4985 28.911 62.9479 28.7923C65.8372 28.0203 68.5572 28.371 70.0012 28.6657C70.6532 28.799 71.1305 29.367 71.1652 30.0323C71.1932 30.6577 71.1799 31.2457 71.1239 31.8003C70.8852 34.4363 69.8692 36.3163 68.9572 37.5003C68.6759 37.879 68.4025 38.1803 68.1652 38.419C67.7585 38.8403 67.1412 38.987 66.5945 38.7763C62.6252 37.2617 60.1359 32.8443 60.1359 32.8443" stroke="black" stroke-width="0.526" stroke-miterlimit="10"/>
<path d="M68.7224 58.8791C68.7224 58.8791 70.0824 59.6658 70.1878 61.7898C68.3864 60.9765 67.0264 60.6338 65.7211 61.0605C63.0358 53.9431 57.3358 52.2885 57.3358 52.2885C57.3358 52.2885 58.2264 48.2711 60.2664 46.6098C60.1331 47.9351 60.3158 49.7645 60.3158 49.7645C60.3158 49.7645 62.0411 47.7805 63.2464 47.7738C62.9664 49.2111 62.9864 50.7885 62.9864 50.7885C62.9864 50.7885 69.1504 52.5631 70.1598 59.0978C68.9758 58.6565 68.7224 58.8791 68.7224 58.8791Z" fill="#D6A980"/>
<path d="M68.7224 58.8791C68.7224 58.8791 70.0824 59.6658 70.1878 61.7898C68.3864 60.9765 67.0264 60.6338 65.7211 61.0605C63.0358 53.9431 57.3358 52.2885 57.3358 52.2885C57.3358 52.2885 58.2264 48.2711 60.2664 46.6098C60.1331 47.9351 60.3158 49.7645 60.3158 49.7645C60.3158 49.7645 62.0411 47.7805 63.2464 47.7738C62.9664 49.2111 62.9864 50.7885 62.9864 50.7885C62.9864 50.7885 69.1504 52.5631 70.1598 59.0978C68.9758 58.6565 68.7224 58.8791 68.7224 58.8791Z" stroke="#D6A980" stroke-width="0.539" stroke-miterlimit="10" stroke-linejoin="round"/>
<path d="M43.4549 44.4282C43.4549 44.4282 44.8509 43.0896 45.6429 41.9456C46.1402 44.6522 44.1216 48.4736 44.1216 48.4736C44.1216 48.4736 38.4416 45.9082 31.4576 49.7509C30.7149 48.5309 29.3896 47.8709 27.4042 47.2962C28.9269 45.6696 31.3736 46.2442 31.3736 46.2442C31.3736 46.2442 30.4976 45.6269 29.2562 45.1709C34.5149 40.6416 40.6296 43.4256 40.6296 43.4256C40.6296 43.4256 41.7229 42.1842 42.4802 40.8456C43.4269 41.6722 43.4549 44.4282 43.4549 44.4282Z" fill="#D6A980"/>
<path d="M43.4549 44.4282C43.4549 44.4282 44.8509 43.0896 45.6429 41.9456C46.1402 44.6522 44.1216 48.4736 44.1216 48.4736C44.1216 48.4736 38.4416 45.9082 31.4576 49.7509C30.7149 48.5309 29.3896 47.8709 27.4042 47.2962C28.9269 45.6696 31.3736 46.2442 31.3736 46.2442C31.3736 46.2442 30.4976 45.6269 29.2562 45.1709C34.5149 40.6416 40.6296 43.4256 40.6296 43.4256C40.6296 43.4256 41.7229 42.1842 42.4802 40.8456C43.4269 41.6722 43.4549 44.4282 43.4549 44.4282Z" stroke="#D6A980" stroke-width="0.539" stroke-miterlimit="10" stroke-linejoin="round"/>
</svg>
