<svg width="173" height="167" viewBox="0 0 173 167" fill="none" xmlns="http://www.w3.org/2000/svg">
<path d="M169.394 71.7673C171.064 80.4393 167.908 92.67 167.61 100.67C167.313 108.671 170.853 123.205 171.764 127.502C169.662 137.727 169.01 152.626 169.193 156.482C166.968 158.554 164.77 161.518 161.873 161.815C158.986 162.113 155.168 161.077 154.506 159.293C154.113 158.257 155.072 156.99 156.309 155.878C156.981 158.582 163.169 158.065 164.905 155.245C166.66 152.366 166.344 141.814 166.977 129.986C167.409 121.995 165.058 111.117 164.742 102.646C164.425 94.166 169.701 83.4606 168.578 68.4286L168.626 68.4193C168.962 69.6566 169.202 70.798 169.394 71.7673Z" fill="#BDAF99"/>
<path d="M51.5365 129.718C47.9779 128.318 43.4019 125.727 38.2219 120.979C29.6365 113.112 23.4685 100.296 21.1272 91.0777C21.9525 90.9337 35.3059 88.391 44.7165 79.0963C33.2045 86.895 20.1392 82.7843 20.1392 82.7843C17.5779 80.895 16.5805 78.5203 16.3885 75.8537H16.4165C16.4165 75.8537 21.5685 78.371 28.2832 77.4123C35.2192 76.4243 36.1685 73.4777 40.3992 72.9883C47.1432 72.2017 51.0379 67.571 51.4979 66.9857L50.9899 66.835C52.1405 65.9043 52.6299 64.951 51.8525 64.1163C50.7312 62.9177 49.4072 61.6777 47.6512 59.2883C46.0405 57.0923 44.0632 53.9497 41.5605 49.0097C36.8112 39.675 28.4845 36.531 25.9619 35.571C23.4485 34.6123 17.8845 34.067 14.6899 35.2563C12.0805 36.2243 7.12188 40.551 4.86722 42.7003C4.91522 42.3937 5.48188 38.8737 7.31388 35.1897C6.29655 33.6257 6.53655 25.1937 11.5152 17.251C12.0325 16.4257 12.5992 15.6017 13.2325 14.795L13.3379 14.8723C18.1339 10.075 26.1245 7.03501 27.0845 11.6683C27.0845 11.6683 44.5139 -0.159651 58.2605 8.78968L58.8365 8.88568C58.6445 10.191 58.6739 11.2937 58.6739 11.2937C58.6739 11.2937 62.1939 9.52835 64.1419 11.4763C64.5539 11.8977 64.8992 12.483 65.1205 13.2897C66.3859 17.8843 62.7499 18.9977 62.6739 23.151C62.6645 23.6203 62.7499 24.1097 62.9139 24.6083C64.1992 28.5137 70.2139 32.8777 72.9099 31.3043C73.0059 29.031 75.6819 25.491 77.8205 22.6043C78.4059 23.2563 84.1712 29.9044 84.2579 39.7457C84.2765 59.0763 77.0819 66.5097 75.4125 77.6577C80.4392 60.3897 86.6752 60.8697 85.7152 39.535L85.6485 39.2857C93.5819 37.1177 95.4712 45.0897 95.4712 45.0897C95.4712 45.0897 95.5965 45.0603 95.8365 45.023L95.9125 45.5217C96.9965 58.1163 86.0805 79.9403 84.7565 85.331C92.2005 68.7937 97.9565 61.7137 97.3525 45.0417L97.3045 44.763C103.146 43.7657 121.977 41.003 139.158 43.459C159.965 46.4323 166.363 59.9683 168.627 68.419L168.579 68.4297C169.701 83.4603 164.425 94.167 164.742 102.647C165.058 111.118 167.409 121.995 166.977 129.986C166.343 141.814 166.661 152.367 164.905 155.244C163.169 158.064 156.981 158.583 156.31 155.878C156.377 155.81 156.443 155.752 156.511 155.695C158.161 154.238 160.205 153.076 160.205 153.076L160.061 141.363C160.061 141.363 152.155 140.059 144.357 133.66C136.481 127.195 131.637 119.194 131.637 119.194L131.646 118.955C131.646 118.955 120.126 117.88 105.506 115.434C68.6979 109.266 69.3125 123.252 71.7965 130.447C71.7579 130.456 71.7205 130.456 71.6912 130.466C69.2925 130.946 70.7312 144.212 70.0885 149.326C69.8872 150.986 69.5419 152.616 69.1005 154.103C68.1699 157.211 66.7992 159.656 65.2925 160.204C61.3019 161.643 58.2605 158.764 58.2605 158.764L58.1459 158.679C59.1632 157.383 60.6779 156.251 62.5299 155.071C63.2112 153.239 62.3859 147.09 61.4072 141.516C60.4765 136.174 59.4125 131.358 59.4125 131.358C59.4125 131.358 56.4379 131.655 51.5365 129.718Z" fill="#E6D5BA"/>
<path d="M160.06 141.363C160.06 141.363 152.156 140.058 144.356 133.661C136.482 127.194 131.636 119.194 131.636 119.194C131.636 119.194 131.339 119.367 130.802 119.674C129.795 120.239 127.924 121.286 125.498 122.551L126.12 122.753C126.12 122.753 138.275 139.435 151.608 142.543C152.875 143.762 156.108 149.651 153.872 154.601C149.872 156.846 147.475 153.162 147.475 153.162L147.196 153.095C146.188 153.834 145.344 154.879 145.239 156.329C145.028 159.034 149.978 160.185 151.608 160.041C153.24 159.887 154.506 159.293 154.506 159.293C154.112 158.257 155.072 156.99 156.31 155.877C156.376 155.81 156.444 155.753 156.511 155.695C158.162 154.237 160.204 153.077 160.204 153.077L160.06 141.363Z" fill="#BDAF99"/>
<path d="M151.609 142.543C152.876 143.762 156.108 149.651 153.873 154.602C149.873 156.846 147.474 153.162 147.474 153.162L147.196 153.095C148.885 151.849 151.024 151.446 151.024 151.446C151.024 151.446 152.357 147.733 151.609 142.543" fill="#E6D5BA"/>
<path d="M131.646 118.954L131.637 119.194C131.637 119.194 131.34 119.366 130.802 119.674L130.688 119.434C100.873 132.912 74.7797 130.062 71.7971 130.446C69.3117 123.252 68.6984 109.265 105.506 115.434C120.125 117.88 131.646 118.954 131.646 118.954Z" fill="#F5E7D3"/>
<path d="M97.352 45.0415C97.956 61.7135 92.2 68.7935 84.756 85.3309C86.08 79.9402 96.9973 58.1162 95.9133 45.5215L95.836 45.0229C96.1426 44.9655 96.6426 44.8682 97.304 44.7629L97.352 45.0415Z" fill="#BDAF99"/>
<path d="M85.7159 39.5353C86.6745 60.87 80.4399 60.39 75.4132 77.6566C77.0825 66.51 84.2772 59.0753 84.2572 39.746C84.7372 39.554 85.2079 39.4006 85.6492 39.286L85.7159 39.5353Z" fill="#BDAF99"/>
<path d="M76.9768 8.03236C76.2475 6.89102 75.2595 5.93103 74.1275 5.19236C74.5408 6.09503 78.4355 14.6604 76.9675 18.067C76.6408 18.8244 76.1328 19.7737 75.4701 20.7617C72.9675 24.4937 68.2755 28.715 63.0581 24.5417L62.9141 24.6084C64.1995 28.5137 70.2141 32.8777 72.9088 31.3044C73.0048 29.031 75.6821 25.491 77.8208 22.6044C78.8288 21.2417 79.7208 20.023 80.1715 19.151C81.5715 16.407 79.7301 12.3017 76.9768 8.03236Z" fill="#4D4233"/>
<path d="M76.9768 8.03236C76.2475 6.89102 75.2595 5.93103 74.1275 5.19236C74.5408 6.09503 78.4355 14.6604 76.9675 18.067C76.6408 18.8244 76.1328 19.7737 75.4701 20.7617C72.9675 24.4937 68.2755 28.715 63.0581 24.5417L62.9141 24.6084C64.1995 28.5137 70.2141 32.8777 72.9088 31.3044C73.0048 29.031 75.6821 25.491 77.8208 22.6044C78.8288 21.2417 79.7208 20.023 80.1715 19.151C81.5715 16.407 79.7301 12.3017 76.9768 8.03236Z" stroke="#4D4233" stroke-width="0.135" stroke-miterlimit="10"/>
<path d="M130.687 119.434C100.872 132.913 74.7804 130.063 71.7964 130.447C71.7577 130.457 71.7204 130.457 71.691 130.466C69.2924 130.946 70.7324 144.213 70.0897 149.326C69.887 150.985 69.5417 152.615 69.1004 154.102C68.171 157.211 66.799 159.657 65.2924 160.203C61.3017 161.642 58.2604 158.765 58.2604 158.765L58.1457 158.678C57.9444 158.927 57.7617 159.187 57.6084 159.446C57.139 160.233 56.8417 161.077 56.7457 162.035C56.611 163.407 60.899 165.595 64.007 165.001C66.367 164.549 69.1964 162.035 70.0897 161.143C70.9817 160.261 71.279 154.918 71.279 154.918C71.279 154.918 71.2977 154.87 71.327 154.783C71.567 154.198 72.5164 151.753 72.9097 150.323C73.303 148.874 73.5804 136.998 73.639 134.379C73.6484 134.054 73.6484 133.871 73.6484 133.871C73.6484 133.871 86.099 135.502 99.5097 132.835C108.106 131.127 118.868 126.005 125.498 122.551C127.924 121.286 129.795 120.239 130.802 119.674L130.687 119.434Z" fill="#BDAF99"/>
<path d="M74.1277 5.1929C74.1277 5.1929 74.1277 5.17423 74.1184 5.18356C71.1637 3.19823 67.2491 2.5929 64.4584 3.51423C62.3091 4.21423 60.3904 5.01023 59.6517 6.1809C59.5851 6.2769 59.5371 6.3729 59.4891 6.47823C59.1531 7.22623 58.9611 8.09023 58.8371 8.88623C58.6451 10.1902 58.6731 11.2942 58.6731 11.2942C58.6731 11.2942 62.1944 9.5289 64.1411 11.4769C64.5544 11.8982 64.8997 12.4836 65.1197 13.2889C66.3864 17.8836 62.7504 18.9969 62.6744 23.1502C62.6637 23.6209 62.7504 24.1102 62.9144 24.6089L63.0571 24.5422C68.2757 28.7142 72.9664 24.4942 75.4704 20.7622C76.1331 19.7742 76.6411 18.8249 76.9677 18.0662C78.4344 14.6609 74.5397 6.09423 74.1277 5.1929Z" fill="#615441"/>
<path d="M61.4076 141.517C60.4769 136.174 59.4129 131.358 59.4129 131.358C59.4129 131.358 56.4382 131.656 51.5369 129.718C51.8436 130.572 52.4476 133.046 53.0622 136.078L53.1476 136.058C53.1476 136.058 56.9849 135.742 58.0982 137.018C58.5009 137.478 58.9716 139.473 59.3836 141.892C60.1222 146.189 60.7076 151.81 60.4956 152.529C60.1796 153.642 58.0982 155.408 56.0262 155.724C53.9449 156.041 50.5876 154.122 50.5876 154.122L50.1462 153.988C49.2436 154.697 48.5342 155.648 48.1502 157.297C47.7089 159.216 52.0062 161.297 54.5289 160.702C56.5729 160.222 57.4942 159.369 57.4942 159.369L57.6089 159.446C57.7622 159.188 57.9449 158.928 58.1462 158.678C59.1622 157.384 60.6782 156.252 62.5302 155.072C63.2116 153.24 62.3862 147.09 61.4076 141.517Z" fill="#BDAF99"/>
<path d="M59.3835 141.891C60.1221 146.188 60.7075 151.81 60.4968 152.53C60.1795 153.642 58.0981 155.407 56.0261 155.724C53.9448 156.04 50.5861 154.122 50.5861 154.122L50.1461 153.987C51.4688 152.951 53.2155 152.415 54.9715 150.918C55.1435 147.686 54.0888 141.114 53.0621 136.078L53.1488 136.059C53.1488 136.059 56.9848 135.742 58.0981 137.018C58.5008 137.478 58.9715 139.474 59.3835 141.891Z" fill="#E6D5BA"/>
<path d="M32.7825 3.19756C34.6145 2.82289 36.5719 2.55489 38.6625 2.40156C45.3199 0.0802241 54.9319 1.29889 59.6519 6.18156C59.5852 6.27756 59.5372 6.37222 59.4892 6.47889C59.1532 7.22689 58.9612 8.08956 58.8372 8.88556L58.2612 8.78956C44.5145 -0.159776 27.0839 11.6682 27.0839 11.6682C26.1252 7.03489 18.1345 10.0762 13.3385 14.8722L13.2319 14.7949C17.1839 9.66289 23.3719 5.08689 32.7825 3.19756Z" fill="#FFF0D9"/>
<path d="M51.853 64.1314C52.6304 64.9661 52.141 65.9354 50.989 66.8647C48.6784 68.7354 43.6997 70.4821 40.889 70.7314C40.1984 70.7887 39.449 70.8461 38.653 70.8847C34.6437 71.0581 29.5784 70.5487 25.1757 65.8394C22.1531 62.6061 21.2037 56.9847 19.4771 53.7034L19.525 53.6754C26.125 62.9127 28.2837 65.6661 35.1237 66.5101C40.9944 67.2301 47.469 64.1127 47.469 59.4314L47.6517 59.2967C49.4064 61.6847 50.7304 62.9327 51.853 64.1314Z" fill="#4D4233"/>
<path d="M51.853 64.1314C52.6304 64.9661 52.141 65.9354 50.989 66.8647C48.6784 68.7354 43.6997 70.4821 40.889 70.7314C40.1984 70.7887 39.449 70.8461 38.653 70.8847C34.6437 71.0581 29.5784 70.5487 25.1757 65.8394C22.1531 62.6061 21.2037 56.9847 19.4771 53.7034L19.525 53.6754C26.125 62.9127 28.2837 65.6661 35.1237 66.5101C40.9944 67.2301 47.469 64.1127 47.469 59.4314L47.6517 59.2967C49.4064 61.6847 50.7304 62.9327 51.853 64.1314Z" stroke="#4D4233" stroke-width="0.135" stroke-miterlimit="10"/>
<path d="M50.9897 66.8653L51.4977 67.048C51.0377 67.6333 47.143 72.324 40.399 73.1107C36.1684 73.6 35.219 76.424 28.283 77.412C21.5684 78.372 16.4177 75.8533 16.4177 75.8533H16.3884C16.187 74.52 16.743 71.9547 17.319 71.0813C29.9244 76.3387 38.663 70.9067 38.663 70.9067L38.6537 70.824C39.4497 70.7853 40.1977 70.7587 40.8884 70.7C43.699 70.452 48.6777 68.736 50.9897 66.8653Z" fill="#BDAF99"/>
<path d="M12.1388 53.3875C13.0788 52.2461 14.2201 51.3915 15.6881 51.1621C17.4441 50.8928 18.5655 51.9675 19.4775 53.7035C21.2041 56.9848 22.1535 62.6061 25.1761 65.8395C29.5788 70.5488 34.6441 71.0581 38.6535 70.8848L38.6628 71.0288C38.6628 71.0288 29.9241 76.5835 17.3188 71.3261C11.3521 69.1488 8.36947 61.9155 7.8988 60.6875C9.18414 59.0755 10.2388 55.6995 12.1201 53.4168C12.1295 53.4061 12.1388 53.3968 12.1388 53.3875Z" fill="#4D4233"/>
<path d="M19.2471 5.58629C21.8751 5.07829 24.3031 2.53562 32.7831 3.19695C23.3724 5.08762 17.1844 9.66362 13.2324 14.7956C12.5991 15.601 12.0337 16.4263 11.5151 17.2516L11.4671 17.2223C11.4671 14.4783 10.6897 10.5463 10.7951 9.73962C11.0257 8.03295 12.0617 6.62228 13.5391 6.10362C15.0257 5.58628 17.4244 5.94095 19.2471 5.58629Z" fill="#615441"/>
<path d="M44.716 79.0963C35.3053 88.3923 21.952 90.9336 21.1266 91.0776C20.292 87.8163 19.9466 85.0056 20.1386 83.0296C20.1386 83.0296 33.2053 86.895 44.716 79.0963" fill="#BDAF99"/>
<path d="M7.11213 56.2076C3.74547 56.6783 1.38547 54.2796 1.38547 54.2796C2.1148 58.193 4.20547 62.2796 6.7948 61.541C7.1988 61.4263 7.55347 61.129 7.8988 60.6876C9.18413 59.0756 10.2388 55.6996 12.1201 53.4156C10.3255 55.2383 8.61747 56.0156 7.11213 56.2076Z" fill="#4D4233"/>
<path d="M7.11213 56.2076C3.74547 56.6783 1.38547 54.2796 1.38547 54.2796C2.1148 58.193 4.20547 62.2796 6.7948 61.541C7.1988 61.4263 7.55347 61.129 7.8988 60.6876C9.18413 59.0756 10.2388 55.6996 12.1201 53.4156C10.3255 55.2383 8.61747 56.0156 7.11213 56.2076Z" stroke="#4D4233" stroke-width="0.135" stroke-miterlimit="10"/>
<path d="M41.56 49.013C36.812 39.6797 28.4853 36.533 25.9613 35.573C23.4493 34.6144 17.8853 34.0677 14.6907 35.257C12.0813 36.225 7.12135 40.5517 4.86668 42.701C4.36801 43.181 4.00401 43.5544 3.83201 43.7557C2.87201 44.869 0.64668 50.2797 1.38535 54.2797C1.38535 54.2797 3.74535 56.6784 7.11201 56.2077C8.61868 56.0157 10.3253 55.2384 12.12 53.4157C12.1293 53.4064 12.1387 53.397 12.1387 53.3877C13.0787 52.2464 14.22 51.3917 15.688 51.1624C17.444 50.893 18.5667 51.9677 19.4773 53.7037L19.5253 53.6757C26.1253 62.913 28.284 65.6664 35.1227 66.5104C40.9947 67.2304 47.4693 64.1117 47.4693 59.4304L47.652 59.297C46.04 57.0997 44.064 53.953 41.56 49.013Z" fill="#615441"/>
<path d="M7.89865 60.6876C8.36932 61.9156 11.352 69.1489 17.3187 71.3262C16.7427 72.1982 16.1867 74.1462 16.388 76.3436C16.58 78.6076 17.5773 81.1396 20.1387 83.0289C19.9467 85.0049 20.2933 87.8156 21.1266 91.0782C23.468 100.297 29.636 113.113 38.2213 120.978C43.4013 125.728 47.9773 128.317 51.536 129.718C56.4386 131.656 59.412 131.358 59.412 131.358C59.412 131.358 60.4773 136.174 61.408 141.517C62.3866 147.09 63.2106 153.24 62.5306 155.072C60.6786 156.252 59.1626 157.384 58.1466 158.678C57.944 158.928 57.7626 159.188 57.6093 159.446C57.1386 160.233 56.8413 161.077 56.7453 162.036C56.6106 163.408 60.8986 165.594 64.0066 165C66.3666 164.549 69.1973 162.036 70.0893 161.144C70.9813 160.261 71.2786 154.918 71.2786 154.918C71.2786 154.918 71.2973 154.87 71.3266 154.784C71.5666 154.198 72.516 151.753 72.9093 150.324C73.3026 148.874 73.5813 136.998 73.6386 134.38C73.648 134.054 73.648 133.872 73.648 133.872C73.648 133.872 86.1 135.502 99.5106 132.836C108.105 131.128 118.869 126.005 125.497 122.552C127.924 121.285 129.795 120.24 130.803 119.674C131.34 119.368 131.637 119.194 131.637 119.194C131.637 119.194 136.481 127.194 144.357 133.661C152.156 140.058 160.06 141.364 160.06 141.364L160.204 153.077C160.204 153.077 158.161 154.237 156.511 155.696C156.444 155.753 156.377 155.81 156.309 155.877C155.072 156.99 154.113 158.257 154.507 159.293C155.168 161.077 158.987 162.113 161.873 161.816C164.771 161.518 166.967 158.554 169.193 156.482C169.011 152.625 169.663 137.728 171.764 127.502C170.852 123.204 167.312 108.672 167.611 100.67C167.908 92.6702 171.064 80.4396 169.395 71.7676C169.203 70.7982 168.963 69.6569 168.627 68.4196C166.363 59.9676 159.964 46.4329 139.157 43.4582C121.977 41.0036 103.147 43.7662 97.304 44.7636C96.6426 44.8689 96.1426 44.9649 95.836 45.0222C95.596 45.0609 95.472 45.0902 95.472 45.0902C95.472 45.0902 93.5813 37.1182 85.6493 39.2862C85.208 39.4009 84.7373 39.5542 84.2573 39.7462C84.172 29.9036 78.4066 23.2569 77.8213 22.6036" stroke="black" stroke-width="1.439" stroke-miterlimit="10" stroke-linejoin="round"/>
<path d="M59.6521 6.18108C54.9321 1.29842 45.3201 0.0797515 38.6628 2.40108C36.5721 2.55442 34.6148 2.82375 32.7828 3.19708C23.3721 5.08775 17.1841 9.66375 13.2321 14.7958C12.5988 15.6011 12.0335 16.4264 11.5148 17.2518C6.53612 25.1944 6.29612 33.6264 7.31346 35.1891C5.48146 38.8731 4.91479 42.3944 4.86679 42.7011" stroke="black" stroke-width="1.439" stroke-miterlimit="10" stroke-linejoin="round"/>
<path d="M51.4119 129.43C51.4505 129.478 51.4879 129.574 51.5372 129.718C51.8439 130.571 52.4479 133.046 53.0625 136.078C54.0879 141.114 55.1439 147.685 54.9705 150.918C53.2159 152.414 51.4692 152.951 50.1452 153.987C49.2439 154.698 48.5345 155.647 48.1505 157.298C47.7092 159.215 52.0065 161.298 54.5292 160.703C56.5732 160.223 57.4932 159.369 57.4932 159.369" stroke="black" stroke-width="1.439" stroke-miterlimit="10"/>
<path d="M126.121 122.753C126.121 122.753 138.276 139.435 151.609 142.543C152.357 147.733 151.024 151.445 151.024 151.445C151.024 151.445 148.885 151.848 147.197 153.096C146.189 153.835 145.345 154.88 145.24 156.328C145.029 159.033 149.978 160.184 151.609 160.04C153.24 159.887 154.506 159.292 154.506 159.292" stroke="black" stroke-width="1.439" stroke-miterlimit="10"/>
<path d="M74.1277 5.19283C75.2597 5.93149 76.2477 6.89016 76.9771 8.03283C79.7304 12.3008 81.5717 16.4075 80.1717 19.1502C79.7197 20.0235 78.8277 21.2422 77.8211 22.6035C75.6824 25.4915 73.0051 29.0315 72.9091 31.3048C70.2144 32.8782 64.1997 28.5128 62.9131 24.6088C62.7504 24.1102 62.6637 23.6208 62.6744 23.1502C62.7504 18.9968 66.3864 17.8835 65.1197 13.2888C64.8997 12.4835 64.5544 11.8982 64.1411 11.4768C62.1944 9.52883 58.6731 11.2942 58.6731 11.2942C58.6731 11.2942 58.6451 10.1902 58.8371 8.88616C58.9611 8.09016 59.1531 7.22616 59.4891 6.47816C59.5371 6.37283 59.5851 6.27683 59.6517 6.18083C60.3904 5.01016 62.3091 4.21416 64.4584 3.51416C67.2491 2.59283 71.1637 3.19816 74.1184 5.18349" stroke="black" stroke-width="1.439" stroke-miterlimit="10" stroke-linejoin="round"/>
<path d="M33.1087 3.21684C32.994 3.2075 32.8887 3.19817 32.782 3.19817C24.302 2.5355 21.8753 5.07817 19.2473 5.58617C17.4247 5.94084 15.026 5.58617 13.5393 6.10484C12.062 6.62217 11.026 8.03284 10.7953 9.7395C10.69 10.5462 11.4673 14.4782 11.4673 17.2222" stroke="black" stroke-width="1.439" stroke-miterlimit="10" stroke-linejoin="round"/>
<path d="M12.1196 53.4162C10.2396 55.6989 9.18362 59.0762 7.89828 60.6869C7.55295 61.1282 7.19828 61.4269 6.79562 61.5416C4.20495 62.2802 2.11428 58.1936 1.38495 54.2789C0.646283 50.2789 2.87162 44.8682 3.83162 43.7562C4.00362 43.5549 4.36895 43.1802 4.86762 42.7016C7.12228 40.5522 12.0809 36.2256 14.6903 35.2562C17.8849 34.0669 23.4489 34.6136 25.9623 35.5736C28.4849 36.5322 36.8116 39.6789 41.5596 49.0136C44.0636 53.9536 46.0396 57.1002 47.6516 59.2962C49.4063 61.6856 50.7303 62.9322 51.8529 64.1309C52.6303 64.9656 52.1409 65.9349 50.9903 66.8656C48.6783 68.7362 43.6996 70.4816 40.8889 70.7309C40.1983 70.7882 39.4489 70.8469 38.6529 70.8842C34.6436 71.0576 29.5783 70.5496 25.1756 65.8389C22.1529 62.6056 21.2036 56.9842 19.4769 53.7042C18.5663 51.9682 17.4436 50.8936 15.6876 51.1616C14.2209 51.3922 13.0783 52.2456 12.1383 53.3869" stroke="black" stroke-width="1.439" stroke-miterlimit="10" stroke-linejoin="round"/>
<path d="M17.3189 71.3259C29.9242 76.5832 38.6629 71.0285 38.6629 71.0285" stroke="black" stroke-width="1.439" stroke-miterlimit="10" stroke-linecap="round" stroke-linejoin="round"/>
<path d="M52.895 109.12C52.6844 120.787 58.7404 125.507 59.9404 132.581" stroke="black" stroke-width="1.079" stroke-miterlimit="10" stroke-linecap="round" stroke-linejoin="round"/>
<path d="M128.786 112.084C129.967 116.274 132.366 119.991 132.366 119.991" stroke="black" stroke-width="1.079" stroke-miterlimit="10" stroke-linecap="round" stroke-linejoin="round"/>
<path d="M75.4261 78.1193C75.3941 78.1193 75.3621 78.118 75.3288 78.1126C74.9341 78.0593 74.6595 77.6966 74.7128 77.3033C75.1381 74.1593 76.4221 70.4633 77.9061 66.1846C80.5475 58.5793 83.8328 49.114 83.3235 38.9673C83.3035 38.57 83.6088 38.2326 84.0048 38.2126C84.4208 38.1926 84.7395 38.498 84.7608 38.8953C85.2835 49.322 81.9488 58.934 79.2661 66.6566C77.8061 70.862 76.5461 74.4953 76.1381 77.4966C76.0888 77.858 75.7808 78.1193 75.4261 78.1193Z" fill="black"/>
<path d="M96.019 44.5467C95.9416 44.156 95.5536 43.9013 95.1736 43.9813C94.783 44.0587 94.531 44.4373 94.6083 44.8267C96.1656 52.676 92.6683 61.6133 88.619 71.9613C85.1643 80.7907 81.2496 90.7987 80.3403 101.351C80.3056 101.747 80.6003 102.095 80.995 102.129C81.0176 102.131 81.0376 102.132 81.0576 102.132C81.427 102.132 81.7416 101.849 81.7736 101.475C82.6643 91.1293 86.5403 81.224 89.9603 72.4853C93.919 62.3667 97.6576 52.808 96.019 44.5467Z" fill="black"/>
<path d="M47.3157 25.0981C47.6224 25.9234 47.7851 26.8154 47.7851 27.7461C47.7851 32.0047 44.3317 35.4487 40.0731 35.4487C37.4731 35.4487 35.1811 34.1634 33.7891 32.1967L33.8757 32.1394C35.7557 33.2901 45.5891 35.9287 46.9131 25.2607L47.3157 25.0981Z" fill="#D1D3D4"/>
<path d="M47.3157 25.0981L46.9131 25.2607C45.5891 35.9287 35.7557 33.2901 33.8757 32.1394L33.7891 32.1967C32.8971 30.9407 32.3704 29.4047 32.3704 27.7461C32.3704 23.4861 35.8144 20.0327 40.0731 20.0327C43.4024 20.0327 46.2317 22.1434 47.3157 25.0981Z" fill="white"/>
<path d="M47.3157 25.0981C47.6224 25.9234 47.7851 26.8154 47.7851 27.7461C47.7851 32.0047 44.3317 35.4487 40.0731 35.4487C37.4731 35.4487 35.1811 34.1634 33.7891 32.1967C32.8971 30.9407 32.3704 29.4047 32.3704 27.7461C32.3704 23.4861 35.8144 20.0327 40.0731 20.0327C43.4024 20.0327 46.2317 22.1434 47.3157 25.0981Z" stroke="black" stroke-width="0.719" stroke-miterlimit="10" stroke-linecap="round" stroke-linejoin="round"/>
<path d="M41.5851 28.1939C41.5851 28.9312 40.9877 29.5286 40.2504 29.5286C39.5144 29.5286 38.9171 28.9312 38.9171 28.1939C38.9171 27.4566 39.5144 26.8592 40.2504 26.8592C40.9877 26.8592 41.5851 27.4566 41.5851 28.1939Z" fill="#231F20"/>
<path d="M40.251 27.3394C39.7804 27.3394 39.3964 27.7221 39.3964 28.1941C39.3964 28.6647 39.7804 29.0487 40.251 29.0487C40.723 29.0487 41.1057 28.6647 41.1057 28.1941C41.1057 27.7221 40.723 27.3394 40.251 27.3394ZM40.251 30.0074C39.251 30.0074 38.4377 29.1941 38.4377 28.1941C38.4377 27.1941 39.251 26.3807 40.251 26.3807C41.251 26.3807 42.0644 27.1941 42.0644 28.1941C42.0644 29.1941 41.251 30.0074 40.251 30.0074Z" fill="#231F20"/>
<path d="M66.1331 63.7234C65.7797 63.5328 65.3464 63.6648 65.1584 64.0141C64.7331 64.7981 62.7477 66.4594 60.0824 66.7488C57.1797 67.0688 54.2997 65.6581 51.7304 62.6821C51.4704 62.3808 51.0157 62.3488 50.7157 62.6088C50.4157 62.8674 50.3824 63.3221 50.6424 63.6234C53.8344 67.3194 56.9717 68.2314 59.2891 68.2314C59.6224 68.2314 59.9397 68.2114 60.2371 68.1794C63.3544 67.8421 65.7717 65.9034 66.4224 64.6981C66.6117 64.3488 66.4824 63.9128 66.1331 63.7234Z" fill="black"/>
<path d="M18.211 34.1153C21.6164 34.2686 24.2924 36.3406 24.283 37.8273C17.0497 32.9073 12.523 38.0873 12.0817 38.6433C11.9564 38.2113 11.9177 37.818 11.9857 37.53C12.283 36.1966 14.8057 33.9713 18.211 34.1153Z" fill="#3B3227"/>
<path d="M24.2833 37.8278C24.2833 40.4465 21.77 42.7585 20.7726 42.4518C20.0726 42.2305 21.386 38.6718 19.7646 39.2478C18.154 39.8332 20.0913 42.6625 19.046 43.0078C17.6073 43.4878 16.062 43.3145 15.6886 42.9505C15.3233 42.5758 16.5326 39.2092 14.9873 39.3052C13.29 39.4105 14.806 42.2692 14.2113 42.2692C13.7406 42.2692 12.4646 40.1878 12.0806 38.6438C12.522 38.0865 17.05 32.9065 24.2833 37.8278Z" fill="#29231B"/>
<path d="M12.0812 38.6432C11.9572 38.2112 11.9185 37.8178 11.9852 37.5298C12.2825 36.1965 14.8052 33.9712 18.2105 34.1152C21.6159 34.2685 24.2932 36.3405 24.2839 37.8272C24.2839 40.4472 21.7705 42.7578 20.7719 42.4512C20.0719 42.2312 21.3865 38.6725 19.7652 39.2472C18.1532 39.8325 20.0919 42.6632 19.0452 43.0085C17.6065 43.4872 16.0625 43.3152 15.6879 42.9498C15.3239 42.5765 16.5319 39.2085 14.9879 39.3045C13.2905 39.4112 14.8052 42.2698 14.2105 42.2698C13.7412 42.2698 12.4652 40.1872 12.0812 38.6432Z" stroke="black" stroke-width="0.719" stroke-miterlimit="10"/>
<path d="M28.1543 84.6674C23.5569 84.6674 20.2303 83.8021 19.9516 83.7274C19.5676 83.6234 19.3409 83.2301 19.4423 82.8461C19.5463 82.4621 19.9396 82.2381 20.3249 82.3367C20.4596 82.3741 34.0036 85.8821 44.4116 78.3967C44.7343 78.1647 45.1836 78.2394 45.4143 78.5607C45.6476 78.8834 45.5743 79.3327 45.2503 79.5647C39.5569 83.6594 33.1156 84.6674 28.1543 84.6674Z" fill="black"/>
<path d="M7.90904 48.5704C7.90904 48.7344 7.77704 48.8664 7.61304 48.8664C7.44904 48.8664 7.3157 48.7344 7.3157 48.5704C7.3157 48.4064 7.44904 48.2744 7.61304 48.2744C7.77704 48.2744 7.90904 48.4064 7.90904 48.5704Z" stroke="black" stroke-width="0.719" stroke-miterlimit="10" stroke-linejoin="round"/>
<path d="M12.2817 46.7175C12.2817 46.8815 12.1484 47.0135 11.9857 47.0135C11.8217 47.0135 11.6884 46.8815 11.6884 46.7175C11.6884 46.5535 11.8217 46.4215 11.9857 46.4215C12.1484 46.4215 12.2817 46.5535 12.2817 46.7175Z" stroke="black" stroke-width="0.719" stroke-miterlimit="10" stroke-linejoin="round"/>
<path d="M34.0354 44.9391C34.0354 44.8378 34.1181 44.7551 34.2194 44.7551C34.3208 44.7551 34.4021 44.8378 34.4021 44.9391C34.4021 45.1418 34.0354 45.1418 34.0354 44.9391ZM34.2194 44.1631C33.7914 44.1631 33.4421 44.5111 33.4421 44.9391C33.4421 45.3671 33.7914 45.7151 34.2194 45.7151C34.6474 45.7151 34.9941 45.3671 34.9941 44.9391C34.9941 44.5111 34.6474 44.1631 34.2194 44.1631Z" fill="black"/>
<path d="M28.5515 48.7926C28.5515 48.6913 28.6341 48.6099 28.7355 48.6099C28.8368 48.6099 28.9181 48.6913 28.9181 48.7926C28.9181 48.9953 28.5515 48.9953 28.5515 48.7926ZM28.7355 48.0166C28.3075 48.0166 27.9581 48.3646 27.9581 48.7926C27.9581 49.2206 28.3075 49.5686 28.7355 49.5686C29.1635 49.5686 29.5101 49.2206 29.5101 48.7926C29.5101 48.3646 29.1635 48.0166 28.7355 48.0166Z" fill="black"/>
<path d="M25.1424 53.3877C25.1424 53.2863 25.2237 53.205 25.325 53.205C25.4264 53.205 25.509 53.2863 25.509 53.3877C25.509 53.5903 25.1424 53.5903 25.1424 53.3877ZM25.325 52.6117C24.897 52.6117 24.549 52.9597 24.549 53.3877C24.549 53.8157 24.897 54.1637 25.325 54.1637C25.753 54.1637 26.101 53.8157 26.101 53.3877C26.101 52.9597 25.753 52.6117 25.325 52.6117Z" fill="black"/>
<path d="M30.9234 54.7217C30.9234 54.6203 31.0048 54.539 31.1061 54.539C31.2074 54.539 31.2901 54.6203 31.2901 54.7217C31.2901 54.9243 30.9234 54.9243 30.9234 54.7217ZM31.1061 53.9457C30.6781 53.9457 30.3301 54.2937 30.3301 54.7217C30.3301 55.1497 30.6781 55.4977 31.1061 55.4977C31.5341 55.4977 31.8821 55.1497 31.8821 54.7217C31.8821 54.2937 31.5341 53.9457 31.1061 53.9457Z" fill="black"/>
<path d="M35.9624 52.2017C35.9624 52.1004 36.045 52.019 36.1464 52.019C36.2477 52.019 36.329 52.1004 36.329 52.2017C36.329 52.4044 35.9624 52.4044 35.9624 52.2017ZM36.1464 51.4257C35.7184 51.4257 35.369 51.7737 35.369 52.2017C35.369 52.6297 35.7184 52.9777 36.1464 52.9777C36.5744 52.9777 36.921 52.6297 36.921 52.2017C36.921 51.7737 36.5744 51.4257 36.1464 51.4257Z" fill="black"/>
<path d="M40.7055 57.8342C40.7055 57.7329 40.7881 57.6515 40.8895 57.6515C40.9908 57.6515 41.0721 57.7329 41.0721 57.8342C41.0721 58.0369 40.7055 58.0369 40.7055 57.8342ZM40.8895 57.0582C40.4615 57.0582 40.1121 57.4062 40.1121 57.8342C40.1121 58.2622 40.4615 58.6102 40.8895 58.6102C41.3175 58.6102 41.6641 58.2622 41.6641 57.8342C41.6641 57.4062 41.3175 57.0582 40.8895 57.0582Z" fill="black"/>
<path d="M32.4054 59.9096C32.4054 59.8083 32.4868 59.727 32.5881 59.727C32.6894 59.727 32.7721 59.8083 32.7721 59.9096C32.7721 60.1123 32.4054 60.1123 32.4054 59.9096ZM32.5881 59.1336C32.1601 59.1336 31.8121 59.4816 31.8121 59.9096C31.8121 60.3376 32.1601 60.6856 32.5881 60.6856C33.0161 60.6856 33.3641 60.3376 33.3641 59.9096C33.3641 59.4816 33.0161 59.1336 32.5881 59.1336Z" fill="black"/>
<path d="M10.5031 42.5673C10.5031 42.7313 10.3697 42.8633 10.2071 42.8633C10.0431 42.8633 9.90973 42.7313 9.90973 42.5673C9.90973 42.4033 10.0431 42.2713 10.2071 42.2713C10.3697 42.2713 10.5031 42.4033 10.5031 42.5673Z" stroke="black" stroke-width="0.719" stroke-miterlimit="10" stroke-linejoin="round"/>
<path d="M28.6994 43.16C28.6994 43.0587 28.7821 42.9774 28.8834 42.9774C28.9848 42.9774 29.0661 43.0587 29.0661 43.16C29.0661 43.3627 28.6994 43.3627 28.6994 43.16ZM28.8834 42.384C28.4554 42.384 28.1061 42.732 28.1061 43.16C28.1061 43.588 28.4554 43.936 28.8834 43.936C29.3114 43.936 29.6581 43.588 29.6581 43.16C29.6581 42.732 29.3114 42.384 28.8834 42.384Z" fill="black"/>
<path d="M36.4374 37.0124C36.3508 37.0124 36.2641 36.9897 36.1854 36.9404C20.9134 27.499 7.57744 36.1244 7.44411 36.2124C7.22544 36.359 6.92678 36.3004 6.77878 36.0777C6.63345 35.8577 6.69345 35.5604 6.91345 35.4137C7.05211 35.323 20.9028 26.3644 36.6894 36.1244C36.9148 36.2644 36.9841 36.5604 36.8454 36.7857C36.7548 36.9324 36.5974 37.0124 36.4374 37.0124Z" fill="black"/>
<path d="M21.0888 31.9967C21.4315 23.2341 24.1835 7.54206 38.7915 2.2274C39.0421 2.13673 39.3155 2.16473 39.4061 2.41406C39.4968 2.66206 39.3688 2.88873 39.1195 2.97806C25.0395 8.10206 22.3795 23.5367 22.0475 32.0594C22.0381 32.3167 21.0781 32.2607 21.0888 31.9967Z" fill="black"/>
<path d="M161.831 35.436C162.868 42.1093 159.802 46.8973 160.176 53.46C160.176 53.46 157.716 51.144 154.606 49.1466L154.727 48.948C154.727 48.948 161.07 45.264 161.622 35.0613L161.754 35.0386C161.787 35.172 161.808 35.304 161.831 35.436Z" fill="#BDAF99"/>
<path d="M145.351 39.8591C141.887 39.5951 141.931 36.4178 143.31 35.2591C145.77 33.1858 147.69 35.5685 148.253 36.4071C147.899 38.3818 147.061 39.9911 145.351 39.8591ZM146.631 23.2698C141.799 23.5231 138.335 25.5418 136.086 28.3098L136.251 28.4431C133.858 31.7525 133.814 42.5391 141.855 45.3631C145.241 46.5431 148.242 45.6618 150.447 43.9298C153.039 41.9005 154.562 38.6898 154.363 36.2631L154.673 36.1418C154.959 36.9805 155.169 37.8965 155.246 38.8885C155.422 41.4365 154.65 45.2645 151.683 47.5031C152.686 47.9778 153.679 48.5511 154.606 49.1471L154.727 48.9485C154.727 48.9485 161.07 45.2645 161.621 35.0605L161.754 35.0391C160.453 27.8365 153.911 22.9058 146.631 23.2698Z" fill="#E6D5BA"/>
<path d="M155.246 38.8885C155.168 37.8952 154.959 36.9805 154.672 36.1419L154.363 36.2632C154.562 38.6899 153.039 41.8992 150.447 43.9299C148.242 45.6605 145.242 46.5432 141.855 45.3632C133.814 42.5392 133.858 31.7525 136.251 28.4432L136.086 28.3099C133.14 31.9285 132.27 36.8045 133.13 40.5765C134.366 45.9805 138.778 49.4339 145.87 49.3232C148.384 49.2792 150.271 48.5739 151.683 47.5032C154.65 45.2645 155.422 41.4365 155.246 38.8885Z" fill="#BDAF99"/>
<path d="M148.252 36.4066C148.627 34.3333 148.472 31.8626 148.252 30.5826C148.186 30.152 148.595 29.8106 149.003 29.9653C150.447 30.5053 153.392 32.5906 154.672 36.1413C154.959 36.98 155.168 37.896 155.246 38.888C155.422 41.436 154.65 45.264 151.683 47.504C150.271 48.5733 148.384 49.2786 145.87 49.324C138.778 49.4333 134.366 45.9813 133.13 40.576C132.27 36.804 133.14 31.928 136.086 28.3106C138.336 25.5413 141.799 23.5226 146.631 23.2693C153.911 22.9053 160.452 27.836 161.754 35.0386C161.787 35.1706 161.808 35.304 161.831 35.436C162.868 42.1093 159.802 46.896 160.176 53.46C160.176 53.46 157.716 51.1426 154.606 49.1466C153.679 48.5506 152.687 47.9773 151.683 47.504C151.595 47.4586 151.507 47.4266 151.418 47.3826" stroke="black" stroke-width="1.439" stroke-miterlimit="10"/>
<path d="M148.252 36.4066C147.69 35.568 145.771 33.1853 143.311 35.26C141.932 36.4173 141.888 39.5946 145.351 39.8586C147.062 39.992 147.899 38.3813 148.252 36.4066Z" stroke="black" stroke-width="1.439" stroke-miterlimit="10"/>
<path d="M148.418 36.6715C148.418 36.6715 148.363 36.5715 148.253 36.4061" stroke="black" stroke-width="1.439" stroke-miterlimit="10"/>
<path d="M18.0193 25.1055C18.1727 25.7481 18.2393 26.4201 18.202 27.1108C18.0967 29.0961 17.1273 31.0908 15.7553 32.3295C13.7407 32.9428 12.542 33.2788 10.6527 33.9215C8.81 33.8255 7.17 33.0481 5.96066 31.8401L6.09533 31.6961C6.09533 31.6961 15.094 33.8548 17.846 25.1441L18.0193 25.1055Z" fill="#D1D3D4"/>
<path d="M18.0193 25.1055L17.846 25.1441C15.094 33.8548 6.09534 31.6961 6.09534 31.6961L5.96067 31.8401C4.56067 30.4588 3.73534 28.5015 3.84067 26.3721C4.04201 22.4095 7.42867 19.3588 11.3913 19.5601C14.662 19.7335 17.31 22.0641 18.0193 25.1055Z" fill="white"/>
<path d="M18.0193 25.1055C18.1727 25.7481 18.2393 26.4201 18.202 27.1108C18.0967 29.0961 17.1273 31.0908 15.7553 32.3295C13.7407 32.9428 12.542 33.2788 10.6527 33.9215C8.81 33.8255 7.17001 33.0481 5.96067 31.8401C4.56067 30.4588 3.73534 28.5015 3.84067 26.3721C4.04201 22.4095 7.42867 19.3588 11.3913 19.5601C14.662 19.7335 17.31 22.0641 18.0193 25.1055Z" stroke="black" stroke-width="0.719" stroke-miterlimit="10" stroke-linecap="round" stroke-linejoin="round"/>
<path d="M12.6523 27.078C12.6523 27.8153 12.0549 28.4113 11.3176 28.4113C10.5816 28.4113 9.98425 27.8153 9.98425 27.078C9.98425 26.3406 10.5816 25.7446 11.3176 25.7446C12.0549 25.7446 12.6523 26.3406 12.6523 27.078Z" fill="black"/>
<path d="M12.6523 27.078C12.6523 27.8153 12.0549 28.4113 11.3176 28.4113C10.5816 28.4113 9.98425 27.8153 9.98425 27.078C9.98425 26.3406 10.5816 25.7446 11.3176 25.7446C12.0549 25.7446 12.6523 26.3406 12.6523 27.078Z" stroke="black" stroke-width="0.719" stroke-miterlimit="10"/>
<path d="M59.558 163.471C59.558 163.471 59.586 163.163 59.7007 162.78C59.818 162.388 60.018 161.877 60.3393 161.443C60.65 161.003 61.07 160.667 61.4087 160.491C61.746 160.305 61.9967 160.263 61.99 160.251C61.998 160.261 61.7673 160.372 61.5073 160.628C61.242 160.875 60.966 161.267 60.8113 161.7C60.6473 162.129 60.602 162.589 60.5967 162.924C60.5927 163.272 60.634 163.46 60.634 163.46C60.6967 163.755 60.5087 164.045 60.2127 164.109C59.918 164.173 59.626 163.984 59.5633 163.689C59.5513 163.635 59.5487 163.58 59.5527 163.528L59.558 163.471Z" fill="black"/>
<path d="M63.1803 164.216C63.1803 164.216 62.991 163.979 63.043 163.676C63.095 163.367 63.0923 162.96 63.2496 162.579C63.403 162.196 63.5736 161.848 63.7696 161.624C63.963 161.395 64.0963 161.283 64.0963 161.283C64.0963 161.283 63.9736 161.444 63.8776 161.711C63.7763 161.973 63.695 162.336 63.683 162.697C63.6683 163.06 63.711 163.419 63.759 163.679C63.8096 163.947 63.8616 164.089 63.8616 164.089C63.9683 164.375 63.8216 164.693 63.5363 164.799C63.251 164.905 63.127 164.761 63.0203 164.475C62.9963 164.408 63.1803 164.34 63.1803 164.273V164.216Z" fill="black"/>
<path d="M49.9652 159.634C49.9652 159.634 49.9932 159.326 50.1079 158.943C50.2252 158.551 50.4252 158.04 50.7465 157.606C51.0572 157.167 51.4772 156.83 51.8159 156.654C52.1519 156.468 52.4039 156.426 52.3972 156.414C52.4052 156.424 52.1745 156.535 51.9145 156.791C51.6492 157.038 51.3732 157.43 51.2185 157.863C51.0545 158.292 51.0092 158.752 51.0039 159.087C50.9999 159.435 51.0412 159.622 51.0412 159.622C51.1039 159.918 50.9159 160.208 50.6199 160.272C50.3252 160.335 50.0332 160.147 49.9705 159.852C49.9585 159.798 49.9559 159.743 49.9599 159.691L49.9652 159.634Z" fill="black"/>
<path d="M53.8469 160.379C53.8469 160.379 53.5283 160.141 53.5803 159.839C53.6323 159.529 53.5643 159.123 53.7216 158.741C53.8763 158.359 54.0136 158.011 54.2096 157.787C54.4016 157.557 54.5203 157.445 54.5203 157.445C54.5203 157.445 54.3896 157.607 54.2923 157.873C54.1909 158.136 54.1056 158.499 54.0949 158.86C54.0803 159.223 54.1203 159.581 54.1683 159.841C54.2189 160.109 54.2696 160.252 54.2696 160.252C54.3763 160.537 54.2296 160.856 53.9443 160.961C53.6589 161.068 53.6643 160.924 53.5576 160.637C53.5336 160.571 53.8469 160.503 53.8469 160.436V160.379Z" fill="black"/>
<path d="M156.446 160.593C156.446 160.593 156.474 160.285 156.588 159.902C156.706 159.51 156.906 159 157.227 158.565C157.538 158.125 157.958 157.789 158.296 157.613C158.634 157.428 158.884 157.385 158.878 157.373C158.886 157.384 158.655 157.494 158.395 157.75C158.13 157.997 157.854 158.389 157.699 158.822C157.535 159.252 157.49 159.712 157.484 160.046C157.48 160.394 157.522 160.581 157.522 160.581C157.584 160.877 157.396 161.168 157.1 161.232C156.806 161.296 156.514 161.106 156.451 160.812C156.439 160.757 156.436 160.702 156.44 160.65L156.446 160.593Z" fill="black"/>
<path d="M159.18 161.338C159.18 161.338 159.435 161.101 159.487 160.798C159.539 160.489 159.759 160.082 159.916 159.701C160.07 159.318 160.351 158.97 160.547 158.746C160.739 158.517 160.928 158.405 160.928 158.405C160.928 158.405 160.834 158.566 160.738 158.833C160.636 159.095 160.568 159.458 160.558 159.819C160.543 160.182 160.591 160.541 160.64 160.801C160.691 161.069 160.746 161.211 160.746 161.211C160.852 161.497 160.708 161.815 160.423 161.921C160.136 162.027 159.571 161.883 159.464 161.597C159.439 161.53 159.18 161.462 159.18 161.395V161.338Z" fill="black"/>
<path d="M146.853 158.674C146.853 158.674 146.881 158.366 146.996 157.984C147.112 157.592 147.313 157.081 147.634 156.646C147.945 156.206 148.365 155.87 148.704 155.694C149.04 155.509 149.292 155.466 149.285 155.454C149.293 155.465 149.062 155.576 148.802 155.832C148.537 156.078 148.261 156.47 148.106 156.904C147.942 157.333 147.897 157.793 147.892 158.128C147.888 158.476 147.929 158.662 147.929 158.662C147.992 158.958 147.804 159.249 147.508 159.313C147.213 159.376 146.921 159.188 146.858 158.893C146.846 158.838 146.844 158.784 146.848 158.732L146.853 158.674Z" fill="black"/>
<path d="M149.847 159.42C149.847 159.42 149.972 159.182 150.024 158.88C150.076 158.57 150.231 158.164 150.388 157.782C150.542 157.401 150.79 157.052 150.986 156.828C151.179 156.598 151.352 156.486 151.352 156.486C151.352 156.486 151.25 156.648 151.152 156.914C151.051 157.177 150.98 157.54 150.968 157.901C150.954 158.264 151 158.622 151.05 158.882C151.1 159.15 151.154 159.293 151.154 159.293C151.26 159.578 151.116 159.897 150.83 160.002C150.544 160.109 150.107 159.965 150 159.678C149.976 159.612 149.847 159.544 149.847 159.477V159.42Z" fill="black"/>
</svg>
