<svg width="229" height="207" viewBox="0 0 229 207" fill="none" xmlns="http://www.w3.org/2000/svg">
<path d="M70.3696 63.372C70.3842 63.6533 70.0989 63.9547 69.8576 63.8147C69.0429 63.3267 68.6709 62.02 67.9029 59.3573C67.8122 59.056 67.4362 58.9613 67.1989 59.172C65.6816 60.5587 64.4269 64.0653 63.9789 66.1453C63.9442 66.316 63.8082 66.436 63.6429 66.472C61.1802 66.9893 55.5082 62.9093 54.0616 60.0507C53.4389 50.5107 56.9509 37.5693 57.0762 32.42C57.2016 27.2707 55.8202 21.2413 53.5589 18.352C51.8109 16.1213 48.6362 14.2587 45.8282 13.9413C45.0082 13.8467 44.2202 13.8867 43.5122 14.0867C40.3722 14.976 38.2362 16.86 38.2362 16.86C38.2362 16.86 36.2269 12.6107 33.7149 12.856C31.8309 13.0373 30.1989 14.1427 30.1989 14.1427C30.1989 14.1427 30.1989 14.1373 30.1936 14.132C30.1229 13.9813 29.3496 12.3987 27.4349 11.4453C28.5656 9.812 31.4549 10.0627 31.4549 10.0627C31.4549 10.0627 31.0776 7.42533 28.6909 5.54133C36.2269 3.90933 37.2322 9.05867 37.2322 9.05867C37.2322 9.05867 37.8602 6.54667 37.4829 3.78267C40.1202 5.416 41.2509 8.93334 41.2509 8.93334C41.2509 8.93334 42.2562 4.41067 47.0282 1.02C47.0282 4.28534 48.7869 7.80267 48.7869 7.80267C48.7869 7.80267 61.5976 4.66267 68.8829 10.0627C67.1242 11.3187 65.8682 11.8213 65.8682 11.8213C65.8682 11.8213 77.8002 21.2413 79.1816 36.6893C78.1269 45.828 77.6389 54.2133 75.5789 57.7907C75.2176 58.4133 74.1629 57.8453 73.4589 55.4147C73.3589 55.068 72.8816 55.0027 72.6909 55.308C70.9576 58.1373 70.2536 61.172 70.3696 63.372Z" fill="#E6D7B8"/>
<path d="M79.1816 36.6899C79.7336 42.8939 79.7042 50.7365 79.5176 58.2832C79.2522 69.5365 78.6536 80.1312 79.1816 83.6632C75.9162 80.7752 75.4136 76.7552 75.1629 75.8765C74.9109 74.9979 72.9016 80.9005 73.2789 85.2965C71.3949 85.2965 70.1389 81.7792 70.1389 81.7792C70.1389 81.7792 68.7576 86.5525 69.6362 91.1992C66.6216 89.3152 65.6176 84.2912 65.4909 83.1605C65.3656 82.0312 64.3616 86.5525 64.7376 89.4405C58.9802 79.0712 55.4389 72.7219 54.3082 62.8245C54.2082 61.9299 54.1229 61.0059 54.0616 60.0512C55.5082 62.9099 61.1802 66.9885 63.6429 66.4712C63.8082 66.4365 63.9442 66.3165 63.9789 66.1445C64.4269 64.0645 65.6816 60.5579 67.1989 59.1725C67.4362 58.9605 67.8122 59.0565 67.9029 59.3579C68.6709 62.0205 69.0429 63.3272 69.8576 63.8139C70.0989 63.9552 70.3842 63.6539 70.3696 63.3725C70.2536 61.1712 70.9576 58.1365 72.6909 55.3085C72.8816 55.0019 73.3589 55.0672 73.4589 55.4139C74.1629 57.8459 75.2176 58.4139 75.5789 57.7899C77.6389 54.2139 78.1269 45.8285 79.1816 36.6899Z" fill="#CCBC95"/>
<path d="M47.2294 79.0265C48.2947 70.1798 49.0134 63.0305 48.2841 61.3065C47.8974 60.3932 47.2347 59.8452 46.4107 59.5585C49.2987 60.1065 51.4694 63.2318 54.3081 62.8238C55.4387 72.7212 58.9801 79.0718 64.7374 89.4412C64.3614 86.5518 65.3654 82.0305 65.4907 83.1612C65.6174 84.2918 66.6214 89.3158 69.6361 91.1998C68.7574 86.5518 70.1387 81.7798 70.1387 81.7798C70.1387 81.7798 71.3947 85.2958 73.2787 85.2958C72.9014 80.8998 74.9107 74.9972 75.1627 75.8758C75.4134 76.7558 75.9161 80.7745 79.1814 83.6638C78.6534 80.1318 79.2521 69.5358 79.5187 58.2825L79.9347 58.2932C80.6681 58.9905 81.7787 59.6545 83.1761 60.2772L83.1654 60.3025C83.1654 60.3025 97.0014 70.4812 117.188 69.4758C137.368 68.4718 152.411 66.8585 164.363 72.8972L164.563 72.6105C173.219 78.8358 177.741 87.3612 180.413 92.4558C181.609 94.7358 182.343 97.2225 182.895 99.8198C180.664 124.522 208.799 158.857 206.363 173.622C203.931 188.388 187.463 187.362 187.463 187.362L187.071 187.428C186.699 185.076 185.975 182.478 184.599 180.54C184.599 182.464 182.925 184.222 182.925 184.222C182.925 184.222 183.343 180.79 181.669 176.857C182.252 179.449 181.92 183.388 181.92 183.388C181.92 183.388 179.865 183.302 178.821 182.213C179.032 179.284 177.233 173.169 176.897 172.165C176.56 171.16 177.233 177.189 177.233 177.189L173.888 176.184C173.048 176.354 172.888 166.976 172.888 166.136C172.888 165.302 171.22 172.501 171.22 172.501C171.22 172.501 169.456 171.114 166.904 167.96C163.497 163.74 158.685 156.354 154.801 144.875C144.512 157.847 102.341 161.449 102.341 161.449C101.423 155.616 100.493 147.327 99.9547 135.948L98.9507 135.993C96.8654 160.946 100.784 181.941 98.9507 188.889C97.1174 195.837 69.6214 196.45 64.4814 193.436C66.0841 192.14 67.8681 190.401 69.5107 188.161C71.8974 184.896 72.7307 176.857 72.7307 176.857C70.8067 178.992 69.0481 178.53 69.0481 178.53C69.0481 178.53 70.7614 175.717 71.9214 172.597L71.8974 172.586L67.5254 171.532C67.5254 171.532 67.8121 167.497 67.3747 166.056C67.3747 169.005 66.1641 171.306 66.1641 171.306C66.1641 171.306 62.6227 169.858 61.1161 168.98C61.4921 165.905 60.9147 161.052 60.6627 160.298C61.1654 162.936 60.3374 168.21 59.5827 168.528C58.5187 168.969 54.8161 166.558 54.8161 166.558C54.8161 166.558 56.4481 162.538 55.3174 155.254C54.5894 156.957 52.4441 159.133 52.3081 159.269C52.3441 159.057 53.2681 153.988 51.2987 147.718C50.7014 148.653 49.1934 150.582 48.2841 151.728C48.1387 149.31 47.8881 146.994 47.5707 144.704C46.4561 136.51 44.5467 128.673 43.7627 118.077C43.1547 109.888 45.5961 92.4905 47.2294 79.0265" fill="#E6D7B8"/>
<path d="M8.87174 68.0944L8.87707 68.0544C8.21307 67.8437 7.85707 66.5024 7.26907 65.833C8.10374 65.8784 8.95174 65.789 9.76107 65.4664C9.59974 67.0197 9.09841 68.089 9.09841 68.089L9.09307 68.1197C9.01707 68.1144 8.94774 68.105 8.87174 68.0944Z" fill="#0F0D0B"/>
<path d="M14.624 68.3405C12.7854 68.3405 10.876 68.2952 9.09335 68.1192L9.09735 68.0898C9.09735 68.0898 9.60002 67.0192 9.76135 65.4672C9.77602 65.4618 9.79602 65.4512 9.81069 65.4472C9.81069 65.4472 19.392 64.5725 31.1934 58.8005C30.8814 59.0912 20.7227 68.3405 14.624 68.3405Z" fill="#78604A"/>
<path d="M14.624 68.3405C12.7854 68.3405 10.876 68.2952 9.09335 68.1192L9.09735 68.0898C9.09735 68.0898 9.60002 67.0192 9.76135 65.4672C9.77602 65.4618 9.79602 65.4512 9.81069 65.4472C9.81069 65.4472 19.392 64.5725 31.1934 58.8005C30.8814 59.0912 20.7227 68.3405 14.624 68.3405Z" stroke="#78604A" stroke-width="0.254" stroke-miterlimit="10"/>
<path d="M227.638 194.441C227.638 194.441 222.714 198.51 219.852 197.078C215.832 195.069 212.566 182.886 212.566 182.886C212.566 182.886 213.572 193.813 216.586 197.958C207.668 200.218 188.869 198.792 186.442 196.953C186.442 196.953 187.11 195.361 187.446 193.436C187.446 193.436 187.588 190.664 187.07 187.428L187.462 187.362C187.462 187.362 203.93 188.388 206.362 173.622C208.798 158.857 180.665 124.524 182.896 99.821C184.05 105.241 184.402 111.134 186.442 116.57C189.457 124.609 200.006 143.865 212.566 148.724C214.742 167.644 227.638 194.441 227.638 194.441Z" fill="#CCBC95"/>
<path d="M187.07 187.428C187.587 190.664 187.447 193.436 187.447 193.436C187.447 193.436 172.25 195.572 170.994 194.441C169.738 193.31 169.486 188.914 169.611 184.77C167.854 188.789 168.355 192.934 168.355 192.934C168.355 192.934 164.587 194.692 161.318 193.436C161.322 179.244 158.81 175.978 156.675 170.704C156.675 170.704 164.101 169.985 166.903 167.96C169.457 171.116 171.219 172.501 171.219 172.501C171.219 172.501 172.887 165.302 172.887 166.136C172.887 166.976 173.049 176.354 173.887 176.184L177.233 177.189C177.233 177.189 176.559 171.16 176.897 172.165C177.233 173.17 179.031 179.284 178.821 182.213C179.866 183.302 181.921 183.389 181.921 183.389C181.921 183.389 182.253 179.449 181.669 176.857C183.342 180.792 182.925 184.222 182.925 184.222C182.925 184.222 184.598 182.464 184.598 180.54C185.975 182.48 186.698 185.077 187.07 187.428Z" fill="#CCBC95"/>
<path d="M164.563 72.6109L164.362 72.8976C152.41 66.8589 137.369 68.4709 117.187 69.4763C97.0019 70.4803 83.1659 60.3029 83.1659 60.3029L83.1752 60.2776C88.8232 62.7843 99.1059 64.5883 107.567 64.9896C118.117 65.4923 138.443 62.5283 152.782 66.8336C157.389 68.2149 161.278 70.2496 164.563 72.6109Z" fill="#F7E7BF"/>
<path d="M136.334 160.188C136.384 160.816 137.123 169.602 138.147 173.842C135.7 175.726 123.643 176.104 121.634 175.726C119.846 175.39 118.65 169.773 118.414 168.553C118.584 169.528 119.232 173.3 119.122 175.476C117.363 175.601 113.094 175.726 111.586 175.098C110.074 174.47 109.199 168.568 109.199 168.568L109.054 174.345L105.019 173.341C105.019 173.341 103.694 170.07 102.342 161.449C102.342 161.449 144.512 157.846 154.802 144.874C158.686 156.354 163.498 163.74 166.904 167.96C164.1 169.985 156.675 170.702 156.675 170.702C155.038 166.669 152.912 162.554 152.782 162.298L155.796 171.958C153.148 173.089 143.879 174.848 140.976 173.466C138.158 172.129 136.439 160.886 136.334 160.188Z" fill="#CCBC95"/>
<path d="M115.54 199.465C115.102 202.354 105.934 203.358 105.934 203.358C105.934 203.358 104.05 201.098 103.297 198.46C102.417 201.349 103.925 203.736 103.925 203.736C102.669 205.117 94.3783 205.242 94.3783 205.242C94.3783 205.242 92.4943 200.596 92.4943 195.948C90.737 200.596 92.4943 205.745 92.4943 205.745C92.4943 205.745 71.2237 209.342 61.849 200.47C61.849 200.47 63.6077 199.968 63.6877 197.958C61.889 198.46 59.5877 196.576 59.5877 196.576C59.5877 196.576 61.7637 195.637 64.481 193.437C69.621 196.45 97.117 195.838 98.9503 188.89C100.785 181.941 96.8663 160.946 98.9503 135.993L99.9557 135.948C100.493 147.326 101.422 155.616 102.342 161.449C103.693 170.07 105.02 173.341 105.02 173.341C105.02 173.341 110.958 193.688 115.54 199.465" fill="#CCBC95"/>
<path d="M52.3086 159.268C52.4446 159.132 54.5899 156.958 55.3179 155.254C56.4486 162.539 54.8153 166.558 54.8153 166.558C54.8153 166.558 58.5179 168.97 59.5833 168.527C60.3366 168.211 61.1659 162.936 60.6633 160.298C60.9139 161.052 61.4926 165.904 61.1153 168.979C62.6233 169.859 66.1646 171.306 66.1646 171.306C66.1646 171.306 67.3753 169.004 67.3753 166.056C67.8126 167.498 67.5259 171.532 67.5259 171.532L71.8966 172.587L71.9219 172.596C70.7619 175.716 69.0486 178.53 69.0486 178.53C69.0486 178.53 70.8073 178.992 72.7313 176.858C72.7313 176.858 71.8966 184.895 69.5099 188.16C67.8673 190.402 66.0846 192.14 64.4819 193.436C61.7633 195.636 59.5886 196.576 59.5886 196.576C59.5886 196.576 61.8886 198.46 63.6873 197.958C63.6073 199.967 61.8486 200.47 61.8486 200.47C52.9713 203.147 39.3673 199.808 33.7153 196.292C35.7246 195.503 38.2219 194.187 39.9953 192.854H39.9993C40.2766 192.854 49.3539 195.011 53.5339 193.528C57.7846 192.022 63.8579 185.822 63.8579 180.878C63.8579 174.518 48.8166 168.403 48.1886 163.604C48.5953 159.535 48.8473 155.319 48.8473 151.738V151.727C48.8473 150.582 50.9819 148.652 51.5806 147.719C53.5499 153.988 52.3433 159.058 52.3086 159.268Z" fill="#CCBC95"/>
<path d="M42.2406 190.432C41.9739 190.512 37.9606 191.773 37.2312 190.924C40.2459 189.165 42.7579 186.78 44.2646 182.886C45.2846 180.253 47.0632 172.004 47.9072 163.518C48.5352 168.317 63.8579 174.345 63.8579 180.705C63.8579 185.649 57.7846 191.677 53.5339 193.185C49.3539 194.666 40.2766 192.24 39.9992 192.165C41.2352 191.256 42.1206 190.532 42.2406 190.432Z" fill="#E6D7B8"/>
<path d="M48.2845 61.307C49.0125 63.0297 48.2951 70.179 47.2298 79.027L47.1538 79.0164C46.6511 81.151 42.7578 83.915 42.7578 83.915C42.7578 83.915 45.0191 78.891 44.1391 75.2484C44.0138 78.263 39.9951 78.639 39.9951 78.639C39.9951 78.639 42.2458 68.0137 40.5071 59.855C42.5725 59.3724 44.7885 58.991 46.3898 59.5537C46.3951 59.5537 46.4058 59.559 46.4111 59.559C47.2338 59.8457 47.8978 60.3924 48.2845 61.307Z" fill="#CCBC95"/>
<path d="M53.5595 18.3525C51.8115 16.1219 48.6355 14.2579 45.8275 13.9419C45.0088 13.8459 44.2195 13.8859 43.5115 14.0872C40.3715 14.9765 38.2368 16.8605 38.2368 16.8605C38.2368 16.8605 36.2275 12.6099 33.7155 12.8565C31.8315 13.0365 30.1982 14.1419 30.1982 14.1419C30.1982 14.1419 30.1982 14.1379 30.1928 14.1325C30.1275 14.8912 29.3088 23.9339 28.1888 27.1445C27.8475 28.1085 26.5755 29.6459 24.8382 31.4552L24.8675 31.4845C23.6422 36.6899 18.7342 41.9499 14.8448 45.3565C7.87684 51.4699 6.07284 57.3832 6.00351 57.6245C7.57551 58.7192 8.53551 59.9499 9.09817 61.1765C9.80617 62.7139 9.89151 64.2405 9.76084 65.4672C9.77551 65.4619 9.79551 65.4512 9.81151 65.4472C9.81151 65.4472 19.3915 64.5725 31.1928 58.8005C31.1982 58.8005 31.1982 58.7952 31.2035 58.7952C31.2035 58.7952 33.0422 60.6339 35.7248 60.8045C36.7488 60.8699 38.5582 60.3179 40.5075 59.8552C42.5728 59.3725 44.7875 58.9912 46.3902 59.5539C46.3955 59.5539 46.4048 59.5592 46.4102 59.5592C49.2995 60.1059 51.4702 63.2312 54.3075 62.8245C54.2075 61.9299 54.1222 61.0059 54.0622 60.0512C53.4395 50.5112 56.9502 37.5685 57.0768 32.4192C57.2022 27.2699 55.8208 21.2419 53.5595 18.3525Z" fill="#8C7057"/>
<path d="M24.8379 31.4549L24.8685 31.4856C23.6419 36.6896 18.7339 41.9496 14.8459 45.3563C7.87652 51.4696 6.07386 57.3829 6.00319 57.6243C5.31519 57.1469 4.51119 56.6949 3.57119 56.2829L3.38052 56.1923C5.32452 52.0883 8.22852 47.6376 10.6045 45.0603C13.4632 41.9656 20.5579 35.9016 24.8379 31.4549Z" fill="#A38365"/>
<path d="M24.8379 31.4549L24.8685 31.4856C23.6419 36.6896 18.7339 41.9496 14.8459 45.3563C7.87652 51.4696 6.07386 57.3829 6.00319 57.6243C5.31519 57.1469 4.51119 56.6949 3.57119 56.2829L3.38052 56.1923C5.32452 52.0883 8.22852 47.6376 10.6045 45.0603C13.4632 41.9656 20.5579 35.9016 24.8379 31.4549Z" stroke="#A38365" stroke-width="0.254" stroke-miterlimit="10"/>
<path d="M9.09786 61.1764C9.80586 62.7137 9.89119 64.2404 9.76052 65.467C8.95252 65.7884 8.10319 65.879 7.26852 65.8337C7.07386 65.6124 6.85252 65.4617 6.58586 65.451C6.34986 65.4417 6.07386 65.5017 5.78719 65.603C3.28986 65.0044 1.22586 63.6164 1.22586 63.6164C1.20052 62.979 1.30052 61.5204 1.49652 61.5204H1.50186C1.50186 61.5204 4.75652 58.8844 9.02719 61.3404L9.09786 61.1764Z" fill="#241F1A"/>
<path d="M9.09786 61.1764C9.80586 62.7137 9.89119 64.2404 9.76052 65.467C8.95252 65.7884 8.10319 65.879 7.26852 65.8337C7.07386 65.6124 6.85252 65.4617 6.58586 65.451C6.34986 65.4417 6.07386 65.5017 5.78719 65.603C3.28986 65.0044 1.22586 63.6164 1.22586 63.6164C1.20052 62.979 1.30052 61.5204 1.49652 61.5204H1.50186C1.50186 61.5204 4.75652 58.8844 9.02719 61.3404L9.09786 61.1764Z" stroke="#241F1A" stroke-miterlimit="10"/>
<path d="M6.0031 57.6245C7.5751 58.7192 8.5351 59.9512 9.09776 61.1765L9.0271 61.6738C4.75776 59.2178 1.50176 62.1872 1.50176 62.1872H1.49643C1.84843 59.5205 2.52176 58.4792 3.38043 56.6605L3.5711 56.5165C4.5111 56.9285 5.3151 57.1472 6.0031 57.6245Z" fill="#423930"/>
<path d="M8.87689 68.0542L8.81289 68.0942C6.79289 67.8836 6.18089 67.4969 3.51422 66.8036V66.7982C3.51422 66.7982 4.71822 65.9542 5.72755 65.6022C6.21022 65.7182 6.73689 65.8036 7.23955 65.8342C7.82755 66.5022 8.21422 67.8436 8.87689 68.0542Z" fill="black"/>
<path d="M6.58596 65.4518C6.85263 65.4624 7.07263 65.6131 7.26863 65.8331C6.76729 65.8038 6.26996 65.7184 5.78729 65.6024C6.07396 65.5024 6.34996 65.4411 6.58596 65.4518Z" fill="black"/>
<path d="M5.72797 65.6025C4.71863 65.9545 3.5133 66.7985 3.5133 66.7985V66.8039C2.17997 66.0799 1.19197 65.0252 1.1373 63.4825C1.1373 63.4825 3.23063 65.0052 5.72797 65.6025Z" fill="#0F0D0B"/>
<path d="M153.28 162.187H153.282H153.28ZM204.118 199.613C196.03 199.613 187.788 198.603 186.138 197.353C185.956 197.215 185.89 196.971 185.978 196.759C185.985 196.745 186.477 195.559 186.817 194.031C182.566 194.613 171.908 195.94 170.658 194.813C169.589 193.852 169.197 191.075 169.104 188.16C168.612 190.76 168.852 192.844 168.854 192.873C168.881 193.089 168.765 193.297 168.569 193.389C168.406 193.464 164.566 195.221 161.137 193.905C160.944 193.831 160.816 193.644 160.816 193.436C160.82 181.433 159.048 177.405 157.172 173.14C156.854 172.419 156.526 171.673 156.21 170.892C154.757 167.312 152.894 163.62 152.358 162.573L152.334 162.525C152.296 162.452 152.274 162.369 152.274 162.288C152.274 162.011 152.5 161.785 152.777 161.785C152.978 161.785 153.153 161.904 153.233 162.076L153.253 162.115C153.794 163.171 155.672 166.896 157.141 170.513C157.452 171.283 157.777 172.021 158.092 172.736C159.909 176.867 161.788 181.137 161.82 193.08C164.238 193.845 166.914 192.964 167.822 192.611C167.741 191.472 167.65 188.001 169.152 184.568C169.248 184.348 169.488 184.225 169.722 184.28C169.957 184.332 170.121 184.544 170.114 184.785C169.964 189.776 170.418 193.247 171.33 194.068C172.173 194.649 180.152 193.953 187.377 192.939C187.538 192.917 187.697 192.972 187.808 193.087C187.92 193.203 187.969 193.364 187.942 193.523C187.698 194.92 187.289 196.135 187.064 196.74C190.236 198.275 206.901 199.596 215.77 197.635C213.028 193.088 212.106 183.363 212.066 182.932C212.042 182.672 212.221 182.437 212.478 182.391C212.737 182.347 212.985 182.504 213.052 182.756C213.084 182.876 216.304 194.743 220.076 196.629C222.038 197.611 225.497 195.464 227.014 194.296C225.481 191.039 214.22 166.655 212.102 149.08C199.637 144.036 189.129 125.165 185.972 116.747C184.593 113.073 183.976 109.191 183.378 105.437C183.088 103.608 182.786 101.717 182.404 99.9254C181.77 96.9494 180.997 94.6508 179.969 92.6881C177.328 87.6548 172.908 79.2308 164.27 73.0188C160.758 70.4961 156.845 68.5761 152.638 67.3148C142.738 64.3414 129.838 64.8681 119.474 65.2908C114.805 65.4814 110.772 65.6454 107.542 65.4921C98.405 65.0574 88.301 63.1014 82.9716 60.7361C81.4756 60.0681 80.337 59.3694 79.589 58.6561C79.3876 58.4654 79.3796 58.1468 79.5716 57.9468C79.7636 57.7454 80.081 57.7374 80.281 57.9294C80.9463 58.5628 81.989 59.1974 83.3796 59.8188C88.6063 62.1388 98.5636 64.0588 107.59 64.4881C110.774 64.6388 114.788 64.4761 119.433 64.2868C129.873 63.8614 142.865 63.3308 152.926 66.3521C157.241 67.6454 161.254 69.6148 164.857 72.2028C173.688 78.5534 178.353 87.4454 180.858 92.2214C181.93 94.2681 182.734 96.6481 183.386 99.7161C183.774 101.533 184.077 103.437 184.37 105.279C184.96 108.984 185.57 112.815 186.913 116.393C190.042 124.739 200.476 143.508 212.748 148.255C212.922 148.323 213.044 148.48 213.066 148.667C215.206 167.287 227.962 193.956 228.092 194.223C228.192 194.431 228.137 194.681 227.958 194.828C227.748 195.003 222.746 199.087 219.626 197.528C217.304 196.367 215.273 192.161 213.904 188.572C214.518 191.816 215.509 195.623 216.992 197.663C217.09 197.797 217.116 197.972 217.058 198.128C217.002 198.285 216.87 198.404 216.709 198.445C213.44 199.273 208.805 199.613 204.118 199.613" fill="black"/>
<path d="M144.341 174.471C142.861 174.471 141.585 174.312 140.759 173.92C137.831 172.531 136.145 161.984 135.837 159.947C135.822 159.875 135.826 159.52 135.826 159.52H136.831C136.831 159.52 136.834 159.827 136.831 159.803C137.687 165.437 139.411 172.011 141.191 172.853C143.755 174.073 152.134 172.683 155.178 171.583L152.302 162.408C152.219 162.143 152.367 161.881 152.633 161.799C152.897 161.715 153.179 161.873 153.262 162.139L156.275 171.804C156.353 172.051 156.231 172.317 155.994 172.419C153.993 173.273 148.401 174.471 144.341 174.471Z" fill="black"/>
<path d="M124.241 176.351C122.963 176.351 121.984 176.303 121.541 176.22C119.523 175.84 118.336 170.799 117.92 168.648L117.909 168.59C117.904 168.56 117.899 168.535 117.895 168.512C117.876 168.431 117.871 168.386 117.871 168.386C117.836 168.112 118.028 167.858 118.301 167.822C118.573 167.783 118.825 167.971 118.865 168.243C118.867 168.251 118.871 168.272 118.877 168.304C118.881 168.318 118.883 168.33 118.885 168.343L118.908 168.462C119.633 172.212 120.82 175.063 121.727 175.234C123.616 175.587 134.784 175.214 137.579 173.618C136.551 169.07 135.84 160.318 135.833 160.228C135.811 159.951 136.017 159.71 136.293 159.687C136.569 159.667 136.812 159.871 136.835 160.147C136.841 160.239 137.583 169.367 138.636 173.724C138.683 173.918 138.611 174.12 138.453 174.24C136.427 175.802 128.595 176.351 124.241 176.351Z" fill="black"/>
<path d="M82.6115 206.991C75.7875 206.991 67.0488 205.89 61.7168 201.031C52.8675 203.543 39.3475 200.045 33.4502 196.375C33.2888 196.274 33.1968 196.091 33.2142 195.902C33.2315 195.714 33.3542 195.55 33.5315 195.481C35.5048 194.706 37.9742 193.03 39.6968 191.761C39.9195 191.595 40.2342 191.643 40.3995 191.867C40.5635 192.09 40.5168 192.405 40.2928 192.57C38.7755 193.687 36.6888 195.114 34.8182 196.013C40.9848 199.43 53.5222 202.457 61.7035 199.989C61.8755 199.937 62.0635 199.981 62.1942 200.105C70.4368 207.906 88.4328 205.814 91.8475 205.334C91.4368 203.833 90.5502 199.669 92.0248 195.77C92.1115 195.543 92.3462 195.411 92.5848 195.454C92.8235 195.498 92.9968 195.706 92.9968 195.949C92.9968 199.759 94.3102 203.617 94.7222 204.734C97.7795 204.665 102.013 204.283 103.28 203.597C102.866 202.755 102.089 200.819 102.816 198.429C102.881 198.217 103.076 198.187 103.297 198.187H103.301C103.524 198.187 103.718 198.222 103.78 198.437C104.368 200.494 105.69 202.279 106.154 202.885C109.441 202.49 114.398 201.285 114.994 199.61C110.43 193.587 104.778 174.321 104.538 173.495C104.488 173.323 104.533 173.129 104.658 172.999C104.782 172.87 104.968 172.813 105.141 172.857L108.568 173.709L108.697 168.555C108.704 168.295 108.909 168.083 109.169 168.067C109.438 168.049 109.658 168.237 109.697 168.494C110.098 171.198 111.008 174.315 111.778 174.635C112.978 175.135 116.434 175.131 118.632 175.003C118.644 173.087 118.2 170.241 117.918 168.639C117.87 168.366 118.053 168.106 118.326 168.058C118.601 168.013 118.861 168.193 118.909 168.466C119.218 170.238 119.725 173.509 119.624 175.501C119.61 175.755 119.41 175.959 119.157 175.977C119.1 175.981 113.354 176.381 111.393 175.563C110.626 175.245 110.033 174.002 109.6 172.643L109.556 174.358C109.552 174.51 109.48 174.653 109.358 174.745C109.237 174.838 109.078 174.87 108.933 174.833L105.754 174.041C106.929 177.931 111.99 194.181 115.933 199.153C116.02 199.262 116.057 199.402 116.037 199.541C115.556 202.719 106.966 203.751 105.989 203.858C105.818 203.877 105.656 203.809 105.548 203.681C105.488 203.607 104.39 202.278 103.525 200.457C103.565 202.199 104.34 203.45 104.349 203.467C104.47 203.658 104.449 204.127 104.296 204.294C102.961 205.762 95.8075 206.187 94.3862 206.187H94.3795C94.1742 206.187 93.9902 205.842 93.9128 205.653C93.8542 205.506 92.7875 202.734 92.2702 199.419C91.9915 202.751 92.9582 205.599 92.9702 205.638C93.0182 205.777 93.0022 205.903 92.9262 206.03C92.8515 206.155 92.7235 206.229 92.5782 206.254C92.1942 206.319 87.9982 206.991 82.6115 206.991Z" fill="black"/>
<path d="M40.0002 192.668C39.8455 192.668 39.6935 192.597 39.5948 192.462C39.4308 192.24 39.4788 191.925 39.7015 191.761C40.9628 190.833 41.8175 190.129 41.9095 190.053C42.0028 189.97 42.1308 189.92 42.2562 189.92C42.5335 189.92 42.7588 190.145 42.7588 190.422C42.7588 190.594 42.6708 190.748 42.5375 190.838C42.3815 190.966 41.5255 191.666 40.2975 192.57C40.2082 192.636 40.1042 192.668 40.0002 192.668Z" fill="black"/>
<path d="M38.3358 191.713C37.6104 191.713 37.1144 191.559 36.8504 191.251C36.7531 191.137 36.7118 190.988 36.7358 190.84C36.7611 190.693 36.8504 190.565 36.9784 190.489C40.3304 188.535 42.4971 186.061 43.7971 182.704C44.7544 180.233 47.0731 172.173 47.9398 163.469C48.3878 158.993 48.8464 155.057 48.8464 151.768V151.728C47.5131 149.552 47.9504 147.267 47.6064 144.773C47.2184 141.928 46.4758 139.16 45.9704 136.231C45.0211 130.732 43.9078 125.045 43.3944 118.115C42.8704 111.051 44.5318 97.1894 46.0558 84.9614C46.3118 82.9081 46.5304 80.8961 46.7638 78.9655C46.7971 78.6908 47.0304 78.4961 47.3064 78.5281C47.5824 78.5614 47.7704 78.8108 47.7371 79.0868C47.5024 81.0188 47.2478 83.0308 46.9904 85.0854C45.4731 97.2681 43.7491 111.075 44.2664 118.04C44.7744 124.923 45.7504 130.584 46.6944 136.06C47.2011 138.999 47.7104 141.775 48.0998 144.636C48.4478 147.156 48.8464 149.465 48.8464 151.697V151.737C50.1798 155.049 48.8904 159.04 48.4371 163.569C47.5624 172.363 45.7264 180.543 44.7491 183.068C43.5024 186.285 41.5078 188.739 38.5331 190.711C39.2824 190.665 40.4651 190.451 42.0651 189.961L42.0971 189.951C42.3598 189.869 42.6424 190.02 42.7224 190.287C42.8024 190.552 42.6518 190.832 42.3864 190.912C40.6411 191.447 39.2891 191.713 38.3358 191.713Z" fill="black"/>
<path d="M35.8966 61.3122C35.8259 61.3122 35.7579 61.3109 35.6926 61.3056C32.8526 61.1256 30.9286 59.2309 30.8472 59.1509C30.6512 58.9536 30.6512 58.6362 30.8472 58.4402C31.0432 58.2442 31.3606 58.2429 31.5579 58.4389C31.5752 58.4562 33.3059 60.1469 35.7566 60.3029C36.4672 60.3509 37.7299 60.0296 39.0659 59.6936C39.4952 59.5856 39.9392 59.4736 40.3912 59.3669C42.4646 58.8816 44.8179 58.4696 46.5566 59.0802C46.8192 59.1722 46.9566 59.4589 46.8646 59.7202C46.7726 59.9816 46.4872 60.1189 46.2246 60.0282C44.7299 59.5029 42.5526 59.8936 40.6219 60.3442C40.1766 60.4496 39.7366 60.5602 39.3126 60.6682C37.9472 61.0122 36.7539 61.3122 35.8966 61.3122Z" fill="black"/>
<path d="M14.6242 68.8428C12.3629 68.8428 10.5895 68.7721 9.04286 68.6201C8.97886 68.6148 8.90286 68.6054 8.82286 68.5948C6.4802 68.3494 4.7082 67.9108 3.40553 67.2521C1.6842 66.3814 0.781529 65.1201 0.722862 63.5001C0.697529 62.8414 0.790862 62.0681 1.00686 61.1374C1.34953 59.6841 1.99486 57.9494 2.92553 55.9788C4.86686 51.8801 7.80419 47.3561 10.2362 44.7188C11.6495 43.1894 14.0935 40.9348 16.6802 38.5494C19.4442 36.0001 22.3015 33.3654 24.4762 31.1068C26.3429 29.1641 27.4322 27.7748 27.7149 26.9761C28.8522 23.7174 29.6842 14.1854 29.6922 14.0894C29.7162 13.8121 29.9655 13.6068 30.2362 13.6321C30.5135 13.6561 30.7175 13.8988 30.6935 14.1761C30.6855 14.2721 29.8429 23.9308 28.6629 27.3094C28.3215 28.2721 27.2215 29.6988 25.2002 31.8028C23.0042 34.0841 20.1362 36.7294 17.3615 39.2881C14.7895 41.6601 12.3602 43.9001 10.9735 45.4001C8.60553 47.9694 5.73619 52.3934 3.83486 56.4081C2.93353 58.3148 2.3122 59.9828 1.98553 61.3668C1.7922 62.1948 1.70553 62.9001 1.72686 63.4628C1.77219 64.7068 2.46953 65.6534 3.85886 66.3548C5.05086 66.9574 6.70819 67.3628 8.92419 67.5948C8.92953 67.5948 8.95219 67.5988 8.95753 67.5988C9.01486 67.6068 9.06819 67.6148 9.12686 67.6188C10.6549 67.7681 12.3962 67.8388 14.6242 67.8388C20.5309 67.8388 30.7495 58.5268 30.8495 58.4334C31.0522 58.2441 31.3695 58.2548 31.5602 58.4574C31.7495 58.6601 31.7389 58.9774 31.5362 59.1668C31.4335 59.2641 21.0135 68.8428 14.6242 68.8428Z" fill="black"/>
<path d="M61.8487 200.972C61.6301 200.972 61.4287 200.828 61.3661 200.608C61.2901 200.34 61.4447 199.884 61.7114 199.808C61.7581 199.793 62.7687 199.52 63.0901 198.187H63.0447C61.2234 198.187 59.3594 196.859 59.2701 196.785C59.1341 196.675 59.0674 196.591 59.0901 196.417C59.1154 196.244 59.2274 196.14 59.3887 196.069C59.4101 196.061 61.5407 195.148 64.1661 193.023C66.0247 191.519 67.6874 189.787 69.1061 187.853C70.8087 185.523 71.7074 180.544 72.0567 178.145C70.3807 179.372 68.9901 179.032 68.9207 179.013C68.7674 178.973 68.6421 178.864 68.5821 178.717C68.5234 178.569 68.5367 178.404 68.6194 178.268C68.6367 178.24 70.3221 175.457 71.4514 172.421C71.8314 171.396 72.1114 170.447 72.2834 169.599C73.0687 165.621 74.4434 125.225 72.2354 112.299C72.1887 112.025 72.3727 111.765 72.6461 111.719C72.9194 111.673 73.1794 111.856 73.2261 112.129C75.4461 125.133 74.0607 165.789 73.2687 169.795C73.0861 170.697 72.7914 171.699 72.3927 172.772C71.5767 174.965 70.5074 176.984 69.9154 178.036C70.5087 177.935 71.3981 177.585 72.3581 176.521C72.5034 176.359 72.7367 176.309 72.9354 176.399C73.1341 176.487 73.2527 176.692 73.2314 176.909C73.1967 177.243 72.3541 185.12 69.9167 188.457C68.4461 190.463 66.7234 192.268 64.7981 193.827C63.0061 195.277 61.4541 196.187 60.5687 196.653C61.3807 197.163 62.6141 197.735 63.5527 197.473C63.7074 197.431 63.8727 197.464 63.9994 197.564C64.1261 197.663 64.1967 197.817 64.1901 197.977C64.1154 199.855 62.7154 200.744 61.9874 200.953C61.9407 200.965 61.8941 200.972 61.8487 200.972Z" fill="black"/>
<path d="M105.02 173.843C104.821 173.843 104.633 173.724 104.554 173.53C104.5 173.394 103.19 170.107 101.845 161.527C100.724 154.406 99.9183 145.808 99.4529 135.971C99.2383 131.471 99.0943 125.906 99.0263 120.647C99.0223 120.37 99.2449 119.52 99.5223 119.52H99.5289C99.8023 119.52 100.028 120.358 100.03 120.634C100.1 125.88 100.242 131.127 100.457 135.615C100.92 145.415 101.721 154.131 102.838 161.216C104.161 169.655 105.473 173.043 105.485 173.075C105.589 173.332 105.465 173.663 105.208 173.767C105.146 173.792 105.082 173.843 105.02 173.843Z" fill="black"/>
<path d="M187.447 194.187H187.422C187.145 194.187 186.931 193.812 186.945 193.535C186.946 193.508 187.077 190.711 186.574 187.569C186.222 185.339 185.649 183.44 184.866 181.965C184.387 183.431 183.346 184.524 183.29 184.584C183.139 184.741 182.907 184.776 182.711 184.684C182.515 184.592 182.401 184.381 182.426 184.165C182.429 184.153 182.485 183.653 182.462 182.833C182.442 183.179 182.425 183.395 182.421 183.432C182.399 183.7 182.169 183.904 181.899 183.891C181.807 183.887 179.63 183.783 178.458 182.56C178.359 182.457 178.31 182.319 178.319 182.177C178.409 180.937 178.114 179.065 177.729 177.276C177.709 177.392 177.647 177.497 177.555 177.575C177.425 177.683 177.25 177.717 177.089 177.671L173.815 176.687C173.69 176.677 173.567 176.628 173.462 176.541C172.815 176.013 172.557 172.32 172.454 169.481C172.214 170.465 171.953 171.565 171.709 172.615C171.67 172.783 171.549 172.919 171.386 172.975C171.225 173.032 171.045 173.003 170.909 172.896C170.835 172.839 169.073 171.439 166.514 168.276C163.115 164.067 158.243 156.617 154.326 145.036C151.231 135.875 149.205 125.521 148.302 114.264C148.279 113.988 148.486 113.745 148.763 113.723C149.039 113.704 149.281 113.907 149.303 114.184C150.201 125.359 152.21 135.631 155.277 144.715C159.149 156.156 163.949 163.499 167.295 167.644C168.905 169.633 170.202 170.915 170.919 171.573C172.33 165.501 172.395 165.507 172.931 165.569C173.102 165.589 173.39 165.731 173.39 166.136C173.39 168.551 173.635 174.709 174.091 175.72L176.65 176.489C176.123 171.695 176.222 171.672 176.726 171.561C176.834 171.537 177.203 171.499 177.373 172.005C177.727 173.063 179.446 178.923 179.335 182.008C179.951 182.535 180.887 182.748 181.454 182.833C181.519 181.696 181.617 178.912 181.179 176.968C181.122 176.713 181.269 176.459 181.515 176.379C181.762 176.3 182.03 176.421 182.131 176.66C183.137 179.024 183.413 181.199 183.466 182.616C183.798 182.025 184.095 181.289 184.095 180.54C184.095 180.321 184.238 180.128 184.446 180.061C184.653 179.995 184.881 180.071 185.007 180.249C186.234 181.976 187.095 184.365 187.566 187.349C188.086 190.599 187.955 193.471 187.949 193.585C187.935 193.853 187.713 194.187 187.447 194.187Z" fill="black"/>
<path d="M65.4227 82.4806C65.4934 82.4806 65.5641 82.4953 65.6321 82.5246C65.9414 82.6566 65.9787 82.9953 65.9907 83.106C66.1321 84.3753 66.9614 87.9873 68.9521 90.0033C68.4867 85.7526 69.6027 81.8206 69.6561 81.6393C69.7161 81.4313 69.9054 81.2846 70.1227 81.278C70.3347 81.2686 70.5387 81.406 70.6121 81.61C70.8641 82.314 71.7201 84.1313 72.7374 84.6526C72.6627 82.43 73.1001 80.158 73.3881 78.934C74.2094 75.438 74.7947 75.3313 74.9867 75.2953C75.2334 75.2513 75.5401 75.37 75.6454 75.738C75.6801 75.858 75.7187 76.0326 75.7667 76.2513C76.0334 77.4553 76.6094 80.062 78.5467 82.306C78.3614 79.2633 78.5334 73.958 78.7441 67.5073C78.8401 64.5286 78.9401 61.45 79.0161 58.2713C79.1627 52.29 79.2881 43.5526 78.6814 36.734C77.3361 21.6913 65.6747 12.3086 65.5574 12.2153C65.4161 12.1046 65.3454 11.9273 65.3707 11.75C65.3974 11.5726 65.5147 11.422 65.6814 11.3553C65.6921 11.3513 66.6334 10.9673 68.0001 10.0606C60.8974 5.42731 49.0294 8.26063 48.9067 8.28997C48.6774 8.34597 48.4427 8.23664 48.3374 8.0273C48.2707 7.89397 46.8481 5.01531 46.5721 1.99397C42.6454 5.15131 41.7507 9.00064 41.7414 9.04197C41.6921 9.2633 41.5014 9.4233 41.2747 9.43397C41.0481 9.44464 40.8427 9.30197 40.7721 9.08731C40.7627 9.05797 39.9254 6.51797 38.0867 4.86597C38.2054 7.19664 37.7427 9.08864 37.7187 9.18064C37.6627 9.40864 37.4414 9.56597 37.2187 9.56064C36.9827 9.55397 36.7841 9.38597 36.7387 9.15397C36.7361 9.14197 36.4081 7.61664 34.8774 6.61797C33.6147 5.79397 31.9041 5.53664 29.7841 5.8513C31.6081 7.72464 31.9374 9.88997 31.9507 9.99263C31.9734 10.1433 31.9241 10.2966 31.8187 10.4073C31.7134 10.5193 31.5641 10.578 31.4107 10.5633C31.3881 10.562 29.3587 10.4033 28.2347 11.3166C29.3614 12.022 30.0414 12.9046 30.3827 13.4446C31.0294 13.0833 32.2747 12.49 33.6667 12.3566C35.9267 12.1353 37.7187 14.8726 38.3987 16.0873C39.2227 15.4673 41.0174 14.2713 43.3747 13.6033C44.1267 13.39 44.9707 13.3353 45.8867 13.442C48.7681 13.7673 52.0867 15.6593 53.9547 18.042C56.1881 20.8966 57.7121 26.9473 57.5787 32.4313C57.5321 34.3553 57.0254 37.3206 56.4387 40.754C55.4294 46.67 54.1721 54.0326 54.5627 60.018C54.6187 60.9086 54.6987 61.8073 54.8081 62.7686C55.8601 71.982 59.0014 78.0513 64.1734 87.3873C64.2481 85.2873 64.6494 82.93 65.0974 82.5913C65.1947 82.518 65.3081 82.4806 65.4227 82.4806ZM69.6361 91.702C69.5441 91.702 69.4521 91.6766 69.3694 91.626C67.0534 90.1766 65.9081 87.134 65.3841 85.134C65.1961 86.3913 65.0641 88.054 65.2361 89.3766C65.2667 89.6153 65.1241 89.8433 64.8947 89.918C64.6667 89.994 64.4161 89.8953 64.2987 89.6846L64.2347 89.5713C58.4427 79.138 54.9467 72.842 53.8094 62.8806C53.6987 61.9033 53.6174 60.9886 53.5601 60.0833C53.1627 53.9806 54.4294 46.5526 55.4481 40.5846C56.0281 37.19 56.5294 34.258 56.5734 32.4073C56.7027 27.1326 55.2681 21.3513 53.1641 18.662C51.4494 16.474 48.4094 14.738 45.7721 14.4406C44.9867 14.35 44.2734 14.394 43.6494 14.57C40.6534 15.4193 38.5894 17.2193 38.5694 17.2366C38.4507 17.342 38.2907 17.3833 38.1361 17.3526C37.9814 17.3206 37.8507 17.218 37.7827 17.0753C37.2641 15.982 35.5201 13.1793 33.7641 13.3566C32.0267 13.5233 30.4947 14.5486 30.4801 14.558C30.3254 14.6633 30.1267 14.6726 29.9627 14.586C29.8654 14.534 29.7894 14.4526 29.7441 14.3566C29.7414 14.3526 29.7401 14.3486 29.7374 14.3446C29.7081 14.282 28.9934 12.7833 27.2107 11.894C27.0801 11.8286 26.9854 11.7113 26.9494 11.57C26.9121 11.4286 26.9387 11.278 27.0227 11.1593C27.9481 9.82063 29.8067 9.57663 30.8134 9.54863C30.5627 8.71397 29.9161 7.14864 28.3801 5.93531C28.2267 5.81531 28.1574 5.61797 28.2014 5.42863C28.2454 5.2393 28.3947 5.09131 28.5854 5.04997C31.4494 4.42997 33.7601 4.67931 35.4481 5.79131C36.1627 6.26197 36.6614 6.82197 37.0054 7.3393C37.1067 6.40197 37.1627 5.14997 36.9854 3.8513C36.9587 3.65797 37.0467 3.46731 37.2094 3.36197C37.3734 3.25531 37.5827 3.25397 37.7467 3.3553C39.4961 4.43797 40.6067 6.26197 41.1987 7.49397C41.8614 5.84597 43.4121 2.97397 46.7374 0.60997C46.8907 0.50197 47.0921 0.487303 47.2587 0.57397C47.4254 0.659303 47.5307 0.831303 47.5307 1.0193C47.5307 3.5393 48.6427 6.26464 49.0707 7.22197C51.3587 6.72464 62.4374 4.6593 69.1814 9.6593C69.3107 9.7553 69.3867 9.9073 69.3854 10.0673C69.3841 10.2286 69.3054 10.378 69.1747 10.4713C68.1787 11.1833 67.3414 11.6593 66.7841 11.9446C69.2534 14.1393 78.4787 23.182 79.6814 36.6446C80.2947 43.514 80.1681 52.2913 80.0201 58.2953C79.9454 61.478 79.8454 64.5593 79.7481 67.5393C79.5107 74.8166 79.3067 81.1006 79.6787 83.5886C79.7094 83.798 79.6067 84.0046 79.4214 84.1046C79.2361 84.206 79.0067 84.1793 78.8481 84.0393C76.2667 81.7566 75.3507 78.838 74.9401 77.1433C74.3534 78.8433 73.5334 82.3926 73.7787 85.254C73.7907 85.394 73.7441 85.5326 73.6481 85.6366C73.5534 85.7393 73.4187 85.798 73.2787 85.798C71.9187 85.798 70.9027 84.45 70.2974 83.3406C69.9641 85.0726 69.5681 88.134 70.1294 91.106C70.1667 91.302 70.0841 91.502 69.9201 91.614C69.8347 91.6726 69.7347 91.702 69.6361 91.702Z" fill="black"/>
<path d="M42.7579 84.4169C42.6446 84.4169 42.5312 84.3782 42.4392 84.3022C42.2646 84.1582 42.2072 83.9156 42.2992 83.7089C42.3179 83.6689 43.7646 80.4076 43.8379 77.3449C42.8272 78.5382 41.1019 79.0409 40.0419 79.1396C39.8819 79.1542 39.7259 79.0929 39.6192 78.9742C39.5139 78.8542 39.4699 78.6916 39.5032 78.5356C39.5259 78.4302 41.7112 67.9169 40.0152 59.9596C40.0086 59.9262 40.0046 59.8902 40.0046 59.8556C40.0046 59.8969 40.0112 59.9289 40.0139 59.9382L40.4979 59.7996L40.9859 59.6809L40.4979 59.7996L40.9872 59.6862C40.9912 59.7049 41.0006 59.7382 41.0059 59.7822C42.4939 66.8156 41.1019 75.4769 40.6286 78.0222C41.6739 77.7836 43.5606 77.0956 43.6379 75.2276C43.6486 74.9769 43.8419 74.7729 44.0912 74.7489C44.3392 74.7222 44.5686 74.8876 44.6286 75.1302C45.2192 77.5769 44.4859 80.5489 43.8739 82.3902C45.0486 81.3756 46.4099 79.9849 46.6646 78.9009C46.7286 78.6316 46.9992 78.4636 47.2686 78.5276C47.5392 78.5916 47.7059 78.8609 47.6432 79.1316C47.1032 81.4249 43.2139 84.2076 43.0486 84.3249C42.9619 84.3862 42.8592 84.4169 42.7579 84.4169Z" fill="black"/>
<path d="M9.76165 65.9694C9.74432 65.9694 9.72565 65.9681 9.70832 65.9667C9.43232 65.9374 9.23232 65.6894 9.26165 65.4134C9.41499 63.9681 9.20699 62.6134 8.64165 61.3867C8.05365 60.1067 7.06965 58.9801 5.71632 58.0374C5.02699 57.5587 4.23765 57.1241 3.36965 56.7427C3.11632 56.6321 3.00032 56.3361 3.11099 56.0814C3.22299 55.8267 3.51765 55.7107 3.77365 55.8227C4.70032 56.2294 5.54565 56.6961 6.28965 57.2121C7.79365 58.2587 8.89099 59.5227 9.55499 60.9667C10.1963 62.3601 10.4337 63.8921 10.2603 65.5201C10.2337 65.7774 10.015 65.9694 9.76165 65.9694Z" fill="black"/>
<path d="M71.8977 173.089C71.8577 173.089 71.819 173.085 71.779 173.075L67.4084 172.021C67.1697 171.962 67.007 171.741 67.0244 171.497C67.043 171.235 67.0644 170.863 67.0817 170.431C66.839 171.097 66.6297 171.499 66.6097 171.539C66.4884 171.769 66.215 171.867 65.975 171.771C65.8284 171.711 62.383 170.301 60.863 169.414C60.6897 169.313 60.5924 169.118 60.6177 168.918C60.6817 168.387 60.7177 167.801 60.731 167.191C60.4817 168.139 60.159 168.83 59.7777 168.991C58.563 169.495 55.4617 167.578 54.5417 166.979C54.3404 166.847 54.259 166.591 54.3497 166.369C54.3644 166.334 55.699 162.917 55.0177 156.802C54.0484 158.235 52.735 159.551 52.663 159.623C52.4697 159.818 52.1537 159.823 51.9564 159.631C51.759 159.441 51.7497 159.13 51.9377 158.93L51.9417 158.925C51.975 158.891 54.1484 156.713 54.8564 155.057C54.9444 154.85 55.1564 154.729 55.3804 154.755C55.603 154.783 55.7804 154.955 55.815 155.177C56.7657 161.305 55.8044 165.149 55.4217 166.349C57.1284 167.417 58.879 168.189 59.3537 168.075C59.875 167.469 60.643 162.881 60.1697 160.393C60.1204 160.133 60.2804 159.879 60.5364 159.813C60.7897 159.745 61.0564 159.889 61.1404 160.139C61.399 160.915 61.9577 165.559 61.651 168.705C62.8724 169.367 64.9937 170.273 65.911 170.657C66.239 169.887 66.8724 168.129 66.8724 166.055C66.8724 165.807 67.055 165.595 67.3017 165.559C67.547 165.523 67.783 165.671 67.8564 165.91C68.2324 167.15 68.115 170.046 68.0537 171.142L72.015 172.098C72.2844 172.163 72.4497 172.435 72.3857 172.705C72.3297 172.935 72.1244 173.089 71.8977 173.089Z" fill="black"/>
<path d="M52.3078 159.763C52.2811 159.763 52.2531 159.76 52.2251 159.756C51.9531 159.71 51.7678 159.459 51.8131 159.186C51.9571 158.343 52.5518 154.158 51.1131 148.87C50.3718 149.89 49.3318 151.216 48.6785 152.04C48.2451 152.59 47.9465 152.958 47.9465 152.958C47.8051 153.131 47.5665 153.191 47.3611 153.106C47.1558 153.019 47.0305 152.807 47.0571 152.584C47.0611 152.547 47.4771 148.838 47.0718 144.754C47.0105 144.135 46.9305 143.514 46.8345 142.91C46.7891 142.636 46.9758 142.378 47.2505 142.335C47.5211 142.288 47.7811 142.476 47.8251 142.751C47.9265 143.375 48.0091 144.016 48.0705 144.655C48.3238 147.191 48.2718 149.543 48.1865 151.042C49.0651 149.928 50.3425 148.282 50.8758 147.447C50.9811 147.284 51.1705 147.195 51.3651 147.22C51.5585 147.246 51.7198 147.382 51.7785 147.568C53.6545 153.543 52.9638 158.422 52.8065 159.339C52.7638 159.584 52.5491 159.763 52.3078 159.763Z" fill="black"/>
<path d="M156.675 171.206C156.419 171.206 156.2 171.011 156.175 170.751C156.148 170.475 156.351 170.23 156.627 170.203C156.7 170.196 163.95 169.474 166.61 167.552C166.686 167.503 166.734 167.466 166.778 167.428C166.991 167.251 167.307 167.279 167.486 167.492C167.663 167.704 167.635 168.022 167.423 168.199C167.347 168.263 167.264 168.326 167.176 168.383C164.318 170.447 157.032 171.174 156.724 171.203C156.708 171.204 156.691 171.206 156.675 171.206Z" fill="black"/>
<path d="M8.87673 68.5568C8.82606 68.5568 8.77539 68.5488 8.72473 68.5328C8.12739 68.3435 7.78073 67.6915 7.44473 67.0621C7.26739 66.7288 7.08473 66.3848 6.89139 66.1661C6.70873 65.9595 6.60206 65.9555 6.56739 65.9541C6.45939 65.9515 6.26606 65.9661 5.95273 66.0768C5.02873 66.3995 3.94073 67.1955 3.93006 67.2021C3.70606 67.3675 3.39139 67.3195 3.22739 67.0955C3.06339 66.8728 3.11006 66.5581 3.33406 66.3941C3.38339 66.3568 4.55273 65.5008 5.62206 65.1275C5.99806 64.9968 6.32206 64.9381 6.60739 64.9501C6.98339 64.9648 7.33406 65.1488 7.64473 65.5008C7.91673 65.8088 8.12739 66.2061 8.33139 66.5901C8.53939 66.9781 8.82206 67.5101 9.02873 67.5755C9.29406 67.6595 9.43939 67.9421 9.35539 68.2061C9.28739 68.4208 9.09006 68.5568 8.87673 68.5568Z" fill="black"/>
<path d="M40 192.658H39.9946C39.7173 192.658 39.492 192.438 39.492 192.16C39.492 191.883 39.7173 191.66 39.9946 191.66C40.272 191.66 40.5 191.882 40.5 192.159C40.5 192.436 40.2773 192.658 40 192.658Z" fill="black"/>
<path d="M46.4105 60.0612C46.3678 60.0612 46.3198 60.0545 46.2771 60.0439C46.0545 59.9919 45.8878 59.7919 45.8878 59.5532C45.8878 59.2345 46.1945 58.9852 46.5238 59.0692C46.7465 59.1212 46.9131 59.3199 46.9131 59.5585C46.9131 59.8359 46.6878 60.0612 46.4105 60.0612Z" fill="black"/>
<path d="M31.1929 59.3025C30.9156 59.3025 30.6903 59.0771 30.6903 58.7998C30.6903 58.5998 30.8076 58.4265 30.9783 58.3465C31.0476 58.3118 31.1249 58.2931 31.2036 58.2931C31.4809 58.2931 31.7049 58.5171 31.7049 58.7945C31.7049 58.9958 31.5876 59.1705 31.4156 59.2505C31.3463 59.2838 31.2703 59.3025 31.1929 59.3025Z" fill="black"/>
<path d="M31.2019 59.2958C31.0232 59.2958 30.8499 59.1998 30.7592 59.0318C30.6272 58.7878 30.7179 58.4838 30.9619 58.3518C31.0405 58.3091 38.8525 54.1465 49.2819 54.0211C49.5565 54.0145 49.7859 54.2398 49.7899 54.5171C49.7925 54.7945 49.5712 55.0225 49.2925 55.0251C39.1232 55.1478 31.5165 59.1945 31.4405 59.2358C31.3645 59.2758 31.2819 59.2958 31.2019 59.2958Z" fill="black"/>
<path d="M36.2251 26.4519C35.5678 26.4519 35.0318 26.9866 35.0318 27.6453C35.0318 28.3026 35.5678 28.8386 36.2251 28.8386C36.8824 28.8386 37.4184 28.3026 37.4184 27.6453C37.4184 26.9866 36.8824 26.4519 36.2251 26.4519Z" fill="black"/>
<path d="M31.2012 25.4472C30.5439 25.4472 30.0079 25.9818 30.0079 26.6405C30.0079 27.2978 30.5439 27.8338 31.2012 27.8338C31.8586 27.8338 32.3946 27.2978 32.3946 26.6405C32.3946 25.9818 31.8586 25.4472 31.2012 25.4472Z" fill="black"/>
<path d="M26.93 23.1224C26.838 23.1224 26.746 23.0971 26.6633 23.0451C26.4287 22.8971 26.358 22.5891 26.5047 22.3544C26.5633 22.2611 27.9753 20.0584 30.7967 20.6211C31.0687 20.6757 31.246 20.9411 31.1913 21.2131C31.1367 21.4851 30.874 21.6611 30.6007 21.6064C28.4727 21.1811 27.4007 22.8197 27.3553 22.8891C27.2593 23.0397 27.0967 23.1224 26.93 23.1224Z" fill="black"/>
<path d="M44.4506 26.6548C44.2293 26.6548 44.0266 26.5081 43.9666 26.2841C43.9413 26.1974 43.3933 24.3241 41.2386 24.1081C40.9626 24.0801 40.7613 23.8348 40.7893 23.5588C40.8173 23.2828 41.06 23.0788 41.3386 23.1081C44.2 23.3948 44.908 25.9148 44.936 26.0228C45.008 26.2908 44.8493 26.5654 44.5813 26.6374C44.5373 26.6494 44.4933 26.6548 44.4506 26.6548Z" fill="black"/>
<path d="M118.366 168.817C118.139 168.817 117.934 168.663 117.878 168.432C117.835 168.255 113.606 150.431 115.102 131.851C115.125 131.575 115.37 131.372 115.643 131.391C115.921 131.413 116.126 131.655 116.103 131.932C114.621 150.345 118.813 168.021 118.855 168.197C118.919 168.467 118.754 168.739 118.485 168.803C118.445 168.813 118.405 168.817 118.366 168.817Z" fill="black"/>
<path d="M136.326 160.653C136.083 160.653 135.87 160.479 135.83 160.231C135.809 160.099 133.702 146.759 135.071 127.084C135.091 126.807 135.327 126.596 135.607 126.617C135.885 126.636 136.094 126.877 136.074 127.153C134.713 146.715 136.801 159.939 136.822 160.071C136.867 160.344 136.681 160.603 136.407 160.647C136.379 160.651 136.353 160.653 136.326 160.653Z" fill="black"/>
<path d="M207.373 199.463C207.163 199.463 206.967 199.33 206.897 199.119C206.875 199.054 206.84 198.959 206.795 198.834C205.409 195.045 204.759 191.194 204.861 187.393C204.869 187.115 205.103 186.886 205.377 186.903C205.655 186.911 205.873 187.142 205.865 187.419C205.767 191.094 206.396 194.818 207.739 198.49C207.788 198.626 207.827 198.73 207.849 198.802C207.937 199.065 207.795 199.35 207.532 199.438C207.48 199.455 207.425 199.463 207.373 199.463Z" fill="#231F20"/>
<path d="M46.9876 81.4873C46.9703 81.4873 46.9516 81.486 46.9343 81.4846C46.6583 81.4553 46.4583 81.2073 46.4876 80.9313C46.6716 79.19 46.8516 77.5713 47.0183 76.07C48.1169 66.1486 48.6703 61.17 46.1783 60.006C45.9276 59.8886 45.8183 59.59 45.9356 59.338C46.0529 59.0873 46.3529 58.9793 46.6036 59.0966C49.7476 60.5646 49.2049 65.458 48.0169 76.1806C47.8503 77.6806 47.6703 79.298 47.4863 81.038C47.4596 81.2953 47.2409 81.4873 46.9876 81.4873Z" fill="black"/>
<path d="M9.09562 68.5902C9.02362 68.5902 8.95162 68.5756 8.88362 68.5422C8.63162 68.4249 8.52362 68.1262 8.64096 67.8742C8.65429 67.8462 9.99162 64.9009 8.83429 61.8422C8.02096 59.6916 6.18229 57.9756 3.36762 56.7422C3.11296 56.6302 2.99829 56.3342 3.10896 56.0796C3.22096 55.8249 3.51696 55.7089 3.77162 55.8209C6.84762 57.1702 8.86896 59.0809 9.77962 61.4996C11.081 64.9609 9.61429 68.1662 9.55029 68.3009C9.46496 68.4836 9.28496 68.5902 9.09562 68.5902Z" fill="black"/>
</svg>
