<svg width="209" height="218" viewBox="0 0 209 218" fill="none" xmlns="http://www.w3.org/2000/svg">
<path d="M202.417 170.523C203.188 155.224 204.868 141.459 206.702 122.031L207.418 121.967C208.694 137.724 205.033 156.188 205.262 174.625C205.528 195.576 207.832 209.681 207.014 211.984C205.858 213.068 196.672 213.921 195.7 213.177C194.736 212.435 193.433 209.791 193.322 208.415C193.304 208.131 193.332 207.883 193.414 207.644L193.552 207.689C194.542 211.085 201.5 210.131 203.032 207.992C204.565 205.855 201.656 185.812 202.417 170.523Z" fill="#BCBEC0"/>
<path d="M186.559 45.7326C190.468 50.918 191.532 57.6993 192.13 62.2513C193.25 70.75 191.239 84.2766 191.239 84.2766L191.156 84.3686C189.835 83.2393 188.403 82.1473 186.843 81.074C185.292 80.0086 183.458 79.11 181.411 78.3566L183.76 78.2926C186.348 71.282 191.524 63.3526 186.559 45.7326Z" fill="#BCBEC0"/>
<path d="M179.514 61.2052C179.514 54.8092 176.144 50.3398 171.006 51.5332C165.903 52.7158 164.546 62.0958 173.098 62.2518C175.255 62.2878 178.18 61.4718 179.514 61.2238V61.2052ZM155.063 57.6358C152.687 48.9998 159.982 37.3905 172.482 38.4278C179.319 38.9972 183.704 41.9332 186.559 45.7332C191.524 63.3532 186.348 71.2812 183.76 78.2932L181.411 78.3572C179.988 77.8438 178.474 77.3852 176.878 76.9905L176.951 76.6865C177.502 74.7878 178.447 69.9238 178.887 66.3438L178.832 66.2705C180.3 65.2705 181.328 64.1692 181.759 63.3345C169.939 69.9598 157.22 59.6998 155.146 57.9012C155.11 57.8092 155.091 57.7265 155.063 57.6358" fill="white"/>
<path d="M155.146 57.9014C157.22 59.7001 169.939 69.9601 181.759 63.3348C181.328 64.1694 180.3 65.2708 178.832 66.2708C178.74 66.3348 178.658 66.3988 178.566 66.4548C176.299 67.9508 173.087 69.1894 169.508 68.9414C163.038 68.5108 157.11 64.5734 155.146 57.9014Z" fill="#BCBEC0"/>
<path d="M162.506 75.0442L162.543 74.7136C167.554 75.2189 172.508 75.8976 176.876 76.9896C178.474 77.3842 179.988 77.8429 181.411 78.3576C183.456 79.1096 185.292 80.0096 186.843 81.0736C188.403 82.1469 189.835 83.2389 191.156 84.3682C198.434 90.5816 202.39 97.8949 205.096 108.679C203.408 109.504 194.396 113.652 183.943 113.451C172.334 113.23 163.626 106.862 160.946 98.0416C158.266 89.2229 164.406 81.7429 162.506 75.0442Z" fill="#473023"/>
<path d="M138.792 162.107C141.39 157.978 151.484 156.142 153.475 157.215C154.888 157.969 156.762 165.282 157.514 169.954C157.816 171.862 157.936 173.331 157.762 173.734C157.147 175.111 152.402 180.765 149.804 185.967C147.208 191.171 144.299 200.954 143.996 201.569C143.684 202.183 141.702 203.249 139.407 203.102C137.112 202.945 133.744 202.33 132.148 200.082C132.588 199.413 135.379 197.962 138.618 198.293C138.618 198.293 145.318 187.133 146.436 177.534C143.142 174.799 140.298 168.182 138.27 162.254L138.792 162.107Z" fill="white"/>
<path d="M169.324 136.255C159.808 138.99 144.143 146.414 135.214 150.819C136.434 148.938 145.051 137.201 169.324 136.255Z" fill="white"/>
<path d="M170.104 136.228C169.838 136.237 169.582 136.247 169.324 136.256C159.807 138.991 144.142 146.415 135.214 150.82C135.103 150.985 135.048 151.076 135.048 151.076C135.048 151.076 136.25 156.325 138.268 162.255L138.792 162.108C141.39 157.977 151.484 156.143 153.475 157.216C154.888 157.968 156.76 165.283 157.514 169.953C157.816 171.863 157.935 173.331 157.762 173.735C157.146 175.112 152.402 180.764 149.804 185.968C147.207 191.171 144.298 200.953 143.995 201.569C143.683 202.184 141.702 203.248 139.407 203.101C137.112 202.945 133.744 202.331 132.148 200.083C131.698 200.752 131.808 205.441 132.699 206.221C133.598 207.001 139.398 207.892 140.848 207.561C142.307 207.221 143.756 204.992 146.207 203.203C148.776 192.373 155.807 178.873 160.496 174.184C160.147 172.652 159.863 171.137 159.643 169.632C157.632 155.867 161.147 143.368 170.104 136.228Z" fill="#BCBEC0"/>
<path d="M127.66 157.711C126.284 164.099 123.512 177.773 123.063 185.794C122.466 196.513 121.998 207.763 121.43 208.681C119.75 211.351 119.868 215.537 118.079 216.161C114.51 217.381 108.59 216.601 108.14 215.49C107.516 213.939 107.572 212.499 107.975 211.223C110.563 213.242 114.262 213.967 117.07 212.122C122.43 208.607 115.694 200.495 127.476 157.675L127.66 157.711Z" fill="#BCBEC0"/>
<path d="M106.012 6.73913L105.718 6.9778C105.718 12.4845 104.029 17.2098 101.524 20.8725C96.8903 27.6165 89.4289 30.7378 84.5369 28.3965C87.8596 35.6285 93.7969 43.3831 94.4116 43.1178C94.6223 43.0258 94.8063 42.6578 94.9809 42.1165C94.9903 42.1071 94.9903 42.0898 94.9996 42.0805C95.5956 41.0071 100.634 32.4805 107.094 36.4551L107.241 36.4178C106.021 31.8658 105.021 27.7818 104.461 25.4885C106.525 22.3671 108.342 19.1285 108.921 16.5498C109.72 12.9791 108.15 9.3818 106.012 6.73913Z" fill="#9C774D"/>
<path d="M106.012 6.73913L105.718 6.9778C105.718 12.4845 104.029 17.2098 101.524 20.8725C96.8903 27.6165 89.4289 30.7378 84.5369 28.3965C87.8596 35.6285 93.7969 43.3831 94.4116 43.1178C94.6223 43.0258 94.8063 42.6578 94.9809 42.1165C94.9903 42.1071 94.9903 42.0898 94.9996 42.0805C95.5956 41.0071 100.634 32.4805 107.094 36.4551L107.241 36.4178C106.021 31.8658 105.021 27.7818 104.461 25.4885C106.525 22.3671 108.342 19.1285 108.921 16.5498C109.72 12.9791 108.15 9.3818 106.012 6.73913Z" stroke="#9C774D" stroke-width="0.135" stroke-miterlimit="10"/>
<path d="M77.0029 202.487C77.7283 201.293 78.4616 188.547 78.9296 178.461C79.3523 178.461 79.7923 178.415 80.2523 178.341C80.5816 190.465 80.7283 202.844 80.0496 203.652C77.6643 206.479 76.4709 209.754 74.5429 210.801C72.6069 211.838 66.5043 211.241 65.3109 210.352C64.5136 209.755 64.4763 207.635 64.7509 206.029L65.6789 206.157C65.6789 206.157 68.4309 207.378 71.4963 206.616C74.5523 205.854 75.7736 204.479 77.0029 202.487Z" fill="#BCBEC0"/>
<path d="M111.041 156.023C111.041 156.023 97.762 159.299 91.8793 158.996C86.006 158.703 79.4527 154.536 79.4527 154.536C79.4527 154.536 79.9393 166.32 80.2513 178.341C79.7927 178.415 79.3527 178.461 78.93 178.461C73.0753 178.561 70.5793 172.505 70.5793 172.505L69.946 172.569C69.4873 168.183 68.7807 164.053 67.7153 160.785C66.514 157.087 64.99 153.371 63.43 149.691L63.5953 149.617C63.614 149.745 62.8153 142.725 66.7247 137.788C69.826 133.879 75.994 129.299 83.6927 129.079C91.3647 128.859 109.114 136.337 111.655 155.931L111.041 156.023Z" fill="#473023"/>
<path d="M106.012 6.73919L105.718 6.97786C94.9356 3.69253 75.8556 3.82053 75.8556 3.82053L75.7636 3.73786C76.2782 3.16986 76.8476 2.71919 77.4436 2.48053C80.2329 1.37119 97.3116 1.92986 100.661 2.71119C102.166 3.05919 104.277 4.58319 106.012 6.73919Z" fill="#DEA96E"/>
<path d="M74.2405 6.73006L79.3619 7.01406C77.7459 7.16073 75.9659 8.6394 75.8832 9.18073L72.5339 9.41006C72.5339 9.41006 73.0112 8.1154 73.8005 6.6194C74.0845 6.68473 74.2405 6.73006 74.2405 6.73006Z" fill="#C49661"/>
<path d="M107.241 36.4178L107.095 36.4551C100.633 32.4804 95.596 41.0071 94.9987 42.0804C94.9893 42.0898 94.9893 42.1071 94.9813 42.1164C94.8067 42.6578 94.6227 43.0258 94.412 43.1178C93.7973 43.3831 87.86 35.6284 84.5373 28.3964C89.4293 30.7378 96.8893 27.6164 101.524 20.8724C104.029 17.2098 105.717 12.4844 105.717 6.97776C94.9347 3.69243 75.856 3.82043 75.856 3.82043L75.764 3.73776C74.9933 4.56443 74.332 5.63776 73.8 6.62043C74.084 6.68443 74.24 6.72976 74.24 6.72976L79.3613 7.0151C79.6187 6.9871 79.8667 6.99643 80.1133 7.0511L79.3613 7.0151C77.7467 7.16176 75.9653 8.6391 75.884 9.18043L72.5333 9.40976C72.5333 9.40976 73.0107 8.1151 73.8 6.62043C73.0387 6.4271 71.332 6.0511 69.092 5.7751L69.0467 6.09643C69.0467 6.09643 67.9733 13.1351 70.5787 20.1658C73.176 27.2044 81.28 32.4071 84.344 40.9698C87.4 49.5324 97.7987 52.5978 107.893 39.4378L108.04 39.4004C107.764 38.3911 107.489 37.3911 107.241 36.4178Z" fill="#C49661"/>
<path d="M71.4967 206.616C68.4313 207.378 65.678 206.158 65.678 206.158L64.7513 206.03C64.8807 205.222 65.082 204.551 65.3113 204.248C66.6513 202.459 70.5233 201.643 70.5233 201.643C70.5233 201.643 71.3687 185.959 69.946 172.57L70.5793 172.506C70.5793 172.506 73.0753 178.562 78.93 178.462C78.462 188.547 77.7273 201.294 77.0033 202.487C75.7727 204.478 74.5527 205.855 71.4967 206.616Z" fill="white"/>
<path d="M69.7439 56.2954C65.6412 59.0848 63.3745 60.4248 60.4745 62.6554L60.4199 62.6088C66.5132 55.8368 70.2025 49.9994 71.8639 50.7154C74.2039 51.7154 72.1945 54.6168 69.7439 56.2954Z" fill="#2E1F17"/>
<path d="M59.5664 92.4808C60.5024 84.7541 59.9704 75.3381 57.1251 75.0448C57.1251 75.0448 74.4877 70.9141 80.8571 67.0421C62.2744 79.1741 59.8691 92.5168 59.8691 92.5168L59.5664 92.4808Z" fill="#BCBEC0"/>
<path d="M56.0057 23.9188C62.7871 22.7441 67.4684 28.0388 68.1751 31.5081C69.0737 35.8668 66.9444 40.2175 64.6044 44.2361C62.2644 48.2561 56.6751 54.0561 51.5457 53.5055C46.9391 53.0015 44.9564 48.2561 44.9564 45.0175C44.9564 41.7775 47.3884 39.0521 48.9764 35.0788C50.5364 31.1775 50.2057 24.9188 56.0057 23.9188Z" fill="#C49661"/>
<path d="M54.8953 6.73008C46.874 9.32741 40.3673 26.0021 34.494 36.7114C32.4113 32.9674 34.6233 25.8461 32.494 13.4381C32.274 12.1167 32.7873 10.7861 33.834 9.95141C33.834 9.95141 47.15 3.74741 54.8953 6.73008" fill="#473023"/>
<path d="M54.8953 6.73007C47.15 3.7474 33.834 9.9514 33.834 9.9514C38.166 6.4634 44.0393 3.3074 47.0767 2.82074C50.5367 2.26074 56.4553 3.04073 59.0247 5.50073L59.0713 5.7754C57.6753 5.97807 56.262 6.28073 54.8953 6.73007Z" fill="#6E4A36"/>
<path d="M54.8953 6.73007C47.15 3.7474 33.834 9.9514 33.834 9.9514C38.166 6.4634 44.0393 3.3074 47.0767 2.82074C50.5367 2.26074 56.4553 3.04073 59.0247 5.50073L59.0713 5.7754C57.6753 5.97807 56.262 6.28073 54.8953 6.73007Z" stroke="#6E4A36" stroke-width="0.135" stroke-miterlimit="10"/>
<path d="M20.059 63.215C19.499 63.1323 18.9484 63.059 18.4164 63.0043C18.4257 62.8203 18.4257 62.6283 18.4164 62.435C19.0684 62.6737 19.6284 62.931 20.059 63.215Z" fill="#36281A"/>
<path d="M135.213 150.819C131.103 152.847 128.423 154.233 128.423 154.233C128.423 154.233 128.12 155.555 127.66 157.711L127.477 157.675C115.693 200.495 122.429 208.607 117.071 212.122C114.261 213.967 110.564 213.242 107.976 211.223C108.177 210.553 108.471 209.929 108.811 209.351C109.931 207.451 112.611 207.891 112.94 206.671C116.161 191.63 111.041 156.023 111.041 156.023L111.656 155.931C109.113 136.338 91.3652 128.859 83.6932 129.079C75.9932 129.299 69.8265 133.878 66.7252 137.787C62.8145 142.725 63.6132 149.746 63.5958 149.617L63.4305 149.691C59.3732 140.211 55.0145 131.043 55.0425 123.426C55.0785 112.854 58.3185 101.391 59.4292 93.5087C59.4745 93.1687 59.5212 92.8301 59.5665 92.4807L59.8692 92.5167C59.8692 92.5167 62.2732 79.1741 80.8572 67.0421C74.4879 70.9141 57.1252 75.0447 57.1252 75.0447C54.1518 74.7501 34.1092 87.8461 29.2918 88.4434C24.4732 89.0394 21.1052 85.9101 21.1052 85.9101C21.1052 85.9101 28.2359 85.4874 43.1119 76.7967L42.9932 76.5954C19.4718 89.9381 13.4879 76.9527 13.4879 76.9527L13.3505 76.6781C15.4612 75.6127 17.6185 74.1447 19.0585 72.7047C19.3705 72.3927 19.6652 72.0527 19.9305 71.7034L19.9398 71.6941C22.1332 68.8127 22.6465 64.9034 20.0585 63.2154C19.6279 62.9301 19.0679 62.6741 18.4159 62.4354C15.9292 61.4994 12.0665 60.8847 8.77185 60.8661C12.2865 58.6354 26.8772 49.0181 32.4945 40.1434C33.1545 39.0981 33.8252 37.9407 34.4945 36.7114C40.3678 26.0021 46.8745 9.32741 54.8959 6.73008C56.2625 6.28074 57.6759 5.97807 59.0705 5.7754C62.7239 5.23407 66.3212 5.4274 69.0918 5.7754L69.0465 6.09673C69.0465 6.09673 67.9732 13.1354 70.5785 20.1647C73.1758 27.2047 81.2798 32.4074 84.3452 40.9701C87.4012 49.5314 97.7985 52.5967 107.893 39.4367L108.04 39.4007C110.187 47.1914 112.776 55.5154 114.729 58.3781C118.749 64.2607 123.613 69.2354 137.352 72.0714C143.803 73.4021 153.283 73.7594 162.543 74.7141L162.505 75.0447C164.405 81.7434 158.267 89.2234 160.945 98.0421C163.625 106.861 172.335 113.23 183.944 113.45C194.396 113.653 203.408 109.505 205.097 108.678C205.639 110.862 206.143 113.194 206.601 115.681C206.987 117.718 207.253 119.819 207.419 121.967L206.703 122.031C204.868 141.459 203.188 155.225 202.417 170.523C201.655 185.811 204.564 205.854 203.032 207.993C201.5 210.131 194.543 211.086 193.552 207.69L193.414 207.643C193.726 206.745 194.837 205.946 196.783 203.322C197.343 199.339 195.332 182.554 190.936 165.549C182.861 158.813 176.299 142.753 174.455 135.218C173.105 135.301 171.361 135.669 169.324 136.255L135.213 150.819ZM69.7438 56.2954C72.1945 54.6167 74.2038 51.7154 71.8638 50.7154C70.2025 49.9994 66.5132 55.8367 60.4198 62.6087L60.4745 62.6554C63.3745 60.4247 65.6412 59.0847 69.7438 56.2954ZM68.1745 31.5087C67.4678 28.0394 62.7879 22.7447 56.0052 23.9194C50.2065 24.9194 50.5358 31.1781 48.9758 35.0781C47.3878 39.0514 44.9572 41.7767 44.9572 45.0167C44.9572 48.2567 46.9385 53.0007 51.5452 53.5061C56.6759 54.0567 62.2652 48.2567 64.6052 44.2367C66.9452 40.2167 69.0745 35.8674 68.1745 31.5087" fill="#F1F2F2"/>
<path d="M43.1119 76.7972C28.2359 85.4879 21.1052 85.9106 21.1052 85.9106C21.1052 85.9106 17.2692 86.9932 13.6625 85.6159C10.0105 83.9919 8.15588 80.5599 7.99988 78.6239C7.99188 78.5132 7.98254 78.4026 7.98254 78.2932C9.11988 78.4119 10.8999 77.8612 12.7812 76.9626C12.9745 76.8799 13.1585 76.7786 13.3505 76.6772L13.4879 76.9532C13.4879 76.9532 19.4719 89.9386 42.9932 76.5946L43.1119 76.7972Z" fill="#BCBEC0"/>
<path d="M19.9307 71.7038C19.664 72.0518 19.3707 72.3918 19.0587 72.7038C17.6187 74.1451 15.4613 75.6131 13.3507 76.6771C13.1573 76.7785 12.9747 76.8798 12.7813 76.9625C12.8733 76.2558 13.204 74.3651 14.0387 73.5851C14.112 73.5211 14.1853 73.4571 14.2587 73.4105C15.4893 72.6305 18.26 72.7038 19.9307 71.7038Z" fill="black"/>
<path d="M8.77134 60.8657C6.05534 60.8564 3.72334 61.251 2.87001 62.2057C1.66868 63.563 1.24601 65.215 1.19135 66.7204C1.33801 66.5457 3.18201 64.435 7.95401 63.3617C10.5247 62.783 13.9473 62.5084 18.4167 63.0044C18.426 62.8204 18.426 62.627 18.4167 62.435C15.9287 61.499 12.066 60.8844 8.77134 60.8657Z" fill="#6E4A36"/>
<path d="M20.0591 63.215C19.4991 63.1323 18.9484 63.059 18.4164 63.0043C18.2791 68.1977 15.0484 71.007 11.6164 72.5203C10.3404 73.0803 9.03774 73.4657 7.86307 73.7323C6.94574 73.943 6.1004 74.071 5.40307 74.1537C5.51374 75.2377 5.32974 76.3843 5.32974 76.3843L5.30307 76.403C6.18307 77.4297 7.10174 78.1737 7.88974 78.2843C7.91774 78.2843 7.95507 78.2923 7.98174 78.2923C9.1204 78.4123 10.9004 77.8617 12.7817 76.9617C12.8737 76.255 13.2044 74.3657 14.0391 73.5857C14.1124 73.5203 14.1857 73.4563 14.2591 73.411C15.4884 72.631 18.2604 72.7043 19.9311 71.7043L19.9404 71.695C22.1337 68.8137 22.6471 64.903 20.0591 63.215Z" fill="#2E1F17"/>
<path d="M5.40334 74.1541C5.514 75.2368 5.33 76.3834 5.33 76.3834L5.302 76.4021C4.76067 75.7781 4.22867 75.0528 3.742 74.3008C4.082 74.2821 4.66867 74.2461 5.40334 74.1541Z" fill="black"/>
<path d="M1.98027 70.6943C3.09094 71.8143 3.98961 71.585 4.88027 72.5943C5.20161 72.9517 5.34827 73.549 5.40294 74.1543C4.66961 74.2463 4.08161 74.2823 3.74294 74.301C2.92561 73.0437 2.22827 71.7317 1.81494 70.7397L1.98027 70.6943Z" fill="black"/>
<path d="M7.95452 63.3618C3.18252 64.4351 1.33852 66.5458 1.19052 66.7205L1.18252 66.7298C1.13585 67.8218 1.27318 68.8218 1.41985 69.5751C1.47585 69.8591 1.61318 70.2631 1.81452 70.7405L1.97985 70.6938C3.09052 71.8138 3.99052 71.5845 4.87985 72.5938C5.20118 72.9525 5.34785 73.5485 5.40385 74.1538C6.10118 74.0711 6.94518 73.9431 7.86252 73.7325C9.03718 73.4658 10.3412 73.0805 11.6159 72.5205C15.0479 71.0058 18.2785 68.1978 18.4159 63.0045C13.9479 62.5085 10.5239 62.7831 7.95452 63.3618Z" fill="#473023"/>
<path d="M7.95452 63.3618C3.18252 64.4351 1.33852 66.5458 1.19052 66.7205L1.18252 66.7298C1.13585 67.8218 1.27318 68.8218 1.41985 69.5751C1.47585 69.8591 1.61318 70.2631 1.81452 70.7405L1.97985 70.6938C3.09052 71.8138 3.99052 71.5845 4.87985 72.5938C5.20118 72.9525 5.34785 73.5485 5.40385 74.1538C6.10118 74.0711 6.94518 73.9431 7.86252 73.7325C9.03718 73.4658 10.3412 73.0805 11.6159 72.5205C15.0479 71.0058 18.2785 68.1978 18.4159 63.0045C13.9479 62.5085 10.5239 62.7831 7.95452 63.3618Z" stroke="#473023" stroke-width="0.135" stroke-miterlimit="10"/>
<path d="M135.213 150.819C135.103 150.985 135.048 151.077 135.048 151.077C135.048 151.077 136.251 156.326 138.269 162.254C140.297 168.182 143.143 174.799 146.437 177.534C145.317 187.133 138.617 198.293 138.617 198.293C135.379 197.962 132.589 199.413 132.148 200.082C131.699 200.753 131.808 205.442 132.699 206.222C133.599 207.002 139.399 207.891 140.848 207.562C142.307 207.222 143.757 204.991 146.208 203.202C148.777 192.373 155.807 178.874 160.496 174.185C160.148 172.651 159.863 171.138 159.643 169.633C157.633 155.867 161.148 143.367 170.104 136.227C169.839 136.237 169.581 136.246 169.324 136.255" stroke="black" stroke-width="1.377" stroke-miterlimit="10" stroke-linecap="round" stroke-linejoin="round"/>
<path d="M7.98199 78.2931C7.98199 78.4024 7.99133 78.5131 8.00066 78.6237C8.15666 80.5597 10.01 83.9917 13.662 85.6157C17.2687 86.9931 21.1047 85.9104 21.1047 85.9104C21.1047 85.9104 24.4727 89.0397 29.2913 88.4424C34.1087 87.8464 54.1513 74.7504 57.1247 75.0437C59.97 75.3384 60.502 84.7531 59.566 92.4811C59.5207 92.8291 59.474 93.1691 59.4287 93.5091C58.318 101.392 55.0793 112.854 55.042 123.426C55.014 131.042 59.374 140.21 63.43 149.69C64.99 153.37 66.514 157.088 67.7153 160.786C68.7807 164.053 69.4873 168.182 69.946 172.569C71.3687 185.958 70.5233 201.642 70.5233 201.642C70.5233 201.642 66.6513 202.46 65.3113 204.249C65.082 204.552 64.8793 205.221 64.7513 206.029C64.4767 207.634 64.5127 209.754 65.3113 210.352C66.5047 211.241 72.6073 211.838 74.5433 210.801C76.47 209.754 77.6633 206.478 80.05 203.652C80.7287 202.845 80.582 190.465 80.2513 178.341C79.9393 166.32 79.4527 154.536 79.4527 154.536C79.4527 154.536 86.006 158.702 91.8793 158.996C97.762 159.3 111.041 156.022 111.041 156.022C111.041 156.022 116.162 191.63 112.941 206.672C112.61 207.892 109.93 207.452 108.81 209.352C108.471 209.929 108.178 210.553 107.975 211.224C107.571 212.498 107.517 213.94 108.141 215.49C108.59 216.601 114.51 217.381 118.079 216.161C119.869 215.536 119.75 211.352 121.429 208.681C121.998 207.764 122.466 196.512 123.062 185.793C123.513 177.773 126.283 164.098 127.661 157.712C128.119 155.554 128.422 154.233 128.422 154.233C128.422 154.233 131.102 152.848 135.213 150.82C144.142 146.414 159.807 138.99 169.325 136.256C171.362 135.668 173.105 135.301 174.454 135.218C176.299 142.753 182.861 158.813 190.937 165.549C195.333 182.554 197.342 199.338 196.782 203.321C194.837 205.946 193.726 206.745 193.414 207.644C193.331 207.882 193.305 208.13 193.322 208.414C193.433 209.792 194.735 212.434 195.699 213.178C196.673 213.921 205.858 213.068 207.014 211.985C207.831 209.681 205.527 195.576 205.262 174.625C205.033 156.188 208.694 137.724 207.418 121.966C207.253 119.82 206.987 117.717 206.602 115.68C206.143 113.193 205.638 110.862 205.097 108.678C202.389 97.8957 198.434 90.5811 191.157 84.3677C189.835 83.2397 188.403 82.1477 186.843 81.0731C185.293 80.0091 183.457 79.1091 181.41 78.3571C179.989 77.8437 178.474 77.3851 176.877 76.9904C172.509 75.8971 167.553 75.2184 162.542 74.7144C153.283 73.7597 143.803 73.4011 137.351 72.0704C123.613 69.2357 118.75 64.2611 114.73 58.3784C112.775 55.5157 110.187 47.1917 108.039 39.4011C107.765 38.3904 107.489 37.3904 107.241 36.4184C106.021 31.8664 105.021 27.7824 104.461 25.4877" stroke="black" stroke-width="1.377" stroke-miterlimit="10" stroke-linecap="round" stroke-linejoin="round"/>
<path d="M73.8001 6.61998C73.0388 6.42665 71.3308 6.05065 69.0921 5.77598C66.3214 5.42665 62.7228 5.23465 59.0708 5.77598C57.6761 5.97732 56.2628 6.27998 54.8948 6.73065C46.8748 9.32665 40.3681 26.0013 34.4948 36.712C33.8241 37.9413 33.1548 39.0973 32.4934 40.144C26.8774 49.0186 12.2868 58.636 8.77078 60.8653" stroke="black" stroke-width="1.377" stroke-miterlimit="10" stroke-linecap="round" stroke-linejoin="round"/>
<path d="M80.1139 7.05125L79.3619 7.01392" stroke="black" stroke-width="1.377" stroke-miterlimit="10" stroke-linecap="round" stroke-linejoin="round"/>
<path d="M178.887 66.3444C178.447 69.9231 177.502 74.7871 176.951 76.6871" stroke="black" stroke-width="1.377" stroke-miterlimit="10"/>
<path d="M191.239 84.2764C191.239 84.2764 193.249 70.7497 192.13 62.251C191.533 57.699 190.469 50.9177 186.559 45.7324C183.705 41.9337 179.318 38.9964 172.482 38.4284C159.982 37.391 152.686 48.999 155.063 57.635C155.091 57.727 155.109 57.8097 155.146 57.9017C157.11 64.5737 163.038 68.5097 169.509 68.9417C173.087 69.1897 176.299 67.9497 178.566 66.455C178.658 66.399 178.741 66.335 178.833 66.271C180.301 65.271 181.329 64.1697 181.759 63.335C181.979 62.9124 182.045 62.563 181.934 62.3244C181.383 61.1964 180.273 61.0404 178.887 61.223C177.07 61.471 174.785 62.2884 172.629 62.251C164.075 62.095 165.59 52.7164 170.691 51.5324C175.831 50.339 179.034 54.8084 178.887 61.2057" stroke="black" stroke-width="1.377" stroke-miterlimit="10"/>
<path d="M106.727 6.16423C104.931 3.93223 102.632 2.22423 100.869 1.81623C97.6135 1.0589 80.2775 0.365565 77.1028 1.62956C76.4068 1.9069 75.7268 2.40957 75.0935 3.11223C74.3948 3.86023 73.7082 4.86557 72.9882 6.19223C72.1802 7.72423 71.6922 9.03756 71.6722 9.09223C71.4975 9.5669 71.7402 10.0949 72.2162 10.2709C72.6908 10.4456 73.2188 10.2029 73.3948 9.72823C73.3988 9.7149 73.8628 8.4669 74.6068 7.05757C75.2455 5.8789 75.8442 4.99757 76.4442 4.35357C76.8935 3.85757 77.3562 3.50423 77.7828 3.33357C80.3282 2.32023 97.2642 2.86157 100.455 3.60423C101.591 3.86823 103.529 5.11757 105.299 7.31623C106.416 8.6989 108.92 12.3456 108.025 16.3482C107.629 18.1149 106.525 20.4602 104.753 23.3229C98.5415 32.6402 94.1975 41.6296 94.1535 41.7189L94.1335 41.7602C92.4588 39.9496 88.1068 33.9682 85.3721 28.0149C84.4295 25.9589 83.7908 24.1402 83.4722 22.6122C82.6975 18.8909 82.5922 15.4562 82.5082 12.6976C82.3988 9.1269 82.3322 6.97223 80.8748 6.33756C80.7082 6.26023 80.5228 6.20023 80.3122 6.1549C79.9722 6.08023 79.6295 6.06157 79.2788 6.10023C77.4882 6.2629 75.1562 7.85757 74.9762 9.04157C74.9002 9.5429 75.2442 10.0109 75.7455 10.0869C76.2135 10.1616 76.6482 9.86557 76.7682 9.4229C76.9988 9.06157 78.2988 8.03223 79.4602 7.9269C79.6242 7.90823 79.7735 7.91623 79.9202 7.94823C80.0015 7.96556 80.0642 7.98423 80.1108 8.00423C80.5375 8.33756 80.6135 10.7856 80.6735 12.7536C80.7602 15.5842 80.8682 19.1082 81.6748 22.9869C82.0215 24.6496 82.7042 26.5976 83.7028 28.7802C85.1655 31.9616 87.3655 35.7229 89.7388 39.0976C92.7175 43.3309 93.7655 44.0696 94.3602 44.0696C94.5228 44.0696 94.6522 44.0136 94.7788 43.9589C95.3455 43.7109 95.6242 43.0976 95.8335 42.4602C96.1775 41.7549 99.8388 34.2989 105.105 26.1336C105.149 26.0909 105.191 26.0469 105.225 25.9949C105.616 25.4042 105.973 24.8416 106.315 24.2909C106.321 24.2816 106.328 24.2709 106.333 24.2616C106.336 24.2589 106.336 24.2562 106.337 24.2536C108.223 21.2042 109.372 18.7336 109.816 16.7496C110.569 13.3802 109.443 9.52157 106.727 6.16423Z" fill="black"/>
<path d="M59.0249 5.50043C56.4556 3.04043 50.5356 2.26043 47.0769 2.82043C44.0383 3.3071 38.1649 6.46443 33.8343 9.9511C32.7876 10.7858 32.2743 12.1164 32.4943 13.4391C34.6236 25.8458 32.4116 32.9671 34.4943 36.7111C34.5129 36.7671 34.5503 36.8124 34.5769 36.8671" stroke="black" stroke-width="1.377" stroke-miterlimit="10"/>
<path d="M8.77134 60.8657C6.05534 60.8564 3.72334 61.251 2.87001 62.2057C1.66868 63.563 1.24601 65.215 1.19135 66.7204" stroke="black" stroke-width="1.377" stroke-miterlimit="10" stroke-linecap="round" stroke-linejoin="round"/>
<path d="M19.9397 71.6947C22.1331 68.8133 22.6477 64.904 20.0584 63.2147C19.6277 62.9307 19.0677 62.6733 18.4157 62.4347C15.9291 61.4987 12.0664 60.884 8.77173 60.8653" stroke="black" stroke-width="1.377" stroke-miterlimit="10"/>
<path d="M1.81506 70.7402C2.2284 71.7309 2.92573 73.0442 3.74173 74.3002C4.2284 75.0535 4.7604 75.7789 5.30306 76.4029C6.18306 77.4309 7.10173 78.1735 7.88973 78.2842C7.91773 78.2842 7.95506 78.2935 7.98173 78.2935C9.1204 78.4122 10.9004 77.8615 12.7817 76.9629C12.9751 76.8802 13.1577 76.7789 13.3511 76.6775C15.4617 75.6135 17.6177 74.1455 19.0591 72.7042C19.3711 72.3922 19.6644 72.0522 19.9311 71.7042" stroke="black" stroke-width="1.377" stroke-miterlimit="10"/>
<path d="M1.18187 66.7298C1.13653 67.8218 1.27387 68.8218 1.42053 69.5751C1.4752 69.8591 1.61387 70.2631 1.8152 70.7405" stroke="black" stroke-width="1.377" stroke-miterlimit="10" stroke-linecap="round" stroke-linejoin="round"/>
<path d="M19.9307 71.7038L19.94 71.6945H19.9493" stroke="black" stroke-width="1.377" stroke-miterlimit="10"/>
<path d="M12.7449 77.2375C12.7449 77.2375 12.7543 77.1362 12.7809 76.9629C12.8729 76.2562 13.2036 74.3655 14.0396 73.5855C14.1129 73.5215 14.1863 73.4562 14.2596 73.4109C15.4889 72.6309 18.2609 72.7042 19.9303 71.7042" stroke="black" stroke-width="0.688" stroke-miterlimit="10"/>
<path d="M1.98026 70.6944C3.09092 71.8144 3.98959 71.585 4.88025 72.5944C5.20159 72.9517 5.34825 73.549 5.40292 74.1544C5.51359 75.237 5.32959 76.3837 5.32959 76.3837" stroke="black" stroke-width="0.688" stroke-miterlimit="10"/>
<path d="M21.1053 85.91C21.1053 85.91 28.236 85.4873 43.112 76.7967C43.9933 76.2833 44.9107 75.742 45.8467 75.1633C51.7293 71.5567 56.556 66.8953 60.42 62.6087C66.5133 55.8367 70.2027 50.0007 71.864 50.7153C74.204 51.7167 72.1947 54.6167 69.744 56.2953C65.6413 59.0847 63.3747 60.4247 60.4747 62.6553" stroke="black" stroke-width="1.377" stroke-miterlimit="10"/>
<path d="M1.18185 66.7298L1.19119 66.7205" stroke="black" stroke-width="1.377" stroke-miterlimit="10" stroke-linecap="round" stroke-linejoin="round"/>
<path d="M196.559 204.342C196.312 204.342 196.075 204.21 195.952 203.978C195.772 203.643 195.898 203.226 196.234 203.047C196.371 202.974 199.658 201.258 204.439 202.543C204.807 202.64 205.023 203.018 204.924 203.384C204.827 203.752 204.447 203.974 204.083 203.871C199.818 202.73 196.912 204.246 196.883 204.259C196.78 204.315 196.668 204.342 196.559 204.342Z" fill="black"/>
<path d="M141.968 200.769C141.805 200.769 141.641 200.711 141.511 200.595C139.74 199.021 137.185 199.195 137.161 199.195C136.772 199.234 136.452 198.941 136.424 198.562C136.395 198.182 136.679 197.851 137.057 197.823C137.185 197.811 140.221 197.609 142.425 199.566C142.709 199.818 142.735 200.253 142.483 200.538C142.347 200.691 142.157 200.769 141.968 200.769Z" fill="black"/>
<path d="M110.958 208.755C110.71 208.755 110.468 208.621 110.346 208.385C110.171 208.049 110.3 207.635 110.635 207.459C110.762 207.391 113.816 205.838 118.93 207.231C119.295 207.331 119.512 207.71 119.412 208.077C119.312 208.443 118.94 208.662 118.567 208.559C114.014 207.317 111.299 208.665 111.272 208.679C111.171 208.731 111.063 208.755 110.958 208.755Z" fill="black"/>
<path d="M75.2095 203.113C75.1241 203.113 75.0375 203.097 74.9535 203.064C72.9188 202.249 69.4788 202.704 69.4441 202.709C69.0761 202.756 68.7215 202.497 68.6695 202.12C68.6188 201.744 68.8815 201.397 69.2588 201.345C69.4148 201.325 73.0921 200.836 75.4655 201.787C75.8188 201.927 75.9895 202.328 75.8481 202.681C75.7401 202.949 75.4815 203.113 75.2095 203.113Z" fill="black"/>
<path d="M80.9751 156.065C80.8524 156.065 80.7271 156.032 80.6137 155.963C76.7671 153.587 73.0497 149.132 72.8937 148.944C72.6511 148.652 72.6911 148.217 72.9831 147.975C73.2751 147.732 73.7097 147.771 73.9524 148.065C73.9897 148.109 77.6857 152.535 81.3377 154.791C81.6604 154.991 81.7617 155.415 81.5617 155.739C81.4311 155.949 81.2057 156.065 80.9751 156.065Z" fill="black"/>
<path d="M128.009 155.912C127.949 155.912 127.889 155.904 127.829 155.888C127.461 155.788 127.245 155.41 127.345 155.043C129.017 148.908 129.222 138.77 129.223 138.668C129.23 138.288 129.519 137.984 129.923 137.992C130.305 137.999 130.606 138.314 130.599 138.694C130.591 139.115 130.39 149.106 128.673 155.404C128.59 155.711 128.311 155.912 128.009 155.912Z" fill="black"/>
<path d="M175.194 137.865C174.888 137.865 174.61 137.659 174.528 137.351C173.488 133.381 172.32 128.126 172.539 122.69C172.554 122.31 172.896 121.999 173.254 122.03C173.634 122.045 173.93 122.365 173.914 122.745C173.703 127.999 174.843 133.125 175.86 137.002C175.956 137.369 175.738 137.745 175.37 137.842C175.311 137.857 175.252 137.865 175.194 137.865Z" fill="black"/>
<path d="M55.5621 76.0713C55.2901 76.0713 55.0328 75.9086 54.9248 75.6419C54.7821 75.2899 54.9515 74.8873 55.3035 74.7446C59.0621 73.2219 62.9675 72.1859 66.7435 71.1846C75.8395 68.7713 84.4315 66.4926 88.1981 57.8059C88.3501 57.4566 88.7555 57.2993 89.1035 57.4486C89.4515 57.5993 89.6128 58.0046 89.4608 58.3539C85.4288 67.6513 76.5235 70.0139 67.0968 72.5153C63.3621 73.5059 59.4981 74.5299 55.8208 76.0206C55.7368 76.0553 55.6488 76.0713 55.5621 76.0713Z" fill="black"/>
<path d="M41.1603 41.6813C40.1069 41.6813 39.2509 40.824 39.2509 39.772C39.2509 38.7186 40.1069 37.8613 41.1603 37.8613C42.2136 37.8613 43.0709 38.7186 43.0709 39.772C43.0709 40.824 42.2136 41.6813 41.1603 41.6813Z" fill="#231F20"/>
<path d="M50.8733 39.759C49.82 39.759 48.9627 40.6163 48.9627 41.6683C48.9627 42.7217 49.82 43.579 50.8733 43.579C51.9267 43.579 52.784 42.7217 52.784 41.6683C52.784 40.6163 51.9267 39.759 50.8733 39.759Z" fill="#231F20"/>
<path d="M68.4947 207.131C68.4947 207.131 68.344 207.328 68.18 207.655C68.012 207.978 67.8413 208.43 67.752 208.886C67.6573 209.342 67.6507 209.796 67.684 210.124C67.6947 210.288 67.7213 210.423 67.74 210.516C67.7573 210.61 67.7667 210.663 67.7667 210.663L67.7707 210.69C67.8333 211.032 67.6053 211.359 67.264 211.422C66.9213 211.483 66.5947 211.256 66.532 210.914C66.52 210.848 66.52 210.78 66.528 210.718C66.528 210.718 66.5373 210.648 66.5533 210.527C66.5693 210.407 66.5907 210.236 66.6413 210.035C66.7307 209.634 66.912 209.119 67.1733 208.664C67.4293 208.206 67.7547 207.806 68.024 207.54C68.2893 207.272 68.4947 207.131 68.4947 207.131Z" fill="black"/>
<path d="M72.1655 207.131C72.1655 207.131 72.0148 207.328 71.8508 207.655C71.6828 207.978 71.5121 208.43 71.4228 208.886C71.3281 209.342 71.3215 209.796 71.3548 210.124C71.3655 210.288 71.3935 210.423 71.4108 210.516C71.4281 210.61 71.4375 210.663 71.4375 210.663L71.4415 210.69C71.5041 211.032 71.2775 211.359 70.9348 211.422C70.5921 211.483 70.2655 211.256 70.2028 210.914C70.1908 210.848 70.1908 210.78 70.1988 210.718C70.1988 210.718 70.2081 210.648 70.2241 210.527C70.2401 210.407 70.2615 210.236 70.3121 210.035C70.4015 209.634 70.5828 209.119 70.8441 208.664C71.1001 208.206 71.4255 207.806 71.6948 207.54C71.9601 207.272 72.1655 207.131 72.1655 207.131Z" fill="black"/>
<path d="M112.545 212.637C112.545 212.637 112.394 212.835 112.23 213.161C112.062 213.484 111.891 213.936 111.802 214.392C111.707 214.848 111.701 215.303 111.734 215.631C111.745 215.795 111.771 215.929 111.79 216.023C111.807 216.116 111.817 216.169 111.817 216.169L111.821 216.196C111.883 216.539 111.657 216.865 111.314 216.928C110.971 216.989 110.645 216.763 110.582 216.42C110.57 216.355 110.57 216.287 110.578 216.224C110.578 216.224 110.587 216.155 110.603 216.033C110.619 215.913 110.641 215.743 110.691 215.541C110.781 215.14 110.962 214.625 111.223 214.171C111.479 213.712 111.805 213.312 112.074 213.047C112.339 212.779 112.545 212.637 112.545 212.637Z" fill="black"/>
<path d="M116.215 212.637C116.215 212.637 116.065 212.835 115.901 213.161C115.733 213.484 115.562 213.936 115.473 214.392C115.378 214.848 115.371 215.303 115.405 215.631C115.415 215.795 115.443 215.929 115.461 216.023C115.477 216.116 115.487 216.169 115.487 216.169L115.491 216.196C115.554 216.539 115.326 216.865 114.985 216.928C114.642 216.989 114.315 216.763 114.253 216.42C114.241 216.355 114.241 216.287 114.249 216.224C114.249 216.224 114.258 216.155 114.274 216.033C114.29 215.913 114.311 215.743 114.362 215.541C114.451 215.14 114.633 214.625 114.894 214.171C115.15 213.712 115.474 213.312 115.745 213.047C116.01 212.779 116.215 212.637 116.215 212.637Z" fill="black"/>
<path d="M135.686 203.345C135.686 203.345 135.515 203.525 135.317 203.832C135.115 204.134 134.897 204.566 134.758 205.01C134.615 205.453 134.559 205.904 134.558 206.233C134.55 206.398 134.563 206.534 134.57 206.63C134.577 206.724 134.581 206.777 134.581 206.777L134.583 206.805C134.607 207.152 134.346 207.453 133.999 207.478C133.653 207.502 133.351 207.241 133.327 206.894C133.322 206.828 133.329 206.76 133.343 206.698C133.343 206.698 133.361 206.63 133.39 206.513C133.418 206.394 133.459 206.226 133.531 206.033C133.662 205.644 133.898 205.152 134.207 204.726C134.511 204.298 134.877 203.936 135.174 203.701C135.467 203.464 135.686 203.345 135.686 203.345Z" fill="black"/>
<path d="M140.253 203.741C140.253 203.741 140.081 203.921 139.884 204.228C139.682 204.53 139.464 204.962 139.325 205.405C139.182 205.849 139.126 206.3 139.125 206.629C139.117 206.794 139.13 206.93 139.137 207.025C139.145 207.12 139.148 207.173 139.148 207.173L139.15 207.201C139.174 207.548 138.913 207.849 138.566 207.873C138.22 207.898 137.918 207.637 137.894 207.29C137.889 207.224 137.896 207.156 137.91 207.094C137.91 207.094 137.928 207.026 137.957 206.908C137.985 206.79 138.026 206.622 138.098 206.429C138.229 206.04 138.465 205.548 138.774 205.122C139.078 204.694 139.444 204.332 139.741 204.097C140.034 203.86 140.253 203.741 140.253 203.741Z" fill="black"/>
<path d="M198.602 209.12C198.602 209.12 198.477 209.335 198.353 209.679C198.226 210.019 198.111 210.488 198.078 210.952C198.039 211.416 198.087 211.868 198.161 212.19C198.191 212.352 198.234 212.482 198.263 212.572C198.291 212.663 198.307 212.714 198.307 212.714L198.315 212.74C198.418 213.072 198.233 213.426 197.901 213.528C197.569 213.631 197.215 213.446 197.113 213.114C197.093 213.05 197.083 212.982 197.085 212.919C197.085 212.919 197.085 212.85 197.087 212.727C197.087 212.606 197.089 212.434 197.115 212.228C197.154 211.819 197.271 211.287 197.475 210.803C197.675 210.316 197.949 209.88 198.183 209.584C198.415 209.286 198.602 209.12 198.602 209.12Z" fill="black"/>
<path d="M202.246 208.675C202.246 208.675 202.12 208.89 201.996 209.234C201.87 209.574 201.755 210.043 201.722 210.507C201.683 210.971 201.731 211.423 201.804 211.745C201.835 211.907 201.878 212.037 201.907 212.127C201.935 212.218 201.951 212.269 201.951 212.269L201.959 212.295C202.062 212.627 201.876 212.981 201.544 213.083C201.212 213.186 200.859 213.001 200.756 212.669C200.736 212.605 200.728 212.537 200.728 212.474C200.728 212.474 200.73 212.405 200.731 212.282C200.731 212.161 200.732 211.989 200.759 211.783C200.798 211.374 200.915 210.842 201.12 210.358C201.319 209.871 201.592 209.435 201.828 209.139C202.059 208.841 202.246 208.675 202.246 208.675Z" fill="black"/>
</svg>
