<svg width="141" height="170" viewBox="0 0 141 170" fill="none" xmlns="http://www.w3.org/2000/svg">
<path d="M112.638 115.822C112.13 114.024 112.432 111.36 112.7 109.725L112.728 109.732C113.51 105.241 116.01 102.37 118.393 100.545C120.322 101.402 121.654 103.634 122.505 105.097C124.373 103.421 125.801 101.265 126.612 98.8956C127.25 99.6516 127.882 100.4 128.521 101.156C129.132 100.009 129.517 98.7382 129.646 97.4409C130.396 97.8049 131.109 98.2302 131.789 98.7116C132.125 103.064 132.194 106.394 132.208 107.844C132.312 117.196 133.409 136.504 128.946 142.073C124.484 147.634 116.058 142.073 116.058 142.073C116.998 141.462 118.173 140.878 119.677 140.281C120.624 137.796 118.132 117.882 118.132 117.882C118.132 117.882 116.586 119.942 115.729 121.658C114.184 119.338 115.385 112.046 115.385 112.046C115.385 112.046 113.414 114.277 112.638 115.822Z" fill="#D6A980"/>
<path d="M127.141 48.7911C127.141 48.7911 127.485 50.1644 127.402 51.2764C125.774 51.0164 122.938 52.3071 122.938 52.3071C122.938 52.3071 125.081 52.9938 125.685 54.3671C122.334 54.8818 119.849 57.2031 120.191 60.2031C120.309 61.2271 121.174 62.2498 122.403 63.1484L122.395 63.1564C128.809 73.4631 131.021 88.7618 131.79 98.7111C131.11 98.2298 130.395 97.8044 129.647 97.4404C129.517 98.7378 129.131 100.008 128.521 101.155C127.882 100.4 127.25 99.6511 126.613 98.8964C125.802 101.266 124.374 103.422 122.506 105.096C121.654 103.634 120.322 101.403 118.393 100.544C116.01 102.371 113.511 105.24 112.727 109.731L112.701 109.724C112.845 108.852 112.982 108.268 112.982 108.268C112.982 108.268 111.526 110.07 111.266 111.354C110.579 110.859 110.222 109.854 110.043 108.52H110.063C109.769 105.854 109.721 103.187 109.837 101.854H109.775C105.202 107.187 96.0485 118.238 83.2912 119.192L83.0579 118.998C83.2219 119.944 83.3112 120.795 83.2845 121.776C81.3072 119.14 78.2165 117.55 77.9765 117.44C78.2299 117.818 82.7419 124.435 81.9112 130.271C80.7085 129.159 79.5072 129.57 79.5072 129.57C79.5072 129.57 80.1939 131.279 80.4485 132.824C80.4485 132.824 80.6539 133.788 80.8192 135.258L80.7365 135.263C79.2605 132.942 77.0699 131.074 74.5365 129.988C74.2405 132.275 73.5125 134.507 72.4219 136.539C71.8312 135.77 71.0139 135.192 70.0939 134.891C69.2005 136.326 68.5765 137.926 68.2459 139.587C66.3859 136.992 64.6072 134.335 62.9112 131.622C61.7645 133.511 60.2259 135.158 58.4272 136.443C58.6259 135.358 58.6059 134.231 58.3659 133.16C56.9165 134.932 54.8365 136.175 52.5912 136.607L52.3019 136.531C52.9819 133.956 53.2432 131.272 53.2432 131.272C53.2432 131.272 51.5259 132.556 50.1525 132.646C51.6152 129.81 50.1525 124.748 50.1525 124.748C50.1525 124.748 49.1232 127.495 47.9219 127.839C47.5779 124.831 43.6299 125.092 43.6299 125.092C43.6299 125.092 45.2645 131.1 43.9739 136.079C43.3765 134.19 41.5699 133.28 41.5699 133.28C41.5699 133.28 42.7859 137.854 43.5059 140.52H43.4992C43.1019 140.52 42.4765 138.416 41.2752 138.56C41.1512 139.714 41.0339 140.894 40.9179 142.047C39.7712 141.539 38.6312 141.036 37.4912 140.522C37.9992 142.54 37.4299 144.806 36.0152 146.344C36.4272 145.322 34.9232 144.37 33.9419 144.871C32.9592 145.372 32.6299 146.624 32.6499 147.723C31.4552 146.466 30.8992 144.627 31.1952 142.916C30.2952 143.714 28.4899 145.307 28.4899 145.307C26.3819 144.228 27.1499 140.624 27.1499 140.624C27.1499 140.624 24.6779 141.516 24.7605 143.158C24.3072 135.144 22.9965 116.186 22.9965 116.186C22.9965 116.186 21.0872 117.422 19.8792 119.296C19.0139 115.911 21.8699 110.755 21.8699 110.755C21.8699 110.755 19.4805 111.242 17.6259 112.904C17.5859 105.584 19.3152 99.1844 21.3005 94.2751C21.3139 95.2844 21.4379 96.6924 21.8565 97.6058C22.5845 97.3924 24.9192 94.7071 24.9192 94.7071C24.6579 95.9991 26.8419 99.2671 27.7952 100.132C29.2099 98.2511 29.5952 96.7951 29.5952 96.7951C29.5952 96.7951 31.4619 101.492 32.5059 101.979L34.6485 99.5351C34.6485 99.5351 36.1045 102.899 37.7659 102.714C37.7725 102.384 39.1805 99.2738 39.1805 99.2738C39.1805 99.2738 40.8699 102.508 42.7379 103.058C44.1992 99.6858 46.6232 96.3218 48.2925 95.5871C49.9672 94.8444 52.4672 94.1244 55.2552 95.4018C58.0432 96.6711 59.1965 98.6564 60.6312 102.212C61.2499 102.323 61.9365 102.302 62.6499 102.186C66.4885 101.588 71.1925 98.2164 70.9859 96.3764C79.3365 92.9364 79.9819 86.5364 79.9819 86.5364C79.9819 86.5364 83.4632 86.1244 84.1979 87.0658C84.9179 85.5404 85.0485 81.1538 85.0485 81.1538C85.0485 81.1538 86.4352 81.4138 87.8019 81.9498C88.3659 79.9378 87.9739 78.8044 88.5165 76.8338C88.6059 76.4911 88.9072 76.0098 89.3059 75.4404C90.5152 73.7378 92.6712 71.2991 93.0899 69.9258C93.6392 68.1004 92.8285 63.2658 92.8285 63.2658L95.5072 59.8044C95.5072 59.8044 94.9712 56.9964 93.7005 55.4991C99.2139 54.8471 107.702 54.4564 114.698 56.7698C119.334 54.9644 121.394 51.1951 121.909 47.5004C122.423 43.8058 121.05 40.9764 119.849 40.2911C118.647 39.6031 117.102 38.9178 112.638 40.2911C114.183 36.2524 118.818 37.0284 118.818 37.0284C118.818 37.0284 117.878 35.3124 114.698 34.7978C117.617 31.9684 126.502 31.2951 129.29 38.4911C131.35 43.8058 127.141 48.7911 127.141 48.7911Z" fill="#414C6B"/>
<path d="M127.141 48.7911C127.141 48.7911 127.485 50.1644 127.402 51.2764C125.774 51.0164 122.938 52.3071 122.938 52.3071C122.938 52.3071 125.081 52.9938 125.685 54.3671C122.334 54.8818 119.849 57.2031 120.191 60.2031C120.309 61.2271 121.174 62.2498 122.403 63.1484L122.395 63.1564C128.809 73.4631 131.021 88.7618 131.79 98.7111C131.11 98.2298 130.395 97.8044 129.647 97.4404C129.517 98.7378 129.131 100.008 128.521 101.155C127.882 100.4 127.25 99.6511 126.613 98.8964C125.802 101.266 124.374 103.422 122.506 105.096C121.654 103.634 120.322 101.403 118.393 100.544C116.01 102.371 113.511 105.24 112.727 109.731L112.701 109.724C112.845 108.852 112.982 108.268 112.982 108.268C112.982 108.268 111.526 110.07 111.266 111.354C110.579 110.859 110.222 109.854 110.043 108.52H110.063C109.769 105.854 109.721 103.187 109.837 101.854H109.775C105.202 107.187 96.0485 118.238 83.2912 119.192L83.0579 118.998C83.2219 119.944 83.3112 120.795 83.2845 121.776C81.3072 119.14 78.2165 117.55 77.9765 117.44C78.2299 117.818 82.7419 124.435 81.9112 130.271C80.7085 129.159 79.5072 129.57 79.5072 129.57C79.5072 129.57 80.1939 131.279 80.4485 132.824C80.4485 132.824 80.6539 133.788 80.8192 135.258L80.7365 135.263C79.2605 132.942 77.0699 131.074 74.5365 129.988C74.2405 132.275 73.5125 134.507 72.4219 136.539C71.8312 135.77 71.0139 135.192 70.0939 134.891C69.2005 136.326 68.5765 137.926 68.2459 139.587C66.3859 136.992 64.6072 134.335 62.9112 131.622C61.7645 133.511 60.2259 135.158 58.4272 136.443C58.6259 135.358 58.6059 134.231 58.3659 133.16C56.9165 134.932 54.8365 136.175 52.5912 136.607L52.3019 136.531C52.9819 133.956 53.2432 131.272 53.2432 131.272C53.2432 131.272 51.5259 132.556 50.1525 132.646C51.6152 129.81 50.1525 124.748 50.1525 124.748C50.1525 124.748 49.1232 127.495 47.9219 127.839C47.5779 124.831 43.6299 125.092 43.6299 125.092C43.6299 125.092 45.2645 131.1 43.9739 136.079C43.3765 134.19 41.5699 133.28 41.5699 133.28C41.5699 133.28 42.7859 137.854 43.5059 140.52H43.4992C43.1019 140.52 42.4765 138.416 41.2752 138.56C41.1512 139.714 41.0339 140.894 40.9179 142.047C39.7712 141.539 38.6312 141.036 37.4912 140.522C37.9992 142.54 37.4299 144.806 36.0152 146.344C36.4272 145.322 34.9232 144.37 33.9419 144.871C32.9592 145.372 32.6299 146.624 32.6499 147.723C31.4552 146.466 30.8992 144.627 31.1952 142.916C30.2952 143.714 28.4899 145.307 28.4899 145.307C26.3819 144.228 27.1499 140.624 27.1499 140.624C27.1499 140.624 24.6779 141.516 24.7605 143.158C24.3072 135.144 22.9965 116.186 22.9965 116.186C22.9965 116.186 21.0872 117.422 19.8792 119.296C19.0139 115.911 21.8699 110.755 21.8699 110.755C21.8699 110.755 19.4805 111.242 17.6259 112.904C17.5859 105.584 19.3152 99.1844 21.3005 94.2751C21.3139 95.2844 21.4379 96.6924 21.8565 97.6058C22.5845 97.3924 24.9192 94.7071 24.9192 94.7071C24.6579 95.9991 26.8419 99.2671 27.7952 100.132C29.2099 98.2511 29.5952 96.7951 29.5952 96.7951C29.5952 96.7951 31.4619 101.492 32.5059 101.979L34.6485 99.5351C34.6485 99.5351 36.1045 102.899 37.7659 102.714C37.7725 102.384 39.1805 99.2738 39.1805 99.2738C39.1805 99.2738 40.8699 102.508 42.7379 103.058C44.1992 99.6858 46.6232 96.3218 48.2925 95.5871C49.9672 94.8444 52.4672 94.1244 55.2552 95.4018C58.0432 96.6711 59.1965 98.6564 60.6312 102.212C61.2499 102.323 61.9365 102.302 62.6499 102.186C66.4885 101.588 71.1925 98.2164 70.9859 96.3764C79.3365 92.9364 79.9819 86.5364 79.9819 86.5364C79.9819 86.5364 83.4632 86.1244 84.1979 87.0658C84.9179 85.5404 85.0485 81.1538 85.0485 81.1538C85.0485 81.1538 86.4352 81.4138 87.8019 81.9498C88.3659 79.9378 87.9739 78.8044 88.5165 76.8338C88.6059 76.4911 88.9072 76.0098 89.3059 75.4404C90.5152 73.7378 92.6712 71.2991 93.0899 69.9258C93.6392 68.1004 92.8285 63.2658 92.8285 63.2658L95.5072 59.8044C95.5072 59.8044 94.9712 56.9964 93.7005 55.4991C99.2139 54.8471 107.702 54.4564 114.698 56.7698C119.334 54.9644 121.394 51.1951 121.909 47.5004C122.423 43.8058 121.05 40.9764 119.849 40.2911C118.647 39.6031 117.102 38.9178 112.638 40.2911C114.183 36.2524 118.818 37.0284 118.818 37.0284C118.818 37.0284 117.878 35.3124 114.698 34.7978C117.617 31.9684 126.502 31.2951 129.29 38.4911C131.35 43.8058 127.141 48.7911 127.141 48.7911Z" stroke="#414C6B" stroke-miterlimit="10" stroke-linecap="round" stroke-linejoin="round"/>
<path d="M84.829 38.2306C83.6277 37.5439 89.725 42.9546 88.949 48.1866C86.545 42.7759 82.769 40.6332 82.769 40.6332C82.769 40.6332 86.889 46.3812 87.5757 50.5906C86.545 48.1052 83.7997 46.8132 83.229 46.1266C82.6517 45.4399 83.1117 48.1866 82.0824 48.6466C81.8624 46.8959 81.3957 45.2479 80.7984 43.7306L81.629 44.2319C80.9624 42.0146 80.1797 39.9132 78.8464 38.0039V37.9972C69.513 16.4012 86.181 10.7439 86.181 10.7439L86.641 10.6826C86.421 10.9492 86.257 11.1079 86.257 11.1079C86.257 11.1079 89.581 10.9359 90.0064 12.1372C88.029 12.8239 86.9024 13.8546 86.9024 13.8546C86.9024 13.8546 92.4784 13.9372 94.105 16.9439C90.5904 16.1746 88.781 17.2879 87.9224 17.6306C87.0637 17.9746 96.249 18.7439 98.481 25.1012C94.6157 23.6386 90.1517 25.0119 89.293 25.1839C88.4344 25.3559 96.3304 26.0426 98.5624 34.1106C95.473 30.8492 89.121 29.4759 87.9197 29.3039C86.717 29.1319 95.4717 33.9386 95.4717 40.9772C91.3517 34.7146 86.717 34.6252 85.5157 34.1106C84.3144 33.5959 93.3304 38.9172 92.6437 45.0972C89.8077 39.8652 86.0304 38.9172 84.829 38.2306Z" fill="#D6A980"/>
<path d="M92.6432 134.108C93.3018 133.064 92.9458 129.789 92.4925 127.069L92.9312 126.995C92.9312 126.995 93.5698 126.487 94.0232 125.792C94.0232 125.792 94.9645 125.903 95.4178 126.609C98.5352 125.181 100.079 122.352 100.107 120.533C101.701 121.281 102.593 122.084 102.991 122.737C103.465 128.429 102.647 134.945 100.286 136.964C97.0098 139.767 89.2992 137.081 88.9765 136.972C90.4938 135.887 92.0112 135.104 92.6432 134.108Z" fill="#D6A980"/>
<path d="M14.7904 43.3803C14.7904 43.3803 15.0517 39.171 17.8811 36.171C12.6477 36.8576 5.52108 49.903 5.52108 49.903C5.52108 49.903 5.26641 35.9096 17.1931 29.3043C13.9317 27.931 3.46108 36.171 3.46108 36.171C3.46108 36.171 4.49041 26.043 15.1331 20.7203C9.48241 19.203 0.699742 25.6296 0.377075 25.8643C0.522409 25.5416 5.60241 14.479 16.8504 15.915C16.5891 14.623 11.3571 12.8243 11.3571 12.8243C11.3571 12.8243 14.0211 9.99496 18.5664 11.1083C18.4704 10.8603 18.2304 10.559 17.8877 10.2283L18.0517 10.0643L26.2637 16.107C28.4957 19.959 30.7691 26.351 27.2531 33.307L27.3837 33.5403C23.9637 35.4696 21.3131 37.5443 21.3131 37.5443C21.3131 37.5443 23.4624 37.5443 24.7464 38.5736C21.3131 38.1483 14.7904 43.3803 14.7904 43.3803Z" fill="#D6A980"/>
<path d="M51.5264 145.348C52.4744 144.23 53.2424 139.512 53.2424 139.512C53.2424 139.512 51.8691 140.975 50.4957 140.542C51.2931 139.718 51.8837 138.146 52.3024 136.532L52.5904 136.607C54.8357 136.175 56.9171 134.932 58.3651 133.16C58.6051 134.231 58.6264 135.358 58.4277 136.443C60.2264 135.159 61.7637 133.511 62.9104 131.622C64.6064 134.335 66.3851 136.992 68.2464 139.587C68.5757 137.926 69.2011 136.326 70.0931 134.891C71.0131 135.192 71.8304 135.77 72.4211 136.539C73.5131 134.506 74.2411 132.275 74.5357 129.988C77.0704 131.072 79.2597 132.94 80.7371 135.262L80.8184 135.255C81.0451 137.198 81.1971 140.006 80.7091 142.602C80.1117 141.311 78.3064 140.886 78.3064 140.886C78.3064 140.886 80.0224 145.774 78.3064 150.498C78.0517 147.696 75.5931 144.832 75.3944 144.592C75.4144 144.695 75.5597 145.187 75.7451 146.52H75.7371C68.1091 165.187 52.4744 154.616 52.4744 154.616C53.9291 153.01 54.6157 145.479 54.6157 145.479C54.6157 145.479 52.9891 145.774 51.5264 145.348" fill="#D6A980"/>
<path d="M21.3136 6.30104C21.3136 4.24104 17.8803 0.807703 17.8803 0.807703C17.8803 0.807703 32.2176 -0.73763 37.4496 10.765C40.0256 10.5037 40.0256 6.90504 40.0256 6.90504C40.0256 6.90504 44.5776 14.8024 41.3083 25.2664L41.3163 25.321C40.4443 25.4584 39.6269 25.6237 38.8776 25.8024L38.7549 25.301C38.4456 20.1304 35.5616 13.285 32.1976 11.6437L31.2083 13.037C31.2083 13.037 27.7203 10.029 22.8523 10.037C23.0856 10.805 23.3123 11.5744 23.5456 12.3437C21.7123 11.581 19.8789 10.8197 18.0523 10.0637L17.8869 10.229C16.1163 8.49837 11.7003 5.95837 11.7003 5.95837C11.7003 5.95837 17.7083 3.72637 21.3136 6.30104" fill="#272C3D"/>
<path d="M87.2323 61.2334C87.2323 61.2334 89.7256 60.204 90.6656 60.8894C90.1509 57.8 87.9189 56.4267 87.9189 56.4267C87.9189 56.4267 88.2616 54.7987 87.5763 50.5907C86.5456 48.104 83.7989 46.8134 83.2296 46.1267C82.6523 45.44 83.1123 48.1867 82.0829 48.6467C81.8629 46.896 81.3963 45.248 80.7989 43.7307L81.2949 44.232C80.6296 42.0134 79.5136 39.9134 78.1803 38.004V37.9974C76.8469 34.9134 73.3163 32.332 69.9923 30.608C70.0549 30.0387 70.3243 29.4827 70.6536 29.0094C70.7709 28.8374 70.6829 28.5894 70.4696 28.5827C68.8909 28.508 67.3189 28.6854 65.7883 29.0974C65.8696 28.6854 66.0696 28.2947 66.3443 27.9787C66.5083 27.7734 66.3403 27.4774 66.0803 27.532L61.9963 28.4454L61.4816 28.2747C53.4136 24.6627 46.3763 24.5254 41.3149 25.3214C40.4429 25.4587 39.6269 25.624 38.8776 25.8027C35.1496 26.688 32.9869 27.9307 32.9869 27.9307C32.9869 27.9307 34.6216 28.356 37.1069 30.3334C34.1469 30.2107 30.4523 31.8174 27.3829 33.54C23.9643 35.4707 21.3136 37.544 21.3136 37.544C21.3136 37.544 23.4629 37.544 24.7469 38.5734C16.4243 40.544 9.64026 55.3974 9.64026 55.3974C9.64026 55.3974 11.7003 54.5387 12.7309 55.0534C10.1563 57.8 9.98426 61.92 9.98426 61.92C9.98426 61.92 13.5883 57.1134 16.1643 57.4574C8.09493 66.1294 11.7003 77.7134 11.7003 77.7134C11.7003 77.7134 13.5069 79.7734 14.7909 79.7734C14.4469 82.2587 16.8509 84.9227 16.8509 84.9227C16.8509 84.9227 16.8509 80.2054 20.6269 77.3694C19.2536 81.5787 18.8283 87.6694 18.8283 87.6694C18.8283 87.6694 19.8576 86.124 22.3429 84.6614C21.4856 86.9 20.9709 91.7894 20.9709 91.7894C20.9709 91.7894 22.3643 88.7547 24.7536 87.264C24.8083 87.2227 24.8643 87.1894 24.9189 87.1547C22.7696 91.9614 22.7416 95.4494 22.7416 95.4494C22.7416 95.4494 25.4336 89.6467 27.1509 89.3867C25.0083 94.536 27.4936 97.9694 27.4936 97.9694C27.4936 97.9694 30.0683 91.5347 31.9563 91.7894C30.5829 96.424 32.3003 100.029 32.3003 100.029C32.3003 100.029 33.4189 94.708 36.5923 92.2147C35.4789 96.8574 37.0243 101.313 37.0243 101.313C37.0243 101.313 37.5323 95.6547 39.9363 93.2454C39.6816 99.1707 42.0843 101.403 42.0843 101.403C42.0843 101.403 44.2336 90.0734 46.8909 88.7894C47.6669 89.304 48.6083 90.0734 49.8096 89.9014C49.9816 87.9307 51.9589 86.7214 52.9003 86.468C53.8469 86.2134 57.6243 89.468 58.3936 92.476C59.4229 92.2147 60.1096 90.76 60.1096 90.76C60.1096 90.76 63.5429 96.424 62.1696 100.716C62.2309 100.709 62.2856 100.695 62.3416 100.681C66.2763 99.9534 68.6923 97.2827 68.6923 97.2827C69.4483 94.9347 67.7376 89.2974 67.6696 89.0494C67.8349 89.2 70.5056 91.6174 70.7523 94.192C70.7523 94.192 74.1043 93.5054 74.8723 91.4467C75.6416 89.3867 73.1563 80.46 73.1563 80.46C73.1563 80.46 77.2763 85.348 77.2763 87.3267C78.8696 85.6574 78.0109 82.032 77.9696 81.84C78.1683 81.908 81.3269 83.0827 81.7389 84.58C83.7989 81.5787 82.7696 77.0267 82.7696 77.0267C82.7696 77.0267 84.5683 77.624 85.1723 79.0867C85.7763 75.4814 82.4256 70.5027 82.4256 70.5027C82.4256 70.5027 87.4043 72.9067 87.9189 74.28C88.4336 70.764 84.3136 64.8387 85.1723 65.3534C86.0309 65.868 88.9496 68.0174 89.6349 69.4734C91.1803 67.928 90.5829 65.5254 90.3229 64.6667C90.0683 63.808 87.2323 61.2334 87.2323 61.2334Z" fill="#414C6B"/>
<path d="M87.2323 61.2334C87.2323 61.2334 89.7256 60.204 90.6656 60.8894C90.1509 57.8 87.9189 56.4267 87.9189 56.4267C87.9189 56.4267 88.2616 54.7987 87.5763 50.5907C86.5456 48.104 83.7989 46.8134 83.2296 46.1267C82.6523 45.44 83.1123 48.1867 82.0829 48.6467C81.8629 46.896 81.3963 45.248 80.7989 43.7307L81.2949 44.232C80.6296 42.0134 79.5136 39.9134 78.1803 38.004V37.9974C76.8469 34.9134 73.3163 32.332 69.9923 30.608C70.0549 30.0387 70.3243 29.4827 70.6536 29.0094C70.7709 28.8374 70.6829 28.5894 70.4696 28.5827C68.8909 28.508 67.3189 28.6854 65.7883 29.0974C65.8696 28.6854 66.0696 28.2947 66.3443 27.9787C66.5083 27.7734 66.3403 27.4774 66.0803 27.532L61.9963 28.4454L61.4816 28.2747C53.4136 24.6627 46.3763 24.5254 41.3149 25.3214C40.4429 25.4587 39.6269 25.624 38.8776 25.8027C35.1496 26.688 32.9869 27.9307 32.9869 27.9307C32.9869 27.9307 34.6216 28.356 37.1069 30.3334C34.1469 30.2107 30.4523 31.8174 27.3829 33.54C23.9643 35.4707 21.3136 37.544 21.3136 37.544C21.3136 37.544 23.4629 37.544 24.7469 38.5734C16.4243 40.544 9.64026 55.3974 9.64026 55.3974C9.64026 55.3974 11.7003 54.5387 12.7309 55.0534C10.1563 57.8 9.98426 61.92 9.98426 61.92C9.98426 61.92 13.5883 57.1134 16.1643 57.4574C8.09493 66.1294 11.7003 77.7134 11.7003 77.7134C11.7003 77.7134 13.5069 79.7734 14.7909 79.7734C14.4469 82.2587 16.8509 84.9227 16.8509 84.9227C16.8509 84.9227 16.8509 80.2054 20.6269 77.3694C19.2536 81.5787 18.8283 87.6694 18.8283 87.6694C18.8283 87.6694 19.8576 86.124 22.3429 84.6614C21.4856 86.9 20.9709 91.7894 20.9709 91.7894C20.9709 91.7894 22.3643 88.7547 24.7536 87.264C24.8083 87.2227 24.8643 87.1894 24.9189 87.1547C22.7696 91.9614 22.7416 95.4494 22.7416 95.4494C22.7416 95.4494 25.4336 89.6467 27.1509 89.3867C25.0083 94.536 27.4936 97.9694 27.4936 97.9694C27.4936 97.9694 30.0683 91.5347 31.9563 91.7894C30.5829 96.424 32.3003 100.029 32.3003 100.029C32.3003 100.029 33.4189 94.708 36.5923 92.2147C35.4789 96.8574 37.0243 101.313 37.0243 101.313C37.0243 101.313 37.5323 95.6547 39.9363 93.2454C39.6816 99.1707 42.0843 101.403 42.0843 101.403C42.0843 101.403 44.2336 90.0734 46.8909 88.7894C47.6669 89.304 48.6083 90.0734 49.8096 89.9014C49.9816 87.9307 51.9589 86.7214 52.9003 86.468C53.8469 86.2134 57.6243 89.468 58.3936 92.476C59.4229 92.2147 60.1096 90.76 60.1096 90.76C60.1096 90.76 63.5429 96.424 62.1696 100.716C62.2309 100.709 62.2856 100.695 62.3416 100.681C66.2763 99.9534 68.6923 97.2827 68.6923 97.2827C69.4483 94.9347 67.7376 89.2974 67.6696 89.0494C67.8349 89.2 70.5056 91.6174 70.7523 94.192C70.7523 94.192 74.1043 93.5054 74.8723 91.4467C75.6416 89.3867 73.1563 80.46 73.1563 80.46C73.1563 80.46 77.2763 85.348 77.2763 87.3267C78.8696 85.6574 78.0109 82.032 77.9696 81.84C78.1683 81.908 81.3269 83.0827 81.7389 84.58C83.7989 81.5787 82.7696 77.0267 82.7696 77.0267C82.7696 77.0267 84.5683 77.624 85.1723 79.0867C85.7763 75.4814 82.4256 70.5027 82.4256 70.5027C82.4256 70.5027 87.4043 72.9067 87.9189 74.28C88.4336 70.764 84.3136 64.8387 85.1723 65.3534C86.0309 65.868 88.9496 68.0174 89.6349 69.4734C91.1803 67.928 90.5829 65.5254 90.3229 64.6667C90.0683 63.808 87.2323 61.2334 87.2323 61.2334Z" stroke="#414C6B" stroke-miterlimit="10" stroke-linecap="round" stroke-linejoin="round"/>
<path d="M24.3968 150.498C24.0528 149.476 21.9928 150.162 21.9928 150.162C21.9928 150.162 22.4995 147.998 24.6288 146.468C24.6288 146.014 24.1808 144.826 24.1808 143.165V143.158C24.1808 141.517 26.8595 140.624 26.8595 140.624C26.8595 140.624 26.2355 144.229 28.3435 145.308C28.3435 145.308 30.2221 143.714 31.1221 142.918C30.8261 144.628 31.4195 146.468 32.6141 147.724C32.5928 146.625 32.9408 145.376 33.9235 144.874C34.9048 144.373 36.4181 145.328 36.0061 146.35C37.4208 144.813 37.9941 142.554 37.4861 140.536C38.6261 141.05 39.7688 141.565 40.9155 142.073C41.0315 140.92 41.1501 139.381 41.2741 138.228C42.4755 138.082 43.1008 139.853 43.4995 139.853H43.5061C43.8835 142.52 44.1248 144.304 43.9728 145.993C42.8608 144.702 41.2261 145.156 41.2261 145.156C41.2261 145.156 41.6595 150.752 37.7928 154.385C31.4421 160.358 19.9061 152.929 19.9061 152.929C20.9981 151.954 22.4528 151.109 24.3968 150.498Z" fill="#D6A980"/>
<path d="M68.6926 13.0509C73.3073 8.0522 86.6273 3.38286 93.7553 5.61486C89.6006 7.35886 87.3286 9.72687 86.5313 10.6815L85.962 10.7442C83.414 10.0775 77.3513 10.2762 73.382 12.6109C74.6113 12.8655 75.3806 14.0255 75.3806 14.0255C72.9566 14.6375 72.126 14.7122 70.6633 15.9549C71.3086 16.1402 71.954 16.3189 72.5926 16.5042C67.6766 18.2829 63.5833 22.1975 61.5726 27.0109C61.9846 23.3229 63.7833 18.3722 68.6926 13.0509Z" fill="#272C3D"/>
<path d="M26.2644 16.1066L18.0524 10.0639C19.879 10.8199 21.7124 11.5812 23.5457 12.3439C23.5457 12.3439 24.8977 13.7519 26.2644 16.1066" fill="#D6A980"/>
<path d="M87.404 146.296C87.404 146.296 85.948 145.945 84.9186 145.177C85.3506 142.594 88.5853 140.562 88.5853 140.562C88.5853 140.562 87.7066 140.582 85.516 140.974C86.244 139.148 87.6106 137.933 88.976 136.972C89.2986 137.081 97.0106 139.766 100.285 136.964C102.648 134.945 103.465 128.429 102.991 122.737C103.08 122.881 103.149 123.012 103.191 123.134C104.089 121.761 104.804 120.272 105.325 118.72C106.555 119.434 107.4 120.738 107.592 122.14L107.695 122.133C107.825 123.458 107.893 124.446 107.832 124.83C107.571 126.382 106.801 129.556 106.801 129.556C106.801 129.556 106.72 140.802 106.115 141.914C105.511 143.028 99.9013 146.008 98.7333 146.81C97.1066 147.924 94.6133 148.438 92.6426 147.924C92.472 146.976 93.3293 145.177 93.3293 145.177C93.3293 145.177 91.8666 145.437 89.9786 147.49C89.292 146.378 89.292 143.632 89.292 143.632C89.292 143.632 88.352 144.661 87.404 146.296Z" fill="#BF9772"/>
<path d="M40.1967 163.545C38.054 164.835 33.33 165.261 33.33 165.261C32.39 164.657 32.3007 162.171 32.3007 162.171C32.3007 162.171 30.5833 163.202 30.5833 164.575C30.5833 164.575 26.546 165.35 26.1207 164.575C25.694 163.799 25.7767 161.829 25.7767 161.829C25.7767 161.829 23.8887 162.858 23.03 164.575C21.3967 164.746 17.194 163.545 17.194 163.545C17.1047 159.769 20.2833 156.678 20.2833 156.678C20.0233 155.394 16.6793 158.566 16.6793 158.566C16.6793 158.566 17.0353 155.511 19.906 152.977C19.906 152.977 31.442 160.455 37.794 154.481C41.6593 150.849 41.226 145.349 41.226 145.349C41.226 145.349 44.6593 153.417 44.062 156.253C42.9433 155.73 42.2567 155.649 42.2567 155.649C42.2567 155.649 42.174 159.597 42.5993 161.829C41.6593 161.999 39.8527 160.798 39.8527 160.798C39.8527 160.798 39.682 162.686 40.1967 163.545Z" fill="#BF9772"/>
<path d="M111.609 150.842C111.609 147.848 115.474 145.176 115.715 145.012C115.598 145.067 114.575 145.527 112.721 145.603C113.49 144.243 114.423 143.123 116.058 142.074C116.058 142.074 124.483 147.635 128.946 142.074C133.41 136.504 132.311 117.196 132.209 107.843C132.194 106.395 132.126 103.064 131.789 98.7109C134.714 100.778 136.953 103.834 137.99 107.267C137.53 111.331 134.213 127.296 134.611 146.379C133.238 149.468 130.835 151.528 130.835 151.528L128.089 149.812C128.089 149.812 126.371 151.356 125.685 152.902C124.655 152.647 123.625 150.155 123.625 150.155C123.625 150.155 121.394 151.954 120.191 153.244C119.594 152.387 119.849 149.812 119.849 149.812C119.849 149.812 118.05 151.446 116.758 152.558C115.729 151.79 115.385 149.812 115.385 149.812C115.385 149.812 112.982 150.238 111.609 150.842Z" fill="#BF9772"/>
<path d="M47.0632 160.455C47.0632 160.455 48.1818 157.885 52.4738 154.617C52.4738 154.617 68.1085 165.187 75.7378 146.52H75.7445C76.2938 149.187 77.1938 154.94 76.2458 158.655C74.8725 158.051 73.1565 158.868 73.1565 158.868C73.1565 158.868 73.9312 163.864 72.4698 167.043C72.4698 165.669 70.7525 164.264 70.7525 164.264C70.7525 164.264 70.8352 167.255 70.0658 168.024C69.2965 168.793 64.1472 168.441 64.1472 168.441C63.3712 167.591 62.8565 165.265 62.8565 165.265C62.8565 165.265 61.7432 166.98 61.6552 168.525C61.6552 168.525 59.1685 169.636 57.1018 168.524C56.2512 167.404 55.9898 165.605 55.9898 165.605C55.9898 165.605 54.3685 166.6 54.1018 168.352C53.9298 169.471 49.0405 167.664 49.0405 167.664C49.0405 167.664 47.4058 164.747 50.1525 160.799C48.6978 161.485 47.0632 160.455 47.0632 160.455Z" fill="#BF9772"/>
<path d="M73.3825 12.6114C77.3519 10.2767 83.4145 10.078 85.9625 10.7434C85.9625 10.7434 70.1892 16.402 78.4092 37.9967C76.2945 34.914 73.4305 32.3327 70.1065 30.6087C70.1692 30.038 70.3825 29.482 70.7119 29.0087C70.8279 28.8367 70.7119 28.59 70.4985 28.5834C68.9199 28.5074 67.3332 28.686 65.8012 29.098C65.8839 28.686 66.0772 28.294 66.3519 27.9794C66.5159 27.7727 66.3439 27.478 66.0839 27.5327L61.9972 28.446L61.4825 28.274C61.4972 27.8754 61.5239 27.45 61.5719 27.01C63.5839 22.1967 67.6759 18.2834 72.5932 16.5047C71.9545 16.3194 71.3092 16.1407 70.6639 15.9554C72.1265 14.7127 72.9572 14.6367 75.3812 14.026C75.3812 14.026 74.6119 12.866 73.3825 12.6114" fill="#BF9772"/>
<path d="M38.8781 25.802L38.7541 25.3007C38.4461 20.13 35.5621 13.2847 32.1968 11.6433L31.2088 13.0367C31.2088 13.0367 27.7208 10.03 22.8514 10.0367C23.0848 10.806 23.3114 11.574 23.5448 12.3433C23.5448 12.3433 24.8981 13.7513 26.2648 16.106C28.4954 19.958 30.7688 26.3513 27.2528 33.3073L27.3834 33.5406C30.4528 31.8166 34.1474 30.21 37.1074 30.334C34.6208 28.3566 32.9861 27.93 32.9861 27.93C32.9861 27.93 35.1501 26.6873 38.8781 25.802" fill="#BF9772"/>
<path d="M109.892 107.224C109.892 107.224 108.684 108.619 106.589 111.215C105.298 112.815 103.67 114.576 101.776 116.636C99.0638 119.581 95.8012 122.724 92.2172 125.629C88.5572 128.588 84.5612 131.176 80.4478 132.859C80.1945 131.313 79.5078 129.576 79.5078 129.576C79.5078 129.576 80.7092 129.14 81.9105 130.252C82.7412 124.416 78.2305 117.764 77.9758 117.387C78.2158 117.496 81.3065 119.024 83.2838 121.661C83.3118 120.679 83.2225 119.709 83.0572 118.763L83.2905 119.527C96.0492 118.572 105.202 106.52 109.774 102.52H109.837C109.72 103.853 109.768 105.187 110.064 109.187H110.042C109.933 107.853 109.892 107.224 109.892 107.224Z" fill="#272C3D"/>
<path d="M106.589 110.878C105.298 112.478 103.67 114.408 101.776 116.468C99.0637 119.413 95.801 122.641 92.217 125.545C92.3064 126.012 92.4024 126.534 92.4917 127.069L92.9317 126.994C92.9317 126.994 93.5704 126.486 94.0237 125.793C94.0237 125.793 94.9637 125.902 95.417 126.609C98.5344 125.181 100.08 122.352 100.106 120.533C101.7 121.281 102.593 122.085 102.99 122.737C103.08 122.881 103.149 123.012 103.19 123.136C104.089 121.762 104.804 120.272 105.325 118.72C106.554 119.434 107.4 120.738 107.592 122.14L107.694 122.133C107.378 119.016 106.705 114.057 106.589 110.878Z" fill="#272C3D"/>
<path d="M131.789 98.711C131.02 88.7616 128.809 73.463 122.396 63.1563L122.402 63.1496C124.758 64.8936 128.466 66.219 130.834 66.383C129.976 67.9283 128.088 68.1003 128.088 68.1003C128.088 68.1003 133.664 70.2496 135.641 73.2496C133.925 73.9363 133.238 75.3096 133.238 75.3096C133.238 75.3096 140.709 82.1763 140.104 91.7896C138.216 90.2443 135.985 90.4163 135.985 90.4163C135.985 90.4163 140.365 97.0283 139.418 102.09C137.873 101.492 136.328 101.403 136.328 101.403C136.328 101.403 138.045 104.15 138.045 106.552C138.045 106.718 138.024 106.958 137.989 107.267C136.953 103.834 134.714 100.778 131.789 98.711Z" fill="#272C3D"/>
<path d="M95.5065 59.8051C95.5065 59.8051 94.9705 56.9971 93.7012 55.4998C90.2199 55.9118 87.9185 56.4265 87.9185 56.4265C87.9185 56.4265 90.1505 57.7998 90.6652 60.8905C89.7252 60.2038 87.2319 61.2331 87.2319 61.2331C87.2319 61.2331 90.0679 63.8078 90.3225 64.6665C90.5825 65.5251 91.1812 67.9278 89.6359 69.4731C88.9492 68.0171 86.0305 65.8678 85.1719 65.3531C84.3145 64.8385 88.4345 70.7638 87.9185 74.2798C87.4039 72.9065 82.4252 70.5038 82.4252 70.5038C82.4252 70.5038 85.7772 75.4811 85.1719 79.0865C84.5679 77.6238 82.7692 77.0265 82.7692 77.0265C82.7692 77.0265 83.7985 81.5785 81.7385 84.5798C81.3279 83.0825 78.1692 81.9091 77.9692 81.8398C78.0105 82.0318 78.8692 85.6571 77.2759 87.3265C77.2759 85.3491 73.1559 80.4598 73.1559 80.4598C73.1559 80.4598 75.6412 89.3865 74.8732 91.4465C74.1039 93.5065 70.7532 94.1931 70.7532 94.1931C70.5052 91.6171 67.8345 89.2011 67.6692 89.0491C67.7385 89.2971 69.4479 94.9345 68.6932 97.2825C68.6932 97.2825 66.2759 99.9531 62.3412 100.681C62.2865 100.696 62.2319 100.709 62.1692 100.716C63.5425 96.4238 60.1092 90.7598 60.1092 90.7598C60.1092 90.7598 59.4225 92.2145 58.3932 92.4758C57.6239 89.4691 53.8479 86.2131 52.8999 86.4678C51.9585 86.7211 49.9812 87.9305 49.8092 89.9011C48.6079 90.0731 47.6679 89.3038 46.8919 88.7891C44.2345 90.0731 42.0852 101.402 42.0852 101.402C42.0852 101.402 39.6812 99.1705 39.9359 93.2451C37.5319 95.6558 37.0239 101.313 37.0239 101.313C37.0239 101.313 35.4799 96.8571 36.5919 92.2145C33.4199 94.7078 32.2999 100.029 32.2999 100.029C32.2999 100.029 30.5839 96.4238 31.9572 91.7891C30.0692 91.5358 27.4932 97.9691 27.4932 97.9691C27.4932 97.9691 25.0079 94.5358 27.1505 89.3865C25.4332 89.6465 22.7425 95.4491 22.7425 95.4491C22.7425 95.4491 22.7692 91.9611 24.9185 87.1545C24.8639 87.1891 24.8092 87.2238 24.7532 87.2638C23.7239 89.0078 22.4679 91.3838 21.2999 94.2745C21.3132 95.2851 21.4372 96.6918 21.8559 97.6051C22.5839 97.3931 24.9185 94.7078 24.9185 94.7078C24.6572 95.9985 26.8412 99.2665 27.7959 100.132C29.2105 98.2505 29.5945 96.7945 29.5945 96.7945C29.5945 96.7945 31.4625 101.492 32.5065 101.98L34.6492 99.5345C34.6492 99.5345 36.1039 102.9 37.7665 102.714C37.7732 102.384 39.1799 99.2745 39.1799 99.2745C39.1799 99.2745 40.8692 102.508 42.7372 103.057C44.1999 99.6865 46.6239 96.3211 48.2919 95.5865C49.9679 94.8451 52.4665 94.1238 55.2545 95.4011C58.0425 96.6718 59.1959 98.6558 60.6319 102.213C61.2492 102.322 61.9359 102.302 62.6505 102.185C66.4892 101.588 71.1919 98.2158 70.9865 96.3758C79.3359 92.9358 79.9812 86.5371 79.9812 86.5371C79.9812 86.5371 83.4625 86.1251 84.1972 87.0651C84.9185 85.5411 85.0492 81.1531 85.0492 81.1531C85.0492 81.1531 86.4359 81.4145 87.8025 81.9491C88.3652 79.9371 87.9745 78.8051 88.5159 76.8345C88.6052 76.4905 88.9079 76.0105 89.3065 75.4398C90.5145 73.7371 92.6705 71.2998 93.0892 69.9265C93.6385 68.0998 92.8292 63.2665 92.8292 63.2665L95.5065 59.8051Z" fill="#272C3D"/>
<path d="M65.5684 66.0397C66.3097 68.7251 67.9577 75.9691 65.259 79.4291C64.4897 75.2277 62.1697 73.9357 62.1697 73.9357C62.1697 73.9357 62.087 78.6611 59.079 80.4597C59.423 75.3984 56.9377 73.5104 56.9377 73.5104C51.8697 74.4517 47.4057 70.8464 47.4057 70.8464L47.523 70.5437C53.655 72.9064 56.0164 72.8931 60.1097 70.8464C60.8377 70.4824 61.1937 69.1704 61.1937 69.1704C61.1937 69.1704 63.9404 70.9077 64.2844 71.6424C65.1977 70.9771 65.499 67.1037 65.5684 66.0397Z" fill="#BF9772"/>
<path d="M47.4064 70.8465C47.4064 70.8465 51.8704 74.4518 56.9371 73.5105C45.9504 82.1758 36.7637 73.2492 36.7637 73.2492C43.4584 75.4812 47.4064 70.8465 47.4064 70.8465Z" fill="#BF9772"/>
<path d="M37.5136 72.9064V73.2504C37.5136 73.2504 34.9069 76.9438 34.7349 81.1464C32.9362 80.2051 32.4882 73.9371 32.4882 73.9371C32.4882 73.9371 30.1629 75.9971 28.9602 80.1158C28.4736 78.3384 27.0322 73.4424 29.1682 67.2144C29.2642 67.9904 29.5629 70.3104 30.0362 71.0184C30.0362 71.0184 31.1416 69.3571 31.8829 69.5558C31.8829 69.5558 32.1802 71.6638 37.5136 72.9064Z" fill="#BF9772"/>
<path d="M55.4747 35.9988C54.2733 38.4015 55.1307 42.5215 55.1307 42.5215C55.1307 42.5215 61.14 41.6641 66.6333 47.1575C67.6627 46.2135 69.0787 45.9548 71.096 45.9548C70.1093 44.0241 67.6627 43.8948 67.6627 43.8948C67.6627 43.8948 68.6493 43.5521 69.9373 43.4668C66.2467 37.8015 59.7667 38.7455 59.7667 38.7455C59.7667 38.7455 59.08 37.2868 58.736 35.8268C57.62 36.3415 56.848 38.9175 56.848 38.9175C56.848 38.9175 55.904 37.2868 55.4747 35.9988Z" fill="#D6A980"/>
<path d="M29.6428 58.3619C32.6361 54.2899 37.6081 48.7899 49.7268 48.6859C58.1521 48.6179 63.0281 53.1873 65.5894 57.1873H65.5814C46.8508 47.8539 29.6428 58.3619 29.6428 58.3619Z" fill="#EDBB8E"/>
<path d="M69.036 69.4732C67.8346 65.6145 65.26 65.0105 65.26 65.0105C65.26 65.0105 65.3826 65.3945 65.568 66.0398C65.5 67.1038 65.1973 70.9772 64.284 71.6425C63.9413 70.9078 61.1946 69.1705 61.1946 69.1705C61.1946 69.1705 60.8373 70.4825 60.1093 70.8465C56.0173 72.8932 53.6546 72.9065 47.5227 70.5438L47.7813 70.8465C47.7813 70.8465 42.8467 75.4812 37.5133 73.2492V72.9065C32.18 71.6638 31.872 69.5558 31.872 69.5558C31.1307 69.3558 30.2013 71.0185 30.2013 71.0185C29.7267 70.3105 29.3107 67.9905 29.2147 67.2145C29.3387 66.8292 29.4427 66.4385 29.6 66.0398C28.2267 65.5252 25.8 69.8158 25.8 69.8158C25.8 69.8158 26.304 62.9145 29.6547 58.3625C29.6547 58.3625 46.8507 47.8532 65.5826 57.1865H65.5893C66.2613 57.1865 66.7773 58.6705 67.148 59.5638C68.9533 63.8545 69.036 69.4732 69.036 69.4732Z" fill="#D6A980"/>
<path d="M35.9733 36.4335C37.712 38.4815 37.86 42.6882 37.86 42.6882C37.86 42.6882 31.82 43.2842 27.792 49.9269C26.5667 49.2549 25.1307 49.3429 23.1707 49.8229C23.6707 47.7122 26.016 47.0042 26.016 47.0042C26.016 47.0042 24.9747 46.9055 23.704 47.1295C25.94 40.7482 32.4587 40.1229 32.4587 40.1229C32.4587 40.1229 32.7787 38.5429 32.7653 37.0429C33.9707 37.2775 35.3347 39.5949 35.3347 39.5949C35.3347 39.5949 35.8627 37.7869 35.9733 36.4335" fill="#D6A980"/>
<path d="M37.2784 48.6446C36.4877 48.6446 35.8477 49.2846 35.8477 50.0753C35.8477 50.4393 35.9891 50.7686 36.2131 51.0206C36.9584 50.55 37.7704 50.1073 38.6544 49.7046C38.4904 49.0953 37.9397 48.6446 37.2784 48.6446Z" fill="black"/>
<path d="M37.2784 48.6446C36.4877 48.6446 35.8477 49.2846 35.8477 50.0753C35.8477 50.4393 35.9891 50.7686 36.2131 51.0206C36.9584 50.55 37.7704 50.1073 38.6544 49.7046C38.4904 49.0953 37.9397 48.6446 37.2784 48.6446Z" stroke="black" stroke-width="0.539" stroke-miterlimit="10"/>
<path d="M59.194 48.8737C59.194 48.083 58.554 47.443 57.7633 47.443C57.1007 47.443 56.55 47.895 56.386 48.5057C57.3167 48.819 58.1807 49.1923 58.982 49.615C59.114 49.3977 59.194 49.1457 59.194 48.8737Z" fill="black"/>
<path d="M59.194 48.8737C59.194 48.083 58.554 47.443 57.7633 47.443C57.1007 47.443 56.55 47.895 56.386 48.5057C57.3167 48.819 58.1807 49.1923 58.982 49.615C59.114 49.3977 59.194 49.1457 59.194 48.8737Z" stroke="black" stroke-width="0.539" stroke-miterlimit="10"/>
<path d="M80.4508 133.16C80.2868 133.16 80.1414 133.04 80.1134 132.874C79.8641 131.383 79.1961 129.7 79.1894 129.683C79.1548 129.596 79.1561 129.499 79.1948 129.415C79.2334 129.328 79.3041 129.263 79.3921 129.232C79.4428 129.215 80.4814 128.859 81.6374 129.595C82.0868 123.932 77.7268 117.63 77.6814 117.564C77.5921 117.436 77.6001 117.264 77.7001 117.146C77.8001 117.026 77.9668 116.991 78.1094 117.056C78.2321 117.115 80.8814 118.386 82.9294 120.686C82.6401 114.443 78.1494 108.983 77.8001 108.742C77.6241 108.671 77.5561 108.48 77.6268 108.304C77.6974 108.128 77.9161 108.05 78.0908 108.122C78.6001 108.327 83.8041 114.756 83.6268 121.667C83.6228 121.814 83.5268 121.942 83.3881 121.986C83.2494 122.028 83.0961 121.982 83.0081 121.864C81.7814 120.227 80.0988 119.02 78.9841 118.332C80.3201 120.567 82.9161 125.632 82.2508 130.291C82.2321 130.416 82.1454 130.523 82.0254 130.566C81.9068 130.608 81.7708 130.58 81.6774 130.494C81.0121 129.876 80.3628 129.796 79.9748 129.819C80.1948 130.423 80.6014 131.627 80.7894 132.76C80.8214 132.947 80.6948 133.124 80.5081 133.155C80.4894 133.159 80.4694 133.16 80.4508 133.16Z" fill="black"/>
<path d="M29.2101 128.869C29.0767 128.869 28.9501 128.79 28.8941 128.661C28.8661 128.594 28.2754 127.2 28.1847 125.722C27.6607 126.201 27.0781 127.084 26.7647 127.66C26.7034 127.773 26.5861 127.84 26.4487 127.838C26.3181 127.833 26.2021 127.753 26.1487 127.633C26.0887 127.494 24.7274 124.353 24.7327 120.994C24.4167 121.289 24.0621 121.864 23.8594 122.314C23.7807 122.488 23.5767 122.565 23.4047 122.488C23.2327 122.409 23.1541 122.206 23.2327 122.033C23.3767 121.712 24.1434 120.113 25.0901 120.113C25.1834 120.113 25.2741 120.153 25.3394 120.22C25.4034 120.288 25.4381 120.38 25.4327 120.474C25.3101 122.997 26.1047 125.554 26.5261 126.714C26.9567 126.037 27.6927 125.029 28.4061 124.769C28.5154 124.733 28.6354 124.748 28.7274 124.817C28.8207 124.885 28.8727 124.996 28.8661 125.11C28.7847 126.64 29.5181 128.373 29.5261 128.39C29.6007 128.565 29.5194 128.766 29.3447 128.841C29.3007 128.86 29.2554 128.869 29.2101 128.869Z" fill="black"/>
<path d="M34.017 151.871C33.9037 151.871 33.7904 151.834 33.6957 151.758C30.5104 149.211 24.609 150.975 24.5504 150.994C24.277 151.079 23.989 150.923 23.9064 150.651C23.8237 150.379 23.977 150.091 24.249 150.009C24.5117 149.927 30.7357 148.07 34.3384 150.955C34.561 151.133 34.597 151.457 34.4184 151.678C34.317 151.806 34.1677 151.871 34.017 151.871Z" fill="black"/>
<path d="M51.0983 155.991C50.9356 155.991 50.7743 155.915 50.6743 155.771C50.5116 155.536 50.5703 155.216 50.8036 155.054C52.5196 153.86 58.6863 151.234 64.3263 154.695C64.5689 154.843 64.6449 155.16 64.4956 155.403C64.3476 155.646 64.0329 155.723 63.7889 155.572C58.6156 152.399 52.9636 154.806 51.3916 155.899C51.3023 155.962 51.1996 155.991 51.0983 155.991Z" fill="black"/>
<path d="M100.278 135.048C100.179 135.048 100.08 135.02 99.9938 134.961C97.6405 133.393 92.8152 134.592 92.7658 134.604C92.4885 134.675 92.2098 134.507 92.1405 134.231C92.0698 133.955 92.2365 133.675 92.5125 133.605C92.7272 133.551 97.8298 132.28 100.564 134.105C100.8 134.263 100.864 134.581 100.707 134.819C100.608 134.968 100.444 135.048 100.278 135.048Z" fill="black"/>
<path d="M118.905 141.142C118.717 141.142 118.535 141.04 118.445 140.861C118.317 140.608 118.417 140.298 118.67 140.169C118.865 140.072 123.49 137.774 129.127 139.888C129.393 139.989 129.527 140.285 129.429 140.552C129.329 140.818 129.031 140.952 128.766 140.853C123.562 138.9 119.181 141.064 119.137 141.088C119.062 141.125 118.983 141.142 118.905 141.142Z" fill="black"/>
<path d="M110.063 108.183C109.892 108.183 109.744 108.055 109.723 107.881C108.353 96.6755 112.367 87.0315 112.408 86.9341C112.483 86.7608 112.685 86.6808 112.857 86.7528C113.032 86.8261 113.115 87.0288 113.04 87.2021C113 87.2968 109.059 96.7808 110.404 107.798C110.427 107.986 110.293 108.158 110.104 108.181C110.091 108.182 110.076 108.183 110.063 108.183Z" fill="black"/>
<path d="M94.2772 148.635C93.6625 148.635 93.0638 148.566 92.5132 148.422C92.3198 148.371 92.1718 148.212 92.1372 148.015C92.0372 147.47 92.1998 146.746 92.3972 146.136C91.8612 146.452 91.1505 146.978 90.3585 147.839C90.2492 147.958 90.0918 148.018 89.9305 148.003C89.7692 147.987 89.6265 147.899 89.5412 147.762C89.1198 147.079 88.9318 145.938 88.8465 145.023C88.5478 145.434 88.1985 145.954 87.8492 146.554C87.7358 146.751 87.5038 146.851 87.2838 146.796C87.2198 146.782 85.7132 146.412 84.6105 145.59C84.4558 145.474 84.3785 145.282 84.4105 145.092C84.6732 143.527 85.8332 142.176 86.8225 141.279C86.4732 141.332 86.0705 141.399 85.6065 141.482C85.4212 141.512 85.2345 141.444 85.1172 141.299C84.9985 141.155 84.9678 140.958 85.0372 140.783C85.8572 138.726 87.4145 137.44 88.6798 136.55C89.0985 136.251 89.5198 135.972 89.9238 135.706C90.9358 135.038 91.8092 134.462 92.2078 133.832C92.4198 133.498 92.8212 132.176 91.9838 127.155C91.8958 126.623 91.7998 126.106 91.7118 125.642C91.6585 125.363 91.8412 125.092 92.1212 125.04C92.3945 124.99 92.6692 125.168 92.7238 125.448C92.8132 125.919 92.9105 126.446 92.9998 126.984C93.9918 132.935 93.3052 134.024 93.0785 134.383C92.5598 135.199 91.6012 135.832 90.4918 136.564C90.0985 136.824 89.6865 137.096 89.2758 137.39C88.3185 138.063 87.1838 138.976 86.4158 140.3C87.9052 140.066 88.5412 140.048 88.5732 140.047C88.7972 140.055 89.0105 140.192 89.0772 140.414C89.1438 140.635 89.0545 140.874 88.8585 140.998C88.8305 141.016 86.0825 142.771 85.4945 144.948C86.0812 145.318 86.7585 145.564 87.1638 145.692C88.0532 144.231 88.8758 143.326 88.9118 143.284C89.0558 143.127 89.2812 143.075 89.4785 143.152C89.6772 143.228 89.8078 143.419 89.8078 143.632C89.8078 144.204 89.8772 145.614 90.1545 146.576C91.8705 144.93 93.1785 144.68 93.2385 144.67C93.4265 144.636 93.6212 144.711 93.7385 144.864C93.8558 145.018 93.8772 145.224 93.7945 145.398C93.5398 145.934 93.1878 146.879 93.1398 147.507C94.8518 147.826 96.9785 147.387 98.4438 146.386C98.7905 146.147 99.4705 145.748 100.332 145.244C102.068 144.23 105.299 142.339 105.663 141.67C106.003 141.006 106.247 134.987 106.288 129.552C106.288 129.512 106.293 129.472 106.301 129.434C106.309 129.403 107.069 126.262 107.324 124.746C107.392 124.32 107.235 122.711 107.181 122.183C107.089 121.274 106.967 120.204 106.836 119.068C106.519 116.302 106.157 113.166 106.075 110.898C106.064 110.614 106.287 110.374 106.571 110.364C106.875 110.35 107.093 110.576 107.104 110.859C107.185 113.087 107.543 116.203 107.86 118.951C107.991 120.091 108.115 121.164 108.207 122.08C108.365 123.694 108.405 124.515 108.34 124.912C108.096 126.371 107.427 129.167 107.317 129.619C107.301 131.648 107.196 141.006 106.568 142.16C106.104 143.015 103.807 144.406 100.852 146.134C100.043 146.608 99.3425 147.018 99.0252 147.235C97.7132 148.132 95.9332 148.635 94.2772 148.635Z" fill="black"/>
<path d="M133.898 75.2318C134.187 74.8318 134.806 74.1384 135.832 73.7278C135.976 73.6704 136.087 73.5518 136.132 73.4038C136.179 73.2571 136.156 73.0958 136.071 72.9664C134.618 70.7598 131.404 69.0331 129.587 68.1864C130.188 67.8984 130.847 67.4211 131.286 66.6331C131.37 66.4798 131.371 66.2931 131.287 66.1384C131.203 65.9824 131.046 65.8824 130.871 65.8691C128.739 65.7211 125.103 64.5078 122.707 62.7331C121.506 61.8544 120.794 60.9344 120.703 60.1451C120.411 57.5878 122.539 55.3718 125.763 54.8758C125.922 54.8518 126.059 54.7544 126.136 54.6144C126.214 54.4744 126.22 54.3064 126.156 54.1598C125.788 53.3211 124.967 52.7184 124.267 52.3344C125.238 51.9944 126.51 51.6544 127.319 51.7851C127.463 51.8051 127.608 51.7704 127.72 51.6811C127.834 51.5918 127.904 51.4584 127.915 51.3158C127.982 50.4171 127.796 49.3864 127.698 48.9198C128.49 47.8944 131.702 43.2891 129.77 38.3064C128.598 35.2784 126.208 33.2291 123.042 32.5358C119.851 31.8371 116.192 32.6318 114.34 34.4278C114.2 34.5624 114.15 34.7664 114.208 34.9518C114.266 35.1384 114.424 35.2744 114.616 35.3051C116.074 35.5411 117.011 36.0344 117.584 36.4691C115.966 36.5424 113.294 37.1384 112.158 40.1064C112.087 40.2904 112.127 40.4984 112.263 40.6424C112.398 40.7864 112.604 40.8398 112.79 40.7838C117.264 39.4064 118.611 40.1758 119.592 40.7371C120.478 41.2438 121.915 43.7251 121.398 47.4291C121.062 49.8424 119.742 54.1678 114.682 56.2238C107.715 53.9718 99.4069 54.3064 93.6402 54.9878C90.1736 55.3984 87.8296 55.9184 87.8069 55.9238C87.5282 55.9864 87.3536 56.2611 87.4162 56.5384C87.4789 56.8171 87.7562 56.9891 88.0309 56.9291C88.0536 56.9238 90.3509 56.4144 93.7616 56.0118C99.4736 55.3358 107.715 55.0038 114.538 57.2598C114.65 57.2971 114.774 57.2918 114.886 57.2504C120.575 55.0331 122.047 50.2344 122.419 47.5718C122.936 43.8584 121.648 40.7264 120.104 39.8438C118.852 39.1278 117.312 38.5238 113.638 39.4718C115.31 37.0118 118.58 37.5118 118.735 37.5371C118.927 37.5664 119.124 37.4878 119.239 37.3264C119.352 37.1651 119.364 36.9531 119.27 36.7811C119.232 36.7118 118.406 35.2544 115.891 34.5344C117.487 33.5584 120.138 32.9558 122.82 33.5411C124.815 33.9784 127.471 35.2238 128.81 38.6771C130.732 43.6371 126.787 48.4118 126.747 48.4598C126.64 48.5851 126.6 48.7558 126.64 48.9158C126.643 48.9264 126.867 49.8371 126.896 50.7278C125.148 50.7451 122.834 51.7891 122.726 51.8384C122.531 51.9264 122.412 52.1238 122.424 52.3358C122.436 52.5491 122.578 52.7318 122.78 52.7971C123.202 52.9331 124.211 53.3704 124.823 54.0118C121.478 54.8224 119.348 57.3544 119.68 60.2624C119.806 61.3571 120.642 62.4984 122.096 63.5624C124.151 65.0838 127.322 66.3824 129.856 66.7864C129.08 67.4758 128.052 67.5864 128.042 67.5864C127.803 67.6091 127.611 67.7918 127.578 68.0291C127.544 68.2664 127.679 68.4944 127.903 68.5811C127.954 68.5998 132.743 70.4678 134.855 73.0518C133.41 73.8424 132.806 75.0238 132.778 75.0798C132.675 75.2851 132.72 75.5331 132.89 75.6891C132.96 75.7544 139.694 82.0491 139.624 90.8291C137.826 89.7731 136.028 89.8958 135.946 89.9024C135.763 89.9171 135.602 90.0251 135.522 90.1891C135.442 90.3544 135.455 90.5478 135.555 90.6998C135.596 90.7611 139.471 96.6838 138.996 101.397C137.626 100.966 136.416 100.892 136.358 100.889C136.166 100.869 135.983 100.974 135.884 101.14C135.787 101.305 135.788 101.512 135.891 101.676C135.908 101.701 137.53 104.329 137.53 106.552C137.53 106.704 137.51 106.926 137.479 107.209C137.392 107.961 137.203 109.161 136.963 110.68C135.93 117.209 133.783 130.778 134.095 146.273C133.052 148.557 131.419 150.264 130.774 150.884L128.36 149.376C128.166 149.253 127.914 149.274 127.743 149.429C127.678 149.488 126.28 150.754 125.47 152.188C125.015 151.765 124.454 150.812 124.1 149.957C124.038 149.808 123.91 149.696 123.752 149.656C123.596 149.616 123.428 149.652 123.302 149.753C123.223 149.817 121.622 151.11 120.399 152.298C120.279 151.594 120.292 150.569 120.362 149.862C120.382 149.65 120.271 149.448 120.08 149.352C119.89 149.256 119.66 149.288 119.502 149.43C119.486 149.445 118 150.794 116.775 151.861C116.254 151.226 115.967 150.145 115.892 149.724C115.87 149.588 115.794 149.469 115.68 149.39C115.568 149.312 115.431 149.282 115.295 149.305C115.212 149.32 113.583 149.61 112.222 150.061C112.792 147.717 115.692 145.654 115.987 145.45C116.006 145.44 116.015 145.418 116.032 145.405C116.066 145.377 116.098 145.349 116.123 145.314C116.15 145.28 116.171 145.245 116.188 145.205C116.198 145.182 116.202 145.161 116.207 145.137C116.219 145.093 116.243 145.053 116.243 145.005C116.243 144.857 116.172 144.729 116.067 144.638C116.046 144.618 116.019 144.606 115.995 144.59C115.979 144.581 115.963 144.569 115.944 144.561C115.908 144.542 115.871 144.528 115.832 144.518C115.826 144.517 115.819 144.517 115.814 144.516C115.756 144.505 115.699 144.502 115.64 144.51C115.6 144.516 115.562 144.525 115.523 144.54C115.515 144.544 115.506 144.542 115.496 144.546C115.415 144.584 114.81 144.853 113.704 145.002C114.406 143.993 115.228 143.218 116.338 142.505C117.254 141.91 118.408 141.34 119.867 140.76C120.002 140.706 120.107 140.6 120.158 140.465C121.123 137.932 118.899 119.869 118.643 117.818C118.618 117.61 118.467 117.438 118.264 117.385C118.063 117.33 117.847 117.404 117.72 117.573C117.667 117.644 116.628 119.033 115.778 120.492C115.134 118.21 115.611 113.841 115.894 112.13C115.931 111.902 115.814 111.68 115.607 111.581C115.399 111.484 115.151 111.533 114.999 111.705C114.936 111.776 113.807 113.058 112.916 114.368C112.82 113.149 112.918 111.584 113.208 109.809C113.347 108.968 113.482 108.393 113.483 108.386C113.536 108.162 113.434 107.93 113.232 107.82C113.032 107.706 112.78 107.742 112.618 107.905C112.568 107.954 111.664 108.87 111.119 109.937C110.931 109.516 110.722 108.842 110.552 107.768C110.446 107.058 110.406 106.522 110.404 106.514C110.388 106.297 110.238 106.113 110.028 106.056C109.816 105.998 109.594 106.078 109.47 106.257C109.458 106.274 108.246 108.006 106.188 110.554C104.642 112.472 103.03 114.344 101.396 116.118C98.2069 119.584 95.0096 122.62 91.8936 125.145C87.8496 128.414 83.9336 130.836 80.2536 132.34C80.0229 132.434 79.8936 132.68 79.9442 132.924C79.9469 132.933 80.1482 133.888 80.3069 135.314C80.4936 136.906 80.6362 139.15 80.3749 141.364C79.5362 140.654 78.4842 140.398 78.4242 140.384C78.2402 140.341 78.0496 140.401 77.9229 140.541C77.7962 140.681 77.7576 140.878 77.8202 141.056C77.8336 141.096 79.0296 144.58 78.3336 148.412C77.5496 146.266 76.1056 144.397 75.8349 144.058C75.8096 144.016 75.7776 143.976 75.7389 143.942L75.7322 143.936C75.7176 143.922 75.6989 143.918 75.6842 143.908C75.6802 143.905 75.6776 143.904 75.6736 143.901C75.4656 143.758 75.1829 143.784 75.0082 143.977C74.9922 143.994 74.9882 144.018 74.9749 144.038C74.9656 144.052 74.9602 144.066 74.9522 144.08C74.9269 144.125 74.9042 144.169 74.8936 144.218C74.8869 144.253 74.8909 144.288 74.8896 144.324C74.8896 144.353 74.8589 144.382 74.8642 144.412C74.8656 144.414 74.8469 144.417 74.8469 144.42V144.434L74.9016 144.589C74.9576 144.84 75.0856 145.372 75.2282 146.098C75.6749 148.412 76.5976 154.013 75.8602 157.74C74.4349 157.458 72.9749 158.249 72.9042 158.288C72.7149 158.392 72.6122 158.602 72.6456 158.817C72.6522 158.858 73.1882 162.472 72.4682 165.39C71.9469 164.546 71.1989 163.929 71.0736 163.829C70.9189 163.705 70.7042 163.681 70.5229 163.77C70.3429 163.86 70.2322 164.045 70.2376 164.245C70.2682 165.369 70.1189 167.226 69.7029 167.642C69.3509 167.96 66.9549 168.089 64.4042 167.933C63.9002 167.226 63.4842 165.714 63.3589 165.15C63.3136 164.946 63.1522 164.792 62.9482 164.754C62.7402 164.716 62.5362 164.806 62.4242 164.981C62.3789 165.05 61.3842 166.6 61.1736 168.156C60.5336 168.38 58.8749 168.829 57.4456 168.121C56.7389 167.117 56.5016 165.546 56.4989 165.53C56.4749 165.36 56.3656 165.212 56.2082 165.138C56.0522 165.065 55.8696 165.076 55.7202 165.166C55.6469 165.21 53.9482 166.274 53.6082 168.18C53.1322 168.329 51.2629 167.916 49.4162 167.253C49.1536 166.626 48.3962 164.226 50.5749 161.092C50.7096 160.9 50.6976 160.644 50.5456 160.465C50.3949 160.286 50.1442 160.232 49.9336 160.332C49.1456 160.704 48.2562 160.441 47.7509 160.225C48.2309 159.341 49.6282 157.172 52.7856 154.766C52.8109 154.748 52.8349 154.726 52.8562 154.702C54.3829 153.017 55.0576 146.172 55.1282 145.396C55.1442 145.229 55.0776 145.065 54.9496 144.956C54.8216 144.849 54.6522 144.809 54.4869 144.85C54.4749 144.854 53.4349 145.117 52.3389 144.986C53.1296 143.301 53.6816 140.02 53.7509 139.594C53.7882 139.372 53.6736 139.15 53.4709 139.05C53.2669 138.949 53.0229 138.994 52.8682 139.16C52.8602 139.169 52.2469 139.801 51.5162 140.026C52.0002 139.212 52.4309 138.085 52.8002 136.662C53.4829 134.078 53.7442 131.433 53.7562 131.322C53.7762 131.118 53.6736 130.924 53.4962 130.822C53.3189 130.724 53.0976 130.737 52.9349 130.86C52.6109 131.101 51.7949 131.633 50.9882 131.926C51.8749 128.928 50.7042 124.798 50.6482 124.605C50.5856 124.392 50.3949 124.242 50.1722 124.234C49.9562 124.228 49.7496 124.36 49.6709 124.568C49.3722 125.365 48.8056 126.461 48.2616 127.013C47.5336 124.913 44.9762 124.492 43.5962 124.578C43.4416 124.589 43.3002 124.668 43.2109 124.793C43.1216 124.918 43.0922 125.078 43.1336 125.228C43.1482 125.28 44.4296 130.084 43.7589 134.544C42.9362 133.422 41.8522 132.897 41.7909 132.866C41.6042 132.78 41.3816 132.81 41.2269 132.949C41.0709 133.088 41.0149 133.305 41.0829 133.501C41.0949 133.536 42.2949 137.013 43.0002 140.72C43.3389 142.505 43.5069 144.046 43.5042 145.32C42.3816 144.656 41.2069 144.83 41.1456 144.84C40.9896 144.865 40.8522 144.961 40.7762 145.1C40.6989 145.238 40.6909 145.405 40.7522 145.55C41.6096 147.565 43.6349 152.926 43.6189 155.504C42.8242 155.201 42.3429 155.14 42.3176 155.137C42.1802 155.117 42.0296 155.164 41.9189 155.26C41.8082 155.354 41.7442 155.492 41.7416 155.637C41.7389 155.786 41.6762 158.988 41.9882 161.266C41.4122 161.11 40.6389 160.701 40.1389 160.369C39.9869 160.269 39.7936 160.256 39.6309 160.333C39.4669 160.412 39.3576 160.57 39.3402 160.752C39.3242 160.93 39.2122 162.308 39.5376 163.316C37.6576 164.232 34.3482 164.634 33.4909 164.728C33.0749 164.277 32.8456 162.997 32.8149 162.153C32.8082 161.97 32.7056 161.805 32.5456 161.718C32.3842 161.632 32.1909 161.636 32.0362 161.73C31.9629 161.774 30.3976 162.728 30.1136 164.137C28.4469 164.425 26.8309 164.498 26.5722 164.326C26.3122 163.854 26.2616 162.557 26.2922 161.849C26.2989 161.664 26.2069 161.489 26.0482 161.39C25.8909 161.293 25.6922 161.176 25.5309 161.265C25.4522 161.308 23.6789 162.52 22.7136 163.853H22.6669C21.3962 163.853 18.9616 163.381 17.7122 163.042C17.8389 159.71 20.6136 157.02 20.6429 156.99C20.7682 156.869 20.8229 156.718 20.7882 156.548C20.7202 156.213 20.5096 155.981 20.2109 155.886C19.5882 155.685 18.5696 156.309 17.6469 157.033C18.0616 155.994 18.8349 154.606 20.2482 153.358C21.4162 152.314 22.8642 151.518 24.5509 150.988C24.6829 150.946 24.7922 150.854 24.8549 150.732C24.9176 150.608 24.9282 150.465 24.8842 150.334C24.5949 149.472 23.6869 149.365 22.9242 149.441C23.3429 148.724 24.0776 147.706 25.2189 146.885C25.3536 146.789 25.5522 146.633 25.5522 146.468C25.5522 146.054 25.5136 145.088 25.5136 143.136V143.134V143.129C24.1802 135.204 23.6429 116.34 23.6296 116.15C23.6176 115.969 23.4496 115.808 23.2856 115.725C23.1256 115.645 22.9002 115.654 22.7456 115.754C22.6802 115.797 21.3922 116.629 20.2442 117.972C20.2016 114.902 22.3029 111.048 22.3282 111.004C22.4256 110.829 22.4069 110.612 22.2882 110.45C22.1696 110.288 21.9696 110.206 21.7682 110.25C21.6802 110.268 19.8789 110.646 18.1482 111.841C18.2522 106.014 19.4709 100.176 21.7776 94.4678C22.7522 92.0544 23.9029 89.7198 25.1976 87.5264C25.3416 87.2811 25.2602 86.9651 25.0149 86.8198C24.7682 86.6771 24.4536 86.7571 24.3096 87.0024C22.9896 89.2398 21.8162 91.6224 20.8216 94.0824C18.3242 100.261 17.0762 106.596 17.1109 112.908C17.1122 113.11 17.2322 113.293 17.4176 113.374C17.6029 113.458 17.8189 113.422 17.9696 113.288C18.9322 112.425 20.0616 111.894 20.8749 111.593C20.0656 113.34 18.7136 116.818 19.3789 119.425C19.4309 119.622 19.5936 119.773 19.7962 119.805C19.9976 119.84 20.2016 119.749 20.3109 119.576C20.9896 118.525 21.8789 117.676 22.5136 117.161C22.7842 121.092 22.8469 136.289 24.1802 143.186V143.189V143.194C24.1802 144.353 24.3482 145.582 24.3669 146.212C22.2976 147.801 21.5269 149.893 21.4936 149.984C21.4256 150.17 21.4776 150.378 21.6162 150.52C21.7522 150.662 21.9629 150.713 22.1522 150.65C22.3936 150.57 22.6869 150.505 22.9629 150.474C21.6709 151.017 20.5322 151.726 19.5642 152.59C16.5816 155.225 16.1816 158.374 16.1656 158.506C16.1416 158.722 16.2536 158.93 16.4469 159.026C16.6429 159.125 16.8749 159.089 17.0336 158.94C17.7256 158.284 18.4776 157.682 19.0536 157.301C18.0696 158.556 16.6162 160.872 16.6789 163.556C16.6842 163.782 16.8362 163.977 17.0522 164.04C17.2282 164.09 21.3709 165.26 23.0842 165.086C23.2589 165.069 23.4122 164.962 23.4909 164.805C23.9336 163.92 24.6936 163.224 25.2656 162.789C25.2949 163.462 25.3909 164.317 25.6696 164.822C26.1696 165.734 28.6709 165.466 30.6816 165.081C30.9242 165.034 31.0989 164.821 31.0989 164.574C31.0989 164.045 31.4816 163.532 31.8762 163.154C32.0042 164.033 32.3136 165.221 33.0522 165.694C33.1482 165.756 33.2629 165.78 33.3762 165.774C33.5736 165.756 38.2442 165.322 40.4616 163.985C40.7056 163.838 40.7842 163.524 40.6389 163.28C40.4349 162.94 40.3549 162.286 40.3416 161.688C41.0229 162.052 41.9936 162.461 42.6922 162.334C42.8282 162.31 42.9469 162.232 43.0242 162.12C43.1016 162.005 43.1322 161.866 43.1056 161.732C42.7949 160.108 42.7629 157.498 42.7656 156.3C43.0416 156.384 43.4069 156.516 43.8442 156.72C43.9856 156.786 44.1509 156.784 44.2922 156.713C44.4336 156.644 44.5336 156.512 44.5656 156.358C45.0869 153.884 42.8349 147.946 41.9976 145.869C42.4669 145.934 43.0869 146.14 43.5829 146.714C43.7176 146.87 43.9309 146.932 44.1309 146.869C44.3282 146.805 44.4682 146.63 44.4856 146.424C44.6229 144.893 44.4629 142.909 44.0122 140.528C43.5829 138.274 42.9749 136.104 42.5522 134.71C42.9202 135.094 43.2816 135.6 43.4816 136.234C43.5509 136.453 43.7376 136.572 43.9856 136.593C44.2162 136.586 44.4136 136.43 44.4709 136.208C45.5456 132.069 44.6749 127.329 44.2869 125.613C45.2989 125.677 47.1989 126.048 47.4096 127.897C47.4269 128.048 47.5096 128.184 47.6349 128.268C47.7602 128.35 47.9176 128.377 48.0629 128.333C48.8562 128.108 49.5242 127.182 49.9856 126.342C50.2936 127.993 50.5842 130.685 49.6949 132.409C49.6096 132.574 49.6202 132.772 49.7229 132.928C49.8229 133.082 50.0042 133.17 50.1856 133.158C51.0189 133.105 51.9336 132.68 52.5989 132.3C52.4602 133.306 52.2056 134.881 51.8042 136.402C51.3296 138.232 50.7482 139.54 50.1269 140.184C50.0029 140.312 49.9536 140.496 49.9976 140.668C50.0416 140.841 50.1709 140.978 50.3416 141.033C51.1376 141.285 51.9042 141.044 52.4976 140.717C52.1522 142.416 51.6229 144.437 51.1336 145.016C51.0202 145.149 50.9829 145.33 51.0336 145.497C51.0829 145.664 51.2149 145.794 51.3829 145.844C52.3536 146.125 53.3749 146.069 54.0336 145.98C53.7749 148.317 53.0976 152.828 52.1216 153.978C47.7989 157.282 46.6322 160.145 46.5842 160.265C46.4936 160.496 46.5789 160.758 46.7896 160.89C46.8456 160.926 47.8536 161.581 49.0829 161.549C47.1096 165.181 48.5242 167.796 48.5922 167.916C48.6522 168.022 48.7469 168.105 48.8629 168.148C50.1269 168.614 53.1776 169.637 54.1856 169.045C54.4202 168.906 54.5709 168.688 54.6109 168.429C54.7389 167.59 55.2442 166.941 55.6616 166.533C55.8362 167.201 56.1549 168.129 56.6922 168.834C56.7376 168.893 56.7936 168.941 56.8576 168.976C57.6349 169.394 58.4562 169.533 59.2029 169.533C60.6322 169.533 61.7922 169.025 61.8642 168.992C62.0402 168.914 62.1576 168.745 62.1682 168.552C62.2056 167.902 62.4522 167.204 62.7042 166.642C62.9469 167.39 63.3069 168.277 63.7669 168.781C63.8549 168.878 63.9802 168.938 64.1122 168.948C65.7296 169.053 69.5869 169.214 70.4309 168.372C70.9962 167.805 71.1869 166.476 71.2456 165.453C71.6189 165.909 71.9549 166.468 71.9549 166.978C71.9549 167.22 72.1229 167.429 72.3589 167.481C72.5976 167.532 72.8362 167.413 72.9376 167.193C74.2256 164.393 73.8696 160.313 73.7162 159.044C74.2176 158.834 75.2269 158.51 76.0376 158.866C76.1762 158.928 76.3349 158.925 76.4709 158.857C76.6069 158.792 76.7069 158.669 76.7442 158.522C77.6242 155.077 76.9802 149.969 76.4069 146.752C77.0402 147.853 77.6749 149.24 77.7922 150.545C77.8149 150.785 78.0002 150.977 78.2389 151.009C78.2616 151.012 78.2842 151.013 78.3056 151.013C78.5202 151.013 78.7149 150.88 78.7896 150.674C80.0949 147.084 79.5042 143.454 79.0842 141.736C79.5242 141.964 80.0082 142.313 80.2416 142.818C80.3349 143.021 80.5442 143.145 80.7722 143.113C80.9949 143.085 81.1736 142.917 81.2149 142.697C81.7202 140.008 81.5562 137.133 81.3309 135.197C81.2282 134.278 81.1096 133.556 81.0336 133.13C84.6909 131.58 88.5602 129.165 92.5429 125.946C95.6976 123.389 98.9309 120.317 102.155 116.817C103.803 115.025 105.419 113.136 106.98 111.202C108.087 109.829 109.514 108.69 109.514 107.921V107.924C110.847 109.808 110.288 110.956 110.955 111.433C111.096 111.536 111.287 111.56 111.448 111.494C111.611 111.432 111.732 111.289 111.767 111.118C111.82 110.858 111.94 110.578 112.09 110.301C111.836 112.097 111.684 114.342 112.143 115.962C112.2 116.166 112.378 116.316 112.59 116.336C112.8 116.354 113.003 116.244 113.099 116.053C113.454 115.348 114.082 114.476 114.639 113.761C114.382 116.138 114.148 120.214 115.3 121.944C115.402 122.097 115.574 122.178 115.76 122.173C115.943 122.162 116.106 122.053 116.19 121.889C116.635 120.997 117.28 119.997 117.783 119.262C118.711 126.934 119.748 137.689 119.254 139.896C117.839 140.47 116.7 141.041 115.779 141.64C114.228 142.637 113.18 143.746 112.272 145.349C112.18 145.512 112.184 145.712 112.282 145.87C112.378 146.03 112.559 146.116 112.742 146.117C113.08 146.104 113.383 146.074 113.668 146.04C112.463 147.205 111.094 148.942 111.094 150.842C111.094 151.016 111.182 151.178 111.327 151.273C111.474 151.368 111.656 151.384 111.816 151.313C112.755 150.9 114.235 150.566 114.992 150.413C115.176 151.116 115.604 152.34 116.45 152.972C116.643 153.114 116.911 153.108 117.095 152.949C117.791 152.348 118.642 151.59 119.275 151.022C119.275 151.889 119.367 152.676 119.768 153.253C119.858 153.381 120 153.186 120.155 153.186H120.191C120.334 153.186 120.471 153.414 120.568 153.309C121.384 152.433 122.708 151.44 123.434 150.836C123.854 151.688 124.646 153.104 125.562 153.329C125.808 153.392 126.054 153.302 126.155 153.074C126.628 152.01 127.658 150.933 128.155 150.442L130.562 151.956C130.752 152.074 130.999 152.062 131.17 151.914C131.272 151.828 133.678 149.745 135.082 146.586C135.112 146.517 135.128 146.442 135.126 146.366C134.804 130.916 136.95 117.357 137.98 110.84C138.222 109.309 138.414 108.1 138.502 107.322C138.539 106.989 138.559 106.73 138.559 106.552C138.559 104.878 137.802 103.089 137.27 102.041C137.815 102.134 138.527 102.297 139.232 102.569C139.375 102.625 139.535 102.613 139.668 102.538C139.802 102.464 139.895 102.334 139.923 102.184C140.706 98.0104 138.096 92.9611 136.936 90.9784C137.687 91.0824 138.787 91.3771 139.779 92.1891C139.93 92.3118 140.136 92.3384 140.311 92.2611C140.487 92.1838 140.607 92.0144 140.619 91.8224C141.167 83.0931 135.344 76.6824 133.898 75.2318Z" fill="black"/>
<path d="M40.4713 6.64804C40.3553 6.4467 40.1166 6.3467 39.8926 6.40804C39.6673 6.46804 39.5113 6.67204 39.51 6.90537C39.51 6.93471 39.4806 9.68271 37.7473 10.184C32.2873 -1.12529 17.97 0.277372 17.8246 0.296039C17.6286 0.317372 17.4606 0.449373 17.394 0.637373C17.3286 0.824039 17.3766 1.03204 17.5166 1.17204C18.246 1.90137 19.902 3.77204 20.5406 5.26537C16.7846 3.55737 11.754 5.38937 11.522 5.4747C11.334 5.54537 11.2046 5.71604 11.1873 5.91471C11.1713 6.11471 11.2713 6.30404 11.4446 6.40404C11.4846 6.42804 15.438 8.70937 17.2833 10.3694C13.362 9.99737 11.0873 12.36 10.982 12.4707C10.862 12.5987 10.8153 12.7774 10.8566 12.948C10.8993 13.1174 11.0246 13.2547 11.19 13.3107C12.954 13.9174 14.8726 14.6854 15.8126 15.2854C5.1553 14.7934 0.420631 25.1934 0.420631 25.6534V25.6547C0.420631 25.8507 0.0832964 26.0947 0.241963 26.2534C0.429963 26.4414 0.575298 26.4614 0.775298 26.3014C0.780632 26.2987 0.720631 26.296 0.725964 26.292C0.735297 26.284 0.713963 26.2814 0.723296 26.272C1.55796 25.668 8.40463 20.7907 13.5406 21.0067C4.04596 26.5467 2.96597 36.0187 2.9553 36.1174C2.9353 36.324 3.0353 36.5214 3.2153 36.6214C3.39796 36.7214 3.61796 36.7027 3.78063 36.5747C7.04063 34.0107 12.4233 30.4387 15.4326 29.7707C4.89663 36.7494 5.0033 49.776 5.00596 49.9134C5.00996 50.1467 5.1713 50.348 5.39796 50.404C5.4393 50.4147 5.48063 50.4187 5.52063 50.4187C5.70596 50.4187 5.88063 50.3187 5.97263 50.1507C6.0353 50.036 11.6793 39.7854 16.3886 37.228C14.502 40.0694 14.286 43.1947 14.2766 43.348C14.2646 43.552 14.3726 43.744 14.554 43.8374C14.7353 43.932 14.954 43.9094 15.1126 43.7827C16.8793 42.3654 22.0406 38.752 24.6833 39.0854C24.9633 39.1267 25.222 38.92 25.258 38.6374C25.2926 38.3547 25.0926 38.0974 24.81 38.0627C22.0113 37.7134 17.4953 40.7334 15.4833 42.2067C15.7686 40.7907 16.4873 38.3987 18.2553 36.5227C18.4046 36.3654 18.438 36.1294 18.3393 35.936C18.2393 35.7414 18.0366 35.6307 17.814 35.66C13.5953 36.2134 8.41796 44.028 6.17796 47.7414C6.65263 43.62 8.69396 34.6 17.4433 29.7547C17.6153 29.6587 17.7193 29.4734 17.7073 29.276C17.698 29.0787 17.5753 28.9054 17.394 28.8294C14.482 27.6014 7.09796 32.7867 4.21663 34.9427C4.89796 32.1 7.32996 25.1987 15.3633 21.1814C15.5553 21.0854 15.6673 20.8814 15.646 20.6694C15.6246 20.456 15.474 20.2787 15.2673 20.2227C10.9126 19.056 4.86196 22.3467 1.8473 24.2547C3.78063 21.168 8.56463 15.3654 16.786 16.4254C16.9486 16.4467 17.114 16.3854 17.2273 16.2654C17.3406 16.1427 17.3873 15.9747 17.3553 15.812C17.1086 14.5947 14.2393 13.3374 12.374 12.6427C13.3633 11.9374 15.458 10.876 18.4446 11.608C18.6313 11.656 18.8273 11.592 18.954 11.448C19.0806 11.3027 19.1166 11.1 19.0473 10.9214C18.9246 10.6067 18.662 10.2587 18.2473 9.86004C16.962 8.60537 14.3953 6.97737 12.9673 6.11071C14.8033 5.62671 18.554 4.96271 21.014 6.72004C21.1726 6.83337 21.378 6.84671 21.55 6.75871C21.7206 6.67071 21.8286 6.49337 21.8286 6.30137C21.8286 4.67337 20.0806 2.46137 19.014 1.26404C22.3913 1.19337 32.786 1.75337 36.9806 10.9774C37.0726 11.1774 37.2833 11.2934 37.502 11.276C39.082 11.116 39.898 9.88537 40.2713 8.66004C41.3713 11.3907 43.166 17.5934 40.8166 25.1134C40.7326 25.384 40.8846 25.6734 41.1553 25.7587C41.426 25.8414 41.7153 25.692 41.8006 25.42C45.098 14.8614 40.662 6.9787 40.4713 6.64804Z" fill="black"/>
<path d="M14.7908 81.1868C14.5094 81.1868 14.2788 80.9854 14.2761 80.7028C14.2721 80.4134 14.2401 73.5841 18.5428 69.1841C18.7414 68.9801 19.0681 68.9828 19.2708 69.1814C19.4734 69.3801 19.4774 69.7081 19.2788 69.9121C15.2801 74.0028 15.3041 80.6228 15.3054 80.6894C15.3094 80.9734 15.0814 81.1868 14.7961 81.1868H14.7908Z" fill="black"/>
<path d="M83.5647 118.671C82.594 113.207 78.8113 108.235 78.1607 107.966C77.898 107.858 77.5967 107.979 77.4873 108.243C77.386 108.487 77.4847 108.762 77.7087 108.888C78.2567 109.334 81.6407 113.728 82.55 118.85C82.6313 119.32 82.6913 119.775 82.7287 120.216C80.7153 118.123 78.3007 116.964 78.198 116.916C78.1273 116.879 78.0487 116.852 77.9633 116.852C77.678 116.852 77.4487 117.083 77.4487 117.367C77.4487 117.494 77.4953 117.61 77.57 117.7C78.0847 118.467 81.7487 124.138 81.4833 129.31C80.358 128.722 79.386 129.051 79.3353 129.07C79.2033 129.116 79.0967 129.215 79.038 129.343C78.9807 129.471 78.978 129.616 79.0287 129.746C79.0367 129.763 79.698 131.431 79.9407 132.9C79.982 133.152 80.2007 133.332 80.4473 133.332C80.4753 133.332 80.5033 133.33 80.5313 133.324C80.8127 133.279 81.0033 133.014 80.9567 132.734C80.79 131.719 80.45 130.65 80.2193 129.994C80.5753 130.02 81.0633 130.159 81.5607 130.62C81.702 130.75 81.9047 130.791 82.0833 130.727C82.2647 130.663 82.394 130.504 82.4207 130.314C83.03 126.038 80.9247 121.42 79.4887 118.867C80.538 119.572 81.8633 120.623 82.8713 121.968C82.9713 122.1 83.1247 122.174 83.2833 122.174C83.3367 122.174 83.3887 122.166 83.4393 122.15C83.6473 122.083 83.7927 121.892 83.798 121.674C83.826 120.714 83.75 119.732 83.5647 118.671Z" fill="black"/>
<path d="M29.2101 129.04C29.0101 129.04 28.8195 128.923 28.7355 128.728C28.7101 128.665 28.2048 127.464 28.0475 126.101C27.6288 126.568 27.1888 127.237 26.9168 127.74C26.8221 127.912 26.6648 128.016 26.4421 128.009C26.2461 128.001 26.0715 127.883 25.9915 127.703C25.9328 127.568 24.6755 124.663 24.5688 121.444C24.3781 121.697 24.1755 122.029 24.0141 122.387C23.8981 122.645 23.5928 122.761 23.3328 122.643C23.0741 122.527 22.9595 122.221 23.0768 121.961C23.2901 121.488 24.0688 119.943 25.0901 119.943C25.2315 119.943 25.3661 120 25.4635 120.101C25.5608 120.204 25.6115 120.341 25.6048 120.481C25.4941 122.759 26.1408 125.069 26.5728 126.327C27.0261 125.656 27.6835 124.849 28.3488 124.608C28.5088 124.548 28.6901 124.575 28.8301 124.677C28.9688 124.781 29.0461 124.947 29.0381 125.117C28.9621 126.604 29.6768 128.307 29.6848 128.324C29.7955 128.585 29.6728 128.888 29.4115 129C29.3461 129.027 29.2768 129.04 29.2101 129.04Z" fill="black"/>
<path d="M110.063 108.358C109.807 108.358 109.584 108.167 109.552 107.906C109.273 105.615 109.196 103.251 109.323 100.881C109.72 92.9181 112.144 87.1141 112.247 86.8714C112.359 86.6088 112.66 86.4861 112.921 86.5981C113.183 86.7088 113.305 87.0101 113.195 87.2728C113.171 87.3301 110.74 93.1608 110.352 100.934C110.227 103.246 110.303 105.55 110.575 107.781C110.609 108.063 110.408 108.321 110.127 108.354C110.104 108.358 110.084 108.358 110.063 108.358Z" fill="black"/>
<path d="M24.7608 143.68C24.4754 143.68 24.2461 143.45 24.2461 143.165C24.2461 142.881 24.4754 142.646 24.7608 142.646C25.0461 142.646 25.2754 142.873 25.2754 143.158V143.165C25.2754 143.45 25.0461 143.68 24.7608 143.68Z" fill="black"/>
<path d="M37.4098 74.1969C37.3404 74.1943 37.2711 74.1756 37.2058 74.1436C35.7658 73.4289 34.7511 72.0409 34.7098 71.9823C34.5431 71.7516 34.5938 71.4303 34.8244 71.2636C35.0538 71.0969 35.3764 71.1463 35.5431 71.3783C35.5524 71.3903 36.4564 72.6223 37.6644 73.2209C37.9178 73.3476 38.0218 73.6556 37.8964 73.9116C37.8018 74.0996 37.6084 74.2063 37.4098 74.1969Z" fill="black"/>
<path d="M56.6612 74.0115C56.4225 74.0702 56.1692 73.9502 56.0665 73.7182C55.9532 73.4582 56.0705 73.1542 56.3305 73.0395C57.9225 72.3395 58.5692 70.3649 58.5759 70.3449C58.6625 70.0742 58.9505 69.9235 59.2225 70.0102C59.4932 70.0955 59.6439 70.3835 59.5585 70.6542C59.5265 70.7542 58.7705 73.0929 56.7465 73.9822C56.7172 73.9942 56.6905 74.0049 56.6612 74.0115Z" fill="black"/>
<path d="M87.9918 28.7942C87.5438 28.7275 87.3772 29.0209 87.3358 29.1115C87.1465 29.5422 87.4132 29.7622 88.2972 30.4889C90.0318 31.9169 93.7932 35.0129 94.7385 39.0929C91.5332 35.1129 88.2145 34.2875 86.5225 33.8662C86.1798 33.7822 85.8825 33.7075 85.7185 33.6369C85.2412 33.4342 85.0185 33.7235 84.9625 33.8169C84.7198 34.2289 85.0118 34.4555 85.5425 34.8662C89.2998 37.7809 91.4705 40.5475 92.0252 43.1155C89.7785 39.9209 87.2558 38.7822 85.8038 38.1289C85.5118 37.9969 85.2665 37.8862 85.0838 37.7835C84.6465 37.5315 84.3958 37.7129 84.2838 37.8409C83.9745 38.2035 84.2038 38.4915 84.7558 39.1875C85.6798 40.3502 87.8252 43.0515 88.3718 45.9342C86.0212 41.9222 83.1625 40.2635 83.0239 40.1862C82.8132 40.0662 82.5492 40.1089 82.3865 40.2889C82.2238 40.4689 82.2092 40.7369 82.3505 40.9342C82.3812 40.9769 84.8078 44.3902 86.2012 47.8075C85.0025 46.6182 83.7212 45.8235 83.5212 45.7035C83.2745 45.4822 83.0385 45.4889 82.9065 45.5262C82.4692 45.6555 82.4145 46.0969 82.3385 46.7089C82.3305 46.7742 82.3212 46.8475 82.3105 46.9275C82.2838 46.8022 82.2425 46.6769 82.2132 46.5529C82.1238 46.1689 82.0265 45.7929 81.9185 45.4222C81.8785 45.2902 81.8385 45.1582 81.7958 45.0262C81.6505 44.5635 81.4932 44.1102 81.3212 43.6675C81.3052 43.6262 81.2945 43.5835 81.2772 43.5422C81.2745 43.5355 81.2692 43.5302 81.2665 43.5249C78.7732 37.2062 73.9665 33.1235 73.7145 32.9129C73.4972 32.7329 73.1719 32.7609 72.9879 32.9795C72.8079 33.1982 72.8372 33.5235 73.0545 33.7049C73.1145 33.7542 77.9385 37.8355 80.3585 44.0289C80.4852 44.3569 80.6038 44.6835 80.7132 45.0115C80.7398 45.0929 80.7665 45.1742 80.7932 45.2555C81.0212 45.9702 81.2078 46.6835 81.3505 47.3902C81.3692 47.4769 81.3852 47.5635 81.4012 47.6515C81.4678 48.0062 81.5278 48.3609 81.5718 48.7115C81.5918 48.8729 81.6878 49.0155 81.8292 49.0969C81.9732 49.1755 82.1452 49.1835 82.2932 49.1182C82.3372 49.0982 82.3745 49.0675 82.4145 49.0435C83.1078 48.6555 83.4425 47.7955 83.5998 47.1049C83.6838 47.1662 83.7572 47.2222 83.8518 47.2902C84.6078 47.8355 85.6478 48.5889 86.4145 49.6089C86.6825 49.9702 86.9118 50.3515 87.0785 50.7449C87.7185 54.7102 87.4172 56.3075 87.4158 56.3209C87.3705 56.5329 87.4638 56.7515 87.6492 56.8649C87.6678 56.8769 89.2918 57.8995 89.9665 60.1489C88.7972 60.0582 87.3825 60.6142 87.0358 60.7582C86.8718 60.8249 86.7558 60.9715 86.7252 61.1449C86.6945 61.3195 86.7558 61.4955 86.8865 61.6142C88.1985 62.8075 89.6972 64.3675 89.8292 64.8169C90.1105 65.7435 90.4198 67.3569 89.6852 68.5795C88.5532 67.0595 86.1345 65.3302 85.4372 64.9115C85.1345 64.7302 84.8665 64.8129 84.7172 64.9515C84.3585 65.2849 84.5172 65.6035 85.1852 66.9435C85.9092 68.3969 87.1398 70.8689 87.3998 72.9049C85.9078 71.6475 83.2972 70.3529 82.6492 70.0395C82.4412 69.9395 82.1892 69.9902 82.0358 70.1662C81.8838 70.3422 81.8678 70.5969 81.9985 70.7902C82.0265 70.8315 84.4305 74.4395 84.7052 77.5902C83.9065 76.8689 82.9878 76.5555 82.9318 76.5369C82.7558 76.4795 82.5598 76.5195 82.4225 76.6449C82.2852 76.7702 82.2252 76.9582 82.2665 77.1395C82.2758 77.1795 83.0718 80.8075 81.7385 83.5542C80.6998 82.3209 78.5372 81.4995 78.1892 81.3715C78.1798 81.3675 78.1692 81.3662 78.1598 81.3622C78.1492 81.3582 78.1385 81.3542 78.1372 81.3529C78.1292 81.3502 78.1198 81.3529 78.1118 81.3502C78.0572 81.3342 78.0025 81.3249 77.9465 81.3275C77.9318 81.3275 77.9185 81.3315 77.9052 81.3329C77.8545 81.3395 77.8052 81.3515 77.7572 81.3729C77.7425 81.3795 77.7305 81.3889 77.7158 81.3982C77.6838 81.4155 77.6492 81.4289 77.6212 81.4542C77.6118 81.4622 77.6265 81.4742 77.6185 81.4822C77.5665 81.5355 77.5132 81.5982 77.5132 81.6729V81.6795C77.5132 81.7049 77.4918 81.7289 77.4878 81.7542C77.4772 81.8155 77.4678 81.8755 77.4798 81.9355C77.4825 81.9489 77.4718 81.9622 77.4758 81.9755C77.5825 82.4569 77.9838 84.5075 77.4705 86.0009C76.5412 83.7169 73.9078 80.5515 73.5505 80.1275C73.3945 79.9422 73.1278 79.8929 72.9158 80.0035C72.7012 80.1182 72.5945 80.3649 72.6598 80.5982C73.6412 84.1209 74.9118 89.8702 74.3905 91.2662C73.8985 92.5822 72.0785 93.2782 71.1705 93.5502C70.6452 91.1809 68.4852 89.0982 68.0265 88.6769L68.0239 88.6795C68.0212 88.6769 68.0198 88.6742 68.0172 88.6715L68.0185 88.6702L68.0172 88.6715C68.0132 88.6689 68.0105 88.6635 68.0065 88.6595C67.7959 88.4702 67.4732 88.4902 67.2839 88.7009C67.1532 88.8462 67.1225 89.0449 67.1825 89.2169C67.1879 89.2369 67.1945 89.2609 67.1945 89.2622C67.9878 91.9902 68.6665 95.4249 68.2345 97.0169C67.8332 97.4249 65.8758 99.2849 62.8705 100.04C63.6838 95.7329 60.6865 90.7169 60.5492 90.4929C60.4518 90.3289 60.2705 90.2289 60.0825 90.2449C59.8932 90.2555 59.7252 90.3675 59.6439 90.5395C59.5279 90.7849 59.1612 91.4022 58.7052 91.7515C57.8585 89.4569 55.6025 87.1835 54.1478 86.3329C53.5692 85.9955 53.1159 85.8742 52.7652 85.9702C51.7905 86.2342 49.7892 87.4022 49.3638 89.4075C48.6572 89.3702 48.0452 88.9515 47.4492 88.5449L47.1759 88.3595C47.0252 88.2595 46.8305 88.2475 46.6678 88.3249C44.2918 89.4729 42.4558 97.1115 41.8105 100.162C41.1705 99.0715 40.2945 96.8889 40.4505 93.2675C40.4599 93.0542 40.3372 92.8582 40.1425 92.7729C39.9478 92.6889 39.7212 92.7315 39.5705 92.8809C38.1398 94.3169 37.3519 96.7689 36.9359 98.6542C36.6732 96.9875 36.5319 94.6782 37.0932 92.3355C37.1439 92.1222 37.0545 91.8995 36.8705 91.7809C36.6865 91.6622 36.4465 91.6742 36.2745 91.8102C34.1052 93.5142 32.8679 96.4089 32.2652 98.2435C31.9305 96.8155 31.6799 94.5369 32.4505 91.9355C32.4932 91.7915 32.4705 91.6355 32.3892 91.5089C32.3065 91.3835 32.1745 91.2995 32.0252 91.2795C30.2479 91.0235 28.3705 94.6609 27.4385 96.7729C26.8945 95.4929 26.2372 92.9222 27.6252 89.5835C27.6972 89.4115 27.6705 89.2155 27.5559 89.0689C27.4412 88.9222 27.2532 88.8462 27.0719 88.8782C25.9505 89.0475 24.6399 90.8902 23.6585 92.5742C23.9585 91.1929 24.4812 89.3955 25.3892 87.3649C25.4812 87.1569 25.4238 86.9155 25.2532 86.7675C25.0812 86.6182 24.8305 86.6009 24.6385 86.7222C24.5745 86.7622 24.5105 86.8035 24.4812 86.8275C23.3652 87.5235 22.4625 88.5209 21.8012 89.4235C22.0345 87.8929 22.3852 85.9929 22.8252 84.8462C22.9025 84.6422 22.8439 84.4102 22.6759 84.2689C22.5092 84.1275 22.2705 84.1075 22.0825 84.2182C20.9305 84.8969 20.0772 85.5929 19.4839 86.1595C19.7025 84.0902 20.1945 80.3555 21.1172 77.5289C21.1865 77.3155 21.1092 77.0809 20.9265 76.9502C20.7439 76.8195 20.4972 76.8222 20.3185 76.9569C17.6212 78.9822 16.7505 81.8729 16.4692 83.5609C15.8532 82.6249 15.1159 81.1835 15.3012 79.8435C15.3185 79.7155 15.2785 79.5889 15.2052 79.4835C15.4052 77.3062 16.1745 72.8489 19.1559 69.8075C19.2892 69.6715 19.2865 69.4622 19.1505 69.3289C19.0145 69.1969 18.7985 69.2142 18.6652 69.3489C15.5905 72.4875 14.7585 76.8955 14.5332 79.2169C13.7932 79.0249 12.7532 78.1089 12.1625 77.4582C11.8412 76.3022 9.17318 65.7262 16.5399 57.8075C16.6719 57.6662 16.7145 57.4635 16.6479 57.2822C16.5839 57.1009 16.4225 56.9715 16.2319 56.9462C14.3479 56.6902 12.1079 58.7102 10.7612 60.1849C11.0679 58.8062 11.7225 56.8822 13.1065 55.4062C13.2172 55.2875 13.2665 55.1235 13.2385 54.9635C13.2092 54.8035 13.1065 54.6662 12.9612 54.5929C12.2985 54.2609 11.3719 54.3635 10.6332 54.5395C12.3639 51.1302 18.1638 40.6622 24.8652 39.0755C25.0572 39.0302 25.2065 38.8795 25.2492 38.6875C25.2919 38.4955 25.2225 38.2955 25.0692 38.1729C24.3585 37.6022 23.4332 37.3155 22.6772 37.1729C23.7532 36.3995 25.5572 35.1622 27.6359 33.9902C31.4705 31.8355 34.7332 30.7449 37.0852 30.8489C37.2945 30.8515 37.5119 30.7222 37.5892 30.5142C37.6665 30.3049 37.6012 30.0702 37.4278 29.9302C36.1012 28.8755 35.0052 28.2475 34.2505 27.8849C35.2159 27.4515 36.8439 26.8142 38.9985 26.3022C39.7812 26.1169 40.5879 25.9569 41.3959 25.8302C45.9065 25.1195 53.0185 25.0489 61.2732 28.7435C61.4292 28.8142 61.6105 28.8022 61.7545 28.7115C61.9012 28.6209 61.9919 28.4635 61.9972 28.2915C62.0105 27.9062 62.0372 27.4929 62.0838 27.0675C62.4372 23.9049 63.9372 18.9662 69.0705 13.4009C73.2625 8.85954 85.0625 4.56221 92.1812 5.77021C88.7785 7.46621 86.8545 9.49155 86.1332 10.3555C85.8972 10.6435 85.7798 10.8142 85.7798 10.8142C85.6678 10.9755 85.6572 11.1862 85.7518 11.3582C85.8492 11.5302 86.0358 11.6209 86.2292 11.6222C87.2398 11.5689 88.4012 11.6942 89.0358 11.9529C87.4625 12.6315 86.5812 13.4382 86.5385 13.4755C86.3838 13.6195 86.3332 13.8422 86.4078 14.0382C86.4825 14.2355 86.6705 14.3662 86.8812 14.3689C86.9265 14.3702 90.8465 14.4555 92.8585 16.2195C90.3998 15.9622 88.9078 16.6289 88.0465 17.0142C87.9278 17.0675 87.8212 17.1155 87.7265 17.1529C87.5225 17.2342 87.3358 17.4875 87.3478 17.7075C87.3718 18.1529 87.7025 18.2462 88.6838 18.5249C90.8132 19.1275 95.5825 20.4782 97.5612 24.2755C94.2892 23.4515 90.9265 24.2622 89.5745 24.5902C89.4105 24.6302 89.2798 24.6609 89.1918 24.6795C88.9612 24.7249 88.7265 24.9529 88.7132 25.1875C88.6905 25.6209 89.0465 25.7329 89.5385 25.8889C91.0465 26.3649 95.3145 27.7115 97.4238 32.4475C93.6372 29.7129 88.0545 28.8035 87.9918 28.7942ZM99.0585 33.9742C97.9225 29.8662 95.2212 26.9595 91.0212 25.3195C92.8238 24.9569 95.7052 24.6035 98.2972 25.5835C98.4839 25.6555 98.6958 25.6102 98.8398 25.4702C98.9825 25.3302 99.0319 25.1195 98.9652 24.9315C97.2639 20.0809 91.7212 18.3222 89.2758 17.6222C90.2665 17.2689 91.7665 16.9622 93.9892 17.4475C94.1838 17.4902 94.3878 17.4142 94.5105 17.2542C94.6305 17.0929 94.6478 16.8755 94.5518 16.6995C93.3292 14.4409 90.2025 13.7009 88.3425 13.4582C88.8105 13.1822 89.4185 12.8782 90.1478 12.6249C90.2772 12.5795 90.3838 12.4849 90.4438 12.3609C90.5025 12.2369 90.5105 12.0955 90.4638 11.9662C90.0958 10.9289 88.4625 10.6555 87.2932 10.5955C88.2865 9.51688 90.4185 7.57287 93.9545 6.08887C94.1545 6.00487 94.2798 5.80622 94.2705 5.59022C94.2598 5.37422 94.1158 5.18754 93.9105 5.12221C86.6132 2.84221 73.0865 7.53154 68.3145 12.7009C62.9905 18.4729 61.4305 23.6369 61.0599 26.9542C61.0399 27.1409 61.0225 27.3249 61.0092 27.5049C52.8158 24.0102 45.7612 24.0995 41.2345 24.8129C40.4012 24.9435 39.5679 25.1075 38.7599 25.3009C35.0012 26.1942 32.8212 27.4329 32.7305 27.4835C32.5492 27.5875 32.4505 27.7902 32.4772 27.9982C32.5038 28.2049 32.6532 28.3742 32.8558 28.4289C32.8678 28.4329 33.9359 28.7289 35.6292 29.8822C33.2932 30.1555 30.4439 31.2315 27.1305 33.0929C23.7172 35.0182 21.0225 37.1169 20.9972 37.1382C20.8239 37.2729 20.7559 37.5035 20.8265 37.7115C20.8985 37.9182 21.0945 38.0582 21.3132 38.0582C21.3279 38.0582 22.4159 38.0675 23.4345 38.4395C15.5359 41.4222 9.43985 54.5955 9.17185 55.1822C9.08385 55.3755 9.12252 55.6022 9.27052 55.7542C9.41719 55.9075 9.64518 55.9529 9.83852 55.8715C10.3278 55.6675 11.1212 55.4342 11.7612 55.4049C9.64919 58.1929 9.47585 61.7369 9.46919 61.8982C9.45985 62.1249 9.59852 62.3289 9.81052 62.4049C10.0225 62.4795 10.2599 62.4102 10.3959 62.2289C11.1505 61.2222 13.1159 58.9782 14.8292 58.2142C7.89852 66.8582 11.1732 77.7515 11.2092 77.8662C11.2305 77.9355 11.2652 77.9982 11.3132 78.0515C11.4892 78.2529 12.9012 79.8275 14.2425 80.2062C14.2052 82.7289 16.3692 85.1595 16.4678 85.2675C16.6105 85.4275 16.8359 85.4795 17.0359 85.4035C17.2332 85.3275 17.3652 85.1355 17.3652 84.9235C17.3652 84.8849 17.3945 81.6129 19.6265 79.0089C18.6505 82.9449 18.3292 87.4169 18.3145 87.6342C18.2972 87.8662 18.4399 88.0809 18.6599 88.1569C18.8825 88.2302 19.1252 88.1502 19.2559 87.9569C19.2639 87.9449 19.9292 86.9742 21.4372 85.8715C20.8252 88.2929 20.4745 91.5689 20.4572 91.7355C20.4318 91.9862 20.5905 92.2182 20.8332 92.2862C21.0745 92.3529 21.3332 92.2329 21.4372 92.0049C21.4479 91.9822 22.2679 90.2289 23.6972 88.7862C22.2665 92.6582 22.2278 95.3182 22.2265 95.4449C22.2252 95.6875 22.3919 95.8982 22.6292 95.9515C22.8639 96.0089 23.1065 95.8862 23.2092 95.6662C23.9612 94.0449 25.1519 91.9235 26.1372 90.7555C24.9319 95.2315 26.9785 98.1369 27.0759 98.2715C27.1865 98.4222 27.3652 98.5075 27.5572 98.4809C27.7425 98.4569 27.9025 98.3355 27.9719 98.1609C28.8972 95.8489 30.2479 93.4569 31.2132 92.6142C30.2785 96.9049 31.7679 100.108 31.8345 100.25C31.9305 100.45 32.1385 100.565 32.3612 100.541C32.5812 100.514 32.7585 100.352 32.8039 100.136C32.8132 100.09 33.6412 96.2595 35.7985 93.7049C35.2838 97.7942 36.4799 101.316 36.5372 101.482C36.6172 101.71 36.8425 101.86 37.0865 101.825C37.3278 101.794 37.5145 101.601 37.5372 101.36C37.5412 101.313 37.9159 97.3529 39.4132 94.7902C39.5892 99.7275 41.6385 101.692 41.7345 101.78C41.8305 101.87 41.9559 101.917 42.0839 101.917C42.1385 101.917 42.1932 101.909 42.2452 101.892C42.4225 101.833 42.5559 101.682 42.5905 101.498C43.3665 97.4062 45.1785 90.7315 46.8785 89.4022C47.6159 89.9075 48.6278 90.5929 49.8825 90.4102C50.1198 90.3769 50.3025 89.9595 50.3239 89.7209C50.4639 88.0955 52.1585 86.5195 53.0145 86.5195H53.0278C53.7572 86.5195 57.1852 89.6075 57.8932 92.3795C57.9652 92.6555 58.2438 92.9342 58.5198 92.8635C59.1985 92.6902 59.7305 92.2075 60.0838 91.7315C60.9278 93.3782 62.6799 97.4035 61.6799 100.532C61.6252 100.698 61.6612 100.896 61.7732 101.03C61.8839 101.165 62.0572 101.242 62.2318 101.22C62.3172 101.21 62.3932 101.197 62.4345 101.185C66.4932 100.434 68.9718 97.7409 69.0745 97.6275C69.1238 97.5729 69.1612 97.5089 69.1825 97.4395C69.6879 95.8689 69.2092 93.0675 68.6999 90.9302C69.4039 91.8329 70.1238 93.0262 70.2398 94.2422C70.2545 94.3875 70.3292 94.5195 70.4465 94.6062C70.5358 94.6729 70.6438 94.7075 70.7532 94.7075C70.7878 94.7075 70.8225 94.7049 70.8558 94.6969C71.0038 94.6662 74.4958 93.9275 75.3545 91.6262C75.9212 90.1102 74.9758 85.5915 74.2758 82.7209C75.5385 84.4422 76.7612 86.4062 76.7612 87.3262C76.7612 87.5369 76.8878 87.7262 77.0838 87.8035C77.2785 87.8822 77.5038 87.8329 77.6478 87.6822C78.9105 86.3595 78.8372 84.0755 78.6398 82.6702C79.6905 83.1529 81.0318 83.9529 81.2425 84.7155C81.2958 84.9089 81.4558 85.0542 81.6532 85.0875C81.8545 85.1182 82.0505 85.0355 82.1638 84.8702C83.7398 82.5742 83.6305 79.4995 83.4385 77.9262C83.9025 78.2155 84.4398 78.6622 84.6958 79.2835C84.7838 79.4942 84.9958 79.6222 85.2305 79.5982C85.4585 79.5715 85.6412 79.3982 85.6798 79.1715C86.1025 76.6582 84.7625 73.6022 83.7838 71.7862C85.4745 72.7155 87.2065 73.8462 87.4372 74.4609C87.5198 74.6809 87.7332 74.8222 87.9732 74.7915C88.2065 74.7675 88.3945 74.5875 88.4278 74.3542C88.7785 71.9662 87.2332 68.7502 86.2212 66.7142C87.3785 67.6022 88.7692 68.8422 89.1692 69.6929C89.2412 69.8449 89.3825 69.9515 89.5465 69.9809C89.7118 70.0089 89.8812 69.9555 89.9998 69.8369C91.6225 68.2129 91.2065 65.8062 90.8158 64.5209C90.6012 63.7955 89.1545 62.3355 88.2092 61.4369C89.0438 61.1915 90.0012 61.0422 90.3612 61.3062C90.5318 61.4302 90.7585 61.4395 90.9358 61.3275C91.1132 61.2182 91.2078 61.0115 91.1732 60.8049C90.7332 58.1609 89.1292 56.6902 88.4705 56.1875C88.5425 55.4969 88.6118 53.7395 88.0838 50.5075C87.6905 48.0995 86.2452 45.2582 85.0252 43.1889C86.1465 44.3675 87.4465 46.0742 88.4785 48.3955C88.5718 48.6049 88.7932 48.7235 89.0185 48.6969C89.2452 48.6662 89.4238 48.4889 89.4585 48.2622C89.9612 44.8702 87.7558 41.4369 86.3025 39.4995C87.9465 40.3195 90.2878 41.8302 92.1905 45.3422C92.2972 45.5395 92.5158 45.6449 92.7425 45.6022C92.9625 45.5595 93.1292 45.3782 93.1545 45.1542C93.5012 42.0369 91.6438 38.7089 87.6305 35.2435C89.5852 35.8782 92.4292 37.2875 95.0425 41.2609C95.1678 41.4502 95.4038 41.5355 95.6198 41.4702C95.8385 41.4049 95.9865 41.2049 95.9865 40.9769C95.9865 35.9289 91.8238 32.0929 89.5145 30.1609C91.9372 30.7649 95.9772 32.1315 98.1879 34.4649C98.3505 34.6369 98.6105 34.6742 98.8145 34.5595C99.0212 34.4422 99.1212 34.2009 99.0585 33.9742" fill="black"/>
<path d="M47.7497 64.4949C46.119 64.5803 43.115 62.0056 43.6297 60.2029C44.0524 58.7269 51.6937 58.8576 51.8697 60.2029C52.127 62.1776 49.3804 64.4096 47.7497 64.4949Z" fill="#2C303C"/>
<path d="M47.7108 59.6585C47.2868 59.6585 46.8495 59.6758 46.4081 59.7145C44.6735 59.8652 44.1655 60.2518 44.1241 60.3465C43.9895 60.8198 44.2215 61.4812 44.7601 62.1585C45.5788 63.1865 46.9588 64.0145 47.7228 63.9812C48.5628 63.9372 49.7975 63.1812 50.5948 62.2252C51.1628 61.5425 51.4348 60.8478 51.3588 60.2692C51.1628 59.9905 49.5815 59.6585 47.7108 59.6585ZM47.6681 65.0118C46.3988 65.0118 44.8215 63.8892 43.9535 62.7998C43.1948 61.8452 42.9028 60.8718 43.1348 60.0612C43.6375 58.3012 48.8935 58.6692 48.9455 58.6745C51.1188 58.8372 52.2748 59.3292 52.3801 60.1372C52.4948 61.0158 52.1508 61.9652 51.3855 62.8838C50.3935 64.0758 48.9095 64.9505 47.7775 65.0092C47.7415 65.0105 47.7041 65.0118 47.6681 65.0118Z" fill="black"/>
<path d="M34.3598 81.6609C34.2785 81.6609 34.1958 81.6422 34.1212 81.6022C32.5852 80.7996 32.0505 77.2476 31.8705 75.2129C31.1412 76.1582 30.0652 78.1262 29.3598 80.5382C29.2958 80.7582 29.0945 81.1862 28.8665 81.1862H28.8625C28.6318 81.1862 28.4305 80.7529 28.3692 80.5302C27.8372 78.5902 26.4745 73.4836 28.6332 67.1862C28.6612 67.1022 28.6892 66.9489 28.7185 66.8636C28.0318 67.4116 27.0398 68.6502 26.2265 70.1022C26.1078 70.3129 25.8612 70.3969 25.6305 70.3276C25.3985 70.2582 25.2465 70.0302 25.2625 69.7902C25.2838 69.4782 25.8265 62.3809 29.2278 57.7609C32.8838 52.7889 38.1772 47.8529 49.7225 47.8529H49.9212C59.1438 47.8529 63.9625 52.8782 66.0212 56.0449C66.6598 57.0289 67.1985 57.9142 67.6238 58.9356C69.4465 63.2676 69.5478 69.2756 69.5505 69.5316C69.5545 69.7876 69.3692 69.9742 69.1172 70.0142C68.8665 70.0542 68.6198 69.8862 68.5438 69.6422C67.8985 67.5689 66.8492 66.5062 66.0865 65.9876C66.9105 69.0022 68.4558 76.1729 65.6652 79.7502C65.5425 79.9102 65.3345 79.9836 65.1372 79.9316C64.9398 79.8836 64.7892 79.7222 64.7532 79.5236C64.2972 77.0329 63.2838 75.6369 62.6012 74.9489C62.3972 76.5129 61.7038 79.4889 59.3438 80.9022C59.1785 80.9996 58.9745 80.9996 58.8105 80.8996C58.6465 80.7996 58.5532 80.6156 58.5652 80.4249C58.8372 76.4329 57.2838 74.5582 56.7798 74.0596C51.6518 74.8769 47.2692 71.3969 47.0825 71.2476L47.7292 70.4449C47.7732 70.4796 52.0718 73.8902 56.8438 73.0036C56.9865 72.9769 57.1332 73.0129 57.2492 73.1009C57.3505 73.1782 59.5852 74.9302 59.6265 79.3849C61.5678 77.4636 61.6545 73.9662 61.6545 73.9276C61.6585 73.7462 61.7558 73.5796 61.9118 73.4902C62.0692 73.3996 62.2625 73.3982 62.4212 73.4862C62.5132 73.5382 64.4878 74.6729 65.4718 78.0796C67.1305 74.4409 65.6212 68.1636 65.0718 66.1769C64.8918 65.5502 64.7705 65.1716 64.7692 65.1676C64.7118 64.9902 64.7545 64.7969 64.8812 64.6596C65.0065 64.5249 65.1972 64.4689 65.3772 64.5076C65.4638 64.5289 67.0372 64.9222 68.3558 66.8409C68.1492 64.6876 67.6892 61.6182 66.6732 59.2009C66.2772 58.2489 65.7532 57.6769 65.1572 56.7582C62.7838 53.1062 58.2198 49.1862 49.9265 49.1862H49.7318C37.1452 49.1862 32.3585 55.3902 30.0585 58.5196C27.9412 61.3942 26.9825 65.3142 26.5718 67.8342C27.4918 66.5942 28.7038 65.2782 29.7345 65.6609C29.8638 65.7102 29.9678 65.7556 30.0238 65.8822C30.0798 66.0089 30.0838 66.1262 30.0318 66.2556C29.8785 66.6422 29.7318 67.0102 29.6118 67.3849C28.0065 72.0662 28.4425 75.9729 28.9452 78.3196C30.1945 75.2116 31.8692 73.6369 31.9505 73.5609C32.0998 73.4249 32.3132 73.3849 32.4972 73.4622C32.6825 73.5382 32.8065 73.7156 32.8145 73.9156C32.8958 75.8382 33.2865 78.5182 33.9518 79.8836C34.4332 76.1476 36.2372 73.1236 36.3225 72.9836L37.2038 73.5156C37.1825 73.5516 35.0385 77.1529 34.8745 81.1676C34.8665 81.3436 34.7705 81.5036 34.6172 81.5929C34.5385 81.6382 34.4492 81.6609 34.3598 81.6609Z" fill="black"/>
<path d="M40.3112 74.3668C39.1832 74.3668 37.9432 74.1868 36.6005 73.7388C36.3299 73.6482 36.1845 73.3562 36.2739 73.0868C36.3645 72.8162 36.6565 72.6722 36.9259 72.7615C43.1952 74.8548 46.8619 70.6895 47.0152 70.5122C47.1992 70.2962 47.5245 70.2708 47.7405 70.4562C47.9565 70.6402 47.9819 70.9642 47.7992 71.1802C47.7645 71.2202 45.0165 74.3668 40.3112 74.3668Z" fill="black"/>
<path d="M47.0434 77.7897C40.8021 77.7897 36.4674 73.6817 36.4034 73.619C36.2008 73.4203 36.1954 73.095 36.3941 72.891C36.5914 72.6883 36.9181 72.6817 37.1208 72.8803C37.4848 73.231 46.1288 81.3817 56.6181 73.107C56.8421 72.931 57.1648 72.9683 57.3421 73.191C57.5181 73.415 57.4794 73.739 57.2568 73.915C53.5821 76.8123 50.0861 77.7897 47.0434 77.7897Z" fill="black"/>
<path d="M48.1625 62.5117C49.4652 62.1384 50.6332 61.4064 51.7358 60.6197C51.3252 61.7064 50.8825 62.841 50.0038 63.6024C49.1798 64.317 48.0105 64.6144 46.9438 64.3797C46.5132 64.285 44.5065 63.4517 44.8932 62.733C45.0038 62.525 47.6318 62.6637 48.1625 62.5117Z" fill="black"/>
<path d="M51.1155 60.1385C49.2355 59.9145 47.9675 60.0105 46.6475 60.1345C45.5808 60.2345 44.7022 60.5771 44.1395 60.9371C44.0555 60.8251 43.9808 60.4811 44.1262 60.3398C45.1462 59.3425 49.9315 59.5798 51.1155 60.1385Z" fill="#495063"/>
<path d="M32.8565 71.0393C32.8565 71.0393 33.3058 69.2193 35.0138 69.2193" stroke="black" stroke-width="0.809" stroke-miterlimit="10" stroke-linecap="round"/>
<path d="M58.5366 68.8189C58.5366 68.8189 60.3753 68.4549 61.0993 70.0016" stroke="black" stroke-width="0.809" stroke-miterlimit="10" stroke-linecap="round"/>
</svg>
