<svg width="226" height="215" viewBox="0 0 226 215" fill="none" xmlns="http://www.w3.org/2000/svg">
<path d="M225.459 195.621C225.699 196.072 225.672 196.61 225.404 197.048C223.772 199.686 223.335 204.666 223.335 204.666C223.335 204.666 221.952 206.392 219.191 206.968C216.433 207.544 210.636 205.9 210.436 205.026C210.257 204.244 210.273 203.521 210.427 202.868L210.671 202.909C210.671 202.909 218.971 205.873 221.004 202.4C223.036 198.928 223.205 196.472 223.205 196.472C223.205 196.472 212.449 171.232 210.671 166.996C208.892 162.761 191.697 141.672 189.665 134.133L190.125 133.873C198.185 148.346 212.981 164.412 212.981 164.412C216.572 178.576 223.693 192.29 225.459 195.621Z" fill="#C78358"/>
<path d="M223.206 196.471C223.206 196.471 223.036 198.927 221.003 202.401C218.971 205.873 210.67 202.909 210.67 202.909L210.426 202.867C211.155 199.677 215.051 197.995 215.051 197.995C215.511 192.474 211.833 184.078 210.223 179.823C208.611 175.567 199.754 162.226 176.639 141.871C176.259 141.535 175.879 141.207 175.507 140.886C178.13 141.485 188.787 143.166 188.543 130.87C189.031 131.859 189.561 132.863 190.126 133.873L189.666 134.133C191.698 141.671 208.891 162.762 210.67 166.997C212.448 171.231 223.206 196.471 223.206 196.471Z" fill="#F1A26F"/>
<path d="M223.206 196.471C223.206 196.471 223.036 198.927 221.003 202.401C218.971 205.873 210.67 202.909 210.67 202.909L210.426 202.867C211.155 199.677 215.051 197.995 215.051 197.995C215.511 192.474 211.833 184.078 210.223 179.823C208.611 175.567 199.754 162.226 176.639 141.871C176.259 141.535 175.879 141.207 175.507 140.886C178.13 141.485 188.787 143.166 188.543 130.87C189.031 131.859 189.561 132.863 190.126 133.873L189.666 134.133C191.698 141.671 208.891 162.762 210.67 166.997C212.448 171.231 223.206 196.471 223.206 196.471Z" stroke="#F1A26F" stroke-width="0.254" stroke-miterlimit="10"/>
<path d="M28.6227 33.281C28.8907 32.681 28.4707 31.8343 27.5214 31.845C26.5294 31.8543 26.1054 32.949 26.5734 33.3423C27.3561 33.0063 28.6227 33.281 28.6227 33.281ZM29.3787 36.8756C29.4187 35.757 28.5454 34.8156 27.4267 34.7756C26.3054 34.7343 25.3667 35.609 25.3267 36.7263C25.2854 37.8476 26.1601 38.7863 27.2774 38.8276C28.3987 38.8676 29.3374 37.993 29.3787 36.8756V36.8756ZM34.0027 33.5556C34.4934 33.189 34.1347 32.0743 33.1427 32.0076C32.1974 31.9423 31.7267 32.7623 31.9601 33.3796C31.9601 33.3796 33.2401 33.1756 34.0027 33.5556V33.5556ZM35.2387 37.089C35.2867 35.7783 34.2641 34.6796 32.9561 34.633C31.6454 34.5823 30.5467 35.605 30.5001 36.9156C30.4521 38.2236 31.4747 39.325 32.7827 39.373C34.0907 39.4196 35.1921 38.397 35.2387 37.089ZM84.9681 131.932C84.6294 135.81 83.9414 139.11 83.9414 139.11C83.8467 139.412 83.7507 139.75 83.6601 140.126C78.9947 144.077 77.8934 165.648 76.7894 175.297C76.3587 179.077 74.7801 181.66 72.4827 180.849C72.4081 169.018 72.1641 155.8 71.5174 147.85C71.4427 144.284 70.4507 141.733 69.7321 140.337C68.0721 136.626 64.2201 132.798 59.3921 126.588C58.9587 126.029 58.5147 125.45 58.0641 124.85C58.0641 124.85 73.7974 124.308 77.0161 114.314C79.3027 107.22 71.2561 99.4063 64.4801 97.713C57.7054 96.0183 54.9947 103.133 52.2841 103.133H52.1921C49.5267 103.1 47.5414 101.609 47.5414 101.609L47.1307 101.598C47.3481 94.6156 48.2961 87.3756 46.4467 78.4996C44.8267 70.7276 42.5974 65.581 40.0534 62.353C39.2507 54.0663 53.9374 49.293 48.0494 43.6756C44.3227 40.1183 39.4094 48.757 31.1094 47.9103C25.9187 47.381 27.5521 42.489 20.0987 43.1676C12.6454 43.845 8.03473 49.977 8.03473 49.977C7.61073 49.4076 6.2254 49.4143 4.96806 49.7223C4.57473 49.817 4.16806 49.821 3.77606 49.7263C3.77606 49.7263 12.7841 41.8356 19.9094 38.4103C20.9627 37.9636 21.8361 37.6076 22.4494 37.3663C23.0841 37.113 23.4427 36.981 23.4427 36.981C23.3107 36.733 23.2014 36.4796 23.1107 36.2223L23.2601 36.1676C23.2601 36.1676 24.2147 29.277 31.5641 26.281C31.5734 26.2743 31.5801 26.2743 31.5907 26.2716C33.0707 25.773 34.5347 25.421 35.8734 25.1703C39.2614 24.537 41.8454 24.561 41.8454 24.561L42.0081 24.649L43.0254 22.7276C43.0254 22.7276 46.3987 4.22632 50.2307 0.39032C50.5321 0.50632 50.7361 0.868981 50.8041 1.34631C49.6481 3.15165 48.7401 5.93698 48.0494 8.93565C46.7547 14.5423 46.2134 20.901 46.1854 23.009C46.1041 28.7076 51.0574 31.8076 51.8814 25.4383C52.0001 24.5063 52.0334 23.3743 51.9454 22.0156C52.7414 27.3623 53.6694 31.6076 54.0361 32.6103C54.8414 34.7956 61.5641 42.093 64.8467 44.7996C67.7054 47.161 71.0867 49.6716 74.5694 51.9143L74.4747 52.061C92.3467 67.3903 153.153 85.8116 161.545 85.6863C166.908 85.6036 171.367 80.6823 171.837 80.1423C172.244 80.5423 172.499 81.1463 172.499 81.833C172.499 83.673 168.128 86.4343 168.128 86.4343C175.717 95.2903 180.663 113.002 187.449 128.529C187.784 129.298 188.151 130.078 188.544 130.868C188.544 130.868 188.54 130.87 188.544 130.87C188.788 143.165 178.129 141.485 175.507 140.885C170.817 136.844 166.543 133.702 162.669 131.27L162.693 131.233C158.971 128.252 155.985 125 153.607 121.79L153.415 121.937C139.947 114.653 96.4121 135.149 84.9774 131.932H84.9681Z" fill="#A5705E"/>
<path d="M28.6227 33.281C28.8907 32.681 28.4707 31.8343 27.5214 31.845C26.5294 31.8543 26.1054 32.949 26.5734 33.3423C27.3561 33.0063 28.6227 33.281 28.6227 33.281ZM29.3787 36.8756C29.4187 35.757 28.5454 34.8156 27.4267 34.7756C26.3054 34.7343 25.3667 35.609 25.3267 36.7263C25.2854 37.8476 26.1601 38.7863 27.2774 38.8276C28.3987 38.8676 29.3374 37.993 29.3787 36.8756V36.8756ZM34.0027 33.5556C34.4934 33.189 34.1347 32.0743 33.1427 32.0076C32.1974 31.9423 31.7267 32.7623 31.9601 33.3796C31.9601 33.3796 33.2401 33.1756 34.0027 33.5556V33.5556ZM35.2387 37.089C35.2867 35.7783 34.2641 34.6796 32.9561 34.633C31.6454 34.5823 30.5467 35.605 30.5001 36.9156C30.4521 38.2236 31.4747 39.325 32.7827 39.373C34.0907 39.4196 35.1921 38.397 35.2387 37.089ZM84.9681 131.932C84.6294 135.81 83.9414 139.11 83.9414 139.11C83.8467 139.412 83.7507 139.75 83.6601 140.126C78.9947 144.077 77.8934 165.648 76.7894 175.297C76.3587 179.077 74.7801 181.66 72.4827 180.849C72.4081 169.018 72.1641 155.8 71.5174 147.85C71.4427 144.284 70.4507 141.733 69.7321 140.337C68.0721 136.626 64.2201 132.798 59.3921 126.588C58.9587 126.029 58.5147 125.45 58.0641 124.85C58.0641 124.85 73.7974 124.308 77.0161 114.314C79.3027 107.22 71.2561 99.4063 64.4801 97.713C57.7054 96.0183 54.9947 103.133 52.2841 103.133H52.1921C49.5267 103.1 47.5414 101.609 47.5414 101.609L47.1307 101.598C47.3481 94.6156 48.2961 87.3756 46.4467 78.4996C44.8267 70.7276 42.5974 65.581 40.0534 62.353C39.2507 54.0663 53.9374 49.293 48.0494 43.6756C44.3227 40.1183 39.4094 48.757 31.1094 47.9103C25.9187 47.381 27.5521 42.489 20.0987 43.1676C12.6454 43.845 8.03473 49.977 8.03473 49.977C7.61073 49.4076 6.2254 49.4143 4.96806 49.7223C4.57473 49.817 4.16806 49.821 3.77606 49.7263C3.77606 49.7263 12.7841 41.8356 19.9094 38.4103C20.9627 37.9636 21.8361 37.6076 22.4494 37.3663C23.0841 37.113 23.4427 36.981 23.4427 36.981C23.3107 36.733 23.2014 36.4796 23.1107 36.2223L23.2601 36.1676C23.2601 36.1676 24.2147 29.277 31.5641 26.281C31.5734 26.2743 31.5801 26.2743 31.5907 26.2716C33.0707 25.773 34.5347 25.421 35.8734 25.1703C39.2614 24.537 41.8454 24.561 41.8454 24.561L42.0081 24.649L43.0254 22.7276C43.0254 22.7276 46.3987 4.22632 50.2307 0.39032C50.5321 0.50632 50.7361 0.868981 50.8041 1.34631C49.6481 3.15165 48.7401 5.93698 48.0494 8.93565C46.7547 14.5423 46.2134 20.901 46.1854 23.009C46.1041 28.7076 51.0574 31.8076 51.8814 25.4383C52.0001 24.5063 52.0334 23.3743 51.9454 22.0156C52.7414 27.3623 53.6694 31.6076 54.0361 32.6103C54.8414 34.7956 61.5641 42.093 64.8467 44.7996C67.7054 47.161 71.0867 49.6716 74.5694 51.9143L74.4747 52.061C92.3467 67.3903 153.153 85.8116 161.545 85.6863C166.908 85.6036 171.367 80.6823 171.837 80.1423C172.244 80.5423 172.499 81.1463 172.499 81.833C172.499 83.673 168.128 86.4343 168.128 86.4343C175.717 95.2903 180.663 113.002 187.449 128.529C187.784 129.298 188.151 130.078 188.544 130.868C188.544 130.868 188.54 130.87 188.544 130.87C188.788 143.165 178.129 141.485 175.507 140.885C170.817 136.844 166.543 133.702 162.669 131.27L162.693 131.233C158.971 128.252 155.985 125 153.607 121.79L153.415 121.937C139.947 114.653 96.4121 135.149 84.9774 131.932H84.9681Z" stroke="#A5705E" stroke-width="0.254" stroke-miterlimit="10"/>
<path d="M169.049 80.4546C170.059 79.3733 171.156 79.4653 171.837 80.1426C171.367 80.6813 166.908 85.604 161.545 85.6853C153.153 85.8106 92.3468 67.3906 74.4748 52.06L74.5695 51.9146C76.6908 53.28 78.8495 54.544 80.9495 55.6106C87.2748 58.8333 91.1162 61.1133 107.863 68.2653C129.14 77.348 160.996 84.364 162.836 84.1346C164.679 83.904 167.437 82.1786 169.049 80.4546Z" fill="#CC917C"/>
<path d="M171.404 162.802C166.807 169.059 164.974 191.657 164.588 197.254C164.536 197.986 163.944 198.47 162.867 199.073C161.067 200.079 159.387 200.957 157.087 201.099C155.447 201.205 153.686 200.273 152.527 199.497C151.571 198.859 151.111 197.685 151.395 196.573C151.395 196.573 159.428 200.283 162.562 196.133C162.562 196.133 166.712 166.658 167.644 164.794C167.644 164.794 157.65 142.518 153.415 140.062C149.179 137.606 136.814 137.521 136.814 137.521L136.671 137.579C133.463 129.617 129.831 123.986 129.831 123.986L129.8 123.861C131.81 123.343 133.51 123.034 134.774 123.007C138.663 122.926 146.378 122.218 158.676 128.922L158.639 128.99C155.898 147.942 171.404 162.802 171.404 162.802Z" fill="#C78358"/>
<path d="M167.644 164.794C166.712 166.658 162.562 196.133 162.562 196.133C159.428 200.283 151.396 196.573 151.396 196.573C152.496 192.281 158.124 191.613 158.124 191.613C160.452 186.351 160.536 167.806 160.536 167.806C160.536 167.806 141.746 152.398 138.457 142.443C137.894 140.75 137.292 139.121 136.672 137.579L136.813 137.521C136.813 137.521 149.18 137.606 153.414 140.062C157.649 142.518 167.644 164.794 167.644 164.794Z" fill="#F1A26F"/>
<path d="M167.644 164.794C166.712 166.658 162.562 196.133 162.562 196.133C159.428 200.283 151.396 196.573 151.396 196.573C152.496 192.281 158.124 191.613 158.124 191.613C160.452 186.351 160.536 167.806 160.536 167.806C160.536 167.806 141.746 152.398 138.457 142.443C137.894 140.75 137.292 139.121 136.672 137.579L136.813 137.521C136.813 137.521 149.18 137.606 153.414 140.062C157.649 142.518 167.644 164.794 167.644 164.794Z" stroke="#F1A26F" stroke-width="0.254" stroke-miterlimit="10"/>
<path d="M162.694 131.233L162.67 131.271C161.287 130.4 159.956 129.62 158.675 128.923C146.378 122.219 138.663 122.927 134.774 123.008C133.51 123.035 131.81 123.343 129.8 123.861C123.024 125.605 112.735 129.723 103.95 133.361C92.567 138.073 83.9417 139.111 83.9417 139.111C83.9417 139.111 84.6284 135.811 84.967 131.931H84.9777C96.4124 135.149 139.947 114.653 153.414 121.937L153.607 121.791C155.986 125 158.971 128.252 162.694 131.233Z" fill="#805749"/>
<path d="M83.6598 140.126C82.6678 144.174 81.9558 152.3 81.4545 161.576H81.4198L77.1851 209.853C76.4238 212.818 66.8758 211.416 66.8758 211.416C67.5665 206.645 72.4385 206.045 72.4385 206.045C72.4385 206.045 72.5705 194.35 72.4825 180.849C74.7798 181.66 76.3585 179.077 76.7891 175.297C77.8931 165.648 78.9945 144.077 83.6598 140.126Z" fill="#F1A26F"/>
<path d="M83.6598 140.126C82.6678 144.174 81.9558 152.3 81.4545 161.576H81.4198L77.1851 209.853C76.4238 212.818 66.8758 211.416 66.8758 211.416C67.5665 206.645 72.4385 206.045 72.4385 206.045C72.4385 206.045 72.5705 194.35 72.4825 180.849C74.7798 181.66 76.3585 179.077 76.7891 175.297C77.8931 165.648 78.9945 144.077 83.6598 140.126Z" stroke="#F1A26F" stroke-width="0.254" stroke-miterlimit="10"/>
<path d="M81.4205 161.576H81.4538C80.8711 172.258 80.5671 184.474 80.4205 193.768C79.2831 201.014 79.6858 209.034 79.6858 209.956C79.4965 211.928 76.6498 213.909 75.4005 214.21C71.9845 215.037 69.4098 214.038 67.9031 213.324C67.1805 212.981 66.7605 212.205 66.8765 211.416C66.8765 211.416 76.4231 212.818 77.1858 209.854L81.4205 161.576Z" fill="#C78358"/>
<path d="M64.4807 97.7129C71.2567 99.4063 79.3034 107.22 77.0167 114.314C73.7981 124.308 58.0634 124.85 58.0634 124.85C54.6687 120.324 52.9927 110.408 52.1927 103.133H52.2847C54.9941 103.133 57.7047 96.0183 64.4807 97.7129Z" fill="#F1A26F"/>
<path d="M69.7321 140.336C69.3147 139.527 68.9907 139.11 68.9907 139.11C68.0347 141.814 67.2454 148.752 66.6214 156.674L66.5134 156.663C66.0387 158.6 65.3347 159.928 64.5214 160.823C65.4227 150.087 66.0974 141.515 66.0054 140.908C65.7574 139.263 61.3467 131.531 59.3921 126.588C64.2201 132.798 68.0721 136.627 69.7321 140.336Z" fill="#805749"/>
<path d="M66.5136 156.663L66.6216 156.674C65.4402 171.662 64.8469 190.174 64.8469 190.174C63.2376 194.432 63.4989 205.846 63.1082 207.398C61.1229 209.383 59.3136 210.416 56.5096 210.718C54.3616 210.951 51.6069 210.43 50.4176 209.803C49.6309 209.386 49.4042 208.624 49.5229 207.743C49.5229 207.743 57.5349 210.023 60.5842 206.127C60.5842 206.127 62.9189 180.012 64.5216 160.823C65.3349 159.928 66.0389 158.6 66.5136 156.663" fill="#C78358"/>
<path d="M66.0052 140.909C66.0972 141.516 65.4226 150.086 64.5212 160.824C61.5732 164.076 57.1972 161.576 57.1972 161.576L56.8679 161.582C56.7599 156.565 56.5866 152.072 56.3399 148.817C55.5506 138.324 53.5439 131.165 51.0266 123.052C55.4412 124.653 58.0639 124.85 58.0639 124.85C58.5146 125.45 58.9586 126.029 59.3919 126.588C61.3466 131.532 65.7586 139.262 66.0052 140.909Z" fill="#A5705E"/>
<path d="M66.0052 140.909C66.0972 141.516 65.4226 150.086 64.5212 160.824C61.5732 164.076 57.1972 161.576 57.1972 161.576L56.8679 161.582C56.7599 156.565 56.5866 152.072 56.3399 148.817C55.5506 138.324 53.5439 131.165 51.0266 123.052C55.4412 124.653 58.0639 124.85 58.0639 124.85C58.5146 125.45 58.9586 126.029 59.3919 126.588C61.3466 131.532 65.7586 139.262 66.0052 140.909Z" stroke="#A5705E" stroke-width="0.254" stroke-miterlimit="10"/>
<path d="M64.5214 160.823C62.9188 180.013 60.5841 206.127 60.5841 206.127C57.5361 210.023 49.5228 207.743 49.5228 207.743C50.2988 201.997 56.3401 202.637 56.3401 202.637C56.9321 199.283 57.2241 177.715 56.8681 161.582L57.1961 161.575C57.1961 161.575 61.5734 164.075 64.5214 160.823" fill="#F1A26F"/>
<path d="M64.5214 160.823C62.9188 180.013 60.5841 206.127 60.5841 206.127C57.5361 210.023 49.5228 207.743 49.5228 207.743C50.2988 201.997 56.3401 202.637 56.3401 202.637C56.9321 199.283 57.2241 177.715 56.8681 161.582L57.1961 161.575C57.1961 161.575 61.5734 164.075 64.5214 160.823V160.823Z" stroke="#F1A26F" stroke-width="0.254" stroke-miterlimit="10"/>
<path d="M58.0639 124.85C58.0639 124.85 55.4413 124.654 51.0266 123.052C50.2519 120.558 49.4319 117.973 48.5773 115.178C47.1586 110.509 46.9919 106.108 47.1306 101.598L47.5413 101.609C47.5413 101.609 49.5266 103.1 52.1933 103.133C52.9919 110.408 54.6693 120.324 58.0639 124.85Z" fill="#F1A26F"/>
<path d="M51.9454 22.0161C52.0334 23.3748 52.0001 24.5068 51.8814 25.4375H51.7187C51.2681 26.4548 49.2347 26.8508 48.1067 24.9868C46.9747 23.1241 48.1067 8.94946 48.1067 8.94946L48.0494 8.9348C48.7401 5.93746 49.6481 3.15213 50.8041 1.3468C50.8347 1.55346 50.8414 1.78013 50.8174 2.01746C50.2521 7.85746 51.0067 15.7015 51.9454 22.0161Z" fill="#F1A26F"/>
<path d="M51.7183 25.438H51.881C51.0583 31.8073 46.105 28.7073 46.1863 23.0087C46.213 20.902 46.7543 14.542 48.049 8.93532L48.1063 8.94865C48.1063 8.94865 46.9757 23.1247 48.1063 24.9873C49.2343 26.8513 51.2677 26.454 51.7183 25.438Z" fill="#C78358"/>
<path d="M47.8831 2.82344C48.8418 0.746109 49.6925 0.178109 50.2311 0.391443C46.3991 4.22611 43.0245 22.7274 43.0245 22.7274L42.0085 24.6488L41.8458 24.5608C42.5365 18.0048 45.0605 8.94211 47.8831 2.82344Z" fill="#CC917C"/>
<path d="M39.82 51.8368C33.8093 53.1688 28.616 55.6821 27.356 56.0715C25.8586 56.5328 22.064 56.1875 22.064 56.1875C20.3493 55.8275 18.2653 56.4475 16.3346 57.1528L16.26 56.9461C9.19996 57.9621 7.65863 53.7141 7.65863 53.7141C8.05863 53.5035 8.81997 52.1795 8.4613 50.8581C8.38263 50.5595 8.24396 50.2608 8.03463 49.9768C8.03463 49.9768 12.6453 43.8448 20.0986 43.1675C27.552 42.4901 25.9186 47.3821 31.1093 47.9101C39.4106 48.7568 44.3226 40.1181 48.0493 43.6755C53.9373 49.2928 39.2506 54.0661 40.0533 62.3528C37.1293 58.6368 33.7866 57.4541 30.4653 57.7315C30.1306 57.7595 29.808 57.7795 29.5 57.7928L29.4906 57.6274C30.056 57.6274 35.4533 53.1515 39.8573 51.9755L39.82 51.8368Z" fill="#F1A26F"/>
<path d="M29.4901 57.6268L29.5007 57.7934C24.0247 58.0334 22.0634 56.1868 22.0634 56.1868C22.0634 56.1868 25.8581 56.5321 27.3554 56.0721C28.6154 55.6814 33.8101 53.1681 39.8194 51.8361L39.8567 51.9761C35.4527 53.1508 30.0554 57.6268 29.4901 57.6268Z" fill="#C78358"/>
<path d="M28.1892 16.985C28.1492 16.4264 28.0972 15.877 28.0439 15.3584C28.0025 14.973 27.9492 14.5664 27.8839 14.1424C27.3359 7.9997 27.9279 5.8957 28.0439 5.55703C28.7519 7.88103 29.4932 12.3237 31.2652 17.2557C33.3932 23.1784 35.8665 25.133 35.8665 25.133L35.8732 25.1704C34.5345 25.421 33.0719 25.773 31.5905 26.2717C31.5812 26.2744 31.5732 26.2744 31.5639 26.281C30.5705 26.613 29.5745 27.013 28.6025 27.4917L28.4572 27.189C28.4572 27.189 28.5345 21.5997 28.1892 16.985Z" fill="#A5705E"/>
<path d="M33.1424 32.0072C34.1357 32.0752 34.4944 33.1898 34.0024 33.5552C33.2411 33.1765 31.9597 33.3792 31.9597 33.3792C31.7264 32.7632 32.1971 31.9432 33.1424 32.0072Z" fill="#F1A26F"/>
<path d="M32.8374 36.6995C33.0747 36.7061 33.2614 36.9061 33.2507 37.1461C33.2441 37.3835 33.0441 37.5701 32.8067 37.5595C32.5667 37.5528 32.3841 37.3528 32.3907 37.1128C32.4001 36.8755 32.6001 36.6888 32.8374 36.6995Z" fill="black"/>
<path d="M28.6025 27.491C29.5745 27.0137 30.5705 26.6137 31.5638 26.2817C24.2145 29.2763 23.2598 36.167 23.2598 36.167L23.1105 36.2217C22.6505 34.9443 22.6358 33.6297 22.6798 32.8537C22.7078 32.3963 22.8865 31.963 23.1785 31.611C24.6651 29.8217 26.5771 28.487 28.6025 27.491Z" fill="#CC917C"/>
<path d="M27.5217 31.8445C28.4697 31.8338 28.891 32.6818 28.623 33.2805C28.623 33.2805 27.355 33.0071 26.5737 33.3418C26.1057 32.9485 26.5284 31.8551 27.5217 31.8445Z" fill="#F1A26F"/>
<path d="M28.0434 5.55409V5.55809C27.9287 5.89676 27.3354 8.00076 27.8847 14.1421C27.2434 9.85276 25.6381 4.06742 26.8954 3.85676C27.3487 3.78209 27.6914 4.41276 28.0434 5.55409Z" fill="#CC917C"/>
<path d="M28.0434 5.55409V5.55809C27.9287 5.89676 27.3354 8.00076 27.8847 14.1421C27.2434 9.85276 25.6381 4.06742 26.8954 3.85676C27.3487 3.78209 27.6914 4.41276 28.0434 5.55409Z" stroke="#CC917C" stroke-width="0.254" stroke-miterlimit="10"/>
<path d="M27.5793 36.5063C27.8166 36.517 28.0033 36.717 27.9926 36.953C27.986 37.1903 27.786 37.377 27.5486 37.3703C27.3086 37.3597 27.122 37.1597 27.1326 36.9237C27.142 36.6863 27.342 36.4997 27.5793 36.5063Z" fill="black"/>
<path d="M16.2602 56.9458L16.3349 57.1525C14.5122 57.8125 12.8282 58.5485 11.7135 58.6018C9.59219 58.7071 8.16019 56.6645 5.69353 55.9831L5.73353 55.8418C6.21886 55.0085 5.4562 53.6498 5.57486 52.9751C5.79886 52.8938 6.02553 52.7951 6.2562 52.6738C6.61086 53.0458 6.48286 54.3365 7.65886 53.7138C7.65886 53.7138 9.2002 57.9618 16.2602 56.9458" fill="#C78358"/>
<path d="M1.4989 49.7091C5.56423 44.9731 14.8136 40.5851 19.9096 38.4105C12.7842 41.8358 3.77623 49.7265 3.77623 49.7265C2.80957 49.4918 1.98023 49.4545 1.4989 49.7091Z" fill="#CC917C"/>
<path d="M8.46113 50.8576C8.8198 52.179 8.05846 53.503 7.65846 53.7136C6.48247 54.3376 6.6118 53.0456 6.2558 52.6736C6.9878 52.2976 7.7398 51.7216 8.46113 50.8576Z" fill="#8A5D4E"/>
<path d="M8.03436 49.9768C8.24503 50.2608 8.3837 50.5595 8.46103 50.8582C7.7397 51.7222 6.9877 52.2982 6.2557 52.6742C6.1637 52.5782 6.03836 52.5448 5.84903 52.6222C5.68636 52.6902 5.60503 52.8128 5.57436 52.9755C3.4917 53.7475 1.74636 53.0502 1.74636 53.0502L1.72903 53.0595C1.3437 52.4088 1.05836 51.7795 0.886363 51.3488C0.739696 50.9928 0.798363 50.5862 1.0317 50.2822C1.2957 50.4515 4.0397 52.1555 8.03436 49.9768Z" fill="#C2836E"/>
<path d="M8.03436 49.9768C8.24503 50.2608 8.3837 50.5595 8.46103 50.8582C7.7397 51.7222 6.9877 52.2982 6.2557 52.6742C6.1637 52.5782 6.03836 52.5448 5.84903 52.6222C5.68636 52.6902 5.60503 52.8128 5.57436 52.9755C3.4917 53.7475 1.74636 53.0502 1.74636 53.0502L1.72903 53.0595C1.3437 52.4088 1.05836 51.7795 0.886363 51.3488C0.739696 50.9928 0.798363 50.5862 1.0317 50.2822C1.2957 50.4515 4.0397 52.1555 8.03436 49.9768Z" stroke="#C2836E" stroke-width="0.254" stroke-miterlimit="10"/>
<path d="M4.96822 49.7226C6.22555 49.4146 7.61088 49.408 8.03488 49.9773C4.04022 52.1546 1.29622 50.4506 1.03088 50.2813C1.17755 50.088 1.33355 49.8986 1.49888 49.7093C1.98022 49.4546 2.80955 49.492 3.77622 49.7266C4.16822 49.8213 4.57488 49.8173 4.96822 49.7226Z" fill="#EBA892"/>
<path d="M5.84907 52.6228C6.0384 52.5454 6.16374 52.5788 6.25574 52.6734C6.02507 52.7961 5.7984 52.8934 5.5744 52.9748C5.60507 52.8121 5.6864 52.6908 5.84907 52.6228Z" fill="#B17246"/>
<path d="M5.57464 52.975C5.45598 53.6497 6.21864 55.0083 5.73331 55.8417L5.69331 55.983C5.48664 55.9257 5.26931 55.879 5.04264 55.8417C3.57598 55.607 2.46398 54.2897 1.72931 53.0603L1.74664 53.0497C1.74664 53.0497 3.49064 53.747 5.57464 52.975" fill="#8A5D4E"/>
<path d="M31.5636 26.2816C30.5716 26.6136 29.5742 27.0136 28.6022 27.4909C26.5769 28.4869 24.6662 29.8216 23.1782 31.6109C22.8876 31.9629 22.7076 32.3962 22.6809 32.8536C22.6369 33.6296 22.6502 34.9442 23.1102 36.2216C23.2022 36.4789 23.3102 36.7336 23.4422 36.9802C23.4422 36.9802 23.0836 37.1123 22.4502 37.3669C21.8369 37.6069 20.9622 37.9629 19.9089 38.4109C14.8142 40.5856 5.56491 44.9723 1.49957 49.7096C1.33291 49.8989 1.17691 50.0883 1.03157 50.2816C0.79824 50.5869 0.739575 50.9936 0.886241 51.3482C1.05824 51.7789 1.34357 52.4096 1.72891 53.0603C2.46491 54.2896 3.57557 55.6082 5.04224 55.8416C5.27024 55.8789 5.48624 55.9256 5.69291 55.9843C8.15957 56.6643 9.59291 58.7069 11.7142 58.6029C12.8289 58.5482 14.5116 57.8136 16.3342 57.1523C18.2662 56.4483 20.3489 55.8283 22.0636 56.1869C22.0636 56.1869 24.0249 58.0336 29.5009 57.7922C29.8089 57.7789 30.1302 57.7589 30.4662 57.7322C33.7862 57.4536 37.1302 58.6363 40.0542 62.3536C42.5982 65.5816 44.8276 70.7283 46.4462 78.5003C48.2969 87.3763 47.3476 94.6162 47.1316 101.599C46.9929 106.108 47.1582 110.51 48.5782 115.178C49.4316 117.972 50.2516 120.558 51.0276 123.051C53.5449 131.166 55.5502 138.324 56.3396 148.816C56.5876 152.072 56.7596 156.564 56.8676 161.583C57.2236 177.716 56.9329 199.283 56.3396 202.638C56.3396 202.638 50.2982 201.998 49.5236 207.743C49.4049 208.624 49.6316 209.386 50.4169 209.803C51.6062 210.43 54.3609 210.951 56.5089 210.718C59.3142 210.416 61.1236 209.383 63.1089 207.398C63.4982 205.846 63.2369 194.432 64.8462 190.174C64.8462 190.174 65.4396 171.662 66.6222 156.674C67.2449 148.752 68.0342 141.814 68.9902 139.11C68.9902 139.11 69.3156 139.527 69.7316 140.336C70.4502 141.732 71.4436 144.283 71.5169 147.851C72.1649 155.799 72.4089 169.019 72.4836 180.85C72.5716 194.351 72.4396 206.046 72.4396 206.046C72.4396 206.046 67.5676 206.646 66.8756 211.415C66.7609 212.204 67.1809 212.98 67.9022 213.323C69.4102 214.038 71.9849 215.038 75.3996 214.211C76.6502 213.91 79.4956 211.927 79.6862 209.955C79.6862 209.034 79.2822 201.015 80.4209 193.768C80.5662 184.475 80.8716 172.258 81.4542 161.575C81.9556 152.299 82.6676 144.175 83.6596 140.127C83.7516 139.751 83.8462 139.412 83.9409 139.11C83.9409 139.11 92.5662 138.074 103.95 133.36C112.736 129.722 123.025 125.606 129.801 123.862C131.809 123.343 133.51 123.035 134.774 123.007C138.664 122.926 146.377 122.218 158.676 128.923C159.957 129.62 161.288 130.4 162.67 131.271C166.542 133.703 170.818 136.844 175.508 140.886C175.88 141.207 176.26 141.536 176.638 141.871C199.754 162.226 208.61 175.568 210.224 179.823C211.833 184.078 215.512 192.474 215.052 197.996C215.052 197.996 211.154 199.676 210.426 202.868C210.274 203.522 210.257 204.243 210.437 205.026C210.637 205.9 216.433 207.543 219.192 206.967C221.953 206.391 223.334 204.667 223.334 204.667C223.334 204.667 223.772 199.687 225.405 197.047C225.672 196.61 225.7 196.071 225.458 195.622C223.694 192.291 216.572 178.576 212.981 164.411C212.981 164.411 198.186 148.346 190.126 133.872C189.56 132.863 189.032 131.86 188.544 130.871" stroke="black" stroke-width="0.508" stroke-miterlimit="10" stroke-linecap="round" stroke-linejoin="round"/>
<path d="M188.544 130.867C188.15 130.078 187.785 129.298 187.449 128.53C180.664 113.003 175.717 95.2899 168.128 86.4339C168.128 86.4339 172.498 83.6726 172.498 81.8339C172.498 81.1459 172.244 80.5433 171.838 80.1433C171.157 79.4659 170.06 79.3739 169.049 80.4553C167.437 82.1793 164.68 83.9033 162.836 84.1339C160.996 84.3646 129.14 77.3486 107.864 68.2646C91.117 61.1126 87.2743 58.8326 80.949 55.6113C78.849 54.5433 76.6903 53.2806 74.5703 51.9153C71.0877 49.6713 67.7063 47.1619 64.8463 44.8006C61.5637 42.0926 54.8423 34.7953 54.0357 32.6099C53.6703 31.6073 52.741 27.3619 51.945 22.0166C51.0063 15.7006 50.2517 7.85792 50.817 2.01659C50.841 1.78059 50.8343 1.55259 50.8037 1.34592C50.7357 0.868591 50.533 0.50592 50.2317 0.391253C49.6917 0.17792 48.8423 0.74726 47.8837 2.82326C45.061 8.94193 42.537 18.0046 41.8463 24.5606C41.8463 24.5606 39.261 24.5366 35.873 25.1699C34.5343 25.4206 33.0717 25.7739 31.5903 26.2713" stroke="black" stroke-width="0.508" stroke-miterlimit="10" stroke-linecap="round" stroke-linejoin="round"/>
<path d="M28.0434 5.55755C28.7514 7.88155 29.4941 12.3229 31.2647 17.2562C33.3927 23.1789 35.8661 25.1335 35.8661 25.1335" stroke="black" stroke-width="0.508" stroke-miterlimit="10" stroke-linecap="round" stroke-linejoin="round"/>
<path d="M28.4567 27.1895C28.4567 27.1895 28.5341 21.5989 28.1887 16.9855C28.1487 16.4255 28.0981 15.8775 28.0434 15.3589C28.0034 14.9722 27.9487 14.5655 27.8847 14.1429C27.2434 9.85355 25.6381 4.06688 26.8954 3.85621C27.3487 3.78288 27.6914 4.41221 28.0434 5.55355" stroke="black" stroke-width="0.508" stroke-miterlimit="10" stroke-linecap="round" stroke-linejoin="round"/>
<path d="M22.0638 56.187C22.0638 56.187 25.8585 56.5323 27.3558 56.0723C28.6158 55.6816 33.8092 53.1683 39.8198 51.8363C40.9345 51.5896 42.0758 51.383 43.2252 51.2403" stroke="black" stroke-width="0.508" stroke-miterlimit="10" stroke-linecap="round" stroke-linejoin="round"/>
<path d="M51.9454 21.9923V22.0163C52.0334 23.375 52.0001 24.5056 51.8814 25.4376C51.0574 31.807 46.1041 28.707 46.1854 23.0083C46.2134 20.9017 46.7547 14.5416 48.0494 8.93498C48.7401 5.93632 49.6481 3.15232 50.8041 1.34565C50.8067 1.33898 50.8134 1.33232 50.8174 1.32565" stroke="black" stroke-width="0.508" stroke-miterlimit="10" stroke-linecap="round" stroke-linejoin="round"/>
<path d="M1.47864 49.7193C1.4853 49.7153 1.49197 49.7127 1.49864 49.7087C1.97997 49.4553 2.81064 49.4927 3.77597 49.726C4.1693 49.8207 4.57464 49.818 4.96797 49.7233C6.2253 49.414 7.61064 49.4073 8.03464 49.9767C8.24397 50.262 8.38264 50.5593 8.4613 50.858C8.81997 52.1793 8.05864 53.5033 7.65864 53.714C6.48264 54.3367 6.61197 53.046 6.25597 52.674C6.16397 52.5793 6.03864 52.5447 5.8493 52.6233C5.68664 52.69 5.6053 52.8127 5.57464 52.9753C5.45597 53.65 6.21864 55.0073 5.7333 55.8407" stroke="black" stroke-width="0.508" stroke-miterlimit="10" stroke-linecap="round" stroke-linejoin="round"/>
<path d="M29.3784 36.8757C29.3384 37.9944 28.3997 38.8677 27.2784 38.8277C26.1597 38.7864 25.2864 37.8477 25.3264 36.7264C25.3677 35.609 26.3051 34.7344 27.4264 34.7757C28.5451 34.8157 29.4197 35.757 29.3784 36.8757Z" stroke="black" stroke-width="0.508" stroke-miterlimit="10" stroke-linecap="round" stroke-linejoin="round"/>
<path d="M35.2394 37.0892C35.1914 38.3972 34.0914 39.4199 32.7834 39.3732C31.4754 39.3252 30.4527 38.2239 30.4994 36.9159C30.5474 35.6052 31.6447 34.5826 32.9554 34.6332C34.2634 34.6799 35.2874 35.7786 35.2394 37.0892Z" stroke="black" stroke-width="0.508" stroke-miterlimit="10" stroke-linecap="round" stroke-linejoin="round"/>
<path d="M27.9926 36.9535C27.986 37.1908 27.786 37.3775 27.5486 37.3708C27.3086 37.3602 27.122 37.1602 27.1326 36.9228C27.142 36.6855 27.342 36.5002 27.5793 36.5068C27.8166 36.5162 28.0033 36.7162 27.9926 36.9535Z" stroke="black" stroke-width="0.127" stroke-miterlimit="10"/>
<path d="M33.2507 37.1466C33.2441 37.384 33.0441 37.5706 32.8067 37.56C32.5667 37.5533 32.3841 37.3533 32.3907 37.1133C32.4001 36.876 32.6001 36.6893 32.8374 36.7C33.0747 36.7066 33.2614 36.9066 33.2507 37.1466Z" stroke="black" stroke-width="0.127" stroke-miterlimit="10"/>
<path d="M51.5083 94.4875C51.5083 94.4875 51.651 98.2008 52.1923 103.133C52.9923 110.408 54.6697 120.324 58.0643 124.85C58.515 125.45 58.959 126.029 59.3923 126.589C64.2203 132.798 68.0723 136.626 69.7323 140.337C69.8163 140.522 69.895 140.706 69.9657 140.892" stroke="black" stroke-width="0.508" stroke-miterlimit="10" stroke-linecap="round" stroke-linejoin="round"/>
<path d="M83.941 139.11C83.941 139.11 84.629 135.81 84.9677 131.931C85.0623 130.861 85.1263 129.746 85.1477 128.645" stroke="black" stroke-width="0.508" stroke-miterlimit="10" stroke-linecap="round" stroke-linejoin="round"/>
<path d="M144.666 102.595C144.666 102.595 146.33 111.994 153.608 121.791C155.985 124.999 158.97 128.252 162.693 131.234" stroke="black" stroke-width="0.508" stroke-miterlimit="10" stroke-linecap="round" stroke-linejoin="round"/>
<path d="M129.831 123.986C129.831 123.986 133.463 129.617 136.671 137.578C137.291 139.12 137.893 140.75 138.456 142.444C141.747 152.397 160.536 167.806 160.536 167.806C160.536 167.806 160.451 186.352 158.124 191.613C158.124 191.613 152.496 192.281 151.395 196.573C151.111 197.684 151.571 198.86 152.527 199.497C153.685 200.273 155.447 201.204 157.087 201.1C159.387 200.957 161.068 200.08 162.867 199.073C163.944 198.47 164.537 197.986 164.588 197.254C164.973 191.657 166.807 169.06 171.404 162.802C171.404 162.802 155.897 147.942 158.639 128.99" stroke="black" stroke-width="0.508" stroke-miterlimit="10" stroke-linecap="round" stroke-linejoin="round"/>
<path d="M52.491 206.178C52.491 206.178 51.1777 207.279 51.263 209.99" stroke="black" stroke-width="0.508" stroke-miterlimit="10" stroke-linecap="round"/>
<path d="M56.5565 206.855C56.5565 206.855 55.2431 207.957 55.3285 210.667" stroke="black" stroke-width="0.508" stroke-miterlimit="10" stroke-linecap="round"/>
<path d="M69.7771 209.905C69.7771 209.905 68.6278 211.006 68.7024 213.717" stroke="black" stroke-width="0.475" stroke-miterlimit="10" stroke-linecap="round"/>
<path d="M73.4962 210.921C73.4962 210.921 72.2682 211.979 72.3109 214.478" stroke="black" stroke-width="0.508" stroke-miterlimit="10" stroke-linecap="round"/>
<path d="M154.246 195.801C154.246 195.801 152.734 196.606 152.257 199.276" stroke="black" stroke-width="0.508" stroke-miterlimit="10" stroke-linecap="round"/>
<path d="M157.762 197.208C157.762 197.208 156.278 198.066 155.893 200.75" stroke="black" stroke-width="0.508" stroke-miterlimit="10" stroke-linecap="round"/>
<path d="M213.418 202.112C213.418 202.112 212.105 203.214 212.19 205.924" stroke="black" stroke-width="0.508" stroke-miterlimit="10" stroke-linecap="round"/>
<path d="M218.161 203.129C218.161 203.129 216.848 204.23 216.933 206.941" stroke="black" stroke-width="0.508" stroke-miterlimit="10" stroke-linecap="round"/>
</svg>
