<svg width="270" height="197" viewBox="0 0 270 197" fill="none" xmlns="http://www.w3.org/2000/svg">
<path d="M245.964 58.5261C246.716 58.9394 247.35 59.1047 247.726 58.9847C251.599 59.8021 258.638 60.1687 264.328 54.2314C269.054 49.2941 266.383 40.7141 265.898 39.2914C267.567 41.3287 268.687 43.9167 268.916 47.0274C269.971 61.2421 256.655 65.6114 249.406 67.7394L241.614 63.6381L240.926 53.7727L241.238 53.5981C241.88 54.7914 242.688 55.8287 243.514 56.6541C243.707 56.8381 243.891 57.0207 244.083 57.1861C244.735 57.7647 245.386 58.2234 245.964 58.5261Z" fill="#BCBEC0"/>
<path d="M251.18 44.6045C241.847 44.9805 244.558 55.7365 244.979 56.9752L244.123 57.1858C243.931 57.0205 243.727 56.8378 243.534 56.6538C242.708 55.8285 241.891 54.7912 241.248 53.5978C240.551 52.3045 240.032 50.8272 239.886 49.1925C239.362 43.4485 242.278 37.6298 248.418 34.9312C253.979 32.4912 261.676 34.1245 265.899 39.2912C266.384 40.7138 269.055 49.2938 264.328 54.2312C258.639 60.1685 251.6 59.8018 247.727 58.9845C247.782 58.9765 247.827 58.9485 247.874 58.9205C248.855 58.2698 248.838 57.2965 248.46 56.1218L248.488 56.1125C254.508 55.2405 258.314 51.7805 256.46 47.5138C255.616 45.5778 253.847 44.5592 251.18 44.7232V44.6045Z" fill="#F1F2F2"/>
<path d="M244.98 56.9752C244.557 55.7365 241.848 44.9805 251.181 44.6045V44.7232C248.514 44.9259 246.1 46.8165 246.686 50.8539C246.962 52.7259 248.024 54.5899 248.501 56.1219C248.877 57.2965 248.876 58.2699 247.893 58.9205C247.848 58.9485 247.792 58.9752 247.737 58.9845C247.038 58.8379 246.437 58.6725 245.969 58.5259C245.392 58.2232 244.777 57.7645 244.125 57.1859L244.98 56.9752Z" fill="#BCBEC0"/>
<path d="M248.488 56.1125C254.508 55.2405 258.234 51.7805 256.38 47.5138C255.536 45.5778 253.206 44.5591 251.022 44.7231C248.415 44.9258 246.019 46.8165 246.607 50.8538C246.882 52.7258 247.983 54.5898 248.46 56.1218C248.836 57.2965 248.855 58.2698 247.874 58.9205C247.827 58.9485 247.782 58.9765 247.727 58.9845C247.35 59.1045 246.718 58.9391 245.964 58.5258C245.387 58.2231 244.735 57.7645 244.083 57.1858C243.891 57.0205 243.707 56.8378 243.514 56.6538C242.688 55.8285 241.88 54.7911 241.239 53.5978C240.54 52.3045 240.027 50.8271 239.88 49.1925C239.358 43.4485 242.275 37.6298 248.415 34.9325C253.976 32.4911 261.676 34.1245 265.898 39.2911C267.567 41.3285 268.687 43.9165 268.916 47.0271C269.972 61.2431 256.656 65.6111 249.406 67.7405L241.615 63.6378L240.926 53.7725" stroke="black" stroke-width="1.377" stroke-miterlimit="10" stroke-linecap="round" stroke-linejoin="round"/>
<path d="M235.496 118.187C235.002 118.187 234.594 117.552 234.58 117.055C234.564 116.548 234.962 116.004 235.468 115.989C235.517 115.988 240.374 115.764 243.164 114.527C243.628 114.323 244.168 114.499 244.374 114.964C244.58 115.427 244.372 116.195 243.908 116.401C240.788 117.787 235.737 118.187 235.524 118.187H235.496Z" fill="black"/>
<path d="M65.935 49.9037V49.9051V49.9037ZM65.935 49.9077V49.9091V49.9077ZM65.7323 50.9344C65.4923 50.9344 65.2603 50.8091 65.1337 50.5877C64.739 49.8971 65.835 48.5464 66.279 48.1317C67.135 47.3331 68.983 46.2677 71.731 48.1051C72.047 48.3171 72.1323 48.7437 71.9217 49.0597C71.7097 49.3771 71.283 49.4624 70.9657 49.2491C69.859 48.5091 68.8763 48.2944 68.0403 48.6144C67.027 49.0011 66.5097 50.0331 66.4177 50.2864C66.4043 50.5104 66.2817 50.7237 66.0737 50.8424C65.9657 50.9051 65.8483 50.9344 65.7323 50.9344" fill="black"/>
<path d="M39.737 32.9312C37.553 29.2978 39.6997 24.1672 37.589 11.8338C37.589 11.8338 47.749 3.82185 57.6783 5.90451C48.657 11.0352 43.1877 26.7272 40.085 33.0965L39.737 32.9312Z" fill="#473023"/>
<path d="M63.5792 4.03262C65.2766 3.72996 66.9099 3.52729 68.4619 3.39929L68.5352 4.28996C61.3579 8.69396 55.6966 7.56595 41.8472 43.622C37.5899 54.6993 24.1366 63.6193 15.3899 68.446L8.51656 65.014L7.83789 64.9593C8.63522 63.362 9.81922 61.8299 11.5179 60.4353C29.5419 52.8553 36.3326 40.3193 39.7366 33.7846C39.8472 33.574 39.9672 33.3446 40.0859 33.0966C43.1872 26.7273 48.6579 11.0353 57.6779 5.90462C58.7886 5.27129 59.9446 4.79396 61.1566 4.51929C61.9739 4.33529 62.7806 4.16996 63.5792 4.03262Z" fill="white"/>
<path d="M70.7648 42.2185C74.4355 39.8505 74.9581 34.3625 74.1235 30.2785C73.4541 27.0212 69.0675 22.0558 62.6981 23.1572C57.2555 24.1025 57.5675 29.9665 56.0995 33.6292C54.6128 37.3545 52.3275 39.9145 52.3275 42.9532C52.3275 45.9905 54.1915 51.3585 58.5128 50.9185C62.4595 50.5052 67.1955 44.5305 70.7648 42.2185V42.2185ZM41.8475 43.6225C55.6955 7.56518 61.3581 8.69451 68.5341 4.28917L68.4608 3.39984C71.0581 3.17984 73.4075 3.17051 75.3995 3.26118L75.3528 4.28917C75.3528 4.28917 74.2888 11.3278 76.8861 18.3585C79.4835 25.3972 87.5955 30.5998 90.6515 39.1625C93.6715 47.6145 104.133 51.0012 116.466 33.7385L116.577 33.8118C119.101 41.3838 108.317 49.8718 92.0288 60.6558C85.0621 65.2625 74.3435 70.7505 63.3315 73.5038C52.0901 84.5158 44.5141 86.4425 37.8475 89.3332V89.3612C37.8475 89.3705 37.3781 90.1865 37.3608 90.1865H37.3515C37.1955 90.1865 37.1221 89.5905 37.1221 89.5905C37.1221 89.5905 36.8368 89.4758 36.3328 89.6225C15.5275 90.3745 18.1528 69.9358 18.1528 69.9358L15.3901 68.4985C24.1355 63.6705 37.5901 54.6998 41.8475 43.6225" fill="#F1F2F2"/>
<path d="M15.3903 68.4465C10.8116 70.9705 7.51697 72.3745 7.51697 72.3745L6.47031 72.4572C6.29564 70.0252 6.59831 67.4279 7.83698 64.9599L8.51697 65.0145L15.3903 68.4465Z" fill="#BCBEC0"/>
<path d="M15.3903 68.4465L18.1529 69.8318C18.1529 69.8318 15.5276 90.1692 36.3329 89.4158C33.9183 90.1318 26.5036 92.1332 21.9703 91.2705C16.4823 90.2238 9.94894 82.9092 9.94894 82.9092C9.94894 82.9092 6.88361 78.1465 6.47028 72.4572L7.51694 72.3745C7.51694 72.3745 10.8116 70.9705 15.3903 68.4465" fill="#BCBEC0"/>
<path d="M132.224 42.6681C133.344 42.7788 134.738 42.9988 136.317 43.2641L136.308 43.9068C136.28 44.5854 136.244 45.2561 136.197 45.9161C133.564 45.2654 131.004 44.4481 128.636 43.4294C130.177 42.8694 131.406 42.5854 132.224 42.6681Z" fill="#0E1F2B"/>
<path d="M128.635 43.4298C131.003 44.4485 133.563 45.2658 136.198 45.9165C134.473 69.6392 117.981 78.4218 110.841 81.9925L97.7634 60.6552L97.6714 60.4992C107.161 55.0205 121.339 46.1005 128.635 43.4298Z" fill="#0E1F2B"/>
<path d="M67.9473 99.451C67.3326 96.147 67.3686 84.8536 67.406 80.8536H67.434C67.434 80.8536 68.6086 88.6403 76.3166 92.1363C74.83 100.699 82.5113 119.652 90.6886 130.004C85.9713 127.572 81.4566 125.219 78.758 122.548C78.63 122.43 78.51 122.258 78.4006 122.139C78.318 122.047 78.2446 121.934 78.162 121.842C78.162 121.842 78.1526 122.003 78.1526 122.012C70.7833 113.955 68.7273 103.58 67.9473 99.451Z" fill="#142E40"/>
<path d="M250.066 70.6215C250.544 72.7775 250.884 74.8522 251.13 76.8522C250.653 77.1095 248.726 78.1189 245.68 79.0735C242.945 65.7122 234.942 52.4055 227.234 46.0455L227.325 45.8429C239.778 51.1482 248.14 61.8482 250.066 70.6215Z" fill="#36281A"/>
<path d="M250.066 70.6215C250.544 72.7775 250.884 74.8522 251.13 76.8522C250.653 77.1095 248.726 78.1189 245.68 79.0735C242.945 65.7122 234.942 52.4055 227.234 46.0455L227.325 45.8429C239.778 51.1482 248.14 61.8482 250.066 70.6215Z" stroke="#36281A" stroke-width="0.135" stroke-miterlimit="10"/>
<path d="M251.131 76.8528C252.379 86.9848 251.048 94.9501 250.59 98.9781C250.039 103.861 250.186 107.917 250.544 110.973L247.846 111.221C247.295 106.421 246.478 98.8048 246.662 89.0221C246.726 85.7728 246.368 82.4234 245.68 79.0741C248.727 78.1194 250.654 77.1101 251.131 76.8528Z" fill="#BCBEC0"/>
<path d="M250.544 110.973C251.03 115.102 251.893 117.397 251.893 117.397C251.893 117.397 243.276 126.281 239.357 136.21C235.961 140.385 223.94 140.909 222.636 139.862C221.333 138.825 221.324 135.724 222.618 132.089L222.801 132.154C222.801 132.154 233.51 134.76 236.568 130.63C239.624 126.501 247.58 118.241 248.194 116.865C248.433 116.324 248.194 114.378 247.846 111.221L250.544 110.973Z" fill="#BCBEC0"/>
<path d="M188.424 81.4505C186.037 68.9519 182.276 56.8185 177.613 46.3758C186.011 44.9158 199.483 42.9252 210.485 42.9065C212.165 49.5412 206.219 56.9385 208.861 65.6479C211.541 74.4665 220.251 80.8265 231.859 81.0559C237.54 81.1665 242.303 80.1479 245.68 79.0732C246.368 82.4239 246.727 85.7732 246.661 89.0212C246.479 98.8039 247.295 106.421 247.845 111.221C248.195 114.377 248.433 116.324 248.195 116.865C247.58 118.241 239.623 126.501 236.567 130.631C233.511 134.76 222.801 132.155 222.801 132.155L222.617 132.089C222.617 132.072 222.627 132.044 222.636 132.025C223.939 128.373 236.741 116.875 236.741 116.875C236.741 116.875 222.636 116.085 215.836 111.643C210.137 116.287 200.445 121.985 190.076 127.52C192.269 113.323 191.425 97.1612 188.443 81.5612C188.443 81.5239 188.433 81.4865 188.424 81.4505Z" fill="#F1F2F2"/>
<path d="M245.68 79.0735C242.303 80.1469 237.54 81.1655 231.859 81.0562C220.251 80.8269 211.541 74.4669 208.861 65.6469C206.219 56.9389 212.165 49.5415 210.485 42.9069C215.304 42.8975 219.653 43.2735 222.893 44.2375C224.425 44.6962 225.904 45.2282 227.325 45.8429L227.235 46.0455C234.943 52.4055 242.945 65.7122 245.68 79.0735Z" fill="#473023"/>
<path d="M188.443 81.5606C191.425 97.162 192.269 113.322 190.076 127.519C188.553 128.337 187.011 129.143 185.46 129.942C191.627 115.451 189.719 91.9953 188.443 81.5606Z" fill="#0E1F2B"/>
<path d="M188.443 81.5606C188.443 81.5233 188.433 81.4873 188.424 81.45C186.039 68.9513 182.276 56.8193 177.613 46.3753C172.749 47.2206 169.593 47.89 169.593 47.89C169.593 47.89 151.569 49.7246 136.197 45.9166C134.472 69.6393 117.981 78.422 110.841 81.9913L97.7639 60.6553L97.6719 60.4993C96.3785 61.2513 95.1759 61.9313 94.0839 62.5273C90.6692 64.3806 87.8892 66.8593 85.6319 69.622C79.7025 76.8526 77.2985 86.1126 76.3172 91.7926C74.8305 100.355 82.5119 119.481 90.6879 129.833C99.8465 134.531 109.776 139.817 108.712 149.793C108.721 150.131 108.795 150.499 108.932 150.894C110.492 151.609 123.451 157.299 133.784 154.721C137.4 153.811 141.603 150.729 144.245 148.535C145.833 147.223 146.861 146.231 146.861 146.231L149.045 134.641C152.697 139.009 157.552 140.937 162.499 141.294C171.988 142.001 181.835 136.981 184.257 132.466C184.689 131.658 185.093 130.814 185.46 129.942C191.627 115.451 189.719 91.9953 188.443 81.5606Z" fill="#142E40"/>
<path d="M188.443 81.5606C188.443 81.5233 188.433 81.4873 188.424 81.45C186.039 68.9513 182.276 56.8193 177.613 46.3753C172.749 47.2206 169.593 47.89 169.593 47.89C169.593 47.89 151.569 49.7246 136.197 45.9166C134.472 69.6393 117.981 78.422 110.841 81.9913L97.7639 60.6553L97.6719 60.4993C96.3785 61.2513 95.1759 61.9313 94.0839 62.5273C90.6692 64.3806 87.8892 66.8593 85.6319 69.622C79.7025 76.8526 77.2985 86.1126 76.3172 91.7926C74.8305 100.355 82.5119 119.481 90.6879 129.833C99.8465 134.531 109.776 139.817 108.712 149.793C108.721 150.131 108.795 150.499 108.932 150.894C110.492 151.609 123.451 157.299 133.784 154.721C137.4 153.811 141.603 150.729 144.245 148.535C145.833 147.223 146.861 146.231 146.861 146.231L149.045 134.641C152.697 139.009 157.552 140.937 162.499 141.294C171.988 142.001 181.835 136.981 184.257 132.466C184.689 131.658 185.093 130.814 185.46 129.942C191.627 115.451 189.719 91.9953 188.443 81.5606Z" stroke="#142E40" stroke-width="0.135" stroke-miterlimit="10"/>
<path d="M175.769 42.4386C176.393 43.724 177.008 45.036 177.614 46.376C172.75 47.22 169.593 47.8893 169.593 47.8893C169.593 47.8893 151.569 49.7253 136.197 45.9173C136.244 45.256 136.28 44.5866 136.308 43.9066L136.317 43.2653C142.117 44.2653 150.293 45.9906 155.221 45.8706C163.252 45.6693 168.73 42.448 171.585 41.0253C173.126 40.2546 175.008 40.888 175.769 42.4386Z" fill="#142E40"/>
<path d="M185.46 129.942C185.093 130.814 184.689 131.658 184.257 132.466C181.835 136.981 171.988 142.001 162.499 141.294C157.552 140.937 152.697 139.009 149.045 134.641L146.861 146.232C146.861 146.232 145.833 147.222 144.245 148.536L146.292 148.856C146.301 148.829 146.311 148.81 146.329 148.792C146.339 148.765 146.339 148.746 146.339 148.746C169.849 152.408 188.663 134.641 188.663 134.641C189.223 132.328 189.691 129.952 190.076 127.52C188.553 128.337 187.011 129.144 185.46 129.942Z" fill="#0E1F2B"/>
<path d="M185.46 129.942C185.093 130.814 184.689 131.658 184.257 132.466C181.835 136.981 171.988 142.001 162.499 141.294C157.552 140.937 152.697 139.009 149.045 134.641L146.861 146.232C146.861 146.232 145.833 147.222 144.245 148.536L146.292 148.856C146.301 148.829 146.311 148.81 146.329 148.792C146.339 148.765 146.339 148.746 146.339 148.746C169.849 152.408 188.663 134.641 188.663 134.641C189.223 132.328 189.691 129.952 190.076 127.52C188.553 128.337 187.011 129.144 185.46 129.942Z" stroke="#0E1F2B" stroke-width="0.135" stroke-miterlimit="10"/>
<path d="M146.329 148.792C146.329 148.811 146.32 148.828 146.31 148.856H146.292C146.301 148.828 146.31 148.811 146.329 148.792Z" fill="white"/>
<path d="M146.292 150.187H146.311C146.063 150.187 143.971 159.759 138.445 163.375C141.804 161.025 145.833 150.187 146.292 150.187Z" fill="white"/>
<path d="M123.258 161.291C115.522 158.906 110.06 154.096 108.932 150.894C110.492 151.61 123.45 157.299 133.784 154.72C137.399 153.812 141.603 150.728 144.246 148.535L146.292 148.856C145.834 149.984 141.804 159.694 138.446 162.043C138.29 162.144 138.134 162.246 137.978 162.338C132.6 163.208 127.571 162.622 123.258 161.291Z" fill="#0E1F2B"/>
<path d="M123.258 161.291C115.522 158.906 110.06 154.096 108.932 150.894C110.492 151.61 123.45 157.299 133.784 154.72C137.399 153.812 141.603 150.728 144.246 148.535L146.292 148.856C145.834 149.984 141.804 159.694 138.446 162.043C138.29 162.144 138.134 162.246 137.978 162.338C132.6 163.208 127.571 162.622 123.258 161.291Z" stroke="#0E1F2B" stroke-width="0.135" stroke-miterlimit="10"/>
<path d="M123.258 161.291C127.571 162.622 132.6 163.209 137.978 162.338C134.316 164.163 86.5029 178.278 77.3536 184.281C68.2136 190.291 65.5976 195.779 60.1096 195.779C54.6216 195.779 47.5736 193.173 46.0043 190.557C44.4349 187.942 45.2163 184.803 47.0509 183.499C47.0509 183.499 53.9429 190.429 60.9816 188.446C68.0109 186.455 72.1416 181.866 78.4189 178.351C84.6403 174.855 117.512 164.586 123.258 161.291Z" fill="#BCBEC0"/>
<path d="M37.8469 89.3611V89.3331C44.5136 86.4425 52.0896 84.5158 63.3309 73.5038C74.3443 70.7505 85.1683 65.2625 92.1336 60.6558C108.423 49.8718 119.154 41.3838 116.63 33.8118L116.494 33.7385C116.584 33.6198 116.663 33.4905 116.755 33.3531C118.636 36.1065 120.952 38.9518 123.347 40.5758C124.962 41.6678 126.739 42.6131 128.639 43.4305C121.343 46.0998 107.163 55.0211 97.6736 60.4998C96.3803 61.2518 95.1763 61.9305 94.0843 62.5278C90.6709 64.3811 87.8896 66.8585 85.6323 69.6211L85.5856 69.5838C75.5283 73.2371 67.4336 78.2011 67.4336 78.2011C67.4336 78.2011 47.0509 89.7011 42.8669 90.2238C39.5989 90.6371 38.1403 89.7651 37.5709 89.3611C37.5896 89.3705 37.8469 89.3705 37.8469 89.3611Z" fill="#BCBEC0"/>
<path d="M112.374 25.9474C112.374 25.9474 113.704 28.6728 115.751 31.8754C110.878 30.3528 100.59 39.3181 100.59 39.3181L100.508 39.2914C100.939 38.1714 101.443 36.9688 102.086 36.0061C103.307 34.1794 108.079 29.9208 111.511 25.3234L112.374 25.9474Z" fill="#826340"/>
<path d="M113.025 9.15338L112.98 9.18138C103.921 2.16938 82.0611 3.99605 82.0611 3.99605C82.0611 3.99605 82.0158 3.98672 81.9144 3.95872C82.6211 2.86672 83.4291 2.01338 84.2824 1.77472C87.1918 0.958715 103.288 0.600049 108.584 3.73872C109.868 4.50005 111.649 6.53738 113.025 9.15338Z" fill="#DEA96E"/>
<path d="M113.025 9.1534L112.98 9.1814C110.997 14.9894 108.657 18.9081 106.244 21.5054C98.6453 29.7281 90.3479 24.7814 90.3479 24.7814L89.9906 24.8827C92.2026 32.9041 98.1946 42.8694 98.8919 42.6587C99.3879 42.5027 99.8559 40.9974 100.508 39.2907C100.939 38.1707 101.444 36.9694 102.087 36.0054C103.307 34.1787 108.079 29.9214 111.511 25.3241C112.621 23.8281 113.604 22.2854 114.264 20.7894C115.935 17.0001 114.833 12.5854 113.025 9.1534Z" fill="#826340"/>
<path d="M113.025 9.1534L112.98 9.1814C110.997 14.9894 108.657 18.9081 106.244 21.5054C98.6453 29.7281 90.3479 24.7814 90.3479 24.7814L89.9906 24.8827C92.2026 32.9041 98.1946 42.8694 98.8919 42.6587C99.3879 42.5027 99.8559 40.9974 100.508 39.2907C100.939 38.1707 101.444 36.9694 102.087 36.0054C103.307 34.1787 108.079 29.9214 111.511 25.3241C112.621 23.8281 113.604 22.2854 114.264 20.7894C115.935 17.0001 114.833 12.5854 113.025 9.1534Z" stroke="#826340" stroke-width="0.135" stroke-miterlimit="10"/>
<path d="M108.932 150.894C110.062 154.096 115.522 158.906 123.258 161.291C117.512 164.586 84.6402 174.855 78.4189 178.351C72.1416 181.866 68.0109 186.455 60.9816 188.446C53.9429 190.428 47.0509 183.5 47.0509 183.5C48.8776 182.196 52.2722 182.454 54.8882 181.151C57.5042 179.838 75.2709 166.256 81.7949 162.86C88.3296 159.466 107.978 156.703 108.712 149.792C108.722 150.132 108.795 150.499 108.932 150.894Z" fill="#F1F2F2"/>
<path d="M90.6881 129.832C99.8468 134.531 109.776 139.816 108.712 149.792C108.601 142.46 103.021 140.881 96.6161 135.76C97.3321 135.384 97.7361 135.164 97.7361 135.164L97.0014 133.989C95.2761 133.007 93.4601 132.007 91.6428 130.997C91.3214 130.621 91.0001 130.236 90.6881 129.832Z" fill="#142E40"/>
<path d="M115.751 31.8758C110.877 30.3531 100.591 39.3185 100.591 39.3185L100.508 39.2905C99.8561 40.9971 99.3881 42.5025 98.8921 42.6585C98.1948 42.8705 92.2028 32.9038 89.9908 24.8825L90.3481 24.7825C90.3481 24.7825 98.6441 29.7278 106.243 21.5051C108.657 18.9091 110.997 14.9905 112.979 9.18113C103.921 2.16913 82.0614 3.9958 82.0614 3.9958L87.5214 7.9518L87.3748 8.15313C87.3201 8.1158 87.2748 8.0798 87.2188 8.0518C85.5214 7.0798 83.8788 8.1718 83.6948 8.8318L78.9868 10.5945C78.9868 10.5945 80.1801 6.59313 81.9148 3.9598C81.3268 3.84913 78.9321 3.3998 75.3988 3.26113L75.3534 4.28913C75.3534 4.28913 74.2881 11.3278 76.8854 18.3585C79.4828 25.3971 87.5961 30.5998 90.6521 39.1625C93.6708 47.6145 104.132 51.0011 116.467 33.7385C116.559 33.6198 116.649 33.4905 116.741 33.3531C116.393 32.8585 116.063 32.3625 115.751 31.8758Z" fill="#C49661"/>
<path d="M97.002 133.989L97.7366 135.164C97.7366 135.164 97.3326 135.384 96.6166 135.76C95.6166 134.971 94.5886 134.081 93.5606 133.072C92.918 132.448 92.2753 131.751 91.642 130.997C93.4593 132.007 95.2766 133.008 97.002 133.989Z" fill="#142E40"/>
<path d="M84.7414 135.632C79.7854 129.86 78.0148 121.903 78.0148 121.903C78.0601 121.876 78.1068 121.848 78.1521 121.829C78.2348 121.921 78.3174 122.004 78.4001 122.096C78.5108 122.215 78.6294 122.344 78.7574 122.463C81.5841 125.28 86.6041 128.18 91.6428 130.997C92.2761 131.751 92.9188 132.448 93.5601 133.072C94.5881 134.081 95.6161 134.971 96.6161 135.76C95.1481 136.549 92.3681 138 89.1001 139.587L88.9814 139.34C87.3668 138.339 85.9534 137.055 84.7414 135.632Z" fill="#0E1F2B"/>
<path d="M88.9814 139.34L89.1014 139.588C83.732 142.202 77.0414 145.177 72.656 146.14C64.2947 147.966 48.3547 150.058 41.82 151.885C35.296 153.712 27.972 158.418 23.5307 158.676C19.0894 158.942 11.7747 156.593 9.68271 153.977C7.59871 151.361 7.59871 146.14 9.15871 144.305C9.38804 144.029 9.73737 143.845 10.1774 143.745L10.352 144.544C10.352 144.544 19.0707 155.409 27.3294 152.041C35.5347 148.692 79.244 141.422 84.7414 135.632C85.9534 137.054 87.3667 138.34 88.9814 139.34Z" fill="#BCBEC0"/>
<path d="M87.5221 7.95116L87.3754 8.15249C87.3208 8.11649 87.2741 8.07916 87.2194 8.05249C85.5221 7.07916 83.8794 8.17116 83.6954 8.83249L78.9874 10.5938C78.9874 10.5938 80.1808 6.59249 81.9154 3.95916C82.0154 3.98716 82.0621 3.99649 82.0621 3.99649L87.5221 7.95116Z" fill="#C49661"/>
<path d="M85.5856 69.5845L85.6323 69.6218C79.703 76.8525 77.299 86.4565 76.3163 92.1365C68.6083 88.6405 67.4336 80.8538 67.4336 80.8538H67.4056C67.4243 79.5205 67.4336 78.5458 67.4336 78.5458C67.4336 78.5458 75.5283 73.2365 85.5856 69.5845" fill="#BCBEC0"/>
<path d="M78.0146 121.903C78.0146 121.903 79.7853 129.859 84.7413 135.632C79.244 141.423 35.5346 148.691 27.3293 152.04C19.0706 155.408 10.352 144.543 10.352 144.543L10.1773 143.744C12.6733 143.111 18.1986 144.708 23.5306 144.047C29.808 143.258 49.144 135.687 57.504 132.026C62.212 129.97 71.1413 125.446 78.0146 121.903Z" fill="#F1F2F2"/>
<path d="M74.1235 30.2791C74.9582 34.3631 74.4355 39.8511 70.7648 42.2191C67.1942 44.5311 62.4595 50.5057 58.5128 50.9177C54.1902 51.3591 52.3275 45.9897 52.3275 42.9524C52.3275 39.9151 54.6128 37.3551 56.0995 33.6284C57.5675 29.9671 57.2555 24.1031 62.6982 23.1577C69.0675 22.0564 73.4542 27.0217 74.1235 30.2791Z" fill="#C49661"/>
<path d="M63.5792 4.0326C62.7805 4.16993 61.9738 4.33526 61.1565 4.51926C59.9445 4.79393 58.7885 5.27126 57.6778 5.9046C47.7485 3.82193 37.5898 11.8326 37.5898 11.8326C37.3698 10.5393 37.8738 9.2366 38.8925 8.40993C43.1418 4.9966 48.9045 1.90326 51.8778 1.42593C55.2645 0.875263 61.0458 1.64593 63.5792 4.0326Z" fill="#6E4A36"/>
<path d="M63.5792 4.0326C62.7805 4.16993 61.9738 4.33526 61.1565 4.51926C59.9445 4.79393 58.7885 5.27126 57.6778 5.9046C47.7485 3.82193 37.5898 11.8326 37.5898 11.8326C37.3698 10.5393 37.8738 9.2366 38.8925 8.40993C43.1418 4.9966 48.9045 1.90326 51.8778 1.42593C55.2645 0.875263 61.0458 1.64593 63.5792 4.0326Z" stroke="#6E4A36" stroke-width="0.135" stroke-miterlimit="10"/>
<path d="M81.9149 3.95916C81.3269 3.8485 78.9322 3.39916 75.3989 3.26183C73.4082 3.16983 71.0589 3.17917 68.4616 3.39916C66.9109 3.5285 65.2762 3.72983 63.5789 4.0325C62.7802 4.16983 61.9736 4.33516 61.1562 4.51916C59.9456 4.79383 58.7882 5.27116 57.6776 5.9045C48.6576 11.0352 43.1869 26.7272 40.0856 33.0965C39.9669 33.3445 39.8469 33.5738 39.7376 33.7845C36.3322 40.3192 29.5416 52.8552 11.5176 60.4352C9.82022 61.8298 8.63623 63.3618 7.83756 64.9592C6.59889 67.4285 6.29622 70.0245 6.46956 72.4565C6.88289 78.1472 9.94823 82.9098 9.94823 82.9098C9.94823 82.9098 16.4829 90.2232 21.9696 91.2698C26.5042 92.1325 33.9189 90.1325 36.3322 89.4165C36.8376 89.2698 37.1216 89.1778 37.1216 89.1778C37.1216 89.1778 37.1949 89.2512 37.3509 89.3618" stroke="black" stroke-width="1.377" stroke-miterlimit="10" stroke-linecap="round" stroke-linejoin="round"/>
<path d="M128.635 43.4298C126.735 42.6125 124.955 41.6672 123.341 40.5752C120.945 38.9512 118.623 36.1072 116.742 33.3538C116.393 32.8578 116.063 32.3618 115.751 31.8752C113.705 28.6725 112.374 25.9472 112.374 25.9472L111.511 25.3232" stroke="black" stroke-width="1.377" stroke-miterlimit="10" stroke-linecap="round" stroke-linejoin="round"/>
<path d="M190.076 127.519C200.447 121.986 210.137 116.287 215.836 111.643C222.636 116.085 236.741 116.874 236.741 116.874C236.741 116.874 223.94 128.373 222.636 132.026C222.627 132.043 222.617 132.071 222.617 132.09C221.324 135.723 221.333 138.826 222.636 139.862C223.94 140.909 235.961 140.386 239.357 136.21C243.276 126.281 251.893 117.397 251.893 117.397C251.893 117.397 251.031 115.103 250.544 110.973C250.185 107.917 250.039 103.861 250.589 98.9781C251.048 94.9501 252.379 86.9848 251.131 76.8528C250.884 74.8528 250.544 72.7781 250.067 70.6221C248.14 61.8488 239.779 51.1475 227.325 45.8435C225.904 45.2288 224.425 44.6968 222.893 44.2381C219.653 43.2741 215.304 42.8981 210.485 42.9061C199.483 42.9248 186.011 44.9168 177.613 46.3755" stroke="black" stroke-width="1.377" stroke-miterlimit="10" stroke-linecap="round" stroke-linejoin="round"/>
<path d="M108.712 149.792C107.977 156.703 88.3292 159.466 81.7958 162.86C75.2705 166.256 57.5038 179.838 54.8878 181.151C52.2732 182.454 48.8772 182.196 47.0505 183.5C45.2158 184.803 44.4358 187.942 46.0052 190.556C47.5745 193.172 54.6225 195.779 60.1105 195.779C65.5985 195.779 68.2132 190.291 77.3545 184.28C86.5038 178.278 134.316 164.164 137.977 162.338C138.133 162.264 138.289 162.163 138.445 162.044" stroke="black" stroke-width="1.377" stroke-miterlimit="10" stroke-linecap="round" stroke-linejoin="round"/>
<path d="M78.7579 122.463C81.4566 125.134 85.9713 127.4 90.6886 129.832" stroke="black" stroke-width="1.377" stroke-miterlimit="10" stroke-linecap="round" stroke-linejoin="round"/>
<path d="M37.3602 89.3612C37.9296 89.7652 39.5989 90.6372 42.8669 90.2238C47.0509 89.7012 67.4336 78.2012 67.4336 78.2012C67.4336 78.2012 67.4242 78.9452 67.4056 80.1652C67.3696 84.7078 67.3322 95.8038 67.9469 99.1078C68.7269 103.237 70.7829 113.772 78.1522 121.829" stroke="black" stroke-width="1.377" stroke-miterlimit="10" stroke-linecap="round" stroke-linejoin="round"/>
<path d="M91.6425 130.998C86.6039 128.18 81.5839 125.28 78.7572 122.463" stroke="black" stroke-width="1.377" stroke-miterlimit="10" stroke-linecap="round" stroke-linejoin="round"/>
<path d="M78.1524 121.83C78.1057 121.848 78.0604 121.875 78.0151 121.903C71.1404 125.446 62.2111 129.97 57.5044 132.026C49.1431 135.687 29.8071 143.258 23.5298 144.047C18.1978 144.708 12.6738 143.111 10.1778 143.744C9.73775 143.846 9.38842 144.03 9.15909 144.304C7.59909 146.14 7.59908 151.362 9.68175 153.978C11.7751 156.592 19.0884 158.942 23.5298 158.676C27.9724 158.419 35.2951 153.711 41.8204 151.884C48.3537 150.059 64.2951 147.966 72.6551 146.14C77.0417 145.176 83.7324 142.203 89.1004 139.587C92.3671 138 95.1484 136.55 96.6164 135.76" stroke="black" stroke-width="1.377" stroke-miterlimit="10" stroke-linecap="round" stroke-linejoin="round"/>
<path d="M85.5856 69.5845C75.5283 73.2365 67.4336 78.2018 67.4336 78.2018" stroke="black" stroke-width="1.377" stroke-miterlimit="10" stroke-linecap="round" stroke-linejoin="round"/>
<path d="M188.443 81.5606C191.425 97.162 192.269 113.322 190.076 127.519C189.691 129.951 189.223 132.329 188.663 134.641C188.663 134.641 169.849 152.407 146.339 148.746C146.339 148.746 146.339 148.765 146.329 148.793C146.329 148.81 146.32 148.829 146.311 148.857C146.063 149.93 143.971 158.429 138.445 162.043C138.289 162.145 138.133 162.246 137.977 162.338C132.6 163.209 127.571 162.622 123.257 161.291C115.521 158.905 110.061 154.097 108.932 150.894C108.795 150.499 108.721 150.131 108.712 149.793C108.603 142.459 103.023 140.881 96.6172 135.761C95.6159 134.971 94.5879 134.081 93.5612 133.071C92.9185 132.447 92.2759 131.75 91.6425 130.998C91.3212 130.622 90.9999 130.235 90.6879 129.833C82.5119 119.481 74.8305 100.355 76.3172 91.7926C77.2985 86.1126 79.7039 76.8527 85.6319 69.6207C87.8892 66.8593 90.6692 64.3807 94.0839 62.5273C95.1759 61.9313 96.3785 61.2513 97.6719 60.4993C107.161 55.0206 121.34 46.1006 128.636 43.43C130.177 42.87 131.407 42.586 132.224 42.6686C133.344 42.778 134.739 42.998 136.317 43.2646C142.117 44.2646 150.293 45.99 155.221 45.8713C163.252 45.6686 168.731 42.4473 171.584 41.026C173.127 40.254 175.008 40.8873 175.769 42.4393C176.393 43.7233 177.008 45.0353 177.613 46.3753C182.276 56.8193 186.039 68.9513 188.424 81.45" stroke="black" stroke-width="1.377" stroke-miterlimit="10" stroke-linecap="round" stroke-linejoin="round"/>
<path d="M67.4333 80.1657C67.4333 80.1657 68.608 88.2964 76.3173 91.7937" stroke="black" stroke-width="1.377" stroke-miterlimit="10" stroke-linecap="round" stroke-linejoin="round"/>
<path d="M78.9874 10.5942C78.9874 10.5942 80.1808 6.59288 81.9154 3.95955C82.6221 2.86755 83.4288 2.01421 84.2821 1.77555C87.1914 0.958212 103.289 0.600878 108.583 3.73954C109.869 4.50088 111.649 6.53821 113.025 9.15288C114.833 12.5849 115.934 16.9995 114.263 20.7902C113.603 22.2862 112.621 23.8275 111.511 25.3235C108.078 29.9209 103.306 34.1795 102.086 36.0049C101.443 36.9689 100.939 38.1715 100.507 39.2915C99.8554 40.9982 99.3874 42.5035 98.8928 42.6595C98.1954 42.8702 92.2021 32.9035 89.9914 24.8822C89.6141 23.5435 89.3581 22.2582 89.2381 21.0835C88.4581 13.1275 88.8981 9.27288 87.3754 8.15288C87.3208 8.11688 87.2741 8.07954 87.2194 8.05154C85.5221 7.07954 83.8794 8.17155 83.6954 8.83154" stroke="black" stroke-width="1.377" stroke-miterlimit="10" stroke-linecap="round" stroke-linejoin="round"/>
<path d="M63.5975 4.05082C63.5881 4.04149 63.5881 4.04149 63.5788 4.03215C61.0468 1.64682 55.2641 0.876152 51.8788 1.42682C48.9055 1.90282 43.1415 4.99615 38.8921 8.40949C37.8735 9.23615 37.3695 10.5388 37.5895 11.8335C39.7001 24.1668 37.5535 29.2975 39.7375 32.9308" stroke="black" stroke-width="1.377" stroke-miterlimit="10" stroke-linecap="round" stroke-linejoin="round"/>
<path d="M78.0145 121.903C78.0145 121.903 79.7852 129.859 84.7412 135.633C85.9532 137.055 87.3665 138.339 88.9812 139.339" stroke="black" stroke-width="1.377" stroke-miterlimit="10" stroke-linecap="round" stroke-linejoin="round"/>
<path d="M91.8268 101.62C91.8268 101.62 113.284 97.799 123.475 86.8257C123.475 86.8257 131.351 100.408 130.823 102.306C129.844 105.834 117.596 113.476 117.596 113.476C117.596 113.476 102.604 118.571 99.9588 117.787C98.5908 117.382 91.8268 101.62 91.8268 101.62Z" fill="#0C1A24"/>
<path d="M100.214 117.142C102.131 117.594 111.634 114.772 117.299 112.849C120.692 110.725 129.42 104.785 130.16 102.121C130.351 101.017 126.914 94.2038 123.336 87.9625C113.976 97.3825 96.855 101.312 92.7976 102.134C95.811 109.094 99.295 116.374 100.214 117.142V117.142ZM100.648 118.545C100.288 118.545 99.9896 118.514 99.7643 118.448C98.3776 118.036 94.339 109.218 91.195 101.892L90.8523 101.096L91.7056 100.942C91.919 100.905 113.058 97.0332 122.97 86.3572L123.603 85.6758L124.07 86.4798C125.951 89.7252 132.047 100.47 131.487 102.489C130.464 106.169 119.238 113.262 117.96 114.06L117.818 114.128C116.39 114.613 104.695 118.545 100.648 118.545" fill="black"/>
<path d="M117.069 109.704L116.273 111.774L114.204 110.978L115 108.908L117.069 109.704Z" fill="#BCBEC0"/>
<path d="M146.338 149.438C146.298 149.438 146.256 149.434 146.216 149.427C145.842 149.361 145.592 149.003 145.659 148.629L150.624 120.802C150.691 120.427 151.05 120.175 151.423 120.245C151.796 120.311 152.046 120.669 151.979 121.043L147.015 148.87C146.955 149.203 146.664 149.438 146.338 149.438Z" fill="black"/>
<path d="M175.405 129.153C176.973 108.086 174.72 93.0958 171.584 81.7304C169.977 75.9038 176.221 71.6278 179.618 79.1824C187.065 95.7411 184.42 125.43 184.42 125.43C184.42 125.43 180.794 130.622 175.405 129.153Z" fill="#0C1A24"/>
<path d="M176.134 128.615C180.278 129.394 183.162 125.948 183.75 125.179C183.955 122.61 185.968 94.9818 178.99 79.4645C177.747 76.6991 175.93 75.3551 174.255 75.9618C172.668 76.5338 171.484 78.7791 172.247 81.5471C176.122 95.5911 177.394 110.992 176.134 128.615ZM177.352 130.108C176.678 130.108 175.967 130.02 175.223 129.816L174.676 129.667L174.718 129.102C176.036 111.394 174.794 95.9578 170.92 81.9125C169.944 78.3751 171.612 75.4511 173.788 74.6671C175.678 73.9818 178.372 74.7351 180.246 78.9005C187.68 95.4338 185.214 124.271 185.106 125.491L185.088 125.674L184.983 125.824C184.846 126.023 181.932 130.108 177.352 130.108Z" fill="black"/>
<path d="M177.757 82.7098L176.385 84.0818L175.013 82.7098L176.385 81.3378L177.757 82.7098Z" fill="#BCBEC0"/>
<path d="M181.592 118.26L179.832 119.075L179.016 117.315L180.776 116.5L181.592 118.26Z" fill="#BCBEC0"/>
<path d="M181.57 123.531L180.832 125.324L179.038 124.585L179.777 122.792L181.57 123.531Z" fill="#BCBEC0"/>
<path d="M136.898 51.3557C135.261 51.3557 133.698 51.6597 132.245 52.1891C130.434 57.8597 127.164 63.4637 123.561 67.7411C124.84 73.9371 130.325 78.5944 136.898 78.5944C144.42 78.5944 150.518 72.4971 150.518 64.9757C150.518 57.4531 144.42 51.3557 136.898 51.3557Z" fill="#C4433B"/>
<path d="M124.305 67.924C125.66 73.728 130.903 77.9054 136.899 77.9054C144.028 77.9054 149.829 72.1054 149.829 64.9747C149.829 57.8454 144.028 52.044 136.899 52.044C135.517 52.044 134.139 52.2734 132.795 52.7254C131.067 57.972 127.992 63.4747 124.305 67.924ZM136.899 79.2827C130.143 79.2827 124.251 74.488 122.887 67.8814C122.844 67.6747 122.897 67.46 123.033 67.2987C126.785 62.8454 129.903 57.2614 131.589 51.98C131.655 51.7774 131.809 51.6147 132.009 51.5427C133.604 50.9614 135.248 50.6667 136.899 50.6667C144.788 50.6667 151.207 57.0854 151.207 64.9747C151.207 72.864 144.788 79.2827 136.899 79.2827" fill="black"/>
<path d="M50.4555 37.7643C49.3848 37.2976 48.1542 37.7496 47.7128 38.7656C47.6715 38.8603 47.6462 38.9576 47.6222 39.0549C47.6062 39.1163 47.6168 39.1829 47.6502 39.2363C47.6835 39.2896 47.7368 39.3336 47.7982 39.3456C48.3768 39.4643 48.8715 39.6549 49.3088 39.9003C49.8702 40.2149 50.3635 41.1029 50.7742 41.6016C50.8128 41.6496 50.8702 42.1869 50.9328 42.1869H50.9515C51.0062 42.1869 51.0608 41.6643 51.1022 41.6283C51.3195 41.4363 51.4862 40.9336 51.5982 40.6763C52.0382 39.6603 51.5262 38.2296 50.4555 37.7643Z" fill="black"/>
<path d="M97.2157 60.4353C97.2157 60.4353 102.898 68.7966 101.33 83.102C101.12 85.0246 115.374 76.5366 122.102 69.3846C130.398 60.566 137.78 44.1046 131.182 34.5686C125.781 26.7606 113.677 28.6233 113.677 28.6233L115.766 31.9553C118.053 32.478 121.168 35.0926 120.601 37.9646C118.772 47.2406 109.757 54.2953 97.2157 60.4353Z" fill="#142E40"/>
<path d="M98.5148 60.8164C99.9028 63.3071 103.373 70.8311 102.333 82.2991C105.405 81.1937 115.911 74.6257 121.435 68.7551C128.937 60.7817 136.984 44.5671 130.428 35.0911C126.472 29.3724 118.493 29.2031 115.245 29.3977L116.352 31.1617C119.043 31.9671 122.151 34.8497 121.501 38.1431C119.835 46.5911 112.523 53.8111 98.5148 60.8164ZM101.54 84.2604C101.351 84.2604 101.193 84.2324 101.067 84.1751C100.617 83.9671 100.364 83.5071 100.419 83.0017C101.932 69.1924 96.5121 61.0324 96.4575 60.9511L95.8615 60.0764L96.8121 59.6111C110.847 52.7404 118.119 45.8057 119.7 37.7871C120.137 35.5711 117.532 33.3004 115.563 32.8497L115.192 32.7657L112.157 27.9297L113.537 27.7164C114.056 27.6377 126.275 25.8617 131.937 34.0457C139.069 44.3551 130.684 61.6031 122.771 70.0137C117.601 75.5071 104.879 84.2604 101.54 84.2604Z" fill="black"/>
<path d="M105.47 68.6345L103.453 68.7571L103.33 66.7385L105.347 66.6171L105.47 68.6345Z" fill="#BCBEC0"/>
<path d="M127.015 58.2375L125.357 57.0801L126.513 55.4228L128.171 56.5801L127.015 58.2375Z" fill="#BCBEC0"/>
<path d="M123.504 64.0582L122.471 65.7956L120.733 64.7609L121.767 63.0249L123.504 64.0582Z" fill="#BCBEC0"/>
<path d="M116.644 71.0958L115.075 72.3705L113.8 70.8012L115.369 69.5265L116.644 71.0958Z" fill="#BCBEC0"/>
<path d="M108.216 76.5226L106.356 77.3159L105.564 75.4559L107.423 74.6626L108.216 76.5226Z" fill="#BCBEC0"/>
<path d="M130.496 49.452L128.475 49.4653L128.461 47.444L130.483 47.4307L130.496 49.452Z" fill="#BCBEC0"/>
<path d="M130.679 38.9478L131.117 40.9212L129.144 41.3598L128.705 39.3865L130.679 38.9478Z" fill="#BCBEC0"/>
<path d="M4.19426 62.7842C8.06626 59.9762 16.5009 60.4722 21.9516 62.7015L21.9423 62.7202C7.51692 61.0869 1.29426 69.5842 1.29426 69.5842C0.918258 67.2535 1.44092 64.7842 4.19426 62.7842Z" fill="#705537"/>
<path d="M7.33273 80.8173C7.33273 80.8173 7.98473 78.5959 6.81007 76.8986C5.6714 75.2466 4.83673 75.6959 3.35007 74.7599C2.54207 73.3466 1.60607 71.5119 1.29407 69.5839C1.29407 69.5839 7.51673 61.0866 21.9421 62.7199C23.4207 72.9613 10.4074 80.6799 8.33273 81.8453C7.98473 81.5693 7.64473 81.2306 7.30473 80.8453L7.33273 80.8173Z" fill="#473023"/>
<path d="M7.33273 80.8173C7.33273 80.8173 7.98473 78.5959 6.81007 76.8986C5.6714 75.2466 4.83673 75.6959 3.35007 74.7599C2.54207 73.3466 1.60607 71.5119 1.29407 69.5839C1.29407 69.5839 7.51673 61.0866 21.9421 62.7199C23.4207 72.9613 10.4074 80.6799 8.33273 81.8453C7.98473 81.5693 7.64473 81.2306 7.30473 80.8453L7.33273 80.8173Z" stroke="#473023" stroke-width="0.539" stroke-miterlimit="10"/>
<path d="M23.411 76.4215C22.8057 76.9535 22.1817 77.4122 21.575 77.8068C20.1803 78.7162 18.1617 79.9175 16.1617 80.9095L16.1523 80.8815C16.1523 80.8815 16.3177 78.3668 17.7483 77.3202C19.1897 76.2748 21.2457 76.9908 23.3377 76.3388L23.411 76.4215Z" fill="black"/>
<path d="M26.9259 66.969C27.8712 71.1357 25.7965 74.3103 23.4112 76.421L23.3379 76.3383C21.2459 76.9903 19.1899 76.2743 17.7485 77.321C16.3179 78.3677 16.1525 80.881 16.1525 80.881L16.1619 80.909C13.8672 82.0477 11.6005 82.9183 10.3432 82.7717C9.62719 82.6983 8.96585 82.3677 8.33252 81.845C10.4072 80.6797 23.4205 72.9623 21.9432 62.7197L21.9512 62.7023C24.5952 63.7757 26.5405 65.2623 26.9259 66.969Z" fill="#36281A"/>
<path d="M6.80973 76.8986C7.9844 78.5959 7.3324 80.8173 7.3324 80.8173L7.30573 80.8453C6.22306 79.5973 5.18573 77.8626 4.06573 75.9813C3.85506 75.6226 3.60706 75.2199 3.34973 74.7599C4.8364 75.6959 5.67106 75.2466 6.80973 76.8986Z" fill="black"/>
<path d="M3.34983 74.7604C3.60716 75.219 3.85516 75.623 4.06583 75.9804C5.18583 77.8617 6.22183 79.5964 7.3045 80.8444C7.6445 81.2297 7.9845 81.5697 8.3325 81.8457C8.96583 82.3684 9.62716 82.699 10.3432 82.7724C11.6005 82.919 13.8672 82.047 16.1618 80.9097C18.1618 79.9177 20.1805 78.7164 21.5752 77.807C22.1818 77.4124 22.8058 76.9537 23.4112 76.4217C25.7965 74.311 27.8712 71.135 26.9258 66.9684C26.5405 65.2617 24.5952 63.775 21.9512 62.7017C16.5005 60.4724 8.06716 59.9764 4.19383 62.7844C1.4405 64.7844 0.917831 67.2537 1.29383 69.5844C1.60583 71.5124 2.54183 73.347 3.34983 74.7604Z" stroke="black" stroke-width="1.377" stroke-miterlimit="10"/>
<path d="M3.22144 74.6778C3.26677 74.7058 3.31344 74.7324 3.34944 74.7604C4.8361 75.6964 5.6721 75.2471 6.80944 76.8991C7.9841 78.5964 7.3321 80.8178 7.3321 80.8178" stroke="black" stroke-width="0.688" stroke-miterlimit="10" stroke-linecap="round" stroke-linejoin="round"/>
<path d="M16.152 80.8816C16.152 80.8816 16.3173 78.3669 17.7493 77.3202C19.1893 76.2749 21.2453 76.9909 23.3373 76.3389" stroke="black" stroke-width="0.688" stroke-miterlimit="10" stroke-linecap="round" stroke-linejoin="round"/>
<path d="M37.1208 89.8647C36.8208 89.8647 36.5448 89.6674 36.4594 89.3634C36.3554 88.9981 36.5674 88.6181 36.9341 88.5141C37.1194 88.4621 55.6661 83.0754 64.3674 69.4701C71.2674 58.6807 67.3501 48.2474 67.3101 48.1434C67.1728 47.7887 67.3488 47.3901 67.7021 47.2527C68.0554 47.1154 68.4554 47.2901 68.5928 47.6434C68.7688 48.0941 72.8168 58.8141 65.5274 70.2114C56.5408 84.2634 38.0888 89.6181 37.3074 89.8381C37.2461 89.8567 37.1821 89.8647 37.1208 89.8647Z" fill="black"/>
<path d="M210.069 108.144C210.069 108.144 213.166 110.783 214.542 111.585C210.757 115.371 191.255 126.04 191.255 126.04C191.255 126.04 192.058 117.895 192.173 114.339C203.301 113.88 210.069 108.144 210.069 108.144Z" fill="#BCBEC0"/>
<path d="M72.907 99.106C72.6443 99.242 72.4083 99.2526 72.207 99.142C72.0096 99.0326 71.9963 98.8606 71.9776 98.6166C71.947 98.202 73.787 96.2833 74.183 95.894C74.0176 96.5793 73.3283 98.8846 72.907 99.106ZM75.2096 95.606C75.199 94.5406 75.2403 93.5033 75.3123 92.4886C75.215 92.5433 75.2363 92.614 75.179 92.7166C75.0803 92.8966 70.767 96.1046 70.7683 98.71C70.7683 99.3713 71.1016 99.9046 71.6643 100.218C71.903 100.351 72.1323 100.427 72.3936 100.446C72.759 100.473 73.119 100.378 73.4923 100.197C74.8723 99.5206 75.1083 96.974 75.2403 96.406C75.231 96.138 75.2123 95.8753 75.2096 95.606Z" fill="#BCBEC0"/>
<path d="M141.622 65.1082C141.626 65.0909 141.629 65.0815 141.63 65.0722C141.7 64.6295 141.769 64.1882 141.837 63.7469C141.841 63.7215 141.828 63.6895 141.812 63.6682C141.142 62.7775 140.472 61.8882 139.801 60.9975C139.78 60.9695 139.757 60.9549 139.721 60.9495C139.286 60.8975 138.852 60.8429 138.416 60.7895C138.401 60.7869 138.386 60.7869 138.364 60.7842C139.452 62.2269 140.534 63.6642 141.622 65.1082ZM140.36 66.2109C140.37 66.1469 140.38 66.0829 140.389 66.0175C140.412 65.8682 140.434 65.7189 140.454 65.5682C140.457 65.5429 140.45 65.5095 140.436 65.4895C139.516 64.2655 138.594 63.0429 137.672 61.8215C137.656 61.8015 137.626 61.7842 137.601 61.7802C137.381 61.7482 137.161 61.7189 136.938 61.6882C136.941 61.6655 136.942 61.6495 136.945 61.6322C137.001 61.2322 137.057 60.8322 137.112 60.4309C137.117 60.3962 137.13 60.3722 137.158 60.3509C137.55 60.0575 137.942 59.7615 138.333 59.4655C138.362 59.4442 138.388 59.4375 138.422 59.4429C139.036 59.5349 139.648 59.6242 140.261 59.7162C140.285 59.7189 140.313 59.7349 140.328 59.7549C141.27 61.0042 142.213 62.2535 143.153 63.5055C143.168 63.5242 143.176 63.5562 143.173 63.5789C143.092 64.1949 143.009 64.8109 142.925 65.4255C142.922 65.4509 142.905 65.4802 142.885 65.4962C142.49 65.7962 142.094 66.0935 141.698 66.3909C141.681 66.4029 141.654 66.4122 141.634 66.4095C141.216 66.3469 140.797 66.2815 140.378 66.2175C140.374 66.2162 140.369 66.2135 140.36 66.2109Z" fill="black"/>
<path d="M128.713 68.3267C129.225 69.0067 129.73 69.6774 130.237 70.3494C130.509 70.144 130.778 69.9414 131.049 69.7374C131.04 69.7254 131.036 69.716 131.029 69.708C130.74 69.3227 130.45 68.9387 130.158 68.5547C130.145 68.5374 130.118 68.5227 130.096 68.52C129.653 68.456 129.21 68.3947 128.768 68.332C128.753 68.3307 128.737 68.3294 128.713 68.3267ZM133.966 70.8787C133.894 71.3787 133.825 71.872 133.758 72.348C133.27 72.2854 132.778 72.2227 132.28 72.1587C132.296 72.048 132.31 71.944 132.325 71.84C132.341 71.7374 132.356 71.6334 132.369 71.5294C132.37 71.5107 132.368 71.4867 132.357 71.472C132.173 71.2254 131.988 70.98 131.801 70.7334C131.798 70.7294 131.794 70.728 131.788 70.7227C131.518 70.9254 131.25 71.1267 130.976 71.3347C130.985 71.348 130.996 71.3614 131.005 71.3747C131.18 71.6067 131.354 71.8387 131.532 72.0694C131.548 72.0907 131.58 72.108 131.606 72.112C131.809 72.1427 132.012 72.1707 132.208 72.1974C132.137 72.6947 132.068 73.1894 132 73.668C131.52 73.6067 131.028 73.544 130.525 73.48C130.534 73.4307 130.541 73.3907 130.546 73.3507C130.57 73.1867 130.592 73.0227 130.617 72.86C130.622 72.824 130.614 72.7987 130.593 72.7707C129.753 71.6587 128.916 70.5454 128.076 69.4334C128.053 69.4027 128.042 69.3747 128.049 69.3347C128.162 68.5574 128.276 67.7787 128.388 67C128.39 66.984 128.394 66.9667 128.401 66.9294C128.421 66.9374 128.437 66.9494 128.456 66.952C129.172 67.0534 129.886 67.1547 130.602 67.2547C130.642 67.26 130.666 67.2774 130.689 67.308C131.552 68.452 132.414 69.5974 133.276 70.7427C133.3 70.7747 133.326 70.7907 133.368 70.796C133.566 70.8214 133.766 70.8507 133.966 70.8787Z" fill="black"/>
<path d="M131.651 64.4837C132.446 64.5997 133.238 64.7144 134.033 64.8304C133.971 65.241 133.91 65.649 133.849 66.0624C133.258 65.973 132.67 65.885 132.071 65.7944C132.085 65.8157 132.093 65.8304 132.102 65.8424C132.957 66.9757 133.81 68.109 134.666 69.2424C134.681 69.2624 134.71 69.2784 134.735 69.2824C134.861 69.3024 134.987 69.3157 135.105 69.3304C135.174 68.8837 135.242 68.4397 135.311 67.989C135.695 68.0397 136.089 68.0904 136.471 68.141C136.362 68.9544 136.254 69.765 136.145 70.5784C136.122 70.577 136.107 70.5757 136.093 70.5744C135.402 70.4784 134.713 70.3837 134.022 70.2864C133.998 70.2837 133.967 70.265 133.953 70.245C133.085 69.0957 132.218 67.9464 131.353 66.7957C131.338 66.7757 131.327 66.745 131.33 66.7224C131.434 65.985 131.541 65.2477 131.646 64.5104C131.646 64.5037 131.649 64.497 131.651 64.4837" fill="black"/>
<path d="M146.254 60.7717C146.145 61.5851 146.037 62.3957 145.927 63.2091C145.902 63.2064 145.886 63.2064 145.869 63.2037C145.183 63.1091 144.499 63.0144 143.814 62.9211C143.774 62.9157 143.75 62.8997 143.726 62.8691C142.865 61.7237 142.002 60.5784 141.138 59.4344C141.114 59.4024 141.106 59.3717 141.111 59.3317C141.215 58.6091 141.319 57.8877 141.422 57.1651C141.425 57.1504 141.427 57.1344 141.431 57.1144C142.226 57.2304 143.018 57.3451 143.813 57.4611C143.751 57.8731 143.69 58.2811 143.629 58.6931C143.038 58.6037 142.449 58.5157 141.85 58.4251C141.862 58.4437 141.87 58.4571 141.878 58.4677C142.734 59.6037 143.59 60.7397 144.446 61.8757C144.458 61.8904 144.473 61.9077 144.489 61.9091C144.622 61.9291 144.757 61.9451 144.885 61.9611C144.953 61.5131 145.022 61.0677 145.09 60.6197C145.477 60.6704 145.869 60.7211 146.254 60.7717Z" fill="black"/>
<path d="M136.768 62.5121C136.976 63.2001 137.182 63.8855 137.391 64.5788C137.683 64.3588 137.97 64.1428 138.267 63.9188C138.308 65.6695 138.348 67.4055 138.388 69.1415C138.386 69.1415 138.382 69.1428 138.379 69.1428C138.048 68.1188 137.718 67.0961 137.386 66.0641C137.099 66.2801 136.818 66.4921 136.53 66.7081C136.495 66.5641 136.462 66.4281 136.428 66.2908C136.194 65.3121 135.959 64.3335 135.724 63.3548C135.718 63.3268 135.712 63.3041 135.743 63.2801C136.075 63.0321 136.406 62.7815 136.738 62.5321C136.746 62.5268 136.754 62.5215 136.768 62.5121Z" fill="black"/>
<path d="M175.045 61.3271C175.045 66.2684 171.038 70.2751 166.097 70.2751C161.156 70.2751 157.149 66.2684 157.149 61.3271C157.149 56.3857 161.156 52.3791 166.097 52.3791C171.038 52.3791 175.045 56.3857 175.045 61.3271Z" fill="#C4433B"/>
<path d="M166.098 53.0679C161.543 53.0679 157.839 56.7732 157.839 61.3266C157.839 65.8812 161.543 69.5866 166.098 69.5866C170.652 69.5866 174.356 65.8812 174.356 61.3266C174.356 56.7732 170.652 53.0679 166.098 53.0679ZM166.098 70.9626C160.784 70.9626 156.462 66.6399 156.462 61.3266C156.462 56.0132 160.784 51.6906 166.098 51.6906C171.411 51.6906 175.734 56.0132 175.734 61.3266C175.734 66.6399 171.411 70.9626 166.098 70.9626Z" fill="black"/>
<path d="M163.443 67.5189C163.38 67.5189 163.316 67.5109 163.253 67.4949C162.835 67.3909 162.58 66.9669 162.685 66.5496L165.389 55.9189C165.476 55.5709 165.789 55.5202 166.147 55.5202H166.149C166.508 55.5202 166.821 55.5762 166.904 55.9242L169.511 66.6309C169.612 67.0496 169.355 67.4229 168.936 67.5242C168.519 67.6269 168.096 67.3429 167.995 66.9242L166.133 59.1976L164.199 66.9336C164.111 67.2882 163.792 67.5189 163.443 67.5189Z" fill="black"/>
<path d="M162.456 63.2058C162.168 63.2058 161.901 63.0231 161.806 62.7351C161.689 62.3765 161.884 61.9911 162.242 61.8738L169.526 59.4831C169.884 59.3658 170.27 59.5605 170.388 59.9191C170.505 60.2765 170.31 60.6631 169.952 60.7805L162.669 63.1711C162.598 63.1951 162.526 63.2058 162.456 63.2058Z" fill="black"/>
<path d="M49.9289 187.475C49.9289 187.475 49.6729 187.579 49.3329 187.796C48.9903 188.01 48.5716 188.344 48.2276 188.728C47.8796 189.11 47.6169 189.539 47.4636 189.871C47.3809 190.034 47.3303 190.178 47.2943 190.276C47.2583 190.375 47.2369 190.431 47.2369 190.431L47.2263 190.459C47.0916 190.82 46.6903 191.004 46.3289 190.87C45.9676 190.735 45.7836 190.334 45.9183 189.972C45.9436 189.903 45.9809 189.838 46.0249 189.782C46.0249 189.782 46.0729 189.722 46.1569 189.615C46.2396 189.51 46.3569 189.359 46.5196 189.196C46.8303 188.864 47.2943 188.475 47.8009 188.19C48.3063 187.898 48.8409 187.699 49.2476 187.599C49.6543 187.494 49.9289 187.475 49.9289 187.475Z" fill="black"/>
<path d="M55.4641 190.569C55.4641 190.569 55.2081 190.673 54.8681 190.89C54.5254 191.104 54.1068 191.438 53.7628 191.822C53.4148 192.204 53.1521 192.633 52.9988 192.965C52.9148 193.128 52.8654 193.272 52.8294 193.37C52.7934 193.469 52.7721 193.524 52.7721 193.524L52.7614 193.553C52.6268 193.914 52.2254 194.098 51.8641 193.964C51.5028 193.829 51.3188 193.428 51.4534 193.066C51.4788 192.997 51.5161 192.932 51.5601 192.876C51.5601 192.876 51.6081 192.816 51.6921 192.709C51.7748 192.604 51.8921 192.453 52.0548 192.29C52.3654 191.958 52.8294 191.569 53.3361 191.284C53.8414 190.992 54.3761 190.793 54.7828 190.693C55.1894 190.588 55.4641 190.569 55.4641 190.569Z" fill="black"/>
<path d="M13.0931 147.547C13.0931 147.547 12.7798 147.509 12.3184 147.541C11.8571 147.567 11.2531 147.672 10.6984 147.868C10.1398 148.06 9.63978 148.345 9.30245 148.593C9.13045 148.712 8.99978 148.828 8.91045 148.908C8.81978 148.987 8.76778 149.031 8.76778 149.031L8.74112 149.053C8.40778 149.343 7.90378 149.305 7.61445 148.972C7.32645 148.639 7.36245 148.135 7.69712 147.847C7.76112 147.791 7.83445 147.747 7.90778 147.715C7.90778 147.715 7.98912 147.68 8.13178 147.62C8.27445 147.559 8.47445 147.473 8.72645 147.399C9.22112 147.236 9.89978 147.101 10.5664 147.093C11.2331 147.077 11.8784 147.173 12.3424 147.297C12.8078 147.415 13.0931 147.547 13.0931 147.547Z" fill="black"/>
<path d="M13.5298 151.521C13.5298 151.521 13.2391 151.486 12.8125 151.516C12.3871 151.538 11.8285 151.637 11.3138 151.818C10.7978 151.996 10.3351 152.26 10.0231 152.49C9.86448 152.598 9.74448 152.706 9.66048 152.78C9.57648 152.853 9.52848 152.894 9.52848 152.894L9.50448 152.916C9.19648 153.182 8.72981 153.148 8.46315 152.84C8.19648 152.532 8.22981 152.065 8.53781 151.798C8.59781 151.746 8.66581 151.705 8.73381 151.676C8.73381 151.676 8.80981 151.644 8.94181 151.589C9.07248 151.533 9.25781 151.453 9.49115 151.385C9.94848 151.234 10.5765 151.109 11.1925 151.101C11.8098 151.088 12.4058 151.176 12.8351 151.29C13.2658 151.398 13.5298 151.521 13.5298 151.521Z" fill="black"/>
<path d="M227.005 135.417C227.005 135.417 226.813 135.655 226.6 136.053C226.382 136.443 226.157 136.995 226.03 137.555C225.9 138.114 225.876 138.673 225.906 139.079C225.914 139.282 225.942 139.449 225.962 139.565C225.98 139.679 225.989 139.746 225.989 139.746L225.994 139.779C226.06 140.203 225.769 140.599 225.345 140.663C224.921 140.729 224.525 140.438 224.46 140.014C224.448 139.933 224.449 139.849 224.461 139.771C224.461 139.771 224.474 139.687 224.498 139.538C224.522 139.39 224.556 139.181 224.625 138.935C224.746 138.443 224.988 137.815 225.325 137.262C225.657 136.706 226.069 136.223 226.41 135.906C226.748 135.583 227.005 135.417 227.005 135.417Z" fill="black"/>
<path d="M231.903 134.984C231.903 134.984 231.727 135.203 231.533 135.565C231.334 135.923 231.127 136.428 231.013 136.939C230.893 137.449 230.871 137.961 230.899 138.332C230.906 138.517 230.933 138.671 230.95 138.776C230.966 138.881 230.975 138.941 230.975 138.941L230.979 138.972C231.039 139.359 230.773 139.721 230.386 139.781C229.998 139.84 229.635 139.575 229.577 139.187C229.565 139.112 229.566 139.036 229.578 138.965C229.578 138.965 229.59 138.888 229.613 138.752C229.634 138.617 229.663 138.425 229.727 138.2C229.839 137.751 230.058 137.176 230.367 136.672C230.671 136.163 231.049 135.721 231.359 135.431C231.669 135.136 231.903 134.984 231.903 134.984Z" fill="black"/>
<path d="M218.136 113.651C218.011 113.651 217.883 113.625 217.76 113.569C217.428 113.42 209.548 109.793 201.532 99.6761C201.218 99.2774 201.286 98.7014 201.682 98.3868C202.079 98.0708 202.656 98.1374 202.971 98.5361C210.712 108.307 218.438 111.861 218.514 111.896C218.976 112.104 219.182 112.648 218.974 113.109C218.82 113.449 218.487 113.651 218.136 113.651Z" fill="black"/>
<path d="M62.5665 42.6955C62.3265 41.6142 61.2039 40.9395 60.0639 41.1929C58.9239 41.4435 58.1932 42.5315 58.4332 43.6142C58.4545 43.7142 58.4919 43.8075 58.5292 43.9009C58.5519 43.9595 58.5999 44.0089 58.6585 44.0315C58.7159 44.0555 58.7852 44.0595 58.8425 44.0329C59.3812 43.7889 59.8919 43.6529 60.3905 43.5942C61.0305 43.5195 61.6865 43.5835 62.3105 43.7462C62.3705 43.7622 62.4679 43.7969 62.5172 43.7609C62.5225 43.7569 62.5279 43.7542 62.5319 43.7502C62.5772 43.7169 62.5799 43.6289 62.5919 43.5742C62.6559 43.2915 62.6279 42.9689 62.5665 42.6955Z" fill="black"/>
</svg>
