<svg width="200" height="197" viewBox="0 0 200 197" fill="none" xmlns="http://www.w3.org/2000/svg">
<path d="M154.337 153.489C155.707 167.653 155.437 177.653 154.885 179.54C154.372 180.436 151.945 183.757 150.284 184.14C148.62 184.524 142.616 183.63 141.849 182.097C141.481 181.364 141.719 179.029 142.616 178.005C142.616 178.005 148.237 181.916 151.304 179.45C154.372 176.985 153.213 163.297 152.524 155.981C152.332 153.965 151.365 151.314 149.867 148.462C151.661 149.896 153.176 151.561 154.207 153.501L154.337 153.489Z" fill="#D1D3D4"/>
<path d="M154.337 153.489L154.207 153.501C153.176 151.561 151.661 149.896 149.867 148.462C146.055 141.224 138.793 132.673 132.007 129.844C126.837 127.688 119.864 133.018 119.864 133.018C113.603 123.942 111.919 109.858 111.919 109.858L126.512 107.454L143.513 126.641C143.513 126.641 140.825 139.92 153.605 146.821C153.889 149.129 154.131 151.353 154.337 153.489Z" fill="#A67A51"/>
<path d="M152.524 155.981C153.214 163.297 154.372 176.985 151.305 179.451C148.237 181.916 142.616 178.005 142.616 178.005C143.509 176.985 146.032 176.395 147.616 175.82C148 174.796 149.901 159.348 143.893 153.467C139.652 149.317 132.544 145.356 126.528 140.2L126.532 140.196C126.532 140.196 141.362 141.687 149.866 148.463C151.366 151.315 152.332 153.964 152.524 155.981Z" fill="white"/>
<path d="M132.007 129.843C138.793 132.672 146.056 141.223 149.867 148.462C141.363 141.687 126.531 140.195 126.531 140.195L126.528 140.199C124.024 138.048 121.704 135.687 119.864 133.018C119.864 133.018 126.839 127.688 132.007 129.843" fill="#C49060"/>
<path d="M154.337 153.489C154.131 151.353 153.889 149.129 153.605 146.821C140.825 139.92 143.513 126.641 143.513 126.641L126.512 107.454L111.919 109.858C111.919 109.858 113.603 123.942 119.864 133.018C121.704 135.686 124.024 138.048 126.528 140.2C132.543 145.357 139.652 149.317 143.893 153.466C149.901 159.348 147.999 174.796 147.616 175.82C146.032 176.394 143.509 176.985 142.616 178.005C141.719 179.029 141.481 181.364 141.849 182.097C142.616 183.63 148.62 184.524 150.284 184.14C151.945 183.757 154.372 180.436 154.885 179.54C155.437 177.653 155.707 167.653 154.337 153.489Z" stroke="black" stroke-width="0.575" stroke-miterlimit="10"/>
<path d="M153.03 65.0246C154.79 62.942 156.135 64.6446 155.757 66.6313L155.338 66.558C148.183 76.014 142.421 73.1913 142.421 73.1913C145.434 71.7726 149.342 69.2926 153.03 65.0246Z" fill="#C49060"/>
<path d="M155.338 66.5583L155.756 66.6317C155.649 67.2063 155.396 67.805 154.962 68.345C151.385 72.8197 145.301 81.381 145.301 81.381L136.514 78.5717V74.9943C136.514 74.9943 138.99 74.6637 142.118 73.1917C142.118 73.1917 148.184 76.013 155.338 66.5583" fill="#A67A51"/>
<path d="M155.756 66.6312C155.648 67.2059 155.396 67.8046 154.963 68.3446C151.385 72.8192 145.635 81.3819 145.635 81.3819L137.18 78.5712V74.9939C137.18 74.9939 139.323 74.6646 142.452 73.1912C145.465 71.7726 149.357 69.2926 153.045 65.0246C154.805 62.9432 156.136 64.6446 155.756 66.6312Z" stroke="black" stroke-miterlimit="10"/>
<path d="M72.3262 128.233C72.8022 134.091 73.7222 142.83 75.0676 151.05C75.0062 151.135 74.9369 151.211 74.8609 151.281C72.6676 153.382 65.0062 151.046 65.0062 151.046C63.0476 144.839 60.3862 137.967 56.7942 130.533C50.0796 126.373 46.4369 123.631 46.4369 123.631C42.7942 118.153 40.8769 107.455 49.1209 86.4313C57.8982 64.0513 39.4662 59.0313 33.8182 55.4313C34.5929 54.8833 35.2529 54.2006 35.7129 53.3606C36.4369 52.794 37.2836 52.118 37.7409 51.3753C38.8836 49.5153 39.1809 45.3926 37.8476 41.3713V41.3673C36.5142 39.2966 36.2636 37.2486 35.3062 35.55C34.8342 34.7153 34.2196 33.9593 33.7129 33.2806C33.1342 32.498 32.4836 31.8193 31.8969 31.222C31.2022 30.286 29.5396 27.69 30.2449 24.7646C30.6742 22.978 32.0929 21.31 31.3062 18.4686C30.1569 14.3046 26.5062 13.7713 24.4476 14.5046C21.2769 15.6353 18.7609 17.6873 18.7609 17.6873C18.7609 17.6873 15.5276 14.2286 12.5556 16.8926C9.56489 19.5766 12.7729 24.8646 11.5462 28.5993C11.5462 26.5513 9.50222 22.4646 9.63956 19.922C9.72089 18.4033 10.3836 14.1406 13.1142 10.0406L13.1169 10.038C13.1169 10.038 27.5502 -0.667363 39.5476 4.58464L50.4742 9.76064L52.1996 37.3686C52.1996 37.3686 54.7382 44.1886 60.8502 50.8606C60.8502 50.8646 60.8542 50.8646 60.8542 50.8646C60.9156 51.0486 65.2142 62.854 97.1036 69.1233C111.425 71.938 128.088 71.1713 132.18 72.574C132.218 72.586 132.256 72.498 132.29 72.5126C132.378 72.5513 132.466 72.5206 132.556 72.5206H132.558C143 77.854 153.582 88.294 156.42 94.4446C161.4 105.234 164.384 127.253 169.709 135.777C171.377 138.449 173.413 140.951 175.652 142.957C156.289 143.149 136.734 121.759 136.734 121.759L136.558 121.889C133.552 117.666 131.182 114.346 130.416 113.855C118.882 105.489 86.6009 113.039 76.5396 119.213C71.1449 122.526 72.1116 128.171 72.3262 128.233Z" fill="#C49060"/>
<path d="M33.5923 33.2807C34.099 33.9594 34.8337 34.7154 35.3057 35.55C36.2643 37.2487 36.5137 39.2967 37.847 41.3674V41.3714C35.1803 58.5487 21.007 47.1567 21.007 47.1567C19.6843 45.4807 17.923 44.246 15.4577 44.3927C11.7883 44.6034 9.46968 46.5087 8.35768 48.4714C6.00301 47.0607 5.64435 43.1194 5.64435 43.1194C5.85101 41.1607 7.15101 38.79 7.16301 37.9434C7.17368 37.0914 7.46168 34.082 8.49635 32.1914C8.70035 31.8194 8.96435 31.4327 9.26035 31.0567C9.26035 31.0527 9.26168 31.0527 9.26568 31.0487C9.51901 30.7687 16.311 23.5114 33.5923 33.2807Z" fill="#291E14"/>
<path d="M33.5923 33.2807C16.311 23.5114 9.51634 30.7687 9.26434 31.0487C10.0043 30.0901 10.9043 29.2007 11.319 28.8061C11.327 28.8021 11.331 28.7981 11.3377 28.7914C13.3403 27.1501 15.111 26.8581 17.2577 26.5207C20.0763 26.0727 25.2643 26.7127 26.9283 27.6101C27.9977 28.1807 29.8803 29.2274 31.8363 31.2221C32.423 31.8194 33.0137 32.4981 33.5923 33.2807Z" fill="#423120"/>
<path d="M20.8357 3.13561L20.9157 3.30095C17.285 5.01828 14.805 7.49561 13.117 10.0369L13.113 10.0409C9.25169 12.5636 8.41702 20.5476 7.45036 21.9196C6.51036 23.2543 3.15169 17.9049 2.96369 17.6023C2.95969 17.5983 2.95702 17.4476 2.95702 17.4436C2.41569 15.9449 1.85969 13.8529 1.60236 12.5196H1.60636C1.60636 12.5196 2.72236 9.17028 4.86636 8.44495C7.00502 7.72495 10.9397 6.20228 12.5037 4.99028C14.065 3.77561 17.8264 2.25028 20.8357 3.13561Z" fill="#8A6644"/>
<path d="M4.86594 8.77851C2.72194 9.50384 1.60727 13.1865 1.60727 13.1865H1.60327C1.39261 11.8532 1.38861 10.4545 1.76727 9.48384C3.04861 6.22518 7.90327 5.62118 10.2033 4.66251C12.5033 3.70384 15.4446 1.74118 17.1699 1.42251C18.8953 1.09984 22.8566 2.41851 22.8566 2.41851L22.8873 2.49584C22.5646 2.61051 22.2393 2.73184 21.9099 2.86518C21.5686 3.00784 21.2379 3.15051 20.9166 3.30384L20.8353 3.13718C17.8259 2.25184 14.0646 3.94251 12.5033 5.15851C10.9393 6.37051 7.00594 8.05718 4.86594 8.77851Z" fill="#A37950"/>
<path d="M4.86594 8.77851C2.72194 9.50384 1.60727 13.1865 1.60727 13.1865H1.60327C1.39261 11.8532 1.38861 10.4545 1.76727 9.48384C3.04861 6.22518 7.90327 5.62118 10.2033 4.66251C12.5033 3.70384 15.4446 1.74118 17.1699 1.42251C18.8953 1.09984 22.8566 2.41851 22.8566 2.41851L22.8873 2.49584C22.5646 2.61051 22.2393 2.73184 21.9099 2.86518C21.5686 3.00784 21.2379 3.15051 20.9166 3.30384L20.8353 3.13718C17.8259 2.25184 14.0646 3.94251 12.5033 5.15851C10.9393 6.37051 7.00594 8.05718 4.86594 8.77851Z" stroke="#A37950" stroke-miterlimit="10"/>
<path d="M22.887 2.48376C32.7257 -1.03224 39.547 4.58509 39.547 4.58509C27.5497 -0.668238 13.1177 10.0371 13.1177 10.0371C14.8043 7.49576 17.2857 5.01843 20.9163 3.29976C21.2377 3.14643 21.5683 3.00109 21.9097 2.85976C22.239 2.72509 22.5643 2.59843 22.887 2.48376Z" fill="#D6A171"/>
<path d="M60.8539 50.8646C65.0179 55.4126 70.8379 59.8833 78.6446 62.0833C99.7339 68.0273 116.413 68.794 128.115 71.298C129.453 71.5846 130.814 72.018 132.179 72.574C128.087 71.1713 111.425 71.938 97.1033 69.1233C65.2139 62.854 60.9153 51.0486 60.8539 50.8646Z" fill="#D6A171"/>
<path d="M198.662 184.405C197.446 186.441 196.039 189.509 193.486 190.157C190.932 190.801 183.512 189.399 183.324 187.617C183.214 186.546 183.439 185.854 184.264 184.521H184.268C184.268 184.521 188.496 187.617 193.194 185.346C196.423 183.786 184.939 159.673 185.05 147.859C185.05 147.859 193.228 175.195 198.662 184.405Z" fill="#D1D3D4"/>
<path d="M185.05 147.787C184.939 159.601 196.422 183.786 193.194 185.346C188.497 187.617 184.267 184.519 184.267 184.519H184.263C184.813 183.186 185.625 183.022 186.775 182.439C187.607 178.931 184.153 169.006 177.573 159.937C170.994 150.869 158.463 146.73 151.691 140.922C147.558 137.375 141.274 128.534 136.558 121.913L136.734 121.781C136.734 121.781 156.289 143.179 175.653 142.987C178.555 145.587 181.802 147.389 185.05 147.787Z" fill="white"/>
<path d="M130.415 113.858C128.437 112.589 121.654 108.478 110.286 111.749C98.9168 115.015 83.6954 126.757 72.3261 128.233C72.1114 128.171 71.1448 122.527 76.5394 119.214C86.6008 113.041 118.882 105.491 130.415 113.858Z" fill="#A67A51"/>
<path d="M79.803 169.643C79.4923 172.779 77.8163 181.969 79.2203 190.275C78.591 192.265 76.0257 195.007 74.627 195.524C73.227 196.037 66.3683 196.405 64.523 193.473C64.443 192.583 64.6417 191.801 65.007 191.123C65.007 191.123 73.219 193.419 75.071 191.337C76.919 189.255 77.303 171.871 77.303 171.871L74.8603 151.28C74.9377 151.212 75.0057 151.135 75.0683 151.051C76.295 158.535 77.8817 165.587 79.803 169.643Z" fill="#D1D3D4"/>
<path d="M74.8606 151.28L77.3033 171.871C77.3033 171.871 76.9193 189.255 75.0713 191.336C73.2193 193.419 65.0059 191.122 65.0059 191.122C66.3633 188.58 70.0259 187.472 70.0259 187.472C70.0259 187.472 72.1499 173.664 65.0059 151.047C65.0059 151.047 72.6673 153.382 74.8606 151.28" fill="white"/>
<path d="M32.1392 113.049C32.4005 113.313 40.7738 121.853 42.2112 126.884C42.3965 127.528 42.5218 128.616 42.6072 130.032C38.2858 134.302 32.1312 136.265 32.1312 136.265L32.0245 136.273C31.8552 133.812 31.6712 131.825 31.4952 130.545C30.3525 122.324 21.1312 108.478 20.7592 99.5022C20.3832 90.5262 22.4992 68.0462 22.0978 63.2915C21.9738 61.8155 21.7178 60.3929 21.3952 59.0849L21.6832 59.0169C21.6832 59.0169 22.2618 56.8422 23.9032 57.3555C25.2178 57.7662 30.5512 57.7662 33.8192 55.4315C39.4658 59.0315 57.8978 64.0502 49.1205 86.4315C40.8778 107.454 42.7952 118.153 46.4365 123.632L32.1392 113.049Z" fill="white"/>
<path d="M46.4372 123.632C46.4372 123.632 46.4372 123.64 46.4332 123.654C45.8158 126.177 44.3625 128.294 42.6065 130.032C42.5225 128.616 42.3958 127.528 42.2118 126.884C40.7745 121.853 32.3998 113.313 32.1398 113.049L46.4372 123.632Z" fill="#D1D3D4"/>
<path d="M46.4333 123.654C46.3333 124.658 42.6413 160.924 43.5733 166.48C40.5826 172.733 38.7066 178.772 37.5573 185.037C36.1493 186.441 34.1906 189.248 33.2093 189.508C32.2306 189.773 24.9039 189.892 24.1373 187.721C23.8799 186.997 24.0679 185.689 24.8506 184.428L24.8653 184.436C24.8653 184.436 30.1799 187.008 32.9706 184.424C35.7666 181.84 40.4946 168.55 41.0079 166.76C41.4519 165.194 43.1586 139.82 42.6066 130.03C44.3626 128.294 45.8159 126.177 46.4333 123.654Z" fill="#D1D3D4"/>
<path d="M42.6068 130.031C43.1588 139.82 41.4521 165.195 41.0081 166.759C40.4934 168.55 35.7668 181.84 32.9708 184.424C30.1801 187.008 24.8654 184.435 24.8654 184.435L24.8508 184.428C25.8588 182.798 27.8681 181.25 31.2001 181.15C33.5428 176.986 32.9521 149.632 32.0241 136.274L32.1321 136.266C32.1321 136.266 38.2854 134.303 42.6068 130.031" fill="white"/>
<path d="M35.7126 53.3609C34.9233 53.9862 33.9953 54.4875 32.9713 54.8182C31.2033 55.3929 29.1566 55.4729 27.0593 54.8329C25.2179 54.2729 24.0219 52.3062 22.7793 50.2249C22.1513 49.1742 21.5099 48.0969 20.7673 47.1569C20.7673 47.1569 34.9339 58.5489 37.3646 41.3715C38.4433 45.3929 38.6419 49.5155 37.4993 51.3742C37.0433 52.1182 36.4379 52.7929 35.7126 53.3609Z" fill="#17110B"/>
<path d="M35.7126 53.3609C34.9233 53.9862 33.9953 54.4875 32.9713 54.8182C31.2033 55.3929 29.1566 55.4729 27.0593 54.8329C25.2179 54.2729 24.0219 52.3062 22.7793 50.2249C22.1513 49.1742 21.5099 48.0969 20.7673 47.1569C20.7673 47.1569 34.9339 58.5489 37.3646 41.3715C38.4433 45.3929 38.6419 49.5155 37.4993 51.3742C37.0433 52.1182 36.4379 52.7929 35.7126 53.3609Z" stroke="#17110B" stroke-width="0.254" stroke-miterlimit="10"/>
<path d="M35.7126 53.3609C35.2526 54.2009 34.5926 54.8835 33.818 55.4315C33.4886 55.2249 33.2046 55.0209 32.9713 54.8182C33.9953 54.4875 34.9233 53.9862 35.7126 53.3609Z" fill="#C49060"/>
<path d="M32.9711 54.8178C33.2045 55.0205 33.4885 55.2245 33.8191 55.4312C30.5511 57.7658 25.2178 57.7658 23.9031 57.3565C22.2618 56.8418 21.6831 59.0165 21.6831 59.0165L21.3951 59.0858C20.3951 54.9632 18.7845 51.9725 18.7845 51.9725C18.7845 51.9725 17.7911 52.1418 16.4871 52.1378C18.0445 52.1298 19.7845 51.7618 21.6831 50.8192C22.0045 50.6618 22.3311 50.4885 22.6645 50.2938L22.7791 50.2245C24.0218 52.3058 25.2178 54.2738 27.0591 54.8325C29.1565 55.4738 31.2031 55.3925 32.9711 54.8178Z" fill="#D1D3D4"/>
<path d="M31.2918 18.4689C32.0785 21.3102 30.6438 22.9782 30.2145 24.7649C29.5092 27.6902 31.1425 30.2862 31.8358 31.2222C29.8812 29.2276 27.9985 28.1809 26.9278 27.6102C25.2638 26.7129 20.0772 26.0729 17.2585 26.5209C15.1118 26.8582 13.3398 27.1502 11.3385 28.7902C11.4692 28.6676 11.5452 28.5996 11.5452 28.5996C12.7718 24.8649 9.5625 19.5769 12.5532 16.8929C15.5252 14.2289 18.7572 17.6862 18.7572 17.6862C18.7572 17.6862 21.2692 15.6356 24.4398 14.5049C26.4985 13.7716 30.1412 14.3049 31.2918 18.4689Z" fill="#291E14"/>
<path d="M22.7797 50.2243L22.665 50.2937C22.3317 50.4883 22.005 50.6617 21.6837 50.819L21.6717 50.795C16.649 43.5337 9.58633 49.3803 9.58633 49.3803L9.48633 49.503C9.049 49.151 8.681 48.8137 8.38233 48.5217C8.35166 48.507 8.325 48.487 8.297 48.4723C9.409 46.5083 11.6677 44.603 15.337 44.3923C17.8023 44.247 19.4437 45.4817 20.7663 47.1563C21.5103 48.0963 22.1503 49.1737 22.7797 50.2243Z" fill="#D1D3D4"/>
<path d="M21.6715 50.7957L21.6835 50.8184C19.7849 51.7624 18.0449 52.1304 16.4875 52.1384C16.3342 52.1384 16.1849 52.1384 16.0395 52.1264C13.1742 52.0117 10.9515 50.6851 9.48621 49.5037L9.58621 49.3811C9.58621 49.3811 16.6489 43.5331 21.6715 50.7957" fill="white"/>
<path d="M16.039 52.1261C15.027 52.0955 13.8844 51.9421 12.887 51.5395C10.7444 53.2235 8.68436 52.7475 7.49236 51.8768C7.33902 50.9995 7.58436 49.7261 8.29769 48.4715C8.32436 48.4875 8.35102 48.5061 8.38169 48.5221C8.68169 48.8128 9.04969 49.1501 9.48569 49.5035C10.951 50.6848 13.175 52.0115 16.039 52.1261Z" fill="#291E14"/>
<path d="M13.1134 10.0411C10.3828 14.1398 9.72011 18.4038 9.64011 19.9225C8.24411 21.4718 8.66944 28.5985 8.16011 28.9825C7.64944 29.3665 5.92411 29.1745 5.47611 28.0851C5.02678 26.9998 4.83478 23.3571 4.19878 21.0571C3.98011 20.2705 3.47744 19.0291 2.96411 17.6025C3.15211 17.9051 6.51078 23.2545 7.45078 21.9198C8.41611 20.5465 9.25211 12.5638 13.1134 10.0411Z" fill="#75573A"/>
<path d="M8.29769 48.4721C7.58436 49.7254 7.33903 50.9988 7.49236 51.8774C7.18969 51.6588 6.94436 51.4094 6.76436 51.1681C5.88169 49.9681 5.34969 45.6614 5.61369 43.1201C5.61369 43.1201 5.94303 47.0614 8.29769 48.4721" fill="#17110B"/>
<path d="M9.25624 31.0569C8.96157 31.4329 8.69224 31.8196 8.48957 32.1916C7.45357 34.0822 7.1589 37.0916 7.1469 37.9436C7.13624 38.7902 5.82024 41.1596 5.61357 43.1196C5.34957 45.6622 5.88157 49.9676 6.76424 51.1676C6.94424 51.4089 7.18957 51.6582 7.49224 51.8769C8.68557 52.7476 10.7442 53.2222 12.8869 51.5396C13.8842 51.9422 15.0269 52.0956 16.0389 52.1262" stroke="black" stroke-width="0.575" stroke-miterlimit="10"/>
<path d="M11.319 28.8061C10.9043 29.2007 10.0043 30.0901 9.26434 31.0487" stroke="black" stroke-width="0.575" stroke-miterlimit="10"/>
<path d="M13.1134 10.0412C10.3828 14.1398 9.72011 18.4038 9.64011 19.9225C9.50144 22.4638 11.5454 26.5518 11.5454 28.5985C11.5454 28.5985 11.4681 28.6678 11.3388 28.7905" stroke="black" stroke-width="0.575" stroke-miterlimit="10"/>
<path d="M60.8502 50.8609C54.7382 44.1889 52.1995 37.3676 52.1995 37.3676L50.4742 9.76092L39.5475 4.58492C39.5475 4.58492 32.7262 -1.03242 22.8875 2.48358C22.5649 2.59958 22.2395 2.72492 21.9089 2.85959C21.5675 3.00092 21.2382 3.14759 20.9169 3.30092C17.2849 5.01825 14.8049 7.49559 13.1169 10.0369" stroke="black" stroke-width="0.575" stroke-miterlimit="10"/>
<path d="M132.179 72.5744C130.814 72.0184 129.452 71.585 128.115 71.297C116.412 68.7944 99.7338 68.0264 78.6445 62.0837C70.8378 59.8824 65.0178 55.4117 60.8538 50.865" stroke="black" stroke-width="0.575" stroke-miterlimit="10"/>
<path d="M132.555 72.7277C132.467 72.689 132.379 72.6544 132.291 72.617" stroke="black" stroke-width="0.575" stroke-miterlimit="10"/>
<path d="M46.4371 123.632C46.4371 123.632 50.0798 126.373 56.7931 130.533C60.3865 137.968 63.0478 144.84 65.0065 151.046C72.1491 173.665 70.0251 187.472 70.0251 187.472C70.0251 187.472 66.3638 188.581 65.0065 191.122C64.6425 191.801 64.4425 192.584 64.5238 193.473C66.3678 196.406 73.2278 196.038 74.6265 195.524C76.0265 195.006 78.5918 192.265 79.2198 190.276C77.8171 181.97 79.4918 172.78 79.8025 169.642C77.8825 165.586 76.2945 158.536 75.0678 151.05C73.7225 142.83 72.8011 134.092 72.3265 128.233C83.6945 126.757 98.9171 115.016 110.285 111.749C121.654 108.478 128.437 112.589 130.416 113.858C131.182 114.349 133.552 117.673 136.558 121.894C141.274 128.517 147.558 137.34 151.692 140.886C158.462 146.694 170.993 150.797 177.573 159.865C184.153 168.933 187.608 178.788 186.776 182.296C185.625 182.878 184.812 183.538 184.264 184.233C183.44 185.276 183.213 186.402 183.325 187.472C183.512 189.256 190.932 190.801 193.485 190.156C196.038 189.508 197.446 186.441 198.661 184.405C193.228 175.194 185.05 147.788 185.05 147.788C181.802 147.389 178.554 145.582 175.652 142.984C173.413 140.978 171.377 138.501 169.709 135.829C164.384 127.305 161.4 105.338 156.42 94.5489C153.582 88.3983 143 77.1289 132.558 72.7276" stroke="black" stroke-width="0.575" stroke-miterlimit="10"/>
<path d="M16.4877 52.1377C17.7917 52.1417 18.785 51.9723 18.785 51.9723C18.785 51.9723 20.3943 54.963 21.3957 59.0857C21.717 60.3923 21.9743 61.815 22.097 63.291C22.4997 68.0456 20.3837 90.527 20.7597 99.503C21.1303 108.479 30.353 122.324 31.4957 130.544C31.6717 131.826 31.8557 133.811 32.0237 136.274C32.9517 149.632 33.5423 176.986 31.1997 181.15C27.8677 181.25 25.8583 182.798 24.8503 184.428C24.0677 185.69 23.8797 186.996 24.137 187.722C24.9037 189.891 32.2317 189.772 33.209 189.508C34.1903 189.247 36.1503 186.44 37.557 185.038C38.7077 178.772 40.5823 172.734 43.573 166.479C42.641 160.923 46.333 124.659 46.433 123.655" stroke="black" stroke-width="0.575" stroke-miterlimit="10"/>
<path d="M2.96423 17.6024C3.47757 19.0291 3.98023 20.2717 4.1989 21.0571C4.8349 23.3571 5.0269 26.9997 5.47623 28.0851C5.92423 29.1744 7.64957 29.3664 8.16023 28.9824C8.66957 28.5997 8.24423 21.4717 9.64023 19.9224" stroke="black" stroke-width="0.575" stroke-miterlimit="10"/>
<path d="M22.8564 2.39565C22.8564 2.39565 18.895 1.05432 17.1697 1.37565C15.4444 1.69432 12.5044 3.61165 10.203 4.57032C7.90304 5.52765 3.04838 6.03832 1.76838 9.29698C1.38838 10.2677 1.39238 11.5023 1.60304 12.813C1.86038 14.393 2.41638 16.0917 2.95638 17.5903" stroke="black" stroke-width="0.575" stroke-miterlimit="10"/>
<path d="M37.3653 41.371C38.4426 45.3937 38.6426 49.515 37.4999 51.375C37.0426 52.119 36.4373 52.7937 35.7133 53.3603C34.9226 53.9857 33.9946 54.4883 32.9706 54.8177C31.2039 55.3923 29.1559 55.4737 27.0586 54.8337C25.2186 54.2737 24.0226 52.307 22.7799 50.2243C22.1506 49.1737 21.5106 48.0963 20.7666 47.1563C19.4439 45.4817 17.8026 44.247 15.3373 44.3923C11.6679 44.603 9.40926 46.5083 8.29726 48.4723C7.58393 49.7257 7.3386 50.999 7.49193 51.8763C7.49993 51.923 7.50793 51.9683 7.51993 52.015" stroke="black" stroke-width="0.575" stroke-miterlimit="10"/>
<path d="M11.2194 28.8904C11.2541 28.8638 11.2848 28.8331 11.3194 28.8064C11.3274 28.8024 11.3301 28.7984 11.3381 28.7904C13.3394 27.1491 15.1114 26.8584 17.2581 26.5211C20.0768 26.0718 25.2648 26.7131 26.9288 27.6104C27.9981 28.1811 29.8808 29.2278 31.8368 31.2211C32.4234 31.8198 33.0141 32.4984 33.5928 33.2811C34.0981 33.9598 34.5928 34.7144 35.0648 35.5504C36.0234 37.2491 36.8088 39.2971 37.3648 41.3678" stroke="black" stroke-width="0.575" stroke-miterlimit="10"/>
<path d="M8.38196 48.5219C8.68062 48.8139 9.04862 49.1513 9.48596 49.5033C10.9513 50.6846 13.1753 52.0113 16.0393 52.1259C16.1846 52.1379 16.334 52.1379 16.4873 52.1379C18.0446 52.1299 19.7846 51.7619 21.6833 50.8193C22.0046 50.6619 22.3313 50.4886 22.6646 50.2939" stroke="black" stroke-width="0.575" stroke-miterlimit="10"/>
<path d="M132.179 72.5743C132.218 72.5863 132.256 72.601 132.29 72.617" stroke="black" stroke-width="0.575" stroke-miterlimit="10"/>
<path d="M17.2338 26.9366C17.0805 26.9366 16.9351 26.8433 16.8765 26.6913C16.7991 26.4939 16.8978 26.2726 17.0951 26.1953C19.7805 25.1539 19.0791 21.7073 18.6591 19.6486C18.5965 19.3339 18.5391 19.0526 18.5005 18.8179C18.0151 15.8046 18.7165 12.8486 18.7458 12.7233C18.7965 12.5179 19.0045 12.3913 19.2085 12.4406C19.4151 12.4913 19.5418 12.6979 19.4911 12.9033C19.4845 12.9326 18.7978 15.8393 19.2578 18.6966C19.2938 18.9219 19.3498 19.1926 19.4111 19.4953C19.8485 21.6406 20.6605 25.6353 17.3725 26.9099C17.3271 26.9286 17.2805 26.9366 17.2338 26.9366Z" fill="black"/>
<path d="M11.409 17.2761C11.397 17.2761 11.3837 17.2761 11.3717 17.2734C11.1624 17.2534 11.0077 17.0694 11.0264 16.8588C11.029 16.8334 11.2957 14.2828 14.3677 14.2828C14.5797 14.2828 14.7517 14.4548 14.7517 14.6668C14.7517 14.8788 14.5797 15.0508 14.3677 15.0508C12.0104 15.0508 11.7984 16.8534 11.7904 16.9308C11.7704 17.1281 11.6037 17.2761 11.409 17.2761Z" fill="black"/>
<path d="M31.4605 16.5201C31.2538 16.5201 31.0831 16.4107 31.0778 16.2027C31.0245 14.2907 29.0831 14.2427 29.0005 14.2414C28.7898 14.2347 28.6218 14.2494 28.6271 14.0374C28.6325 13.8294 28.8018 13.8534 29.0098 13.8534H29.0178C29.9698 13.8534 31.7858 14.2387 31.8445 16.3574C31.8498 16.5694 31.6831 16.5201 31.4711 16.5201H31.4605Z" fill="black"/>
<path d="M8.36476 43.777C8.37542 43.989 8.21142 44.169 7.99942 44.1797C7.78742 44.189 7.60742 44.025 7.59676 43.813C7.58742 43.601 7.75009 43.421 7.96209 43.4117C8.17409 43.401 8.35409 43.565 8.36476 43.777Z" fill="black"/>
<path d="M7.98113 43.6028C7.97713 43.6028 7.97446 43.6028 7.9718 43.6028C7.9198 43.6055 7.87313 43.6282 7.83846 43.6655C7.8038 43.7042 7.78646 43.7535 7.78913 43.8042C7.79046 43.8562 7.81313 43.9028 7.8518 43.9375C7.88913 43.9722 7.93846 43.9922 7.99046 43.9882C8.0958 43.9828 8.17846 43.8922 8.17313 43.7855C8.1678 43.6828 8.08246 43.6028 7.98113 43.6028ZM7.9798 44.3708C7.6758 44.3708 7.4198 44.1308 7.40513 43.8228C7.39046 43.5055 7.7238 43.2348 8.04113 43.2202C8.36113 43.2135 8.7318 43.4508 8.7318 43.7682C8.7318 44.0855 8.41313 44.3562 8.0958 44.3708C8.08646 44.3708 7.98913 44.3708 7.9798 44.3708" fill="black"/>
<path d="M9.69886 39.4809C9.70953 39.6929 9.54553 39.8729 9.33353 39.8836C9.12153 39.8929 8.94153 39.7289 8.93086 39.5169C8.92153 39.3049 9.0842 39.1249 9.2962 39.1156C9.5082 39.1049 9.6882 39.2689 9.69886 39.4809Z" fill="black"/>
<path d="M9.31527 39.3064C9.31261 39.3064 9.30861 39.3064 9.30594 39.3064C9.25394 39.3091 9.20727 39.3318 9.17261 39.3691C9.13794 39.4078 9.12061 39.4571 9.12327 39.5078C9.12461 39.5598 9.14727 39.6078 9.18594 39.6411C9.22327 39.6758 9.27127 39.6984 9.32461 39.6918C9.37527 39.6891 9.42327 39.6664 9.45794 39.6291C9.49127 39.5904 9.50994 39.5411 9.50727 39.4904C9.50461 39.4384 9.48194 39.3918 9.44461 39.3571C9.40861 39.3238 9.36327 39.3064 9.31527 39.3064ZM9.31394 40.0744C9.17127 40.0744 9.03394 40.0224 8.92727 39.9251C8.81394 39.8224 8.74727 39.6798 8.73927 39.5264C8.72461 39.2091 8.96994 38.9384 9.28727 38.9238C9.59927 38.9184 9.87527 39.1544 9.88994 39.4718C9.89794 39.6251 9.84461 39.7731 9.74061 39.8864C9.63794 40.0011 9.49527 40.0678 9.34194 40.0744C9.33261 40.0744 9.32327 40.0744 9.31394 40.0744" fill="black"/>
<path d="M26.2713 44.0769C26.282 44.2889 26.118 44.4689 25.906 44.4796C25.694 44.4889 25.514 44.3262 25.5033 44.1129C25.494 43.9009 25.6566 43.7209 25.8686 43.7116C26.0806 43.7009 26.2606 43.8649 26.2713 44.0769Z" fill="black"/>
<path d="M25.8878 43.9026C25.8852 43.9026 25.8812 43.9026 25.8785 43.9026C25.8265 43.9053 25.7798 43.928 25.7452 43.9653C25.7105 44.004 25.6932 44.0533 25.6945 44.104C25.6972 44.156 25.7198 44.2026 25.7572 44.2373C25.7958 44.272 25.8452 44.2906 25.8972 44.288C25.9478 44.2853 25.9958 44.2626 26.0305 44.2253C26.0638 44.1866 26.0825 44.1373 26.0798 44.0866C26.0772 44.0346 26.0545 43.988 26.0172 43.9533C25.9812 43.92 25.9358 43.9026 25.8878 43.9026ZM25.8865 44.6706C25.7425 44.6706 25.6065 44.6186 25.4998 44.5213C25.3865 44.4186 25.3198 44.276 25.3118 44.1226C25.3038 43.9693 25.3572 43.8213 25.4612 43.708C25.5652 43.5946 25.7065 43.528 25.8598 43.52C26.1892 43.504 26.4478 43.7506 26.4625 44.068C26.4705 44.2213 26.4172 44.3693 26.3132 44.4826C26.2105 44.5973 26.0678 44.664 25.9145 44.6706C25.9052 44.6706 25.8958 44.6706 25.8865 44.6706" fill="black"/>
<path d="M31.7502 35.9274C31.7609 36.1394 31.5969 36.3194 31.3849 36.3301C31.1729 36.3394 30.9929 36.1768 30.9822 35.9634C30.9729 35.7514 31.1355 35.5714 31.3475 35.5621C31.5595 35.5514 31.7395 35.7154 31.7502 35.9274Z" fill="black"/>
<path d="M31.3669 35.753C31.3642 35.753 31.3602 35.753 31.3576 35.753C31.3056 35.7557 31.2589 35.7784 31.2242 35.8157C31.1896 35.8544 31.1722 35.9037 31.1736 35.9544C31.1789 36.061 31.2642 36.1437 31.3762 36.1384C31.4816 36.133 31.5642 36.0424 31.5589 35.937C31.5562 35.885 31.5336 35.8384 31.4962 35.8037C31.4602 35.7704 31.4149 35.753 31.3669 35.753ZM31.3669 36.5224C31.0616 36.5224 30.8056 36.281 30.7909 35.973C30.7829 35.8197 30.8362 35.6717 30.9402 35.5584C31.0442 35.445 31.1856 35.3784 31.3389 35.3704C31.4976 35.3637 31.6402 35.4157 31.7536 35.5197C31.8682 35.6224 31.9349 35.765 31.9416 35.9184C31.9576 36.2357 31.7109 36.5064 31.3936 36.521C31.3842 36.5224 31.3762 36.5224 31.3669 36.5224Z" fill="black"/>
<path d="M27.0066 39.3282C27.0173 39.5402 26.8533 39.7202 26.6413 39.7309C26.4293 39.7402 26.2493 39.5776 26.2386 39.3642C26.2293 39.1522 26.3919 38.9722 26.6039 38.9629C26.8159 38.9522 26.9959 39.1162 27.0066 39.3282Z" fill="black"/>
<path d="M26.623 39.154C26.619 39.154 26.6164 39.154 26.6137 39.154C26.5617 39.1566 26.515 39.1793 26.4804 39.2166C26.4457 39.2553 26.4284 39.3046 26.431 39.3553C26.4324 39.4073 26.455 39.4553 26.4937 39.4886C26.531 39.5233 26.5817 39.546 26.6324 39.5393C26.7377 39.534 26.8204 39.4433 26.815 39.3366C26.8097 39.234 26.7244 39.154 26.623 39.154ZM26.6217 39.922C26.479 39.922 26.3417 39.87 26.235 39.7726C26.1217 39.67 26.055 39.5273 26.047 39.374C26.0324 39.0566 26.3617 38.786 26.679 38.7713C26.9937 38.7673 27.3657 39.002 27.3657 39.3193C27.3657 39.6366 27.051 39.9073 26.7337 39.922C26.7244 39.922 26.631 39.922 26.6217 39.922" fill="black"/>
<path d="M33.0762 41.5397C33.0869 41.7517 32.9229 41.9317 32.7109 41.9424C32.4989 41.9517 32.3189 41.7891 32.3082 41.5757C32.2989 41.3637 32.4616 41.1837 32.6736 41.1744C32.8856 41.1637 33.0656 41.3277 33.0762 41.5397Z" fill="black"/>
<path d="M32.6927 41.3653C32.69 41.3653 32.686 41.3653 32.6833 41.3653C32.6313 41.368 32.5847 41.3907 32.55 41.428C32.5153 41.4667 32.498 41.516 32.5007 41.5667C32.5047 41.6733 32.606 41.764 32.702 41.7507C32.7527 41.748 32.8007 41.7253 32.8353 41.688C32.8687 41.6493 32.8873 41.6 32.8847 41.5493V41.548C32.882 41.4973 32.8607 41.4507 32.822 41.416C32.786 41.3827 32.7407 41.3653 32.6927 41.3653ZM32.6927 42.1347C32.3873 42.1347 32.1313 41.8933 32.1167 41.5853C32.102 41.268 32.3473 40.9973 32.6647 40.9827C32.8233 40.9773 32.966 41.028 33.0807 41.132C33.194 41.236 33.2607 41.3773 33.2673 41.5307C33.2753 41.684 33.222 41.832 33.1193 41.9453C33.0153 42.06 32.874 42.1267 32.7193 42.1333C32.71 42.1347 32.702 42.1347 32.6927 42.1347Z" fill="black"/>
<path d="M31.788 46.7958C31.7986 47.0078 31.6346 47.1878 31.4226 47.1984C31.2106 47.2078 31.0306 47.0438 31.02 46.8318C31.0106 46.6198 31.1733 46.4398 31.3853 46.4304C31.5973 46.4198 31.7773 46.5838 31.788 46.7958Z" fill="black"/>
<path d="M31.4039 46.6212C31.4012 46.6212 31.3972 46.6212 31.3945 46.6212C31.2892 46.6265 31.2065 46.7172 31.2119 46.8239C31.2172 46.9305 31.3199 47.0199 31.4132 47.0065C31.4652 47.0039 31.5119 46.9812 31.5465 46.9439C31.5812 46.9052 31.5985 46.8559 31.5959 46.8052C31.5919 46.7025 31.5065 46.6212 31.4039 46.6212ZM31.4039 47.3905C31.0985 47.3905 30.8439 47.1492 30.8279 46.8412C30.8145 46.5239 31.0599 46.2532 31.3772 46.2385C31.6865 46.2225 31.9639 46.4692 31.9799 46.7865C31.9945 47.1039 31.7492 47.3745 31.4319 47.3892C31.4225 47.3905 31.4132 47.3905 31.4039 47.3905Z" fill="black"/>
<path d="M29.0101 21.8894C28.4701 24.2361 26.6928 25.8321 25.0421 25.4521C23.3915 25.0708 22.4915 22.8601 23.0315 20.5134C23.5728 18.1654 25.3488 16.5708 26.9995 16.9508C28.6501 17.3308 29.5501 19.5414 29.0101 21.8894Z" fill="white"/>
<path d="M26.4996 17.2776C25.1822 17.2776 23.8502 18.6643 23.4049 20.599C23.1609 21.6576 23.2196 22.715 23.5702 23.575C23.9022 24.3896 24.4556 24.923 25.1289 25.0776C26.5689 25.4096 28.1436 23.9403 28.6369 21.803C28.8796 20.7443 28.8209 19.687 28.4716 18.827C28.1396 18.0136 27.5862 17.479 26.9129 17.3243C26.7769 17.2923 26.6382 17.2776 26.4996 17.2776ZM25.5276 25.8896C25.3369 25.8896 25.1462 25.8683 24.9556 25.8256C24.0329 25.6123 23.2889 24.9163 22.8596 23.8643C22.4502 22.859 22.3796 21.639 22.6582 20.427C23.2449 17.8763 25.2342 16.1496 27.0849 16.5776C28.0089 16.7896 28.7529 17.4856 29.1822 18.5376C29.5902 19.543 29.6622 20.7643 29.3836 21.975C28.8569 24.2643 27.2022 25.8896 25.5276 25.8896Z" fill="black"/>
<path d="M26.5001 22.4953C26.5001 22.8126 26.2428 23.07 25.9254 23.07C25.6068 23.07 25.3494 22.8126 25.3494 22.4953C25.3494 22.178 25.6068 21.9206 25.9254 21.9206C26.2428 21.9206 26.5001 22.178 26.5001 22.4953Z" fill="black"/>
<path d="M25.9249 22.3037C25.8196 22.3037 25.7329 22.389 25.7329 22.4957C25.7329 22.601 25.8196 22.6863 25.9249 22.6863C26.0302 22.6863 26.1169 22.601 26.1169 22.4957C26.1169 22.389 26.0302 22.3037 25.9249 22.3037ZM25.9249 23.4543C25.3969 23.4543 24.9662 23.0237 24.9662 22.4957C24.9662 21.9663 25.3969 21.537 25.9249 21.537C26.4529 21.537 26.8836 21.9663 26.8836 22.4957C26.8836 23.0237 26.4529 23.4543 25.9249 23.4543Z" fill="black"/>
<path d="M18.0669 20.8877C18.5029 23.0037 17.6495 24.969 16.1615 25.2757C14.6722 25.581 13.1122 24.1144 12.6762 21.9984C12.2402 19.881 13.0935 17.917 14.5829 17.6104C16.0709 17.3037 17.6309 18.7717 18.0669 20.8877Z" fill="white"/>
<path d="M14.9855 17.9528C14.8762 17.9528 14.7682 17.9634 14.6602 17.9861C13.3802 18.2501 12.6602 20.0141 13.0522 21.9208C13.2469 22.8674 13.6855 23.7008 14.2869 24.2661C14.8509 24.7968 15.4882 25.0234 16.0842 24.8994C17.3629 24.6368 18.0842 22.8714 17.6909 20.9648C17.3322 19.2208 16.1615 17.9528 14.9855 17.9528ZM15.7589 25.6994C15.0655 25.6994 14.3709 25.3981 13.7615 24.8248C13.0455 24.1514 12.5269 23.1754 12.3002 22.0754C11.8229 19.7554 12.8122 17.5834 14.5055 17.2341C16.1962 16.8888 17.9642 18.4901 18.4429 20.8101C18.9202 23.1301 17.9309 25.3021 16.2389 25.6501C16.0789 25.6834 15.9189 25.6994 15.7589 25.6994Z" fill="black"/>
<path d="M16.2594 22.5619C16.3914 22.8512 16.2648 23.1925 15.9754 23.3245C15.6874 23.4565 15.3461 23.3299 15.2141 23.0405C15.0808 22.7525 15.2088 22.4112 15.4968 22.2779C15.7861 22.1459 16.1274 22.2725 16.2594 22.5619Z" fill="black"/>
<path d="M15.7362 22.6095C15.7096 22.6095 15.6829 22.6148 15.6562 22.6268C15.5602 22.6708 15.5176 22.7842 15.5616 22.8802C15.6056 22.9775 15.7216 23.0188 15.8162 22.9748C15.9122 22.9308 15.9549 22.8175 15.9109 22.7215C15.8789 22.6508 15.8082 22.6095 15.7362 22.6095ZM15.7376 23.7602C15.3736 23.7602 15.0256 23.5522 14.8642 23.2002C14.7576 22.9682 14.7482 22.7068 14.8376 22.4668C14.9269 22.2268 15.1042 22.0362 15.3376 21.9295C15.8189 21.7095 16.3882 21.9215 16.6082 22.4015C16.8282 22.8828 16.6162 23.4522 16.1362 23.6722C16.0069 23.7308 15.8709 23.7602 15.7376 23.7602Z" fill="black"/>
<path d="M21.6201 39.1613C19.1495 41.2386 18.5335 43.1786 18.9028 44.9079C18.9028 44.9079 16.7228 43.2479 12.7148 44.4759C12.9001 42.4159 12.4935 40.6746 11.2375 38.8746C10.1388 37.3013 9.68145 35.3479 10.1615 33.4893C11.0468 30.0613 13.8655 28.2826 17.4961 28.4519C20.3681 28.5866 22.1095 29.5933 23.1081 31.3159C24.6081 33.9066 23.9108 37.2346 21.6201 39.1613Z" fill="white"/>
<path d="M12.0245 36.4288C11.4805 36.3288 10.7939 34.1354 11.3272 32.8128C11.3992 32.6288 11.5179 32.4021 11.6912 32.1568C11.6912 32.1568 11.6912 32.1541 11.6952 32.1541C11.8712 32.0848 16.8445 30.0754 22.3045 33.2808C22.7179 34.4728 21.6912 37.0914 20.2459 37.2301C19.3245 37.3141 18.8725 37.0114 18.6659 37.4181C18.6619 36.9808 18.6005 36.6314 18.5165 36.3288C18.2779 34.8954 19.0445 34.4928 18.9645 34.1208C18.8605 33.2968 17.7525 33.7754 17.8912 34.6234C17.9872 35.1941 18.3205 35.6274 18.5165 36.3288C18.5192 36.3594 18.5232 36.3901 18.5312 36.4248L18.6659 37.4181C18.6392 37.4714 18.6152 37.5368 18.5965 37.6168C18.4352 38.3114 16.6565 39.1394 15.7819 39.2701C14.9045 39.4008 12.9059 37.6821 12.9059 37.6821C12.9059 37.6821 12.9525 37.4981 12.9219 37.2648L13.0059 36.4021C13.1939 35.4888 13.6392 34.8874 13.6765 34.2514C13.7272 33.3914 12.5725 33.0168 12.5539 33.8488C12.5152 34.2314 13.1405 34.8221 13.0099 36.3514L13.0059 36.4021C12.9525 36.6514 12.9179 36.9234 12.9179 37.2301C12.8645 36.9194 12.6645 36.5474 12.0245 36.4288Z" fill="#291E14"/>
<path d="M12.0245 36.4288C11.4805 36.3288 10.7939 34.1354 11.3272 32.8128C11.3992 32.6288 11.5179 32.4021 11.6912 32.1568C11.6912 32.1568 11.6912 32.1541 11.6952 32.1541C11.8712 32.0848 16.8445 30.0754 22.3045 33.2808C22.7179 34.4728 21.6912 37.0914 20.2459 37.2301C19.3245 37.3141 18.8725 37.0114 18.6659 37.4181C18.6619 36.9808 18.6005 36.6314 18.5165 36.3288C18.2779 34.8954 19.0445 34.4928 18.9645 34.1208C18.8605 33.2968 17.7525 33.7754 17.8912 34.6234C17.9872 35.1941 18.3205 35.6274 18.5165 36.3288C18.5192 36.3594 18.5232 36.3901 18.5312 36.4248L18.6659 37.4181C18.6392 37.4714 18.6152 37.5368 18.5965 37.6168C18.4352 38.3114 16.6565 39.1394 15.7819 39.2701C14.9045 39.4008 12.9059 37.6821 12.9059 37.6821C12.9059 37.6821 12.9525 37.4981 12.9219 37.2648L13.0059 36.4021C13.1939 35.4888 13.6392 34.8874 13.6765 34.2514C13.7272 33.3914 12.5725 33.0168 12.5539 33.8488C12.5152 34.2314 13.1405 34.8221 13.0099 36.3514L13.0059 36.4021C12.9525 36.6514 12.9179 36.9234 12.9179 37.2301C12.8645 36.9194 12.6645 36.5474 12.0245 36.4288Z" stroke="#291E14" stroke-width="0.254" stroke-miterlimit="10"/>
<path d="M13.6772 34.2507C13.6385 34.8867 13.1945 35.4894 13.0065 36.4014L13.0105 36.352C13.1399 34.8214 12.5159 34.232 12.5532 33.848C12.5732 33.016 13.7265 33.392 13.6772 34.2507Z" fill="black"/>
<path d="M16.5912 30.0714C20.0272 30.2101 21.8939 32.0887 22.3045 33.2807C16.8445 30.0754 11.8712 32.0847 11.6952 32.1541C12.3699 31.1914 13.8579 29.9634 16.5912 30.0714Z" fill="#453222"/>
<path d="M18.9646 34.1205C19.0446 34.4925 18.2779 34.8952 18.5166 36.3285C18.3206 35.6272 17.9873 35.1939 17.8913 34.6232C17.7526 33.7752 18.8606 33.2965 18.9646 34.1205Z" fill="black"/>
<path d="M18.6656 37.4178L18.5309 36.4245C18.5242 36.3898 18.5202 36.3591 18.5162 36.3285C18.6002 36.6325 18.6616 36.9805 18.6656 37.4178Z" fill="#291E14"/>
<path d="M13.1156 36.4018L13.0862 37.2645C13.0862 37.2565 13.1369 37.2458 13.1369 37.2378V37.2298C13.1369 36.9231 13.0622 36.6511 13.1156 36.4018Z" fill="#291E14"/>
<path d="M12.9218 37.2644L12.9178 37.3071V37.2378C12.9178 37.2458 12.9218 37.2564 12.9218 37.2644Z" fill="#291E14"/>
<path d="M11.6948 32.1534C12.3694 31.1908 13.8574 29.9641 16.5908 30.0708C20.0268 30.2094 21.8934 32.0881 22.3041 33.2801C22.7188 34.4734 21.6908 37.0921 20.2454 37.2294C19.3254 37.3148 18.8721 37.0108 18.6654 37.4174C18.6388 37.4721 18.6161 37.5361 18.5961 37.6174C18.4348 38.3108 16.6561 39.1401 15.7828 39.2694C14.9041 39.4001 12.9068 37.6828 12.9068 37.6828C12.9068 37.6828 12.9521 37.4988 12.9214 37.2641" stroke="black" stroke-width="0.575" stroke-miterlimit="10"/>
<path d="M12.918 37.2301C12.8646 36.9194 12.6646 36.5474 12.0246 36.4287C11.4806 36.3287 10.794 34.1354 11.3273 32.8127C11.3993 32.6287 11.518 32.4021 11.6913 32.1567" stroke="black" stroke-width="0.575" stroke-miterlimit="10"/>
<path d="M18.5159 36.329C18.5199 36.3596 18.5239 36.3903 18.5306 36.425" stroke="black" stroke-width="0.575" stroke-miterlimit="10"/>
<path d="M18.5159 36.3289C18.3199 35.6276 17.9866 35.1943 17.8906 34.6223C17.7533 33.7756 18.8613 33.2956 18.9639 34.1209C19.0453 34.4929 18.2786 34.8943 18.5159 36.3289Z" stroke="black" stroke-width="0.575" stroke-miterlimit="10"/>
<path d="M18.6656 37.4178C18.6616 36.9805 18.6002 36.6325 18.5162 36.3285" stroke="black" stroke-width="0.575" stroke-miterlimit="10"/>
<path d="M13.1802 36.5201V37.2375V37.2295C13.1802 36.9228 13.0842 36.6508 13.1375 36.4015C13.3255 35.4895 13.7042 34.8868 13.7429 34.2508C13.7922 33.3921 12.6055 33.0161 12.5869 33.8481C12.5482 34.2321 13.2882 34.4295 13.1575 35.9588" stroke="black" stroke-miterlimit="10"/>
<path d="M45.1411 4.68469C49.1331 6.21802 57.6078 7.42202 60.5838 7.03935C60.8598 7.13135 61.8465 7.23002 61.8465 7.33802V7.34202C68.5131 15.4127 59.7905 26.49 55.2545 27.702C50.7145 28.9167 48.6105 21.9194 48.6105 21.9194C48.7558 19.2927 48.6638 16.7474 48.2731 14.6647C47.5065 10.578 45.6638 8.78736 43.9998 7.89402C42.0798 6.85936 38.3518 7.89402 38.3518 7.89402C38.3518 7.89402 41.6211 3.33536 45.1411 4.68469" fill="#8A6644"/>
<path d="M45.1412 4.68469C41.6212 3.33536 38.3238 7.89403 38.3238 7.89403C38.3238 7.89403 36.8518 6.48736 37.5572 5.71936C38.2585 4.95269 40.8158 2.14203 43.8185 2.01269C46.8212 1.88603 49.9532 4.12069 53.0212 5.21003C54.6305 5.78069 57.4985 6.13803 60.1412 7.03936C57.1652 7.42203 49.1332 6.21803 45.1412 4.68469Z" fill="#A37950"/>
<path d="M45.1412 4.68469C41.6212 3.33536 38.3238 7.89403 38.3238 7.89403C38.3238 7.89403 36.8518 6.48736 37.5572 5.71936C38.2585 4.95269 40.8158 2.14203 43.8185 2.01269C46.8212 1.88603 49.9532 4.12069 53.0212 5.21003C54.6305 5.78069 57.4985 6.13803 60.1412 7.03936C57.1652 7.42203 49.1332 6.21803 45.1412 4.68469Z" stroke="#A37950" stroke-width="0.254" stroke-miterlimit="10"/>
<path d="M66.1165 11.3449C68.0992 16.0729 65.5765 21.5675 62.3178 26.9355C59.0592 32.3035 53.1312 39.6529 49.5538 37.2875C46.9965 35.6009 48.0832 28.4995 48.4445 21.9195C48.4445 21.9195 50.7418 28.9169 55.2818 27.7022C59.8178 26.4902 68.5138 15.4129 61.8472 7.34222V7.33822C63.1805 8.15022 65.2885 9.35821 66.1165 11.3449Z" fill="#735539"/>
<path d="M38.3238 7.89414C38.3238 7.89414 36.8518 6.48747 37.5572 5.71947C38.2585 4.95281 40.8158 2.14214 43.8185 2.01281C46.8212 1.88614 49.9532 4.12081 53.0212 5.21014C54.6305 5.78081 57.4985 6.13814 60.1412 7.03947C60.4172 7.13147 60.6892 7.23147 60.9612 7.33814C63.0198 8.15147 64.8452 9.35947 65.6732 11.3448C67.6558 16.0728 65.3558 21.5675 62.0958 26.9355C58.8372 32.3035 53.0212 39.6528 49.4438 37.2875C46.8852 35.6008 48.0278 28.4995 48.3892 21.9195C48.5345 19.2928 48.5532 16.7475 48.1625 14.6648C47.3958 10.5781 45.6092 8.78747 43.9452 7.89414C42.0238 6.85947 38.3238 7.89414 38.3238 7.89414Z" stroke="black" stroke-width="0.575" stroke-miterlimit="10"/>
<path d="M151.306 177.368C151.213 177.368 151.119 177.335 151.046 177.267C149.555 175.889 147.334 176.332 147.311 176.337C147.105 176.381 146.901 176.248 146.857 176.04C146.814 175.833 146.946 175.631 147.153 175.587C147.258 175.564 149.779 175.053 151.566 176.703C151.722 176.847 151.731 177.089 151.587 177.244C151.513 177.327 151.409 177.368 151.306 177.368Z" fill="black"/>
<path d="M46.4353 124.017C46.362 124.017 46.2873 123.995 46.222 123.951C45.462 123.441 44.722 122.945 44.002 122.462C36.838 117.666 31.662 114.202 29.2966 109.943C26.7433 105.346 24.4953 95.4354 24.4006 95.0154C24.354 94.8087 24.4833 94.6034 24.69 94.5567C24.8966 94.5101 25.102 94.6407 25.1486 94.8474C25.1713 94.9487 27.466 105.071 29.9673 109.571C32.2433 113.667 37.354 117.089 44.4286 121.826C45.1486 122.307 45.89 122.803 46.65 123.315C46.826 123.434 46.8726 123.671 46.754 123.847C46.6793 123.958 46.5593 124.017 46.4353 124.017Z" fill="black"/>
<path d="M72.3274 128.618C72.1288 128.618 71.9621 128.466 71.9461 128.264C71.6968 125.135 72.1754 121.854 72.1954 121.715C72.2274 121.506 72.4221 121.362 72.6314 121.392C72.8408 121.423 72.9861 121.618 72.9541 121.827C72.9501 121.86 72.4688 125.163 72.7101 128.204C72.7274 128.415 72.5688 128.6 72.3581 128.616C72.3474 128.618 72.3381 128.618 72.3274 128.618Z" fill="black"/>
<path d="M137.119 123.089C136.995 123.089 136.873 123.029 136.799 122.917C132.918 117.051 116.977 95.3001 116.066 94.4774C115.902 94.3641 115.853 94.1401 115.957 93.9668C116.066 93.7854 116.302 93.7268 116.483 93.8361C117.274 94.3094 134.101 117.449 137.439 122.495C137.555 122.671 137.507 122.908 137.33 123.025C137.266 123.068 137.191 123.089 137.119 123.089Z" fill="black"/>
<path d="M34.7442 182.992C34.6296 182.992 34.5162 182.941 34.4416 182.844C33.7896 182.006 31.8496 181.613 31.1576 181.532C30.9469 181.506 30.7962 181.316 30.8216 181.106C30.8456 180.896 31.0362 180.744 31.2456 180.77C31.3602 180.784 34.0642 181.11 35.0469 182.373C35.1762 182.54 35.1469 182.781 34.9789 182.91C34.9096 182.965 34.8269 182.992 34.7442 182.992Z" fill="black"/>
<path d="M75.1312 188.871C75.0632 188.871 74.9045 188.852 74.8418 188.813C73.2965 187.863 69.8472 187.801 69.8472 187.801V187.187H70.0245C69.8125 187.187 69.6405 187.349 69.6405 187.137C69.6405 186.925 69.8125 186.92 70.0232 186.92C70.1778 186.931 73.5992 187.011 75.3325 188.077C75.5125 188.188 75.5685 188.467 75.4578 188.647C75.3858 188.764 75.2605 188.871 75.1312 188.871Z" fill="black"/>
<path d="M193.195 183.056C193.129 183.056 193.064 183.04 193.004 183.005C190.365 181.484 186.936 182.645 186.901 182.657C186.703 182.728 186.483 182.621 186.413 182.421C186.344 182.221 186.449 182.002 186.649 181.933C186.803 181.878 190.44 180.642 193.387 182.34C193.571 182.446 193.633 182.681 193.527 182.864C193.456 182.986 193.327 183.056 193.195 183.056Z" fill="black"/>
<path d="M27.5369 185.202C27.5369 185.202 27.3662 185.401 27.1742 185.735C26.9769 186.067 26.7689 186.535 26.6396 187.018C26.6036 187.137 26.5822 187.259 26.5569 187.378C26.5289 187.495 26.5209 187.617 26.5022 187.729C26.4822 187.841 26.4849 187.953 26.4756 188.057C26.4649 188.159 26.4689 188.258 26.4702 188.349C26.4676 188.529 26.4836 188.678 26.4942 188.782C26.5049 188.885 26.5102 188.945 26.5102 188.945L25.5516 188.953C25.5516 188.953 25.5609 188.882 25.5782 188.759C25.5942 188.637 25.6156 188.462 25.6662 188.257C25.6889 188.154 25.7116 188.043 25.7502 187.929C25.7876 187.815 25.8156 187.693 25.8662 187.573C25.9142 187.451 25.9542 187.325 26.0156 187.203C26.0742 187.081 26.1262 186.955 26.1956 186.838C26.4529 186.358 26.7796 185.931 27.0542 185.646C27.3262 185.357 27.5369 185.202 27.5369 185.202Z" fill="black"/>
<path d="M30.2209 185.969C30.2209 185.969 30.0502 186.169 29.8582 186.502C29.6609 186.834 29.4529 187.302 29.3235 187.785C29.2875 187.904 29.2662 188.026 29.2409 188.145C29.2115 188.262 29.2049 188.384 29.1862 188.496C29.1662 188.608 29.1689 188.721 29.1595 188.824C29.1489 188.926 29.1529 189.025 29.1542 189.116C29.1515 189.296 29.1675 189.445 29.1782 189.549C29.1875 189.652 29.1942 189.712 29.1942 189.712L28.2355 189.72C28.2355 189.72 28.2449 189.649 28.2622 189.526C28.2782 189.404 28.2995 189.229 28.3502 189.024C28.3729 188.921 28.3955 188.81 28.4342 188.696C28.4715 188.582 28.4995 188.46 28.5502 188.34C28.5982 188.218 28.6382 188.092 28.6995 187.97C28.7582 187.848 28.8102 187.722 28.8795 187.605C29.1369 187.125 29.4635 186.698 29.7382 186.413C30.0102 186.124 30.2209 185.969 30.2209 185.969Z" fill="black"/>
<path d="M68.1802 191.337C68.1802 191.337 68.0096 191.537 67.8176 191.87C67.6202 192.202 67.4109 192.67 67.2829 193.153C67.2469 193.272 67.2256 193.394 67.2002 193.513C67.1709 193.63 67.1642 193.752 67.1456 193.864C67.1256 193.976 67.1282 194.088 67.1189 194.192C67.1082 194.294 67.1122 194.393 67.1136 194.484C67.1109 194.664 67.1269 194.813 67.1376 194.917C67.1469 195.02 67.1536 195.08 67.1536 195.08L66.1949 195.088C66.1949 195.088 66.2042 195.017 66.2202 194.894C66.2376 194.772 66.2589 194.597 66.3096 194.392C66.3322 194.289 66.3549 194.178 66.3936 194.064C66.4309 193.95 66.4589 193.828 66.5096 193.708C66.5576 193.586 66.5976 193.46 66.6589 193.338C66.7176 193.216 66.7696 193.09 66.8389 192.973C67.0962 192.493 67.4229 192.066 67.6976 191.781C67.9696 191.492 68.1802 191.337 68.1802 191.337Z" fill="black"/>
<path d="M70.8641 192.104C70.8641 192.104 70.6935 192.302 70.5015 192.637C70.3041 192.969 70.0961 193.437 69.9668 193.92C69.9308 194.038 69.9095 194.161 69.8841 194.28C69.8561 194.397 69.8481 194.518 69.8295 194.63C69.8095 194.742 69.8121 194.854 69.8028 194.958C69.7921 195.061 69.7961 195.16 69.7975 195.25C69.7948 195.43 69.8108 195.58 69.8215 195.684C69.8308 195.786 69.8375 195.846 69.8375 195.846L68.8788 195.854C68.8788 195.854 68.8881 195.784 68.9055 195.661C68.9215 195.538 68.9428 195.364 68.9935 195.158C69.0161 195.056 69.0388 194.945 69.0775 194.83C69.1148 194.717 69.1428 194.594 69.1935 194.474C69.2415 194.353 69.2815 194.226 69.3428 194.105C69.4015 193.982 69.4535 193.857 69.5228 193.74C69.7801 193.26 70.1068 192.833 70.3815 192.548C70.6535 192.258 70.8641 192.104 70.8641 192.104Z" fill="black"/>
<path d="M145.249 179.451C145.249 179.451 145.078 179.651 144.886 179.984C144.689 180.316 144.481 180.784 144.352 181.267C144.316 181.385 144.294 181.508 144.269 181.627C144.24 181.744 144.233 181.865 144.214 181.977C144.194 182.089 144.197 182.201 144.188 182.305C144.177 182.408 144.181 182.507 144.182 182.597C144.18 182.777 144.196 182.927 144.206 183.031C144.217 183.133 144.222 183.193 144.222 183.193L143.264 183.201C143.264 183.201 143.273 183.131 143.289 183.008C143.306 182.885 143.328 182.711 143.378 182.505C143.401 182.403 143.424 182.292 143.462 182.177C143.5 182.064 143.528 181.941 143.578 181.821C143.626 181.7 143.666 181.573 143.728 181.452C143.786 181.329 143.838 181.204 143.908 181.087C144.165 180.607 144.492 180.18 144.766 179.895C145.038 179.605 145.249 179.451 145.249 179.451Z" fill="black"/>
<path d="M147.933 180.217C147.933 180.217 147.762 180.417 147.57 180.751C147.373 181.083 147.165 181.551 147.036 182.033C147 182.152 146.978 182.275 146.953 182.393C146.925 182.511 146.917 182.632 146.898 182.744C146.878 182.856 146.881 182.968 146.872 183.072C146.861 183.175 146.865 183.273 146.866 183.364C146.864 183.544 146.88 183.693 146.89 183.797C146.901 183.9 146.906 183.96 146.906 183.96L145.948 183.968C145.948 183.968 145.957 183.897 145.974 183.775C145.99 183.652 146.012 183.477 146.062 183.272C146.085 183.169 146.108 183.059 146.146 182.944C146.184 182.831 146.212 182.708 146.262 182.588C146.31 182.467 146.35 182.34 146.412 182.219C146.47 182.096 146.522 181.971 146.592 181.853C146.849 181.373 147.176 180.947 147.45 180.661C147.722 180.372 147.933 180.217 147.933 180.217Z" fill="black"/>
<path d="M187.043 185.202C187.043 185.202 186.872 185.401 186.68 185.735C186.483 186.067 186.275 186.535 186.145 187.018C186.109 187.137 186.088 187.259 186.063 187.378C186.035 187.495 186.027 187.617 186.008 187.729C185.988 187.841 185.991 187.953 185.981 188.057C185.971 188.159 185.975 188.258 185.976 188.349C185.973 188.529 185.989 188.678 186 188.782C186.009 188.885 186.016 188.945 186.016 188.945L185.057 188.953C185.057 188.953 185.067 188.882 185.083 188.759C185.1 188.637 185.121 188.462 185.172 188.257C185.195 188.154 185.217 188.043 185.256 187.929C185.293 187.815 185.321 187.693 185.372 187.573C185.421 187.451 185.46 187.325 185.521 187.203C185.58 187.081 185.632 186.955 185.701 186.838C185.959 186.358 186.285 185.931 186.56 185.646C186.832 185.357 187.043 185.202 187.043 185.202Z" fill="black"/>
<path d="M189.727 185.969C189.727 185.969 189.556 186.169 189.364 186.502C189.167 186.834 188.959 187.302 188.829 187.785C188.793 187.904 188.772 188.026 188.747 188.145C188.719 188.262 188.711 188.384 188.692 188.496C188.672 188.608 188.675 188.721 188.665 188.824C188.655 188.926 188.659 189.025 188.66 189.116C188.657 189.296 188.673 189.445 188.684 189.549C188.695 189.652 188.7 189.712 188.7 189.712L187.741 189.72C187.741 189.72 187.751 189.649 187.768 189.526C187.784 189.404 187.805 189.229 187.856 189.024C187.879 188.921 187.901 188.81 187.94 188.696C187.977 188.582 188.005 188.46 188.056 188.34C188.105 188.218 188.144 188.092 188.205 187.97C188.264 187.848 188.316 187.722 188.385 187.605C188.643 187.125 188.969 186.698 189.244 186.413C189.516 186.124 189.727 185.969 189.727 185.969Z" fill="black"/>
</svg>
