<svg width="184" height="198" viewBox="0 0 184 198" fill="none" xmlns="http://www.w3.org/2000/svg">
<path d="M176.047 188.783C172.587 189.339 164.645 188.448 164.547 185.208C164.51 183.972 165.134 182.707 166.045 181.613C166.782 183.077 173.166 185.42 176.105 183.46C179.119 181.453 179.002 166.941 177.957 160.349C176.915 153.756 175.219 146.728 176.105 134.444C176.125 134.143 176.147 133.828 176.174 133.5C176.807 134.441 177.401 135.509 177.957 136.732L178.127 136.723C178.53 143.027 178.623 151.609 182.814 157.793C181.43 169.015 183.259 180.847 182.187 181.859C180.178 183.757 178.805 188.337 176.047 188.783Z" fill="#D1D3D4"/>
<path d="M181.642 93.4785C179.936 84.2398 176.835 78.8798 173.655 73.6412C171.398 69.9225 169.1 66.2638 167.24 61.3225L167.032 61.3265C166.822 60.5825 163.448 48.5305 163.136 40.1985C162.815 31.6025 163.814 20.0998 163.814 20.0998C163.814 20.0998 162.396 16.4145 160.055 15.1878C155.2 69.3598 173.514 73.7278 177.514 115.384V115.387C177.514 122.663 176.532 129.172 176.207 133.5C176.84 134.441 177.418 135.509 177.974 136.732L178.136 136.723C178.132 136.712 178.128 136.703 178.128 136.692C177.727 130.381 184.559 109.28 181.642 93.4785Z" fill="#565859"/>
<path d="M181.642 93.4785C179.936 84.2398 176.835 78.8798 173.655 73.6412C171.398 69.9225 169.1 66.2638 167.24 61.3225L167.032 61.3265C166.822 60.5825 163.448 48.5305 163.136 40.1985C162.815 31.6025 163.814 20.0998 163.814 20.0998C163.814 20.0998 162.396 16.4145 160.055 15.1878C155.2 69.3598 173.514 73.7278 177.514 115.384V115.387C177.514 122.663 176.532 129.172 176.207 133.5C176.84 134.441 177.418 135.509 177.974 136.732L178.136 136.723C178.132 136.712 178.128 136.703 178.128 136.692C177.727 130.381 184.559 109.28 181.642 93.4785Z" stroke="#565859" stroke-miterlimit="10"/>
<path d="M111.562 57.8425C111.562 57.8425 116.771 57.0199 122.249 56.0945C130.763 58.6745 140.733 57.5199 149.329 52.1865H149.331C152.173 57.5199 152.939 63.3039 152.43 66.2079C152.022 65.4745 151.077 64.5825 150.009 64.0772C148.153 63.1959 145.931 62.5052 145.506 62.2239C144.837 61.7759 146.625 64.3865 146.177 66.3972C145.506 65.1705 140.261 63.3479 135.235 62.7905C130.211 62.2319 120.607 64.4319 111.562 57.8425Z" fill="#BCBEC0"/>
<path d="M156.645 12.0595C156.645 12.0595 156.655 14.4209 156.193 16.6995C153.325 12.3142 146.689 10.8529 146.689 10.8529H146.686C146.719 9.51954 146.595 8.03287 146.123 6.50887C151.315 6.95421 156.645 12.0595 156.645 12.0595Z" fill="#808285"/>
<path d="M145.748 9.89225C145.748 9.89225 137.692 7.81892 127.202 9.99625C111.884 13.1749 105.817 23.8909 105.817 23.8909C103.622 24.1922 101.066 25.0136 101.066 25.0136C107.877 11.3896 123.622 8.26425 123.622 8.26425C123.512 7.25892 122.057 6.47892 122.057 6.47892C122.057 6.47892 128.87 4.46825 136.797 6.25358C137.021 5.02425 135.012 3.57492 135.012 3.57492C135.012 3.57492 142.412 2.91758 143.945 5.13891C144.913 6.54291 145.449 8.32425 145.748 9.89225Z" fill="#808285"/>
<path d="M149.329 52.1867C140.733 57.5201 130.763 58.6747 122.249 56.0947C126.707 55.3414 131.343 54.6107 133.483 55.4374C133.483 52.4227 131.886 49.9401 131.886 49.9401C131.886 49.9401 137.282 50.3734 138.77 52.8027C143.275 47.2747 142.826 41.4534 142.826 41.4534C145.677 44.8507 147.805 48.1867 149.333 52.1867H149.329Z" fill="#F1F2F2"/>
<path d="M114.46 126.408C127.849 112.452 140.93 130.645 142.826 134.665C144.726 138.685 147.516 147.394 146.401 150.524C145.285 153.649 137.269 176.522 134.565 178.408C130.044 181.564 123.176 178.408 123.846 175.313C124.737 174.418 128.201 173.413 128.201 173.413C128.201 173.413 136.686 162.024 133.446 151.193C130.881 143.264 125.521 141.144 118.708 133.104C116.874 130.94 115.494 128.629 114.46 126.408Z" fill="#F1F2F2"/>
<path d="M127.156 103.799C123.36 102.661 117.96 107.002 112.205 111.89C113.713 107.795 117.605 101.163 126.972 101.394C139.694 101.709 148.264 132.133 149.214 135.67C147.644 134.157 146.049 132.505 144.461 130.662C134.87 119.55 133.504 104.03 127.474 103.806C127.366 103.803 127.262 103.799 127.156 103.799Z" fill="#F1F2F2"/>
<path d="M142.826 134.665C140.93 130.645 127.849 112.452 114.46 126.408C112.041 121.249 111.474 116.576 111.361 115.336C115.552 110.921 120.998 103.816 127.156 103.8C127.262 103.8 127.366 103.803 127.474 103.807C133.504 104.031 134.87 119.551 144.461 130.663C146.049 132.505 147.644 134.156 149.214 135.671C149.274 135.888 149.305 136.005 149.305 136.005C149.305 136.005 148.076 141.589 150.421 150.075C148.076 153.873 144.166 161.689 142.826 165.709C141.486 169.728 138.806 176.428 138.806 178.884C137.132 180.893 133.336 183.573 131.885 183.799C130.432 184.023 123.286 183.799 122.281 181.343C121.277 178.884 122.952 176.204 123.846 175.313C123.176 178.408 130.044 181.564 134.565 178.408C137.269 176.523 145.285 153.649 146.401 150.524C147.516 147.395 144.726 138.685 142.826 134.665Z" fill="#BCBEC0"/>
<path d="M127.156 103.799C120.998 103.817 115.552 110.921 111.361 115.337C111.344 115.125 111.337 115.015 111.337 115.015C111.337 115.015 111.538 113.702 112.205 111.89C117.96 107.002 123.36 102.661 127.156 103.799Z" fill="#D1D3D4"/>
<path d="M106.608 118.77C106.021 118.938 105.445 118.499 104.96 117.886C107.378 116.026 109.824 113.913 112.205 111.89C111.538 113.702 111.338 115.015 111.338 115.015C111.338 115.015 111.345 115.125 111.361 115.337C109.518 117.279 107.921 118.703 106.608 118.77Z" fill="#D1D3D4"/>
<path d="M102.618 45.5201C102.618 45.5201 111.21 52.5041 122.248 55.8467C116.771 56.7707 111.562 57.9934 111.562 57.9934C108.416 55.7027 106.015 52.8267 104.31 49.4241C103.632 48.0841 103.07 46.8534 102.614 45.5201H102.618Z" fill="#565859"/>
<path d="M127.203 66.3277C108.225 66.3277 104.269 49.0663 104.269 49.0663L104.309 49.045C106.015 52.449 108.416 55.5517 111.563 57.8423C120.607 64.4317 130.211 62.197 135.236 62.757C140.26 63.313 145.507 65.101 146.176 66.3277C146.625 64.3183 144.836 61.6383 145.507 62.0863C145.932 62.3677 148.153 62.921 150.008 63.8023C151.439 65.909 149.328 69.3597 149.328 69.3597C149.328 69.3597 146.176 66.3277 127.203 66.3277Z" fill="#565859"/>
<path d="M103.171 119.216C97.9413 122.944 92.944 125.041 89.084 121.885C89.084 121.836 89.084 121.781 89.0813 121.732C90.3813 120.124 108.524 98.0411 126.972 98.0411C140.592 98.0411 141.031 108.409 148.415 116.121C159.375 127.566 169.679 123.788 176.175 133.5C176.148 133.828 176.124 134.142 176.104 134.444C175.22 146.728 176.915 153.756 177.957 160.349C179.001 166.941 179.119 181.453 176.104 183.46C173.167 185.42 166.781 183.078 166.044 181.614C167.515 179.842 169.736 178.529 171.093 178.562C171.093 178.562 172.363 163.209 168.077 154.61C164.5 147.436 157.127 143.294 149.215 135.67C148.264 132.133 139.695 101.709 126.972 101.394C117.605 101.164 113.713 107.796 112.205 111.889C109.824 113.913 107.379 116.026 104.96 117.886C104.163 116.881 103.596 115.42 103.596 115.42C103.596 115.42 103.153 117.256 103.171 119.216Z" fill="#F1F2F2"/>
<path d="M89.081 121.731C89.085 121.782 89.085 121.835 89.085 121.886C89.057 121.869 89.0344 121.845 89.0077 121.825C89.0077 121.825 89.0304 121.795 89.081 121.731Z" fill="#58595B"/>
<path d="M103.69 122.12C103.69 122.12 99.3351 125.916 97.2311 126.643C96.0191 126.029 93.3058 125.58 93.7138 129.657C93.0031 130.495 90.5151 132.169 88.6885 132.169C88.6818 132.196 88.6751 132.22 88.6685 132.247L88.5218 132.209C89.0245 130.103 89.1045 125.396 89.0845 121.885C92.9431 125.041 97.9418 122.944 103.171 119.216C103.178 120.231 103.308 121.279 103.69 122.12Z" fill="#BCBEC0"/>
<path d="M86.4078 140.785C87.0812 135.155 87.9292 128.187 89.0078 120.187H89.0612C89.0705 120.187 89.0772 121.208 89.0812 121.861C89.0305 121.925 89.0078 121.891 89.0078 121.891C89.0345 121.911 89.0572 121.901 89.0838 121.919C89.1038 125.429 89.0238 130.119 88.5212 132.227L88.6692 132.255C87.8252 135.645 87.3958 139.671 87.1718 144.069L87.0078 144.125C86.8505 142.923 86.6518 141.853 86.4078 140.785Z" fill="#58595B"/>
<path d="M86.4079 140.655C86.6519 141.724 86.8505 142.856 87.0079 144.059L87.1719 144.066C86.7892 151.539 86.9839 160.074 86.6785 168.346C84.8532 171.135 82.1399 183.088 82.1572 191.459C81.1692 192.796 74.2105 197.158 72.6092 196.987C71.0079 196.816 64.4959 194.588 63.5652 193.47C62.6639 192.384 62.8119 189.208 63.1932 187.742C64.2345 188.471 71.2399 193.134 75.1585 189.158C79.4039 184.856 82.7599 174.16 83.4225 168.388C83.9252 164.047 84.3679 157.756 86.4079 140.655" fill="#D1D3D4"/>
<path d="M70.5159 4.06708C71.9199 3.31641 73.0719 2.98308 73.5973 3.66308C74.2879 5.11374 71.3066 13.3444 70.4693 16.7511C69.9426 18.9017 69.7013 20.1871 69.6253 22.8537H69.6213C59.3506 14.8537 70.5159 4.06708 70.5159 4.06708Z" fill="#DEB6B6"/>
<path d="M69.9967 28.9497C59.7794 20.8523 60.5501 14.2377 61.0887 12.5083C61.4954 11.215 66.8541 6.02034 70.5154 4.06701C70.5154 4.06701 59.3514 14.8537 69.6221 22.8537H69.6247C69.5207 24.187 69.6714 26.7323 69.8154 27.8843C69.8967 28.5483 69.9794 28.8977 70.0101 29.055C70.0074 29.0483 70.0007 28.9563 69.9967 28.9497Z" fill="#C29393"/>
<path d="M57.0293 122.656C56.9453 123.731 54.9053 150.188 55.5253 162.817C55.5253 162.817 52.5466 177.728 52.008 186.435C51.1333 187.212 46.852 190.009 43.968 190.455C41.084 190.896 34.4573 187.888 33.7346 186.773C33.024 185.68 33.0066 183.319 33.684 182.163C34.796 182.572 43.5626 185.664 47.4853 183.181C51.68 180.528 52.8493 132.209 56.8653 122.663L57.0293 122.656Z" fill="#BCBEC0"/>
<path d="M41.0705 43.6725C39.9545 46.5739 37.8038 50.1312 33.6771 52.7072C34.0118 47.9032 39.2318 45.1672 41.0705 43.6725Z" fill="#614141"/>
<path d="M29.8115 54.4657C30.3101 51.3031 31.2515 48.5831 33.6768 46.8978C33.9155 46.7978 34.1501 46.6937 34.3835 46.5831C37.8981 44.9524 40.9795 42.5137 41.7741 40.6471C42.0088 40.0951 42.1661 39.4311 42.2661 38.7111C42.2301 39.2271 42.0221 41.2137 41.0701 43.6724C39.2315 45.1671 34.0128 47.9031 33.6768 52.7071C32.6048 53.3804 31.4021 53.9831 30.0488 54.4924L29.8115 54.4657Z" fill="#473030"/>
<path d="M27.815 48.3522C26.1163 48.4055 24.7203 48.1949 23.5603 47.8629L23.2363 47.9029C23.2363 47.9029 22.9777 48.1775 22.5523 48.6509L22.5963 48.6869C23.963 49.4109 29.9923 49.3575 29.379 51.0522C29.1817 51.5989 28.7057 52.7775 28.143 54.2882C27.195 56.8109 25.999 60.2549 25.4203 63.2029C24.995 65.3735 23.3057 66.2175 21.2123 65.8549C20.935 65.8082 19.8857 61.4442 22.679 55.1629C19.471 58.7842 19.8857 64.2909 19.9563 65.5909C18.0163 66.6522 15.7083 64.5655 15.591 64.4589C16.2643 67.0349 17.8857 69.2122 20.6697 69.3429C25.359 69.5669 28.451 67.1589 29.0977 61.0815C29.343 58.8042 29.4803 56.5389 29.811 54.4655C30.311 51.3029 31.2523 48.5829 33.6777 46.8989C31.7177 47.7322 29.6603 48.2949 27.815 48.3522Z" fill="#DEB6B6"/>
<path d="M54.5839 13.5C41.7773 7.56404 26.8866 8.5627 26.8866 8.5627C34.9066 5.98937 47.5226 5.4307 55.5253 11.5774C55.5253 11.5774 65.8933 3.12937 68.6839 2.4587C70.1639 2.10404 71.2559 2.01604 72.0599 2.24137C72.0599 2.24137 68.2786 3.17604 63.3373 7.2587C62.0346 8.33737 58.7439 11.456 57.0199 13.104C56.3693 13.728 55.4053 13.8814 54.5839 13.5Z" fill="#808285"/>
<path d="M13.7388 35.9879C13.5081 36.8025 13.5774 37.7372 13.8454 38.6612C13.8894 38.8119 13.9401 38.9599 13.9934 39.1105C14.8134 41.3879 16.7601 43.5185 18.3241 43.6625C20.7801 43.8839 25.5801 40.6479 26.2508 38.8585C26.4521 38.3199 26.4681 37.4385 26.1574 36.6039C25.9721 35.7972 25.6348 33.8305 26.1974 32.0479C27.3654 28.3439 31.4054 19.5025 33.5668 16.8839C36.4708 13.3665 40.6588 13.4225 41.4961 16.0465C42.3334 18.6692 41.5028 22.8065 43.8948 25.6839C47.0494 29.4785 58.5401 31.5732 61.4841 35.3652C64.3854 39.1039 65.3401 45.5052 62.8788 49.8025C60.7948 53.4412 49.2614 63.9492 45.1401 79.1039C41.7308 91.6425 48.6814 108.868 63.0628 117.387C78.7228 126.663 84.3241 131.48 86.4081 140.655C84.3681 157.756 83.9254 164.047 83.4228 168.389C82.7601 174.16 79.4028 184.857 75.1588 189.159C71.2401 193.135 64.2348 188.471 63.1934 187.741C63.2068 187.695 63.2161 187.651 63.2294 187.607C63.6388 186.207 67.0654 184.649 70.0974 183.42C72.6828 181.965 72.3121 169.575 71.7721 161.311C71.2334 153.047 67.8188 135 64.0668 130.663C61.1668 127.303 57.0321 122.623 57.0321 122.623C57.0321 122.623 57.0321 122.633 57.0294 122.656L56.8654 122.663C52.8481 132.211 51.6801 180.529 47.4854 183.181C43.5628 185.664 34.7961 182.572 33.6841 182.164C33.7001 182.137 33.7174 182.107 33.7348 182.08C34.4574 180.961 36.6921 179.068 39.5228 178.395C41.2348 176.941 42.7214 136.745 36.4308 124.632C30.1428 112.516 24.0734 108.496 22.8668 106.543C21.6574 104.591 23.3694 96.9959 23.3694 96.9959C23.3694 96.9959 21.1721 100.456 19.8494 102.52C18.6401 101.233 17.9334 97.7759 17.5041 94.9799C17.0748 92.1825 17.4868 88.0612 17.3334 83.9185C17.1828 79.7772 14.0241 69.4132 12.8081 68.3305C12.0134 67.9625 11.2334 68.5225 11.2334 68.5225C11.2334 68.5225 6.31877 61.4305 6.31877 59.8119C6.31877 58.1905 8.55344 55.3439 8.55344 55.3439C7.60544 54.9545 5.87344 56.9652 5.87344 56.9652C5.87344 56.9652 2.5801 51.7159 2.7481 49.7625C3.1361 48.6439 4.0881 47.5279 4.0881 47.5279C3.47077 46.7479 1.85344 46.6332 1.85344 46.6332C1.18277 45.7959 1.2401 42.8959 1.4081 42.6145C1.57477 42.3359 3.19344 40.6039 3.19344 40.6039C1.7961 39.4879 2.7481 34.6585 2.7481 34.6585L5.3841 33.4319C5.2161 32.4532 5.2601 30.7785 5.2601 30.7785C5.2601 30.7785 6.85077 30.0385 7.57477 29.4385C7.5521 28.1665 8.26544 26.4945 8.48677 26.0052C13.9361 24.5319 18.1268 17.5999 19.6641 16.2465C22.0094 14.1839 24.5761 14.3505 24.8574 16.4145C25.1348 18.4879 24.1294 23.7839 22.4548 26.9132C21.3228 29.0265 17.9934 32.3159 15.9561 34.2225C15.0148 34.4239 14.2854 34.7892 13.9694 35.3985C13.8721 35.5865 13.7961 35.7839 13.7388 35.9879ZM29.8121 54.4652L30.0494 54.4932C31.4028 53.9839 32.6054 53.3799 33.6774 52.7065C37.8041 50.1305 39.9121 46.5732 41.0268 43.6719C41.9788 41.2132 42.1801 39.2279 42.1801 38.7119V38.7079C42.1801 38.1625 42.3401 37.5825 42.3508 36.9932C37.1414 48.6172 21.0068 45.9239 18.4734 45.4239C18.2561 45.3812 18.1494 45.3545 18.1494 45.3545C15.3028 45.9665 14.0921 43.6719 14.0921 43.6719C14.2388 44.6879 14.5161 45.5052 14.9721 45.8932C16.7308 47.3879 17.2174 45.3145 18.4774 45.5145C18.5374 45.5252 18.5988 45.5385 18.6588 45.5585C18.5414 45.8865 18.4481 46.7105 18.3908 47.7159C18.2881 49.6159 18.3308 52.1679 18.6601 53.2639L18.7361 53.2705C17.2321 55.2865 15.8454 57.4879 15.4774 59.1252C15.1121 60.7399 15.1294 62.6932 15.5908 64.4585C16.2641 67.0345 17.8854 69.2119 20.6694 69.3425C25.3601 69.5665 28.4521 67.1585 29.0974 61.0812C29.3428 58.8039 29.4801 56.5399 29.8121 54.4652Z" fill="#F1F2F2"/>
<path d="M23.5606 47.8632L34.3473 46.5098L34.3846 46.5832C34.1499 46.6938 33.9153 46.7978 33.6766 46.8978C31.7179 47.7325 29.6606 48.2952 27.8153 48.3525C26.1166 48.4058 24.7193 48.1952 23.5606 47.8632Z" fill="#D1D3D4"/>
<path d="M22.5958 48.6872L22.5518 48.6499C22.2745 48.9552 21.9251 49.3472 21.5371 49.8032C20.7131 50.7512 19.7011 51.9739 18.7371 53.2699C17.2331 55.2859 15.8465 57.4872 15.4771 59.1259C15.1118 60.7405 15.1291 62.6925 15.5918 64.4579C15.7078 64.5659 18.0171 66.6525 19.9558 65.5912C19.8851 64.2912 19.4705 58.7832 22.6798 55.1632C19.8851 61.4432 20.9345 65.8085 21.2118 65.8552C23.3065 66.2165 24.9945 65.3725 25.4198 63.2018C25.9998 60.2539 27.1958 56.8112 28.1438 54.2885C28.7065 52.7779 29.1811 51.5979 29.3798 51.0525C29.9918 49.3579 23.9625 49.4112 22.5958 48.6872Z" fill="#EFD1D1"/>
<path d="M21.5373 49.8027C20.7133 50.7507 19.7013 51.9734 18.7373 53.2694L18.66 53.2627C18.332 52.168 18.288 49.6147 18.392 47.716C18.78 47.8294 21.356 48.6467 21.5373 49.8027Z" fill="#614141"/>
<path d="M23.2357 47.9033C23.2357 47.9033 22.9783 48.178 22.5517 48.65C22.2743 48.9553 21.9263 49.3473 21.537 49.8033C21.357 48.6473 18.781 47.83 18.3917 47.7153C18.449 46.7113 18.5423 45.8873 18.6597 45.558C19.6183 45.866 21.021 47.146 23.561 47.8633L23.2357 47.9033Z" fill="#473030"/>
<path d="M18.4955 45.4244C21.0275 45.923 37.1409 48.6164 42.3502 36.9924C42.3409 37.5817 42.1795 38.1617 42.1795 38.7084V38.711C42.1795 39.431 41.9649 40.095 41.7302 40.647C40.9369 42.5137 37.8769 44.9524 34.3622 46.583L34.3369 46.5097L23.5555 47.863C21.0155 47.1457 19.6155 45.867 18.6569 45.559C18.5969 45.5377 18.5382 45.5244 18.4769 45.515L18.4955 45.4244Z" fill="#D1D3D4"/>
<path d="M14.0972 43.6725C14.0972 43.6725 15.3132 45.9672 18.1612 45.3538C18.1612 45.3538 18.2772 45.3805 18.4958 45.4245L18.4785 45.5152C17.2198 45.3138 16.7332 47.3872 14.9745 45.8938C14.5198 45.5045 14.2452 44.6872 14.0972 43.6725Z" fill="#D1D3D4"/>
<path d="M25.9692 36.1921C23.6612 34.6175 16.5292 35.5561 14.2852 35.9001C14.2985 35.7935 14.3052 35.7335 14.3052 35.7335C14.3052 35.7335 14.9812 35.1375 15.9558 34.2228C18.2105 33.7361 21.6812 34.1895 23.5705 34.5041C24.7972 34.7081 25.5532 35.3948 25.9692 36.1921Z" fill="#424142"/>
<path d="M14.2848 35.9008C14.0408 35.9381 13.8528 35.9675 13.7381 35.9875C13.7954 35.7835 13.8728 35.5861 13.9701 35.3981C14.2848 34.7888 15.0154 34.4235 15.9568 34.2221C14.9821 35.1368 14.3048 35.7328 14.3048 35.7328C14.3048 35.7328 14.2981 35.7941 14.2848 35.9008Z" fill="#424142"/>
<path d="M26.254 36.9827C26.254 36.9827 26.214 36.8454 26.1566 36.604C26.4686 37.4387 26.4513 38.3187 26.25 38.8587C25.5806 40.648 20.7806 43.884 18.3246 43.6627C16.7606 43.5187 14.814 41.388 13.994 39.1094C14.0033 38.972 14.01 38.8414 14.0206 38.7107C15.802 39.2307 22.7633 40.936 26.254 36.9827Z" fill="black"/>
<path d="M13.8459 38.661C13.8966 38.6743 13.9526 38.6917 14.0206 38.7117C14.0099 38.8423 14.0033 38.973 13.9939 39.1103C13.9393 38.9597 13.8899 38.8117 13.8459 38.661Z" fill="#262526"/>
<path d="M26.1568 36.2681C26.1034 36.1307 26.0434 35.5201 25.9728 35.5201H25.9688C23.6608 34.1867 16.5288 35.2201 14.2848 35.5641C14.0408 35.6014 13.8528 35.8001 13.7381 35.8201C13.5074 36.6334 13.5781 37.6521 13.8461 38.5774C13.8968 38.5907 13.9528 38.6494 14.0208 38.6694C15.8021 39.1881 22.7634 40.7467 26.2541 36.7934C26.2541 36.7934 26.2141 36.5094 26.1568 36.2681" fill="#262526"/>
<path d="M26.1568 36.2681C26.1034 36.1307 26.0434 35.5201 25.9728 35.5201H25.9688C23.6608 34.1867 16.5288 35.2201 14.2848 35.5641C14.0408 35.6014 13.8528 35.8001 13.7381 35.8201C13.5074 36.6334 13.5781 37.6521 13.8461 38.5774C13.8968 38.5907 13.9528 38.6494 14.0208 38.6694C15.8021 39.1881 22.7634 40.7467 26.2541 36.7934C26.2541 36.7934 26.2141 36.5094 26.1568 36.2681V36.2681Z" stroke="#262526" stroke-miterlimit="10"/>
<path d="M19.6647 16.247C18.1274 17.6004 13.9368 24.531 8.48608 26.0057C8.53008 25.915 8.55275 25.8644 8.55275 25.8644C8.55275 25.8644 11.3434 23.911 11.8128 22.6324C12.2781 21.355 12.5728 18.887 13.4874 17.1044C14.4021 15.3257 17.8421 12.5817 17.8421 12.5817C17.8421 12.5817 19.4967 2.08038 21.8621 0.525714C24.2274 -1.03162 24.9674 7.77505 26.8874 8.56305C26.8874 8.56305 41.7767 7.56438 54.5834 13.5004C55.4047 13.8817 56.3701 13.7284 57.0194 13.1044C58.7447 11.4564 62.0341 8.33772 63.3367 7.25905C68.2781 3.17638 72.0607 2.24172 72.0607 2.24172C72.7741 2.43505 73.2634 2.87105 73.5981 3.57505C73.0714 2.89372 71.9194 3.13905 70.5154 3.88972C66.8541 5.84172 61.4941 11.215 61.0887 12.5084C60.5501 14.2377 59.7794 20.8537 69.9967 28.9497C69.9994 28.9564 70.0074 28.9604 70.0101 28.967C76.6087 36.919 73.9501 47.6284 73.9501 47.6284C73.9501 47.6284 82.4181 49.9137 90.5314 50.4764C94.2834 50.7377 99.6194 49.967 104.269 49.0657C104.269 49.0657 108.226 66.3284 127.202 66.3284C146.177 66.3284 149.329 69.359 149.329 69.359C149.329 69.359 151.439 65.9084 150.009 63.8017C151.077 64.3084 152.022 64.9244 152.43 65.6577C152.939 62.7537 152.173 57.2497 149.331 51.0857C147.805 47.7724 145.677 44.2657 142.826 40.8684C142.826 40.8684 143.275 47.207 138.77 52.7337C137.282 50.3057 131.886 49.803 131.886 49.803C131.886 49.803 133.483 52.1471 133.483 55.1631C131.343 54.3351 126.707 55.0937 122.249 55.847C111.21 52.5044 102.618 45.5204 102.618 45.5204H102.614C100.882 40.187 100.642 34.4284 101.737 30.3404C103.077 27.6604 108.658 24.271 108.658 24.271C108.175 23.8684 107.053 23.7964 105.817 23.967C105.817 23.967 111.883 13.2124 127.202 10.0337C137.691 7.85639 145.747 9.91105 145.747 9.91105C146.139 11.9617 146.123 13.8884 146.123 13.8884C146.123 13.8884 146.631 12.187 146.686 10.8537H146.689C146.689 10.8537 153.325 12.3137 156.193 16.699C155.854 18.3804 155.261 20.0284 154.217 21.1217C158.35 19.0004 160.387 15.2524 160.387 15.2524C155.534 69.423 172.847 73.727 178.181 115.383V115.387C176.847 122.663 176.866 129.171 176.541 133.499C170.046 123.788 159.558 127.567 148.597 116.12C141.214 108.408 140.683 98.0417 127.063 98.0417C108.615 98.0417 90.4261 120.254 89.1274 121.862C89.1234 121.208 89.0714 120.187 89.0607 120.187H89.0074C87.9287 128.187 87.0807 135.154 86.4074 140.786C84.3247 131.61 78.7234 126.728 63.0621 117.452C48.6821 108.934 41.7301 91.675 45.1407 79.1364C49.2607 63.9817 60.7941 53.4577 62.8781 49.819C65.3407 45.5217 64.3861 39.111 61.4847 35.3724C58.5407 31.5804 47.0501 29.483 43.8941 25.6884C41.5021 22.8097 42.3327 18.671 41.4954 16.0484C40.6581 13.4257 36.4714 13.367 33.5674 16.8844C31.4061 19.5044 27.3661 28.3444 26.1967 32.0484C25.6341 33.831 25.9727 35.795 26.1567 36.6017C26.1034 36.4644 26.0434 36.187 25.9727 36.187H25.9687C25.5541 36.187 24.7967 34.7057 23.5701 34.5017C21.6807 34.1857 18.2114 33.735 15.9567 34.2217C17.9927 32.3151 21.3234 29.0257 22.4554 26.9124C24.1301 23.783 25.1354 18.4884 24.8567 16.4137C24.5754 14.351 22.0101 14.183 19.6647 16.247Z" fill="#6A6C6E"/>
<path d="M111.361 115.337C111.474 116.577 112.041 121.249 114.46 126.409C115.494 128.629 116.874 130.941 118.708 133.105C125.521 141.145 130.881 143.265 133.446 151.194C136.686 162.023 128.201 173.414 128.201 173.414C128.201 173.414 124.737 174.418 123.846 175.313C122.952 176.205 121.277 178.883 122.281 181.343C123.286 183.798 130.432 184.022 131.886 183.798C133.336 183.574 137.132 180.894 138.806 178.883C138.806 176.429 141.486 169.729 142.826 165.709C144.166 161.689 148.076 153.874 150.421 150.075C148.076 141.59 149.305 136.006 149.305 136.006C149.305 136.006 149.274 135.889 149.214 135.67" stroke="black" stroke-width="0.502" stroke-miterlimit="10" stroke-linecap="round" stroke-linejoin="round"/>
<path d="M55.5251 11.5772C47.5225 5.43049 34.9065 5.98916 26.8865 8.56249C24.9678 7.77449 24.2278 -1.03219 21.8625 0.52648C19.4972 2.07981 17.8425 12.5825 17.8425 12.5825C17.8425 12.5825 14.4025 15.3251 13.4878 17.1038C12.5732 18.8865 12.2785 21.3558 11.8132 22.6318C11.3438 23.9118 8.55315 25.8638 8.55315 25.8638C8.55315 25.8638 8.52915 25.9145 8.48649 26.0052C8.26515 26.4945 7.55182 28.1652 7.57448 29.4385C6.85182 30.0385 5.25982 30.7785 5.25982 30.7785C5.25982 30.7785 5.21715 32.4531 5.38382 33.4318L2.74782 34.6571C2.74782 34.6571 1.79582 39.4878 3.19315 40.6038C3.19315 40.6038 1.57582 42.3358 1.40782 42.6131C1.23982 42.8958 1.18382 45.7958 1.85315 46.6331C1.85315 46.6331 3.47182 46.7478 4.08782 47.5278C4.08782 47.5278 3.13582 48.6438 2.74782 49.7625C2.57982 51.7158 5.87316 56.9651 5.87316 56.9651C5.87316 56.9651 7.60515 54.9545 8.55315 55.3438C8.55315 55.3438 6.31849 58.1905 6.31849 59.8118C6.31849 61.4305 11.2332 68.5211 11.2332 68.5211C11.2332 68.5211 12.0132 67.9625 12.8078 68.3305C14.0238 69.4131 17.1825 79.7772 17.3332 83.9185C17.4878 88.0612 17.0758 92.1825 17.5038 94.9798C17.9332 97.7758 18.6398 101.233 19.8492 102.52C21.1718 100.456 23.3692 96.9958 23.3692 96.9958C23.3692 96.9958 21.6585 104.59 22.8678 106.542C24.0732 108.496 30.1425 112.516 36.4305 124.632C42.7225 136.745 41.2345 176.941 39.5225 178.394C36.6918 179.068 34.4572 180.961 33.7345 182.08C33.7172 182.106 33.7012 182.136 33.6838 182.164C33.0078 183.318 33.0238 185.681 33.7345 186.773C34.4572 187.888 41.0838 190.896 43.9678 190.454C46.8518 190.009 51.1331 187.212 52.0078 186.434C52.5465 177.728 55.5251 162.817 55.5251 162.817C54.9051 150.189 56.9452 123.732 57.0292 122.656C57.0332 122.633 57.0331 122.622 57.0331 122.622C57.0331 122.622 61.1665 127.302 64.0678 130.662C67.8198 135 71.2331 153.046 71.7718 161.31C72.3118 169.574 72.6838 181.965 70.0971 183.42C67.0651 184.649 63.6385 186.206 63.2305 187.606C63.2171 187.65 63.2065 187.694 63.1931 187.741C62.8118 189.208 62.6638 192.384 63.5652 193.469C64.4958 194.588 71.0078 196.816 72.6091 196.986C74.2105 197.157 81.1692 192.796 82.1572 191.458C82.1398 183.088 84.8531 171.136 86.6785 168.345C86.9838 160.074 86.7892 151.538 87.1718 144.065C87.3958 139.666 87.8251 135.637 88.6691 132.246C88.6758 132.22 88.6825 132.196 88.6891 132.169C90.5145 132.169 93.0038 130.494 93.7145 129.657C93.3051 125.58 96.0185 126.029 97.2318 126.642C99.3345 125.916 103.689 122.12 103.689 122.12C103.308 121.278 103.177 120.23 103.17 119.216C103.153 117.256 103.596 115.42 103.596 115.42C103.596 115.42 104.162 116.881 104.96 117.885C105.445 118.498 106.021 118.937 106.608 118.77C107.921 118.702 109.518 117.28 111.361 115.336C115.552 110.921 120.998 103.816 127.156 103.8C127.262 103.8 127.366 103.802 127.474 103.806C133.504 104.03 134.87 119.55 144.461 130.662C146.049 132.505 147.644 134.156 149.214 135.67C157.126 143.294 164.5 147.434 168.078 154.61C172.362 163.209 171.093 178.562 171.093 178.562C169.736 178.529 167.514 179.841 166.045 181.614C165.133 182.706 164.51 183.972 164.546 185.208C164.644 188.448 172.586 189.338 176.048 188.782C178.804 188.337 180.177 183.757 182.188 181.858C183.26 180.846 181.43 169.014 182.814 157.793C178.624 151.609 178.529 143.026 178.128 136.722C178.124 136.712 178.124 136.702 178.124 136.692C177.722 130.381 184.56 109.28 181.641 93.4785C179.937 84.2398 176.834 78.8798 173.656 73.6398C171.397 69.9225 169.1 66.2638 167.24 61.3225" stroke="black" stroke-width="0.502" stroke-miterlimit="10" stroke-linecap="round" stroke-linejoin="round"/>
<path d="M104.269 49.0657C99.62 49.967 94.2827 50.7377 90.532 50.4764C82.4187 49.9137 73.9494 47.6284 73.9494 47.6284C73.9494 47.6284 76.6094 36.919 70.0107 28.967C70.0067 28.9604 70 28.9564 69.9974 28.9497" stroke="black" stroke-width="0.502" stroke-miterlimit="10" stroke-linecap="round" stroke-linejoin="round"/>
<path d="M42.2664 38.708C42.273 38.624 42.277 38.5813 42.277 38.5813" stroke="black" stroke-width="0.502" stroke-miterlimit="10" stroke-linecap="round" stroke-linejoin="round"/>
<path d="M29.8115 54.4657L30.0488 54.4924C31.4021 53.9831 32.6048 53.3804 33.6768 52.7071C37.8048 50.1311 39.9555 46.5737 41.0701 43.6724C42.0221 41.2137 42.2301 39.2271 42.2661 38.7111" stroke="black" stroke-width="0.502" stroke-miterlimit="10" stroke-linecap="round" stroke-linejoin="round"/>
<path d="M18.6597 45.5583C18.5424 45.8863 18.4491 46.7103 18.3917 47.7157C18.2877 49.6157 18.3317 52.1677 18.6597 53.2637L18.7371 53.2703" stroke="black" stroke-width="0.502" stroke-miterlimit="10" stroke-linecap="round" stroke-linejoin="round"/>
<path d="M23.2357 47.9033C23.2357 47.9033 22.9783 48.178 22.5517 48.65C22.2743 48.9553 21.9263 49.3473 21.537 49.8033C20.713 50.7513 19.701 51.974 18.737 53.27C17.233 55.286 15.8463 57.4873 15.477 59.126C15.1117 60.7406 15.129 62.6926 15.5917 64.458C16.265 67.034 17.8863 69.2113 20.6703 69.342C25.3597 69.5673 28.4517 67.158 29.0983 61.082C29.3423 58.8033 29.4797 56.5393 29.8117 54.466C30.3103 51.3033 31.2517 48.5833 33.677 46.898" stroke="black" stroke-width="0.502" stroke-miterlimit="10" stroke-linecap="round" stroke-linejoin="round"/>
<path d="M70.0236 29.0334C70.0236 29.0334 70.0196 29.0094 70.0102 28.9668C69.9796 28.8094 69.8969 28.3708 69.8156 27.7068C69.6716 26.5548 69.5209 24.7254 69.6249 22.4974C69.7022 20.7161 69.9436 18.6788 70.4689 16.5281C71.3062 13.1214 74.2876 5.02543 73.5982 3.57477C73.2636 2.87077 72.7742 2.43477 72.0609 2.24143C71.2569 2.0161 70.1636 2.1041 68.6836 2.45877C65.8929 3.12943 55.5249 11.5774 55.5249 11.5774" stroke="black" stroke-width="0.502" stroke-miterlimit="10" stroke-linecap="round" stroke-linejoin="round"/>
<path d="M73.5978 3.57439C73.0725 2.89439 71.9191 3.13839 70.5165 3.88905C66.8551 5.84239 61.4951 11.2157 61.0898 12.5091C60.5498 14.2371 59.7791 20.8531 69.9965 28.9491" stroke="black" stroke-width="0.251" stroke-miterlimit="10" stroke-linecap="round" stroke-linejoin="round"/>
<path d="M119.826 29.9278C119.826 29.9278 134.677 31.1545 142.826 40.8691C145.677 44.2651 147.805 47.7731 149.332 51.0851C152.173 57.2491 152.94 62.7531 152.43 65.6571C152.022 64.9238 151.077 64.3078 150.009 63.8025C148.153 62.9211 145.932 62.3678 145.506 62.0865C144.837 61.6371 146.625 64.3171 146.177 66.3278C145.506 65.1011 140.261 63.3131 135.236 62.7571C130.21 62.1971 120.606 64.4318 111.562 57.8425C108.417 55.5505 106.014 52.4491 104.31 49.0451C103.633 47.7051 103.07 46.3185 102.614 44.9158C100.882 39.6318 100.641 34.1251 101.737 30.0385C103.077 27.3585 108.658 24.1185 108.658 24.1185C108.176 23.7171 107.053 23.7198 105.817 23.8918C103.622 24.1931 101.066 25.0131 101.066 25.0131C107.877 11.3891 123.622 8.2638 123.622 8.2638C123.512 7.25846 122.057 6.47846 122.057 6.47846C122.057 6.47846 128.872 4.46913 136.797 6.25446C137.021 5.02513 135.012 3.57446 135.012 3.57446C135.012 3.57446 142.412 2.91713 143.945 5.13846C144.913 6.54246 145.449 8.32379 145.748 9.89179C146.14 11.9425 146.122 13.6238 146.122 13.6238C146.122 13.6238 146.632 12.3345 146.686 10.3438C146.72 9.18246 146.596 7.77846 146.122 6.25446C151.316 6.69979 156.645 12.0598 156.645 12.0598C156.645 12.0598 156.654 14.1665 156.193 16.4451C155.854 18.1265 155.261 19.9011 154.216 20.9931C158.35 18.8731 160.021 15.1878 160.021 15.1878C162.364 16.4145 163.813 20.0998 163.813 20.0998C163.813 20.0998 162.816 31.6025 163.137 40.1985C163.449 48.5291 166.822 60.5825 167.033 61.3265C167.04 61.3491 167.042 61.3625 167.042 61.3625" stroke="black" stroke-width="0.502" stroke-miterlimit="10" stroke-linecap="round" stroke-linejoin="round"/>
<path d="M89.0072 117.581C89.0072 117.581 89.0379 118.516 89.0606 119.926C89.0712 120.465 89.0779 121.078 89.0806 121.732C89.0846 121.782 89.0846 121.836 89.0846 121.885C89.1046 125.396 89.0246 130.102 88.5219 132.21" stroke="black" stroke-width="0.502" stroke-miterlimit="10" stroke-linecap="round" stroke-linejoin="round"/>
<path d="M13.9934 39.1099C13.9134 40.5939 13.8961 42.3086 14.0974 43.6726C14.2441 44.6873 14.5187 45.5046 14.9747 45.8939C16.7334 47.3873 17.2187 45.3139 18.4787 45.5153C18.5387 45.5246 18.6001 45.5379 18.6601 45.5579C19.6174 45.8673 21.0214 47.1459 23.5601 47.8633C24.7201 48.1953 26.1161 48.4059 27.8147 48.3526C29.6614 48.2953 31.7174 47.7326 33.6774 46.8979C33.9147 46.7979 34.1494 46.6939 34.3841 46.5833C37.8987 44.9526 41.2707 42.5139 42.0641 40.6473C42.2987 40.0953 42.8467 39.4313 42.8467 38.7113V38.7073C42.8467 38.1619 42.6734 37.5819 42.6841 36.9926C42.7481 34.1659 42.0334 31.1606 41.6947 30.7086C41.1921 30.0379 39.6121 30.3739 39.6121 30.3739" stroke="black" stroke-miterlimit="10" stroke-linecap="round" stroke-linejoin="round"/>
<path d="M8.44263 26.0185C8.45596 26.0145 8.47329 26.0118 8.48663 26.0052C13.936 24.5318 18.1266 17.5998 19.6653 16.2465C22.0093 14.1838 24.576 14.3505 24.8573 16.4145C25.1346 18.4878 24.1306 23.7838 22.4546 26.9132C21.3226 29.0265 17.9933 32.3158 15.956 34.2225" stroke="black" stroke-width="0.502" stroke-miterlimit="10" stroke-linecap="round" stroke-linejoin="round"/>
<path d="M25.9691 36.1922C25.5531 35.3948 24.7971 34.7082 23.5705 34.5042C21.6811 34.1895 18.2105 33.7362 15.9558 34.2228C15.0145 34.4228 14.2851 34.7882 13.9705 35.3988C13.8731 35.5855 13.7958 35.7828 13.7385 35.9882C13.5078 36.8015 13.5785 37.7362 13.8465 38.6615C13.8891 38.8122 13.9398 38.9588 13.9931 39.1095C14.8145 41.3882 16.7598 43.5188 18.3251 43.6628C20.7798 43.8828 25.5811 40.6482 26.2505 38.8588C26.4518 38.3188 26.4678 37.4388 26.1571 36.6042C26.1025 36.4668 26.0425 36.3268 25.9731 36.1922" stroke="black" stroke-width="0.502" stroke-miterlimit="10" stroke-linecap="round" stroke-linejoin="round"/>
<path d="M131.885 174.754C131.805 174.754 131.725 174.726 131.661 174.667C130.654 173.762 128.225 173.748 128.199 173.748C128.015 173.748 127.865 173.599 127.865 173.414C127.865 173.228 128.015 173.079 128.199 173.079C128.31 173.079 130.91 173.091 132.109 174.17C132.246 174.294 132.257 174.506 132.134 174.643C132.067 174.716 131.977 174.754 131.885 174.754Z" fill="black"/>
<path d="M57.4972 123.548C57.3932 123.548 57.2905 123.5 57.2252 123.409C55.8438 121.503 53.5038 120.325 50.7932 118.96C45.7718 116.431 39.5225 113.284 34.6825 103.769C34.5985 103.604 34.6652 103.403 34.8292 103.319C34.9932 103.235 35.1958 103.3 35.2798 103.465C40.0198 112.784 46.1612 115.877 51.0945 118.361C53.8838 119.765 56.2905 120.979 57.7678 123.016C57.8772 123.167 57.8438 123.376 57.6932 123.484C57.6345 123.528 57.5652 123.548 57.4972 123.548Z" fill="black"/>
<path d="M20.6688 69.5113C20.5954 69.5113 20.5288 69.4633 20.5074 69.39C17.9434 60.4726 22.5061 55.106 22.5528 55.0526C22.6128 54.9833 22.7194 54.9753 22.7888 55.0366C22.8581 55.098 22.8661 55.2033 22.8048 55.2726C22.7594 55.3246 18.3181 60.5633 20.8301 69.298C20.8554 69.386 20.8034 69.4793 20.7154 69.5046C20.6994 69.51 20.6848 69.5113 20.6688 69.5113Z" fill="black"/>
<path d="M27.5136 37.8089C27.5136 37.8089 26.8589 37.5143 26.7322 36.9556C26.6149 36.3943 26.1509 35.5676 26.0816 34.4889C26.0496 33.9489 25.8962 33.3463 25.9709 32.6876C25.9856 32.5223 25.9416 32.3543 25.9776 32.1823C25.9962 32.0943 25.9669 32.0156 25.9962 31.9169C26.0189 31.8356 26.0242 31.7529 26.0469 31.6689C26.1376 31.3369 26.2509 30.9743 26.3722 30.6223C26.8616 29.2076 27.4696 27.6409 28.2002 25.9583C28.9269 24.2743 29.7362 22.4609 30.6816 20.5716C31.1496 19.6263 31.6576 18.6663 32.2376 17.6956C32.5322 17.2143 32.8482 16.7169 33.2656 16.2529C33.4576 16.0423 33.6202 15.8356 33.8682 15.6169C34.0962 15.3996 34.3282 15.1796 34.5776 15.0009C35.5496 14.2449 36.7296 13.6489 38.0709 13.5036C38.7376 13.4383 39.4429 13.4783 40.1296 13.7263C40.8122 13.9729 41.4576 14.4689 41.8469 15.1316C41.9042 15.2089 41.9482 15.2929 41.9829 15.3809L42.0949 15.6423L42.1496 15.7743L42.1629 15.8063C42.1589 15.7889 42.1842 15.8703 42.1842 15.8703L42.1989 15.9236L42.2589 16.1423L42.3176 16.3596L42.3682 16.6116C42.3976 16.7783 42.4402 16.9609 42.4549 17.1143C42.5496 17.7543 42.5829 18.3716 42.6242 18.9823C42.6949 20.1983 42.7629 21.3796 43.0269 22.4716C43.1576 23.0129 43.3202 23.5409 43.5776 24.0063C43.6869 24.2516 43.8509 24.4583 43.9936 24.6796C44.0696 24.7863 44.1642 24.8783 44.2482 24.9796L44.3762 25.1276L44.4082 25.1649C44.3802 25.1383 44.4122 25.1676 44.4122 25.1676L44.4322 25.1876L44.5149 25.2663C44.7429 25.4889 44.9442 25.6476 45.1509 25.8183C45.3776 25.9889 45.6042 26.1596 45.8456 26.3169C46.3229 26.6369 46.8216 26.9343 47.3362 27.2103C49.3936 28.3196 51.5842 29.1929 53.6869 30.0903C55.7976 30.9796 57.8442 31.8929 59.6602 33.0849C60.1136 33.3823 60.5482 33.7076 60.9536 34.0676C61.3576 34.4183 61.7362 34.8369 62.0322 35.2743C62.1722 35.4796 62.3136 35.6703 62.4482 35.8836C62.5789 36.1023 62.7082 36.3196 62.8362 36.5356C63.0669 36.9743 63.2976 37.3956 63.4722 37.8356C64.2389 39.5649 64.5229 41.2956 64.5789 42.8089C64.6349 44.3276 64.4296 45.6436 64.1576 46.6876C63.8922 47.7356 63.5496 48.5143 63.3096 49.0356C63.0522 49.5476 62.9149 49.8209 62.9149 49.8209C62.9042 49.8423 62.8789 49.8503 62.8589 49.8396C62.8389 49.8303 62.8309 49.8049 62.8402 49.7849C62.8402 49.7849 62.9642 49.5076 63.1962 48.9876C63.3176 48.7289 63.4189 48.3916 63.5642 48.0063C63.6416 47.8143 63.6856 47.5956 63.7536 47.3689C63.8149 47.1409 63.8936 46.9009 63.9376 46.6383C64.1709 45.6049 64.3282 44.3089 64.2256 42.8316C64.1189 41.3596 63.7869 39.6956 63.0202 38.0396C62.6429 37.2103 62.1802 36.3836 61.5829 35.5996C61.3002 35.2009 60.9589 34.8369 60.5709 34.5143C60.1869 34.1849 59.7682 33.8849 59.3269 33.6076C57.5589 32.4943 55.5122 31.6409 53.4082 30.7609C51.3016 29.8809 49.0962 29.0236 46.9682 27.8996C46.4362 27.6196 45.9136 27.3129 45.4069 26.9796C44.9016 26.6503 44.4042 26.2769 43.9656 25.8583C43.8509 25.7609 43.7469 25.6383 43.6456 25.5236C43.5456 25.4076 43.4362 25.2983 43.3442 25.1743C43.1736 24.9183 42.9816 24.6729 42.8509 24.3929C42.5496 23.8529 42.3616 23.2596 42.2136 22.6649C41.9309 21.4649 41.8776 20.2369 41.8149 19.0263C41.7789 18.4223 41.7509 17.8169 41.6669 17.2236C41.5789 16.6396 41.4656 16.0316 41.1749 15.5316C40.8816 15.0276 40.4029 14.6476 39.8589 14.4449C39.3122 14.2436 38.7189 14.2023 38.1456 14.2556C36.9869 14.3689 35.9136 14.8929 35.0202 15.5796C34.7869 15.7423 34.5829 15.9356 34.3789 16.1263C34.1656 16.3063 33.9856 16.5276 33.7949 16.7329C33.4229 17.1436 33.1162 17.6063 32.8189 18.0663C32.2376 18.9956 31.7136 19.9343 31.2296 20.8623C30.2549 22.7129 29.4069 24.5023 28.6496 26.1636C27.8936 27.8276 27.2309 29.3663 26.6962 30.7489C26.4336 31.4409 26.1936 32.0956 26.1122 32.7289C26.0202 33.3609 26.0109 33.9516 26.0242 34.4809C26.0602 35.5436 26.1909 36.3729 26.2869 36.9343C26.3869 37.4956 26.4602 37.7889 26.4602 37.7889C26.4656 37.8116 27.0189 37.8343 26.9962 37.8396C26.9749 37.8449 27.5136 37.8329 27.5136 37.8116V37.8089Z" fill="black"/>
<path d="M40.6517 26.1793C40.7784 26.6313 40.421 27.07 39.9517 27.0566C38.9464 27.03 37.757 27.134 36.7117 27.2646L36.6984 27.158C36.6984 27.158 40.1197 26.6486 39.1344 24.1766L39.2077 24.0153C40.0424 24.5606 40.4504 25.482 40.6517 26.1793Z" fill="#D1D3D4"/>
<path d="M36.7122 27.2647C35.8749 27.3687 35.1282 27.4887 34.6389 27.5767C34.3176 27.6301 34.0362 27.3647 34.0656 27.0367C34.1736 25.9047 34.7189 23.6674 37.3349 23.5434C38.1229 23.5061 38.7349 23.7007 39.2082 24.0154C40.0416 24.5607 40.4509 25.4821 40.6522 26.1794C40.7789 26.6314 40.4202 27.0701 39.9522 27.0567C38.9469 27.0301 37.7576 27.1341 36.7122 27.2647Z" stroke="black" stroke-width="0.502" stroke-miterlimit="10" stroke-linecap="round" stroke-linejoin="round"/>
<path d="M19.39 25.0237C20.0526 25.1744 22.814 25.6237 22.8006 22.7157C23.2393 23.1784 23.4326 23.7704 23.5033 24.3437C23.35 25.097 23.0553 25.7477 22.8166 26.0224C21.762 25.5797 20.442 25.261 19.3833 25.0504L19.39 25.0237Z" fill="#D1D3D4"/>
<path d="M19.3833 25.0505C18.9473 24.9639 18.5553 24.8932 18.2446 24.8425C17.8393 24.7759 17.6073 24.3505 17.7726 23.9759C18.1913 22.9999 19.2126 21.4959 21.3926 21.9652C22.0233 22.1025 22.478 22.3705 22.8006 22.7159C23.2393 23.1785 23.434 23.7705 23.5033 24.3439C23.35 25.0972 23.0553 25.7479 22.8166 26.0225C21.762 25.5799 20.442 25.2612 19.3833 25.0505Z" stroke="black" stroke-width="0.502" stroke-miterlimit="10" stroke-linecap="round" stroke-linejoin="round"/>
<path d="M20.7299 24.1818C20.1219 24.0284 19.4992 24.3804 19.3152 24.9831C19.2885 25.0724 19.2992 25.1684 19.3459 25.2498C19.3925 25.3298 19.4712 25.3871 19.5632 25.4071C20.1472 25.5378 20.6899 25.6751 21.1765 25.8151C21.2072 25.8244 21.2379 25.8284 21.2699 25.8284C21.3299 25.8284 21.3899 25.8111 21.4432 25.7791C21.5232 25.7311 21.5792 25.6511 21.5979 25.5591C21.7219 24.9391 21.3405 24.3351 20.7299 24.1818Z" fill="black"/>
<path d="M44.3413 180.113C44.2626 180.113 44.184 180.085 44.12 180.029C42.3573 178.475 39.42 178.767 39.3893 178.769C39.204 178.793 39.04 178.656 39.0213 178.472C39.0013 178.288 39.1333 178.123 39.3173 178.103C39.452 178.089 42.5773 177.775 44.5626 179.527C44.7013 179.649 44.7146 179.861 44.592 180C44.5266 180.075 44.4333 180.113 44.3413 180.113Z" fill="black"/>
<path d="M75.1606 186.59C75.0313 186.59 74.9086 186.515 74.8526 186.388C73.8326 184.042 69.95 183.798 69.9113 183.795C69.726 183.786 69.5846 183.627 69.5953 183.442C69.606 183.258 69.7673 183.11 69.9486 183.127C70.1246 183.136 74.282 183.395 75.4673 186.122C75.542 186.291 75.4633 186.488 75.294 186.562C75.25 186.58 75.2046 186.59 75.1606 186.59Z" fill="black"/>
<path d="M176.103 180.448C176.018 180.448 175.931 180.415 175.866 180.35C174.314 178.798 170.974 178.936 170.939 178.939C170.763 178.951 170.598 178.804 170.589 178.619C170.581 178.435 170.723 178.278 170.909 178.27C171.057 178.264 174.581 178.116 176.341 179.876C176.471 180.007 176.471 180.219 176.341 180.35C176.275 180.415 176.189 180.448 176.103 180.448Z" fill="black"/>
<path d="M3.02625 40.9817C2.92091 40.9817 2.81825 40.9323 2.75291 40.8403C2.64625 40.6897 2.68091 40.4817 2.83158 40.3737C2.83825 40.3683 3.55958 39.8537 4.70091 38.8337C4.83825 38.711 5.05025 38.7217 5.17425 38.8603C5.29691 38.9977 5.28491 39.2097 5.14758 39.3337C3.97425 40.3803 3.25025 40.8977 3.21958 40.919C3.16091 40.9617 3.09291 40.9817 3.02625 40.9817Z" fill="black"/>
<path d="M4.79891 34.0166C4.67358 34.0166 4.55224 33.9459 4.49624 33.8246C4.41624 33.6566 4.48824 33.4579 4.65624 33.3793C5.11358 33.1633 6.39491 32.5193 6.82158 32.1353C6.95891 32.0099 7.17091 32.0219 7.29491 32.1593C7.41891 32.2966 7.40691 32.5086 7.26958 32.6326C6.68158 33.1619 5.01224 33.9513 4.94158 33.9846C4.89491 34.0059 4.84691 34.0166 4.79891 34.0166Z" fill="black"/>
<path d="M7.40916 29.8152C7.29716 29.8152 7.18782 29.7592 7.12516 29.6578C7.02649 29.5005 7.07449 29.2938 7.23182 29.1965C7.52649 29.0112 8.36116 28.4365 8.67182 28.0018C8.77982 27.8512 8.98915 27.8165 9.13849 27.9232C9.28915 28.0312 9.32382 28.2405 9.21715 28.3912C8.76515 29.0232 7.63449 29.7338 7.58649 29.7645C7.53182 29.7992 7.46916 29.8152 7.40916 29.8152Z" fill="black"/>
<path d="M73.5719 3.59689C73.5719 3.59689 73.5465 3.57289 73.4972 3.52489C73.4465 3.47689 73.3719 3.42489 73.2585 3.37022C73.0305 3.26356 72.6532 3.24756 72.1959 3.37422C71.7372 3.49822 71.2039 3.75556 70.6279 4.10622C70.0519 4.46089 69.4305 4.91155 68.7639 5.41555C67.4319 6.43155 65.9905 7.77156 64.5119 9.25556C63.7745 9.99556 63.0412 10.7982 62.3612 11.6289C62.1945 11.8369 62.0332 12.0489 61.8919 12.2596C61.8239 12.3622 61.7559 12.4689 61.7105 12.5609C61.6865 12.6062 61.6679 12.6502 61.6599 12.6729C61.6559 12.6796 61.6479 12.7142 61.6372 12.7502L61.6079 12.8516C61.5652 12.9889 61.5292 13.1209 61.5025 13.2422C61.4745 13.3689 61.4372 13.4916 61.4185 13.6222L61.3505 14.0102L61.3092 14.4009C61.1972 15.4436 61.3132 16.5129 61.5892 17.5289C61.7025 18.0436 61.9172 18.5302 62.0799 19.0249C62.1892 19.2636 62.2985 19.4996 62.4065 19.7356C62.5159 19.9702 62.6145 20.2089 62.7519 20.4276C63.2452 21.3262 63.7905 22.1676 64.3479 22.9409C64.6412 23.3196 64.9265 23.6862 65.2025 24.0422C65.4852 24.3916 65.7892 24.7076 66.0639 25.0236C66.6119 25.6596 67.1652 26.1996 67.6385 26.6956C67.8799 26.9396 68.0959 27.1796 68.3145 27.3809C68.5319 27.5836 68.7332 27.7676 68.9145 27.9356C69.2799 28.2676 69.5559 28.5436 69.7492 28.7249C69.9412 28.9089 70.0439 29.0076 70.0439 29.0076L70.0479 29.0102C70.0612 29.0236 70.0612 29.0436 70.0479 29.0569C70.0359 29.0702 70.0159 29.0716 70.0025 29.0596C70.0025 29.0596 69.5652 28.7009 68.7999 28.0742C68.6079 27.9169 68.3959 27.7422 68.1652 27.5542C67.9345 27.3636 67.7039 27.1369 67.4479 26.9062C66.9425 26.4369 66.3519 25.9276 65.7785 25.2996C65.4879 24.9902 65.1692 24.6809 64.8692 24.3369C64.5745 23.9849 64.2705 23.6222 63.9585 23.2489C63.3612 22.4796 62.7625 21.6409 62.2385 20.7142C62.0932 20.4916 61.9839 20.2449 61.8652 20.0036C61.7479 19.7596 61.6292 19.5142 61.5092 19.2676C61.3252 18.7529 61.0932 18.2449 60.9679 17.6969C60.6665 16.6222 60.5305 15.4716 60.6425 14.3356C60.6865 13.7676 60.8199 13.2062 60.9772 12.6649C61.0399 12.3876 61.1959 12.1222 61.3532 11.8942C61.5132 11.6609 61.6852 11.4382 61.8625 11.2222C62.5732 10.3596 63.3412 9.57289 64.1012 8.83289C65.6265 7.35555 67.1492 6.07956 68.5319 5.09156C69.9145 4.11022 71.1732 3.40622 72.1585 3.19822C72.6479 3.08889 73.0652 3.14756 73.3052 3.28356C73.5465 3.42489 73.6172 3.55956 73.6212 3.55289C73.6345 3.56622 73.6332 3.58755 73.6199 3.59955C73.6052 3.61155 73.5839 3.61022 73.5719 3.59689Z" fill="black"/>
<path d="M37.2925 183.714C37.2925 183.714 37.0605 183.861 36.7712 184.142C36.4792 184.418 36.1378 184.832 35.9072 185.292C35.8445 185.404 35.7952 185.521 35.7485 185.637C35.6965 185.749 35.6672 185.869 35.6312 185.98C35.5912 186.089 35.5778 186.204 35.5552 186.306C35.5298 186.408 35.5205 186.508 35.5125 186.6C35.4872 186.781 35.5005 186.933 35.5032 187.04C35.5032 187.144 35.5138 187.204 35.5138 187.204V187.244C35.5138 187.524 35.2792 187.752 34.9992 187.753C34.7192 187.754 34.4858 187.528 34.4845 187.248C34.4845 187.209 34.4858 187.169 34.4938 187.133C34.4938 187.133 34.5098 187.06 34.5392 186.929C34.5672 186.8 34.6072 186.616 34.6885 186.404C34.7232 186.297 34.7632 186.182 34.8205 186.066C34.8765 185.95 34.9258 185.826 35.0005 185.708C35.0725 185.589 35.1378 185.464 35.2272 185.349C35.3098 185.232 35.3938 185.114 35.4925 185.008C35.8645 184.566 36.3178 184.225 36.6765 184.017C37.0338 183.804 37.2925 183.714 37.2925 183.714Z" fill="black"/>
<path d="M41.9823 185.724C41.9823 185.724 41.7503 185.871 41.461 186.152C41.169 186.428 40.8276 186.842 40.597 187.302C40.5343 187.414 40.485 187.531 40.4383 187.647C40.3863 187.759 40.357 187.879 40.321 187.99C40.281 188.099 40.2677 188.214 40.245 188.316C40.2197 188.418 40.2103 188.518 40.2023 188.61C40.177 188.791 40.513 188.943 40.5143 189.05C40.5157 189.154 40.8463 189.214 40.8463 189.214V189.254C40.8463 189.534 40.2903 189.762 40.0103 189.763C39.7303 189.764 39.3357 189.538 39.3343 189.258C39.3343 189.219 39.257 189.179 39.265 189.143C39.265 189.143 39.2396 189.07 39.269 188.939C39.297 188.81 39.317 188.626 39.3983 188.414C39.433 188.307 39.4623 188.192 39.521 188.076C39.577 187.96 39.6196 187.836 39.6956 187.718C39.7676 187.599 39.8303 187.474 39.9183 187.359C40.0023 187.242 40.085 187.124 40.1823 187.018C40.5556 186.576 41.009 186.235 41.3676 186.027C41.7236 185.814 41.9823 185.724 41.9823 185.724Z" fill="black"/>
<path d="M67.7765 190.749C67.7765 190.749 67.5445 190.896 67.2552 191.177C66.9632 191.453 66.6218 191.867 66.3912 192.327C66.3285 192.439 66.2792 192.556 66.2325 192.672C66.1805 192.784 66.1512 192.904 66.1152 193.015C66.0752 193.124 66.0618 193.239 66.0392 193.341C66.0138 193.443 66.0045 193.543 65.9965 193.635C65.9712 193.816 66.7432 193.968 66.7458 194.075C66.7458 194.179 67.5138 194.239 67.5138 194.239V194.279C67.5138 194.559 66.5218 194.787 66.2405 194.788C65.9605 194.789 65.3485 194.563 65.3472 194.283C65.3472 194.244 65.1605 194.204 65.1672 194.168C65.1672 194.168 65.0885 194.095 65.1178 193.964C65.1458 193.835 65.1392 193.651 65.2192 193.439C65.2552 193.332 65.2712 193.217 65.3285 193.101C65.3845 192.985 65.4205 192.861 65.4965 192.743C65.5685 192.624 65.6272 192.499 65.7165 192.384C65.7992 192.267 65.8818 192.149 65.9792 192.043C66.3512 191.601 66.8032 191.26 67.1618 191.052C67.5192 190.839 67.7765 190.749 67.7765 190.749Z" fill="black"/>
<path d="M72.1313 192.424C72.1313 192.424 71.8993 192.571 71.61 192.852C71.318 193.128 70.9766 193.541 70.746 194.001C70.6833 194.113 70.634 194.231 70.5873 194.347C70.5353 194.459 70.506 194.579 70.47 194.689C70.43 194.799 70.4166 194.913 70.394 195.016C70.3686 195.117 70.3593 195.217 70.3513 195.309C70.326 195.491 70.254 195.643 70.2566 195.749C70.2566 195.853 70.1806 195.913 70.1806 195.913V195.953C70.1806 196.233 70.0313 196.461 69.7513 196.463C69.4713 196.464 69.2806 196.237 69.2806 195.957C69.2793 195.919 69.3033 195.879 69.3113 195.843C69.3113 195.843 69.338 195.769 69.3673 195.639C69.3953 195.509 69.4406 195.325 69.522 195.113C69.5566 195.007 69.5993 194.892 69.6566 194.776C69.7126 194.661 69.7633 194.536 69.838 194.417C69.91 194.299 69.9766 194.173 70.0646 194.059C70.1473 193.941 70.2326 193.824 70.33 193.717C70.7033 193.276 71.1566 192.935 71.5153 192.727C71.8713 192.513 72.1313 192.424 72.1313 192.424Z" fill="black"/>
<path d="M126.399 179.025C126.399 179.025 126.167 179.171 125.878 179.453C125.586 179.729 125.245 180.142 125.014 180.602C124.951 180.714 124.902 180.831 124.855 180.947C124.803 181.059 124.774 181.179 124.738 181.29C124.698 181.399 124.685 181.514 124.662 181.617C124.637 181.718 124.627 181.818 124.619 181.91C124.594 182.091 124.721 182.243 124.723 182.35C124.723 182.454 124.847 182.514 124.847 182.514V182.554C124.847 182.834 124.499 183.062 124.219 183.063C123.938 183.065 123.649 182.838 123.647 182.558C123.647 182.519 123.622 182.479 123.63 182.443C123.63 182.443 123.631 182.37 123.661 182.239C123.689 182.11 123.721 181.926 123.802 181.714C123.838 181.607 123.874 181.493 123.931 181.377C123.987 181.262 124.034 181.137 124.109 181.018C124.181 180.899 124.246 180.774 124.334 180.659C124.417 180.542 124.502 180.425 124.599 180.318C124.971 179.877 125.426 179.535 125.783 179.327C126.141 179.114 126.399 179.025 126.399 179.025Z" fill="black"/>
<path d="M129.903 180.032C129.903 180.032 129.724 180.19 129.515 180.471C129.303 180.747 129.068 181.15 128.933 181.575C128.86 181.786 128.817 182.002 128.792 182.203C128.773 182.303 128.777 182.402 128.772 182.494C128.764 182.584 128.769 182.671 128.776 182.751C128.78 182.91 128.804 183.039 128.82 183.13C128.835 183.22 128.844 183.271 128.844 183.271L128.849 183.304C128.889 183.544 128.727 183.771 128.487 183.811C128.247 183.851 128.02 183.688 127.98 183.448C127.975 183.416 127.973 183.38 127.975 183.348C127.975 183.348 127.979 183.283 127.987 183.167C127.993 183.052 128.001 182.89 128.041 182.696C128.057 182.6 128.076 182.496 128.109 182.39C128.141 182.283 128.165 182.168 128.213 182.058C128.297 181.832 128.404 181.602 128.539 181.39C128.797 180.959 129.139 180.604 129.417 180.376C129.693 180.144 129.903 180.032 129.903 180.032Z" fill="black"/>
<path d="M169.613 184.049C169.613 184.049 169.381 184.196 169.092 184.477C168.8 184.753 168.458 185.167 168.228 185.627C168.165 185.739 168.116 185.856 168.069 185.972C168.017 186.084 167.988 186.204 167.952 186.315C167.912 186.424 167.898 186.539 167.876 186.641C167.85 186.743 167.841 186.843 167.833 186.935C167.808 187.116 166.994 187.268 166.997 187.375C166.997 187.479 166.181 187.539 166.181 187.539V187.579C166.181 187.859 166.773 188.087 166.493 188.088C166.212 188.089 166.393 187.863 166.392 187.583C166.392 187.544 166.6 187.504 166.608 187.468C166.608 187.468 166.728 187.395 166.757 187.264C166.785 187.135 166.876 186.951 166.957 186.739C166.992 186.632 167.058 186.517 167.116 186.401C167.172 186.287 167.233 186.161 167.308 186.043C167.38 185.924 167.452 185.799 167.541 185.684C167.624 185.567 167.712 185.449 167.809 185.343C168.182 184.901 168.637 184.56 168.996 184.352C169.352 184.139 169.613 184.049 169.613 184.049Z" fill="black"/>
<path d="M173.968 185.054C173.968 185.054 173.736 185.201 173.446 185.482C173.154 185.758 172.813 186.172 172.582 186.632C172.52 186.744 172.47 186.861 172.424 186.977C172.372 187.089 172.342 187.209 172.306 187.32C172.266 187.429 172.253 187.544 172.23 187.646C172.205 187.748 172.196 187.848 172.188 187.94C172.162 188.121 171.838 188.273 171.841 188.38C171.841 188.484 171.513 188.544 171.513 188.544V188.584C171.513 188.864 171.617 189.092 171.337 189.093C171.056 189.094 170.992 188.868 170.99 188.588C170.99 188.549 171.077 188.509 171.085 188.473C171.085 188.473 171.142 188.4 171.173 188.269C171.201 188.14 171.261 187.956 171.342 187.744C171.377 187.637 171.428 187.522 171.486 187.406C171.542 187.292 171.596 187.166 171.67 187.048C171.742 186.929 171.81 186.804 171.9 186.689C171.982 186.572 172.068 186.454 172.165 186.348C172.538 185.906 172.993 185.565 173.352 185.357C173.708 185.144 173.968 185.054 173.968 185.054Z" fill="black"/>
<path d="M39.2901 27.2881L39.2408 26.7321L38.7261 26.7761C38.5314 26.2747 38.0261 25.9454 37.4674 26.0001C36.9194 26.0534 36.4941 26.4627 36.3914 26.9814L35.8768 27.0254L35.9248 27.5827L36.5021 27.5321C36.5608 27.5747 36.6274 27.6001 36.6994 27.6001C36.7128 27.6001 36.7274 27.5987 36.7408 27.5974C37.3661 27.5187 37.9554 27.4614 38.4901 27.4267C38.5634 27.4214 38.6274 27.3881 38.6821 27.3414L39.2901 27.2881Z" fill="black"/>
</svg>
