<svg width="251" height="263" viewBox="0 0 251 263" fill="none" xmlns="http://www.w3.org/2000/svg">
<path d="M22.9703 74.3022C23.6037 77.1742 21.7383 80.6689 21.7383 80.6689C21.7383 80.6689 21.493 80.7262 21.109 80.7742C20.357 80.8582 19.0677 80.8929 18.081 80.3276C16.8597 79.6276 16.209 76.3302 14.4677 77.1369C12.9703 77.8302 13.461 79.3862 14.6783 80.5289C8.40101 83.2369 3.11034 81.2022 2.94367 81.1382L2.93967 81.1342C2.93967 81.1342 3.21834 81.0902 3.62101 80.9876C4.82101 80.6889 7.11834 79.8956 6.30101 78.3716C5.66234 77.1809 4.95434 78.3676 4.09034 79.2489C3.63034 79.7222 3.12367 80.1062 2.55834 79.9876C0.558341 79.6889 0.429007 76.2116 0.687674 75.2249C0.782341 74.8609 0.953006 74.2302 1.39834 73.5369C2.21834 73.3156 15.2637 69.9022 22.9703 74.3022Z" fill="#2B2B2B"/>
<path d="M22.9703 74.3022C23.6037 77.1742 21.7383 80.6689 21.7383 80.6689C21.7383 80.6689 21.493 80.7262 21.109 80.7742C20.357 80.8582 19.0677 80.8929 18.081 80.3276C16.8597 79.6276 16.209 76.3302 14.4677 77.1369C12.9703 77.8302 13.461 79.3862 14.6783 80.5289C8.40101 83.2369 3.11034 81.2022 2.94367 81.1382L2.93967 81.1342C2.93967 81.1342 3.21834 81.0902 3.62101 80.9876C4.82101 80.6889 7.11834 79.8956 6.30101 78.3716C5.66234 77.1809 4.95434 78.3676 4.09034 79.2489C3.63034 79.7222 3.12367 80.1062 2.55834 79.9876C0.558341 79.6889 0.429007 76.2116 0.687674 75.2249C0.782341 74.8609 0.953006 74.2302 1.39834 73.5369C2.21834 73.3156 15.2637 69.9022 22.9703 74.3022Z" stroke="#2B2B2B" stroke-width="0.254" stroke-miterlimit="10"/>
<path d="M3.90281 82.8425C3.28414 81.9105 2.97081 81.2025 2.94281 81.1385C3.10948 81.2025 8.40148 83.2372 14.6788 80.5292C15.3188 81.1305 16.1615 81.6212 17.0188 81.8145C18.4615 82.1412 20.5721 81.5799 21.1841 81.3999C21.2761 81.3732 21.3375 81.3559 21.3548 81.3519C21.2108 81.5492 16.4375 88.0145 11.4055 87.6839C7.58414 87.4359 5.13481 84.6972 3.90281 82.8425Z" fill="#1A1A1A"/>
<path d="M3.90281 82.8425C3.28414 81.9105 2.97081 81.2025 2.94281 81.1385C3.10948 81.2025 8.40148 83.2372 14.6788 80.5292C15.3188 81.1305 16.1615 81.6212 17.0188 81.8145C18.4615 82.1412 20.5721 81.5799 21.1841 81.3999C21.2761 81.3732 21.3375 81.3559 21.3548 81.3519C21.2108 81.5492 16.4375 88.0145 11.4055 87.6839C7.58414 87.4359 5.13481 84.6972 3.90281 82.8425Z" stroke="#1A1A1A" stroke-width="0.254" stroke-miterlimit="10"/>
<path d="M67.8898 72.8051C76.3072 72.4438 75.2085 66.3705 73.4325 63.2065C71.6565 60.0425 68.9992 56.7278 65.1072 57.4358C61.2138 58.1398 59.6392 60.5771 59.3365 65.7585C59.0298 70.9411 63.9365 72.9718 67.8898 72.8051ZM5.56052 93.9851C4.52852 88.6438 3.90318 82.8425 3.90318 82.8425C5.13385 84.6971 7.58452 87.4358 11.4059 87.6838C16.4379 88.0145 21.2112 81.5491 21.3539 81.3518C21.3365 81.3558 21.2765 81.3731 21.1845 81.3998L21.1085 80.7731C21.4939 80.7265 21.7392 80.6678 21.7392 80.6678C21.7392 80.6678 23.6032 77.1745 22.9699 74.3025C22.7565 73.3185 22.2485 72.4105 21.2725 71.7371C20.0338 70.8825 18.1085 70.4171 15.9885 70.2091C18.7752 65.0745 27.2272 61.5465 28.7205 55.5171C29.7858 51.2305 26.2098 44.9078 27.7298 40.8145L27.7099 40.7985C28.3565 39.9611 29.1939 39.0798 30.1565 38.2091C31.0472 37.4051 32.0445 36.6065 33.0992 35.8545C34.6845 34.7171 36.4005 33.8651 38.0605 33.0758C39.4619 32.4131 40.8232 31.8531 42.0445 31.8531H42.0752C42.1565 34.5198 42.3685 36.6971 42.3685 36.6971L50.0232 42.3011C50.3605 43.2505 51.0339 43.8558 52.3205 43.9651C52.3205 43.9651 53.6805 43.5558 55.1845 42.3065C55.2085 42.2865 55.2325 42.2545 55.2565 42.2385C55.9298 41.7278 61.1192 38.0065 66.0565 41.3985C70.1872 48.3291 74.0992 61.0211 80.2885 68.7585L80.2645 68.7785C80.2645 68.7785 80.8018 69.6625 81.8298 71.0838C79.5498 72.3665 67.1272 79.8145 68.0565 89.6545C69.0778 100.488 79.2952 116.14 77.4165 124.305C75.5418 132.472 73.5205 141.702 82.1872 149.508C90.8538 157.309 89.8432 164.454 89.8432 164.454C88.2272 161.865 79.7005 158.666 73.4632 151.9C72.5005 150.725 71.8432 149.984 71.7658 149.892C72.3032 150.596 72.8712 151.262 73.4632 151.9C77.0018 156.213 84.7152 166.336 83.4805 171.26C81.0978 180.786 76.2232 224.45 75.9952 226.38C75.7698 228.309 71.5712 243.732 69.1898 247.246C66.8085 250.765 57.2738 246.226 57.2738 246.226L57.1992 246.134C59.3978 244.406 62.4285 242.806 65.8618 242.028C69.9592 235.049 73.1605 169.218 70.4592 161.392C67.7578 153.566 58.0845 137.714 55.8379 129.92C54.3072 124.604 56.1925 117.528 58.0698 108.824C58.6392 106.186 58.1005 102.152 57.1005 97.8678L57.2165 97.8411C53.2832 80.8958 55.1272 74.4891 55.1818 74.2918L50.6218 78.2051C39.8805 82.1171 30.2885 108.425 13.9125 98.1065L13.9099 98.1091C13.7432 98.2491 8.57118 102.556 5.56052 93.9851" fill="#F1F2F2"/>
<path d="M18.0809 80.3281C19.0676 80.8934 20.3569 80.8588 21.1089 80.7734L21.1836 81.4001C20.5716 81.5801 18.4623 82.1414 17.0196 81.8148C16.1623 81.6214 15.3183 81.1308 14.6783 80.5294C13.4609 79.3854 12.9703 77.8308 14.4676 77.1361C16.2089 76.3308 16.8596 79.6268 18.0809 80.3281Z" fill="black"/>
<path d="M212.111 128.123C212.867 135.165 213.472 141.927 214.367 146.592C213.696 148.167 212.9 149.524 212.016 150.695C210.6 139.024 209.655 123.124 206.2 104.877C207.426 105.557 208.314 106.724 208.82 107.531C209.647 110.596 210.298 114.119 210.839 117.809C210.695 117.609 210.62 117.5 210.62 117.5L209.94 121.924L211.302 127.368C211.302 127.368 211.58 127.66 212.111 128.123" fill="black"/>
<path d="M212.111 128.123C212.867 135.165 213.472 141.927 214.367 146.592C213.696 148.167 212.9 149.524 212.016 150.695C210.6 139.024 209.655 123.124 206.2 104.877C207.426 105.557 208.314 106.724 208.82 107.531C209.647 110.596 210.298 114.119 210.839 117.809C210.695 117.609 210.62 117.5 210.62 117.5L209.94 121.924L211.302 127.368C211.302 127.368 211.58 127.66 212.111 128.123V128.123Z" stroke="black" stroke-width="0.254" stroke-miterlimit="10"/>
<path d="M249.14 120.086C249.265 119.915 249.524 120.055 249.463 120.257C249.463 120.257 246.744 124.533 244.533 126.915C242.321 129.297 238.313 132.511 232.396 133.094C228.276 133.498 221.396 131.621 218.899 130.089C216.456 128.589 216.792 124.642 216.807 124.478C220.287 127.637 224.935 130.695 229.929 130.77C241.328 130.939 247.248 122.675 249.14 120.086Z" fill="#2B2B2B"/>
<path d="M244.533 126.915C246.745 124.533 249.464 120.256 249.464 120.256C247.361 126.86 239.352 134.601 229.504 134.683C220.569 134.757 214.261 130.011 212.11 128.123C211.74 124.683 211.336 121.171 210.838 117.809C211.509 118.745 213.693 121.651 216.806 124.479C216.793 124.641 216.456 128.588 218.898 130.089C221.396 131.62 228.276 133.499 232.397 133.093C238.313 132.512 242.321 129.296 244.533 126.915Z" fill="black"/>
<path d="M234.271 189.973C234.271 189.973 236.65 222.637 239.375 235.393C238.694 236.58 233.584 240.333 230.695 239.989C227.806 239.646 223.21 238.121 223.21 236.077C223.21 234.488 224.216 233.154 225.444 232.122L225.479 232.164C225.479 232.164 232.907 236.608 237.047 234.433C237.047 234.433 232.284 198.708 231.147 193.944C230.184 189.901 218.847 173.852 214.264 161.113C214.308 160.236 214.124 159.521 214.124 159.521C214.124 159.521 213.887 158.122 213.118 157.442C212.87 156.493 212.679 155.577 212.55 154.7C212.363 153.426 212.186 152.093 212.015 150.694C212.9 149.524 213.696 148.166 214.367 146.592C216.751 159.014 225.762 177.894 234.271 189.973Z" fill="#BCBEC0"/>
<path d="M237.048 234.433C232.906 236.608 225.48 232.164 225.48 232.164L225.445 232.122C227.37 230.5 229.845 229.612 229.845 229.612C229.845 229.612 232.226 206.645 220.492 188.952C207.236 179.67 198.722 167.438 193.456 157.541C193.456 157.541 205.269 159.64 212.016 150.694C212.186 152.093 212.362 153.426 212.55 154.7C212.68 155.577 212.869 156.493 213.118 157.442C212.886 157.234 212.608 157.094 212.274 157.077C210.828 157.002 209.817 158.278 208.61 158.66C207.405 159.041 206.918 161.562 207.821 162.749C208.718 163.937 212.581 164.525 213.629 163.093C214.07 162.488 214.23 161.756 214.265 161.113C218.848 173.852 230.185 189.901 231.148 193.944C232.284 198.706 237.048 234.433 237.048 234.433Z" fill="#F1F2F2"/>
<path d="M214.125 159.521C214.125 159.521 214.309 160.235 214.265 161.113C213.809 159.851 213.421 158.622 213.118 157.442C213.886 158.122 214.125 159.521 214.125 159.521Z" fill="#2B2B2B"/>
<path d="M214.265 161.113C214.23 161.756 214.071 162.488 213.629 163.093C212.581 164.527 208.719 163.937 207.821 162.749C206.919 161.563 207.405 159.041 208.61 158.66C209.818 158.279 210.829 157.003 212.274 157.079C212.607 157.095 212.887 157.235 213.118 157.443C213.421 158.623 213.809 159.851 214.265 161.113Z" fill="#2B2B2B"/>
<path d="M210.838 117.81C211.336 121.171 211.74 124.683 212.11 128.123C211.58 127.66 211.301 127.367 211.301 127.367L209.94 121.923L210.621 117.5C210.621 117.5 210.696 117.608 210.838 117.81" fill="black"/>
<path d="M188.294 146.36C187.314 143.88 186.671 142.001 186.296 140.977C185.095 137.691 180.302 132.865 172.935 130.655C172.976 130.504 175.612 120.763 180.339 117.5C185.102 114.211 190.828 118.607 197.919 108.78C201.418 103.931 204.238 103.781 206.2 104.877C209.655 123.124 210.6 139.024 212.016 150.695C205.268 159.64 193.455 157.54 193.455 157.54C191.159 153.227 189.482 149.355 188.294 146.36Z" fill="#2B2B2B"/>
<path d="M188.294 146.36C187.314 143.88 186.671 142.001 186.296 140.977C185.095 137.691 180.302 132.865 172.935 130.655C172.976 130.504 175.612 120.763 180.339 117.5C185.102 114.211 190.828 118.607 197.919 108.78C201.418 103.931 204.238 103.781 206.2 104.877C209.655 123.124 210.6 139.024 212.016 150.695C205.268 159.64 193.455 157.54 193.455 157.54C191.159 153.227 189.482 149.355 188.294 146.36Z" stroke="#2B2B2B" stroke-width="0.254" stroke-miterlimit="10"/>
<path d="M208.821 107.531C208.314 106.724 207.426 105.558 206.201 104.878C205.833 102.931 205.435 100.954 205.006 98.9562C206.602 100.862 207.838 103.876 208.821 107.531Z" fill="#D1D3D4"/>
<path d="M137.215 134.455C143.306 131.771 140.747 127.616 138.533 125.803C136.317 123.985 133.407 122.311 130.747 123.951C128.09 125.588 127.63 127.833 128.897 131.733C130.162 135.632 134.357 135.713 137.215 134.455ZM153.118 123.624C154.31 124.049 156.351 122.948 156.351 121.457C156.351 119.967 153.629 117.163 151.927 117.673C150.226 118.18 149.375 120.223 149.375 120.223C149.375 120.223 148.27 122.348 149.375 123.284C150.482 124.22 151.927 123.199 153.118 123.624V123.624ZM194.146 90.168L194.163 90.1374C198.239 92.3694 201.938 95.2987 205.006 98.956C205.435 100.953 205.833 102.931 206.201 104.877C204.238 103.781 201.417 103.931 197.919 108.78C190.829 118.605 185.102 114.809 180.338 118.1C175.613 121.363 172.975 131.853 172.934 131.853H172.931H172.927C161.717 122.52 139.226 135.524 130.57 141.488C128.587 140.948 126.599 139.664 125.817 137.875C124.034 133.792 129.301 120.372 127.389 108.929C126.113 101.297 122.775 95.388 120.69 92.352C128.097 92.3974 136.518 91.6374 144.425 90.7227C143.142 94.7107 140.291 105.315 144.953 108.784C150.737 113.096 164.006 107.187 171.491 108.095C178.978 109.003 188.283 106.26 188.735 99.9747C189.045 95.6467 185.527 90.4694 183.302 87.6627C187.814 88.0774 191.543 88.7867 194.146 90.168" fill="#F1F2F2"/>
<path d="M200.035 185.039C200.161 185.149 200.226 185.309 200.195 185.471C198.301 196.046 194.109 223.494 192.927 224.509C191.737 225.529 188.882 228.945 185.613 229.102C182.21 229.271 178.807 228.251 178.297 223.998C178.814 222.385 180.063 221.361 181.491 220.633L181.587 220.819C181.587 220.819 186.582 226.695 190.318 223.658C194.054 220.619 197.123 189.942 197.123 187.69C197.123 185.438 182.927 162.941 181.927 158.299C180.923 153.659 173.857 149.187 162.639 153.187H162.635C160.366 141.187 162.673 131.887 162.955 130.673C166.643 130.455 169.989 130.521 172.927 131.854H172.931L173.181 130.658V130.654C181.181 132.866 185.218 137.69 186.419 140.977C186.793 142.001 187.375 143.879 188.355 146.359C188.283 146.565 185.486 154.329 186.494 160.371C187.501 166.407 195.251 181.038 200.035 185.039Z" fill="#BCBEC0"/>
<path d="M197.123 187.69C197.123 189.942 194.054 220.619 190.318 223.658C186.582 226.697 181.587 220.819 181.587 220.819L181.492 220.633C183.826 219.445 186.64 219.058 187.484 218.214C188.844 216.853 190.036 198.99 188.504 187.591C185.443 185.379 166.899 168.062 163.326 155.473C163.058 154.53 162.83 154.521 162.635 153.187H162.639C173.856 149.187 180.924 153.659 181.927 158.301C182.928 162.941 197.123 185.438 197.123 187.69Z" fill="#F1F2F2"/>
<path d="M194.163 90.1375L194.145 90.1681C191.543 88.7868 187.813 88.0761 183.301 87.6601C182.292 86.3881 181.549 85.6015 181.549 85.6015C185.956 86.4801 190.236 87.9841 194.163 90.1375Z" fill="white"/>
<path d="M183.302 87.6604C185.527 90.467 189.046 95.643 188.735 99.971C188.283 106.255 178.978 108.994 171.493 108.086C164.006 107.176 150.737 113.076 144.953 108.766C140.291 105.295 143.142 94.6724 144.425 90.6857C157.875 89.127 169.835 87.0004 172.758 87.099C176.579 87.2284 180.131 87.371 183.302 87.6604Z" fill="#2B2B2B"/>
<path d="M183.302 87.6604C185.527 90.467 189.046 95.643 188.735 99.971C188.283 106.255 178.978 108.994 171.493 108.086C164.006 107.176 150.737 113.076 144.953 108.766C140.291 105.295 143.142 94.6724 144.425 90.6857C157.875 89.127 169.835 87.0004 172.758 87.099C176.579 87.2284 180.131 87.371 183.302 87.6604Z" stroke="#2B2B2B" stroke-width="0.254" stroke-miterlimit="10"/>
<path d="M144.949 89.1506L144.899 88.804C156.317 87.068 167.028 84.584 172.683 84.6666C175.649 84.7066 178.627 85.0173 181.549 85.6013C181.549 85.6013 182.292 86.388 183.303 87.66C180.131 87.3706 176.579 87.228 172.757 87.0986C169.835 87 157.876 89.1266 144.425 90.6853C144.717 89.7733 144.929 89.212 144.949 89.1506Z" fill="#404040"/>
<path d="M144.949 89.1506L144.899 88.804C156.317 87.068 167.028 84.584 172.683 84.6666C175.649 84.7066 178.627 85.0173 181.549 85.6013C181.549 85.6013 182.292 86.388 183.303 87.66C180.131 87.3706 176.579 87.228 172.757 87.0986C169.835 87 157.876 89.1266 144.425 90.6853C144.717 89.7733 144.929 89.212 144.949 89.1506Z" stroke="#404040" stroke-width="0.254" stroke-miterlimit="10"/>
<path d="M172.935 130.654V130.658C172.935 130.658 172.931 130.658 172.931 130.654H172.935Z" fill="#D1D3D4"/>
<path d="M162.955 129.528C161.539 129.609 160.076 129.789 158.563 130.089C150.199 131.736 142.404 136.388 135.636 141.545C135.636 141.545 133.106 141.58 130.57 140.889C139.226 134.924 161.716 123.509 172.927 130.655C169.988 129.773 166.643 129.311 162.955 129.528Z" fill="#D1D3D4"/>
<path d="M156.351 121.457C156.351 122.948 154.31 124.051 153.119 123.625C151.928 123.2 150.482 124.22 149.376 123.284C148.27 122.349 149.376 120.223 149.376 120.223C149.376 120.223 150.227 118.181 151.928 117.673C153.628 117.164 156.351 119.967 156.351 121.457Z" fill="#2B2B2B"/>
<path d="M144.898 88.8035L144.949 89.1502C144.929 89.2115 144.718 89.7729 144.425 90.6849C136.518 91.6009 128.097 92.3222 120.69 92.2769C119.656 90.7635 118.93 89.9435 118.93 89.9435C126.648 91.0622 135.988 90.1582 144.898 88.8035Z" fill="white"/>
<path d="M138.532 125.802C140.747 127.615 143.305 131.77 137.215 134.454C134.357 135.714 130.161 135.631 128.896 131.733C127.631 127.833 128.089 125.587 130.747 123.951C133.408 122.311 136.317 123.985 138.532 125.802Z" fill="#2B2B2B"/>
<path d="M130.57 140.889C133.105 141.579 135.637 141.546 135.637 141.546C123.548 150.759 114.736 161.599 111.792 159.865C111.792 159.861 111.789 159.861 111.789 159.861C111.789 159.861 109.748 151.726 113.874 137.575C113.874 137.575 116.882 150.845 129.641 141.546C129.93 141.334 130.24 141.117 130.57 140.889Z" fill="black"/>
<path d="M113.874 137.575C109.748 151.725 111.789 159.861 111.789 159.861C111.789 159.861 111.61 159.861 111.61 159.864C111.637 159.967 112.513 161.807 112.513 163.668V163.672C109.846 170.171 104.101 189.875 101.678 206.435C97.5064 208.272 92.929 205.233 92.929 205.233C93.8757 191.235 94.441 178.737 93.8797 176.193C92.529 170.068 89.8197 164.455 89.8197 164.455C89.8197 164.455 90.8424 157.309 82.1757 149.507C73.509 141.701 75.537 132.471 77.4117 124.305C79.289 116.139 69.0744 100.488 68.0544 89.6548C67.125 79.8148 79.549 72.3668 81.829 71.0841C85.125 75.6734 93.4797 85.8908 105.089 90.2228C108.968 91.6681 114.469 92.2441 120.689 92.2774C122.774 95.3121 126.113 101.148 127.389 108.78C129.301 120.221 124.034 133.492 125.817 137.575C126.6 139.364 128.586 140.348 130.57 140.888C130.24 141.116 129.93 141.335 129.641 141.545C116.882 150.844 113.874 137.575 113.874 137.575Z" fill="#2B2B2B"/>
<path d="M113.874 137.575C109.748 151.725 111.789 159.861 111.789 159.861C111.789 159.861 111.61 159.861 111.61 159.864C111.637 159.967 112.513 161.807 112.513 163.668V163.672C109.846 170.171 104.101 189.875 101.678 206.435C97.5064 208.272 92.929 205.233 92.929 205.233C93.8757 191.235 94.441 178.737 93.8797 176.193C92.529 170.068 89.8197 164.455 89.8197 164.455C89.8197 164.455 90.8424 157.309 82.1757 149.507C73.509 141.701 75.537 132.471 77.4117 124.305C79.289 116.139 69.0744 100.488 68.0544 89.6548C67.125 79.8148 79.549 72.3668 81.829 71.0841C85.125 75.6734 93.4797 85.8908 105.089 90.2228C108.968 91.6681 114.469 92.2441 120.689 92.2774C122.774 95.3121 126.113 101.148 127.389 108.78C129.301 120.221 124.034 133.492 125.817 137.575C126.6 139.364 128.586 140.348 130.57 140.888C130.24 141.116 129.93 141.335 129.641 141.545C116.882 150.844 113.874 137.575 113.874 137.575Z" stroke="#2B2B2B" stroke-miterlimit="10"/>
<path d="M118.93 89.9434C118.93 89.9434 119.656 90.7634 120.689 92.2781C114.469 92.2434 108.968 91.6687 105.089 90.2221C93.4798 85.8914 85.1265 75.6727 81.8291 71.0834C82.0611 70.9581 82.1864 70.8901 82.1864 70.8901C91.2144 79.9127 101.326 87.3914 118.93 89.9434Z" fill="#404040"/>
<path d="M112.877 163.672C113.285 165.2 113.653 166.741 113.66 167.346C113.66 168.432 106.521 181.12 103.711 205.233C103.119 205.768 102.493 206.158 101.86 206.434C104.283 189.874 108.961 170.17 112.877 163.672Z" fill="black"/>
<path d="M103.711 205.233C102.97 211.596 102.527 218.758 102.602 226.716C102.602 226.716 95.7871 241.861 95.9671 256.488C95.9671 256.488 93.2898 259.941 91.0231 260.914C87.4511 262.446 77.0631 262.28 75.3724 259.553C74.2484 257.744 76.9431 254.96 81.1258 252.646C81.5231 253.256 86.3444 260.34 92.1018 256.321C94.7324 254.484 93.9151 246.114 100.267 226.38C100.047 221.69 100.69 214.43 101.86 206.434C102.492 206.158 103.119 205.768 103.711 205.233" fill="#BCBEC0"/>
<path d="M101.86 206.434C100.69 214.43 100.047 221.691 100.268 226.379C93.9148 246.114 94.7322 254.483 92.1015 256.321C86.3455 260.339 81.5242 253.255 81.1255 252.646C83.2415 251.477 85.7362 250.429 88.3122 249.683C89.5095 247.594 91.6868 224.926 93.0202 205.233C93.0202 205.233 97.6882 208.271 101.86 206.434" fill="#F1F2F2"/>
<path d="M89.8427 164.454C89.8427 164.454 80.3054 190.484 79.1254 226.206C77.4334 230.285 73.3307 239.82 73.5107 249.173C72.8441 250.19 65.8454 253.26 63.8174 253.766C61.7854 254.27 54.4467 254.11 53.6094 251.725C53.1574 250.428 54.5934 248.186 57.1987 246.134L57.2747 246.226C57.2747 246.226 66.8081 250.765 69.1894 247.246C71.5707 243.732 75.7694 228.309 75.9947 226.38C76.2227 224.45 81.0987 180.786 83.4801 171.26C84.7147 166.336 77.0014 156.213 73.4627 151.9C79.7001 158.666 88.2267 161.865 89.8427 164.454Z" fill="#BCBEC0"/>
<path d="M82.1871 70.8896C82.1871 70.8896 82.0618 70.9576 81.8298 71.0829C80.8018 69.6616 80.2644 68.7762 80.2644 68.7762L80.2884 68.7562C80.9004 69.5189 81.5298 70.2322 82.1871 70.8896Z" fill="white"/>
<path d="M73.4325 63.2068C75.2085 66.3708 76.3071 72.4441 67.8898 72.8054C63.9365 72.9721 59.0298 70.9401 59.3365 65.7588C59.6391 60.5761 61.2138 58.1401 65.1071 57.4361C68.9991 56.7281 71.6565 60.0428 73.4325 63.2068Z" fill="#2B2B2B"/>
<path d="M62.7929 37.858C63.9223 38.6953 64.9943 39.8567 66.0556 41.6327C61.1196 38.2407 55.9303 41.8367 55.2569 42.3473C56.7156 41.1113 58.2876 39.486 58.8703 36.21C58.9143 35.9513 58.9516 35.854 58.9756 35.854H58.9783C60.1529 35.854 61.7649 37.0927 62.7929 37.858Z" fill="#D1D3D4"/>
<path d="M51.7247 14.5752C52.7927 20.4138 59.7607 27.3992 58.9754 34.8952C58.9514 35.1538 58.9141 35.4125 58.8701 35.6712C58.0434 38.4472 52.3207 40.3178 51.8807 35.7245C51.3607 30.2672 47.8261 26.7805 47.7034 20.6418C47.5901 15.1432 49.5981 7.79784 51.6301 3.52451C52.5621 1.83917 53.2594 0.828507 53.3301 0.720507C53.3381 0.71384 53.3407 0.709839 53.3407 0.709839C54.5314 2.49651 50.6194 8.53517 51.7247 14.5752Z" fill="#2B2B2B"/>
<path d="M57.1802 97.8407V97.8673C54.5135 88.7153 50.5135 78.43 50.5135 78.2087V78.2047L55.1095 74.2927C55.0549 74.49 53.1802 80.8967 57.1802 97.8407Z" fill="#D1D3D4"/>
<path d="M58.87 35.6705C58.2886 38.9465 56.7166 40.9918 55.2566 42.2265C55.2326 42.2438 55.2086 42.2638 55.1846 42.2852C53.3313 44.0225 52.3206 43.9212 52.3206 43.9212L50.0233 42.2132C49.2273 39.9545 50.3326 35.9905 49.6833 33.4585C48.782 29.9612 46.366 29.4612 46.1113 24.7825C45.6246 15.8505 49.3433 7.6585 51.63 3.52383C49.598 7.79717 47.5913 15.1438 47.7033 20.6412C47.826 26.7798 51.3606 30.2678 51.8806 35.7252C52.3206 40.3185 58.0433 38.4465 58.87 35.6705Z" fill="black"/>
<path d="M53.3408 0.709946C53.3408 0.709946 53.3368 0.713945 53.3302 0.720612C52.7968 1.32594 52.2115 2.29928 51.6288 3.52328C49.3435 7.65795 45.6235 15.8513 46.1102 24.7819C46.3662 29.4606 48.7822 29.9606 49.6835 33.4593C50.3328 35.9899 49.2275 39.9539 50.0235 42.2139L42.3675 36.5206C42.3675 36.5206 42.1568 34.3779 42.0755 31.5019C42.0035 28.9953 42.0275 25.9286 42.3675 23.2513C43.6435 13.2139 52.2862 -0.872721 53.3408 0.709946Z" fill="#F1F2F2"/>
<path d="M50.0234 42.2135L52.3194 43.9215C51.034 43.8121 50.3607 43.1628 50.0234 42.2135Z" fill="black"/>
<path d="M51.6294 3.52383C52.2107 2.2985 52.7961 1.3265 53.3307 0.719834C53.2587 0.829168 52.5614 1.83983 51.6294 3.52383Z" fill="white"/>
<path d="M50.5136 78.2049V78.2089C50.5136 78.2089 41.7856 85.8236 36.5189 99.9769C34.7016 104.853 28.3696 106.442 25.1376 106.442C21.8442 106.442 17.0642 106.949 13.8456 98.1062C30.2216 108.426 41.1802 82.1182 50.5136 78.2049Z" fill="#D1D3D4"/>
<path d="M38.0024 32.7784L38.0598 32.9011C36.3998 33.6904 34.6851 34.7184 33.0998 35.8544L33.0104 35.9037C33.0104 35.9037 32.5998 34.5197 31.6878 31.8531H31.6904C31.6904 31.8531 35.4504 30.1197 32.5451 22.4917C33.1851 23.2397 33.7318 23.8091 34.1438 24.3597C37.3224 28.6131 38.0024 32.7784 38.0024 32.7784Z" fill="#D1D3D4"/>
<path d="M33.011 35.7283L33.099 35.8536C32.0443 36.6056 31.0483 37.4056 30.1563 38.2083L30.139 38.1923C30.139 38.1923 28.047 35.6189 27.567 32.2683C27.087 28.9136 27.747 26.8883 27.0977 23.8029L27.131 23.7789C28.339 25.4296 29.4963 27.0176 30.231 28.3549C30.8137 29.4163 31.2963 30.5016 31.687 31.5029C32.599 33.8496 33.011 35.7283 33.011 35.7283Z" fill="#2B2B2B"/>
<path d="M32.5449 22.4911C35.4502 30.1191 31.6902 31.8538 31.6902 31.8538H31.6876C31.2956 30.5204 30.8129 29.5924 30.2316 28.5311C29.4969 27.1938 28.3396 25.5164 27.1316 23.8658C25.1409 21.1444 23.0076 18.2044 22.4049 15.9804C21.4422 12.4071 21.9529 6.68843 21.9529 6.68843C24.3449 13.1604 29.4889 18.9151 32.5449 22.4911Z" fill="#F1F2F2"/>
<path d="M27.7305 40.815C26.2091 44.9083 29.7851 51.2296 28.7211 55.5176C27.2265 61.5456 18.7745 65.075 15.9878 70.2096C11.6091 69.7803 6.39313 70.447 4.66113 71.0736L4.61046 70.9403C8.17312 64.955 25.4785 55.139 26.0425 53.711C26.6451 52.183 25.1851 47.4083 26.3905 43.163C26.5905 42.451 27.0531 41.6456 27.7105 40.7976L27.7305 40.815Z" fill="white"/>
<path d="M21.2724 71.7367C22.2484 72.4101 22.7564 73.3194 22.9698 74.3021C15.2631 69.9034 2.21911 73.3154 1.39911 73.5367C1.93911 72.6901 3.14844 71.7474 4.85911 71.0967C4.88044 71.0901 5.18044 71.0834 5.18044 71.0767V71.0727C6.51377 70.4474 11.8684 69.7807 16.2471 70.2087C18.3671 70.4167 20.0338 70.8821 21.2724 71.7367Z" fill="#4A4A4A"/>
<path d="M5.55983 93.9856C8.5705 102.556 13.7425 98.2482 13.9092 98.1096C12.7078 100.147 11.3198 104.06 8.61183 102.703C7.42116 102.104 6.3665 98.1842 5.55983 93.9856Z" fill="#D1D3D4"/>
<path d="M6.30154 78.3715C7.11754 79.8955 4.82154 80.6889 3.62021 80.9875L3.57887 80.8582L4.08954 79.2489C4.95354 78.3675 5.66154 77.1809 6.30154 78.3715Z" fill="black"/>
<path d="M181.492 220.633C180.063 221.361 178.815 222.385 178.297 223.998C178.808 228.251 182.209 229.271 185.612 229.102C188.883 228.945 191.737 225.529 192.928 224.509C194.108 223.494 198.3 196.046 200.196 185.471C200.227 185.309 200.161 185.149 200.036 185.039C195.252 181.038 187.471 166.407 186.463 160.371C185.456 154.329 188.223 146.565 188.293 146.359L188.297 146.357" stroke="black" stroke-width="0.762" stroke-miterlimit="10"/>
<path d="M162.955 129.528C162.672 130.743 160.366 141.171 162.635 152.097C162.83 153.039 163.058 153.985 163.326 154.928C166.899 167.517 185.442 185.38 188.504 187.591C190.035 198.989 188.844 216.852 187.483 218.213C186.64 219.057 183.826 219.445 181.492 220.633" stroke="black" stroke-width="0.762" stroke-miterlimit="10" stroke-linecap="round" stroke-linejoin="round"/>
<path d="M210.838 117.81C211.509 118.746 213.693 121.651 216.806 124.479C220.288 127.636 224.934 130.695 229.929 130.77C241.328 130.94 247.248 122.675 249.14 120.086C249.266 119.916 249.525 120.055 249.464 120.256C247.361 126.86 239.352 134.6 229.505 134.683C220.569 134.758 214.261 130.011 212.11 128.123" stroke="black" stroke-width="0.762" stroke-miterlimit="10" stroke-linecap="round" stroke-linejoin="round"/>
<path d="M173.18 131.187H172.935C180.302 132.52 185.095 137.957 186.296 141.244C186.671 142.268 187.314 144.012 188.294 146.493C189.482 149.487 191.159 153.292 193.455 157.607C198.722 167.505 207.235 179.704 220.491 188.985C232.227 206.679 229.844 229.628 229.844 229.628C229.844 229.628 227.371 230.508 225.446 232.131C224.218 233.163 223.21 234.492 223.21 236.08C223.21 238.125 227.807 239.648 230.695 239.992C233.584 240.335 238.695 236.581 239.375 235.393C236.65 222.637 234.271 189.973 234.271 189.973C225.762 177.895 216.752 159.013 214.367 146.592C213.472 141.927 212.867 135.165 212.111 128.123C211.74 124.683 211.335 121.172 210.839 117.809C210.298 114.119 209.647 110.596 208.82 107.531C207.838 103.876 206.603 100.861 205.007 98.9561C201.938 95.2987 198.239 92.3694 194.163 90.1374C190.236 87.9841 185.956 86.4801 181.55 85.6014C178.627 85.0161 175.65 84.7067 172.683 84.6667C167.028 84.5841 156.318 87.0681 144.899 88.8041C135.987 90.1574 126.647 91.0627 118.931 89.9441C101.326 87.3921 91.2135 79.9134 82.1869 70.8894C81.5309 70.2334 80.9015 69.5187 80.2882 68.7561C74.0989 61.0187 70.1869 48.3241 66.0562 41.3934C64.9949 39.6174 63.9229 38.2161 62.7935 37.3787C61.7655 36.6134 60.2775 35.7774 59.1029 35.1614" stroke="black" stroke-miterlimit="10"/>
<path d="M111.789 159.861C111.789 159.861 111.793 159.861 111.793 159.865C114.735 161.6 123.547 150.76 135.637 141.545C142.405 136.388 150.199 131.736 158.562 130.089C160.077 129.79 161.539 129.609 162.955 129.528C166.643 129.31 169.989 129.773 172.927 130.654" stroke="black" stroke-width="0.762" stroke-miterlimit="10"/>
<path d="M112.877 163.668C112.377 161.807 111.819 159.967 111.792 159.864Z" fill="black"/>
<path d="M112.877 163.668C112.377 161.807 111.819 159.967 111.792 159.864" stroke="black" stroke-width="0.762" stroke-miterlimit="10"/>
<path d="M49.8469 77.1867V78.2081C49.8469 78.4294 54.5762 88.7147 56.7135 97.8681C57.7135 102.152 58.4442 106.187 57.8762 108.824C55.9989 117.527 54.2109 124.604 55.7415 129.919C57.9869 137.715 67.7082 153.567 70.4109 161.392C73.1122 169.217 69.9349 235.049 65.8375 242.028C62.4042 242.807 59.3855 244.405 57.1869 246.135C54.5802 248.185 53.1509 250.428 53.6042 251.724C54.4402 254.109 61.7829 254.269 63.8135 253.767C65.8415 253.259 72.8429 250.191 73.5095 249.173C73.3295 239.819 77.4335 230.285 79.1242 226.205C80.3042 190.483 89.8429 164.455 89.8429 164.455C89.8429 164.455 92.5749 170.068 93.9255 176.193C94.4869 178.737 93.9669 191.235 93.0202 205.233C91.6869 224.927 89.5095 247.593 88.3122 249.683C85.7362 250.428 83.2415 251.476 81.1255 252.647C76.9442 254.96 74.2495 257.744 75.3722 259.553C77.0629 262.279 87.4509 262.445 91.0229 260.915C93.2895 259.941 95.9669 256.488 95.9669 256.488C95.7869 241.861 102.602 226.716 102.602 226.716C102.527 218.757 102.97 211.596 103.711 205.233C106.522 181.12 113.66 168.432 113.66 167.347C113.654 166.741 112.898 164.691 112.49 163.163" stroke="black" stroke-miterlimit="10"/>
<path d="M13.9129 98.106C17.1315 106.949 21.8715 106.442 25.1649 106.442C28.3969 106.442 34.7569 104.853 36.5729 99.978C41.8409 85.8233 50.6222 78.2087 50.6222 78.2087" stroke="black" stroke-width="0.762" stroke-miterlimit="10"/>
<path d="M5.55983 93.9856C6.3665 98.1842 7.42116 102.104 8.61183 102.703C11.3198 104.06 12.7078 100.147 13.9092 98.1096" stroke="black" stroke-width="0.762" stroke-miterlimit="10"/>
<path d="M3.90277 82.8425C3.90277 82.8425 4.52944 88.6439 5.5601 93.9852" stroke="black" stroke-width="0.762" stroke-miterlimit="10" stroke-linecap="round" stroke-linejoin="round"/>
<path d="M4.08995 79.2494L3.57928 80.8587" stroke="black" stroke-width="0.51" stroke-miterlimit="10"/>
<path d="M42.0446 31.5025C40.8233 31.7438 39.462 32.2371 38.0606 32.9011C36.3993 33.6905 34.6846 34.7171 33.0993 35.8545C32.0446 36.6065 31.0473 37.4051 30.1566 38.2091C29.194 39.0798 28.3566 39.9611 27.71 40.7985C27.0526 41.6451 26.59 42.4518 26.39 43.1625C25.186 47.4091 26.6446 52.1825 26.0433 53.7105C25.478 55.1398 8.17264 64.9558 4.60997 70.9411" stroke="black" stroke-width="0.762" stroke-miterlimit="10"/>
<path d="M117.733 127.027C116.066 130.838 114.81 134.359 113.874 137.575C109.747 151.726 111.789 159.86 111.789 159.86" stroke="black" stroke-width="0.762" stroke-miterlimit="10" stroke-linecap="round" stroke-linejoin="round"/>
<path d="M13.9572 98.1059C12.6812 95.0433 12.3412 91.8966 12.3412 91.8966" stroke="black" stroke-width="0.762" stroke-miterlimit="10" stroke-linecap="round" stroke-linejoin="round"/>
<path d="M33.011 35.7283C33.011 35.7283 32.599 33.8496 31.687 31.5029C31.2964 30.5016 30.8137 29.4163 30.231 28.3549C29.4964 27.0176 28.339 25.4296 27.131 23.7789C25.1417 21.0563 23.0084 18.1616 22.4057 15.9363C21.443 12.3629 21.9524 6.57894 21.9524 6.57894C24.3444 13.0509 29.4897 18.7403 32.5444 22.3163C33.1844 23.0643 33.7324 23.7216 34.1444 24.2723C37.3217 28.5256 38.003 32.7789 38.003 32.7789" stroke="black" stroke-width="0.762" stroke-miterlimit="10" stroke-linecap="round" stroke-linejoin="round"/>
<path d="M30.1394 38.1917C30.1394 38.1917 28.0474 35.6197 27.5674 32.2677C27.0874 28.9131 27.7474 26.8891 27.0981 23.8024" stroke="black" stroke-width="0.51" stroke-miterlimit="10" stroke-linecap="round" stroke-linejoin="round"/>
<path d="M2.9433 81.1379C2.96997 81.2019 3.2833 81.9099 3.9033 82.8419C5.13396 84.6965 7.58463 87.4352 11.4046 87.6845C16.438 88.0139 21.2113 81.5499 21.354 81.3525" stroke="black" stroke-width="0.762" stroke-miterlimit="10" stroke-linecap="round" stroke-linejoin="round"/>
<path d="M14.6785 80.5287C13.4598 79.386 12.9705 77.83 14.4678 77.1367C16.2092 76.33 16.8598 79.6274 18.0812 80.3274C19.0678 80.8927 20.3572 80.858 21.1092 80.774C21.4932 80.726 21.7385 80.6687 21.7385 80.6687C21.7385 80.6687 23.6025 77.174 22.9705 74.302C22.7558 73.3194 22.2492 72.41 21.2718 71.7367C20.0345 70.882 18.7012 70.4167 16.5812 70.2087C12.2025 69.7807 7.17982 70.4474 5.84648 71.0727V71.0767C5.84648 71.0834 5.21315 71.09 5.19315 71.0967C3.48115 71.7474 2.23582 72.6887 1.69449 73.5367C1.24915 74.23 0.930485 74.8607 0.835819 75.2247C0.577152 76.2114 0.631818 79.6887 2.63315 79.9874C3.19715 80.1074 3.66782 79.722 4.12648 79.2487C4.99182 78.3687 5.67982 77.1807 6.31982 78.3714C7.13715 79.8954 4.83049 80.6887 3.62915 80.9874" stroke="black" stroke-miterlimit="10" stroke-linecap="round" stroke-linejoin="round"/>
<path d="M21.3575 81.3488L21.3535 81.3528" stroke="black" stroke-width="0.51" stroke-miterlimit="10" stroke-linecap="round" stroke-linejoin="round"/>
<path d="M193.455 157.54C193.455 157.54 205.268 159.64 212.015 150.695C212.9 149.524 213.696 148.167 214.367 146.591" stroke="black" stroke-width="0.128" stroke-linecap="round" stroke-linejoin="round"/>
<path d="M217.847 123.853V124.479C217.847 124.641 216.976 128.589 219.419 130.089C221.916 131.62 228.536 133.499 232.656 133.093C238.574 132.512 242.452 129.296 244.663 126.915C246.875 124.533 250.048 119.945 250.048 119.945" stroke="black" stroke-linecap="round" stroke-linejoin="round"/>
<path d="M53.3306 0.720207C53.2586 0.829541 52.5612 1.84021 51.6292 3.52421C49.3426 7.65754 45.6239 15.8509 46.1106 24.7829C46.3652 29.4615 48.7812 29.9615 49.6826 33.4589C50.3332 35.9909 49.2266 39.9535 50.0239 42.2135C50.3599 43.1629 50.9866 43.9202 52.3199 43.9215C53.6532 43.9229 55.2559 42.2269 55.2559 42.2269C56.7159 40.9922 58.2879 38.9469 58.8692 35.6709C58.9146 35.4122 58.9519 35.1535 58.9759 34.8949C59.7612 27.3989 52.7932 20.4135 51.7252 14.5749C50.6186 8.53621 54.5319 2.49621 53.3412 0.709541C52.2866 -0.871792 43.6439 13.2135 42.3679 23.2509C42.0279 25.9295 42.0039 28.9949 42.0746 31.5029C42.1572 34.3775 42.3679 36.5215 42.3679 36.5215" stroke="black" stroke-width="0.51" stroke-linecap="round" stroke-linejoin="round"/>
<path d="M13.9095 98.1095L13.9135 98.1055" stroke="black" stroke-width="0.51" stroke-miterlimit="10"/>
<path d="M58.87 35.6705C58.0433 38.4465 52.3206 40.3185 51.8806 35.7251C51.3606 30.2678 47.826 26.7798 47.7033 20.6411C47.5913 15.1438 49.598 7.79714 51.63 3.52381C52.2113 2.29847 52.7966 1.32647 53.3313 0.719808C53.338 0.713141 53.3406 0.710474 53.3406 0.710474" stroke="black" stroke-width="0.128" stroke-linecap="round" stroke-linejoin="round"/>
<path d="M20.9843 93.7655C20.8043 93.9455 20.511 93.9455 20.3297 93.7655C20.1497 93.5855 20.1497 93.2922 20.3297 93.1109C20.511 92.9309 20.8043 92.9309 20.9843 93.1109C21.1643 93.2922 21.1643 93.5855 20.9843 93.7655Z" fill="black"/>
<path d="M20.6572 93.1462C20.5825 93.1462 20.5078 93.1755 20.4505 93.2315C20.3372 93.3462 20.3372 93.5315 20.4505 93.6449C20.5612 93.7569 20.7532 93.7555 20.8638 93.6449C20.9198 93.5902 20.9505 93.5169 20.9505 93.4382C20.9505 93.3609 20.9198 93.2875 20.8638 93.2315C20.8065 93.1755 20.7318 93.1462 20.6572 93.1462ZM20.6572 94.0715C20.4878 94.0715 20.3292 94.0049 20.2105 93.8849C19.9638 93.6395 19.9638 93.2382 20.2105 92.9915C20.4572 92.7435 20.8585 92.7449 21.1052 92.9915C21.2238 93.1102 21.2905 93.2689 21.2905 93.4382C21.2905 93.6075 21.2238 93.7662 21.1052 93.8862C20.9852 94.0049 20.8265 94.0715 20.6572 94.0715Z" fill="black"/>
<path d="M28.2474 89.7126C28.2474 89.994 28.0194 90.2233 27.7368 90.2233C27.4554 90.2233 27.2261 89.994 27.2261 89.7126C27.2261 89.4313 27.4554 89.202 27.7368 89.202C28.0194 89.202 28.2474 89.4313 28.2474 89.7126Z" fill="black"/>
<path d="M27.7371 89.3724C27.5491 89.3724 27.3971 89.5257 27.3971 89.7124C27.3971 89.9004 27.5491 90.0524 27.7371 90.0524C27.9251 90.0524 28.0771 89.9004 28.0771 89.7124C28.0771 89.5257 27.9251 89.3724 27.7371 89.3724ZM27.7371 90.3937C27.3625 90.3937 27.0571 90.0884 27.0571 89.7124C27.0571 89.3377 27.3625 89.0324 27.7371 89.0324C28.1118 89.0324 28.4171 89.3377 28.4171 89.7124C28.4171 90.0884 28.1118 90.3937 27.7371 90.3937Z" fill="black"/>
<path d="M27.1841 95.854C27.1841 96.11 26.9775 96.3166 26.7215 96.3166C26.4668 96.3166 26.2588 96.11 26.2588 95.854C26.2588 95.598 26.4668 95.3913 26.7215 95.3913C26.9775 95.3913 27.1841 95.598 27.1841 95.854Z" fill="black"/>
<path d="M26.7217 95.5614C26.5604 95.5614 26.4297 95.6921 26.4297 95.8534C26.4297 96.0147 26.5604 96.1467 26.7217 96.1467C26.883 96.1467 27.0137 96.0147 27.0137 95.8534C27.0137 95.6921 26.883 95.5614 26.7217 95.5614ZM26.7217 96.4867C26.3724 96.4867 26.0897 96.2027 26.0897 95.8534C26.0897 95.5054 26.3724 95.2214 26.7217 95.2214C27.071 95.2214 27.3537 95.5054 27.3537 95.8534C27.3537 96.2027 27.071 96.4867 26.7217 96.4867Z" fill="black"/>
<path d="M50.6236 78.5439C50.5396 78.5439 50.4556 78.5132 50.3903 78.4505C50.2529 78.3225 50.2476 78.1065 50.3769 77.9705C50.4409 77.9025 51.9849 76.2759 54.9783 74.0172C55.1289 73.9025 55.3423 73.9332 55.4556 74.0825C55.5689 74.2332 55.5383 74.4465 55.3889 74.5599C52.4396 76.7852 50.8863 78.4212 50.8703 78.4372C50.8036 78.5079 50.7143 78.5439 50.6236 78.5439Z" fill="black"/>
<path d="M50.6236 78.5439C50.5396 78.5439 50.4556 78.5132 50.3903 78.4505C50.2529 78.3225 50.2476 78.1065 50.3769 77.9705C50.4409 77.9025 51.9849 76.2759 54.9783 74.0172C55.1289 73.9025 55.3423 73.9332 55.4556 74.0825C55.5689 74.2332 55.5383 74.4465 55.3889 74.5599C52.4396 76.7852 50.8863 78.4212 50.8703 78.4372C50.8036 78.5079 50.7143 78.5439 50.6236 78.5439Z" stroke="black" stroke-width="0.254" stroke-miterlimit="10"/>
<path d="M58.6361 253.939C58.6134 253.939 58.5894 253.936 58.5654 253.931C58.3814 253.892 58.2641 253.712 58.3027 253.528C58.3521 253.298 59.5494 247.86 64.2921 245.802C64.4641 245.726 64.6641 245.806 64.7387 245.978C64.8134 246.151 64.7347 246.351 64.5627 246.426C60.1481 248.343 58.9801 253.616 58.9681 253.67C58.9347 253.83 58.7934 253.939 58.6361 253.939Z" fill="black"/>
<path d="M81.0989 261.187C80.9203 261.187 80.7709 261.449 80.7603 261.269C80.7563 261.209 80.4869 255.512 87.6816 253.075C87.8603 253.015 88.0523 253.211 88.1136 253.389C88.1736 253.567 88.0776 253.811 87.9003 253.871C81.1923 256.143 81.4363 261.149 81.4389 261.204C81.4496 261.391 81.3069 261.187 81.1189 261.187H81.0989Z" fill="black"/>
<path d="M87.9682 261.991C87.7802 261.991 87.6282 261.839 87.6282 261.651C87.6282 261.499 87.6642 257.922 90.7895 256.03C90.9522 255.933 91.1602 255.985 91.2575 256.145C91.3549 256.306 91.3029 256.514 91.1429 256.611C88.3402 258.307 88.3082 261.618 88.3082 261.651C88.3082 261.839 88.1562 261.991 87.9682 261.991Z" fill="black"/>
<path d="M66.0204 252.947C65.8604 252.947 65.7164 252.833 65.6857 252.669C65.6564 252.511 64.991 248.763 67.8764 246.959C68.035 246.86 68.2457 246.908 68.3444 247.068C68.4444 247.227 68.3964 247.437 68.2364 247.536C65.7404 249.096 66.3484 252.509 66.355 252.544C66.3897 252.728 66.2684 252.907 66.083 252.941C66.0617 252.945 66.0404 252.947 66.0204 252.947Z" fill="black"/>
<path d="M225.025 238.288C225.001 238.288 224.977 238.285 224.951 238.28C224.769 238.24 224.651 238.058 224.691 237.874C225.517 234.101 230.814 232.258 231.039 232.181C231.217 232.121 231.41 232.216 231.47 232.393C231.531 232.572 231.437 232.765 231.258 232.825C231.207 232.842 226.099 234.622 225.357 238.02C225.322 238.18 225.181 238.288 225.025 238.288Z" fill="black"/>
<path d="M230.695 240.329C230.529 240.329 230.384 240.208 230.359 240.038C229.877 236.793 234.405 233.924 234.597 233.802C234.756 233.702 234.967 233.752 235.067 233.91C235.165 234.07 235.117 234.28 234.959 234.38C234.915 234.406 230.616 237.133 231.032 239.94C231.059 240.125 230.931 240.298 230.745 240.325C230.728 240.328 230.711 240.329 230.695 240.329Z" fill="black"/>
<path d="M180.339 227.889C180.313 227.889 180.289 227.886 180.264 227.881C180.08 227.839 179.965 227.657 180.007 227.474C181.057 222.803 186.575 220.917 186.809 220.839C186.987 220.779 187.18 220.875 187.239 221.054C187.299 221.233 187.203 221.425 187.024 221.485C186.971 221.503 181.636 223.331 180.671 227.623C180.635 227.782 180.495 227.889 180.339 227.889Z" fill="black"/>
<path d="M185.612 229.441C185.591 229.441 185.57 229.44 185.548 229.436C185.364 229.4 185.243 229.223 185.278 229.037C185.919 225.656 188.859 223.473 188.984 223.383C189.135 223.272 189.348 223.304 189.459 223.456C189.57 223.608 189.536 223.82 189.386 223.932C189.358 223.952 186.536 226.051 185.946 229.164C185.915 229.328 185.772 229.441 185.612 229.441Z" fill="black"/>
<path d="M89.8427 164.794C89.7214 164.794 89.6027 164.729 89.5427 164.614C88.7241 163.076 86.6574 161.842 84.0414 160.281C78.3321 156.876 69.7054 151.729 64.6747 137.689C64.6107 137.512 64.7027 137.317 64.8801 137.254C65.0574 137.189 65.2521 137.282 65.3147 137.46C70.2627 151.27 78.7641 156.341 84.3894 159.697C87.0974 161.313 89.2361 162.589 90.1427 164.294C90.2307 164.461 90.1681 164.666 90.0027 164.754C89.9507 164.781 89.8961 164.794 89.8427 164.794Z" fill="black"/>
<path d="M89.8427 164.794C89.7214 164.794 89.6027 164.729 89.5427 164.614C88.7241 163.076 86.6574 161.842 84.0414 160.281C78.3321 156.876 69.7054 151.729 64.6747 137.689C64.6107 137.512 64.7027 137.317 64.8801 137.254C65.0574 137.189 65.2521 137.282 65.3147 137.46C70.2627 151.27 78.7641 156.341 84.3894 159.697C87.0974 161.313 89.2361 162.589 90.1427 164.294C90.2307 164.461 90.1681 164.666 90.0027 164.754C89.9507 164.781 89.8961 164.794 89.8427 164.794Z" stroke="black" stroke-width="0.254" stroke-miterlimit="10"/>
<path d="M32.773 51.6266C32.7117 51.5773 32.637 51.5559 32.557 51.5533L30.7943 51.5719C30.7157 51.5733 30.6397 51.5999 30.5797 51.6506C30.1623 51.9986 29.9317 52.5053 29.9477 53.0399C29.9623 53.5053 30.157 53.8319 30.497 54.1519C30.8223 54.4586 31.2437 54.5199 31.689 54.5199H31.745C32.2103 54.5199 32.6423 54.4159 32.961 54.0759C33.281 53.7373 33.4477 53.3466 33.4343 52.8813C33.4183 52.3733 33.1783 51.9493 32.773 51.6266Z" fill="black"/>
<path d="M39.93 51.7968C39.8647 51.7275 39.77 51.6968 39.678 51.6902L37.6153 51.7115C37.5207 51.7128 37.43 51.7542 37.366 51.8248C37.0647 52.1622 36.906 52.8208 36.9193 53.2688C36.9487 54.2115 37.726 55.1875 38.6633 55.1875H38.7167C39.678 55.1875 40.4353 54.1222 40.406 53.1622C40.3927 52.7422 40.2247 52.1102 39.93 51.7968Z" fill="black"/>
<path d="M39.93 51.7968C39.8647 51.7275 39.77 51.6968 39.678 51.6902L37.6153 51.7115C37.5207 51.7128 37.43 51.7542 37.366 51.8248C37.0647 52.1622 36.906 52.8208 36.9193 53.2688C36.9487 54.2115 37.726 55.1875 38.6633 55.1875H38.7167C39.678 55.1875 40.4353 54.1222 40.406 53.1622C40.3927 52.7422 40.2247 52.1102 39.93 51.7968Z" stroke="black" stroke-miterlimit="10"/>
<path d="M28.7214 53.1868C28.4414 53.1868 28.2134 52.5654 28.2107 52.2854C28.2094 52.0028 28.436 51.8681 28.7174 51.8654L43.352 51.8534H43.356C43.636 51.8534 43.864 51.7868 43.8667 52.0681C43.868 52.3494 43.6414 52.8281 43.36 52.8308L28.7254 53.1868H28.7214Z" fill="black"/>
</svg>
