<svg width="193" height="196" viewBox="0 0 193 196" fill="none" xmlns="http://www.w3.org/2000/svg">
<path d="M25.3565 2.96765C19.8405 3.53299 16.7552 8.33032 16.4765 8.77832C16.7312 6.79965 17.2285 5.85432 19.4112 4.33299C20.9045 3.29299 23.5472 2.95032 25.3498 2.83832L25.3565 2.96765Z" fill="#5C647D"/>
<path d="M27.2842 2.85257C24.1442 4.05924 21.1175 6.0139 18.7095 9.09924C17.3682 10.8206 16.5002 12.5459 15.9615 14.1886L15.9415 14.1819C16.2562 12.8126 16.1509 11.9019 16.3989 9.44857C16.4229 9.21524 16.4455 8.99124 16.4762 8.7819C16.4762 8.7819 16.4735 8.7819 16.4762 8.7779C16.7549 8.33124 19.8415 3.5339 25.3562 2.96724L25.3495 2.83924C26.4682 2.77124 27.2602 2.79124 27.2602 2.79124L27.2842 2.85257Z" fill="#383D4D"/>
<path d="M27.4706 21.5065C27.4706 20.0332 26.2813 18.8399 24.808 18.8399C23.3373 18.8399 22.1453 20.0332 22.1453 21.5065C22.1453 22.9772 23.3373 24.1692 24.808 24.1692C26.2813 24.1692 27.4706 22.9772 27.4706 21.5065ZM130.031 105.88C129.712 105.737 129.387 105.605 129.051 105.487L129.068 105.443C106.047 96.9932 82.528 104.829 82.528 104.829H82.5013C82.5386 108.973 82.392 113.865 81.8 118.673C81.684 118.74 81.624 118.777 81.624 118.777C81.176 120.384 80.6746 126.197 80.1933 133.38V133.393C79.476 140.4 77.992 154.816 77.0706 163.207C73.9226 168.432 68.4813 166.375 67.628 166.012C67.2413 154.293 66.6586 140.519 65.924 134.477C64.5213 124.757 51.904 122.701 51.904 122.701L51.9146 122.627C48.7773 122.22 45.3453 120.777 45.3453 120.777C43.6853 119.669 42.096 117.293 40.6533 114.377L40.4053 114.655C43.6786 122.785 48.3093 124.595 48.3093 124.595C48.8626 125.98 49.872 153.931 50.2213 164.085C47.4826 167.533 42.2146 166.409 42.2146 166.409L41.656 166.453C39.9453 145.112 33.4 121.58 33.4 121.58C18.6853 97.5185 19.4146 74.1172 21.0813 62.5452L21.4333 62.5959C44.0173 65.7559 51.64 52.9905 51.9253 46.1065C52.264 37.8639 48.588 27.5879 40.2906 28.8279C40.152 28.8479 40.0133 28.8719 39.8773 28.8985C32.664 30.1932 31.0213 36.4065 24.5946 37.0705C22.192 37.3212 19.74 34.9265 18.7226 31.9892C17.4453 28.2959 15.3586 27.0025 14.1146 26.3999C15.724 25.9865 17.8693 25.0745 18.9773 23.8879C20.448 22.3065 20.332 20.3585 20.2746 17.5359C20.2306 15.3745 21.4026 2.59854 39.4026 1.12121C43.0013 1.28387 45.4973 1.90387 45.4973 1.90387L45.5786 2.0732C45.8466 1.84253 46.172 1.59853 46.5413 1.4092L46.5586 1.44254C46.5586 1.44254 58.88 1.64653 65.4973 9.51987C65.876 10.1025 66.1173 10.9799 66.0933 11.9532C65.3653 12.4105 60.476 15.5679 56.9053 20.2092C53.04 25.2332 48.9813 19.4332 48.9813 19.4332L48.8893 19.4292C48.856 20.3412 48.856 21.0292 48.92 21.3639C49.1333 22.5025 51.5493 26.7612 52.3546 27.6052C53.1613 28.4452 55.896 29.8812 57.9626 25.4292C58.4866 24.2985 59.0493 23.2412 59.6253 22.2625L59.6533 22.2785C59.6533 22.2785 64.5653 17.2812 68.0373 21.6865L68.1253 21.6319C74.78 33.0799 78.8186 49.2465 78.8186 49.2465C86.2213 48.9012 92.2373 47.2959 98.5426 45.8452L98.5626 45.9372C98.5626 45.9372 128.461 42.0412 138.88 49.4092L138.917 49.3585C144.056 53.0825 148.159 58.1132 151.215 62.9439C154.688 68.4292 156.819 73.6599 157.601 76.4425C160.312 86.0665 159.377 91.4879 160.123 95.2279C160.359 96.3999 162.1 100.527 164.523 105.779C167.209 112.768 180.212 140.403 180.212 140.403C180.212 140.403 181.436 143.487 182.995 147.487C178.176 148.487 170.729 139.796 170.509 139.539L170.347 139.675C162.9 130.88 150.036 118.711 139.1 111.172C135.841 108.925 132.751 107.089 130.031 105.88V105.88ZM24.0653 16.0492C24.92 15.7839 25.8746 15.8652 26.6706 16.2759C27.112 15.4759 26.536 14.3172 25.6306 14.1852C24.7266 14.0532 23.8426 14.9985 24.0346 15.8892L24.0653 16.0492Z" fill="#383D4D"/>
<path d="M68.0378 21.6861C64.5658 17.2821 59.6525 22.2794 59.6525 22.2794L59.6258 22.2621C61.1911 19.6021 62.8711 17.4981 64.2498 15.9848C65.6218 17.6274 66.9165 19.5514 68.1258 21.6314L68.0378 21.6861Z" fill="#1E2129"/>
<path d="M68.0378 21.6861C64.5658 17.2821 59.6525 22.2794 59.6525 22.2794L59.6258 22.2621C61.1911 19.6021 62.8711 17.4981 64.2498 15.9848C65.6218 17.6274 66.9165 19.5514 68.1258 21.6314L68.0378 21.6861Z" stroke="#1E2129" stroke-width="0.254" stroke-miterlimit="10"/>
<path d="M48.9806 19.4332C48.9806 19.4332 53.0393 25.2332 56.9046 20.2092C60.4753 15.5679 65.3646 12.4106 66.0926 11.9532C66.0699 13.1412 65.6459 14.4799 64.5859 15.6186C64.4766 15.7372 64.3646 15.8586 64.2499 15.9839C62.8713 17.4986 61.1913 19.6026 59.6259 22.2626C59.0499 23.2412 58.4873 24.2986 57.9619 25.4292C55.8953 29.8812 53.1619 28.4452 52.3553 27.6052C51.5486 26.7612 49.1326 22.5026 48.9193 21.3639C48.8553 21.0292 48.8553 20.3412 48.8886 19.4292L48.9806 19.4332Z" fill="#1E2129"/>
<path d="M48.9806 19.4332C48.9806 19.4332 53.0393 25.2332 56.9046 20.2092C60.4753 15.5679 65.3646 12.4106 66.0926 11.9532C66.0699 13.1412 65.6459 14.4799 64.5859 15.6186C64.4766 15.7372 64.3646 15.8586 64.2499 15.9839C62.8713 17.4986 61.1913 19.6026 59.6259 22.2626C59.0499 23.2412 58.4873 24.2986 57.9619 25.4292C55.8953 29.8812 53.1619 28.4452 52.3553 27.6052C51.5486 26.7612 49.1326 22.5026 48.9193 21.3639C48.8553 21.0292 48.8553 20.3412 48.8886 19.4292L48.9806 19.4332Z" stroke="#1E2129" stroke-width="0.254" stroke-miterlimit="10"/>
<path d="M4.66968 44.9613C4.85634 45.6359 5.10701 46.3026 5.44168 46.9466C5.65501 49.5653 3.43368 48.0719 2.70168 47.5159C2.51501 47.1559 2.33501 46.7799 2.16968 46.3879C-0.263658 40.6759 3.29101 35.1733 3.29101 35.1733L3.36568 35.1666C3.42568 35.8039 3.99901 36.3426 4.77768 36.4986C4.69634 36.7959 3.55101 40.9773 4.66968 44.9613Z" fill="#E0AA70"/>
<path d="M14.4101 26.1954C13.0114 26.5541 11.7981 26.6941 11.4354 26.7274C11.0661 26.5074 10.6794 26.3314 10.3008 26.2021C11.2461 26.0674 12.1408 25.8701 12.9301 25.6567L12.9634 25.7794C12.9741 25.7794 13.5661 25.7794 14.4101 26.1954" fill="#F7BC7C"/>
<path d="M14.4101 26.1954C13.0114 26.5541 11.7981 26.6941 11.4354 26.7274C11.0661 26.5074 10.6794 26.3314 10.3008 26.2021C11.2461 26.0674 12.1408 25.8701 12.9301 25.6567L12.9634 25.7794C12.9741 25.7794 13.5661 25.7794 14.4101 26.1954V26.1954Z" stroke="#F7BC7C" stroke-width="0.254" stroke-miterlimit="10"/>
<path d="M18.1199 23.3021C18.5026 22.9461 18.8546 22.5154 19.0653 22.0074C19.1733 21.7501 19.2453 21.4727 19.2653 21.1741C19.2679 21.1234 19.2719 21.0701 19.2719 21.0154C19.2746 20.6194 19.2413 20.0634 19.2173 19.3861C19.0479 15.0461 19.1666 5.73274 31.5093 1.65674C34.3479 1.10474 37.1026 1.01941 39.4026 1.12074C21.4026 2.59807 20.2306 15.3741 20.2746 17.5354C20.3319 20.3581 20.4479 22.3061 18.9773 23.8887C17.8693 25.0741 16.0199 25.7821 14.4106 26.1954C13.5666 25.7781 12.9733 25.7781 12.9639 25.7781L12.9293 25.6567C14.8679 25.1314 16.1893 24.5181 16.1893 24.5181C16.1893 24.5181 17.2426 24.1087 18.1199 23.3021Z" fill="#5C647D"/>
<path d="M18.1199 23.3021C18.5026 22.9461 18.8546 22.5154 19.0653 22.0074C19.1733 21.7501 19.2453 21.4727 19.2653 21.1741C19.2679 21.1234 19.2719 21.0701 19.2719 21.0154C19.2746 20.6194 19.2413 20.0634 19.2173 19.3861C19.0479 15.0461 19.1666 5.73274 31.5093 1.65674C34.3479 1.10474 37.1026 1.01941 39.4026 1.12074C21.4026 2.59807 20.2306 15.3741 20.2746 17.5354C20.3319 20.3581 20.4479 22.3061 18.9773 23.8887C17.8693 25.0741 16.0199 25.7821 14.4106 26.1954C13.5666 25.7781 12.9733 25.7781 12.9639 25.7781L12.9293 25.6567C14.8679 25.1314 16.1893 24.5181 16.1893 24.5181C16.1893 24.5181 17.2426 24.1087 18.1199 23.3021Z" stroke="#5C647D" stroke-width="0.254" stroke-miterlimit="10"/>
<path d="M3.09768 33.8758C2.94168 33.3852 2.72435 32.8225 2.43368 32.2118C2.24702 31.8225 2.13235 31.4198 2.08435 31.0092C2.17235 29.9692 3.53102 29.9318 3.39635 31.1785C3.29768 32.0705 3.14568 32.6398 3.10435 33.3198C3.09368 33.4958 3.09102 33.6798 3.09768 33.8758Z" fill="black"/>
<path d="M5.44223 46.9465C5.10623 46.3025 4.85556 45.6359 4.67023 44.9612L4.71689 44.9479C9.50756 53.4012 22.2502 54.8879 31.0036 50.1145C34.3956 48.2639 44.3556 48.9865 46.0809 41.3732L46.2809 41.3772C46.2769 42.0039 46.2196 42.6545 46.0902 43.3185C45.8436 44.6025 45.3249 45.9505 44.4102 47.3225C41.4182 51.8079 33.0102 50.6972 30.9769 52.0652C28.9449 53.4305 25.0556 54.7959 22.4262 55.0772C18.7702 55.4679 15.7689 53.9932 13.2476 54.0879L13.2449 54.0505C13.2449 54.0505 8.05823 51.9945 5.44223 46.9465Z" fill="#C48E54"/>
<path d="M191.504 173.544C191.518 173.812 191.43 174.082 191.247 174.278C189.211 176.457 183.576 176.789 180.69 175.584C180.436 175.478 180.239 175.274 180.131 175.021C179.929 174.546 179.789 174.093 179.701 173.658L179.988 173.605C179.988 173.605 188.343 174.509 189.248 172.704C190.152 170.894 189.814 167.621 189.475 165.25C189.262 163.756 185.643 154.29 182.994 147.488C183.532 147.378 184.041 147.145 184.502 146.765C187.78 155.788 191.735 164.474 191.735 164.474C191.142 169.488 191.392 171.453 191.504 173.544Z" fill="#C48E54"/>
<path d="M191.504 173.544C191.518 173.812 191.43 174.082 191.247 174.278C189.211 176.457 183.576 176.789 180.69 175.584C180.436 175.478 180.239 175.274 180.131 175.021C179.929 174.546 179.789 174.093 179.701 173.658L179.988 173.605C179.988 173.605 188.343 174.509 189.248 172.704C190.152 170.894 189.814 167.621 189.475 165.25C189.262 163.756 185.643 154.29 182.994 147.488C183.532 147.378 184.041 147.145 184.502 146.765C187.78 155.788 191.735 164.474 191.735 164.474C191.142 169.488 191.392 171.453 191.504 173.544Z" stroke="#C48E54" stroke-width="0.254" stroke-miterlimit="10"/>
<path d="M189.475 165.25C189.814 167.622 190.152 170.894 189.248 172.703C188.343 174.509 179.989 173.605 179.989 173.605L179.701 173.659C178.83 169.403 182.903 167.07 182.903 167.07C182.903 167.07 181.151 156.065 175.263 146.25C174.193 144.469 172.495 142.211 170.347 139.674L170.51 139.539C170.73 139.797 178.177 148.486 182.994 147.487C185.643 154.29 189.262 163.755 189.475 165.25Z" fill="#E0AA70"/>
<path d="M184.502 146.765C184.04 147.145 183.532 147.379 182.994 147.487C181.435 143.485 180.212 140.403 180.212 140.403C180.212 140.403 167.21 112.768 164.523 105.779C169.818 117.267 178.352 134.139 181.432 137.279C182.224 140.223 183.319 143.516 184.502 146.765Z" fill="#1E2129"/>
<path d="M184.502 146.765C184.04 147.145 183.532 147.379 182.994 147.487C181.435 143.485 180.212 140.403 180.212 140.403C180.212 140.403 167.21 112.768 164.523 105.779C169.818 117.267 178.352 134.139 181.432 137.279C182.224 140.223 183.319 143.516 184.502 146.765Z" stroke="#1E2129" stroke-width="0.254" stroke-miterlimit="10"/>
<path d="M158.625 55.972C158.662 56.2707 158.675 56.568 158.666 56.8627C157.679 58.168 152.245 59.34 150.175 56.836C148.221 54.4707 140.005 47.9933 138.541 46.848C139.631 47.0413 140.821 47.2653 142.065 47.5187C144.677 48.3187 157.249 52.3293 158.614 55.972H158.625Z" fill="#383D4D"/>
<path d="M158.625 55.972H158.614C157.249 52.3293 144.677 48.3187 142.065 47.5187C147.275 48.5827 153.357 50.1893 156.369 52.276C157.818 53.2813 158.466 54.6133 158.625 55.972Z" fill="#5C647D"/>
<path d="M158.625 55.972H158.614C157.249 52.3293 144.677 48.3187 142.065 47.5187C147.275 48.5827 153.357 50.1893 156.369 52.276C157.818 53.2813 158.466 54.6133 158.625 55.972Z" stroke="#5C647D" stroke-width="0.254" stroke-miterlimit="10"/>
<path d="M158.665 56.863C158.608 59.279 157.238 61.559 156.368 62.0163C155.04 62.7137 151.462 62.7883 151.462 62.7883L151.214 62.9443C148.158 58.1137 144.056 53.0817 138.917 49.359C137.134 48.0643 135.23 46.9257 133.198 46.011C133.878 46.099 135.912 46.3843 138.541 46.8483C140.004 47.9937 148.22 54.471 150.174 56.8363C152.245 59.339 157.68 58.167 158.665 56.863Z" fill="#1E2129"/>
<path d="M158.665 56.863C158.608 59.279 157.238 61.559 156.368 62.0163C155.04 62.7137 151.462 62.7883 151.462 62.7883L151.214 62.9443C148.158 58.1137 144.056 53.0817 138.917 49.359C137.134 48.0643 135.23 46.9257 133.198 46.011C133.878 46.099 135.912 46.3843 138.541 46.8483C140.004 47.9937 148.22 54.471 150.174 56.8363C152.245 59.339 157.68 58.167 158.665 56.863Z" stroke="#1E2129" stroke-width="0.254" stroke-miterlimit="10"/>
<path d="M139.408 141.799C139.604 142.337 139.584 142.931 139.344 143.448C134.519 153.755 134.903 166.957 135.109 169.767C135.136 170.112 134.984 170.444 134.709 170.653C133.773 171.359 131.792 172.975 129.64 173.764C127.78 174.448 125.175 173.863 123.637 173.577C122.82 173.425 122.208 172.713 122.228 171.884C122.228 171.884 131.203 172.588 132.557 169.316C132.557 169.316 133.685 150.455 136.847 144.017C136.847 144.017 132.896 128.433 132.781 122.335C132.669 116.236 118.101 114.431 112.453 118.496L112.379 118.533C109.313 112.327 108.08 107.276 107.964 106.795C115.507 104.497 123.251 103.38 129.051 105.487C129.387 105.605 129.712 105.737 130.031 105.88C132.751 107.089 135.84 108.925 139.1 111.172C132.659 121.813 137.985 137.947 139.408 141.799Z" fill="#C48E54"/>
<path d="M133.198 46.0115C135.231 46.9262 137.135 48.0648 138.917 49.3582L138.879 49.4102C128.462 42.0408 98.5634 45.9368 98.5634 45.9368L98.5434 45.8448C105.847 44.1688 113.541 42.7022 124.237 43.6395C127.455 43.9248 130.441 44.7648 133.198 46.0115Z" fill="#5C647D"/>
<path d="M133.198 46.0115C135.231 46.9262 137.135 48.0648 138.917 49.3582L138.879 49.4102C128.462 42.0408 98.5634 45.9368 98.5634 45.9368L98.5434 45.8448C105.847 44.1688 113.541 42.7022 124.237 43.6395C127.455 43.9248 130.441 44.7648 133.198 46.0115Z" stroke="#5C647D" stroke-width="0.254" stroke-miterlimit="10"/>
<path d="M132.781 122.335C132.896 128.434 136.847 144.018 136.847 144.018C133.685 150.455 132.557 169.315 132.557 169.315C131.203 172.588 122.228 171.883 122.228 171.883C122.329 167.604 127.117 166.1 127.117 166.1C131.321 145.075 124.22 134.42 124.22 134.42C118.735 129.636 114.927 123.687 112.379 118.534L112.453 118.496C118.101 114.431 132.669 116.236 132.781 122.335Z" fill="#E0AA70"/>
<path d="M132.781 122.335C132.896 128.434 136.847 144.018 136.847 144.018C133.685 150.455 132.557 169.315 132.557 169.315C131.203 172.588 122.228 171.883 122.228 171.883C122.329 167.604 127.117 166.1 127.117 166.1C131.321 145.075 124.22 134.42 124.22 134.42C118.735 129.636 114.927 123.687 112.379 118.534L112.453 118.496C118.101 114.431 132.669 116.236 132.781 122.335Z" stroke="#E0AA70" stroke-width="0.254" stroke-miterlimit="10"/>
<path d="M107.965 106.794C95.3913 110.62 83.3753 117.724 81.7993 118.673C82.3926 113.865 82.538 108.973 82.5007 104.829H82.5287C82.5287 104.829 106.047 96.9932 129.069 105.442L129.051 105.486C123.251 103.38 115.506 104.497 107.965 106.794Z" fill="#1E2129"/>
<path d="M107.965 106.794C95.3913 110.62 83.3753 117.724 81.7993 118.673C82.3926 113.865 82.538 108.973 82.5007 104.829H82.5287C82.5287 104.829 106.047 96.9932 129.069 105.442L129.051 105.486C123.251 103.38 115.506 104.497 107.965 106.794Z" stroke="#1E2129" stroke-width="0.254" stroke-miterlimit="10"/>
<path d="M80.1937 133.393C79.6684 141.286 79.171 150.83 78.815 158.244C78.419 160.372 77.8057 161.988 77.0697 163.206C77.991 154.814 79.475 140.4 80.1937 133.393Z" fill="#1E2129"/>
<path d="M80.1937 133.393C79.6684 141.286 79.171 150.83 78.815 158.244C78.419 160.372 77.8057 161.988 77.0697 163.206C77.991 154.814 79.475 140.4 80.1937 133.393Z" stroke="#1E2129" stroke-width="0.254" stroke-miterlimit="10"/>
<path d="M78.8147 158.244C78.4761 165.257 78.2587 170.362 78.2587 170.362C76.8561 175.688 76.8561 192.37 76.8561 192.37C76.8561 192.37 72.4414 195.268 70.7587 195.457C69.2067 195.626 65.4761 195.224 63.1147 194.624C62.7587 194.536 62.4641 194.281 62.3361 193.936C62.1321 193.39 62.0041 192.878 61.9427 192.394L62.3121 192.353C62.3121 192.353 72.8147 193.709 74.0587 190.772C74.0587 190.772 75.8641 172.026 76.3174 169.54C76.4227 168.973 76.7001 166.574 77.0694 163.208C77.8054 161.988 78.4187 160.372 78.8147 158.244Z" fill="#C48E54"/>
<path d="M78.8147 158.244C78.4761 165.257 78.2587 170.362 78.2587 170.362C76.8561 175.688 76.8561 192.37 76.8561 192.37C76.8561 192.37 72.4414 195.268 70.7587 195.457C69.2067 195.626 65.4761 195.224 63.1147 194.624C62.7587 194.536 62.4641 194.281 62.3361 193.936C62.1321 193.39 62.0041 192.878 61.9427 192.394L62.3121 192.353C62.3121 192.353 72.8147 193.709 74.0587 190.772C74.0587 190.772 75.8641 172.026 76.3174 169.54C76.4227 168.973 76.7001 166.574 77.0694 163.208C77.8054 161.988 78.4187 160.372 78.8147 158.244Z" stroke="#C48E54" stroke-width="0.254" stroke-miterlimit="10"/>
<path d="M77.0701 163.207C76.7008 166.575 76.4234 168.974 76.3181 169.539C75.8634 172.026 74.0581 190.771 74.0581 190.771C72.8154 193.709 62.3128 192.354 62.3128 192.354L61.9434 192.394C61.2754 187.207 68.1661 185.503 68.1661 185.503C68.1661 185.503 67.9768 176.597 67.6274 166.013C68.4821 166.375 73.9221 168.431 77.0701 163.207Z" fill="#E0AA70"/>
<path d="M65.4969 9.51993C58.8809 1.64659 46.5582 1.4426 46.5582 1.4426L46.5409 1.40926C46.9009 1.22259 47.3009 1.07993 47.7276 1.03993C49.2009 0.897262 59.9502 0.969262 65.4969 9.51993Z" fill="#5C647D"/>
<path d="M65.4969 9.51993C58.8809 1.64659 46.5582 1.4426 46.5582 1.4426L46.5409 1.40926C46.9009 1.22259 47.3009 1.07993 47.7276 1.03993C49.2009 0.897262 59.9502 0.969262 65.4969 9.51993Z" stroke="#5C647D" stroke-width="0.254" stroke-miterlimit="10"/>
<path d="M40.2906 28.8278C48.588 27.5878 52.264 37.8638 51.9253 46.1065C51.64 52.9905 44.0173 65.7558 21.4333 62.5958L21.0813 62.5452C21.2973 61.0265 21.5346 59.7118 21.752 58.6278L21.8266 58.6412C21.8266 58.6412 24.452 59.4078 28.4333 58.9812C30.256 58.7838 32.42 56.4398 34.4466 56.2705C40.5453 55.7625 44.3293 53.3598 45.372 48.1385L45.3013 48.1292C45.6906 46.8718 45.972 45.2998 46.0906 43.3185C46.22 42.6545 46.2773 42.0038 46.28 41.3772C46.2906 39.2519 45.684 37.3719 45.1586 35.9185C44.2066 33.2932 41.26 30.8305 39.8773 28.8985C40.0133 28.8718 40.152 28.8478 40.2906 28.8278Z" fill="#E0AA70"/>
<path d="M51.9146 122.626L51.9039 122.701C50.4306 132.282 51.1359 149.13 51.7933 159.554C51.6399 161.588 51.0479 163.045 50.2213 164.085C49.8719 153.93 48.8626 125.981 48.3093 124.594C48.3093 124.594 43.6786 122.785 40.4053 114.654L40.6533 114.377C42.0959 117.293 43.6853 119.669 45.3453 120.777C45.3453 120.777 48.7773 122.22 51.9146 122.626Z" fill="#1E2129"/>
<path d="M51.9146 122.626L51.9039 122.701C50.4306 132.282 51.1359 149.13 51.7933 159.554C51.6399 161.588 51.0479 163.045 50.2213 164.085C49.8719 153.93 48.8626 125.981 48.3093 124.594C48.3093 124.594 43.6786 122.785 40.4053 114.654L40.6533 114.377C42.0959 117.293 43.6853 119.669 45.3453 120.777C45.3453 120.777 48.7773 122.22 51.9146 122.626Z" stroke="#1E2129" stroke-width="0.254" stroke-miterlimit="10"/>
<path d="M51.7926 159.555C52.138 164.992 52.4673 168.682 52.4673 168.682C51.2206 176.152 50.8606 186.726 50.7926 188.99C50.786 189.267 50.6406 189.518 50.4033 189.66C49.354 190.291 46.3646 192.004 44.614 192.232C42.818 192.466 38.1526 191.527 36.666 191.208C36.3713 191.147 36.134 190.924 36.046 190.632C35.87 190.043 35.774 189.491 35.754 188.972L35.886 188.966C35.886 188.966 45.5993 190.32 46.9553 188.062C48.31 185.802 50.342 167.734 50.342 167.734C50.342 167.734 50.298 166.355 50.2206 164.084C51.0473 163.044 51.6406 161.588 51.7926 159.555" fill="#C48E54"/>
<path d="M51.7926 159.555C52.138 164.992 52.4673 168.682 52.4673 168.682C51.2206 176.152 50.8606 186.726 50.7926 188.99C50.786 189.267 50.6406 189.518 50.4033 189.66C49.354 190.291 46.3646 192.004 44.614 192.232C42.818 192.466 38.1526 191.527 36.666 191.208C36.3713 191.147 36.134 190.924 36.046 190.632C35.87 190.043 35.774 189.491 35.754 188.972L35.886 188.966C35.886 188.966 45.5993 190.32 46.9553 188.062C48.31 185.802 50.342 167.734 50.342 167.734C50.342 167.734 50.298 166.355 50.2206 164.084C51.0473 163.044 51.6406 161.588 51.7926 159.555V159.555Z" stroke="#C48E54" stroke-width="0.254" stroke-miterlimit="10"/>
<path d="M50.2206 164.084C50.298 166.354 50.342 167.734 50.342 167.734C50.342 167.734 48.31 185.802 46.9553 188.06C45.5993 190.32 35.886 188.966 35.886 188.966L35.754 188.972C35.53 183.964 41.8113 182.139 41.8113 182.139C42.2153 177.355 42.0966 171.978 41.6553 166.452L42.2153 166.408C42.2153 166.408 47.4833 167.534 50.2206 164.084" fill="#E0AA70"/>
<path d="M13.8545 29.3292C13.4012 28.2479 12.4692 27.3306 11.4358 26.7279C11.7985 26.6932 12.9412 26.7586 14.3412 26.3999C15.5838 27.0026 17.4452 28.2959 18.7225 31.9892C19.7398 34.9266 22.1918 37.3212 24.5945 37.0706C31.0212 36.4066 32.6638 30.1932 39.8772 28.8986C41.2598 30.8306 44.2065 33.2932 45.1585 35.9186C45.6838 37.3719 46.2905 39.2519 46.2798 41.3772L46.0812 41.3732C44.3558 48.9866 34.3958 48.2639 31.0038 50.1146C22.2492 54.8879 9.50784 53.3999 4.71717 44.9479L4.66917 44.9612C3.55184 40.9772 4.69717 36.7959 4.77851 36.4986C4.78784 36.5012 4.79851 36.5012 4.80917 36.5052C5.44251 36.6199 6.39717 36.7146 7.07584 36.3292C7.75584 35.9426 8.24384 35.4039 8.28784 34.6212C8.29184 34.5666 8.29451 34.5132 8.29451 34.4586L9.28384 34.5026C9.28384 34.6039 9.39984 34.6826 9.50117 34.6279C10.6252 34.0586 14.2918 32.0706 14.1318 30.4066C14.0945 30.0346 13.9998 29.6719 13.8545 29.3292Z" fill="#E0AA70"/>
<path d="M46.0908 43.3181C45.9721 45.2995 45.6908 46.8715 45.3014 48.1288C44.1188 51.9408 41.9468 52.8581 40.2974 53.4888C38.1014 54.3328 35.2934 53.9421 33.5188 54.1288C31.7428 54.3155 30.0188 56.5755 28.5241 57.1341C27.0268 57.6968 24.7841 57.0421 23.1041 57.0421C22.6734 57.0421 22.3521 57.0901 22.0534 57.1581C21.1894 57.3608 20.5321 57.7341 17.9641 57.6021C16.2254 57.5141 15.1281 54.6368 13.1801 54.0915C13.2001 54.0915 13.2241 54.0888 13.2481 54.0888C15.7681 53.9941 18.7708 55.4675 22.4254 55.0781C25.0548 54.7968 28.9441 53.4315 30.9774 52.0661C33.0094 50.6968 41.4188 51.8088 44.4108 47.3221C45.3254 45.9501 45.8441 44.6021 46.0908 43.3181" fill="#2C303C"/>
<path d="M45.3013 48.1291L45.372 48.1397C44.3293 53.3597 40.544 55.7624 34.4466 56.2704C32.42 56.4397 30.256 58.7837 28.4333 58.9811C24.452 59.4077 21.8266 58.6424 21.8266 58.6424L21.752 58.6277C21.86 58.0891 21.9653 57.6091 22.06 57.1851L22.0533 57.1584C22.352 57.0904 22.6733 57.0424 23.104 57.0424C24.784 57.0424 27.0266 57.6971 28.524 57.1344C30.0186 56.5757 31.7426 54.3157 33.5186 54.1291C35.2933 53.9424 38.1013 54.3317 40.2973 53.4891C41.9466 52.8584 44.1186 51.9411 45.3013 48.1291Z" fill="#C48E54"/>
<path d="M27.2842 2.85258C28.6829 2.31791 30.1069 1.93125 31.5095 1.65658C19.1669 5.73258 19.0482 15.0459 19.2175 19.3859H19.1842C18.1269 19.0672 17.0149 19.6672 16.6975 20.7246C16.3789 21.7806 16.9775 22.8952 18.0349 23.2112L18.1202 23.3019C17.2429 24.1086 16.1882 24.5179 16.1882 24.5179C16.1882 24.5179 14.1082 19.8566 15.9615 14.1886C16.5002 12.5459 17.3682 10.8206 18.7095 9.09925C21.1175 6.01391 24.1442 4.05925 27.2842 2.85258ZM16.5269 17.0579L16.5789 17.0552C17.1029 16.9126 17.6282 16.7739 18.1535 16.6312C18.6015 16.4046 18.5202 15.6459 18.0762 15.4179C17.6282 15.1886 17.0495 15.4326 16.7749 15.8526C16.5442 16.2046 16.4909 16.6379 16.5269 17.0579Z" fill="#383D4D"/>
<path d="M25.6309 14.1851C26.5349 14.3171 27.1109 15.4758 26.6709 16.2758C25.8749 15.8651 24.9189 15.7838 24.0656 16.0491L24.0349 15.8891C23.8416 14.9985 24.7269 14.0531 25.6309 14.1851Z" fill="#E0AA70"/>
<path d="M24.9127 21.1914C25.2447 21.1914 25.5087 21.4554 25.5087 21.7848C25.5087 22.1168 25.2447 22.3808 24.9127 22.3808C24.5847 22.3808 24.3194 22.1168 24.3194 21.7848C24.3194 21.4554 24.5847 21.1914 24.9127 21.1914Z" fill="black"/>
<path d="M19.2413 21.1745H19.2653C19.2453 21.4732 19.1733 21.7505 19.0653 22.0078C18.7907 22.1812 18.432 22.1065 18.252 21.8385C18.0693 21.5638 18.14 21.1945 18.4147 21.0118C18.6853 20.8292 19.0587 20.8998 19.2413 21.1745Z" fill="black"/>
<path d="M18.0758 15.4183C18.5198 15.645 18.6012 16.4037 18.1532 16.6317C17.6292 16.773 17.1038 16.913 16.5785 17.0543L16.5278 17.0583C16.4905 16.6383 16.5438 16.205 16.7745 15.8517C17.0492 15.4317 17.6292 15.1877 18.0758 15.4183Z" fill="#E0AA70"/>
<path d="M14.1322 30.4067C14.2909 32.0707 10.6256 34.0587 9.50157 34.628C9.39891 34.6827 9.28424 34.604 9.28424 34.5027C9.28424 34.4853 9.28691 34.4693 9.29491 34.452C9.52824 33.7373 9.77891 32.1853 9.67091 31.284C9.67091 31.284 13.4749 31.924 13.8549 29.3293C14.0002 29.672 14.0949 30.0333 14.1322 30.4067Z" fill="#1E2129"/>
<path d="M13.2446 54.0512L13.2486 54.0886C13.2246 54.0886 13.2006 54.0912 13.1806 54.0912C13.126 54.0779 13.0686 54.0619 13.0113 54.0512C9.4473 54.2646 5.22597 52.3806 2.70197 47.5152C3.43263 48.0712 5.6553 49.5659 5.44196 46.9472C8.05796 51.9952 13.2446 54.0512 13.2446 54.0512Z" fill="#C48E54"/>
<path d="M11.4354 26.7275C12.4688 27.3301 13.4008 28.2488 13.8541 29.3288C13.4754 31.9248 9.6701 31.2848 9.6701 31.2848C9.52744 30.1155 7.8101 30.3728 8.12877 31.9141C6.62477 34.5475 3.41944 33.3435 3.41944 33.3435L3.10477 33.3208C3.14477 32.6395 3.2981 32.0701 3.39544 31.1795C3.53144 29.9328 2.17277 29.9701 2.08477 31.0101C1.94877 29.8781 2.32477 28.7088 3.11144 27.7541C3.96877 27.9675 7.49544 28.6515 11.3234 26.7381C11.3234 26.7381 11.3608 26.7341 11.4354 26.7275" fill="#2C303C"/>
<path d="M11.4354 26.7275C12.4688 27.3301 13.4008 28.2488 13.8541 29.3288C13.4754 31.9248 9.6701 31.2848 9.6701 31.2848C9.52744 30.1155 7.8101 30.3728 8.12877 31.9141C6.62477 34.5475 3.41944 33.3435 3.41944 33.3435L3.10477 33.3208C3.14477 32.6395 3.2981 32.0701 3.39544 31.1795C3.53144 29.9328 2.17277 29.9701 2.08477 31.0101C1.94877 29.8781 2.32477 28.7088 3.11144 27.7541C3.96877 27.9675 7.49544 28.6515 11.3234 26.7381C11.3234 26.7381 11.3608 26.7341 11.4354 26.7275V26.7275Z" stroke="#2C303C" stroke-width="0.254" stroke-miterlimit="10"/>
<path d="M11.4354 26.7275C11.3608 26.7341 11.3234 26.7381 11.3234 26.7381C7.49545 28.6514 3.96878 27.9675 3.11145 27.7541C3.18612 27.6555 3.27012 27.5568 3.36212 27.4621C4.43545 26.3275 8.52478 25.5928 10.3008 26.2021C10.6795 26.3315 11.0661 26.5075 11.4354 26.7275Z" fill="#5C647D"/>
<path d="M9.67034 31.2841C9.77834 32.1854 9.52768 33.7374 9.29434 34.4521C9.28768 34.4681 9.28368 34.4854 9.28368 34.5028L8.29434 34.4588C8.33568 33.5614 8.29168 32.7108 8.12901 31.9148C7.81034 30.3734 9.52768 30.1148 9.67034 31.2841Z" fill="black"/>
<path d="M4.77824 36.4982C3.99957 36.3422 3.42624 35.8035 3.36491 35.1662C3.36224 35.1568 3.36224 35.1462 3.36224 35.1368C3.33824 34.8075 3.25024 34.3768 3.09824 33.8755C3.09157 33.6795 3.09424 33.4968 3.10491 33.3208L3.41957 33.3435C3.41957 33.3435 6.62491 34.5462 8.12891 31.9142C8.29157 32.7102 8.33557 33.5608 8.29557 34.4582C8.29557 34.5128 8.29157 34.5675 8.28757 34.6208C8.24357 35.4035 7.75691 35.9422 7.07557 36.3288C6.39824 36.7155 5.44224 36.6195 4.80891 36.5048C4.79824 36.5022 4.78891 36.5022 4.77824 36.4982Z" fill="#1E2129"/>
<path d="M3.29087 35.1736C3.29087 35.1736 -0.262463 40.6749 2.16954 46.3882C2.33487 46.7802 2.51487 47.1562 2.70154 47.5162C5.22554 52.3802 9.44687 54.2642 13.0109 54.0509" stroke="black" stroke-width="0.508" stroke-miterlimit="10" stroke-linecap="round" stroke-linejoin="round"/>
<path d="M45.4978 1.90382C45.4978 1.90382 43.0005 1.28382 39.4031 1.12115C37.1031 1.01982 34.3485 1.10382 31.5085 1.65715C30.1058 1.93049 28.6831 2.31715 27.2845 2.85182C24.1431 4.05848 21.1178 6.01315 18.7098 9.09982C17.3671 10.8211 16.5005 12.5451 15.9618 14.1891C14.1085 19.8571 16.1885 24.5185 16.1885 24.5185C16.1885 24.5185 14.8671 25.1318 12.9298 25.6572C12.1405 25.8705 11.2458 26.0665 10.3005 26.2025" stroke="black" stroke-width="0.508" stroke-miterlimit="10" stroke-linecap="round" stroke-linejoin="round"/>
<path d="M80.1937 133.38C80.675 126.197 81.1763 120.384 81.623 118.778C81.623 118.778 81.6843 118.741 81.799 118.673C83.375 117.724 95.3923 110.62 107.964 106.794C115.506 104.497 123.251 103.38 129.051 105.486C129.387 105.605 129.712 105.737 130.03 105.88C132.751 107.089 135.84 108.925 139.1 111.172C150.036 118.71 162.9 130.88 170.347 139.674C172.495 142.212 174.192 144.469 175.263 146.25C181.151 156.065 182.903 167.069 182.903 167.069C182.903 167.069 178.83 169.404 179.7 173.658C179.788 174.093 179.928 174.546 180.131 175.021C180.239 175.274 180.436 175.478 180.69 175.584C183.576 176.789 189.211 176.457 191.247 174.278C191.43 174.082 191.518 173.812 191.504 173.544C191.392 171.453 191.142 169.489 191.735 164.474C191.735 164.474 187.782 155.788 184.502 146.765C183.319 143.517 182.224 140.224 181.432 137.28C178.352 134.138 169.818 117.266 164.523 105.778C162.1 100.526 160.359 96.4011 160.122 95.2277C159.376 91.4877 160.312 86.0678 157.602 76.4424C156.819 73.6611 154.688 68.4291 151.215 62.9451C148.159 58.1131 144.056 53.0824 138.916 49.3584C137.135 48.0651 135.231 46.9264 133.198 46.0117C130.44 44.7651 127.455 43.9251 124.236 43.6397C113.542 42.7011 105.847 44.1691 98.543 45.8451C92.2377 47.2957 86.2203 48.9011 78.8177 49.2477C78.8177 49.2477 74.7803 33.0798 68.1257 21.6318C66.9163 19.5518 65.6217 17.6278 64.2497 15.9838C64.223 15.9544 64.199 15.9264 64.175 15.8958" stroke="black" stroke-width="0.508" stroke-miterlimit="10" stroke-linecap="round" stroke-linejoin="round"/>
<path d="M22.0601 57.1849C21.9654 57.6089 21.8601 58.0889 21.7521 58.6276C21.5348 59.7129 21.2974 61.0263 21.0814 62.5449C19.4148 74.1183 18.6854 97.5183 33.4001 121.58C33.4001 121.58 39.9454 145.112 41.6561 166.453C42.0961 171.978 42.2148 177.356 41.8121 182.14C41.8121 182.14 35.5308 183.965 35.7548 188.973C35.7748 189.49 35.8694 190.044 36.0454 190.633C36.1334 190.924 36.3708 191.148 36.6654 191.209C38.1534 191.526 42.8174 192.465 44.6134 192.232C46.3654 192.005 49.3534 190.29 50.4041 189.66C50.6414 189.518 50.7868 189.268 50.7934 188.989C50.8614 186.726 51.2201 176.153 52.4668 168.682C52.4668 168.682 52.1388 164.993 51.7921 159.554C51.1348 149.13 50.4308 132.282 51.9041 122.701C51.9041 122.701 64.5214 124.757 65.9241 134.477C66.6588 140.518 67.2414 154.293 67.6281 166.013C67.9774 176.596 68.1668 185.504 68.1668 185.504C68.1668 185.504 61.2761 187.208 61.9428 192.394C62.0041 192.878 62.1321 193.39 62.3361 193.936C62.4641 194.281 62.7588 194.536 63.1148 194.624C65.4761 195.224 69.2068 195.626 70.7588 195.457C72.4428 195.268 76.8561 192.37 76.8561 192.37C76.8561 192.37 76.8561 175.689 78.2588 170.362C78.2588 170.362 78.4761 165.257 78.8148 158.244C79.1708 150.832 79.6681 141.288 80.1934 133.393" stroke="black" stroke-width="0.508" stroke-miterlimit="10" stroke-linecap="round" stroke-linejoin="round"/>
<path d="M33.5689 93.1139C33.5689 93.1139 36.5022 105.985 40.6529 114.377C42.0969 117.294 43.6849 119.669 45.3449 120.777C45.3449 120.777 48.7769 122.219 51.9142 122.626C51.9689 122.633 52.0196 122.639 52.0742 122.646" stroke="black" stroke-width="0.508" stroke-miterlimit="10" stroke-linecap="round" stroke-linejoin="round"/>
<path d="M40.8597 24.8945C39.925 25.3585 38.925 26.2732 39.1757 27.5105C39.2637 27.9332 39.5144 28.3972 39.877 28.8985C41.2597 30.8305 44.2064 33.2932 45.1584 35.9185C45.6837 37.3719 46.2904 39.2532 46.281 41.3772C46.277 42.0039 46.2197 42.6545 46.0904 43.3185C45.8437 44.6025 45.325 45.9505 44.4104 47.3225C41.4184 51.8079 33.0104 50.6972 30.977 52.0652C28.9437 53.4305 25.0544 54.7959 22.4264 55.0772C18.7704 55.4679 15.769 53.9932 13.2477 54.0879C13.2237 54.0879 13.201 54.0919 13.1797 54.0919C13.1424 54.0959 13.105 54.0959 13.069 54.0985" stroke="black" stroke-width="0.508" stroke-miterlimit="10" stroke-linecap="round" stroke-linejoin="round"/>
<path d="M13.0109 54.0512C13.0682 54.0619 13.1255 54.0779 13.1802 54.0912C15.1282 54.6379 16.2255 57.5139 17.9642 57.6019C20.5322 57.7339 21.1895 57.3605 22.0535 57.1579C22.3509 57.0899 22.6735 57.0432 23.1042 57.0432C24.7842 57.0432 27.0269 57.6965 28.5242 57.1339C30.0189 56.5752 31.7429 54.3152 33.5175 54.1285C35.2935 53.9432 38.1015 54.3325 40.2975 53.4885C41.9469 52.8592 44.1189 51.9405 45.3015 48.1285C45.6909 46.8725 45.9722 45.3005 46.0909 43.3179C46.0909 43.2979 46.0935 43.2779 46.0935 43.2565" stroke="black" stroke-width="0.508" stroke-miterlimit="10" stroke-linecap="round" stroke-linejoin="round"/>
<path d="M13.2446 54.0512C13.2446 54.0512 8.05797 51.9952 5.44197 46.9472C5.10731 46.3032 4.85664 45.6352 4.66997 44.9618C3.55131 40.9765 4.69664 36.7965 4.77797 36.4978C4.78464 36.4885 4.78464 36.4818 4.78464 36.4818" stroke="black" stroke-width="0.508" stroke-miterlimit="10" stroke-linecap="round" stroke-linejoin="round"/>
<path d="M4.77823 36.4982C4.78889 36.5022 4.79823 36.5022 4.80889 36.5048C5.44223 36.6195 6.39823 36.7155 7.07556 36.3288C7.75689 35.9422 8.24356 35.4035 8.28756 34.6208C8.29156 34.5675 8.29556 34.5128 8.29556 34.4582C8.33556 33.5608 8.29156 32.7102 8.12889 31.9142C7.81023 30.3728 9.52756 30.1155 9.67022 31.2835C9.77822 32.1848 9.52756 33.7368 9.29423 34.4515C9.28756 34.4688 9.28356 34.4862 9.28356 34.5022C9.28356 34.6048 9.39956 34.6822 9.50089 34.6275C10.6262 34.0595 14.2916 32.0702 14.1329 30.4062C14.0956 30.0342 13.9996 29.6715 13.8542 29.3288C13.4009 28.2488 12.4689 27.3302 11.4356 26.7275C11.0662 26.5075 10.6796 26.3315 10.3009 26.2022C8.52489 25.5928 4.43556 26.3275 3.36223 27.4622C3.27023 27.5568 3.18623 27.6555 3.11156 27.7542C2.32489 28.7088 1.94889 29.8782 2.08489 31.0102C2.13289 31.4195 2.24756 31.8235 2.43423 32.2128C2.72489 32.8222 2.94223 33.3848 3.09823 33.8755C3.25023 34.3768 3.33823 34.8075 3.36223 35.1368C3.36223 35.1462 3.36223 35.1568 3.36489 35.1662C3.42623 35.8035 3.99956 36.3422 4.77823 36.4982Z" stroke="black" stroke-width="0.508" stroke-miterlimit="10" stroke-linecap="round" stroke-linejoin="round"/>
<path d="M2.08142 31.0537C2.08142 31.0404 2.08542 31.023 2.08542 31.0097C2.17342 29.9697 3.53209 29.9324 3.39609 31.179C3.29742 32.0697 3.14542 32.639 3.10409 33.3204C3.09475 33.4964 3.09075 33.679 3.09742 33.8764" stroke="black" stroke-width="0.508" stroke-miterlimit="10" stroke-linecap="round" stroke-linejoin="round"/>
<path d="M16.1888 24.5184C16.1888 24.5184 17.2421 24.1091 18.1194 23.3024C18.5021 22.9464 18.8554 22.5157 19.0648 22.0077C19.1741 21.7504 19.2448 21.4731 19.2648 21.1744C19.2688 21.1237 19.2714 21.0691 19.2714 21.0157C19.2754 20.6184 19.2408 20.0637 19.2181 19.3851C19.0488 15.0464 19.1674 5.73174 31.5088 1.65707C31.5288 1.6504 31.5528 1.64374 31.5728 1.63574" stroke="black" stroke-width="0.508" stroke-miterlimit="10" stroke-linecap="round" stroke-linejoin="round"/>
<path d="M16.4767 8.7814C16.4461 8.99206 16.4221 9.21473 16.3994 9.4494C16.1514 11.9014 16.2567 12.8134 15.9421 14.1814" stroke="black" stroke-width="0.508" stroke-miterlimit="10" stroke-linecap="round" stroke-linejoin="round"/>
<path d="M27.2605 2.79156C27.2605 2.79156 26.4672 2.77156 25.3498 2.83956C23.5472 2.95023 20.9045 3.2929 19.4112 4.3329C17.2285 5.85423 16.7312 6.79956 16.4765 8.77823" stroke="black" stroke-width="0.508" stroke-miterlimit="10" stroke-linecap="round" stroke-linejoin="round"/>
<path d="M44.8541 2.82547C44.8541 2.82547 45.1247 2.46947 45.5794 2.07347C45.8461 1.8428 46.1714 1.5988 46.5407 1.40947C46.9007 1.2228 47.3007 1.08013 47.7274 1.04013C49.2007 0.897468 59.9501 0.969468 65.4967 9.52013C65.8767 10.1028 66.1167 10.9801 66.0927 11.9521C66.0687 13.1415 65.6461 14.4801 64.5861 15.6188C64.4767 15.7375 64.3647 15.8588 64.2501 15.9841C62.8714 17.4988 61.1901 19.6028 59.6261 22.2615C59.0501 23.2415 58.4874 24.2988 57.9621 25.4295C55.8954 29.8815 53.1607 28.4455 52.3554 27.6055C51.5487 26.7615 49.1327 22.5028 48.9194 21.3641C48.8554 21.0295 48.8554 20.3415 48.8887 19.4295C49.0487 15.3201 49.9794 6.67747 49.5501 5.24413C49.1234 3.8188 47.6221 3.2828 46.2567 3.2828" stroke="black" stroke-width="0.508" stroke-miterlimit="10" stroke-linecap="round" stroke-linejoin="round"/>
<path d="M27.4706 21.5065C27.4706 22.9772 26.2813 24.1692 24.8079 24.1692C23.3373 24.1692 22.1453 22.9772 22.1453 21.5065C22.1453 20.0332 23.3373 18.8399 24.8079 18.8399C26.2813 18.8399 27.4706 20.0332 27.4706 21.5065Z" stroke="black" stroke-width="0.508" stroke-miterlimit="10" stroke-linecap="round" stroke-linejoin="round"/>
<path d="M18.0352 23.2106C16.9778 22.8959 16.3778 21.7813 16.6965 20.7239C17.0152 19.6666 18.1272 19.0666 19.1832 19.3853" stroke="black" stroke-width="0.508" stroke-miterlimit="10" stroke-linecap="round" stroke-linejoin="round"/>
<path d="M19.0787 22.0012C19.0747 22.0052 19.068 22.0078 19.0653 22.0078C18.7907 22.1812 18.432 22.1065 18.252 21.8385C18.0693 21.5638 18.14 21.1945 18.4147 21.0118C18.6853 20.8292 19.0587 20.8998 19.2413 21.1745" stroke="black" stroke-width="0.508" stroke-miterlimit="10" stroke-linecap="round" stroke-linejoin="round"/>
<path d="M25.509 21.7844C25.509 22.1164 25.245 22.3804 24.913 22.3804C24.5837 22.3804 24.3197 22.1164 24.3197 21.7844C24.3197 21.4564 24.5837 21.191 24.913 21.191C25.245 21.191 25.509 21.4564 25.509 21.7844Z" stroke="black" stroke-width="0.508" stroke-miterlimit="10" stroke-linecap="round" stroke-linejoin="round"/>
<path d="M81.7929 118.72C81.7969 118.703 81.7969 118.689 81.7996 118.672C82.3929 113.865 82.5382 108.973 82.5009 104.829C82.4502 98.5895 81.9796 94.0495 81.9796 94.0495" stroke="black" stroke-width="0.508" stroke-linecap="round" stroke-linejoin="round"/>
<path d="M107.958 106.757C107.958 106.757 107.962 106.771 107.964 106.795C108.079 107.276 109.312 112.327 112.379 118.533C114.927 123.687 118.735 129.636 124.22 134.42C124.22 134.42 131.32 145.075 127.116 166.1C127.116 166.1 122.33 167.605 122.228 171.884C122.207 172.713 122.82 173.425 123.638 173.577C125.175 173.863 127.78 174.448 129.64 173.764C131.792 172.975 133.774 171.359 134.708 170.653C134.983 170.444 135.136 170.112 135.108 169.767C134.902 166.957 134.519 153.755 139.343 143.449C139.584 142.931 139.604 142.337 139.408 141.799C137.984 137.947 132.659 121.813 139.099 111.172C139.123 111.135 139.147 111.093 139.171 111.056" stroke="black" stroke-width="0.508" stroke-miterlimit="10" stroke-linecap="round" stroke-linejoin="round"/>
<path d="M132.951 45.9775C132.951 45.9775 133.036 45.9882 133.197 46.0108C133.879 46.0988 135.912 46.3842 138.541 46.8482C139.632 47.0415 140.821 47.2655 142.064 47.5188C147.275 48.5828 153.356 50.1882 156.368 52.2762C157.819 53.2815 158.465 54.6135 158.624 55.9722C158.661 56.2695 158.675 56.5682 158.665 56.8628C158.608 59.2788 157.239 61.5588 156.368 62.0162C155.04 62.7135 151.463 62.7882 151.463 62.7882" stroke="black" stroke-width="0.508" stroke-miterlimit="10" stroke-linecap="round" stroke-linejoin="round"/>
<path d="M80.1937 133.393V133.38" stroke="black" stroke-width="0.508" stroke-miterlimit="10" stroke-linecap="round" stroke-linejoin="round"/>
<path d="M36.9344 30.4535C35.1117 27.9775 36.5144 22.2295 41.233 22.6495" stroke="black" stroke-width="0.508" stroke-miterlimit="10" stroke-linecap="round" stroke-linejoin="round"/>
<path d="M186.367 166.942C186.367 166.942 183.913 166.312 182.581 167.362" stroke="black" stroke-width="0.508" stroke-miterlimit="10" stroke-linecap="round" stroke-linejoin="round"/>
<path d="M127.117 166.101C127.117 166.101 129.173 165.89 130.574 166.241" stroke="black" stroke-width="0.508" stroke-miterlimit="10" stroke-linecap="round" stroke-linejoin="round"/>
<path d="M41.7005 182.222C41.7005 182.222 44.4338 181.591 46.0458 182.923" stroke="black" stroke-width="0.508" stroke-miterlimit="10" stroke-linecap="round" stroke-linejoin="round"/>
<path d="M68.3348 185.446C68.3348 185.446 70.0174 185.235 71.6988 185.866" stroke="black" stroke-width="0.508" stroke-miterlimit="10" stroke-linecap="round" stroke-linejoin="round"/>
<path d="M39.1911 187.426C39.1911 187.426 37.7938 188.358 37.8365 191.279" stroke="black" stroke-width="0.508" stroke-miterlimit="10" stroke-linecap="round"/>
<path d="M42.2402 188.103C42.2402 188.103 40.8429 189.035 40.8855 191.957" stroke="black" stroke-width="0.508" stroke-miterlimit="10" stroke-linecap="round"/>
<path d="M65.6577 190.799C65.6577 190.799 64.243 191.705 64.2337 194.628" stroke="black" stroke-width="0.508" stroke-miterlimit="10" stroke-linecap="round"/>
<path d="M69.033 191.531C69.033 191.531 67.6197 192.437 67.609 195.36" stroke="black" stroke-width="0.508" stroke-miterlimit="10" stroke-linecap="round"/>
<path d="M124.577 170.57C124.577 170.57 123.519 171.276 123.551 173.488" stroke="black" stroke-width="0.508" stroke-miterlimit="10" stroke-linecap="round"/>
<path d="M127.501 171.083C127.501 171.083 126.444 171.789 126.476 174.001" stroke="black" stroke-width="0.508" stroke-miterlimit="10" stroke-linecap="round"/>
<path d="M182.381 171.783C182.381 171.783 181.08 172.69 181.177 175.446" stroke="black" stroke-width="0.508" stroke-miterlimit="10" stroke-linecap="round"/>
<path d="M186.231 172.344C186.231 172.344 184.93 173.25 185.027 176.006" stroke="black" stroke-width="0.508" stroke-miterlimit="10" stroke-linecap="round"/>
</svg>
