<svg width="290" height="198" viewBox="0 0 290 198" fill="none" xmlns="http://www.w3.org/2000/svg">
<path fill-rule="evenodd" clip-rule="evenodd" d="M195.916 141.979L186.733 144.189L157.352 19.133L166.536 16.922L195.916 141.979Z" fill="#221F20"/>
<path fill-rule="evenodd" clip-rule="evenodd" d="M194.944 137.951L185.761 140.148C183.437 140.711 181.987 143.078 182.549 145.416L184.718 154.457L203.662 155.584L200.211 141.162C199.649 138.838 197.282 137.387 194.944 137.951Z" fill="#58595B"/>
<path fill-rule="evenodd" clip-rule="evenodd" d="M159.704 29.148L168.887 26.937C171.226 26.386 172.676 24.007 172.113 21.683L169.93 12.64L151.789 14.867L154.451 25.937C155.014 28.26 157.38 29.711 159.704 29.148Z" fill="#58595B"/>
<path d="M39.6059 125.979H89.409V145.881H39.6059V125.979Z" fill="#404042"/>
<path d="M34.831 144.205H191.592V151.5H34.831V144.205Z" fill="#808184"/>
<path d="M31.113 149.5H196.367V156.811H31.113V149.5Z" fill="#221F20"/>
<path fill-rule="evenodd" clip-rule="evenodd" d="M199.437 163.641H64.31C60.62 163.641 57.6059 166.655 57.6059 170.346C57.6059 174.035 60.62 177.049 64.31 177.049H199.437C203.127 177.049 206.141 174.035 206.141 170.346C206.141 166.654 203.127 163.641 199.437 163.641Z" fill="#221F20"/>
<path d="M17.691 153.148H224.071V173.048H17.691V153.148Z" fill="#404042"/>
<path d="M209.62 148.768H286.38V178.514H209.62V148.768Z" fill="#221F20"/>
<path fill-rule="evenodd" clip-rule="evenodd" d="M289.465 161.246H271.014V186.021H282.423C286.296 186.021 289.465 182.851 289.465 178.978V161.246Z" fill="#58595B"/>
<path fill-rule="evenodd" clip-rule="evenodd" d="M289.465 158.543C280.028 158.543 270.577 158.543 261.141 158.543C261.141 154.67 257.972 151.5 254.099 151.5C237.31 151.5 220.536 151.5 203.746 151.5C203.746 131.289 203.746 111.078 203.746 90.865C203.746 86.992 206.916 83.824 210.789 83.824C228.38 83.824 245.972 83.824 263.563 83.824C270.662 83.824 289.464 138.232 289.464 138.232C289.465 145.008 289.465 151.781 289.465 158.543Z" fill="#F58220"/>
<path fill-rule="evenodd" clip-rule="evenodd" d="M226.042 151.5C226.042 131.289 226.042 111.078 226.042 90.865C226.042 86.992 229.211 83.824 233.084 83.824H210.789C206.916 83.824 203.746 86.992 203.746 90.865C203.746 111.078 203.746 131.289 203.746 151.5H226.042Z" fill="#E27226"/>
<path fill-rule="evenodd" clip-rule="evenodd" d="M215.873 125.246V90.865C215.873 89.332 217.141 88.049 218.69 88.049C236.013 88.049 230.986 88.049 248.309 88.049C249.802 89.457 252.324 94.119 253.083 95.57C255.788 100.767 258.154 106.246 260.394 111.654C262.253 116.148 264.056 120.683 265.788 125.246H215.873Z" fill="#E6F6FD"/>
<path fill-rule="evenodd" clip-rule="evenodd" d="M268.071 88.049H258.31C259.803 89.457 262.325 94.119 263.084 95.57C265.788 100.767 268.155 106.246 270.395 111.654C272.254 116.148 274.057 120.683 275.789 125.246H284.747C280.211 113.189 273.296 95.938 268.071 88.049Z" fill="#E6F6FD"/>
<path fill-rule="evenodd" clip-rule="evenodd" d="M278.325 135.5C276.212 135.5 274.479 137.232 274.479 139.346V149.557C274.479 151.881 276.381 153.782 278.705 153.782H280.521C282.845 153.782 284.747 151.882 284.747 149.557V141.922C284.746 138.387 281.86 135.5 278.325 135.5Z" fill="white"/>
<path fill-rule="evenodd" clip-rule="evenodd" d="M277.873 153.711C279.816 153.316 281.281 151.6 281.281 149.557V141.922C281.281 139.063 279.394 136.641 276.816 135.811C275.451 136.403 274.478 137.768 274.478 139.346V149.557C274.479 151.6 275.944 153.316 277.873 153.711Z" fill="#E6F6FD"/>
<path fill-rule="evenodd" clip-rule="evenodd" d="M215.873 147.527H258.746C263.014 147.527 266.493 144.048 266.493 139.781V130.978C266.493 130.583 266.182 130.275 265.788 130.275C265.408 130.275 265.084 130.584 265.084 130.978V139.781C265.084 143.275 262.239 146.119 258.746 146.119H215.873C215.478 146.119 215.169 146.443 215.169 146.824C215.169 147.219 215.479 147.527 215.873 147.527Z" fill="#B75E27"/>
<path fill-rule="evenodd" clip-rule="evenodd" d="M229.944 128.867H222.141C221.367 128.867 220.733 129.5 220.733 130.275V132.035C220.733 132.81 221.367 133.443 222.141 133.443H229.944C230.719 133.443 231.353 132.81 231.353 132.035V130.275C231.353 129.5 230.719 128.867 229.944 128.867Z" fill="#B75E27"/>
<path fill-rule="evenodd" clip-rule="evenodd" d="M280.521 143.654H274.479V149.556C274.479 151.88 276.381 153.781 278.705 153.781H280.521C282.845 153.781 284.747 151.881 284.747 149.556V147.88C284.746 145.557 282.845 143.654 280.521 143.654Z" fill="#EF4323"/>
<path fill-rule="evenodd" clip-rule="evenodd" d="M280.24 161.246H271.014V186.021H273.198C277.071 186.021 280.24 182.851 280.24 178.978V161.246Z" fill="#404042"/>
<path fill-rule="evenodd" clip-rule="evenodd" d="M226.042 125.246V90.865C226.042 89.867 226.254 88.922 226.634 88.049H218.691C217.141 88.049 215.874 89.332 215.874 90.865V125.246H226.042Z" fill="#CCEAF5"/>
<path fill-rule="evenodd" clip-rule="evenodd" d="M277.873 153.711C279.816 153.316 281.281 151.6 281.281 149.557V143.725C281.028 143.67 280.774 143.655 280.52 143.655H274.478V149.557C274.479 151.6 275.944 153.316 277.873 153.711Z" fill="#D83327"/>
<path fill-rule="evenodd" clip-rule="evenodd" d="M236.211 197.965C224.014 197.965 214.127 188.078 214.127 175.881C214.127 163.67 224.014 153.781 236.211 153.781C248.408 153.781 258.31 163.67 258.31 175.881C258.31 188.078 248.409 197.965 236.211 197.965Z" fill="#58595B"/>
<path fill-rule="evenodd" clip-rule="evenodd" d="M225.902 156.346C225.297 158.36 224.959 160.514 224.959 162.725C224.959 174.922 234.847 184.811 247.043 184.811C250.775 184.811 254.282 183.895 257.367 182.26C254.62 191.346 246.198 197.965 236.212 197.965C224.015 197.965 214.128 188.078 214.128 175.881C214.127 167.402 218.902 160.049 225.902 156.346Z" fill="#404042"/>
<path fill-rule="evenodd" clip-rule="evenodd" d="M236.211 189.148C228.887 189.148 222.943 183.205 222.943 175.88C222.943 168.542 228.886 162.599 236.211 162.599C243.549 162.599 249.493 168.542 249.493 175.88C249.494 183.205 243.549 189.148 236.211 189.148Z" fill="#D1D2D4"/>
<path fill-rule="evenodd" clip-rule="evenodd" d="M236.211 180.486C233.676 180.486 231.606 178.416 231.606 175.881C231.606 173.33 233.676 171.26 236.211 171.26C238.761 171.26 240.831 173.33 240.831 175.881C240.831 178.416 238.761 180.486 236.211 180.486Z" fill="#404042"/>
<path fill-rule="evenodd" clip-rule="evenodd" d="M225.578 167.922C227.846 177.303 236.086 184.346 246.057 184.795C243.619 187.473 240.114 189.149 236.211 189.149C228.887 189.149 222.943 183.206 222.943 175.881C222.944 172.895 223.916 170.148 225.578 167.922Z" fill="#BBBDBF"/>
<path fill-rule="evenodd" clip-rule="evenodd" d="M236.211 150.965C222.465 150.965 211.31 162.119 211.31 175.881C211.31 177.951 211.564 179.965 212.042 181.895H214.958C214.423 179.979 214.127 177.965 214.127 175.881C214.127 163.67 224.014 153.781 236.211 153.781C248.408 153.781 258.31 163.67 258.31 175.881C258.31 177.965 258.015 179.979 257.48 181.895H260.38C260.859 179.965 261.127 177.952 261.127 175.881C261.127 162.119 249.972 150.965 236.211 150.965Z" fill="#808184"/>
<path fill-rule="evenodd" clip-rule="evenodd" d="M184.549 154.838H154.634C150.761 154.838 147.592 158.008 147.592 161.881V177.543C147.592 181.416 150.761 184.584 154.634 184.584H184.549C188.422 184.584 191.592 181.416 191.592 177.543V161.881C191.592 158.008 188.422 154.838 184.549 154.838Z" fill="#D1D2D4"/>
<path fill-rule="evenodd" clip-rule="evenodd" d="M191.084 159.768H148.099C144.226 159.768 141.057 162.936 141.057 166.811V172.614C141.057 176.487 144.226 179.655 148.099 179.655H191.084C194.958 179.655 198.127 176.487 198.127 172.614V166.811C198.127 162.936 194.958 159.768 191.084 159.768Z" fill="#E5E6E7"/>
<path fill-rule="evenodd" clip-rule="evenodd" d="M104.662 197.965C92.4649 197.965 82.577 188.078 82.577 175.881C82.577 163.67 92.4649 153.781 104.662 153.781C116.859 153.781 126.746 163.67 126.746 175.881C126.746 188.078 116.86 197.965 104.662 197.965Z" fill="#58595B"/>
<path fill-rule="evenodd" clip-rule="evenodd" d="M94.353 156.346C93.747 158.36 93.409 160.514 93.409 162.725C93.409 174.922 103.297 184.811 115.494 184.811C119.226 184.811 122.733 183.895 125.817 182.26C123.071 191.346 114.648 197.965 104.663 197.965C92.4659 197.965 82.5779 188.078 82.5779 175.881C82.5779 167.402 87.352 160.049 94.353 156.346Z" fill="#404042"/>
<path fill-rule="evenodd" clip-rule="evenodd" d="M104.662 189.148C97.3379 189.148 91.394 183.205 91.394 175.88C91.394 168.542 97.3369 162.599 104.662 162.599C112 162.599 117.943 168.542 117.943 175.88C117.944 183.205 112 189.148 104.662 189.148Z" fill="#D1D2D4"/>
<path fill-rule="evenodd" clip-rule="evenodd" d="M104.662 180.486C102.112 180.486 100.057 178.416 100.057 175.881C100.057 173.33 102.113 171.26 104.662 171.26C107.211 171.26 109.281 173.33 109.281 175.881C109.282 178.416 107.211 180.486 104.662 180.486Z" fill="#404042"/>
<path fill-rule="evenodd" clip-rule="evenodd" d="M94.029 167.922C96.297 177.303 104.536 184.346 114.508 184.795C112.071 187.473 108.565 189.149 104.663 189.149C97.3389 189.149 91.395 183.206 91.395 175.881C91.395 172.895 92.367 170.148 94.029 167.922Z" fill="#BBBDBF"/>
<path fill-rule="evenodd" clip-rule="evenodd" d="M104.662 150.965C90.9159 150.965 79.7609 162.119 79.7609 175.881C79.7609 177.951 80.014 179.965 80.493 181.895H83.4079C82.8729 179.979 82.577 177.965 82.577 175.881C82.577 163.67 92.4649 153.781 104.662 153.781C116.859 153.781 126.746 163.67 126.746 175.881C126.746 177.965 126.465 179.979 125.915 181.895H128.831C129.31 179.965 129.563 177.952 129.563 175.881C129.564 162.119 118.422 150.965 104.662 150.965Z" fill="#808184"/>
<path fill-rule="evenodd" clip-rule="evenodd" d="M17.691 148.162C15.156 148.162 13.0849 150.232 13.0849 152.767V173.415C13.0849 175.964 15.156 178.034 17.691 178.034C20.226 178.034 22.311 175.964 22.311 173.415V152.767C22.311 150.232 20.226 148.162 17.691 148.162Z" fill="#221F20"/>
<path fill-rule="evenodd" clip-rule="evenodd" d="M191.592 169.711H147.592V177.543C147.592 181.416 150.761 184.584 154.634 184.584H184.549C188.422 184.584 191.592 181.416 191.592 177.543V169.711Z" fill="#A7AAAC"/>
<path fill-rule="evenodd" clip-rule="evenodd" d="M198.127 169.711H141.057V172.613C141.057 176.486 144.226 179.654 148.099 179.654H191.084C194.958 179.654 198.127 176.486 198.127 172.613V169.711Z" fill="#BBBDBF"/>
<path d="M181.338 152.795H184.775V186.627H181.338V152.795Z" fill="#EF4323"/>
<path d="M154.408 152.795H157.845V186.627H154.408V152.795Z" fill="#EF4323"/>
<path d="M181.338 169.711H184.775V186.627H181.338V169.711Z" fill="#D83327"/>
<path d="M154.408 169.711H157.845V186.627H154.408V169.711Z" fill="#D83327"/>
<path fill-rule="evenodd" clip-rule="evenodd" d="M53.6059 197.965C41.4089 197.965 31.5219 188.078 31.5219 175.881C31.5219 163.67 41.4089 153.781 53.6059 153.781C65.8169 153.781 75.7049 163.67 75.7049 175.881C75.7039 188.078 65.8169 197.965 53.6059 197.965Z" fill="#58595B"/>
<path fill-rule="evenodd" clip-rule="evenodd" d="M43.296 156.346C42.691 158.36 42.353 160.514 42.353 162.725C42.353 174.922 52.253 184.811 64.452 184.811C68.17 184.811 71.6769 183.895 74.7619 182.26C72.0149 191.346 63.5929 197.965 53.6209 197.965C41.4089 197.965 31.5219 188.078 31.5219 175.881C31.5219 167.402 36.296 160.049 43.296 156.346Z" fill="#404042"/>
<path fill-rule="evenodd" clip-rule="evenodd" d="M53.6059 189.148C46.2819 189.148 40.338 183.205 40.338 175.88C40.338 168.542 46.2809 162.599 53.6059 162.599C60.9439 162.599 66.8869 168.542 66.8869 175.88C66.8869 183.205 60.9439 189.148 53.6059 189.148Z" fill="#D1D2D4"/>
<path fill-rule="evenodd" clip-rule="evenodd" d="M53.6059 180.486C51.0709 180.486 49.0009 178.416 49.0009 175.881C49.0009 173.33 51.0709 171.26 53.6059 171.26C56.1559 171.26 58.2259 173.33 58.2259 175.881C58.2259 178.416 56.1559 180.486 53.6059 180.486Z" fill="#404042"/>
<path fill-rule="evenodd" clip-rule="evenodd" d="M42.972 167.922C45.24 177.303 53.479 184.346 63.451 184.795C61.013 187.473 57.5079 189.149 53.6199 189.149C46.2809 189.149 40.338 183.206 40.338 175.881C40.338 172.895 41.325 170.148 42.972 167.922Z" fill="#BBBDBF"/>
<path fill-rule="evenodd" clip-rule="evenodd" d="M53.6059 150.965C39.8599 150.965 28.7049 162.119 28.7049 175.881C28.7049 177.951 28.959 179.965 29.437 181.895H32.353C31.818 179.979 31.5219 177.965 31.5219 175.881C31.5219 163.67 41.4089 153.781 53.6059 153.781C65.8169 153.781 75.7049 163.67 75.7049 175.881C75.7049 177.965 75.409 179.979 74.874 181.895H77.79C78.255 179.965 78.5219 177.952 78.5219 175.881C78.5219 162.119 67.3669 150.965 53.6059 150.965Z" fill="#808184"/>
<path fill-rule="evenodd" clip-rule="evenodd" d="M158.479 5.64099C160.071 5.30299 185.183 0.0780029 185.183 0.0780029L186.578 6.83899L158.846 22.514L163.607 111.53L17.2969 141.995L0.592957 61.725L9.81891 59.514L25.185 66.403L138.115 28.725L144.269 10.684L158.479 5.64099Z" fill="#0980B3"/>
<path fill-rule="evenodd" clip-rule="evenodd" d="M115.606 121.529L17.296 141.994L0.59198 61.725L9.83099 59.514L25.1839 66.402L55.9019 56.148L115.606 121.529Z" fill="#036D9B"/>
<path fill-rule="evenodd" clip-rule="evenodd" d="M160.395 12.43C161.423 12.219 162.465 12.008 163.507 11.782L155.38 16.387C153 17.725 151.662 20.149 151.817 22.895L156.254 105.868L22.7459 133.655L8.87299 66.979L9.12689 66.922L22.311 72.824C23.987 73.57 25.676 73.654 27.409 73.078L140.339 35.402C142.494 34.683 144.043 33.148 144.776 30.994L149.833 16.189L160.395 12.43Z" fill="#2DABE2"/>
<path fill-rule="evenodd" clip-rule="evenodd" d="M110.084 115.486L61.0989 61.838L27.409 73.078C25.677 73.654 23.987 73.57 22.311 72.824L9.12689 66.922L8.87299 66.979L22.7459 133.655L110.084 115.486Z" fill="#0B99D4"/>
<path fill-rule="evenodd" clip-rule="evenodd" d="M125.662 40.303L121.549 113.092L128.676 111.613L132.86 37.895L125.662 40.303Z" fill="#0980B3"/>
<path fill-rule="evenodd" clip-rule="evenodd" d="M95.014 50.527L91.113 119.43L98.2399 117.951L102.198 48.119L95.014 50.527Z" fill="#0980B3"/>
<path fill-rule="evenodd" clip-rule="evenodd" d="M64.352 60.754L60.6619 125.768L67.8029 124.275L71.5359 58.359L64.352 60.754Z" fill="#0980B3"/>
<path fill-rule="evenodd" clip-rule="evenodd" d="M33.691 70.979L30.2259 132.105L37.367 130.613L40.873 68.584L33.691 70.979Z" fill="#0980B3"/>
<path fill-rule="evenodd" clip-rule="evenodd" d="M99.071 103.416L92.4229 96.148L91.113 119.43L98.2399 117.951L99.071 103.416Z" fill="#036D9B"/>
<path fill-rule="evenodd" clip-rule="evenodd" d="M70.7469 72.4L64.0989 65.119L60.6619 125.768L67.8029 124.275L70.7469 72.4Z" fill="#036D9B"/>
<path fill-rule="evenodd" clip-rule="evenodd" d="M33.691 70.979L30.2259 132.105L37.367 130.613L40.873 68.584L33.691 70.979Z" fill="#036D9B"/>
</svg>
