<svg width="258" height="136" viewBox="0 0 258 136" fill="none" xmlns="http://www.w3.org/2000/svg">
<path d="M33.452 81.5H156.606V88.81H33.452V81.5Z" fill="#808184"/>
<path d="M30.436 86.796H164.535V94.106H30.436V86.796Z" fill="#221F20"/>
<path fill-rule="evenodd" clip-rule="evenodd" d="M167.606 100.937H32.479C28.79 100.937 25.776 103.951 25.776 107.642C25.776 111.332 28.79 114.346 32.479 114.346H167.606C171.296 114.346 174.31 111.332 174.31 107.642C174.31 103.951 171.296 100.937 167.606 100.937Z" fill="#221F20"/>
<path d="M20.972 90.444H192.254V110.345H20.972V90.444Z" fill="#404042"/>
<path d="M177.789 86.063H254.549V115.809H177.789V86.063Z" fill="#221F20"/>
<path fill-rule="evenodd" clip-rule="evenodd" d="M257.634 98.542H239.183V123.331H250.592C254.465 123.331 257.634 120.162 257.634 116.289V98.542Z" fill="#58595B"/>
<path fill-rule="evenodd" clip-rule="evenodd" d="M257.634 95.852C248.197 95.852 238.746 95.852 229.31 95.852C229.31 91.979 226.142 88.81 222.268 88.81C205.494 88.81 188.705 88.81 171.93 88.81C171.93 68.599 171.93 48.387 171.93 28.176C171.93 24.302 175.099 21.134 178.972 21.134C196.549 21.134 214.141 21.134 231.733 21.134C238.832 21.134 257.634 75.529 257.634 75.529C257.634 82.303 257.634 89.078 257.634 95.852Z" fill="#F58220"/>
<path fill-rule="evenodd" clip-rule="evenodd" d="M194.211 88.81C194.211 68.599 194.211 48.387 194.211 28.176C194.211 24.302 197.381 21.134 201.254 21.134H178.972C175.099 21.134 171.93 24.303 171.93 28.176C171.93 48.387 171.93 68.598 171.93 88.81H194.211Z" fill="#E27226"/>
<path fill-rule="evenodd" clip-rule="evenodd" d="M184.042 62.556V28.176C184.042 26.627 185.311 25.359 186.859 25.359C204.183 25.359 199.155 25.359 216.478 25.359C217.971 26.753 220.493 31.429 221.253 32.88C223.957 38.063 226.337 43.542 228.576 48.964C230.422 53.443 232.224 57.978 233.957 62.555H184.042V62.556Z" fill="#E6F6FD"/>
<path fill-rule="evenodd" clip-rule="evenodd" d="M236.254 25.359H226.479C227.972 26.753 230.494 31.429 231.254 32.88C233.958 38.063 236.324 43.542 238.564 48.964C240.423 53.443 242.226 57.978 243.959 62.555H252.916C248.381 50.486 241.465 33.232 236.254 25.359Z" fill="#E6F6FD"/>
<path fill-rule="evenodd" clip-rule="evenodd" d="M246.507 72.796C244.38 72.796 242.649 74.528 242.649 76.641V86.866C242.649 89.19 244.55 91.092 246.874 91.092H248.691C251.015 91.092 252.916 89.191 252.916 86.866V79.218C252.915 75.683 250.028 72.796 246.507 72.796Z" fill="white"/>
<path fill-rule="evenodd" clip-rule="evenodd" d="M246.057 91.007C247.987 90.613 249.452 88.895 249.452 86.866V79.218C249.452 76.373 247.578 73.937 245.001 73.105C243.621 73.697 242.649 75.063 242.649 76.641V86.866C242.649 88.895 244.113 90.613 246.057 91.007Z" fill="#E6F6FD"/>
<path fill-rule="evenodd" clip-rule="evenodd" d="M184.042 84.838H226.916C231.184 84.838 234.662 81.345 234.662 77.091V68.274C234.662 67.894 234.352 67.569 233.958 67.569C233.578 67.569 233.254 67.893 233.254 68.274V77.091C233.254 80.57 230.409 83.429 226.916 83.429H184.042C183.648 83.429 183.338 83.739 183.338 84.133C183.338 84.514 183.649 84.838 184.042 84.838Z" fill="#B75E27"/>
<path fill-rule="evenodd" clip-rule="evenodd" d="M198.112 66.162H190.309C189.535 66.162 188.901 66.796 188.901 67.57V69.331C188.901 70.106 189.535 70.739 190.309 70.739H198.112C198.887 70.739 199.521 70.106 199.521 69.331V67.57C199.522 66.796 198.888 66.162 198.112 66.162Z" fill="#B75E27"/>
<path fill-rule="evenodd" clip-rule="evenodd" d="M248.691 80.951H242.649V86.8671C242.649 89.191 244.55 91.093 246.874 91.093H248.691C251.015 91.093 252.916 89.192 252.916 86.8671V85.177C252.915 82.852 251.015 80.951 248.691 80.951Z" fill="#EF4323"/>
<path fill-rule="evenodd" clip-rule="evenodd" d="M248.408 98.542H239.182V123.331H241.366C245.239 123.331 248.408 120.162 248.408 116.289V98.542Z" fill="#404042"/>
<path fill-rule="evenodd" clip-rule="evenodd" d="M194.211 62.556V28.176C194.211 27.176 194.423 26.218 194.803 25.359H186.86C185.311 25.359 184.043 26.627 184.043 28.176V62.556H194.211Z" fill="#CCEAF5"/>
<path fill-rule="evenodd" clip-rule="evenodd" d="M246.057 91.007C247.987 90.613 249.452 88.895 249.452 86.866V81.021C249.212 80.979 248.959 80.951 248.691 80.951H242.649V86.8671C242.649 88.8951 244.113 90.613 246.057 91.007Z" fill="#D83327"/>
<path fill-rule="evenodd" clip-rule="evenodd" d="M204.395 135.26C192.198 135.26 182.296 125.373 182.296 113.176C182.296 100.979 192.197 91.092 204.395 91.092C216.593 91.092 226.479 100.979 226.479 113.176C226.479 125.374 216.592 135.26 204.395 135.26Z" fill="#58595B"/>
<path fill-rule="evenodd" clip-rule="evenodd" d="M194.07 93.641C193.465 95.655 193.14 97.81 193.14 100.036C193.14 112.233 203.028 122.12 215.225 122.12C218.943 122.12 222.45 121.191 225.535 119.557C222.789 128.641 214.366 135.261 204.394 135.261C192.197 135.261 182.295 125.374 182.295 113.177C182.296 104.697 187.07 97.345 194.07 93.641Z" fill="#404042"/>
<path fill-rule="evenodd" clip-rule="evenodd" d="M204.395 126.444C197.057 126.444 191.114 120.5 191.114 113.176C191.114 105.839 197.057 99.895 204.395 99.895C211.719 99.895 217.663 105.839 217.663 113.176C217.662 120.5 211.719 126.444 204.395 126.444Z" fill="#D1D2D4"/>
<path fill-rule="evenodd" clip-rule="evenodd" d="M204.395 117.782C201.845 117.782 199.775 115.726 199.775 113.176C199.775 110.627 201.845 108.557 204.395 108.557C206.93 108.557 209 110.627 209 113.176C209 115.726 206.93 117.782 204.395 117.782Z" fill="#404042"/>
<path fill-rule="evenodd" clip-rule="evenodd" d="M193.746 105.232C196.014 114.598 204.254 121.655 214.225 122.091C211.788 124.767 208.282 126.444 204.394 126.444C197.056 126.444 191.113 120.5 191.113 113.176C191.113 110.19 192.099 107.444 193.746 105.232Z" fill="#BBBDBF"/>
<path fill-rule="evenodd" clip-rule="evenodd" d="M204.395 88.275C190.634 88.275 179.48 99.416 179.48 113.176C179.48 115.247 179.747 117.261 180.226 119.191H183.127C182.592 117.275 182.296 115.261 182.296 113.176C182.296 100.979 192.197 91.092 204.395 91.092C216.593 91.092 226.479 100.979 226.479 113.176C226.479 115.261 226.183 117.275 225.649 119.191H228.564C229.043 117.261 229.296 115.247 229.296 113.176C229.296 99.416 218.141 88.275 204.395 88.275Z" fill="#808184"/>
<path fill-rule="evenodd" clip-rule="evenodd" d="M152.733 92.134H122.803C118.93 92.134 115.761 95.303 115.761 99.176V114.838C115.761 118.712 118.93 121.88 122.803 121.88H152.733C156.606 121.88 159.775 118.711 159.775 114.838V99.176C159.775 95.303 156.606 92.134 152.733 92.134Z" fill="#D1D2D4"/>
<path fill-rule="evenodd" clip-rule="evenodd" d="M159.268 97.063H116.268C112.395 97.063 109.226 100.232 109.226 104.105V109.908C109.226 113.781 112.395 116.95 116.268 116.95H159.268C163.141 116.95 166.311 113.781 166.311 109.908V104.105C166.311 100.232 163.141 97.063 159.268 97.063Z" fill="#E5E6E7"/>
<path fill-rule="evenodd" clip-rule="evenodd" d="M73.8881 135.26C61.6911 135.26 51.803 125.373 51.803 113.176C51.803 100.979 61.6911 91.092 73.8881 91.092C86.0841 91.092 95.972 100.979 95.972 113.176C95.972 125.374 86.0841 135.26 73.8881 135.26Z" fill="#58595B"/>
<path fill-rule="evenodd" clip-rule="evenodd" d="M63.577 93.641C62.958 95.655 62.634 97.81 62.634 100.036C62.634 112.233 72.522 122.12 84.719 122.12C88.451 122.12 91.9581 121.191 95.0291 119.557C92.2971 128.641 83.8601 135.261 73.8881 135.261C61.6911 135.261 51.803 125.374 51.803 113.177C51.803 104.697 56.564 97.345 63.577 93.641Z" fill="#404042"/>
<path fill-rule="evenodd" clip-rule="evenodd" d="M73.8881 126.444C66.5491 126.444 60.6061 120.5 60.6061 113.176C60.6061 105.839 66.5491 99.895 73.8881 99.895C81.2261 99.895 87.1691 105.839 87.1691 113.176C87.1691 120.5 81.2261 126.444 73.8881 126.444Z" fill="#D1D2D4"/>
<path fill-rule="evenodd" clip-rule="evenodd" d="M73.8881 117.782C71.3381 117.782 69.2681 115.726 69.2681 113.176C69.2681 110.627 71.3381 108.557 73.8881 108.557C76.4371 108.557 78.493 110.627 78.493 113.176C78.493 115.726 76.4371 117.782 73.8881 117.782Z" fill="#404042"/>
<path fill-rule="evenodd" clip-rule="evenodd" d="M63.254 105.232C65.507 114.598 73.761 121.655 83.719 122.091C81.296 124.767 77.7891 126.444 73.8881 126.444C66.5491 126.444 60.6061 120.5 60.6061 113.176C60.6061 110.19 61.592 107.444 63.254 105.232Z" fill="#BBBDBF"/>
<path fill-rule="evenodd" clip-rule="evenodd" d="M73.8881 88.275C60.1271 88.275 48.9871 99.416 48.9871 113.176C48.9871 115.247 49.24 117.261 49.719 119.191H52.634C52.085 117.275 51.803 115.261 51.803 113.176C51.803 100.979 61.6911 91.092 73.8881 91.092C86.0841 91.092 95.972 100.979 95.972 113.176C95.972 115.261 95.676 117.275 95.142 119.191H98.057C98.536 117.261 98.7891 115.247 98.7891 113.176C98.7891 99.416 87.6341 88.275 73.8881 88.275Z" fill="#808184"/>
<path fill-rule="evenodd" clip-rule="evenodd" d="M17.634 85.458C15.099 85.458 13.014 87.528 13.014 90.063V110.725C13.014 113.26 15.099 115.33 17.634 115.33C20.169 115.33 22.239 113.26 22.239 110.725V90.063C22.239 87.528 20.169 85.458 17.634 85.458Z" fill="#221F20"/>
<path fill-rule="evenodd" clip-rule="evenodd" d="M160.859 83.838H7.66199C3.78899 83.838 0.619995 80.669 0.619995 76.796V29.035C0.619995 25.162 3.78899 22.261 7.66199 21.993L144.014 12.458C150.564 6.72602 161.817 0.00701904 166.325 0.00701904H196.888V9.44402H171.535L160.859 83.838Z" fill="#D83327"/>
<path fill-rule="evenodd" clip-rule="evenodd" d="M107.93 83.838L68.761 17.726L7.66199 21.994C3.78899 22.262 0.619995 25.163 0.619995 29.036V76.797C0.619995 80.67 3.78899 83.839 7.66199 83.839H107.93V83.838Z" fill="#C12626"/>
<path fill-rule="evenodd" clip-rule="evenodd" d="M157.197 79.613H7.66199C6.11198 79.613 4.84607 78.331 4.84607 76.796V29.035C4.84607 27.345 6.395 26.317 7.95801 26.218L144.31 16.669H144.325H144.353L166.452 15.12L157.197 79.613Z" fill="#EF4323"/>
<path fill-rule="evenodd" clip-rule="evenodd" d="M105.423 79.613L71.1691 21.782L7.95801 26.219C6.395 26.318 4.84607 27.346 4.84607 29.036V76.797C4.84607 78.332 6.11298 79.614 7.66199 79.614H105.423V79.613Z" fill="#D83327"/>
<path fill-rule="evenodd" clip-rule="evenodd" d="M139.606 16.993V79.613H150.226V16.261L144.353 16.669H144.324H144.31L139.606 16.993Z" fill="#D83327"/>
<path fill-rule="evenodd" clip-rule="evenodd" d="M139.606 16.993V79.613H142.958V16.768L139.606 16.993Z" fill="#C12626"/>
<path fill-rule="evenodd" clip-rule="evenodd" d="M117.873 18.514V79.613H128.493V17.782L117.873 18.514Z" fill="#D83327"/>
<path fill-rule="evenodd" clip-rule="evenodd" d="M117.873 18.514V79.613H121.226V18.289L117.873 18.514Z" fill="#C12626"/>
<path fill-rule="evenodd" clip-rule="evenodd" d="M96.141 20.035V79.613H106.761V19.303L96.141 20.035Z" fill="#D83327"/>
<path fill-rule="evenodd" clip-rule="evenodd" d="M96.141 20.035V79.613H99.493V19.81L96.141 20.035Z" fill="#C12626"/>
<path fill-rule="evenodd" clip-rule="evenodd" d="M74.4081 21.556V79.613H85.0281V20.824L74.4081 21.556Z" fill="#D83327"/>
<path fill-rule="evenodd" clip-rule="evenodd" d="M74.4081 21.556V79.613H77.761V21.331L74.4081 21.556Z" fill="#C12626"/>
<path fill-rule="evenodd" clip-rule="evenodd" d="M52.676 23.078V79.613H63.296V22.345L52.676 23.078Z" fill="#F58220"/>
<path fill-rule="evenodd" clip-rule="evenodd" d="M52.676 23.078V79.613H56.0281V22.852L52.676 23.078Z" fill="#E27226"/>
<path fill-rule="evenodd" clip-rule="evenodd" d="M30.943 24.599V79.613H41.5641V23.866L30.943 24.599Z" fill="#F58220"/>
<path fill-rule="evenodd" clip-rule="evenodd" d="M30.943 24.599V79.613H34.296V24.374L30.943 24.599Z" fill="#E27226"/>
<path fill-rule="evenodd" clip-rule="evenodd" d="M9.21106 26.12V79.613H19.8311V25.387L9.21106 26.12Z" fill="#F58220"/>
<path fill-rule="evenodd" clip-rule="evenodd" d="M9.21106 26.12V79.613H12.5641V25.895L9.21106 26.12Z" fill="#E27226"/>
<path fill-rule="evenodd" clip-rule="evenodd" d="M96.141 63.937V79.613H105.423L96.141 63.937Z" fill="#C12626"/>
<path fill-rule="evenodd" clip-rule="evenodd" d="M96.141 63.937V79.613H99.493V69.599L96.141 63.937Z" fill="#AF2024"/>
<path fill-rule="evenodd" clip-rule="evenodd" d="M74.4081 27.247V79.613H85.0281V45.176L74.4081 27.247Z" fill="#C12626"/>
<path fill-rule="evenodd" clip-rule="evenodd" d="M74.4081 27.247V79.613H77.761V32.909L74.4081 27.247Z" fill="#AF2024"/>
<path fill-rule="evenodd" clip-rule="evenodd" d="M52.676 23.078V79.613H63.296V22.345L52.676 23.078Z" fill="#C12626"/>
<path fill-rule="evenodd" clip-rule="evenodd" d="M52.676 23.078V79.613H56.0281V22.852L52.676 23.078Z" fill="#AF2024"/>
<path fill-rule="evenodd" clip-rule="evenodd" d="M30.943 24.599V79.613H41.5641V23.866L30.943 24.599Z" fill="#C12626"/>
<path fill-rule="evenodd" clip-rule="evenodd" d="M30.943 24.599V79.613H34.296V24.374L30.943 24.599Z" fill="#AF2024"/>
<path fill-rule="evenodd" clip-rule="evenodd" d="M9.21106 26.12V79.613H19.8311V25.387L9.21106 26.12Z" fill="#C12626"/>
<path fill-rule="evenodd" clip-rule="evenodd" d="M9.21106 26.12V79.613H12.5641V25.895L9.21106 26.12Z" fill="#AF2024"/>
<path fill-rule="evenodd" clip-rule="evenodd" d="M159.775 107.007H115.761V114.838C115.761 118.712 118.93 121.88 122.803 121.88H152.733C156.606 121.88 159.775 118.711 159.775 114.838V107.007Z" fill="#A7AAAC"/>
<path fill-rule="evenodd" clip-rule="evenodd" d="M166.311 107.007H109.226V109.908C109.226 113.781 112.395 116.95 116.268 116.95H159.268C163.141 116.95 166.311 113.781 166.311 109.908V107.007Z" fill="#BBBDBF"/>
<path d="M149.507 90.092H152.958V123.923H149.507V90.092Z" fill="#EF4323"/>
<path d="M122.578 90.092H126.028V123.923H122.578V90.092Z" fill="#EF4323"/>
<path d="M149.507 107.007H152.958V123.923H149.507V107.007Z" fill="#D83327"/>
<path d="M122.578 107.007H126.028V123.923H122.578V107.007Z" fill="#D83327"/>
</svg>
