<svg width="271" height="115" viewBox="0 0 271 115" fill="none" xmlns="http://www.w3.org/2000/svg">
<path d="M176.112 18.176H190.281V58.866H176.112V18.176Z" fill="#58595B"/>
<path d="M45.944 60.5H169.099V67.81H45.944V60.5Z" fill="#808184"/>
<path d="M42.9149 65.796H177.028V73.106H42.9149V65.796Z" fill="#221F20"/>
<path fill-rule="evenodd" clip-rule="evenodd" d="M180.099 79.937H44.972C41.283 79.937 38.268 82.951 38.268 86.642C38.268 90.332 41.283 93.346 44.972 93.346H180.099C183.789 93.346 186.803 90.332 186.803 86.642C186.803 82.951 183.789 79.937 180.099 79.937Z" fill="#221F20"/>
<path d="M33.4639 69.444H204.732V89.345H33.4639V69.444Z" fill="#404042"/>
<path d="M190.281 65.063H267.042V94.8091H190.281V65.063Z" fill="#221F20"/>
<path fill-rule="evenodd" clip-rule="evenodd" d="M270.127 77.5421H251.676V102.331H263.085C266.958 102.331 270.127 99.162 270.127 95.289V77.5421Z" fill="#58595B"/>
<path fill-rule="evenodd" clip-rule="evenodd" d="M270.127 74.852C260.69 74.852 251.239 74.852 241.803 74.852C241.803 70.979 238.634 67.81 234.761 67.81C217.987 67.81 201.198 67.81 184.423 67.81C184.423 47.599 184.423 27.387 184.423 7.17603C184.423 3.30203 187.592 0.134033 191.465 0.134033C209.042 0.134033 226.634 0.134033 244.226 0.134033C251.325 0.134033 270.127 54.529 270.127 54.529C270.127 61.303 270.127 68.078 270.127 74.852Z" fill="#F58220"/>
<path fill-rule="evenodd" clip-rule="evenodd" d="M206.704 67.81C206.704 47.599 206.704 27.387 206.704 7.17603C206.704 3.30203 209.873 0.134033 213.746 0.134033H191.465C187.592 0.134033 184.423 3.30303 184.423 7.17603C184.423 27.387 184.423 47.598 184.423 67.81H206.704Z" fill="#E27226"/>
<path fill-rule="evenodd" clip-rule="evenodd" d="M196.535 41.556V7.17601C196.535 5.62701 197.803 4.35901 199.352 4.35901C216.675 4.35901 211.647 4.35901 228.971 4.35901C230.464 5.75301 232.986 10.429 233.745 11.88C236.45 17.063 238.83 22.542 241.069 27.964C242.914 32.443 244.717 36.978 246.45 41.555H196.535V41.556Z" fill="#E6F6FD"/>
<path fill-rule="evenodd" clip-rule="evenodd" d="M248.732 4.35901H238.971C240.464 5.75301 242.986 10.429 243.745 11.88C246.45 17.063 248.816 22.542 251.056 27.964C252.914 32.443 254.718 36.978 256.451 41.555H265.408C260.873 29.486 253.958 12.232 248.732 4.35901Z" fill="#E6F6FD"/>
<path fill-rule="evenodd" clip-rule="evenodd" d="M259 51.796C256.873 51.796 255.141 53.528 255.141 55.641V65.866C255.141 68.19 257.042 70.092 259.367 70.092H261.184C263.507 70.092 265.409 68.191 265.409 65.866V58.218C265.408 54.683 262.522 51.796 259 51.796Z" fill="white"/>
<path fill-rule="evenodd" clip-rule="evenodd" d="M258.55 70.007C260.479 69.6131 261.944 67.895 261.944 65.866V58.218C261.944 55.373 260.071 52.937 257.494 52.105C256.114 52.697 255.141 54.0631 255.141 55.6411V65.866C255.141 67.895 256.606 69.6131 258.55 70.007Z" fill="#E6F6FD"/>
<path fill-rule="evenodd" clip-rule="evenodd" d="M196.535 63.838H239.408C243.676 63.838 247.155 60.345 247.155 56.091V47.274C247.155 46.894 246.844 46.569 246.451 46.569C246.07 46.569 245.746 46.893 245.746 47.274V56.091C245.746 59.57 242.901 62.429 239.408 62.429H196.535C196.14 62.429 195.831 62.739 195.831 63.133C195.831 63.514 196.141 63.838 196.535 63.838Z" fill="#B75E27"/>
<path fill-rule="evenodd" clip-rule="evenodd" d="M210.606 45.162H202.803C202.029 45.162 201.395 45.7961 201.395 46.5701V48.331C201.395 49.106 202.029 49.739 202.803 49.739H210.606C211.38 49.739 212.014 49.106 212.014 48.331V46.5701C212.014 45.7961 211.38 45.162 210.606 45.162Z" fill="#B75E27"/>
<path fill-rule="evenodd" clip-rule="evenodd" d="M261.184 59.951H255.141V65.8671C255.141 68.191 257.042 70.093 259.367 70.093H261.184C263.507 70.093 265.409 68.192 265.409 65.8671V64.177C265.408 61.852 263.507 59.951 261.184 59.951Z" fill="#EF4323"/>
<path fill-rule="evenodd" clip-rule="evenodd" d="M260.901 77.5421H251.675V102.331H253.859C257.732 102.331 260.901 99.162 260.901 95.289V77.5421Z" fill="#404042"/>
<path fill-rule="evenodd" clip-rule="evenodd" d="M206.704 41.556V7.17601C206.704 6.17601 206.915 5.21801 207.296 4.35901H199.353C197.803 4.35901 196.536 5.62701 196.536 7.17601V41.556H206.704Z" fill="#CCEAF5"/>
<path fill-rule="evenodd" clip-rule="evenodd" d="M258.55 70.007C260.479 69.613 261.944 67.895 261.944 65.866V60.021C261.691 59.979 261.437 59.951 261.184 59.951H255.141V65.8671C255.141 67.8951 256.606 69.613 258.55 70.007Z" fill="#D83327"/>
<path fill-rule="evenodd" clip-rule="evenodd" d="M216.873 114.26C204.676 114.26 194.789 104.373 194.789 92.176C194.789 79.979 204.676 70.092 216.873 70.092C229.085 70.092 238.972 79.979 238.972 92.176C238.972 104.374 229.085 114.26 216.873 114.26Z" fill="#58595B"/>
<path fill-rule="evenodd" clip-rule="evenodd" d="M206.564 72.6411C205.959 74.6551 205.621 76.81 205.621 79.036C205.621 91.233 215.508 101.12 227.72 101.12C231.438 101.12 234.945 100.191 238.03 98.5571C235.283 107.641 226.861 114.261 216.875 114.261C204.678 114.261 194.791 104.374 194.791 92.177C194.789 83.697 199.564 76.3451 206.564 72.6411Z" fill="#404042"/>
<path fill-rule="evenodd" clip-rule="evenodd" d="M216.873 105.444C209.549 105.444 203.605 99.5 203.605 92.176C203.605 84.839 209.548 78.895 216.873 78.895C224.211 78.895 230.155 84.839 230.155 92.176C230.155 99.5 224.211 105.444 216.873 105.444Z" fill="#D1D2D4"/>
<path fill-rule="evenodd" clip-rule="evenodd" d="M216.873 96.782C214.338 96.782 212.268 94.726 212.268 92.176C212.268 89.627 214.338 87.557 216.873 87.557C219.423 87.557 221.493 89.627 221.493 92.176C221.493 94.726 219.423 96.782 216.873 96.782Z" fill="#404042"/>
<path fill-rule="evenodd" clip-rule="evenodd" d="M206.239 84.2321C208.507 93.5981 216.746 100.655 226.718 101.091C224.28 103.767 220.774 105.444 216.872 105.444C209.548 105.444 203.604 99.5001 203.604 92.1761C203.606 89.1901 204.577 86.4441 206.239 84.2321Z" fill="#BBBDBF"/>
<path fill-rule="evenodd" clip-rule="evenodd" d="M216.873 67.275C203.127 67.275 191.972 78.416 191.972 92.176C191.972 94.247 192.226 96.261 192.704 98.191H195.62C195.085 96.275 194.789 94.261 194.789 92.176C194.789 79.979 204.676 70.092 216.873 70.092C229.085 70.092 238.972 79.979 238.972 92.176C238.972 94.261 238.676 96.275 238.141 98.191H241.042C241.521 96.261 241.789 94.247 241.789 92.176C241.789 78.416 230.634 67.275 216.873 67.275Z" fill="#808184"/>
<path fill-rule="evenodd" clip-rule="evenodd" d="M165.226 71.134H135.296C131.423 71.134 128.254 74.303 128.254 78.176V93.838C128.254 97.712 131.423 100.88 135.296 100.88H165.226C169.099 100.88 172.268 97.711 172.268 93.838V78.176C172.268 74.303 169.099 71.134 165.226 71.134Z" fill="#D1D2D4"/>
<path fill-rule="evenodd" clip-rule="evenodd" d="M171.746 76.063H128.761C124.888 76.063 121.719 79.232 121.719 83.105V88.9081C121.719 92.781 124.888 95.95 128.761 95.95H171.746C175.62 95.95 178.789 92.781 178.789 88.9081V83.105C178.789 79.232 175.62 76.063 171.746 76.063Z" fill="#E5E6E7"/>
<path fill-rule="evenodd" clip-rule="evenodd" d="M86.3799 114.26C74.1839 114.26 64.296 104.373 64.296 92.176C64.296 79.979 74.1839 70.092 86.3799 70.092C98.5769 70.092 108.465 79.979 108.465 92.176C108.465 104.374 98.5769 114.26 86.3799 114.26Z" fill="#58595B"/>
<path fill-rule="evenodd" clip-rule="evenodd" d="M76.057 72.6411C75.452 74.6551 75.127 76.81 75.127 79.036C75.127 91.233 85.014 101.12 97.211 101.12C100.93 101.12 104.451 100.191 107.522 98.5571C104.79 107.641 96.353 114.261 86.38 114.261C74.184 114.261 64.296 104.374 64.296 92.177C64.296 83.697 69.057 76.3451 76.057 72.6411Z" fill="#404042"/>
<path fill-rule="evenodd" clip-rule="evenodd" d="M86.3799 105.444C79.0419 105.444 73.0989 99.5 73.0989 92.176C73.0989 84.839 79.0419 78.895 86.3799 78.895C93.7039 78.895 99.6489 84.839 99.6489 92.176C99.6479 99.5 93.7039 105.444 86.3799 105.444Z" fill="#D1D2D4"/>
<path fill-rule="evenodd" clip-rule="evenodd" d="M86.3799 96.782C83.8309 96.782 81.761 94.726 81.761 92.176C81.761 89.627 83.8309 87.557 86.3799 87.557C88.9299 87.557 90.986 89.627 90.986 92.176C90.986 94.726 88.9299 96.782 86.3799 96.782Z" fill="#404042"/>
<path fill-rule="evenodd" clip-rule="evenodd" d="M75.7319 84.2321C77.9999 93.5981 86.2529 100.655 96.2109 101.091C93.7889 103.767 90.2809 105.444 86.3799 105.444C79.0419 105.444 73.0989 99.5001 73.0989 92.1761C73.0989 89.1901 74.0849 86.4441 75.7319 84.2321Z" fill="#BBBDBF"/>
<path fill-rule="evenodd" clip-rule="evenodd" d="M86.38 67.275C72.62 67.275 61.479 78.416 61.479 92.176C61.479 94.247 61.733 96.261 62.211 98.191H65.127C64.577 96.275 64.296 94.261 64.296 92.176C64.296 79.979 74.184 70.092 86.38 70.092C98.577 70.092 108.465 79.979 108.465 92.176C108.465 94.261 108.169 96.275 107.634 98.191H110.549C111.028 96.261 111.281 94.247 111.281 92.176C111.281 78.416 100.127 67.275 86.38 67.275Z" fill="#808184"/>
<path fill-rule="evenodd" clip-rule="evenodd" d="M30.1269 64.458C27.5919 64.458 25.5069 66.528 25.5069 69.063V89.725C25.5069 92.26 27.5919 94.33 30.1269 94.33C32.6619 94.33 34.7319 92.26 34.7319 89.725V69.063C34.7319 66.528 32.6619 64.458 30.1269 64.458Z" fill="#221F20"/>
<path fill-rule="evenodd" clip-rule="evenodd" d="M173.789 46.5701H10.6759C7.61995 46.5701 5.11293 49.0771 5.11293 52.1331V57.1611H173.789V46.5701Z" fill="#BBBDBF"/>
<path d="M173.423 4.35901H178.789V57.739H173.423V4.35901Z" fill="#A7AAAC"/>
<path fill-rule="evenodd" clip-rule="evenodd" d="M178.789 55.796H-7.62939e-05C-7.62939e-05 59.669 3.16895 62.838 7.04195 62.838H178.789V55.796Z" fill="#A7AAAC"/>
<path d="M169.099 45.162H171.888V55.7961H169.099V45.162Z" fill="#808184"/>
<path d="M158.535 45.162H161.338V55.7961H158.535V45.162Z" fill="#808184"/>
<path d="M147.971 45.162H150.774V55.7961H147.971V45.162Z" fill="#808184"/>
<path d="M137.408 45.162H140.211V55.7961H137.408V45.162Z" fill="#808184"/>
<path d="M126.844 45.162H129.648V55.7961H126.844V45.162Z" fill="#808184"/>
<path d="M116.296 45.162H119.085V55.7961H116.296V45.162Z" fill="#808184"/>
<path d="M105.733 45.162H108.522V55.7961H105.733V45.162Z" fill="#808184"/>
<path d="M95.169 45.162H97.958V55.7961H95.169V45.162Z" fill="#808184"/>
<path d="M84.606 45.162H87.395V55.7961H84.606V45.162Z" fill="#808184"/>
<path d="M74.042 45.162H76.845V55.7961H74.042V45.162Z" fill="#808184"/>
<path d="M63.478 45.162H66.282V55.7961H63.478V45.162Z" fill="#808184"/>
<path d="M52.915 45.162H55.719V55.7961H52.915V45.162Z" fill="#808184"/>
<path d="M42.366 45.162H45.155V55.7961H42.366V45.162Z" fill="#808184"/>
<path d="M31.8029 45.162H34.5919V55.7961H31.8029V45.162Z" fill="#808184"/>
<path d="M21.239 45.162H24.028V55.7961H21.239V45.162Z" fill="#808184"/>
<path d="M10.676 45.162H13.465V55.7961H10.676V45.162Z" fill="#808184"/>
<path fill-rule="evenodd" clip-rule="evenodd" d="M172.268 86.007H128.254V93.838C128.254 97.712 131.423 100.88 135.296 100.88H165.226C169.099 100.88 172.268 97.711 172.268 93.838V86.007Z" fill="#A7AAAC"/>
<path fill-rule="evenodd" clip-rule="evenodd" d="M178.789 86.007H121.719V88.908C121.719 92.781 124.888 95.95 128.761 95.95H171.746C175.62 95.95 178.789 92.781 178.789 88.908V86.007Z" fill="#BBBDBF"/>
<path d="M162 69.092H165.437V102.923H162V69.092Z" fill="#EF4323"/>
<path d="M135.071 69.092H138.522V102.923H135.071V69.092Z" fill="#EF4323"/>
<path d="M162 86.007H165.437V102.923H162V86.007Z" fill="#D83327"/>
<path d="M135.071 86.007H138.522V102.923H135.071V86.007Z" fill="#D83327"/>
</svg>
