<svg width="549" height="216" viewBox="0 0 549 216" fill="none" xmlns="http://www.w3.org/2000/svg">
<path d="M12.0871 96.7013C12.0871 96.7013 10.6898 88.0413 15.7951 83.0947L43.1324 17.5507L145.195 0.23336H350.19L431.355 73.0493L532.924 102.268C532.924 102.268 542.2 105.051 542.2 118.036V173.691H480.672C480.672 146.541 458.656 124.529 431.51 124.529C404.36 124.529 382.347 146.541 382.347 173.691H159.163C159.163 146.541 137.15 124.529 110.003 124.529C82.8511 124.529 60.8391 146.541 60.8391 173.691H12.0871V137.748H11.9151V125.689H12.0871V121.283H11.9151V109.225H12.0871V96.7013Z" fill="#0BA14A"/>
<path d="M68.6444 173.691C68.6444 196.533 87.1577 215.046 110.003 215.046C132.843 215.046 151.358 196.533 151.358 173.691C151.358 150.851 132.843 132.335 110.003 132.335C87.1577 132.335 68.6444 150.851 68.6444 173.691Z" fill="black"/>
<path d="M89.5564 173.691C89.5564 184.981 98.7111 194.137 110.003 194.137C121.294 194.137 130.45 184.981 130.45 173.691C130.45 162.403 121.294 153.244 110.003 153.244C98.7111 153.244 89.5564 162.403 89.5564 173.691Z" fill="white"/>
<path d="M390.151 173.691C390.151 196.533 408.664 215.046 431.51 215.046C454.351 215.046 472.866 196.533 472.866 173.691C472.866 150.851 454.351 132.335 431.51 132.335C408.664 132.335 390.151 150.851 390.151 173.691Z" fill="black"/>
<path d="M411.063 173.691C411.063 184.981 420.218 194.137 431.51 194.137C442.8 194.137 451.956 184.981 451.956 173.691C451.956 162.403 442.8 153.244 431.51 153.244C420.218 153.244 411.063 162.403 411.063 173.691Z" fill="white"/>
<path d="M112.884 73.824L158.026 17.5506H245.219V73.824H112.884Z" fill="black"/>
<path d="M402.596 73.824L344.702 17.5506H257.508V73.824H402.596Z" fill="black"/>
<path d="M261.903 96.008C261.903 98.184 263.667 99.9493 265.847 99.9493H285.26C287.439 99.9493 289.203 98.184 289.203 96.008C289.203 93.828 287.439 92.064 285.26 92.064H265.847C263.667 92.064 261.903 93.828 261.903 96.008Z" fill="black"/>
<path d="M112.884 96.008C112.884 98.184 114.648 99.9493 116.826 99.9493H136.239C138.416 99.9493 140.18 98.184 140.18 96.008C140.18 93.828 138.416 92.064 136.239 92.064H116.826C114.648 92.064 112.884 93.828 112.884 96.008Z" fill="black"/>
<path d="M508.575 118.036H542.2V141.379H508.575C504.475 141.379 501.154 138.056 501.154 133.959V125.456C501.154 121.359 504.475 118.036 508.575 118.036Z" fill="black"/>
<path d="M495.05 171.836C495.05 175.934 498.371 179.256 502.47 179.256H541.427C545.526 179.256 548.848 175.934 548.848 171.836V167.2C548.848 163.1 545.526 159.779 541.427 159.779H502.47C498.371 159.779 495.05 163.1 495.05 167.2V171.836Z" fill="black"/>
<path d="M0.341746 171.836C0.341746 175.934 3.66307 179.256 7.76173 179.256H46.7218C50.8178 179.256 54.1417 175.934 54.1417 171.836V167.2C54.1417 163.1 50.8178 159.779 46.7218 159.779H7.76173C3.66307 159.779 0.341746 163.1 0.341746 167.2V171.836Z" fill="black"/>
<path d="M138.874 18.9946L97.9311 73.824H39.3524L60.7684 30.9626L138.874 18.9946Z" fill="black"/>
<path d="M11.9124 97.7306C11.9124 97.7306 25.1724 108.956 39.3524 132.492L11.9124 141.716V97.7306Z" fill="#B52026"/>
</svg>
