<svg width="131" height="163" viewBox="0 0 131 163" fill="none" xmlns="http://www.w3.org/2000/svg">
<path d="M88.3 33.3H42.9C34 33.3 26.7 26 26.7 17.1V16.8C26.7 7.9 34 0.600006 42.9 0.600006H88.3C97.2001 0.600006 104.5 7.9 104.5 16.8V17.1C104.5 26.1 97.2001 33.4 88.3 33.3Z" fill="#F6F0E8"/>
<path d="M94 66.1H37.2C28.3 66.1 21 58.8 21 49.9V49.6C21 40.7 28.3 33.4 37.2 33.4H94C102.9 33.4 110.2 40.7 110.2 49.6V49.9C110.2 58.8 102.9 66.1 94 66.1Z" fill="#657D99"/>
<path d="M100.8 98.9L30.3 98.8C21.4 98.8 14.1 91.5 14.1 82.6V82.3C14.1 73.4 21.4 66.1 30.3 66.1L100.8 66.2C109.7 66.2 117 73.5 117 82.4V82.7C117 91.6 109.7 98.9 100.8 98.9Z" fill="#AFC5DD"/>
<path d="M105.4 130L25.6 129.9C16.7 129.9 9.40002 122.6 9.40002 113.7V113.4C9.40002 104.5 16.7 97.2 25.6 97.2L105.4 97.3C114.3 97.3 121.6 104.6 121.6 113.5V113.8C121.6 122.7 114.3 130 105.4 130Z" fill="#AFC5DD"/>
<path d="M105.4 130L25.6 129.9C16.7 129.9 9.40002 122.6 9.40002 113.7V113.4C9.40002 104.5 16.7 97.2 25.6 97.2L105.4 97.3C114.3 97.3 121.6 104.6 121.6 113.5V113.8C121.6 122.7 114.3 130 105.4 130Z" fill="#F6F0E8"/>
<path d="M114.1 162.9L16.9 162.8C8.00002 162.8 0.699951 155.5 0.699951 146.6V146.3C0.699951 137.4 8.00002 130.1 16.9 130.1L114.1 130.2C123 130.2 130.3 137.5 130.3 146.4V146.7C130.3 155.6 123 162.9 114.1 162.9Z" fill="#657D99"/>
</svg>
