<svg width="225" height="406" viewBox="0 0 225 406" fill="none" xmlns="http://www.w3.org/2000/svg">
<path d="M127 311.2H99.6V405.4H127V311.2Z" fill="#68322B"/>
<path d="M112.9 157.8L0.700012 363.1H225L112.9 157.8Z" fill="#39A935"/>
<path d="M112.9 101.4L25.5 261.4H200.2L112.9 101.4Z" fill="#2F923F"/>
<path d="M112.9 49.4L45.2 173.3H180.5L112.9 49.4Z" fill="#39A935"/>
<path d="M112.9 0.100006L121.6 27.1H150L127 43.7L135.8 70.7L112.9 54L89.9 70.7L98.7 43.7L75.7 27.1H104.1L112.9 0.100006Z" fill="white"/>
<path d="M112.9 54V37.1L89.9 70.7L112.9 54Z" fill="#E9E9EA"/>
<path d="M112.9 54V37.1L135.8 70.7L112.9 54Z" fill="#E9E9EA"/>
<path d="M112.9 0.100006V37.1L121.6 27.1L112.9 0.100006Z" fill="#E9E9EA"/>
<path d="M112.9 37.1L150 27.1L127 43.7L112.9 37.1Z" fill="#E9E9EA"/>
<path d="M75.7 27.1L112.9 37.1L98.7 43.7L75.7 27.1Z" fill="#E9E9EA"/>
</svg>
