<svg width="371" height="356" viewBox="0 0 371 356" fill="none" xmlns="http://www.w3.org/2000/svg">
<path d="M247.15 62.2818C247.15 55.3218 268.1 52.5804 270.611 46.5284C273.212 40.2538 260.436 23.5191 265.164 18.7898C269.894 14.0618 286.627 26.8378 292.902 24.2364C298.955 21.7258 301.696 0.775103 308.656 0.775103C315.618 0.775103 318.359 21.7258 324.411 24.2364C330.686 26.8378 347.42 14.0618 352.15 18.7898C356.878 23.5191 344.1 40.2538 346.703 46.5284C349.212 52.5804 370.163 55.3218 370.163 62.2818C370.163 69.2431 349.212 71.9831 346.703 78.0364C344.1 84.3111 356.878 101.046 352.148 105.774C347.42 110.503 330.686 97.7258 324.411 100.328C318.358 102.838 315.618 123.79 308.656 123.79C301.696 123.79 298.955 102.838 292.902 100.328C286.627 97.7258 269.894 110.503 265.164 105.774C260.435 101.046 273.212 84.3111 270.611 78.0364C268.1 71.9831 247.15 69.2431 247.15 62.2818Z" fill="#FFEE69"/>
<path d="M0.273315 182.406C0.273315 108.139 60.4786 47.9336 134.745 47.9336C209.012 47.9336 269.216 108.139 269.216 182.406C269.216 256.671 209.012 316.878 134.745 316.878C60.4786 316.878 0.273315 256.671 0.273315 182.406Z" fill="#F75990"/>
<path d="M147.541 90.6086C154.301 85.3139 158.017 61.5233 137.656 57.7153C117.13 53.8779 111.374 82.2873 127.189 78.5939C123.638 77.9073 123.388 71.4619 130.178 71.7739C138.961 72.1793 137.444 82.8166 130.697 89.6859C123.95 96.5539 144.221 93.2099 147.541 90.6086Z" fill="#FFC636"/>
<g opacity="0.5">
<g opacity="0.5">
<path opacity="0.5" d="M137.656 63.1932C117.167 59.1652 117.764 78.6652 127.189 78.5946C123.637 77.9066 123.388 71.4612 130.177 71.7746C138.961 72.1786 137.444 82.8172 130.697 89.6852C126.452 94.0066 131.939 94.2839 137.419 93.2492C138.104 91.3732 139.545 89.7452 140.341 87.8892C141.355 85.5319 142.052 83.3999 142.185 80.7959C142.639 71.9212 134.916 66.5332 131.583 66.5972C135.515 65.8866 143.196 67.5599 146.291 76.1306C147.257 78.8106 146.535 83.2186 145.616 85.8706C145.115 87.3212 143.864 88.7559 143.204 90.1412C142.816 90.9559 143.557 91.7146 143.045 92.5106C145.08 91.9399 144.276 91.2599 145.107 90.6092C151.867 85.3146 153.289 66.2666 137.656 63.1932Z" fill="#FFA836"/>
</g>
</g>
<path d="M73.468 313.118C73.468 313.118 65.3346 298.728 51.2586 298.416C37.1826 298.102 28.1106 310.615 30.3 327.819C30.3 327.819 9.96798 314.055 4.96265 337.516C4.96265 337.516 5.58798 343.146 37.808 338.455C37.808 338.455 34.0533 328.444 41.8746 320.938C49.6946 313.43 56.576 309.676 73.468 324.378C90.3586 339.08 73.468 313.118 73.468 313.118Z" fill="#FFC2A2"/>
<g opacity="0.300003">
<g opacity="0.300003">
<path opacity="0.300003" d="M75.1308 321.955C75.1361 321.888 75.1414 321.82 75.1468 321.754C74.1001 320.999 72.7454 319.91 71.0081 318.398C54.1161 303.696 45.7241 309.13 37.9041 316.636C30.0841 324.144 33.8374 334.154 33.8374 334.154C17.8921 336.476 13.1081 338.912 4.96277 337.516C4.96277 337.516 5.5881 343.147 37.8081 338.455C37.8081 338.455 34.0534 328.444 41.8748 320.938C49.6948 313.43 56.5761 309.676 73.4681 324.378C73.9334 324.784 74.3681 325.152 74.7841 325.498C74.9161 324.312 75.0388 323.131 75.1308 321.955Z" fill="#E38D66"/>
</g>
</g>
<path d="M164.307 323.1C164.307 323.1 173.707 309.505 187.754 310.465C201.802 311.426 209.704 324.708 205.97 341.644C205.97 341.644 227.463 329.774 230.327 353.59C230.327 353.59 229.195 359.141 197.531 351.557C197.531 351.557 202.174 341.926 195.064 333.744C187.955 325.561 181.44 321.2 163.29 334.314C145.139 347.43 164.307 323.1 164.307 323.1Z" fill="#FFC2A2"/>
<g opacity="0.300003">
<g opacity="0.300003">
<path opacity="0.300003" d="M229.044 353.329C225.749 353.582 222.461 353.435 219.182 353.045C215.846 352.647 212.516 352.029 209.293 351.073C206.913 350.366 204.365 349.583 202.161 348.351C201.697 348.242 201.228 348.133 200.749 348.018C200.749 348.018 205.393 338.387 198.282 330.203C191.173 322.021 182.14 315.486 163.989 328.601C160.585 331.061 158.581 332.279 157.574 332.637C154.556 337.613 153.557 341.347 163.29 334.314C181.441 321.199 187.956 325.561 195.065 333.745C202.174 341.926 197.532 351.557 197.532 351.557C229.194 359.141 230.326 353.59 230.326 353.59C230.312 353.463 230.293 353.342 230.277 353.217C229.857 353.261 229.444 353.298 229.044 353.329Z" fill="#E38D66"/>
</g>
</g>
<path d="M207.702 167.852C207.702 167.852 218.528 170.557 215.821 180.996C213.116 191.436 203.064 195.689 197.65 188.729C192.237 181.769 207.702 167.852 207.702 167.852Z" fill="#F29080"/>
<path d="M74.3137 145.426C74.3137 145.426 59.6217 132.669 58.8484 154.32C58.075 175.97 77.0204 164.758 77.0204 164.758L74.3137 145.426Z" fill="#F29080"/>
<path d="M247.191 213.627L247.683 205.252C233.885 201.801 222.06 213.135 222.06 213.135C233.392 193.427 241.772 198.352 241.772 198.352V189.485C224.032 185.045 216.144 210.177 216.144 210.177L216.64 192.437C211.711 191.945 209.741 197.368 209.741 197.368C210.727 202.293 207.769 218.061 207.769 218.061C176.743 247.611 151.665 242.863 146.011 240.945C144.444 240.415 142.211 241.248 139.908 240.437C139.759 234.685 145.369 227.013 149.424 224.623C155.82 220.852 162.995 218.832 169.781 215.932C199.248 203.344 216.739 164.632 209.195 133.739C201.964 104.131 172.847 84.1175 142.924 84.4801C133.205 84.5988 123.565 86.8388 114.792 91.0162C90.1026 102.765 75.3027 127.368 71.784 154.077C69.6707 170.1 72.9453 186.237 83.008 199.108C93.9293 213.081 109.345 216.484 122.643 226.64C133.708 232.108 130.9 239.743 130.9 239.743C127.931 242.468 124.8 240.737 122.037 241.951C121.856 246.795 120.952 251.553 119.559 256.208C119.703 256.127 119.78 256.081 119.78 256.081C116.233 263.179 108.349 269.712 102.612 273.807C98.7867 276.536 95.9133 278.179 95.9133 278.179C95.9133 278.179 163.913 320.065 164.407 299.861C164.523 295.064 163.501 290.073 161.876 285.252C156.653 269.76 147.964 255.981 147.964 255.981C191.327 254.996 210.727 223.484 210.727 223.484C218.117 226.44 219.595 239.743 219.595 239.743L226.001 235.801C226.001 231.367 221.567 223.976 221.567 223.976C227.973 222.499 237.827 230.381 237.827 230.381L242.756 223.976C237.827 218.061 224.524 218.061 224.524 218.061C234.873 209.685 247.191 213.627 247.191 213.627Z" fill="#FFC2A2"/>
<g opacity="0.300003">
<g opacity="0.300003">
<path opacity="0.300003" d="M122.644 226.639C124.798 227.704 126.422 228.851 127.646 230.007C126.054 228.081 124.166 226.359 122.306 224.779C117.916 221.053 113.316 217.589 108.899 213.897C108.355 213.443 107.818 212.98 107.287 212.511C103.334 209.735 99.6071 206.472 96.2937 202.235C93.2377 198.325 90.8111 194.111 88.9671 189.693C88.9271 189.676 88.8964 189.641 88.8991 189.585C88.9004 189.569 88.9004 189.555 88.9017 189.539C84.7311 179.453 83.6071 168.301 85.0697 157.203C88.5884 130.497 103.388 105.892 128.078 94.144C136.854 89.968 146.492 87.724 156.211 87.6066C159.452 87.5666 162.683 87.768 165.879 88.192C158.534 85.688 150.756 84.3853 142.923 84.48C133.206 84.5986 123.566 86.8413 114.791 91.0173C90.1017 102.767 75.3004 127.369 71.7831 154.076C69.6711 170.1 72.9444 186.237 83.0071 199.109C93.9284 213.08 109.344 216.483 122.644 226.639Z" fill="#E38D66"/>
</g>
</g>
<g opacity="0.300003">
<g opacity="0.300003">
<path opacity="0.300003" d="M210.815 220.223C201.864 229.715 191.4 237.4 179.68 243.167C174.148 245.888 168.403 248.322 162.395 249.77C159.488 250.47 147.99 251.539 146.011 250.94C146.227 251.91 147.336 255.218 147.963 255.98C190.851 254.664 210.727 223.483 210.727 223.483C210.831 223.526 210.932 223.571 211.035 223.616C211.058 222.463 211.003 221.326 210.815 220.223Z" fill="#E38D66"/>
</g>
</g>
<g opacity="0.300003">
<g opacity="0.300003">
<path opacity="0.300003" d="M160.367 281.231C158.986 280.295 157.587 279.38 156.144 278.532C152.068 276.132 147.69 274.314 143.175 272.919C143.166 272.916 143.155 272.912 143.146 272.91C133.354 269.89 123.728 270.423 113.659 270.728C115.822 265.026 120.044 260.639 122.708 254.996C123.348 253.64 123.24 251.626 122.55 251.36C122.303 252.339 119.85 255.238 119.559 256.207C119.702 256.128 119.779 256.083 119.779 256.083C116.504 262.636 109.532 268.71 103.964 272.824C103.754 272.982 103.543 273.135 103.336 273.286C103.312 273.303 103.29 273.319 103.266 273.336C103.195 273.387 103.124 273.438 103.054 273.488C102.979 273.543 102.904 273.596 102.831 273.65C102.76 273.7 102.692 273.75 102.622 273.799C102.548 273.852 102.475 273.904 102.4 273.956C102.335 274.003 102.27 274.048 102.204 274.095C102.128 274.15 102.051 274.203 101.976 274.258C101.916 274.299 101.856 274.34 101.796 274.382C101.716 274.438 101.636 274.494 101.556 274.55C101.502 274.588 101.447 274.626 101.394 274.662C101.308 274.722 101.223 274.78 101.139 274.838C101.094 274.87 101.048 274.899 101.004 274.93C100.907 274.996 100.811 275.062 100.715 275.127C100.684 275.148 100.654 275.168 100.624 275.19C100.5 275.272 100.379 275.355 100.256 275.438C97.6643 277.178 95.911 278.18 95.911 278.18C95.911 278.18 96.951 278.82 98.771 279.902C111.682 287.58 163.975 317.57 164.407 299.862C164.556 293.715 162.834 287.252 160.367 281.231Z" fill="#E38D66"/>
</g>
</g>
<path d="M151.767 191.478C136.781 192.316 115.913 189.865 108.331 172.84C96.9461 184.1 107.153 213.714 125.873 216.749C158.558 222.049 179.651 189.921 151.767 191.478Z" fill="#BF3F4E"/>
<path d="M126.658 188.693C126.286 190.179 125.262 193.721 124.669 195.753C124.414 196.625 124.938 197.535 125.823 197.748C127.965 198.265 131.553 198.845 133.833 199.232C134.643 199.371 135.414 198.833 135.565 198.025C135.943 195.981 136.626 192.512 137.006 191.083C135.63 190.817 129.111 189.417 126.658 188.693Z" fill="#F5EAE2"/>
<path d="M132.294 203.118C128.471 203.108 127.507 206.011 124.382 209.698C121.739 212.815 119.032 213.476 117.81 213.324C120.464 214.916 123.555 216.112 127.086 216.75C128.827 217.063 133.562 217.192 135.2 217.184C134.982 217.183 139.272 215.702 139.882 210.02C140.091 208.07 140.172 203.135 132.294 203.118Z" fill="#F64F48"/>
<g opacity="0.199997">
<g opacity="0.199997">
<path opacity="0.199997" d="M104.763 166.765C103.392 170.828 98.6549 172.877 94.1829 171.341C89.7096 169.805 87.1963 165.268 88.5669 161.205C89.9376 157.141 94.6749 155.093 99.1469 156.629C103.62 158.165 106.134 162.702 104.763 166.765Z" fill="#F64F48"/>
</g>
</g>
<g opacity="0.199997">
<g opacity="0.199997">
<path opacity="0.199997" d="M192.799 188.836C191.428 192.9 186.691 194.948 182.219 193.412C177.747 191.876 175.232 187.339 176.604 183.276C177.973 179.212 182.711 177.164 187.184 178.7C191.656 180.236 194.169 184.774 192.799 188.836Z" fill="#F64F48"/>
</g>
</g>
<path d="M187.177 132.439C186.678 131.631 186.093 130.873 185.43 130.189C183.118 127.794 177.597 124.363 174.726 127.725C173.974 128.605 174.237 129.947 175.404 130.303C181.12 132.05 185.28 131.595 186.99 138.457C187.161 139.541 187.336 140.627 187.696 141.67C187.858 142.141 188.861 135.177 187.177 132.439Z" fill="#FFC636"/>
<path d="M135.592 122.122C135.064 119.894 132.45 119.052 130.396 118.888C117.161 119.244 117.522 130.231 117.729 129.944C119.414 127.602 121.865 125.439 124.478 124.207C128.196 122.455 130.273 124.666 133.738 124.554C135.016 124.514 135.886 123.363 135.592 122.122Z" fill="#FFC636"/>
<path d="M116.995 144.964C116.995 139.012 121.963 134.187 128.091 134.187C134.219 134.187 139.187 139.012 139.187 144.964C139.187 150.917 134.219 155.743 128.091 155.743C121.963 155.743 116.995 150.917 116.995 144.964Z" fill="white"/>
<path d="M126.523 142.676C126.523 138.954 128.494 135.936 130.923 135.936C133.353 135.936 135.322 138.954 135.322 142.676C135.322 146.399 133.353 149.418 130.923 149.418C128.494 149.418 126.523 146.399 126.523 142.676Z" fill="#63C7D3"/>
<path d="M131.083 140.264C131.083 138.478 132.531 137.03 134.316 137.03C136.101 137.03 137.549 138.478 137.549 140.264C137.549 142.05 136.101 143.497 134.316 143.497C132.531 143.497 131.083 142.05 131.083 140.264Z" fill="white"/>
<path d="M160.984 152.014C160.984 146.062 165.952 141.236 172.08 141.236C178.208 141.236 183.176 146.062 183.176 152.014C183.176 157.967 178.208 162.792 172.08 162.792C165.952 162.792 160.984 157.967 160.984 152.014Z" fill="white"/>
<path d="M170.512 149.726C170.512 146.003 172.482 142.985 174.911 142.985C177.342 142.985 179.311 146.003 179.311 149.726C179.311 153.449 177.342 156.467 174.911 156.467C172.482 156.467 170.512 153.449 170.512 149.726Z" fill="#63C7D3"/>
<path d="M175.071 147.313C175.071 145.528 176.518 144.08 178.305 144.08C180.09 144.08 181.538 145.528 181.538 147.313C181.538 149.098 180.09 150.546 178.305 150.546C176.518 150.546 175.071 149.098 175.071 147.313Z" fill="white"/>
<g opacity="0.199997">
<g opacity="0.199997">
<path opacity="0.199997" d="M137.778 150.221C137.778 150.221 135.489 152.683 131.913 151.693C128.338 150.705 127.006 153.521 123.355 152.873C119.703 152.226 117.993 149.335 117.993 149.335C117.993 149.335 117.721 150.81 119.095 153.406C121.289 157.547 126.967 155.543 129.25 160.265C130.366 162.571 125.447 168.775 129.453 169.029C136.339 169.466 129.574 163.89 133.155 158.693C134.494 156.75 137.633 153.237 137.778 150.221Z" fill="#63C7D3"/>
</g>
</g>
<g opacity="0.199997">
<g opacity="0.199997">
<path opacity="0.199997" d="M181.823 157.676C181.823 157.676 179.533 160.138 175.959 159.148C172.383 158.159 171.052 160.975 167.4 160.327C163.749 159.68 162.037 156.791 162.037 156.791C162.037 156.791 161.767 158.264 163.14 160.86C165.333 165.002 171.013 162.999 173.296 167.719C174.411 170.026 169.492 176.23 173.499 176.483C180.385 176.92 173.619 171.346 177.201 166.148C178.539 164.204 181.679 160.692 181.823 157.676Z" fill="#63C7D3"/>
</g>
</g>
<path d="M161.643 335.385C147.643 356.081 93.4351 349.695 76.8898 331.338C76.3178 330.707 75.7938 330.059 75.3191 329.402C74.5444 328.333 73.8964 327.23 73.3871 326.093C64.0951 305.346 78.1604 285.514 92.7831 279.299C93.4964 278.994 94.2058 278.723 94.9191 278.487C95.2484 278.379 95.5818 278.274 95.9111 278.181C95.9111 278.181 123.239 269.967 149.934 281.495C150.799 281.867 151.664 282.262 152.526 282.675C156.514 284.601 160.471 286.986 164.296 289.929C164.296 289.929 176.903 312.823 161.643 335.385" fill="#F2F2F2"/>
<g opacity="0.199997">
<g opacity="0.199997">
<path opacity="0.199997" d="M152.525 282.675C151.787 282.954 151.049 283.236 150.321 283.527C146.448 285.075 142.593 286.66 138.796 288.391C125.415 294.5 112.597 301.815 100.631 310.376C94.764 314.575 89.0707 319.031 83.8027 323.968C81.3133 326.303 79.048 328.775 76.8893 331.338C76.3187 330.707 75.7933 330.059 75.3187 329.402C77.788 326.339 80.608 323.536 83.3947 320.988C93.7253 311.548 105.557 303.518 117.716 296.575C115.725 295.344 114.031 293.506 112.344 291.963C110.241 290.035 107.989 288.322 105.699 286.624C103.459 284.963 101.044 283.591 98.6227 282.215C96.7547 281.159 94.7027 280.315 92.784 279.299C93.4973 278.994 94.2067 278.723 94.9187 278.487C96.4867 278.97 98.0253 279.61 99.472 280.192C102.231 281.304 104.863 282.762 107.432 284.251C110.031 285.759 118.827 292.998 119.895 295.344C126.428 291.696 133.139 288.387 140.02 285.451C143.292 284.054 146.585 282.694 149.935 281.495C150.799 281.868 151.664 282.262 152.525 282.675Z" fill="black"/>
</g>
</g>
<path d="M135.855 265.799C134.372 263.215 131.363 262.395 128.555 262.687C125.444 263.009 122.365 264.627 120.8 267.42C119.547 269.66 121.391 275.416 121.391 275.416H122.661C122.661 275.416 122.156 271.604 122.885 269.744C123.564 268.011 125.008 266.736 126.755 266.124C128.416 265.543 130.757 265.275 132.299 266.327C133.825 267.367 133.952 269.573 133.997 271.247C134.124 275.877 133.189 280.537 131.297 284.769C130.893 285.673 130.477 286.436 129.364 286.24C128.431 286.077 127.625 285.445 127.008 284.755C125.767 283.367 125.183 281.444 125.209 279.604C125.245 277.084 126.319 274.739 127.692 272.675C127.889 272.381 128.329 271.532 128.716 271.447C128.737 271.441 128.753 271.437 128.768 271.433C128.773 271.441 128.781 271.451 128.792 271.463C128.9 271.577 128.871 271.885 128.877 272.033C128.907 272.604 128.84 275.993 128.84 275.993L130.767 276.327C130.767 276.327 132.676 269.651 129.523 268.795C126.577 267.993 124.632 272.353 123.753 274.436C122.625 277.109 122.159 280.092 123.015 282.916C123.787 285.463 125.575 287.807 128.116 288.773C129.483 289.295 131.016 289.288 132.245 288.433C133.6 287.492 134.244 285.725 134.825 284.253C136.041 281.163 136.74 277.873 136.989 274.565C137.201 271.739 137.315 268.345 135.855 265.799Z" fill="#FF7575"/>
<path d="M29.3729 198.651L30.1995 190.302C44.3675 189.059 54.2702 202.106 54.2702 202.106C46.1675 180.863 37.1195 184.415 37.1195 184.415L38.5102 175.657C56.7262 174.055 60.5755 200.113 60.5755 200.113L62.8662 182.514C67.8129 182.801 68.9075 188.465 68.9075 188.465C67.1622 193.177 67.6115 209.213 67.6115 209.213C93.6222 243.262 119.132 242.505 125.017 241.498C125.304 241.449 125.604 241.447 125.917 241.47C124.946 246.858 122.934 251.729 119.553 255.813C77.8009 247.631 63.8409 214.103 63.8409 214.103C56.0769 215.865 52.5329 228.771 52.5329 228.771L46.8235 223.874C47.5182 219.495 53.0569 212.89 53.0569 212.89C46.9609 210.427 35.9942 216.669 35.9942 216.669L32.1289 209.569C37.9262 204.499 51.0635 206.585 51.0635 206.585C42.1555 196.69 29.3729 198.651 29.3729 198.651Z" fill="#FFC2A2"/>
<g opacity="0.300003">
<g opacity="0.300003">
<path opacity="0.300003" d="M64.2642 210.87C71.6162 221.648 80.7456 230.88 91.4162 238.412C96.4522 241.968 101.746 245.272 107.454 247.644C109.931 248.674 119.196 251.081 122.55 251.36C121.703 252.925 120.712 254.41 119.56 255.804C78.3122 247.381 63.8402 214.104 63.8402 214.104C63.7309 214.128 63.6229 214.158 63.5149 214.186C63.6736 213.044 63.9056 211.93 64.2642 210.87Z" fill="#E38D66"/>
</g>
</g>
<g opacity="0.199997">
<g opacity="0.199997">
<path opacity="0.199997" d="M139.96 164.67C141.256 160.094 148.649 148.879 148.649 148.879C148.649 148.879 151.957 163.126 150.661 167.701C149.365 172.278 146.182 173.425 143.228 172.587C140.272 171.751 138.664 169.247 139.96 164.67Z" fill="#F64F48"/>
</g>
</g>
<path d="M316.26 75.4119C316.44 75.9279 316.61 76.4732 316.78 77.0306C316.866 77.1119 316.934 77.2106 316.963 77.3212C317.058 77.6639 317.128 78.0132 317.191 78.3626C318.32 81.9572 319.822 85.4532 324.59 84.1812C328.102 83.2452 329.547 80.5852 327.426 77.3666C326.706 76.2746 325.911 75.3692 324.73 74.7519C324.04 74.3906 321.956 74.3772 321.623 73.9332C321.679 74.0079 321.668 74.1252 321.574 74.1679C321.536 74.1852 321.498 74.2039 321.459 74.2199C321.328 74.2799 321.183 74.2266 321.115 74.1026C320.378 72.7492 321.783 72.2959 323.35 72.2466C326.42 69.8852 331.008 73.6372 332.603 76.3626C335.047 80.5346 335.912 87.6026 332.279 91.3986C328.848 94.9839 322.416 93.8146 318.892 91.0106C315.807 88.5572 314.292 84.0586 314.89 80.1119C314.634 78.5799 314.712 76.9759 315.11 75.4826C315.24 74.9892 316.083 74.9026 316.26 75.4119Z" fill="#FFC748"/>
<path d="M289.848 77.1283C290.953 87.0349 302.47 89.1083 310.237 86.3309C319.766 82.9269 327.456 74.6989 331.166 65.4083C334.07 58.1389 335.077 44.0309 323.933 43.3136C316.985 42.8669 314.71 48.9789 312.012 54.5003C309.964 57.1629 307.912 59.3563 304.913 61.1016C302.308 62.6203 299.512 63.7669 296.976 65.4096C292.962 68.0109 289.273 71.9829 289.848 77.1283Z" fill="#FF6969"/>
<path d="M287.666 52.4693C288.948 54.0373 290.717 55.2266 292.697 55.6946C294.864 56.2066 298.404 54.5706 300.152 55.9173C301.84 57.2173 302.204 60.7106 303.498 62.4573C304.745 64.1413 306.485 65.4866 308.548 65.9573C311.828 66.7066 315.745 64.7666 316.388 61.2613C317.288 56.356 310.944 54.1293 311.753 49.3946C312.194 46.824 313.382 44.8093 313.193 42.1026C313.174 41.8453 313.129 41.592 313.097 41.336C313.044 38.3533 311.532 35.276 309.398 33.2506C305.78 29.8173 300.2 28.9573 295.578 30.628C287.616 33.5066 281.682 45.1466 287.666 52.4693Z" fill="#FFADB7"/>
</svg>
