<svg width="576" height="524" viewBox="0 0 576 524" fill="none" xmlns="http://www.w3.org/2000/svg">
<path d="M223.2 118.1C223.2 112.3 224.8 106.9 227.4 102.2C213.9 105.9 204 118.3 204 133C204 150.7 218.3 165 236 165C247.9 165 258.2 158.5 263.8 148.9C261.1 149.7 258.2 150.1 255.2 150.1C237.5 150.1 223.2 135.7 223.2 118.1Z" fill="#FAFCFB"/>
<path d="M371.4 398.8C373.554 398.8 375.3 397.054 375.3 394.9C375.3 392.746 373.554 391 371.4 391C369.246 391 367.5 392.746 367.5 394.9C367.5 397.054 369.246 398.8 371.4 398.8Z" fill="#FAFCFB"/>
<path d="M127 369.6C129.154 369.6 130.9 367.854 130.9 365.7C130.9 363.546 129.154 361.8 127 361.8C124.846 361.8 123.1 363.546 123.1 365.7C123.1 367.854 124.846 369.6 127 369.6Z" fill="#FAFCFB"/>
<path d="M193 191.1C194.436 191.1 195.6 189.936 195.6 188.5C195.6 187.064 194.436 185.9 193 185.9C191.564 185.9 190.4 187.064 190.4 188.5C190.4 189.936 191.564 191.1 193 191.1Z" fill="#FAFCFB"/>
<path d="M346.4 108.4C347.836 108.4 349 107.236 349 105.8C349 104.364 347.836 103.2 346.4 103.2C344.964 103.2 343.8 104.364 343.8 105.8C343.8 107.236 344.964 108.4 346.4 108.4Z" fill="#FAFCFB"/>
<path d="M210.7 351.4C212.136 351.4 213.3 350.236 213.3 348.8C213.3 347.364 212.136 346.2 210.7 346.2C209.264 346.2 208.1 347.364 208.1 348.8C208.1 350.236 209.264 351.4 210.7 351.4Z" fill="#FAFCFB"/>
<path d="M437.1 329.2C439.254 329.2 441 327.454 441 325.3C441 323.146 439.254 321.4 437.1 321.4C434.946 321.4 433.2 323.146 433.2 325.3C433.2 327.454 434.946 329.2 437.1 329.2Z" fill="#FAFCFB"/>
<path d="M371.6 219.1C373.754 219.1 375.5 217.354 375.5 215.2C375.5 213.046 373.754 211.3 371.6 211.3C369.446 211.3 367.7 213.046 367.7 215.2C367.7 217.354 369.446 219.1 371.6 219.1Z" fill="#FAFCFB"/>
</svg>
