<svg width="138" height="179" viewBox="0 0 138 179" fill="none" xmlns="http://www.w3.org/2000/svg">
<path d="M107.8 0.700012H94.3H84.7H80.7H71.1H67.2H57.6H53.6H44H40H30.5L0.400024 81.7H21H25.1H44.8H48.8H67.2H71.1H89.5H93.5H113.2H137.9L107.8 0.700012Z" fill="#CF3D23"/>
<path d="M117.1 140.6C116.4 120.9 99.8 105.4 80 105.4H80.7V81.7H57.4V105.4H58.1C38.4 105.4 21.7 120.8 21 140.6C21 141.1 21 141.7 21 142.2C21 142.7 21 143.3 21 143.8C21.7 163.5 38.3 179 58.1 179H79.9C99.6 179 116.3 163.6 117 143.8C117 143.3 117 142.7 117 142.2C117.1 141.7 117.1 141.1 117.1 140.6Z" fill="#47515E"/>
</svg>
