<svg width="1323" height="770" viewBox="0 0 1323 770" fill="none" xmlns="http://www.w3.org/2000/svg">
<path d="M49.8 746.4H37.3V733.9C37.3 732 35.8 730.4 33.8 730.4C31.8 730.4 30.3 731.9 30.3 733.9V746.4H17.9C16 746.4 14.4 747.9 14.4 749.9C14.4 751.9 15.9 753.4 17.9 753.4H30.4V765.9C30.4 767.8 31.9 769.4 33.9 769.4C35.9 769.4 37.4 767.9 37.4 765.9V753.4H49.9C51.8 753.4 53.4 751.9 53.4 749.9C53.4 747.9 51.8 746.4 49.8 746.4Z" fill="#EAF5FE"/>
<path d="M709.6 81.2H700.4V72C700.4 70.6 699.3 69.4 697.8 69.4C696.3 69.4 695.2 70.5 695.2 72V81.2H686C684.6 81.2 683.4 82.3 683.4 83.8C683.4 85.2 684.5 86.4 686 86.4H695.2V95.6C695.2 97 696.3 98.2 697.8 98.2C699.3 98.2 700.4 97.1 700.4 95.6V86.4H709.6C711 86.4 712.2 85.3 712.2 83.8C712.2 82.4 711 81.2 709.6 81.2Z" fill="#EAF5FE"/>
<path d="M652.8 59H659.1V65.3C659.1 66.3 659.9 67 660.8 67C661.7 67 662.5 66.2 662.5 65.3V59H668.8C669.8 59 670.5 58.2 670.5 57.3C670.5 56.4 669.7 55.6 668.8 55.6H662.5V49.3C662.5 48.3 661.7 47.6 660.8 47.6C659.9 47.6 659.1 48.4 659.1 49.3V55.6H652.8C651.8 55.6 651.1 56.4 651.1 57.3C651.1 58.2 651.8 59 652.8 59Z" fill="#EAF5FE"/>
<path d="M1241 15.8H1247.3V22.1C1247.3 23.1 1248.1 23.8 1249 23.8C1250 23.8 1250.7 23 1250.7 22.1V15.8H1257C1258 15.8 1258.7 15 1258.7 14.1C1258.7 13.2 1257.9 12.4 1257 12.4H1250.7V5.99999C1250.7 4.99999 1249.9 4.29999 1249 4.29999C1248 4.29999 1247.3 5.09999 1247.3 5.99999V12.3H1241C1240 12.3 1239.3 13.1 1239.3 14C1239.3 14.9 1240.1 15.8 1241 15.8Z" fill="#EAF5FE"/>
<path d="M1241.2 388.9H1234.9V382.6C1234.9 381.6 1234.1 380.9 1233.2 380.9C1232.2 380.9 1231.5 381.7 1231.5 382.6V388.9H1225.2C1224.2 388.9 1223.5 389.7 1223.5 390.6C1223.5 391.5 1224.3 392.3 1225.2 392.3H1231.5V398.6C1231.5 399.6 1232.3 400.3 1233.2 400.3C1234.2 400.3 1234.9 399.5 1234.9 398.6V392.3H1241.2C1242.2 392.3 1242.9 391.5 1242.9 390.6C1242.9 389.7 1242.2 388.9 1241.2 388.9Z" fill="#EAF5FE"/>
<path d="M607.4 387.2H600.3V380.9C600.3 379.4 598.4 378.3 596.8 380.1V387.2H590.5C589 387.2 587.9 389.1 589.7 390.7H596.8V397.8C598.3 399.5 600.3 398.5 600.3 397V390.7H606.6C608.1 390.7 609.1 388.7 607.4 387.2Z" fill="#EAF5FE"/>
<path d="M1302 439.3H1295.7V433C1295.7 432 1294.9 431.3 1294 431.3C1293 431.3 1292.3 432.1 1292.3 433V439.3H1286C1285 439.3 1284.3 440.1 1284.3 441C1284.3 442 1285.1 442.7 1286 442.7H1292.3V449C1292.3 450 1293.1 450.7 1294 450.7C1295 450.7 1295.7 449.9 1295.7 449V442.7H1302C1303 442.7 1303.7 441.9 1303.7 441C1303.7 440 1302.9 439.3 1302 439.3Z" fill="#EAF5FE"/>
<path d="M21.6 684.2C22.7 684.2 23.6 683.3 23.6 682.2C23.6 681.1 22.7 680.2 21.6 680.2H14.2V672.8C14.2 671.7 13.3 670.8 12.2 670.8C11.1 670.8 10.2 671.7 10.2 672.8V680.2H2.79999C1.69999 680.2 0.799988 681.1 0.799988 682.2C0.799988 683.3 1.69999 684.2 2.79999 684.2H10.2V691.6C10.2 692.7 11.1 693.6 12.2 693.6C13.3 693.6 14.2 692.7 14.2 691.6V684.2H21.6Z" fill="#EAF5FE"/>
<path d="M72.4 605.1H45.3V609.6H72.4V605.1Z" fill="#EAF5FE"/>
<path d="M123.6 639.4H96.5V643.9H123.6V639.4Z" fill="#EAF5FE"/>
<path d="M123.7 658.4H110.1V662.9H123.7V658.4Z" fill="#EAF5FE"/>
<path d="M910.8 0.5H783.5V5H910.8V0.5Z" fill="#EAF5FE"/>
<path d="M1229.6 81.1H1202.5V85.6H1229.6V81.1Z" fill="#EAF5FE"/>
<path d="M860.7 18.8H783.5V23.3H860.7V18.8Z" fill="#EAF5FE"/>
<path d="M1322.9 141H1233.2V145.5H1322.9V141Z" fill="#EAF5FE"/>
<path d="M1322.8 160H1246.7V164.5H1322.8V160Z" fill="#EAF5FE"/>
<path d="M789.5 359.5H762.4V364H789.5V359.5Z" fill="#EAF5FE"/>
<path d="M978.3 358.9H888.6V363.4H978.3V358.9Z" fill="#EAF5FE"/>
<path d="M978.3 377.9H902.2V382.4H978.3V377.9Z" fill="#EAF5FE"/>
<path d="M595 148.5H554.7V155.2H595V148.5Z" fill="#EAF5FE"/>
<path d="M671.3 199.5H631V206.2H671.3V199.5Z" fill="#EAF5FE"/>
<path d="M671.3 227.8H651.1V234.5H671.3V227.8Z" fill="#EAF5FE"/>
</svg>
