<svg width="590" height="147" viewBox="0 0 590 147" fill="none" xmlns="http://www.w3.org/2000/svg">
<path d="M365.563 92.951H488.718V100.246H365.563V92.951Z" fill="#808184"/>
<path d="M362.534 98.246H496.647V105.557H362.534V98.246Z" fill="#221F20"/>
<path fill-rule="evenodd" clip-rule="evenodd" d="M499.718 112.387H364.591C360.901 112.387 357.887 115.403 357.887 119.092C357.887 122.781 360.901 125.795 364.591 125.795H499.718C503.408 125.795 506.422 122.781 506.422 119.092C506.422 115.402 503.408 112.387 499.718 112.387Z" fill="#221F20"/>
<path d="M348.098 101.895H524.352V121.795H348.098V101.895Z" fill="#404042"/>
<path d="M509.9 97.514H586.661V127.26H509.9V97.514Z" fill="#221F20"/>
<path fill-rule="evenodd" clip-rule="evenodd" d="M589.746 109.992H571.295V134.781H582.703C586.577 134.781 589.746 131.613 589.746 127.74V109.992Z" fill="#58595B"/>
<path fill-rule="evenodd" clip-rule="evenodd" d="M589.746 107.289C580.309 107.289 570.858 107.289 561.422 107.289C561.422 103.416 558.253 100.246 554.38 100.246C537.606 100.246 520.817 100.246 504.027 100.246C504.027 80.049 504.027 59.838 504.027 39.627C504.027 35.754 507.196 32.584 511.069 32.584C528.661 32.584 546.253 32.584 563.844 32.584C570.943 32.584 589.745 86.979 589.745 86.979C589.746 93.754 589.746 100.527 589.746 107.289Z" fill="#F58220"/>
<path fill-rule="evenodd" clip-rule="evenodd" d="M526.323 100.246C526.323 80.049 526.323 59.838 526.323 39.627C526.323 35.754 529.492 32.584 533.365 32.584H511.069C507.196 32.584 504.027 35.754 504.027 39.627C504.027 59.838 504.027 80.049 504.027 100.246H526.323Z" fill="#E27226"/>
<path fill-rule="evenodd" clip-rule="evenodd" d="M516.154 73.992V39.627C516.154 38.078 517.422 36.811 518.971 36.811C536.294 36.811 531.266 36.811 548.59 36.811C550.083 38.206 552.605 42.868 553.364 44.332C556.068 49.514 558.434 54.992 560.675 60.402C562.534 64.894 564.336 69.429 566.069 73.992H516.154Z" fill="#E6F6FD"/>
<path fill-rule="evenodd" clip-rule="evenodd" d="M568.352 36.811H558.591C560.084 38.206 562.606 42.868 563.365 44.332C566.069 49.514 568.435 54.992 570.675 60.402C572.535 64.894 574.337 69.429 576.07 73.992H585.028C580.492 61.938 573.577 44.684 568.352 36.811Z" fill="#E6F6FD"/>
<path fill-rule="evenodd" clip-rule="evenodd" d="M578.619 84.246C576.492 84.246 574.76 85.978 574.76 88.092V98.303C574.76 100.627 576.661 102.528 578.986 102.528H580.802C583.126 102.528 585.028 100.628 585.028 98.303V90.67C585.027 87.135 582.141 84.246 578.619 84.246Z" fill="white"/>
<path fill-rule="evenodd" clip-rule="evenodd" d="M578.154 102.457C580.097 102.062 581.562 100.346 581.562 98.303V90.67C581.562 87.824 579.675 85.387 577.112 84.557C575.731 85.149 574.759 86.514 574.759 88.092V98.303C574.76 100.346 576.225 102.063 578.154 102.457Z" fill="#E6F6FD"/>
<path fill-rule="evenodd" clip-rule="evenodd" d="M516.154 96.289H559.027C563.295 96.289 566.774 92.797 566.774 88.543V79.725C566.774 79.346 566.463 79.022 566.069 79.022C565.689 79.022 565.365 79.346 565.365 79.725V88.543C565.365 92.022 562.52 94.881 559.027 94.881H516.154C515.759 94.881 515.45 95.19 515.45 95.584C515.45 95.965 515.76 96.289 516.154 96.289Z" fill="#B75E27"/>
<path fill-rule="evenodd" clip-rule="evenodd" d="M530.225 77.613H522.422C521.648 77.613 521.014 78.246 521.014 79.021V80.781C521.014 81.556 521.648 82.189 522.422 82.189H530.225C530.999 82.189 531.633 81.556 531.633 80.781V79.021C531.633 78.246 530.999 77.613 530.225 77.613Z" fill="#B75E27"/>
<path fill-rule="evenodd" clip-rule="evenodd" d="M580.802 92.402H574.76V98.302C574.76 100.626 576.661 102.527 578.986 102.527H580.802C583.126 102.527 585.028 100.627 585.028 98.302V96.626C585.027 94.303 583.126 92.402 580.802 92.402Z" fill="#EF4323"/>
<path fill-rule="evenodd" clip-rule="evenodd" d="M580.52 109.992H571.294V134.781H573.478C577.351 134.781 580.52 131.613 580.52 127.74V109.992Z" fill="#404042"/>
<path fill-rule="evenodd" clip-rule="evenodd" d="M526.323 73.992V39.627C526.323 38.627 526.534 37.67 526.915 36.811H518.972C517.422 36.811 516.155 38.079 516.155 39.627V73.992H526.323Z" fill="#CCEAF5"/>
<path d="M108.985 92.951H232.154V100.246H108.985V92.951Z" fill="#808184"/>
<path fill-rule="evenodd" clip-rule="evenodd" d="M578.154 102.457C580.097 102.062 581.562 100.346 581.562 98.303V92.473C581.309 92.416 581.055 92.403 580.801 92.403H574.759V98.303C574.76 100.346 576.225 102.063 578.154 102.457Z" fill="#D83327"/>
<path d="M89.76 98.246H251.38V105.557H89.76V98.246Z" fill="#221F20"/>
<path fill-rule="evenodd" clip-rule="evenodd" d="M536.492 146.711C524.295 146.711 514.408 136.824 514.408 124.627C514.408 112.43 524.295 102.527 536.492 102.527C548.703 102.527 558.591 112.429 558.591 124.627C558.591 136.825 548.703 146.711 536.492 146.711Z" fill="#58595B"/>
<path fill-rule="evenodd" clip-rule="evenodd" d="M526.183 105.092C525.578 107.106 525.24 109.26 525.24 111.473C525.24 123.684 535.127 133.571 547.339 133.571C551.057 133.571 554.564 132.641 557.649 131.008C554.902 140.092 546.48 146.711 536.494 146.711C524.297 146.711 514.41 136.824 514.41 124.627C514.408 116.148 519.183 108.795 526.183 105.092Z" fill="#404042"/>
<path fill-rule="evenodd" clip-rule="evenodd" d="M536.492 137.895C529.168 137.895 523.224 131.952 523.224 124.627C523.224 117.289 529.167 111.346 536.492 111.346C543.83 111.346 549.774 117.289 549.774 124.627C549.774 131.951 543.83 137.895 536.492 137.895Z" fill="#D1D2D4"/>
<path fill-rule="evenodd" clip-rule="evenodd" d="M536.492 129.232C533.957 129.232 531.887 127.175 531.887 124.627C531.887 122.079 533.957 120.008 536.492 120.008C539.042 120.008 541.112 122.078 541.112 124.627C541.112 127.176 539.042 129.232 536.492 129.232Z" fill="#404042"/>
<path fill-rule="evenodd" clip-rule="evenodd" d="M525.858 116.67C528.126 126.049 536.365 133.092 546.337 133.543C543.9 136.219 540.394 137.895 536.492 137.895C529.168 137.895 523.224 131.952 523.224 124.627C523.225 121.641 524.196 118.895 525.858 116.67Z" fill="#BBBDBF"/>
<path fill-rule="evenodd" clip-rule="evenodd" d="M536.492 99.711C522.746 99.711 511.591 110.865 511.591 124.627C511.591 126.697 511.845 128.711 512.323 130.641H515.239C514.704 128.725 514.408 126.711 514.408 124.627C514.408 112.43 524.295 102.527 536.492 102.527C548.703 102.527 558.591 112.429 558.591 124.627C558.591 126.711 558.295 128.725 557.76 130.641H560.661C561.14 128.711 561.408 126.698 561.408 124.627C561.408 110.865 550.253 99.711 536.492 99.711Z" fill="#808184"/>
<path fill-rule="evenodd" clip-rule="evenodd" d="M495.126 103.584H465.196C461.323 103.584 458.154 106.754 458.154 110.627V126.289C458.154 130.162 461.323 133.332 465.196 133.332H495.126C498.999 133.332 502.168 130.162 502.168 126.289V110.627C502.168 106.754 498.999 103.584 495.126 103.584Z" fill="#D1D2D4"/>
<path fill-rule="evenodd" clip-rule="evenodd" d="M429.464 146.711C417.267 146.711 407.365 136.824 407.365 124.627C407.365 112.43 417.266 102.527 429.464 102.527C441.662 102.527 451.549 112.429 451.549 124.627C451.549 136.825 441.661 146.711 429.464 146.711Z" fill="#58595B"/>
<path fill-rule="evenodd" clip-rule="evenodd" d="M419.14 105.092C418.535 107.106 418.211 109.26 418.211 111.473C418.211 123.684 428.098 133.571 440.295 133.571C444.014 133.571 447.521 132.641 450.606 131.008C447.859 140.092 439.437 146.711 429.464 146.711C417.267 146.711 407.365 136.824 407.365 124.627C407.365 116.148 412.141 108.795 419.14 105.092Z" fill="#404042"/>
<path fill-rule="evenodd" clip-rule="evenodd" d="M429.464 137.895C422.126 137.895 416.183 131.952 416.183 124.627C416.183 117.289 422.126 111.346 429.464 111.346C436.788 111.346 442.732 117.289 442.732 124.627C442.731 131.951 436.788 137.895 429.464 137.895Z" fill="#D1D2D4"/>
<path fill-rule="evenodd" clip-rule="evenodd" d="M429.464 129.232C426.915 129.232 424.845 127.175 424.845 124.627C424.845 122.079 426.915 120.008 429.464 120.008C432.014 120.008 434.069 122.078 434.069 124.627C434.069 127.176 432.014 129.232 429.464 129.232Z" fill="#404042"/>
<path fill-rule="evenodd" clip-rule="evenodd" d="M418.816 116.67C421.084 126.049 429.323 133.092 439.295 133.543C436.858 136.219 433.365 137.895 429.464 137.895C422.126 137.895 416.183 131.952 416.183 124.627C416.183 121.641 417.168 118.895 418.816 116.67Z" fill="#BBBDBF"/>
<path fill-rule="evenodd" clip-rule="evenodd" d="M429.464 99.711C415.703 99.711 404.549 110.865 404.549 124.627C404.549 126.697 404.817 128.711 405.295 130.641H408.196C407.661 128.725 407.365 126.711 407.365 124.627C407.365 112.43 417.266 102.527 429.464 102.527C441.662 102.527 451.549 112.429 451.549 124.627C451.549 126.711 451.253 128.725 450.718 130.641H453.633C454.112 128.711 454.365 126.698 454.365 124.627C454.365 110.865 443.211 99.711 429.464 99.711Z" fill="#808184"/>
<path fill-rule="evenodd" clip-rule="evenodd" d="M348.098 96.908C345.563 96.908 343.479 98.978 343.479 101.513V122.175C343.479 124.71 345.563 126.78 348.098 126.78C350.633 126.78 352.704 124.71 352.704 122.175V101.513C352.704 98.979 350.633 96.908 348.098 96.908Z" fill="#221F20"/>
<path fill-rule="evenodd" clip-rule="evenodd" d="M502.168 118.457H458.154V126.289C458.154 130.162 461.323 133.332 465.196 133.332H495.126C498.999 133.332 502.168 130.162 502.168 126.289V118.457Z" fill="#A7AAAC"/>
<path fill-rule="evenodd" clip-rule="evenodd" d="M379.253 146.711C367.056 146.711 357.168 136.824 357.168 124.627C357.168 112.43 367.056 102.527 379.253 102.527C391.464 102.527 401.352 112.429 401.352 124.627C401.352 136.825 391.464 146.711 379.253 146.711Z" fill="#58595B"/>
<path fill-rule="evenodd" clip-rule="evenodd" d="M368.943 105.092C368.337 107.106 367.999 109.26 367.999 111.473C367.999 123.684 377.887 133.571 390.098 133.571C393.817 133.571 397.324 132.641 400.409 131.008C397.662 140.092 389.24 146.711 379.254 146.711C367.057 146.711 357.169 136.824 357.169 124.627C357.168 116.148 361.943 108.795 368.943 105.092Z" fill="#404042"/>
<path fill-rule="evenodd" clip-rule="evenodd" d="M379.253 137.895C371.929 137.895 365.985 131.952 365.985 124.627C365.985 117.289 371.928 111.346 379.253 111.346C386.591 111.346 392.534 117.289 392.534 124.627C392.534 131.951 386.591 137.895 379.253 137.895Z" fill="#D1D2D4"/>
<path fill-rule="evenodd" clip-rule="evenodd" d="M379.253 129.232C376.718 129.232 374.648 127.175 374.648 124.627C374.648 122.079 376.718 120.008 379.253 120.008C381.802 120.008 383.872 122.078 383.872 124.627C383.872 127.176 381.802 129.232 379.253 129.232Z" fill="#404042"/>
<path fill-rule="evenodd" clip-rule="evenodd" d="M368.619 116.67C370.887 126.049 379.126 133.092 389.098 133.543C386.661 136.219 383.155 137.895 379.253 137.895C371.929 137.895 365.985 131.952 365.985 124.627C365.985 121.641 366.957 118.895 368.619 116.67Z" fill="#BBBDBF"/>
<path fill-rule="evenodd" clip-rule="evenodd" d="M379.253 99.711C365.506 99.711 354.352 110.865 354.352 124.627C354.352 126.697 354.606 128.711 355.084 130.641H357.999C357.464 128.725 357.168 126.711 357.168 124.627C357.168 112.43 367.056 102.527 379.253 102.527C391.464 102.527 401.352 112.429 401.352 124.627C401.352 126.711 401.056 128.725 400.521 130.641H403.422C403.901 128.711 404.168 126.698 404.168 124.627C404.168 110.865 393.014 99.711 379.253 99.711Z" fill="#808184"/>
<path fill-rule="evenodd" clip-rule="evenodd" d="M267.126 101.895H75.211V121.795H251.478L267.126 101.895Z" fill="#404042"/>
<path fill-rule="evenodd" clip-rule="evenodd" d="M75.225 96.908C72.676 96.908 70.605 98.978 70.605 101.513V122.175C70.605 124.71 72.676 126.78 75.225 126.78C77.76 126.78 79.83 124.71 79.83 122.175V101.513C79.83 98.979 77.76 96.908 75.225 96.908Z" fill="#221F20"/>
<path fill-rule="evenodd" clip-rule="evenodd" d="M164.858 146.711C152.661 146.711 142.774 136.824 142.774 124.627C142.774 112.43 152.661 102.527 164.858 102.527C177.055 102.527 186.943 112.429 186.943 124.627C186.943 136.825 177.056 146.711 164.858 146.711Z" fill="#58595B"/>
<path fill-rule="evenodd" clip-rule="evenodd" d="M154.549 105.092C153.929 107.106 153.606 109.26 153.606 111.473C153.606 123.684 163.493 133.571 175.69 133.571C179.422 133.571 182.929 132.641 186.014 131.008C183.267 140.092 174.845 146.711 164.859 146.711C152.662 146.711 142.775 136.824 142.775 124.627C142.774 116.148 147.549 108.795 154.549 105.092Z" fill="#404042"/>
<path fill-rule="evenodd" clip-rule="evenodd" d="M164.858 137.895C157.534 137.895 151.59 131.952 151.59 124.627C151.59 117.289 157.533 111.346 164.858 111.346C172.196 111.346 178.14 117.289 178.14 124.627C178.141 131.951 172.196 137.895 164.858 137.895Z" fill="#D1D2D4"/>
<path fill-rule="evenodd" clip-rule="evenodd" d="M164.858 129.232C162.309 129.232 160.253 127.175 160.253 124.627C160.253 122.079 162.31 120.008 164.858 120.008C167.408 120.008 169.478 122.078 169.478 124.627C169.478 127.176 167.408 129.232 164.858 129.232Z" fill="#404042"/>
<path fill-rule="evenodd" clip-rule="evenodd" d="M154.225 116.67C156.493 126.049 164.732 133.092 174.69 133.543C172.267 136.219 168.76 137.895 164.859 137.895C157.535 137.895 151.591 131.952 151.591 124.627C151.591 121.641 152.562 118.895 154.225 116.67Z" fill="#BBBDBF"/>
<path fill-rule="evenodd" clip-rule="evenodd" d="M164.858 99.711C151.112 99.711 139.957 110.865 139.957 124.627C139.957 126.697 140.211 128.711 140.689 130.641H143.605C143.07 128.725 142.774 126.711 142.774 124.627C142.774 112.43 152.661 102.527 164.858 102.527C177.055 102.527 186.943 112.429 186.943 124.627C186.943 126.711 186.661 128.725 186.112 130.641H189.027C189.506 128.711 189.759 126.698 189.759 124.627C189.76 110.865 178.619 99.711 164.858 99.711Z" fill="#808184"/>
<path fill-rule="evenodd" clip-rule="evenodd" d="M114.661 146.711C102.464 146.711 92.577 136.824 92.577 124.627C92.577 112.43 102.464 102.527 114.661 102.527C126.858 102.527 136.746 112.429 136.746 124.627C136.746 136.825 126.858 146.711 114.661 146.711Z" fill="#58595B"/>
<path fill-rule="evenodd" clip-rule="evenodd" d="M104.352 105.092C103.732 107.106 103.409 109.26 103.409 111.473C103.409 123.684 113.296 133.571 125.493 133.571C129.225 133.571 132.732 132.641 135.803 131.008C133.072 140.092 124.634 146.711 114.662 146.711C102.465 146.711 92.578 136.824 92.578 124.627C92.577 116.148 97.352 108.795 104.352 105.092Z" fill="#404042"/>
<path fill-rule="evenodd" clip-rule="evenodd" d="M114.661 137.895C107.323 137.895 101.38 131.952 101.38 124.627C101.38 117.289 107.323 111.346 114.661 111.346C121.999 111.346 127.943 117.289 127.943 124.627C127.943 131.951 121.999 137.895 114.661 137.895Z" fill="#D1D2D4"/>
<path fill-rule="evenodd" clip-rule="evenodd" d="M114.661 129.232C112.112 129.232 110.056 127.175 110.056 124.627C110.056 122.079 112.113 120.008 114.661 120.008C117.211 120.008 119.266 122.078 119.266 124.627C119.266 127.176 117.211 129.232 114.661 129.232Z" fill="#404042"/>
<path fill-rule="evenodd" clip-rule="evenodd" d="M104.027 116.67C106.281 126.049 114.534 133.092 124.492 133.543C122.069 136.219 118.562 137.895 114.661 137.895C107.323 137.895 101.38 131.952 101.38 124.627C101.38 121.641 102.365 118.895 104.027 116.67Z" fill="#BBBDBF"/>
<path fill-rule="evenodd" clip-rule="evenodd" d="M114.661 99.711C100.901 99.711 89.76 110.865 89.76 124.627C89.76 126.697 90.0141 128.711 90.4921 130.641H93.408C92.858 128.725 92.577 126.711 92.577 124.627C92.577 112.43 102.464 102.527 114.661 102.527C126.858 102.527 136.746 112.429 136.746 124.627C136.746 126.711 136.464 128.725 135.915 130.641H138.83C139.309 128.711 139.562 126.698 139.562 124.627C139.562 110.865 128.422 99.711 114.661 99.711Z" fill="#808184"/>
<path fill-rule="evenodd" clip-rule="evenodd" d="M215.056 146.711C202.859 146.711 192.972 136.824 192.972 124.627C192.972 112.43 202.859 102.527 215.056 102.527C227.253 102.527 237.155 112.429 237.155 124.627C237.155 136.825 227.253 146.711 215.056 146.711Z" fill="#58595B"/>
<path fill-rule="evenodd" clip-rule="evenodd" d="M204.746 105.092C204.141 107.106 203.803 109.26 203.803 111.473C203.803 123.684 213.69 133.571 225.887 133.571C229.619 133.571 233.126 132.641 236.211 131.008C233.464 140.092 225.042 146.711 215.056 146.711C202.859 146.711 192.972 136.824 192.972 124.627C192.972 116.148 197.746 108.795 204.746 105.092Z" fill="#404042"/>
<path fill-rule="evenodd" clip-rule="evenodd" d="M215.056 137.895C207.732 137.895 201.788 131.952 201.788 124.627C201.788 117.289 207.731 111.346 215.056 111.346C222.394 111.346 228.338 117.289 228.338 124.627C228.338 131.951 222.394 137.895 215.056 137.895Z" fill="#D1D2D4"/>
<path fill-rule="evenodd" clip-rule="evenodd" d="M215.056 129.232C212.521 129.232 210.451 127.175 210.451 124.627C210.451 122.079 212.521 120.008 215.056 120.008C217.605 120.008 219.676 122.078 219.676 124.627C219.676 127.176 217.604 129.232 215.056 129.232Z" fill="#404042"/>
<path fill-rule="evenodd" clip-rule="evenodd" d="M204.422 116.67C206.69 126.049 214.929 133.092 224.901 133.543C222.464 136.219 218.958 137.895 215.056 137.895C207.732 137.895 201.788 131.952 201.788 124.627C201.788 121.641 202.76 118.895 204.422 116.67Z" fill="#BBBDBF"/>
<path fill-rule="evenodd" clip-rule="evenodd" d="M215.056 99.711C201.31 99.711 190.155 110.865 190.155 124.627C190.155 126.697 190.409 128.711 190.887 130.641H193.803C193.267 128.725 192.972 126.711 192.972 124.627C192.972 112.43 202.859 102.527 215.056 102.527C227.253 102.527 237.155 112.429 237.155 124.627C237.155 126.711 236.859 128.725 236.324 130.641H239.225C239.704 128.711 239.971 126.698 239.971 124.627C239.971 110.865 228.816 99.711 215.056 99.711Z" fill="#808184"/>
<path d="M49.59 74.74H496.647V92.951H49.59V74.74Z" fill="#BBBDBF"/>
<path d="M491.901 101.543H495.352V135.373H491.901V101.543Z" fill="#EF4323"/>
<path d="M464.985 101.543H468.422V135.373H464.985V101.543Z" fill="#EF4323"/>
<path d="M491.901 118.457H495.352V135.373H491.901V118.457Z" fill="#D83327"/>
<path d="M464.985 118.457H468.422V135.373H464.985V118.457Z" fill="#D83327"/>
<path fill-rule="evenodd" clip-rule="evenodd" d="M468.676 28.119H16.323C14.774 28.119 13.5069 26.851 13.5069 25.303V3.61401C13.5069 2.06301 14.775 0.797974 16.323 0.797974H468.676C470.225 0.797974 471.492 2.06401 471.492 3.61401V25.303C471.492 26.852 470.225 28.119 468.676 28.119Z" fill="#83472B"/>
<path fill-rule="evenodd" clip-rule="evenodd" d="M455.337 40.105H2.98492C1.43494 40.105 0.168945 38.837 0.168945 37.289V15.6C0.168945 14.049 1.43591 12.782 2.98492 12.782H455.337C456.887 12.782 458.154 14.05 458.154 15.6V37.289C458.154 38.838 456.887 40.105 455.337 40.105Z" fill="#B6623C"/>
<path fill-rule="evenodd" clip-rule="evenodd" d="M487.196 58.049H34.8299C33.2809 58.049 32.0139 56.781 32.0139 55.233V33.544C32.0139 31.993 33.2819 30.726 34.8299 30.726H487.196C488.746 30.726 490.013 31.994 490.013 33.544V55.233C490.014 56.781 488.746 58.049 487.196 58.049Z" fill="#83472B"/>
<path fill-rule="evenodd" clip-rule="evenodd" d="M483.689 74.74H23.126C21.577 74.74 20.31 73.472 20.31 71.922V48.317C20.31 46.768 21.578 45.501 23.126 45.501H483.689C485.239 45.501 486.505 46.769 486.505 48.317V71.922C486.506 73.473 485.239 74.74 483.689 74.74Z" fill="#B6623C"/>
<path fill-rule="evenodd" clip-rule="evenodd" d="M209.45 28.119L193.253 0.796997H16.323C14.774 0.796997 13.5069 2.06298 13.5069 3.61298V25.302C13.5069 26.851 14.775 28.118 16.323 28.118H209.45V28.119Z" fill="#6F3A22"/>
<path fill-rule="evenodd" clip-rule="evenodd" d="M277.619 40.105L261.435 12.781H2.98502C1.43503 12.781 0.169037 14.049 0.169037 15.599V37.288C0.169037 38.837 1.436 40.104 2.98502 40.104H277.619V40.105Z" fill="#A34E31"/>
<path fill-rule="evenodd" clip-rule="evenodd" d="M309.478 58.049L293.294 30.725H34.829C33.28 30.725 32.0131 31.993 32.0131 33.543V55.232C32.0131 56.781 33.281 58.048 34.829 58.048H309.478V58.049Z" fill="#6F3A22"/>
<path fill-rule="evenodd" clip-rule="evenodd" d="M355.014 74.74L337.69 45.5H23.1269C21.5779 45.5 20.3109 46.768 20.3109 48.316V71.921C20.3109 73.472 21.5789 74.739 23.1269 74.739H355.014V74.74Z" fill="#A34E31"/>
<path d="M492.097 23.443H496.647V92.951H492.097V23.443Z" fill="#A7AAAC"/>
<path d="M424.619 23.443H438.112V92.951H424.619V23.443Z" fill="#A7AAAC"/>
<path d="M402.338 23.443H415.83V92.951H402.338V23.443Z" fill="#A7AAAC"/>
<path d="M277.507 23.443H291.014V92.951H277.507V23.443Z" fill="#A7AAAC"/>
<path d="M255.224 23.443H268.731V92.951H255.224V23.443Z" fill="#A7AAAC"/>
<path d="M130.408 23.443H143.9V92.951H130.408V23.443Z" fill="#A7AAAC"/>
<path d="M108.126 23.443H121.619V92.951H108.126V23.443Z" fill="#A7AAAC"/>
</svg>
