<svg width="501" height="232" viewBox="0 0 501 232" fill="none" xmlns="http://www.w3.org/2000/svg">
<path d="M40.1946 0.366691H337.645C337.645 0.366691 344.601 2.55206 349.376 12.2961L401.541 81.7547C401.541 81.7547 406.305 87.3267 411.609 91.036L464.892 117.28C464.892 117.28 477.187 120.796 484.864 138.524L462.245 140.301L466.485 169.241H490.823C490.845 170.289 490.875 171.337 490.875 172.421V199.992H468.076H452.931C454.132 195.548 454.828 190.897 454.828 186.079C454.828 156.647 430.972 132.787 401.541 132.787C372.104 132.787 348.253 156.647 348.253 186.079C348.253 190.897 348.949 195.548 350.149 199.992H164.231C165.431 195.548 166.128 190.897 166.128 186.079C166.128 156.647 142.268 132.787 112.837 132.787C83.4054 132.787 59.5506 156.647 59.5506 186.079C59.5506 190.897 60.248 195.548 61.448 199.992H22.696C22.696 199.992 2.816 199.195 2.816 172.951V28.2054C2.816 28.2054 4.40666 0.366691 40.1946 0.366691Z" fill="white"/>
<path d="M462.245 140.301L484.864 138.524C488.088 145.979 490.485 155.967 490.823 169.241H466.485L462.245 140.301Z" fill="#404042"/>
<path d="M355.769 186.079C355.769 211.36 376.257 231.856 401.541 231.856C426.82 231.856 447.312 211.36 447.312 186.079C447.312 160.796 426.82 140.301 401.541 140.301C376.257 140.301 355.769 160.796 355.769 186.079Z" fill="black"/>
<path d="M380.536 186.079C380.536 197.679 389.935 207.081 401.541 207.081C413.144 207.081 422.544 197.679 422.544 186.079C422.544 174.473 413.144 165.073 401.541 165.073C389.935 165.073 380.536 174.473 380.536 186.079Z" fill="white"/>
<path d="M67.0679 186.079C67.0679 211.36 87.556 231.856 112.837 231.856C138.12 231.856 158.615 211.36 158.615 186.079C158.615 160.796 138.12 140.301 112.837 140.301C87.556 140.301 67.0679 160.796 67.0679 186.079Z" fill="black"/>
<path d="M91.8346 186.079C91.8346 197.679 101.237 207.081 112.837 207.081C124.441 207.081 133.843 197.679 133.843 186.079C133.843 174.473 124.441 165.073 112.837 165.073C101.237 165.073 91.8346 174.473 91.8346 186.079Z" fill="white"/>
<path d="M226.301 14.6827H328.896L387.748 93.4187H226.301V14.6827Z" fill="#404042"/>
<path d="M380.536 116.221H2.81592V109.855H380.536V116.221Z" fill="#F67270"/>
<path d="M430.964 128.415H2.81603V122.056H430.964V128.415Z" fill="#0D78BE"/>
<path d="M39.3999 200.72C39.3999 204.231 36.5506 207.081 33.0386 207.081H6.79053C3.2772 207.081 0.427899 204.231 0.427899 200.72V196.281C0.427899 192.768 3.2772 189.919 6.79053 189.919H33.0386C36.5506 189.919 39.3999 192.768 39.3999 196.281V200.72Z" fill="#404042"/>
<path d="M500.023 200.72C500.023 204.231 497.176 207.081 493.66 207.081H467.417C463.9 207.081 461.051 204.231 461.051 200.72V196.281C461.051 192.768 463.9 189.919 467.417 189.919H493.66C497.176 189.919 500.023 192.768 500.023 196.281V200.72Z" fill="#404042"/>
<path d="M146.473 76.5787V35.0653L109.079 56.7173L71.684 35.0653V76.5787H146.473ZM74.7786 31.5226L109.079 51.3827L143.377 31.5226H74.7786ZM71.2213 26.9066H146.929C149.224 26.9066 151.089 28.772 151.089 31.0586V77.0413C151.089 79.3293 149.224 81.1946 146.929 81.1946H71.2213C68.932 81.1946 67.0679 79.3293 67.0679 77.0413V31.0586C67.0679 28.772 68.932 26.9066 71.2213 26.9066Z" fill="#0D78BE"/>
</svg>
