<svg width="286" height="115" viewBox="0 0 286 115" fill="none" xmlns="http://www.w3.org/2000/svg">
<path d="M30.957 60.951H187.732V68.246H30.957V60.951Z" fill="#C97049"/>
<path fill-rule="evenodd" clip-rule="evenodd" d="M112.704 68.246L108.366 60.951H30.957V68.246H112.704Z" fill="#A65A3A"/>
<path d="M27.239 66.246H192.492V73.557H27.239V66.246Z" fill="#221F20"/>
<path fill-rule="evenodd" clip-rule="evenodd" d="M195.563 80.387H60.436C56.746 80.387 53.7319 83.403 53.7319 87.092C53.7319 90.781 56.746 93.795 60.436 93.795H195.563C199.252 93.795 202.267 90.781 202.267 87.092C202.267 83.402 199.253 80.387 195.563 80.387Z" fill="#221F20"/>
<path d="M13.816 69.895H220.197V89.795H13.816V69.895Z" fill="#404042"/>
<path d="M205.746 65.514H282.507V95.26H205.746V65.514Z" fill="#221F20"/>
<path fill-rule="evenodd" clip-rule="evenodd" d="M285.592 77.992H267.141V102.781H278.549C282.423 102.781 285.592 99.613 285.592 95.74V77.992Z" fill="#58595B"/>
<path fill-rule="evenodd" clip-rule="evenodd" d="M285.592 75.289C276.155 75.289 266.704 75.289 257.268 75.289C257.268 71.416 254.099 68.246 250.226 68.246C233.451 68.246 216.663 68.246 199.887 68.246C199.887 48.049 199.887 27.838 199.887 7.62701C199.887 3.75401 203.056 0.583984 206.93 0.583984C224.507 0.583984 242.098 0.583984 259.69 0.583984C266.789 0.583984 285.592 54.979 285.592 54.979C285.592 61.754 285.592 68.527 285.592 75.289Z" fill="#F58220"/>
<path fill-rule="evenodd" clip-rule="evenodd" d="M222.169 68.246C222.169 48.049 222.169 27.838 222.169 7.62701C222.169 3.75401 225.338 0.583984 229.211 0.583984H206.93C203.056 0.583984 199.887 3.75401 199.887 7.62701C199.887 27.838 199.887 48.049 199.887 68.246H222.169Z" fill="#E27226"/>
<path fill-rule="evenodd" clip-rule="evenodd" d="M212 41.992V7.62701C212 6.07801 213.268 4.81097 214.816 4.81097C232.14 4.81097 227.112 4.81097 244.436 4.81097C245.929 6.20597 248.451 10.868 249.21 12.332C251.914 17.514 254.295 22.992 256.534 28.402C258.379 32.894 260.181 37.429 261.914 41.992H212Z" fill="#E6F6FD"/>
<path fill-rule="evenodd" clip-rule="evenodd" d="M264.211 4.81097H254.437C255.93 6.20597 258.451 10.868 259.211 12.332C261.915 17.514 264.281 22.992 266.521 28.402C268.38 32.894 270.183 37.429 271.916 41.992H280.874C276.338 29.938 269.422 12.684 264.211 4.81097Z" fill="#E6F6FD"/>
<path fill-rule="evenodd" clip-rule="evenodd" d="M274.465 52.246C272.338 52.246 270.606 53.978 270.606 56.092V66.303C270.606 68.627 272.507 70.528 274.832 70.528H276.648C278.972 70.528 280.874 68.628 280.874 66.303V58.67C280.873 55.135 277.985 52.246 274.465 52.246Z" fill="white"/>
<path fill-rule="evenodd" clip-rule="evenodd" d="M274.013 70.457C275.943 70.062 277.408 68.346 277.408 66.303V58.67C277.408 55.824 275.535 53.387 272.958 52.557C271.577 53.149 270.605 54.514 270.605 56.092V66.303C270.605 68.346 272.07 70.063 274.013 70.457Z" fill="#E6F6FD"/>
<path fill-rule="evenodd" clip-rule="evenodd" d="M212 64.289H254.873C259.141 64.289 262.619 60.797 262.619 56.543V47.725C262.619 47.346 262.309 47.022 261.915 47.022C261.535 47.022 261.211 47.346 261.211 47.725V56.543C261.211 60.022 258.366 62.881 254.873 62.881H212C211.605 62.881 211.296 63.19 211.296 63.584C211.296 63.965 211.605 64.289 212 64.289Z" fill="#B75E27"/>
<path fill-rule="evenodd" clip-rule="evenodd" d="M226.07 45.613H218.267C217.493 45.613 216.858 46.246 216.858 47.021V48.781C216.858 49.556 217.493 50.189 218.267 50.189H226.07C226.844 50.189 227.478 49.556 227.478 48.781V47.021C227.478 46.246 226.844 45.613 226.07 45.613Z" fill="#B75E27"/>
<path fill-rule="evenodd" clip-rule="evenodd" d="M276.647 60.402H270.605V66.302C270.605 68.626 272.506 70.527 274.831 70.527H276.647C278.971 70.527 280.873 68.627 280.873 66.302V64.626C280.873 62.303 278.971 60.402 276.647 60.402Z" fill="#EF4323"/>
<path fill-rule="evenodd" clip-rule="evenodd" d="M276.366 77.992H267.14V102.781H269.323C273.197 102.781 276.366 99.613 276.366 95.74V77.992Z" fill="#404042"/>
<path fill-rule="evenodd" clip-rule="evenodd" d="M222.169 41.992V7.62701C222.169 6.62701 222.38 5.66997 222.761 4.81097H214.817C213.268 4.81097 212.001 6.07901 212.001 7.62701V41.992H222.169Z" fill="#CCEAF5"/>
<path fill-rule="evenodd" clip-rule="evenodd" d="M274.013 70.457C275.943 70.062 277.408 68.346 277.408 66.303V60.473C277.155 60.416 276.915 60.403 276.647 60.403H270.605V66.303C270.605 68.346 272.07 70.063 274.013 70.457Z" fill="#D83327"/>
<path fill-rule="evenodd" clip-rule="evenodd" d="M232.351 114.711C220.14 114.711 210.252 104.824 210.252 92.627C210.252 80.43 220.14 70.527 232.351 70.527C244.548 70.527 254.436 80.429 254.436 92.627C254.436 104.825 244.549 114.711 232.351 114.711Z" fill="#58595B"/>
<path fill-rule="evenodd" clip-rule="evenodd" d="M222.027 73.092C221.422 75.106 221.084 77.26 221.084 79.473C221.084 91.684 230.985 101.571 243.184 101.571C246.902 101.571 250.409 100.641 253.493 99.008C250.747 108.092 242.325 114.711 232.352 114.711C220.141 114.711 210.253 104.824 210.253 92.627C210.253 84.148 215.028 76.795 222.027 73.092Z" fill="#404042"/>
<path fill-rule="evenodd" clip-rule="evenodd" d="M232.351 105.895C225.013 105.895 219.07 99.952 219.07 92.627C219.07 85.289 225.013 79.346 232.351 79.346C239.675 79.346 245.619 85.289 245.619 92.627C245.619 99.951 239.676 105.895 232.351 105.895Z" fill="#D1D2D4"/>
<path fill-rule="evenodd" clip-rule="evenodd" d="M232.351 97.232C229.802 97.232 227.732 95.175 227.732 92.627C227.732 90.079 229.802 88.008 232.351 88.008C234.886 88.008 236.957 90.078 236.957 92.627C236.957 95.176 234.886 97.232 232.351 97.232Z" fill="#404042"/>
<path fill-rule="evenodd" clip-rule="evenodd" d="M221.704 84.67C223.972 94.049 232.211 101.092 242.183 101.543C239.746 104.219 236.24 105.895 232.352 105.895C225.014 105.895 219.071 99.952 219.071 92.627C219.07 89.641 220.056 86.895 221.704 84.67Z" fill="#BBBDBF"/>
<path fill-rule="evenodd" clip-rule="evenodd" d="M232.351 67.711C218.591 67.711 207.436 78.865 207.436 92.627C207.436 94.697 207.704 96.711 208.168 98.641H211.083C210.548 96.725 210.252 94.711 210.252 92.627C210.252 80.43 220.14 70.527 232.351 70.527C244.548 70.527 254.436 80.429 254.436 92.627C254.436 94.711 254.14 96.725 253.605 98.641H256.52C256.999 96.711 257.252 94.698 257.252 92.627C257.253 78.865 246.098 67.711 232.351 67.711Z" fill="#808184"/>
<path fill-rule="evenodd" clip-rule="evenodd" d="M180.69 71.584H150.76C146.886 71.584 143.717 74.754 143.717 78.627V94.289C143.717 98.162 146.886 101.332 150.76 101.332H180.69C184.563 101.332 187.732 98.162 187.732 94.289V78.627C187.732 74.754 184.563 71.584 180.69 71.584Z" fill="#D1D2D4"/>
<path fill-rule="evenodd" clip-rule="evenodd" d="M187.211 76.514H144.225C140.352 76.514 137.183 79.684 137.183 83.557V89.36C137.183 93.233 140.352 96.401 144.225 96.401H187.211C191.084 96.401 194.253 93.233 194.253 89.36V83.557C194.253 79.684 191.084 76.514 187.211 76.514Z" fill="#E5E6E7"/>
<path fill-rule="evenodd" clip-rule="evenodd" d="M100.789 114.711C88.5919 114.711 78.704 104.824 78.704 92.627C78.704 80.43 88.5919 70.527 100.789 70.527C112.985 70.527 122.887 80.429 122.887 92.627C122.887 104.825 112.985 114.711 100.789 114.711Z" fill="#58595B"/>
<path fill-rule="evenodd" clip-rule="evenodd" d="M90.478 73.092C89.873 75.106 89.535 77.26 89.535 79.473C89.535 91.684 99.422 101.571 111.619 101.571C115.351 101.571 118.858 100.641 121.943 99.008C119.197 108.092 110.774 114.711 100.789 114.711C88.5919 114.711 78.704 104.824 78.704 92.627C78.704 84.148 83.478 76.795 90.478 73.092Z" fill="#404042"/>
<path fill-rule="evenodd" clip-rule="evenodd" d="M100.789 105.895C93.4649 105.895 87.5209 99.952 87.5209 92.627C87.5209 85.289 93.4639 79.346 100.789 79.346C108.127 79.346 114.07 85.289 114.07 92.627C114.07 99.951 108.127 105.895 100.789 105.895Z" fill="#D1D2D4"/>
<path fill-rule="evenodd" clip-rule="evenodd" d="M100.789 97.232C98.2529 97.232 96.183 95.175 96.183 92.627C96.183 90.079 98.2529 88.008 100.789 88.008C103.338 88.008 105.408 90.078 105.408 92.627C105.408 95.176 103.338 97.232 100.789 97.232Z" fill="#404042"/>
<path fill-rule="evenodd" clip-rule="evenodd" d="M90.155 84.67C92.422 94.049 100.662 101.092 110.633 101.543C108.197 104.219 104.69 105.895 100.789 105.895C93.4649 105.895 87.5209 99.952 87.5209 92.627C87.5209 89.641 88.492 86.895 90.155 84.67Z" fill="#BBBDBF"/>
<path fill-rule="evenodd" clip-rule="evenodd" d="M100.789 67.711C87.0419 67.711 75.8879 78.865 75.8879 92.627C75.8879 94.697 76.141 96.711 76.619 98.641H79.535C79 96.725 78.704 94.711 78.704 92.627C78.704 80.43 88.5919 70.527 100.789 70.527C112.985 70.527 122.887 80.429 122.887 92.627C122.887 94.711 122.591 96.725 122.056 98.641H124.958C125.437 96.711 125.704 94.698 125.704 92.627C125.704 78.865 114.549 67.711 100.789 67.711Z" fill="#808184"/>
<path fill-rule="evenodd" clip-rule="evenodd" d="M13.816 64.908C11.281 64.908 9.211 66.978 9.211 69.513V90.175C9.211 92.71 11.281 94.78 13.816 94.78C16.351 94.78 18.436 92.71 18.436 90.175V69.513C18.436 66.979 16.351 64.908 13.816 64.908Z" fill="#221F20"/>
<path fill-rule="evenodd" clip-rule="evenodd" d="M187.732 86.457H143.717V94.289C143.717 98.162 146.886 101.332 150.76 101.332H180.69C184.563 101.332 187.732 98.162 187.732 94.289V86.457Z" fill="#A7AAAC"/>
<path fill-rule="evenodd" clip-rule="evenodd" d="M194.253 86.457H137.183V89.359C137.183 93.232 140.352 96.4 144.225 96.4H187.211C191.084 96.4 194.253 93.232 194.253 89.359V86.457Z" fill="#BBBDBF"/>
<path d="M177.465 69.543H180.915V103.373H177.465V69.543Z" fill="#EF4323"/>
<path d="M150.535 69.543H153.985V103.373H150.535V69.543Z" fill="#EF4323"/>
<path d="M177.465 86.457H180.915V103.373H177.465V86.457Z" fill="#D83327"/>
<path d="M150.535 86.457H153.985V103.373H150.535V86.457Z" fill="#D83327"/>
<path fill-rule="evenodd" clip-rule="evenodd" d="M49.746 114.711C37.549 114.711 27.647 104.824 27.647 92.627C27.647 80.43 37.548 70.527 49.746 70.527C61.944 70.527 71.8309 80.429 71.8309 92.627C71.8309 104.825 61.943 114.711 49.746 114.711Z" fill="#58595B"/>
<path fill-rule="evenodd" clip-rule="evenodd" d="M39.4219 73.092C38.8169 75.106 38.4919 77.26 38.4919 79.473C38.4919 91.684 48.38 101.571 60.577 101.571C64.295 101.571 67.803 100.641 70.887 99.008C68.141 108.092 59.718 114.711 49.746 114.711C37.549 114.711 27.647 104.824 27.647 92.627C27.647 84.148 32.4219 76.795 39.4219 73.092Z" fill="#404042"/>
<path fill-rule="evenodd" clip-rule="evenodd" d="M49.7459 105.895C42.4079 105.895 36.4649 99.952 36.4649 92.627C36.4649 85.289 42.4079 79.346 49.7459 79.346C57.0699 79.346 63.0139 85.289 63.0139 92.627C63.0129 99.951 57.0699 105.895 49.7459 105.895Z" fill="#D1D2D4"/>
<path fill-rule="evenodd" clip-rule="evenodd" d="M49.746 97.232C47.197 97.232 45.127 95.175 45.127 92.627C45.127 90.079 47.197 88.008 49.746 88.008C52.281 88.008 54.3521 90.078 54.3521 92.627C54.3521 95.176 52.281 97.232 49.746 97.232Z" fill="#404042"/>
<path fill-rule="evenodd" clip-rule="evenodd" d="M39.0979 84.67C41.3659 94.049 49.6049 101.092 59.5769 101.543C57.1399 104.219 53.6339 105.895 49.7459 105.895C42.4079 105.895 36.4649 99.952 36.4649 92.627C36.4649 89.641 37.4499 86.895 39.0979 84.67Z" fill="#BBBDBF"/>
<path fill-rule="evenodd" clip-rule="evenodd" d="M49.746 67.711C35.986 67.711 24.83 78.865 24.83 92.627C24.83 94.697 25.099 96.711 25.577 98.641H28.478C27.943 96.725 27.647 94.711 27.647 92.627C27.647 80.43 37.548 70.527 49.746 70.527C61.944 70.527 71.8309 80.429 71.8309 92.627C71.8309 94.711 71.5349 96.725 70.9999 98.641H73.915C74.394 96.711 74.647 94.698 74.647 92.627C74.647 78.865 63.493 67.711 49.746 67.711Z" fill="#808184"/>
<path d="M0.605957 22.557H194.253V29.868H0.605957V22.557Z" fill="#C06842"/>
<path d="M0.605957 37.725H194.253V45.036H0.605957V37.725Z" fill="#C06842"/>
<path d="M0.605957 53.33H194.253V63.289H0.605957V53.33Z" fill="#E18963"/>
<path d="M182.887 17.135H194.253V61.557H182.887V17.135Z" fill="#E18963"/>
<path d="M152.506 17.135H163.886V61.557H152.506V17.135Z" fill="#E18963"/>
<path d="M122.126 17.135H133.507V61.557H122.126V17.135Z" fill="#E18963"/>
<path d="M91.746 17.135H103.126V61.557H91.746V17.135Z" fill="#E18963"/>
<path d="M182.887 17.135H185.295V53.33H182.887V17.135Z" fill="#CF7853"/>
<path d="M152.507 17.135H154.915V53.33H152.507V17.135Z" fill="#CF7853"/>
<path d="M122.126 17.135H124.535V53.33H122.126V17.135Z" fill="#CF7853"/>
<path d="M91.746 17.135H94.1539V53.33H91.746V17.135Z" fill="#CF7853"/>
<path fill-rule="evenodd" clip-rule="evenodd" d="M89.957 29.867L85.634 22.557H0.60498V29.867H89.957Z" fill="#A65A3A"/>
<path fill-rule="evenodd" clip-rule="evenodd" d="M98.9429 45.035L94.619 37.725H0.60498V45.035H98.9429Z" fill="#A65A3A"/>
<path fill-rule="evenodd" clip-rule="evenodd" d="M109.76 63.289L103.859 53.33H0.60498V63.289H109.76Z" fill="#CF7853"/>
<path fill-rule="evenodd" clip-rule="evenodd" d="M94.1539 36.965L91.746 32.881V53.33H94.1539V36.965Z" fill="#E27226"/>
<path fill-rule="evenodd" clip-rule="evenodd" d="M103.126 52.092L91.746 32.881V61.557H103.126V52.092Z" fill="#CF7853"/>
<path d="M61.366 17.135H72.746V61.557H61.366V17.135Z" fill="#CF7853"/>
<path d="M61.3659 17.135H63.7739V53.33H61.3659V17.135Z" fill="#C06842"/>
<path d="M30.985 17.135H42.366V61.557H30.985V17.135Z" fill="#CF7853"/>
<path d="M30.985 17.135H33.394V53.33H30.985V17.135Z" fill="#C06842"/>
<path d="M0.60498 17.135H11.985V61.557H0.60498V17.135Z" fill="#CF7853"/>
</svg>
