<svg width="266" height="121" viewBox="0 0 266 121" fill="none" xmlns="http://www.w3.org/2000/svg">
<path d="M41.0141 67.205H164.169V74.5H41.0141V67.205Z" fill="#808184"/>
<path d="M37.985 72.5H172.098V79.811H37.985V72.5Z" fill="#221F20"/>
<path fill-rule="evenodd" clip-rule="evenodd" d="M175.169 86.641H40.042C36.352 86.641 33.338 89.655 33.338 93.346C33.338 97.035 36.352 100.049 40.042 100.049H175.169C178.859 100.049 181.873 97.035 181.873 93.346C181.873 89.654 178.859 86.641 175.169 86.641Z" fill="#221F20"/>
<path d="M28.535 76.148H199.803V96.048H28.535V76.148Z" fill="#404042"/>
<path d="M185.351 71.768H262.112V101.514H185.351V71.768Z" fill="#221F20"/>
<path fill-rule="evenodd" clip-rule="evenodd" d="M265.197 84.246H246.746V109.021H258.154C262.028 109.021 265.197 105.851 265.197 101.978V84.246Z" fill="#58595B"/>
<path fill-rule="evenodd" clip-rule="evenodd" d="M265.197 81.543C255.76 81.543 246.309 81.543 236.873 81.543C236.873 77.67 233.704 74.5 229.831 74.5C213.057 74.5 196.268 74.5 179.478 74.5C179.478 54.289 179.478 34.078 179.478 13.865C179.478 9.99199 182.647 6.82397 186.52 6.82397C204.112 6.82397 221.704 6.82397 239.295 6.82397C246.394 6.82397 265.196 61.232 265.196 61.232C265.197 68.008 265.197 74.781 265.197 81.543Z" fill="#2DABE2"/>
<path fill-rule="evenodd" clip-rule="evenodd" d="M201.774 74.5C201.774 54.289 201.774 34.078 201.774 13.865C201.774 9.99199 204.943 6.82397 208.816 6.82397H186.52C182.647 6.82397 179.478 9.99199 179.478 13.865C179.478 34.078 179.478 54.289 179.478 74.5H201.774Z" fill="#0B99D4"/>
<path fill-rule="evenodd" clip-rule="evenodd" d="M191.605 48.246V13.865C191.605 12.332 192.873 11.049 194.422 11.049C211.745 11.049 206.717 11.049 224.041 11.049C225.534 12.457 228.056 17.119 228.815 18.57C231.519 23.767 233.885 29.246 236.126 34.654C237.985 39.148 239.787 43.683 241.52 48.246H191.605Z" fill="#E6F6FD"/>
<path fill-rule="evenodd" clip-rule="evenodd" d="M243.803 11.049H234.042C235.535 12.457 238.057 17.119 238.816 18.57C241.52 23.767 243.886 29.246 246.126 34.654C247.986 39.148 249.788 43.683 251.521 48.246H260.479C255.943 36.189 249.028 18.938 243.803 11.049Z" fill="#E6F6FD"/>
<path fill-rule="evenodd" clip-rule="evenodd" d="M254.07 58.5C251.943 58.5 250.211 60.232 250.211 62.346V72.557C250.211 74.881 252.112 76.782 254.437 76.782H256.253C258.577 76.782 260.479 74.882 260.479 72.557V64.922C260.478 61.387 257.592 58.5 254.07 58.5Z" fill="white"/>
<path fill-rule="evenodd" clip-rule="evenodd" d="M253.605 76.711C255.548 76.316 257.013 74.6 257.013 72.557V64.922C257.013 62.063 255.126 59.641 252.563 58.811C251.182 59.403 250.21 60.768 250.21 62.346V72.557C250.211 74.6 251.676 76.316 253.605 76.711Z" fill="#E6F6FD"/>
<path fill-rule="evenodd" clip-rule="evenodd" d="M191.605 70.527H234.478C238.746 70.527 242.225 67.048 242.225 62.781V53.978C242.225 53.583 241.914 53.275 241.52 53.275C241.14 53.275 240.816 53.584 240.816 53.978V62.781C240.816 66.275 237.971 69.119 234.478 69.119H191.605C191.21 69.119 190.901 69.443 190.901 69.824C190.901 70.219 191.211 70.527 191.605 70.527Z" fill="#0980B3"/>
<path fill-rule="evenodd" clip-rule="evenodd" d="M205.676 51.867H197.873C197.099 51.867 196.465 52.5 196.465 53.275V55.035C196.465 55.81 197.099 56.443 197.873 56.443H205.676C206.45 56.443 207.084 55.81 207.084 55.035V53.275C207.084 52.5 206.45 51.867 205.676 51.867Z" fill="#0980B3"/>
<path fill-rule="evenodd" clip-rule="evenodd" d="M256.253 66.654H250.211V72.556C250.211 74.88 252.112 76.781 254.437 76.781H256.253C258.577 76.781 260.479 74.881 260.479 72.556V70.88C260.478 68.557 258.577 66.654 256.253 66.654Z" fill="#EF4323"/>
<path fill-rule="evenodd" clip-rule="evenodd" d="M255.971 84.246H246.745V109.021H248.929C252.802 109.021 255.971 105.851 255.971 101.978V84.246Z" fill="#404042"/>
<path fill-rule="evenodd" clip-rule="evenodd" d="M201.774 48.246V13.865C201.774 12.867 201.985 11.922 202.366 11.049H194.423C192.873 11.049 191.606 12.332 191.606 13.865V48.246H201.774Z" fill="#CCEAF5"/>
<path fill-rule="evenodd" clip-rule="evenodd" d="M253.605 76.711C255.548 76.316 257.013 74.6 257.013 72.557V66.725C256.76 66.67 256.506 66.655 256.252 66.655H250.21V72.557C250.211 74.6 251.676 76.316 253.605 76.711Z" fill="#D83327"/>
<path fill-rule="evenodd" clip-rule="evenodd" d="M211.943 120.965C199.746 120.965 189.859 111.078 189.859 98.881C189.859 86.67 199.746 76.781 211.943 76.781C224.154 76.781 234.042 86.67 234.042 98.881C234.042 111.078 224.154 120.965 211.943 120.965Z" fill="#58595B"/>
<path fill-rule="evenodd" clip-rule="evenodd" d="M201.634 79.346C201.029 81.36 200.691 83.514 200.691 85.725C200.691 97.922 210.578 107.811 222.79 107.811C226.508 107.811 230.015 106.895 233.1 105.26C230.353 114.346 221.931 120.965 211.945 120.965C199.748 120.965 189.861 111.078 189.861 98.881C189.859 90.402 194.634 83.049 201.634 79.346Z" fill="#404042"/>
<path fill-rule="evenodd" clip-rule="evenodd" d="M211.943 112.148C204.619 112.148 198.675 106.205 198.675 98.88C198.675 91.542 204.618 85.599 211.943 85.599C219.281 85.599 225.225 91.542 225.225 98.88C225.225 106.205 219.281 112.148 211.943 112.148Z" fill="#D1D2D4"/>
<path fill-rule="evenodd" clip-rule="evenodd" d="M211.943 103.486C209.408 103.486 207.338 101.416 207.338 98.881C207.338 96.33 209.408 94.26 211.943 94.26C214.493 94.26 216.563 96.33 216.563 98.881C216.563 101.416 214.493 103.486 211.943 103.486Z" fill="#404042"/>
<path fill-rule="evenodd" clip-rule="evenodd" d="M201.309 90.922C203.577 100.303 211.816 107.346 221.788 107.795C219.351 110.473 215.845 112.149 211.943 112.149C204.619 112.149 198.675 106.206 198.675 98.881C198.676 95.895 199.647 93.148 201.309 90.922Z" fill="#BBBDBF"/>
<path fill-rule="evenodd" clip-rule="evenodd" d="M211.943 73.965C198.197 73.965 187.042 85.119 187.042 98.881C187.042 100.951 187.296 102.965 187.774 104.895H190.69C190.155 102.979 189.859 100.965 189.859 98.881C189.859 86.67 199.746 76.781 211.943 76.781C224.154 76.781 234.042 86.67 234.042 98.881C234.042 100.965 233.746 102.979 233.211 104.895H236.112C236.591 102.965 236.859 100.952 236.859 98.881C236.859 85.119 225.704 73.965 211.943 73.965Z" fill="#808184"/>
<path fill-rule="evenodd" clip-rule="evenodd" d="M81.45 120.965C69.253 120.965 59.366 111.078 59.366 98.881C59.366 86.67 69.253 76.781 81.45 76.781C93.647 76.781 103.535 86.67 103.535 98.881C103.535 111.078 93.647 120.965 81.45 120.965Z" fill="#58595B"/>
<path fill-rule="evenodd" clip-rule="evenodd" d="M71.127 79.346C70.521 81.36 70.197 83.514 70.197 85.725C70.197 97.922 80.084 107.811 92.281 107.811C96 107.811 99.52 106.895 102.592 105.26C99.86 114.346 91.4221 120.965 81.4501 120.965C69.2531 120.965 59.366 111.078 59.366 98.881C59.366 90.402 64.127 83.049 71.127 79.346Z" fill="#404042"/>
<path fill-rule="evenodd" clip-rule="evenodd" d="M81.45 112.148C74.112 112.148 68.169 106.205 68.169 98.88C68.169 91.542 74.112 85.599 81.45 85.599C88.774 85.599 94.718 91.542 94.718 98.88C94.718 106.205 88.774 112.148 81.45 112.148Z" fill="#D1D2D4"/>
<path fill-rule="evenodd" clip-rule="evenodd" d="M81.45 103.486C78.901 103.486 76.831 101.416 76.831 98.881C76.831 96.33 78.901 94.26 81.45 94.26C84 94.26 86.056 96.33 86.056 98.881C86.056 101.416 84 103.486 81.45 103.486Z" fill="#404042"/>
<path fill-rule="evenodd" clip-rule="evenodd" d="M70.803 90.922C73.071 100.303 81.324 107.346 91.282 107.795C88.86 110.473 85.352 112.149 81.451 112.149C74.113 112.149 68.17 106.206 68.17 98.881C68.169 95.895 69.155 93.148 70.803 90.922Z" fill="#BBBDBF"/>
<path fill-rule="evenodd" clip-rule="evenodd" d="M81.4501 73.965C67.6891 73.965 56.5491 85.119 56.5491 98.881C56.5491 100.951 56.8031 102.965 57.2811 104.895H60.1971C59.6471 102.979 59.3661 100.965 59.3661 98.881C59.3661 86.67 69.2531 76.781 81.4501 76.781C93.6471 76.781 103.535 86.67 103.535 98.881C103.535 100.965 103.239 102.979 102.704 104.895H105.619C106.098 102.965 106.351 100.952 106.351 98.881C106.351 85.119 95.1971 73.965 81.4501 73.965Z" fill="#808184"/>
<path fill-rule="evenodd" clip-rule="evenodd" d="M25.197 71.162C22.662 71.162 20.577 73.232 20.577 75.767V96.415C20.577 98.964 22.662 101.034 25.197 101.034C27.732 101.034 29.802 98.964 29.802 96.415V75.767C29.803 73.232 27.732 71.162 25.197 71.162Z" fill="#221F20"/>
<path fill-rule="evenodd" clip-rule="evenodd" d="M171.127 69.527H10.8451C6.97208 69.527 3.80309 66.373 3.80309 62.486V22.543H171.127V69.527Z" fill="#F58220"/>
<path d="M168.52 0.0209961H173.07V69.527H168.52V0.0209961Z" fill="#B75E27"/>
<path fill-rule="evenodd" clip-rule="evenodd" d="M107.154 69.527L79.3231 22.543H3.80206V62.486C3.80206 66.373 6.97105 69.527 10.8441 69.527H107.154Z" fill="#E27226"/>
<path fill-rule="evenodd" clip-rule="evenodd" d="M173.394 22.543H2.98495C1.43596 22.543 0.168976 23.811 0.168976 25.359V33.134C0.168976 34.683 1.43695 35.95 2.98495 35.95H173.394C174.943 35.95 176.21 34.682 176.21 33.134V25.359C176.211 23.811 174.943 22.543 173.394 22.543Z" fill="#B75E27"/>
<path d="M3.80309 42.035H171.127V46.584H3.80309V42.035Z" fill="#B75E27"/>
<path d="M3.80309 54.387H171.127V58.938H3.80309V54.387Z" fill="#B75E27"/>
<path fill-rule="evenodd" clip-rule="evenodd" d="M160.296 77.838H130.366C126.493 77.838 123.324 81.008 123.324 84.881V100.543C123.324 104.416 126.493 107.584 130.366 107.584H160.296C164.169 107.584 167.338 104.416 167.338 100.543V84.881C167.338 81.008 164.169 77.838 160.296 77.838Z" fill="#D1D2D4"/>
<path fill-rule="evenodd" clip-rule="evenodd" d="M166.816 82.768H123.831C119.958 82.768 116.789 85.936 116.789 89.811V95.614C116.789 99.487 119.958 102.655 123.831 102.655H166.816C170.69 102.655 173.859 99.487 173.859 95.614V89.811C173.859 85.936 170.69 82.768 166.816 82.768Z" fill="#E5E6E7"/>
<path fill-rule="evenodd" clip-rule="evenodd" d="M167.338 92.711H123.324V100.543C123.324 104.416 126.493 107.584 130.366 107.584H160.296C164.169 107.584 167.338 104.416 167.338 100.543V92.711Z" fill="#A7AAAC"/>
<path fill-rule="evenodd" clip-rule="evenodd" d="M173.859 92.711H116.789V95.613C116.789 99.486 119.958 102.654 123.831 102.654H166.816C170.69 102.654 173.859 99.486 173.859 95.613V92.711Z" fill="#BBBDBF"/>
<path d="M157.07 75.795H160.507V109.627H157.07V75.795Z" fill="#EF4323"/>
<path d="M130.141 75.795H133.592V109.627H130.141V75.795Z" fill="#EF4323"/>
<path d="M157.07 92.711H160.507V109.627H157.07V92.711Z" fill="#D83327"/>
<path d="M130.141 92.711H133.592V109.627H130.141V92.711Z" fill="#D83327"/>
</svg>
