<svg width="550" height="262" viewBox="0 0 550 262" fill="none" xmlns="http://www.w3.org/2000/svg">
<path d="M533.442 148.756C533.442 148.756 542.717 151.539 542.717 164.527V220.18H481.191C481.191 193.029 459.173 171.019 432.028 171.019C431.976 171.019 431.924 171.027 431.872 171.027V119.537L533.442 148.756Z" fill="#242021"/>
<path d="M16.3134 129.584L90.0735 111.143V175.515C73.1401 183.28 61.3574 200.336 61.3574 220.18H12.6054V143.191C12.6054 143.191 11.2081 134.529 16.3134 129.584Z" fill="#242021"/>
<path d="M90.5188 111.032L145.712 46.7226H350.708L431.872 119.537V171.027C404.795 171.109 382.864 193.083 382.864 220.18H159.681C159.681 193.029 137.667 171.019 110.52 171.019C103.215 171.019 96.3068 172.655 90.0735 175.515V111.143L90.5188 111.032Z" fill="white"/>
<path d="M69.1628 220.18C69.1628 243.023 87.6748 261.535 110.52 261.535C133.361 261.535 151.876 243.023 151.876 220.18C151.876 197.339 133.361 178.823 110.52 178.823C87.6748 178.823 69.1628 197.339 69.1628 220.18Z" fill="black"/>
<path d="M90.0735 220.18C90.0735 231.471 99.2295 240.627 110.52 240.627C121.811 240.627 130.967 231.471 130.967 220.18C130.967 208.891 121.811 199.733 110.52 199.733C99.2295 199.733 90.0735 208.891 90.0735 220.18Z" fill="white"/>
<path d="M390.669 220.18C390.669 243.023 409.181 261.535 432.028 261.535C454.868 261.535 473.384 243.023 473.384 220.18C473.384 197.339 454.868 178.823 432.028 178.823C409.181 178.823 390.669 197.339 390.669 220.18Z" fill="black"/>
<path d="M411.581 220.18C411.581 231.471 420.736 240.627 432.028 240.627C443.319 240.627 452.473 231.471 452.473 220.18C452.473 208.891 443.319 199.733 432.028 199.733C420.736 199.733 411.581 208.891 411.581 220.18Z" fill="white"/>
<path d="M12.4334 155.715H52.4921C55.8214 155.715 58.5201 158.412 58.5201 161.743C58.5201 165.072 55.8214 167.771 52.4921 167.771H12.4334V155.715Z" fill="#B52026"/>
<path d="M12.4334 172.177H52.4921C55.8214 172.177 58.5201 174.876 58.5201 178.208C58.5201 181.535 55.8214 184.237 52.4921 184.237H12.4334V172.177Z" fill="#B52026"/>
<path d="M113.401 120.313L158.544 64.0387H245.736V120.313H113.401Z" fill="black"/>
<path d="M403.113 120.313L345.219 64.0387H258.027V120.313H403.113Z" fill="black"/>
<path d="M262.42 142.496C262.42 144.672 264.185 146.439 266.365 146.439H285.779C287.956 146.439 289.72 144.672 289.72 142.496C289.72 140.316 287.956 138.552 285.779 138.552H266.365C264.185 138.552 262.42 140.316 262.42 142.496Z" fill="black"/>
<path d="M113.401 142.496C113.401 144.672 115.165 146.439 117.343 146.439H136.756C138.933 146.439 140.697 144.672 140.697 142.496C140.697 140.316 138.933 138.552 136.756 138.552H117.343C115.165 138.552 113.401 140.316 113.401 142.496Z" fill="black"/>
<path d="M509.092 164.527H542.717V187.868H509.092C504.993 187.868 501.671 184.544 501.671 180.447V171.944C501.671 167.848 504.993 164.527 509.092 164.527Z" fill="white"/>
<path d="M495.567 218.324C495.567 222.423 498.889 225.745 502.988 225.745H541.945C546.044 225.745 549.365 222.423 549.365 218.324V213.689C549.365 209.589 546.044 206.268 541.945 206.268H502.988C498.889 206.268 495.567 209.589 495.567 213.689V218.324Z" fill="white"/>
<path d="M0.858754 218.324C0.858754 222.423 4.18011 225.745 8.28011 225.745H47.2388C51.3361 225.745 54.6601 222.423 54.6601 218.324V213.689C54.6601 209.589 51.3361 206.268 47.2388 206.268H8.28011C4.18011 206.268 0.858754 209.589 0.858754 213.689V218.324Z" fill="white"/>
<path d="M244.379 29.0973C244.379 33.196 247.7 36.5187 251.799 36.5187H260.367C264.468 36.5187 267.787 33.196 267.787 29.0973V7.76536C267.787 3.66669 264.468 0.344004 260.367 0.344004H251.799C247.7 0.344004 244.379 3.66669 244.379 7.76536V29.0973Z" fill="white"/>
<path d="M185.985 175.249H182.861V186.984H185.985C189.955 186.984 192.191 184.832 192.191 181.116C192.191 177.401 189.955 175.249 185.985 175.249ZM182.861 192.051V199.733H176.784V170.185H186.492C193.879 170.185 198.355 174.953 198.355 181.116C198.355 187.28 193.879 192.051 186.492 192.051H182.861Z" fill="black"/>
<path d="M225.161 195.004C230.523 195.004 234.827 190.909 234.827 184.957C234.827 179.005 230.523 174.912 225.161 174.912C219.8 174.912 215.495 179.005 215.495 184.957C215.495 190.909 219.8 195.004 225.161 195.004ZM225.161 169.679C234.024 169.679 240.989 176.009 240.989 184.957C240.989 193.907 234.024 200.24 225.161 200.24C216.296 200.24 209.331 193.907 209.331 184.957C209.331 176.009 216.296 169.679 225.161 169.679Z" fill="black"/>
<path d="M254.503 170.185H260.58V194.584H272.443V199.733H254.503V170.185Z" fill="black"/>
<path d="M292.033 170.185V199.733H285.956V170.185H292.033Z" fill="black"/>
<path d="M321.288 169.679C324.243 169.679 326.9 170.14 329.435 171.283L327.576 176.092C325.972 175.293 323.736 174.912 321.413 174.912C316.052 174.912 311.916 179.047 311.916 184.957C311.916 191.503 316.771 195.004 321.751 195.004C324.073 195.004 326.056 194.625 327.789 193.739L329.647 198.593C327.281 199.816 324.493 200.24 321.625 200.24C313.139 200.24 305.752 194.413 305.752 184.957C305.752 175.755 312.972 169.679 321.288 169.679Z" fill="black"/>
<path d="M343.789 170.185H361.94V175.335H349.867V183.269H359.999V188.419H349.867V194.584H362.319V199.733H343.789V170.185Z" fill="black"/>
</svg>
