<svg width="608" height="266" viewBox="0 0 608 266" fill="none" xmlns="http://www.w3.org/2000/svg">
<path d="M468.349 18.688L508.873 108.668C508.873 108.668 510.017 111.643 515.285 114.163L589.239 144.384C589.239 144.384 596.795 147.131 596.795 155.831V227.263C596.795 227.263 597.48 232.819 589.065 232.819H547.029C547.831 229.109 548.279 225.263 548.279 221.313C548.279 191.343 523.985 167.051 494.017 167.051C464.045 167.051 439.753 191.343 439.753 221.313C439.753 225.263 440.201 229.109 441.001 232.819H171.061C171.86 229.109 172.308 225.263 172.308 221.313C172.308 191.343 148.016 167.051 118.044 167.051C88.0759 167.051 63.7839 191.343 63.7839 221.313C63.7839 225.263 64.2306 229.109 65.0306 232.819H21.8813C21.8813 232.819 11.5813 234.367 11.5813 222.229V18.688H468.349Z" fill="#F9CF1B"/>
<path d="M73.3987 221.313C73.3987 245.971 93.388 265.96 118.044 265.96C142.703 265.96 162.692 245.971 162.692 221.313C162.692 196.655 142.703 176.667 118.044 176.667C93.388 176.667 73.3987 196.655 73.3987 221.313Z" fill="black"/>
<path d="M449.368 221.313C449.368 245.971 469.357 265.96 494.017 265.96C518.673 265.96 538.663 245.971 538.663 221.313C538.663 196.655 518.673 176.667 494.017 176.667C469.357 176.667 449.368 196.655 449.368 221.313Z" fill="black"/>
<path d="M282.895 110.959C282.895 113.992 285.355 116.452 288.389 116.452H382.719C385.752 116.452 388.213 113.992 388.213 110.959V43.644C388.213 40.6107 385.752 38.1507 382.719 38.1507H288.389C285.355 38.1507 282.895 40.6107 282.895 43.644V110.959Z" fill="white"/>
<path d="M401.724 110.959C401.724 113.992 404.185 116.452 407.219 116.452H476.82C479.855 116.452 482.315 113.992 482.315 110.959L452.092 43.644C450.965 40.3107 446.884 38.1507 443.851 38.1507H407.219C404.185 38.1507 401.724 40.6107 401.724 43.644V110.959Z" fill="white"/>
<path d="M162.692 110.959C162.692 113.992 165.152 116.452 168.187 116.452H262.517C265.551 116.452 268.012 113.992 268.012 110.959V43.644C268.012 40.6107 265.551 38.1507 262.517 38.1507H168.187C165.152 38.1507 162.692 40.6107 162.692 43.644V110.959Z" fill="white"/>
<path d="M42.4907 110.959C42.4907 113.992 44.9506 116.452 47.9839 116.452H142.315C145.349 116.452 147.808 113.992 147.808 110.959V43.644C147.808 40.6107 145.349 38.1507 142.315 38.1507H47.9839C44.9506 38.1507 42.4907 40.6107 42.4907 43.644V110.959Z" fill="white"/>
<path d="M555.925 232.303C555.925 235.339 558.385 237.799 561.419 237.799H601.947C604.98 237.799 607.44 235.339 607.44 232.303V200.365C607.44 197.329 604.98 194.868 601.947 194.868H561.419C558.385 194.868 555.925 197.329 555.925 200.365V232.303Z" fill="black"/>
<path d="M0.0532501 232.303C0.0532501 235.339 2.50651 237.799 5.54518 237.799H46.0732C49.1065 237.799 51.5665 235.339 51.5665 232.303V200.365C51.5665 197.329 49.1065 194.868 46.0732 194.868H5.54518C2.50651 194.868 0.0532501 197.329 0.0532501 200.365V232.303Z" fill="black"/>
<path d="M383.865 141.636H11.5813V133.396H383.865V141.636Z" fill="black"/>
<path d="M470.641 159.839H11.5813V151.596H470.641V159.839Z" fill="black"/>
<path d="M596.795 155.831L565.885 159.839V182.389L596.795 186.817V155.831" fill="white"/>
<path d="M9.0626 23.9533C9.0626 26.9893 11.5213 29.4494 14.556 29.4494H468.808C471.843 29.4494 474.303 26.9893 474.303 23.9533V5.63733C474.303 2.60133 471.843 0.139998 468.808 0.139998H14.556C11.5213 0.139998 9.0626 2.60133 9.0626 5.63733V23.9533" fill="#E0BA17"/>
<path d="M431.303 184.569L448.205 167.668V143.767L431.303 126.865H407.403L390.501 143.767V167.668L407.403 184.569H431.303Z" fill="white"/>
<path d="M430.096 181.645L445.285 166.457V144.975L430.096 129.788H408.613L393.424 144.975V166.457L408.613 181.645H430.096" fill="#EE4238"/>
<path d="M396.229 151.873C396.229 150.163 397.439 149 399.629 149C400.644 149 401.689 149.272 402.472 149.743L401.807 151.465C401.261 151.1 400.537 150.876 399.841 150.876C398.887 150.876 398.436 151.219 398.436 151.768C398.436 152.359 398.827 152.712 400.265 153.369C402.117 154.216 403.003 155.153 403.003 156.74C403.003 158.693 401.672 159.949 399.176 159.949C398.072 159.949 396.893 159.628 396 159.083L396.664 157.331C397.347 157.799 398.265 158.073 399.087 158.073C400.141 158.073 400.796 157.651 400.796 156.917C400.796 156.135 400.243 155.697 398.94 155.131C396.839 154.216 396.229 153.241 396.229 151.873" fill="white"/>
<path d="M409.835 151.027H407.011V149.181H414.84V151.027H412.013V159.761H409.835V151.027Z" fill="white"/>
<path d="M424.596 158.073C426.517 158.073 428.057 156.605 428.057 154.472C428.057 152.341 426.517 150.876 424.596 150.876C422.675 150.876 421.135 152.341 421.135 154.472C421.135 156.605 422.675 158.073 424.596 158.073ZM424.596 149C427.772 149 430.265 151.268 430.265 154.472C430.265 157.68 427.772 159.949 424.596 159.949C421.42 159.949 418.925 157.68 418.925 154.472C418.925 151.268 421.42 149 424.596 149Z" fill="white"/>
<path d="M438.404 150.995H437.284V155.2H438.404C439.824 155.2 440.627 154.428 440.627 153.099C440.627 151.768 439.824 150.995 438.404 150.995ZM437.284 157.016V159.761H435.109V149.181H438.587C441.231 149.181 442.831 150.889 442.831 153.099C442.831 155.308 441.231 157.016 438.587 157.016H437.284" fill="white"/>
<path d="M179.432 208.407C179.432 204.813 181.977 202.365 186.588 202.365C188.717 202.365 190.913 202.936 192.567 203.923L191.168 207.549C190.023 206.784 188.496 206.309 187.031 206.309C185.028 206.309 184.076 207.037 184.076 208.183C184.076 209.424 184.901 210.172 187.921 211.556C191.82 213.336 193.681 215.309 193.681 218.649C193.681 222.751 190.88 225.388 185.633 225.388C183.313 225.388 180.829 224.719 178.955 223.577L180.352 219.887C181.787 220.873 183.725 221.444 185.443 221.444C187.669 221.444 189.039 220.556 189.039 219.013C189.039 217.375 187.876 216.452 185.141 215.261C180.719 213.336 179.432 211.284 179.432 208.407" fill="black"/>
<path d="M213.824 202.365C216.051 202.365 218.057 202.712 219.964 203.569L218.564 207.196C217.356 206.595 215.671 206.309 213.921 206.309C209.883 206.309 206.764 209.424 206.764 213.879C206.764 218.809 210.423 221.444 214.177 221.444C215.924 221.444 217.42 221.161 218.724 220.492L220.121 224.148C218.34 225.073 216.241 225.388 214.081 225.388C207.687 225.388 202.12 221.004 202.12 213.879C202.12 206.943 207.56 202.365 213.824 202.365Z" fill="black"/>
<path d="M230.795 202.747H235.375V212.668H243.328V202.747H247.905V225.009H243.328V216.548H235.375V225.009H230.795V202.747Z" fill="black"/>
<path d="M270.025 221.444C274.065 221.444 277.311 218.361 277.311 213.879C277.311 209.392 274.065 206.309 270.025 206.309C265.987 206.309 262.743 209.392 262.743 213.879C262.743 218.361 265.987 221.444 270.025 221.444ZM270.025 202.365C276.705 202.365 281.953 207.137 281.953 213.879C281.953 220.62 276.705 225.388 270.025 225.388C263.347 225.388 258.099 220.62 258.099 213.879C258.099 207.137 263.347 202.365 270.025 202.365Z" fill="black"/>
<path d="M302.481 221.444C306.521 221.444 309.767 218.361 309.767 213.879C309.767 209.392 306.521 206.309 302.481 206.309C298.443 206.309 295.201 209.392 295.201 213.879C295.201 218.361 298.443 221.444 302.481 221.444ZM302.481 202.365C309.164 202.365 314.409 207.137 314.409 213.879C314.409 220.62 309.164 225.388 302.481 225.388C295.804 225.388 290.555 220.62 290.555 213.879C290.555 207.137 295.804 202.365 302.481 202.365Z" fill="black"/>
<path d="M324.605 202.747H329.191V221.132H338.127V225.009H324.605V202.747" fill="black"/>
<path d="M363.876 216.007V221.191H367.817C370.239 221.191 371.129 220.241 371.129 218.612C371.129 216.993 370.239 216.007 367.817 216.007H363.876ZM366.865 206.56H363.876V212.191H366.865C369.348 212.191 370.267 211.141 370.267 209.363C370.267 207.58 369.348 206.56 366.865 206.56V206.56ZM359.296 202.747H367.025C372.049 202.747 374.849 205.48 374.849 209.105C374.849 210.887 373.924 212.891 372.02 213.751C374.308 214.449 375.868 216.452 375.868 218.809C375.868 222.849 373.32 225.009 367.437 225.009H359.296V202.747" fill="black"/>
<path d="M385.899 215.596V202.747H390.484V215.881C390.484 219.793 392.771 221.444 395.252 221.444C397.735 221.444 400.023 219.793 400.023 215.881V202.747H404.601V215.596C404.601 222.335 400.343 225.388 395.252 225.388C390.163 225.388 385.899 222.335 385.899 215.596Z" fill="black"/>
<path d="M415.591 208.407C415.591 204.813 418.137 202.365 422.745 202.365C424.876 202.365 427.071 202.936 428.724 203.923L427.325 207.549C426.18 206.784 424.653 206.309 423.191 206.309C421.185 206.309 420.231 207.037 420.231 208.183C420.231 209.424 421.057 210.172 424.084 211.556C427.979 213.336 429.841 215.309 429.841 218.649C429.841 222.751 427.039 225.388 421.791 225.388C419.468 225.388 416.987 224.719 415.112 223.577L416.511 219.887C417.941 220.873 419.883 221.444 421.6 221.444C423.827 221.444 425.196 220.556 425.196 219.013C425.196 217.375 424.035 216.452 421.299 215.261C416.875 213.336 415.591 211.284 415.591 208.407Z" fill="black"/>
<path d="M473.528 221.313C473.528 232.627 482.701 241.8 494.017 241.8C505.331 241.8 514.503 232.627 514.503 221.313C514.503 209.999 505.331 200.825 494.017 200.825C482.701 200.825 473.528 209.999 473.528 221.313Z" fill="#F9CF1B"/>
<path d="M97.5586 221.313C97.5586 232.627 106.731 241.8 118.044 241.8C129.36 241.8 138.534 232.627 138.534 221.313C138.534 209.999 129.36 200.825 118.044 200.825C106.731 200.825 97.5586 209.999 97.5586 221.313Z" fill="#F9CF1B"/>
</svg>
