<svg width="512" height="197" viewBox="0 0 512 197" fill="none" xmlns="http://www.w3.org/2000/svg">
<path d="M358.9 149C374.3 129 370.6 100.3 350.5 84.9C330.5 69.5 301.8 73.2 286.4 93.3C271 113.3 274.7 142 294.7 157.4C314.8 172.7 343.5 169 358.9 149Z" fill="#86A7CC"/>
<path d="M422.3 33.3H376.9C368 33.3 360.7 26 360.7 17.1V16.8C360.7 7.9 368 0.600006 376.9 0.600006H422.3C431.2 0.600006 438.5 7.9 438.5 16.8V17.1C438.5 26.1 431.2 33.4 422.3 33.3Z" fill="#F6F0E8"/>
<path d="M428 66.1H371.2C362.3 66.1 355 58.8 355 49.9V49.6C355 40.7 362.3 33.4 371.2 33.4H428C436.9 33.4 444.2 40.7 444.2 49.6V49.9C444.2 58.8 436.9 66.1 428 66.1Z" fill="#657D99"/>
<path d="M434.8 98.9L364.3 98.8C355.4 98.8 348.1 91.5 348.1 82.6V82.3C348.1 73.4 355.4 66.1 364.3 66.1L434.8 66.2C443.7 66.2 451 73.5 451 82.4V82.7C451 91.6 443.7 98.9 434.8 98.9Z" fill="#AFC5DD"/>
<path d="M439.4 130L359.6 129.9C350.7 129.9 343.4 122.6 343.4 113.7V113.4C343.4 104.5 350.7 97.2 359.6 97.2L439.4 97.3C448.3 97.3 455.6 104.6 455.6 113.5V113.8C455.6 122.7 448.3 130 439.4 130Z" fill="#AFC5DD"/>
<path d="M439.4 130L359.6 129.9C350.7 129.9 343.4 122.6 343.4 113.7V113.4C343.4 104.5 350.7 97.2 359.6 97.2L439.4 97.3C448.3 97.3 455.6 104.6 455.6 113.5V113.8C455.6 122.7 448.3 130 439.4 130Z" fill="#F6F0E8"/>
<path d="M448.1 162.9L350.9 162.8C342 162.8 334.7 155.5 334.7 146.6V146.3C334.7 137.4 342 130.1 350.9 130.1L448.1 130.2C457 130.2 464.3 137.5 464.3 146.4V146.7C464.3 155.6 457 162.9 448.1 162.9Z" fill="#657D99"/>
<path d="M512 162H0V197H512V162Z" fill="#657D99"/>
</svg>
