<svg width="318" height="296" viewBox="0 0 318 296" fill="none" xmlns="http://www.w3.org/2000/svg">
<path d="M248.4 295.8C250.554 295.8 252.3 294.054 252.3 291.9C252.3 289.746 250.554 288 248.4 288C246.246 288 244.5 289.746 244.5 291.9C244.5 294.054 246.246 295.8 248.4 295.8Z" fill="#FAFCFB"/>
<path d="M4.00003 266.6C6.15394 266.6 7.90002 264.854 7.90002 262.7C7.90002 260.546 6.15394 258.8 4.00003 258.8C1.84612 258.8 0.100037 260.546 0.100037 262.7C0.100037 264.854 1.84612 266.6 4.00003 266.6Z" fill="#FAFCFB"/>
<path d="M70 88.1C71.436 88.1 72.6 86.9359 72.6 85.5C72.6 84.0641 71.436 82.9 70 82.9C68.5641 82.9 67.4 84.0641 67.4 85.5C67.4 86.9359 68.5641 88.1 70 88.1Z" fill="#FAFCFB"/>
<path d="M223.4 5.39998C224.836 5.39998 226 4.23593 226 2.79999C226 1.36405 224.836 0.199982 223.4 0.199982C221.964 0.199982 220.8 1.36405 220.8 2.79999C220.8 4.23593 221.964 5.39998 223.4 5.39998Z" fill="#FAFCFB"/>
<path d="M87.7 248.4C89.136 248.4 90.3 247.236 90.3 245.8C90.3 244.364 89.136 243.2 87.7 243.2C86.2641 243.2 85.1 244.364 85.1 245.8C85.1 247.236 86.2641 248.4 87.7 248.4Z" fill="#FAFCFB"/>
<path d="M314.1 226.2C316.254 226.2 318 224.454 318 222.3C318 220.146 316.254 218.4 314.1 218.4C311.946 218.4 310.2 220.146 310.2 222.3C310.2 224.454 311.946 226.2 314.1 226.2Z" fill="#FAFCFB"/>
<path d="M248.6 116.1C250.754 116.1 252.5 114.354 252.5 112.2C252.5 110.046 250.754 108.3 248.6 108.3C246.446 108.3 244.7 110.046 244.7 112.2C244.7 114.354 246.446 116.1 248.6 116.1Z" fill="#FAFCFB"/>
</svg>
