<svg width="541" height="156" viewBox="0 0 541 156" fill="none" xmlns="http://www.w3.org/2000/svg">
<path d="M316.143 101.43H439.298V108.74H316.143V101.43Z" fill="#808184"/>
<path d="M313.114 106.726H447.227V114.036H313.114V106.726Z" fill="#221F20"/>
<path fill-rule="evenodd" clip-rule="evenodd" d="M450.298 120.88H315.171C311.481 120.88 308.467 123.894 308.467 127.584C308.467 131.274 311.481 134.288 315.171 134.288H450.298C453.988 134.288 457.002 131.274 457.002 127.584C457.002 123.895 453.988 120.88 450.298 120.88Z" fill="#221F20"/>
<path d="M298.678 110.388H474.932V130.275H298.678V110.388Z" fill="#404042"/>
<path d="M460.48 106.007H537.241V135.753H460.48V106.007Z" fill="#221F20"/>
<path fill-rule="evenodd" clip-rule="evenodd" d="M540.326 118.486H521.875V143.26H533.283C537.157 143.26 540.326 140.091 540.326 136.218V118.486Z" fill="#58595B"/>
<path fill-rule="evenodd" clip-rule="evenodd" d="M540.326 115.782C530.889 115.782 521.438 115.782 512.002 115.782C512.002 111.909 508.833 108.74 504.96 108.74C488.186 108.74 471.397 108.74 454.607 108.74C454.607 88.529 454.607 68.318 454.607 48.107C454.607 44.233 457.776 41.065 461.649 41.065C479.241 41.065 496.833 41.065 514.424 41.065C521.523 41.065 540.325 95.474 540.325 95.474C540.326 102.247 540.326 109.007 540.326 115.782Z" fill="#F58220"/>
<path fill-rule="evenodd" clip-rule="evenodd" d="M476.903 108.739C476.903 88.528 476.903 68.317 476.903 48.106C476.903 44.232 480.072 41.064 483.945 41.064H461.649C457.776 41.064 454.607 44.233 454.607 48.106C454.607 68.317 454.607 88.528 454.607 108.739H476.903Z" fill="#E27226"/>
<path fill-rule="evenodd" clip-rule="evenodd" d="M466.734 82.486V48.106C466.734 46.57 468.002 45.289 469.551 45.289C486.874 45.289 481.846 45.289 499.17 45.289C500.663 46.698 503.185 51.36 503.944 52.81C506.648 58.007 509.014 63.486 511.255 68.894C513.114 73.373 514.916 77.922 516.649 82.485H466.734V82.486Z" fill="#E6F6FD"/>
<path fill-rule="evenodd" clip-rule="evenodd" d="M518.932 45.289H509.171C510.664 46.698 513.186 51.36 513.945 52.81C516.649 58.007 519.015 63.486 521.255 68.894C523.115 73.373 524.917 77.922 526.65 82.485H535.608C531.072 70.43 524.157 53.176 518.932 45.289Z" fill="#E6F6FD"/>
<path fill-rule="evenodd" clip-rule="evenodd" d="M529.199 92.739C527.072 92.739 525.34 94.471 525.34 96.584V106.795C525.34 109.119 527.241 111.02 529.566 111.02H531.382C533.706 111.02 535.608 109.119 535.608 106.795V99.147C535.607 95.626 532.721 92.739 529.199 92.739Z" fill="white"/>
<path fill-rule="evenodd" clip-rule="evenodd" d="M528.734 110.937C530.677 110.556 532.142 108.838 532.142 106.796V99.148C532.142 96.303 530.255 93.88 527.692 93.035C526.311 93.627 525.339 94.993 525.339 96.584V106.795C525.34 108.838 526.805 110.556 528.734 110.937Z" fill="#E6F6FD"/>
<path fill-rule="evenodd" clip-rule="evenodd" d="M466.734 104.768H509.607C513.875 104.768 517.354 101.289 517.354 97.022V88.219C517.354 87.825 517.043 87.515 516.649 87.515C516.269 87.515 515.945 87.825 515.945 88.219V97.022C515.945 100.501 513.1 103.36 509.607 103.36H466.734C466.339 103.36 466.03 103.67 466.03 104.064C466.03 104.458 466.34 104.768 466.734 104.768Z" fill="#B75E27"/>
<path fill-rule="evenodd" clip-rule="evenodd" d="M480.805 86.105H473.002C472.228 86.105 471.594 86.739 471.594 87.514V89.261C471.594 90.035 472.228 90.669 473.002 90.669H480.805C481.579 90.669 482.213 90.035 482.213 89.261V87.514C482.213 86.74 481.579 86.105 480.805 86.105Z" fill="#B75E27"/>
<path fill-rule="evenodd" clip-rule="evenodd" d="M531.382 100.88H525.34V106.796C525.34 109.12 527.241 111.021 529.566 111.021H531.382C533.706 111.021 535.608 109.12 535.608 106.796V105.106C535.607 102.782 533.706 100.88 531.382 100.88Z" fill="#EF4323"/>
<path fill-rule="evenodd" clip-rule="evenodd" d="M531.1 118.486H521.874V143.26H524.058C527.931 143.26 531.1 140.091 531.1 136.218V118.486Z" fill="#404042"/>
<path fill-rule="evenodd" clip-rule="evenodd" d="M476.903 82.486V48.106C476.903 47.106 477.114 46.148 477.495 45.289H469.552C468.002 45.289 466.735 46.571 466.735 48.106V82.486H476.903Z" fill="#CCEAF5"/>
<path d="M59.5649 101.43H182.734V108.74H59.5649V101.43Z" fill="#808184"/>
<path fill-rule="evenodd" clip-rule="evenodd" d="M528.734 110.937C530.677 110.556 532.142 108.838 532.142 106.796V100.951C531.889 100.909 531.635 100.881 531.381 100.881H525.339V106.797C525.34 108.838 526.805 110.556 528.734 110.937Z" fill="#D83327"/>
<path d="M40.3399 106.726H201.96V114.036H40.3399V106.726Z" fill="#221F20"/>
<path fill-rule="evenodd" clip-rule="evenodd" d="M487.072 155.19C474.875 155.19 464.988 145.302 464.988 133.106C464.988 120.909 474.875 111.021 487.072 111.021C499.283 111.021 509.171 120.909 509.171 133.106C509.171 145.303 499.283 155.19 487.072 155.19Z" fill="#58595B"/>
<path fill-rule="evenodd" clip-rule="evenodd" d="M476.763 113.571C476.158 115.599 475.82 117.74 475.82 119.965C475.82 132.162 485.707 142.049 497.919 142.049C501.637 142.049 505.144 141.133 508.229 139.5C505.482 148.584 497.06 155.19 487.074 155.19C474.877 155.19 464.99 145.302 464.99 133.106C464.988 124.641 469.763 117.275 476.763 113.571Z" fill="#404042"/>
<path fill-rule="evenodd" clip-rule="evenodd" d="M487.072 146.387C479.748 146.387 473.804 140.444 473.804 133.106C473.804 125.782 479.747 119.824 487.072 119.824C494.41 119.824 500.354 125.782 500.354 133.106C500.354 140.444 494.41 146.387 487.072 146.387Z" fill="#D1D2D4"/>
<path fill-rule="evenodd" clip-rule="evenodd" d="M487.072 137.725C484.537 137.725 482.467 135.655 482.467 133.106C482.467 130.556 484.537 128.5 487.072 128.5C489.622 128.5 491.692 130.556 491.692 133.106C491.692 135.655 489.622 137.725 487.072 137.725Z" fill="#404042"/>
<path fill-rule="evenodd" clip-rule="evenodd" d="M476.438 125.162C478.706 134.542 486.945 141.584 496.917 142.021C494.48 144.697 490.974 146.387 487.072 146.387C479.748 146.387 473.804 140.444 473.804 133.106C473.805 130.134 474.776 127.373 476.438 125.162Z" fill="#BBBDBF"/>
<path fill-rule="evenodd" clip-rule="evenodd" d="M487.072 108.204C473.326 108.204 462.171 119.359 462.171 133.106C462.171 135.19 462.425 137.205 462.903 139.134H465.819C465.284 137.218 464.988 135.191 464.988 133.106C464.988 120.909 474.875 111.021 487.072 111.021C499.283 111.021 509.171 120.909 509.171 133.106C509.171 135.19 508.875 137.218 508.34 139.134H511.241C511.72 137.205 511.988 135.191 511.988 133.106C511.988 119.359 500.833 108.204 487.072 108.204Z" fill="#808184"/>
<path fill-rule="evenodd" clip-rule="evenodd" d="M445.706 112.078H415.776C411.903 112.078 408.734 115.247 408.734 119.12V134.782C408.734 138.655 411.903 141.824 415.776 141.824H445.706C449.579 141.824 452.748 138.655 452.748 134.782V119.12C452.748 115.247 449.579 112.078 445.706 112.078Z" fill="#D1D2D4"/>
<path fill-rule="evenodd" clip-rule="evenodd" d="M380.044 155.19C367.847 155.19 357.945 145.302 357.945 133.106C357.945 120.909 367.846 111.021 380.044 111.021C392.242 111.021 402.129 120.909 402.129 133.106C402.129 145.303 392.241 155.19 380.044 155.19Z" fill="#58595B"/>
<path fill-rule="evenodd" clip-rule="evenodd" d="M369.72 113.571C369.115 115.599 368.791 117.74 368.791 119.965C368.791 132.162 378.678 142.049 390.875 142.049C394.594 142.049 398.101 141.133 401.186 139.5C398.439 148.584 390.017 155.19 380.044 155.19C367.847 155.19 357.945 145.302 357.945 133.106C357.945 124.641 362.721 117.275 369.72 113.571Z" fill="#404042"/>
<path fill-rule="evenodd" clip-rule="evenodd" d="M380.044 146.387C372.706 146.387 366.763 140.444 366.763 133.106C366.763 125.782 372.706 119.824 380.044 119.824C387.368 119.824 393.312 125.782 393.312 133.106C393.311 140.444 387.368 146.387 380.044 146.387Z" fill="#D1D2D4"/>
<path fill-rule="evenodd" clip-rule="evenodd" d="M380.044 137.725C377.495 137.725 375.425 135.655 375.425 133.106C375.425 130.556 377.495 128.5 380.044 128.5C382.594 128.5 384.649 130.556 384.649 133.106C384.649 135.655 382.594 137.725 380.044 137.725Z" fill="#404042"/>
<path fill-rule="evenodd" clip-rule="evenodd" d="M369.396 125.162C371.664 134.542 379.903 141.584 389.875 142.021C387.438 144.697 383.945 146.387 380.044 146.387C372.706 146.387 366.763 140.444 366.763 133.106C366.763 130.134 367.748 127.373 369.396 125.162Z" fill="#BBBDBF"/>
<path fill-rule="evenodd" clip-rule="evenodd" d="M380.044 108.204C366.283 108.204 355.129 119.359 355.129 133.106C355.129 135.19 355.397 137.205 355.875 139.134H358.776C358.241 137.218 357.945 135.191 357.945 133.106C357.945 120.909 367.846 111.021 380.044 111.021C392.242 111.021 402.129 120.909 402.129 133.106C402.129 135.19 401.833 137.218 401.298 139.134H404.213C404.692 137.205 404.945 135.191 404.945 133.106C404.945 119.359 393.791 108.204 380.044 108.204Z" fill="#808184"/>
<path fill-rule="evenodd" clip-rule="evenodd" d="M298.678 105.387C296.143 105.387 294.059 107.471 294.059 110.007V130.654C294.059 133.189 296.143 135.274 298.678 135.274C301.213 135.274 303.284 133.189 303.284 130.654V110.007C303.284 107.472 301.213 105.387 298.678 105.387Z" fill="#221F20"/>
<path fill-rule="evenodd" clip-rule="evenodd" d="M452.748 126.951H408.734V134.782C408.734 138.655 411.903 141.824 415.776 141.824H445.706C449.579 141.824 452.748 138.655 452.748 134.782V126.951Z" fill="#A7AAAC"/>
<path fill-rule="evenodd" clip-rule="evenodd" d="M329.833 155.19C317.636 155.19 307.748 145.302 307.748 133.106C307.748 120.909 317.636 111.021 329.833 111.021C342.044 111.021 351.932 120.909 351.932 133.106C351.932 145.303 342.044 155.19 329.833 155.19Z" fill="#58595B"/>
<path fill-rule="evenodd" clip-rule="evenodd" d="M319.523 113.571C318.917 115.599 318.579 117.74 318.579 119.965C318.579 132.162 328.467 142.049 340.678 142.049C344.397 142.049 347.904 141.133 350.989 139.5C348.242 148.584 339.82 155.19 329.834 155.19C317.637 155.19 307.749 145.302 307.749 133.106C307.748 124.641 312.523 117.275 319.523 113.571Z" fill="#404042"/>
<path fill-rule="evenodd" clip-rule="evenodd" d="M329.833 146.387C322.509 146.387 316.565 140.444 316.565 133.106C316.565 125.782 322.508 119.824 329.833 119.824C337.171 119.824 343.114 125.782 343.114 133.106C343.114 140.444 337.171 146.387 329.833 146.387Z" fill="#D1D2D4"/>
<path fill-rule="evenodd" clip-rule="evenodd" d="M329.833 137.725C327.298 137.725 325.228 135.655 325.228 133.106C325.228 130.556 327.298 128.5 329.833 128.5C332.382 128.5 334.452 130.556 334.452 133.106C334.452 135.655 332.382 137.725 329.833 137.725Z" fill="#404042"/>
<path fill-rule="evenodd" clip-rule="evenodd" d="M319.199 125.162C321.467 134.542 329.706 141.584 339.678 142.021C337.241 144.697 333.735 146.387 329.833 146.387C322.509 146.387 316.565 140.444 316.565 133.106C316.565 130.134 317.537 127.373 319.199 125.162Z" fill="#BBBDBF"/>
<path fill-rule="evenodd" clip-rule="evenodd" d="M329.833 108.204C316.086 108.204 304.932 119.359 304.932 133.106C304.932 135.19 305.186 137.205 305.664 139.134H308.579C308.044 137.218 307.748 135.191 307.748 133.106C307.748 120.909 317.636 111.021 329.833 111.021C342.044 111.021 351.932 120.909 351.932 133.106C351.932 135.19 351.636 137.218 351.101 139.134H354.002C354.481 137.205 354.748 135.191 354.748 133.106C354.748 119.359 343.594 108.204 329.833 108.204Z" fill="#808184"/>
<path fill-rule="evenodd" clip-rule="evenodd" d="M217.706 110.388H25.791V130.275H202.058L217.706 110.388Z" fill="#404042"/>
<path fill-rule="evenodd" clip-rule="evenodd" d="M25.8049 105.387C23.2559 105.387 21.1849 107.471 21.1849 110.007V130.654C21.1849 133.189 23.2559 135.274 25.8049 135.274C28.3399 135.274 30.4099 133.189 30.4099 130.654V110.007C30.4099 107.472 28.3399 105.387 25.8049 105.387Z" fill="#221F20"/>
<path fill-rule="evenodd" clip-rule="evenodd" d="M115.438 155.19C103.241 155.19 93.3539 145.302 93.3539 133.106C93.3539 120.909 103.241 111.021 115.438 111.021C127.635 111.021 137.523 120.909 137.523 133.106C137.523 145.303 127.636 155.19 115.438 155.19Z" fill="#58595B"/>
<path fill-rule="evenodd" clip-rule="evenodd" d="M105.129 113.571C104.509 115.599 104.186 117.74 104.186 119.965C104.186 132.162 114.073 142.049 126.27 142.049C130.002 142.049 133.509 141.133 136.594 139.5C133.847 148.584 125.425 155.19 115.439 155.19C103.242 155.19 93.355 145.302 93.355 133.106C93.354 124.641 98.129 117.275 105.129 113.571Z" fill="#404042"/>
<path fill-rule="evenodd" clip-rule="evenodd" d="M115.438 146.387C108.114 146.387 102.17 140.444 102.17 133.106C102.17 125.782 108.113 119.824 115.438 119.824C122.776 119.824 128.72 125.782 128.72 133.106C128.721 140.444 122.776 146.387 115.438 146.387Z" fill="#D1D2D4"/>
<path fill-rule="evenodd" clip-rule="evenodd" d="M115.438 137.725C112.889 137.725 110.833 135.655 110.833 133.106C110.833 130.556 112.89 128.5 115.438 128.5C117.988 128.5 120.058 130.556 120.058 133.106C120.058 135.655 117.988 137.725 115.438 137.725Z" fill="#404042"/>
<path fill-rule="evenodd" clip-rule="evenodd" d="M104.805 125.162C107.073 134.542 115.312 141.584 125.27 142.021C122.847 144.697 119.34 146.387 115.439 146.387C108.115 146.387 102.171 140.444 102.171 133.106C102.171 130.134 103.142 127.373 104.805 125.162Z" fill="#BBBDBF"/>
<path fill-rule="evenodd" clip-rule="evenodd" d="M115.438 108.204C101.692 108.204 90.5369 119.359 90.5369 133.106C90.5369 135.19 90.7909 137.205 91.2689 139.134H94.1849C93.6499 137.218 93.3539 135.191 93.3539 133.106C93.3539 120.909 103.241 111.021 115.438 111.021C127.635 111.021 137.523 120.909 137.523 133.106C137.523 135.19 137.241 137.218 136.692 139.134H139.607C140.086 137.205 140.339 135.191 140.339 133.106C140.34 119.359 129.199 108.204 115.438 108.204Z" fill="#808184"/>
<path fill-rule="evenodd" clip-rule="evenodd" d="M65.2409 155.19C53.0439 155.19 43.1569 145.302 43.1569 133.106C43.1569 120.909 53.0439 111.021 65.2409 111.021C77.4379 111.021 87.3259 120.909 87.3259 133.106C87.3259 145.303 77.4379 155.19 65.2409 155.19Z" fill="#58595B"/>
<path fill-rule="evenodd" clip-rule="evenodd" d="M54.9319 113.571C54.3119 115.599 53.989 117.74 53.989 119.965C53.989 132.162 63.8759 142.049 76.0729 142.049C79.8049 142.049 83.3119 141.133 86.3829 139.5C83.6519 148.584 75.2139 155.19 65.2419 155.19C53.0449 155.19 43.158 145.302 43.158 133.106C43.157 124.641 47.9319 117.275 54.9319 113.571Z" fill="#404042"/>
<path fill-rule="evenodd" clip-rule="evenodd" d="M65.2409 146.387C57.9029 146.387 51.96 140.444 51.96 133.106C51.96 125.782 57.9029 119.824 65.2409 119.824C72.5789 119.824 78.5229 125.782 78.5229 133.106C78.5229 140.444 72.5789 146.387 65.2409 146.387Z" fill="#D1D2D4"/>
<path fill-rule="evenodd" clip-rule="evenodd" d="M65.2409 137.725C62.6919 137.725 60.6359 135.655 60.6359 133.106C60.6359 130.556 62.6929 128.5 65.2409 128.5C67.7909 128.5 69.8459 130.556 69.8459 133.106C69.8469 135.655 67.7909 137.725 65.2409 137.725Z" fill="#404042"/>
<path fill-rule="evenodd" clip-rule="evenodd" d="M54.607 125.162C56.861 134.542 65.114 141.584 75.072 142.021C72.649 144.697 69.142 146.387 65.241 146.387C57.903 146.387 51.96 140.444 51.96 133.106C51.96 130.134 52.945 127.373 54.607 125.162Z" fill="#BBBDBF"/>
<path fill-rule="evenodd" clip-rule="evenodd" d="M65.2408 108.204C51.4808 108.204 40.3398 119.359 40.3398 133.106C40.3398 135.19 40.5939 137.205 41.0719 139.134H43.9879C43.4379 137.218 43.1569 135.191 43.1569 133.106C43.1569 120.909 53.0438 111.021 65.2408 111.021C77.4378 111.021 87.3259 120.909 87.3259 133.106C87.3259 135.19 87.0439 137.218 86.4949 139.134H89.4099C89.8889 137.205 90.1418 135.191 90.1418 133.106C90.1418 119.359 79.0018 108.204 65.2408 108.204Z" fill="#808184"/>
<path fill-rule="evenodd" clip-rule="evenodd" d="M165.636 155.19C153.439 155.19 143.552 145.302 143.552 133.106C143.552 120.909 153.439 111.021 165.636 111.021C177.833 111.021 187.735 120.909 187.735 133.106C187.734 145.303 177.833 155.19 165.636 155.19Z" fill="#58595B"/>
<path fill-rule="evenodd" clip-rule="evenodd" d="M155.326 113.571C154.721 115.599 154.383 117.74 154.383 119.965C154.383 132.162 164.27 142.049 176.467 142.049C180.199 142.049 183.706 141.133 186.791 139.5C184.044 148.584 175.622 155.19 165.636 155.19C153.439 155.19 143.552 145.302 143.552 133.106C143.552 124.641 148.326 117.275 155.326 113.571Z" fill="#404042"/>
<path fill-rule="evenodd" clip-rule="evenodd" d="M165.636 146.387C158.312 146.387 152.368 140.444 152.368 133.106C152.368 125.782 158.311 119.824 165.636 119.824C172.974 119.824 178.918 125.782 178.918 133.106C178.918 140.444 172.974 146.387 165.636 146.387Z" fill="#D1D2D4"/>
<path fill-rule="evenodd" clip-rule="evenodd" d="M165.636 137.725C163.101 137.725 161.031 135.655 161.031 133.106C161.031 130.556 163.101 128.5 165.636 128.5C168.185 128.5 170.256 130.556 170.256 133.106C170.256 135.655 168.184 137.725 165.636 137.725Z" fill="#404042"/>
<path fill-rule="evenodd" clip-rule="evenodd" d="M155.002 125.162C157.27 134.542 165.509 141.584 175.481 142.021C173.044 144.697 169.538 146.387 165.636 146.387C158.312 146.387 152.368 140.444 152.368 133.106C152.368 130.134 153.34 127.373 155.002 125.162Z" fill="#BBBDBF"/>
<path fill-rule="evenodd" clip-rule="evenodd" d="M165.636 108.204C151.89 108.204 140.735 119.359 140.735 133.106C140.735 135.19 140.989 137.205 141.467 139.134H144.383C143.847 137.218 143.552 135.191 143.552 133.106C143.552 120.909 153.439 111.021 165.636 111.021C177.833 111.021 187.735 120.909 187.735 133.106C187.735 135.19 187.439 137.218 186.904 139.134H189.805C190.284 137.205 190.551 135.191 190.551 133.106C190.551 119.359 179.396 108.204 165.636 108.204Z" fill="#808184"/>
<path d="M325.607 0.401001H366.199V18.697H325.607V0.401001Z" fill="#C12626"/>
<path d="M203.861 0.401001H244.453V18.697H203.861V0.401001Z" fill="#C12626"/>
<path d="M82.114 0.401001H122.706V18.697H82.114V0.401001Z" fill="#C12626"/>
<path fill-rule="evenodd" clip-rule="evenodd" d="M404.311 4.57001H53.2119C26.5779 4.57001 4.77496 26.359 4.77496 53.007C4.77496 79.641 26.5779 101.43 53.2119 101.43H404.311C430.959 101.43 452.748 79.641 452.748 53.007C452.748 26.359 430.96 4.57001 404.311 4.57001Z" fill="#EF4323"/>
<path fill-rule="evenodd" clip-rule="evenodd" d="M35.552 8.96497C34.537 12.881 33.989 16.979 33.989 21.19C33.989 47.838 55.777 69.627 82.411 69.627H446.058C440.001 89.486 421.48 104.036 399.705 104.036H48.606C21.959 104.036 0.169006 82.247 0.169006 55.599C0.171021 33.486 15.199 14.697 35.552 8.96497Z" fill="#D83327"/>
<path d="M57.0168 36.021H391.298V46.205H57.0168V36.021Z" fill="#D83327"/>
<path d="M57.0168 65.007H391.298V75.19H57.0168V65.007Z" fill="#D83327"/>
<path fill-rule="evenodd" clip-rule="evenodd" d="M61.8329 65.007H57.0168V75.19H391.298V69.626H82.4099C75.0579 69.626 68.0869 67.965 61.8329 65.007Z" fill="#C12626"/>
<path d="M442.481 110.035H445.932V143.866H442.481V110.035Z" fill="#EF4323"/>
<path d="M415.565 110.035H419.002V143.866H415.565V110.035Z" fill="#EF4323"/>
<path d="M442.481 126.951H445.932V143.867H442.481V126.951Z" fill="#D83327"/>
<path d="M415.565 126.951H419.002V143.867H415.565V126.951Z" fill="#D83327"/>
</svg>
