<svg width="550" height="262" viewBox="0 0 550 262" fill="none" xmlns="http://www.w3.org/2000/svg">
<path d="M68.9466 219.984C68.9466 242.826 87.46 261.34 110.305 261.34C133.147 261.34 151.66 242.826 151.66 219.984C151.66 197.143 133.147 178.629 110.305 178.629C87.46 178.629 68.9466 197.143 68.9466 219.984Z" fill="black"/>
<path d="M89.8587 219.984C89.8587 231.275 99.0133 240.431 110.305 240.431C121.597 240.431 130.752 231.275 130.752 219.984C130.752 208.696 121.597 199.537 110.305 199.537C99.0133 199.537 89.8587 208.696 89.8587 219.984Z" fill="#F9CF1B"/>
<path d="M16.0987 129.389L90.3041 110.837L145.497 46.528H350.492L431.657 119.343L533.227 148.561C533.227 148.561 542.503 151.344 542.503 164.331V219.984H480.976C480.976 192.835 458.959 170.824 431.813 170.824C404.663 170.824 382.649 192.835 382.649 219.984H159.465C159.465 192.835 137.452 170.824 110.305 170.824C83.1547 170.824 61.1428 192.835 61.1428 219.984H12.3894V142.996C12.3894 142.996 10.9921 134.335 16.0987 129.389Z" fill="#F9CF1B"/>
<path d="M390.453 219.984C390.453 242.826 408.967 261.34 431.813 261.34C454.653 261.34 473.168 242.826 473.168 219.984C473.168 197.143 454.653 178.629 431.813 178.629C408.967 178.629 390.453 197.143 390.453 219.984Z" fill="black"/>
<path d="M411.367 219.984C411.367 231.275 420.521 240.431 431.813 240.431C443.103 240.431 452.26 231.275 452.26 219.984C452.26 208.696 443.103 199.537 431.813 199.537C420.521 199.537 411.367 208.696 411.367 219.984Z" fill="#F9CF1B"/>
<path d="M12.2173 155.52H52.276C55.6053 155.52 58.3053 158.216 58.3053 161.548C58.3053 164.876 55.6053 167.576 52.276 167.576H12.2173V155.52Z" fill="#B52026"/>
<path d="M12.2173 171.983H52.276C55.6053 171.983 58.3053 174.681 58.3053 178.013C58.3053 181.34 55.6053 184.041 52.276 184.041H12.2173V171.983Z" fill="#B52026"/>
<path d="M113.187 120.119L158.328 63.844H245.521V120.119H113.187Z" fill="black"/>
<path d="M402.899 120.119L345.004 63.844H257.812V120.119H402.899Z" fill="black"/>
<path d="M376.312 172.064H388.988V159.383H376.312V172.064Z" fill="black"/>
<path d="M350.953 172.064H363.632V159.383H350.953V172.064Z" fill="black"/>
<path d="M363.632 184.74H376.312V172.064H363.632V184.74Z" fill="black"/>
<path d="M325.599 172.064H338.273V159.383H325.599V172.064Z" fill="black"/>
<path d="M338.273 184.74H350.953V172.064H338.273V184.74Z" fill="black"/>
<path d="M300.24 172.064H312.92V159.383H300.24V172.064Z" fill="black"/>
<path d="M312.92 184.74H325.599V172.064H312.92V184.74Z" fill="black"/>
<path d="M274.884 172.064H287.564V159.383H274.884V172.064Z" fill="black"/>
<path d="M287.564 184.74H300.24V172.064H287.564V184.74Z" fill="black"/>
<path d="M249.527 172.064H262.207V159.383H249.527V172.064Z" fill="black"/>
<path d="M262.207 184.74H274.884V172.064H262.207V184.74Z" fill="black"/>
<path d="M224.172 172.064H236.851V159.383H224.172V172.064Z" fill="black"/>
<path d="M236.851 184.74H249.527V172.064H236.851V184.74Z" fill="black"/>
<path d="M198.817 172.064H211.492V159.383H198.817V172.064Z" fill="black"/>
<path d="M211.492 184.74H224.172V172.064H211.492V184.74Z" fill="black"/>
<path d="M173.459 172.064H186.137V159.383H173.459V172.064Z" fill="black"/>
<path d="M186.137 184.74H198.817V172.064H186.137V184.74Z" fill="black"/>
<path d="M148.103 172.064H160.781V159.383H148.103V172.064Z" fill="black"/>
<path d="M160.781 184.74H173.459V172.064H160.781V184.74Z" fill="black"/>
<path d="M262.207 142.303C262.207 144.476 263.971 146.244 266.151 146.244H285.563C287.741 146.244 289.505 144.476 289.505 142.303C289.505 140.121 287.741 138.359 285.563 138.359H266.151C263.971 138.359 262.207 140.121 262.207 142.303Z" fill="black"/>
<path d="M113.187 142.303C113.187 144.476 114.951 146.244 117.128 146.244H136.543C138.719 146.244 140.484 144.476 140.484 142.303C140.484 140.121 138.719 138.359 136.543 138.359H117.128C114.951 138.359 113.187 140.121 113.187 142.303Z" fill="black"/>
<path d="M508.877 164.331H542.503V187.673H508.877C504.777 187.673 501.456 184.349 501.456 180.252V171.749C501.456 167.652 504.777 164.331 508.877 164.331Z" fill="black"/>
<path d="M495.352 218.129C495.352 222.228 498.673 225.549 502.772 225.549H541.729C545.828 225.549 549.151 222.228 549.151 218.129V213.493C549.151 209.395 545.828 206.073 541.729 206.073H502.772C498.673 206.073 495.352 209.395 495.352 213.493V218.129Z" fill="black"/>
<path d="M0.643973 218.129C0.643973 222.228 3.96523 225.549 8.06389 225.549H47.0239C51.1199 225.549 54.444 222.228 54.444 218.129V213.493C54.444 209.395 51.1199 206.073 47.0239 206.073H8.06389C3.96523 206.073 0.643973 209.395 0.643973 213.493V218.129Z" fill="black"/>
<path d="M244.163 28.9026C244.163 33.0013 247.485 36.3226 251.584 36.3226H260.152C264.253 36.3226 267.572 33.0013 267.572 28.9026V7.57065C267.572 3.47198 264.253 0.149327 260.152 0.149327H251.584C247.485 0.149327 244.163 3.47198 244.163 7.57065V28.9026Z" fill="white"/>
</svg>
