<?xml version="1.0" encoding="UTF-8"?>
<svg width="455px" height="283px" viewBox="0 0 455 283" version="1.1" xmlns="http://www.w3.org/2000/svg" xmlns:xlink="http://www.w3.org/1999/xlink">
    <!-- Generator: Sketch 61.2 (89653) - https://sketch.com -->
    <title>Castle Logo / White</title>
    <desc>Created with Sketch.</desc>
    <defs>
        <path d="M3.85739623,23.0064103 L3.85739623,19.4497436 L0.298637128,19.4497436 L0.298637128,23.0064103 L3.85739623,23.0064103 Z M35.8862282,23.3048718 C39.1463502,23.3048718 41.759425,22.1607692 42.97886,17.7833333 L39.718738,17.0371795 C39.0716909,19.4994872 37.7029374,20.4197436 35.9857739,20.4197436 C33.3975855,20.4197436 32.0786048,18.3305128 32.0786048,13.9282051 C32.0786048,9.92384615 33.5966769,7.68538462 36.0604332,7.68538462 C37.7527102,7.68538462 38.9223723,8.53102564 39.544533,10.8689744 L42.7299957,10.2720513 C41.8838572,6.46666667 39.718738,4.85 36.110206,4.85 C31.5311034,4.85 28.6442778,8.13307692 28.6442778,13.9282051 C28.6442778,19.8476923 31.157807,23.3048718 35.8862282,23.3048718 Z M70.8516586,23.0064103 L70.8516586,15.3210256 L78.1184953,15.3210256 L78.1184953,23.0064103 L81.5528223,23.0064103 L81.5528223,5.14846154 L78.1184953,5.14846154 L78.1184953,12.2617949 L70.8516586,12.2617949 L70.8516586,5.14846154 L67.3924452,5.14846154 L67.3924452,23.0064103 L70.8516586,23.0064103 Z M110.719715,23.0064103 L110.719715,15.8433333 L114.054496,15.8433333 L117.314618,23.0064103 L121.122242,23.0064103 L117.215073,14.8982051 C119.106441,14.1271795 120.325876,12.6348718 120.325876,10.2969231 C120.325876,6.88948718 118.110984,5.14846154 113.382563,5.14846154 L107.285388,5.14846154 L107.285388,23.0064103 L110.719715,23.0064103 Z M113.494979,13.0573042 L110.719715,13.0576923 L110.719715,8.03358974 L113.581654,8.03358974 C115.07484,8.03358974 116.866663,8.30717949 116.866663,10.5207692 C116.866663,12.7581254 114.796702,13.045631 113.494979,13.0573042 L113.494979,13.0573042 Z M148.945267,23.0064103 L148.945267,5.14846154 L145.510941,5.14846154 L145.510941,23.0064103 L148.945267,23.0064103 Z M180.152847,23.3048718 C183.985357,23.3048718 186.673091,21.4394872 186.673091,17.8828205 C186.673091,11.3166667 177.315795,13.3561538 177.315795,9.72487179 C177.315795,8.35692308 178.46057,7.58589744 180.003529,7.58589744 C181.670919,7.58589744 182.691263,8.35692308 183.33831,9.99846154 L186.225136,8.95384615 C185.229679,6.14333333 183.188991,4.85 179.953756,4.85 C176.494543,4.85 174.0059,6.76512821 174.0059,9.74974359 C174.0059,16.3905128 183.437856,14.2017949 183.437856,18.1315385 C183.437856,19.6984615 182.143762,20.5192308 180.351939,20.5192308 C178.236592,20.5192308 177.14159,19.4746154 176.643861,17.5594872 L173.458398,18.554359 C174.553401,21.9369231 176.693634,23.3048718 180.152847,23.3048718 Z M217.482488,23.0064103 L217.482488,8.03358974 L222.335342,8.03358974 L222.335342,5.14846154 L209.220194,5.14846154 L209.220194,8.03358974 L214.048161,8.03358974 L214.048161,23.0064103 L217.482488,23.0064103 Z M249.735298,23.0064103 L249.735298,9.45128205 L249.785071,9.45128205 L253.866445,23.0064103 L256.728384,23.0064103 L260.784872,9.45128205 L260.834645,9.45128205 L260.834645,23.0064103 L264.044994,23.0064103 L264.044994,5.14846154 L259.316573,5.14846154 L255.284971,18.5046154 L255.235199,18.5046154 L251.352916,5.14846154 L246.574722,5.14846154 L246.574722,23.0064103 L249.735298,23.0064103 Z M322.727189,23.3048718 C326.559699,23.3048718 329.247433,21.4394872 329.247433,17.8828205 C329.247433,11.3166667 319.890137,13.3561538 319.890137,9.72487179 C319.890137,8.35692308 321.034912,7.58589744 322.577871,7.58589744 C324.245262,7.58589744 325.265605,8.35692308 325.912652,9.99846154 L328.799478,8.95384615 C327.804021,6.14333333 325.763334,4.85 322.528098,4.85 C319.068885,4.85 316.580242,6.76512821 316.580242,9.74974359 C316.580242,16.3905128 326.012198,14.2017949 326.012198,18.1315385 C326.012198,19.6984615 324.718104,20.5192308 322.926281,20.5192308 C320.810935,20.5192308 319.715932,19.4746154 319.218203,17.5594872 L316.032741,18.554359 C317.127743,21.9369231 319.267976,23.3048718 322.727189,23.3048718 Z" id="path-1"></path>
        <filter x="-28.3%" y="-503.9%" width="156.5%" height="1107.9%" filterUnits="objectBoundingBox" id="filter-2">
            <feOffset dx="0" dy="0" in="SourceAlpha" result="shadowOffsetOuter1"></feOffset>
            <feGaussianBlur stdDeviation="31" in="shadowOffsetOuter1" result="shadowBlurOuter1"></feGaussianBlur>
            <feColorMatrix values="0 0 0 0 0.560784314   0 0 0 0 0.780392157   0 0 0 0 0.929411765  0 0 0 1 0" type="matrix" in="shadowBlurOuter1" result="shadowMatrixOuter1"></feColorMatrix>
            <feOffset dx="0" dy="0" in="SourceAlpha" result="shadowOffsetOuter2"></feOffset>
            <feGaussianBlur stdDeviation="7.5" in="shadowOffsetOuter2" result="shadowBlurOuter2"></feGaussianBlur>
            <feColorMatrix values="0 0 0 0 0.32589407   0 0 0 0 0.493951276   0 0 0 0 0.687471694  0 0 0 0.3 0" type="matrix" in="shadowBlurOuter2" result="shadowMatrixOuter2"></feColorMatrix>
            <feMerge>
                <feMergeNode in="shadowMatrixOuter1"></feMergeNode>
                <feMergeNode in="shadowMatrixOuter2"></feMergeNode>
            </feMerge>
        </filter>
        <linearGradient x1="50%" y1="0%" x2="50%" y2="100%" id="linearGradient-3">
            <stop stop-color="#FFFFFF" offset="0%"></stop>
            <stop stop-color="#D2E9F8" offset="100%"></stop>
        </linearGradient>
        <path d="M290.03228,0.113885136 C290.091825,0.155591238 290.143621,0.207386456 290.185327,0.266931571 L295.519697,7.88297981 C295.71731,8.16511782 295.648788,8.55403269 295.36665,8.75164548 C295.261789,8.82509178 295.136865,8.86448938 295.008841,8.86448938 L292.768593,8.8641006 L297.373294,15.3409352 C297.572885,15.6216768 297.5071,16.0110639 297.226359,16.2106555 C297.120796,16.2857046 296.994488,16.3260278 296.864966,16.3260278 L293.969593,16.3251006 L298.019964,22.1875498 C298.215761,22.470951 298.144744,22.8594179 297.861343,23.0552148 C297.757136,23.1272095 297.633479,23.1657714 297.506821,23.1657714 L290.607593,23.1651006 L290.607712,27.5176039 C290.607712,28.2048236 290.05061,28.7619253 289.36339,28.7619253 C288.676171,28.7619253 288.119069,28.2048236 288.119069,27.5176039 L288.118593,23.1651006 L281.84212,23.1657714 C281.49766,23.1657714 281.21842,22.8865315 281.21842,22.5420715 C281.21842,22.4154132 281.256982,22.2917567 281.328977,22.1875498 L285.378593,16.3251006 L282.483975,16.3260278 C282.139515,16.3260278 281.860275,16.0467879 281.860275,15.7023279 C281.860275,15.5728064 281.900598,15.4464978 281.975647,15.3409352 L286.579593,8.8641006 L284.3401,8.86448938 C283.99564,8.86448938 283.7164,8.5852494 283.7164,8.24078943 C283.7164,8.11276479 283.755798,7.98784139 283.829244,7.88297981 L289.163615,0.266931571 C289.361227,-0.0152064368 289.750142,-0.0837276598 290.03228,0.113885136 Z" id="path-4"></path>
        <filter x="-53.2%" y="-20.9%" width="206.4%" height="162.6%" filterUnits="objectBoundingBox" id="filter-5">
            <feOffset dx="0" dy="1" in="SourceAlpha" result="shadowOffsetOuter1"></feOffset>
            <feGaussianBlur stdDeviation="0.5" in="shadowOffsetOuter1" result="shadowBlurOuter1"></feGaussianBlur>
            <feColorMatrix values="0 0 0 0 1   0 0 0 0 1   0 0 0 0 1  0 0 0 0.5 0" type="matrix" in="shadowBlurOuter1" result="shadowMatrixOuter1"></feColorMatrix>
            <feOffset dx="0" dy="3" in="SourceAlpha" result="shadowOffsetOuter2"></feOffset>
            <feGaussianBlur stdDeviation="2.5" in="shadowOffsetOuter2" result="shadowBlurOuter2"></feGaussianBlur>
            <feColorMatrix values="0 0 0 0 0   0 0 0 0 0   0 0 0 0 0  0 0 0 0.2 0" type="matrix" in="shadowBlurOuter2" result="shadowMatrixOuter2"></feColorMatrix>
            <feMerge>
                <feMergeNode in="shadowMatrixOuter1"></feMergeNode>
                <feMergeNode in="shadowMatrixOuter2"></feMergeNode>
            </feMerge>
        </filter>
        <linearGradient x1="100%" y1="55.5903243%" x2="0%" y2="44.4096757%" id="linearGradient-6">
            <stop stop-color="#EDF2F7" offset="0%"></stop>
            <stop stop-color="#F7FAFC" offset="100%"></stop>
        </linearGradient>
        <path d="M69.8670599,50.8379487 C66.38296,48.5746154 63.9440902,44.744359 63.9440902,39.6953846 C63.9440902,37.6061538 64.2931223,35.5169231 64.9893201,33.2535897 C65.6861401,30.6420513 66.905575,27.8564103 67.950805,25.2448718 C70.390297,19.1512821 72.4801347,13.58 70.390297,11.3166667 C66.208755,6.79 41.4716463,21.9369231 27.012632,45.2666667 C19.3482346,57.6279487 16.0377176,71.904359 16.0377176,82.3505128 C16.0377176,97.3233333 22.6575072,103.939231 28.9288869,103.939231 C38.5107836,103.939231 50.8787158,92.7966667 60.9832275,73.4712821 C62.2026624,71.0338462 66.208755,69.9892308 67.950805,73.9935897 C68.8218299,75.9087179 69.1708621,77.9979487 69.1708621,79.7389744 C69.1708621,89.8369231 59.7637925,99.9348718 53.4924128,104.635641 C46.349386,109.684615 38.5107836,111.773846 31.019969,111.773846 C25.2705821,111.773846 20.0444324,110.555128 15.6893076,108.117692 C7.50229517,103.765128 0.359268365,92.7966667 0.0114805435,78.5202564 C-0.685339421,43.3515385 30.497354,11.8389744 50.1818959,2.95974359 C54.7118478,1.21871795 59.5889654,-8.83623659e-15 63.9440902,-8.83623659e-15 C68.2992149,-8.83623659e-15 72.3059297,1.21871795 75.2680368,3.65615385 C81.1903843,8.87923077 85.7197141,15.6692308 85.7197141,22.4592308 C85.7197141,25.5930769 85.0228941,29.0751282 83.2814663,32.5571795 C80.3199815,38.4766667 77.8811116,44.3961538 76.6610545,48.2264103 C75.7906517,51.1861538 73.3517818,52.9271795 69.8670599,50.8379487 M167.248272,104.809744 C163.41514,104.809744 159.756835,98.7161538 157.666375,90.5333333 C162.893147,83.0469231 167.770265,75.5605128 171.951185,68.9446154 C172.300217,73.6453846 172.4738,79.2166667 172.4738,84.7879487 C172.4738,96.1046154 170.905955,104.809744 167.248272,104.809744 M93.0363237,104.983846 C91.2942738,104.983846 90.5974538,102.894615 90.5974538,99.7607692 C90.5974538,94.1894872 93.5589387,84.9620513 98.7850884,76.7792308 C107.670165,62.5028205 119.689687,51.534359 123.174409,51.534359 C124.915837,51.534359 125.264869,52.7530769 125.264869,54.8423077 C125.264869,59.3689744 122.128557,67.9 115.334563,79.7389744 C106.798518,94.3635897 98.7850884,104.983846 93.0363237,104.983846 M275.603777,37.954359 C281.526124,27.6823077 286.055454,20.8923077 286.752896,21.2405128 C287.797504,21.9369231 285.533461,29.5974359 279.609869,39.5212821 C275.603777,46.3112821 269.680185,54.32 262.18937,61.6323077 C263.408805,58.6725641 271.073825,45.6148718 275.603777,37.954359 M320.548042,50.8379487 C322.464297,52.4048718 318.805992,60.5876923 313.754048,67.3776923 C310.269948,72.0784615 304.695388,77.3015385 300.51509,77.3015385 C299.295655,77.3015385 298.076221,76.9533333 296.682581,76.0828205 C305.043798,59.3689744 317.93559,48.7487179 320.548042,50.8379487 M338.665361,82.6987179 C337.272344,79.2166667 335.007056,79.5648718 333.090802,82.3505128 C325.949019,93.1448718 314.276663,106.028462 301.037705,106.028462 C295.810933,106.028462 292.675244,100.631282 292.675244,92.9707692 C292.675244,89.8369231 293.198481,86.1807692 294.243711,82.6987179 C298.249803,85.3102564 302.431345,86.5289744 306.612265,86.5289744 C321.941682,86.5289744 333.613417,68.2482051 333.613417,57.8020513 C333.613417,55.5387179 332.917219,52.9271795 331.871367,51.3602564 C329.432497,47.8782051 325.949019,45.0925641 321.071279,42.3069231 C319.329229,41.2623077 317.412975,40.9141026 314.974105,40.9141026 C304.870215,40.9141026 290.759611,50.1415385 281.700329,68.5964103 C278.904339,73.9189744 277.231349,79.1395641 276.596123,84.1033526 C270.011796,95.5947436 260.755912,105.680256 253.305538,105.680256 C251.040251,105.680256 249.995643,102.720513 249.995643,98.5420513 C249.995643,92.4484615 252.259686,84.6138462 255.744408,75.7346154 C271.073825,65.4625641 290.062169,44.9184615 295.463146,24.2002564 C296.333548,21.2405128 296.507753,19.3253846 296.507753,16.8879487 C296.507753,12.3612821 294.591499,7.48641026 290.759611,4.17846154 C287.449716,1.04461538 284.314026,2.08923077 281.003509,5.39717949 C263.93142,23.3297436 244.246256,55.5387179 237.452261,84.4397436 C237.363292,84.7966538 237.279301,85.1535641 237.201531,85.5104744 C231.200169,97.0485 223.10337,106.202564 216.896072,106.202564 C213.93521,106.202564 212.19316,102.54641 212.19316,97.3233333 C212.19316,93.4930769 213.237768,88.9664103 215.32885,84.265641 C221.426024,71.0338462 231.355709,53.7976923 237.974876,42.4810256 C241.807386,41.9587179 246.337338,41.6105128 249.473028,41.9587179 C253.653326,42.4810256 254.872761,40.3917949 253.131333,37.2579487 C251.911898,35.1687179 248.950413,32.3830769 243.549436,31.6866667 C245.640518,26.8117949 246.337338,22.8074359 246.337338,19.6735897 C246.337338,17.584359 245.640518,14.6246154 244.421083,12.5353846 C242.504206,9.2274359 240.413746,9.05333333 237.800671,12.8835897 C233.793957,18.6289744 230.136274,24.374359 224.735297,33.7758974 C220.903409,34.1241026 216.199252,34.2982051 212.19316,34.1241026 C208.185823,33.95 206.444395,35.6910256 208.882643,39.3471795 C210.276905,41.4364103 213.412595,43.3515385 218.812327,44.0479487 C211.844128,56.5833333 205.22496,70.3374359 201.74086,78.8684615 C200.511471,81.7635385 199.637957,84.4366346 199.072413,86.8678526 C196.00765,92.6511667 191.815531,96.9975128 186.236616,100.805385 C188.152249,96.9751282 189.023896,92.1002564 189.198101,87.7476923 C189.545889,78.3461538 187.281846,67.0294872 187.281846,54.6682051 C187.281846,52.4048718 187.455429,49.4451282 187.629634,47.3558974 C193.030611,38.4766667 191.984759,34.6464103 187.281846,34.6464103 C184.668771,34.6464103 181.532459,35.8651282 178.745179,38.3025641 C174.739087,41.6105128 172.648005,45.6148718 171.951185,51.8825641 C167.422477,59.3689744 161.32468,68.4223077 155.576538,76.6051282 C155.053301,72.4266667 152.440848,71.5561538 148.956126,74.5158974 C145.124238,77.8238462 143.381566,82.8728205 143.381566,88.0958974 C143.381566,88.8756282 143.433205,89.6615769 143.510976,90.4462821 C138.191502,99.0674679 131.759605,106.376667 126.832714,106.376667 C125.090664,106.376667 124.393844,104.809744 124.393844,102.198205 C124.393844,90.5333333 139.026441,71.5561538 143.555771,61.9805128 C148.085723,52.9271795 146.517256,45.2666667 143.555771,41.7846154 C141.465311,39.3471795 138.503826,39.5212821 136.413989,43.0033333 L133.104094,48.4005128 C131.535627,43.8738462 127.703739,40.74 121.432359,40.74 C112.547905,40.74 98.2630956,48.9228205 84.3260741,68.9446154 C78.0546944,77.6497436 74.9190046,87.3994872 74.9190046,94.8858974 C74.9190046,105.157949 80.4935643,112.644359 90.772281,112.644359 C97.7404806,112.644359 105.579083,107.247179 110.63165,102.372308 C112.02529,108.814103 117.077235,113.340769 125.787484,113.340769 C133.735587,113.340769 141.974861,108.178006 147.519557,101.568327 C153.58749,110.894006 163.379055,113.318385 173.171242,112.992564 C183.200472,112.591506 192.713309,108.595853 199.588807,101.249346 C202.237345,108.533673 208.519301,112.818462 215.502433,112.818462 C224.30414,112.818462 232.033864,107.402006 237.327829,101.948244 C239.619869,108.937218 245.387921,112.470256 253.479121,112.470256 C263.594831,112.470256 272.875602,105.648545 278.506778,99.7110256 C282.070515,107.793115 289.88112,113.116301 301.385493,112.992564 C314.974105,112.818462 328.909882,104.635641 336.226491,94.0153846 C339.362181,89.3146154 339.188598,84.265641 338.665361,82.6987179" id="path-7"></path>
        <filter x="-27.4%" y="-82.1%" width="154.9%" height="264.1%" filterUnits="objectBoundingBox" id="filter-8">
            <feOffset dx="0" dy="0" in="SourceAlpha" result="shadowOffsetOuter1"></feOffset>
            <feGaussianBlur stdDeviation="31" in="shadowOffsetOuter1" result="shadowBlurOuter1"></feGaussianBlur>
            <feColorMatrix values="0 0 0 0 0.560784314   0 0 0 0 0.780392157   0 0 0 0 0.929411765  0 0 0 1 0" type="matrix" in="shadowBlurOuter1" result="shadowMatrixOuter1"></feColorMatrix>
            <feOffset dx="0" dy="0" in="SourceAlpha" result="shadowOffsetOuter2"></feOffset>
            <feGaussianBlur stdDeviation="7.5" in="shadowOffsetOuter2" result="shadowBlurOuter2"></feGaussianBlur>
            <feColorMatrix values="0 0 0 0 0.32589407   0 0 0 0 0.493951276   0 0 0 0 0.687471694  0 0 0 0.3 0" type="matrix" in="shadowBlurOuter2" result="shadowMatrixOuter2"></feColorMatrix>
            <feMerge>
                <feMergeNode in="shadowMatrixOuter1"></feMergeNode>
                <feMergeNode in="shadowMatrixOuter2"></feMergeNode>
            </feMerge>
        </filter>
    </defs>
    <g id="Concept" stroke="none" stroke-width="1" fill="none" fill-rule="evenodd">
        <g id="Castle-Christmas-Concept" transform="translate(0.000000, -607.000000)">
            <g id="Castle-Logo-/-White" transform="translate(59.000000, 665.000000)">
                <g id="Castle-Logo">
                    <g id="Group-2">
                        <g id="Group" transform="translate(1.244321, 144.878205)">
                            <g id=".CHRISTMS" fill-rule="nonzero">
                                <use fill="black" fill-opacity="1" filter="url(#filter-2)" xlink:href="#path-1"></use>
                                <use fill="#FFFFFF" xlink:href="#path-1"></use>
                            </g>
                            <g id="Combined-Shape">
                                <use fill="black" fill-opacity="1" filter="url(#filter-5)" xlink:href="#path-4"></use>
                                <use fill="url(#linearGradient-3)" fill-rule="evenodd" xlink:href="#path-4"></use>
                            </g>
                        </g>
                        <g id="Fill-1">
                            <use fill="black" fill-opacity="1" filter="url(#filter-8)" xlink:href="#path-7"></use>
                            <use fill="url(#linearGradient-6)" fill-rule="evenodd" xlink:href="#path-7"></use>
                        </g>
                        <path d="M267.378842,134.350742 C267.615263,134.3764 268.088105,134.386379 268.796746,134.386379 C273.288124,134.459078 276.833818,134.617307 279.433827,134.856788 C280.14309,134.856788 280.675038,134.845384 281.029047,134.821151 C281.384301,134.796917 281.797416,134.785514 282.27088,134.785514 C283.688784,134.785514 284.752057,134.796917 285.46132,134.821151 C286.643425,134.821151 287.647593,134.815449 288.475066,134.802619 C289.30254,134.791216 290.30733,134.796917 291.488813,134.821151 C293.379559,134.845384 295.389138,134.86249 297.516305,134.875319 C299.643473,134.888148 301.77064,134.906679 303.89843,134.929487 C305.316956,134.929487 306.971281,134.923785 308.86265,134.912381 C310.753396,134.899552 312.762353,134.89385 314.88952,134.89385 C316.072248,134.89385 316.899099,134.869617 317.371941,134.821151 C317.844161,134.821151 318.317003,134.808321 318.789846,134.785514 C319.26331,134.785514 319.617319,134.772684 319.85374,134.748451 C321.035223,134.725643 322.040013,134.707112 322.867487,134.694283 C323.69496,134.681453 324.462707,134.617307 325.172592,134.496141 C325.408391,134.496141 325.644812,134.447675 325.881233,134.350742 C326.117654,134.255235 326.117654,134.171131 325.881233,134.098432 C326.117654,134.001499 326.471664,133.935927 326.944506,133.90029 C327.417348,133.863227 327.654391,133.833292 327.654391,133.809059 C328.127233,133.760593 328.540348,133.730658 328.894979,133.719254 C329.249611,133.706424 329.662726,133.665085 330.135568,133.592386 C330.60841,133.495453 330.903936,133.429881 331.022147,133.392819 C331.140357,133.357181 331.435884,133.303013 331.908726,133.230314 C332.145147,133.20608 332.499778,133.183273 332.97262,133.157614 C333.44484,133.133381 333.800094,133.110573 334.036515,133.084915 C334.981577,132.942366 335.454419,132.83403 335.454419,132.76133 C334.272936,132.640164 334.154104,132.526126 335.099788,132.417789 C336.045472,132.308027 336.399482,132.169756 336.163683,132.001549 C335.927262,131.881809 335.690841,131.790578 335.454419,131.729282 C335.217998,131.669412 335.217998,131.615244 335.454419,131.568203 C336.399482,131.495503 336.754735,131.3387 336.518314,131.097794 L335.808429,130.879695 L335.808429,130.771359 C335.808429,130.748551 335.690841,130.724318 335.454419,130.698659 C335.454419,130.578919 335.395314,130.500517 335.277104,130.46488 C335.158893,130.429243 334.863367,130.375075 334.390525,130.302375 C334.390525,130.278142 334.213209,130.235378 333.859199,130.175508 C333.503946,130.114212 333.327252,130.061469 333.327252,130.013003 C333.090209,129.964536 332.499778,129.867604 331.554094,129.72363 C331.554094,129.699397 331.435884,129.650931 331.199463,129.578231 C330.963041,129.506957 330.60841,129.458491 330.135568,129.434257 L329.4711,129.439959 L328.894979,129.451363 C328.540348,129.464193 328.127233,129.469894 327.654391,129.469894 L326.41318,129.343027 C326.057927,129.30739 325.644812,129.288858 325.172592,129.288858 C324.226286,129.314517 323.458539,129.30739 322.867487,129.271753 C322.276434,129.23469 321.390477,129.193351 320.208372,129.14631 C319.73553,129.120652 319.26331,129.109248 318.789846,129.109248 C318.317003,129.109248 317.844161,129.096418 317.371941,129.073611 L317.01731,129.073611 C316.780889,129.073611 316.426257,129.060781 315.953415,129.036548 C314.771932,128.988082 313.648932,128.970976 312.585037,128.98238 C311.521142,128.993784 310.753396,129.000911 310.280554,129.000911 C309.571291,128.975252 308.743817,128.965274 307.798755,128.965274 C306.14443,128.965274 305.198745,129.012315 304.962324,129.109248 C304.725903,129.20618 304.312166,129.247519 303.721114,129.23469 C303.130061,129.223286 302.598114,129.217584 302.125894,129.217584 C301.416631,129.217584 300.707367,129.20618 299.998726,129.181947 C299.525884,129.156289 299.053042,129.156289 298.579578,129.181947 C298.107358,129.20618 297.634516,129.20618 297.161674,129.181947 C296.688832,129.181947 296.216612,129.17482 295.74377,129.163416 C295.270927,129.152012 294.679875,129.156289 293.970612,129.181947 C293.261971,129.181947 292.789128,129.169118 292.552707,129.14631 C292.316286,129.14631 292.079865,129.133481 291.843444,129.109248 C291.371224,129.109248 290.838655,129.096418 290.248224,129.073611 C289.657172,129.047952 289.125224,129.036548 288.652382,129.036548 C287.943741,129.109248 287.057162,129.127779 285.993267,129.092142 C284.929373,129.055079 283.925205,129.036548 282.979521,129.036548 L282.315053,129.032272 L281.73831,129.019442 C281.384301,129.006613 280.970564,129.000911 280.497722,129.000911 L279.079818,129.000911 C278.843397,129.000911 278.488143,128.988082 278.015923,128.965274 C276.833818,128.915382 275.769923,128.892575 274.824861,128.892575 C273.879177,128.892575 272.815282,128.866916 271.633799,128.819875 L73.1172567,128.711538 C71.2265104,128.735772 69.3351419,128.771409 67.4443956,128.819875 C66.2622903,128.866916 65.1983955,128.892575 64.2533334,128.892575 C63.3076492,128.892575 62.2437544,128.915382 61.0622713,128.965274 C60.5894292,128.988082 60.2347976,129.000911 59.9983765,129.000911 L58.5798502,129.000911 C58.1076302,129.000911 57.6938934,129.006613 57.3386396,129.019442 L56.763141,129.032272 L56.0980512,129.036548 C55.1529891,129.036548 54.1475775,129.055079 53.0843049,129.092142 C52.0204101,129.127779 51.1344533,129.109248 50.4251901,129.036548 C49.952348,129.036548 49.4204006,129.047952 48.8299701,129.073611 C48.2382953,129.096418 47.7069701,129.109248 47.234128,129.109248 C46.9977069,129.133481 46.7612858,129.14631 46.5248648,129.14631 C46.2890659,129.169118 45.8162238,129.181947 45.1063384,129.181947 C44.3976974,129.156289 43.8066448,129.152012 43.3344248,129.163416 C42.8615827,129.17482 42.3881184,129.181947 41.9152763,129.181947 C41.4430563,129.20618 40.9702142,129.20618 40.4973721,129.181947 C40.02453,129.156289 39.5516879,129.156289 39.0794679,129.181947 C38.3702047,129.20618 37.6609415,129.217584 36.9516784,129.217584 C36.4788362,129.217584 35.947511,129.223286 35.3558362,129.23469 C34.7654057,129.247519 34.3516689,129.20618 34.1152478,129.109248 C33.8788267,129.012315 32.9337647,128.965274 31.2788173,128.965274 C30.333133,128.965274 29.5062815,128.975252 28.7970183,129.000911 C28.3241762,129.000911 27.5558077,128.993784 26.491913,128.98238 C25.4286404,128.970976 24.3062625,128.988082 23.1241572,129.036548 C22.6506929,129.060781 22.2966835,129.073611 22.0602624,129.073611 L21.7056308,129.073611 C21.2327887,129.096418 20.7599466,129.109248 20.2877266,129.109248 C19.8148845,129.109248 19.3420424,129.120652 18.8692003,129.14631 C17.6877171,129.193351 16.8011382,129.23469 16.2100855,129.271753 C15.619655,129.30739 14.8506644,129.314517 13.9056023,129.288858 C13.4327602,129.288858 13.0190234,129.30739 12.6643918,129.343027 L11.4238034,129.469894 C10.9509613,129.469894 10.5372244,129.464193 10.1825928,129.451363 L9.60647202,129.439959 L8.94138225,129.434257 C8.4691623,129.458491 8.11390855,129.506957 7.87748749,129.578231 C7.64106643,129.650931 7.52347806,129.699397 7.52347806,129.72363 C6.57779382,129.867604 5.98674117,129.964536 5.75032011,130.013003 C5.75032011,130.061469 5.57300432,130.114212 5.21899489,130.175508 C4.8643633,130.235378 4.68642534,130.278142 4.68642534,130.302375 C4.21420539,130.375075 3.91867906,130.429243 3.80046853,130.46488 C3.682258,130.500517 3.62315274,130.578919 3.62315274,130.698659 C3.38735384,130.724318 3.26852115,130.748551 3.26852115,130.771359 L3.26852115,130.879695 L2.55925797,131.097794 C2.32345907,131.3387 2.67809066,131.495503 3.62315274,131.568203 C3.8595738,131.615244 3.8595738,131.669412 3.62315274,131.729282 C3.38735384,131.790578 3.15093278,131.881809 2.91451172,132.001549 C2.67809066,132.169756 3.03210009,132.308027 3.97778433,132.417789 C4.9228464,132.526126 4.80525803,132.640164 3.62315274,132.76133 C3.62315274,132.83403 4.09599486,132.942366 5.04167909,133.084915 C5.27810015,133.110573 5.63273174,133.133381 6.10557386,133.157614 C6.57779382,133.183273 6.93242541,133.20608 7.16884647,133.230314 C7.64106643,133.303013 7.93721491,133.357181 8.05480328,133.392819 C8.17363597,133.429881 8.4691623,133.495453 8.94138225,133.592386 C9.41422437,133.665085 9.82796123,133.706424 10.1825928,133.719254 C10.5372244,133.730658 10.9509613,133.760593 11.4238034,133.809059 C11.4238034,133.833292 11.6596023,133.863227 12.1324444,133.90029 C12.6052865,133.935927 12.9599181,134.001499 13.1963392,134.098432 C12.9599181,134.171131 12.9599181,134.255235 13.1963392,134.350742 C13.4327602,134.447675 13.6691813,134.496141 13.9056023,134.496141 C14.6142434,134.617307 15.3826118,134.681453 16.2100855,134.694283 C17.0375592,134.707112 18.0417266,134.725643 19.2238319,134.748451 C19.4602529,134.772684 19.8148845,134.785514 20.2877266,134.785514 C20.7599466,134.808321 21.2327887,134.821151 21.7056308,134.821151 C22.1784729,134.869617 23.0059467,134.89385 24.1874298,134.89385 C26.3152193,134.89385 28.3241762,134.899552 30.2155446,134.912381 C32.106291,134.923785 33.7606162,134.929487 35.1791426,134.929487 C37.30631,134.906679 39.4334773,134.888148 41.5612669,134.875319 C43.6884342,134.86249 45.6973911,134.845384 47.5881374,134.821151 C48.7708649,134.796917 49.7750322,134.791216 50.6025059,134.802619 C51.4293575,134.815449 52.4347691,134.821151 53.6162523,134.821151 C54.3255154,134.796917 55.3894102,134.785514 56.8073144,134.785514 C57.2801565,134.785514 57.6938934,134.796917 58.0479028,134.821151 C58.4025344,134.845384 58.9344818,134.856788 59.6431228,134.856788 C62.2437544,134.617307 65.7894482,134.459078 70.280204,134.386379 C70.9894672,134.386379 71.4629314,134.3764 71.6987303,134.350742 C71.9351514,134.326509 72.4079935,134.315105 73.1172567,134.315105 C73.5894767,134.315105 74.0623188,134.309403 74.5351609,134.296574 L267.378842,134.350742 Z" id="Fill-1" fill="#FFFFFF"></path>
                    </g>
                </g>
            </g>
        </g>
    </g>
</svg>