<svg width="576" height="524" viewBox="0 0 576 524" fill="none" xmlns="http://www.w3.org/2000/svg">
<path d="M288.5 58V481" stroke="#657D99" stroke-width="17" stroke-miterlimit="10"/>
<path d="M525 473H46V512H525V473Z" fill="#657D99"/>
<path d="M574.7 10.7C573.8 8.19999 572.4 5.99999 570.4 4.29999C570.3 4.29999 570.3 4.19999 570.2 4.19999C568.1 2.39999 565.8 1.19999 563.1 0.699994C560.4 0.199994 557.8 0.299994 555.2 1.19999C551.4 2.49999 548.1 5.09999 546.4 9.09999H30.7C30.6 7.09999 30.5 8.69999 30.3 8.49999C28 5.09999 24.7 3.19999 20.7 2.19999C20.1 2.09999 19.6 1.89999 19 1.79999C15.1 0.799992 10.7 1.99999 7.50003 4.19999C2.90003 7.29999 0.300026 12.7 0.800026 18.2C1.10003 22.2 3.00003 25.9 6.00003 28.6C8.10003 30.4 10.5 31.6 13.2 32.1C15.9 32.6 18.6 32.4 21.2 31.5L22.8 31.1C25.3 30.2 27.4 28.8 29.1 26.8C29.3 26.6 29.5 26 29.7 26H548.8C549.2 26 549.6 26.8 550 27.2C554.1 30.8 560 32 565.2 30.2C570.3 28.4 574.1 24 575.2 18.7C575.8 15.9 575.6 13.3 574.7 10.7Z" fill="#CC9132"/>
<path d="M67 266.5H503" stroke="#657D99" stroke-width="17" stroke-miterlimit="10"/>
<path d="M44 5H185.1C185.1 5 178 260.3 67.4 348.6C67.4 348.6 154.5 461 154.5 524H44V5Z" fill="#CF3D23"/>
<path d="M76.2 365.7H50.6C41.4 365.7 34 358.3 34 349.1C34 339.9 41.4 332.5 50.6 332.5H76.2C85.4 332.5 92.8 339.9 92.8 349.1C92.8 358.3 85.3 365.7 76.2 365.7Z" fill="#CF3D23"/>
<path d="M537 5H393.6C393.6 5 400.7 260.3 511.3 348.6C511.3 348.6 424.2 461 424.2 524H537V5Z" fill="#CF3D23"/>
<path d="M530 365.7H504.4C495.2 365.7 487.8 358.3 487.8 349.1C487.8 339.9 495.2 332.5 504.4 332.5H530C539.2 332.5 546.6 339.9 546.6 349.1C546.5 358.3 539.1 365.7 530 365.7Z" fill="#CF3D23"/>
</svg>
